<svg id="XMLID_489_" xmlns="http://www.w3.org/2000/svg" xmlns:xlink="http://www.w3.org/1999/xlink" width="63" height="63" viewBox="0 0 63 63">
  <defs>
    <linearGradient id="linear-gradient" x1="0.781" y1="0.826" x2="0.311" y2="0.304" gradientUnits="objectBoundingBox">
      <stop offset="0.061" stop-color="#fff" stop-opacity="0"/>
      <stop offset="0.162" stop-color="#cdcdcd" stop-opacity="0.11"/>
      <stop offset="0.284" stop-color="#979797" stop-opacity="0.235"/>
      <stop offset="0.407" stop-color="#696969" stop-opacity="0.369"/>
      <stop offset="0.53" stop-color="#434343" stop-opacity="0.498"/>
      <stop offset="0.651" stop-color="#262626" stop-opacity="0.627"/>
      <stop offset="0.771" stop-color="#111" stop-opacity="0.757"/>
      <stop offset="0.888" stop-color="#040404" stop-opacity="0.882"/>
      <stop offset="1"/>
    </linearGradient>
  </defs>
  <path id="XMLID_6217_" d="M63,31.5a28.774,28.774,0,0,1-.2,3.593A31.57,31.57,0,0,1,31.5,63c-.788,0-1.575-.049-2.362-.1A31.5,31.5,0,1,1,63,31.5Z" fill="#eeae54"/>
  <path id="XMLID_5549_" d="M79.409,56.675a31.57,31.57,0,0,1-31.3,27.907c-.787,0-1.575-.049-2.362-.1L32.7,71.49,65.234,42.5Z" transform="translate(-16.605 -21.582)" opacity="0.2" fill="url(#linear-gradient)"/>
  <g id="XMLID_6069_" transform="translate(15.356 9.499)">
    <g id="XMLID_6056_">
      <path id="XMLID_6059_" d="M64.472,57.986a2.363,2.363,0,0,1-2.362,2.362H33.563A2.363,2.363,0,0,1,31.2,57.986V21.662A2.363,2.363,0,0,1,33.563,19.3H53L64.472,30.768Z" transform="translate(-31.2 -19.3)" fill="#ebf0f3"/>
      <path id="XMLID_6058_" d="M86.968,30.768H77.862A2.363,2.363,0,0,1,75.5,28.405V19.3Z" transform="translate(-53.696 -19.3)" fill="#27a2db"/>
    </g>
    <g id="Grupo_888981" data-name="Grupo 888981" transform="translate(4.528 15.455)">
      <path id="XMLID_6074_" d="M40.4,50.7H64.616v1.181H40.4Z" transform="translate(-40.4 -50.7)" fill="#d5d6db"/>
      <path id="XMLID_6073_" d="M40.4,60.1H64.616v1.181H40.4Z" transform="translate(-40.4 -55.473)" fill="#d5d6db"/>
      <path id="XMLID_6072_" d="M40.4,69.4H64.616v1.181H40.4Z" transform="translate(-40.4 -60.196)" fill="#d5d6db"/>
      <path id="XMLID_6071_" d="M40.4,78.8H64.616v1.181H40.4Z" transform="translate(-40.4 -64.97)" fill="#d5d6db"/>
    </g>
    <g id="XMLID_6062_" transform="translate(8.269 33.075)">
      <path id="XMLID_6067_" d="M75.316,87.534A19.342,19.342,0,0,0,71.33,86.8s-4.036-.3-9.45-.3-9.45.3-9.45.3a19.342,19.342,0,0,0-3.987.738.635.635,0,0,0-.443.64v.886a.794.794,0,0,0,.148.443,4.232,4.232,0,0,1,.787,1.821c.3,1.575,1.181,4.971,5.168,4.971a5.443,5.443,0,0,0,4.43-1.575,8.236,8.236,0,0,0,2.215-4.577L60.8,89.8a1.2,1.2,0,0,1,1.034-.935,1.147,1.147,0,0,1,1.034.935l.049.345a8.376,8.376,0,0,0,2.215,4.577,5.477,5.477,0,0,0,4.43,1.575c3.987,0,4.873-3.4,5.168-4.971a3.486,3.486,0,0,1,.788-1.821.687.687,0,0,0,.148-.443v-.886c.148-.3-.049-.541-.345-.64Z" transform="translate(-48 -86.5)" fill="#64798a"/>
      <path id="XMLID_6066_" d="M62.16,91.452a2.737,2.737,0,0,0-1.427-2.461A6.489,6.489,0,0,0,57.78,88.4c-3.691.1-5.07.591-5.217,1.575s-.394,3.691.689,4.922c2.609,2.9,6.4.837,7.038.2a6.508,6.508,0,0,0,1.87-3.642Z" transform="translate(-50.249 -87.465)" fill="#ebf0f3"/>
      <path id="XMLID_6065_" d="M80.3,91.452a2.737,2.737,0,0,1,1.427-2.461A6.489,6.489,0,0,1,84.68,88.4c3.691.1,5.07.591,5.217,1.575s.394,3.691-.689,4.922c-2.609,2.9-6.4.837-7.038.2A6.16,6.16,0,0,1,80.3,91.452Z" transform="translate(-64.402 -87.465)" fill="#ebf0f3"/>
      <g id="Grupo_888982" data-name="Grupo 888982" transform="translate(2.717 1.657)">
        <ellipse id="XMLID_6064_" cx="0.738" cy="1.427" rx="0.738" ry="1.427" transform="translate(16.003 0) rotate(45)" fill="#fff"/>
        <ellipse id="XMLID_6063_" cx="0.738" cy="1.427" rx="0.738" ry="1.427" transform="translate(2.018 0.019) rotate(45)" fill="#fff"/>
      </g>
    </g>
  </g>
</svg>
