<svg xmlns="http://www.w3.org/2000/svg" width="62.888" height="62.888" viewBox="0 0 62.888 62.888">
  <g id="Layer_x0020_1" transform="translate(0)">
    <circle id="Elipse_4886" data-name="Elipse 4886" cx="31.444" cy="31.444" r="31.444" transform="translate(0 0)" fill="#743bbc"/>
    <g id="Grupo_888974" data-name="Grupo 888974" transform="translate(11.321 11.321)">
      <path id="Trazado_623992" data-name="Trazado 623992" d="M1014.693,508.027a13.984,13.984,0,1,1,13.984-13.984A13.978,13.978,0,0,1,1014.693,508.027Zm0-27.024a13.04,13.04,0,1,0,13.04,13.041A13.053,13.053,0,0,0,1014.693,481Z" transform="translate(-988.432 -480.06)" fill="#fefefe" fill-rule="evenodd"/>
      <path id="Trazado_623993" data-name="Trazado 623993" d="M1150.3,640.35a10.7,10.7,0,1,1,10.7-10.7,10.71,10.71,0,0,1-10.7,10.7Zm0-20.456a9.756,9.756,0,1,0,6.9,16.655A9.77,9.77,0,0,0,1150.3,619.894Z" transform="translate(-1124.04 -615.667)" fill="#fefefe" fill-rule="evenodd"/>
      <path id="Trazado_623994" data-name="Trazado 623994" d="M996.8,1397.173a.472.472,0,0,1-.333-.806l2.767-2.767a.472.472,0,0,1,.667.667l-2.767,2.767a.471.471,0,0,1-.333.138Zm-2.953-2.953a.472.472,0,0,1-.333-.805l2.767-2.767a.472.472,0,0,1,.667.667l-2.767,2.767a.47.47,0,0,1-.333.138Z" transform="translate(-981.267 -1369.033)" fill="#fefefe" fill-rule="evenodd"/>
      <path id="Trazado_623995" data-name="Trazado 623995" d="M485.4,1488.872a.931.931,0,0,1-.663-.274l-4.4-4.4a.94.94,0,0,1,0-1.327l10.586-10.586a.962.962,0,0,1,1.327,0l4.4,4.4a.939.939,0,0,1,0,1.327L486.068,1488.6a.928.928,0,0,1-.663.275Zm6.183-15.92-10.579,10.586,4.4,4.389,10.583-10.583-4.4-4.392Z" transform="translate(-480.068 -1448.627)" fill="#fefefe" fill-rule="evenodd"/>
      <path id="Trazado_623996" data-name="Trazado 623996" d="M576.833,1575.285a.469.469,0,0,1-.333-.138l-2.53-2.53a.472.472,0,0,1,0-.667l6.437-6.437a.471.471,0,0,1,.667,0l2.53,2.53a.472.472,0,0,1,0,.667l-6.437,6.437A.472.472,0,0,1,576.833,1575.285Zm-1.863-3,1.863,1.863,5.77-5.77-1.863-1.863Z" transform="translate(-571.621 -1539.78)" fill="#fefefe" fill-rule="evenodd"/>
      <path id="Trazado_623997" data-name="Trazado 623997" d="M1471.445,821.94a3.085,3.085,0,1,1,3.085-3.085A3.089,3.089,0,0,1,1471.445,821.94Zm0-5.227a2.142,2.142,0,0,0,0,4.284A2.142,2.142,0,0,0,1471.445,816.713Z" transform="translate(-1445.053 -807.853)" fill="#fefefe" fill-rule="evenodd"/>
      <path id="Trazado_623998" data-name="Trazado 623998" d="M1579.183,783.984c-.6,0-.471-.739-.471-1.268a.472.472,0,0,1,.943,0C1579.655,783.245,1579.783,783.984,1579.183,783.984Z" transform="translate(-1552.791 -775.123)" fill="#fefefe" fill-rule="evenodd"/>
      <path id="Trazado_623999" data-name="Trazado 623999" d="M1657.982,825.613a.472.472,0,0,1-.334-.805c.374-.374.806-.988,1.23-.563s-.187.855-.563,1.23a.472.472,0,0,1-.333.138Z" transform="translate(-1629.742 -815.987)" fill="#fefefe" fill-rule="evenodd"/>
      <path id="Trazado_624000" data-name="Trazado 624000" d="M1691.278,927.045c-.529,0-1.268.129-1.268-.472s.739-.472,1.268-.472A.472.472,0,0,1,1691.278,927.045Z" transform="translate(-1661.476 -915.571)" fill="#fefefe" fill-rule="evenodd"/>
      <path id="Trazado_624001" data-name="Trazado 624001" d="M1658.349,1006.2c-.3,0-.593-.4-.9-.7a.472.472,0,0,1,.667-.667c.376.376.987.806.563,1.231A.469.469,0,0,1,1658.349,1006.2Z" transform="translate(-1629.545 -992.316)" fill="#fefefe" fill-rule="evenodd"/>
      <path id="Trazado_624002" data-name="Trazado 624002" d="M1579.183,1039.384c-.6,0-.471-.739-.471-1.268a.472.472,0,0,1,.943,0C1579.655,1038.645,1579.783,1039.384,1579.183,1039.384Z" transform="translate(-1552.791 -1024.5)" fill="#fefefe" fill-rule="evenodd"/>
      <path id="Trazado_624003" data-name="Trazado 624003" d="M1477.379,1006.192a.472.472,0,0,1-.334-.805c.375-.375.806-.988,1.23-.563s-.189.855-.563,1.23A.469.469,0,0,1,1477.379,1006.192Z" transform="translate(-1453.398 -992.307)" fill="#fefefe" fill-rule="evenodd"/>
      <path id="Trazado_624004" data-name="Trazado 624004" d="M1435.858,927.045c-.529,0-1.268.129-1.268-.472s.739-.472,1.268-.472A.472.472,0,0,1,1435.858,927.045Z" transform="translate(-1412.079 -915.571)" fill="#fefefe" fill-rule="evenodd"/>
      <path id="Trazado_624005" data-name="Trazado 624005" d="M1477.739,825.629c-.3,0-.594-.4-.9-.7a.472.472,0,0,1,.667-.667c.373.373.988.806.563,1.23a.472.472,0,0,1-.333.138Z" transform="translate(-1453.195 -816.003)" fill="#fefefe" fill-rule="evenodd"/>
      <path id="Trazado_624006" data-name="Trazado 624006" d="M1539.221,887.314a1.467,1.467,0,0,1,0-2.934A1.467,1.467,0,0,1,1539.221,887.314Zm0-1.991a.524.524,0,0,0,0,1.048A.524.524,0,0,0,1539.221,885.323Z" transform="translate(-1512.829 -874.845)" fill="#fefefe" fill-rule="evenodd"/>
      <path id="Trazado_624007" data-name="Trazado 624007" d="M1357.059,1160.712a2.338,2.338,0,0,1-2.48-2.5c.12-1.152-.867-1.461-1.517-1.464a.472.472,0,0,1,0-.943,2.338,2.338,0,0,1,2.48,2.5c-.121,1.166.863,1.452,1.517,1.464A.472.472,0,0,1,1357.059,1160.712Z" transform="translate(-1332.022 -1139.864)" fill="#fefefe" fill-rule="evenodd"/>
      <path id="Trazado_624008" data-name="Trazado 624008" d="M1610.082,1182.811a1.721,1.721,0,0,1,0-3.441A1.721,1.721,0,0,1,1610.082,1182.811Zm0-2.5a.778.778,0,0,0,0,1.555A.778.778,0,0,0,1610.082,1180.313Z" transform="translate(-1581.775 -1162.878)" fill="#fefefe" fill-rule="evenodd"/>
      <path id="Trazado_624009" data-name="Trazado 624009" d="M1774.145,1048.329a1.4,1.4,0,0,1,0-2.8A1.4,1.4,0,0,1,1774.145,1048.329Zm0-1.856a.457.457,0,0,0,0,.913A.457.457,0,0,0,1774.145,1046.473Z" transform="translate(-1742.278 -1032.194)" fill="#fefefe" fill-rule="evenodd"/>
      <path id="Trazado_624010" data-name="Trazado 624010" d="M1298.749,995.869a1.4,1.4,0,0,1,0-2.8A1.4,1.4,0,0,1,1298.749,995.869Zm0-1.856a.457.457,0,0,0,0,.913A.457.457,0,0,0,1298.749,994.013Z" transform="translate(-1278.093 -980.972)" fill="#fefefe" fill-rule="evenodd"/>
    </g>
  </g>
</svg>
