<svg xmlns="http://www.w3.org/2000/svg" width="295" height="256.445" viewBox="0 0 295 256.445">
  <g id="Hero_Image" data-name="Hero Image" transform="translate(0 0)">
    <g id="Group" transform="translate(0 0)">
      <path id="Path" d="M7.472,2.665c-2.875,1.045-5.891,3.28-6.1,5.89C.78,15.973,23.405,12.162,19.286,19.939c-.668,1.261-2.337,2.036-4.013,2.446-2.267.555-5.086-1.218-8.708,1.019C1.186,26.726,0,32.878,0,35.189c0,4.9,5.277,4.177,6.654,6.633s2.6,7.133,5.918,7.878a2.808,2.808,0,0,0,1.217.068,2.084,2.084,0,0,0,.947-.552c4.045-3.768.678-10.159,3.4-14.244,4.124-6.193,16.632-6.758,22.615-5.117,11.274,3.094,24.565,3.992,35.735.167,1.773-.607,3.7-1.584,3.819-3.084.138-1.793-2.346-2.96-4.511-3.6s-4.728-1.479-5.126-3.249c-.378-1.681,1.57-3.188,3.64-3.766s4.345-.563,6.444-1.073c7.5-1.823,3.557-8.339-.805-10.84A36.358,36.358,0,0,0,65.268.218C58.74-.368,52.25.348,45.77.926,33.382,2.032,19.5-1.7,7.472,2.665Z" transform="translate(210.034 188.94)" fill="#f0f3fc"/>
      <path id="Path-2" data-name="Path" d="M35.329,31.416c1.369,3.869-1.3,8.2-4.854,10.247S22.687,44.1,18.635,44.75c-2.994.48-6.78,2.259-6.182,5.232A4.706,4.706,0,0,0,13.542,52c3.555,4.281,9.75,5.489,15.264,4.736s10.65-3.127,15.93-4.885a73.566,73.566,0,0,1,36.218-2.567c8.063,1.466,15.813,4.272,23.752,6.3a126.584,126.584,0,0,0,60.6.445c12.071-2.9,24.039-7.806,32.812-16.589,2.979-2.982,5.7-7.236,4.2-11.174-1.143-2.995-4.309-4.617-7.215-5.971-8.5-3.958-17.039-7.933-26.068-10.451-7.67-2.139-15.593-3.2-23.486-4.253C116.2,3.669,85.881-1.292,56.178.308,47.5.776,39.8,3.049,31.6,5.7,21.2,9.074,5.858,10.708,0,21.257c5.338,3.107,11.859,4.988,17.823,6.641C19.72,28.424,35.005,30.5,35.329,31.416Z" transform="translate(0 166.608)" fill="#f0f3fc"/>
      <path id="Path-3" data-name="Path" d="M1.832,4.626A7.857,7.857,0,0,0,.585,6.581a5.937,5.937,0,0,0-.434,3.841,7.009,7.009,0,0,0,3.842,4.193,4.857,4.857,0,0,0,2.945.657,3.783,3.783,0,0,0,2.528-1.895,7.829,7.829,0,0,0,.9-3.112,3.889,3.889,0,0,0-.106-1.755,5.851,5.851,0,0,0-.81-1.306A8.692,8.692,0,0,1,7.875,2.23c0-2.661-.361-2.832-2.094-1.088C4.541,2.39,2.992,3.292,1.832,4.626Z" transform="translate(216.322 241.13)" fill="#f0f3fc"/>
      <path id="Shape" d="M95.22,149.071c-4.505-12.68.43-29.536-5.239-41.988-6.3-13.92-21.209-15.262-34.269-15.388-16.046-.177-32.826-.683-45.81-10.934C2.891,75.218-2.955,63.677,1.626,53.173c4.849-.407,9.685.678,14.472,1.762C24.1,56.75,31.978,58.564,39.565,53.4c5.214-3.543,9.238-9.845,14.274-13.895,4.986-4.024,10.706-5.593,16.274-6.58a91.416,91.416,0,0,1,26.22-.886c5.492.633,10.985,1.772,16.628.81A20.965,20.965,0,0,0,128,21.891c3.341-6.352,3.973-15.084,8.757-19.615,4.581-4.3,10.808-2.076,13.768,3.088,2.936,5.163,3.366,12.326,3.29,19.185A179.143,179.143,0,0,1,150.8,55.376c-.962,5.087-2.126,10.276-1.873,15.287s2.328,9.921,5.973,11.01c4.885,1.417,9.972-4.126,13.693-9.517,3.7-5.365,7.8-11.592,12.984-12.326,6.3-.861,10.529,7.77,9.744,16.02-.81,8.276-5.087,15.819-9.567,22.4-17.084,25.208-40.318,44.924-63.881,55.833-3.975,1.843-8.2,3.362-12,3.361C101.362,157.443,97.443,155.314,95.22,149.071Z" transform="translate(76.702 0)" fill="#f0f3fc"/>
    </g>
    <g id="Group-2" data-name="Group" transform="translate(14.296 3.254)">
      <g id="Group-3" data-name="Group" transform="translate(0 4.502)">
        <path id="Path-4" data-name="Path" d="M33.073,67.69v46.392H0V67.69L4.922,2.67a26.663,26.663,0,0,1,23.26,0Z" transform="translate(0 57.01)" fill="#d2dbf7"/>
        <rect id="Rectangle" width="52.548" height="101.074" transform="translate(57.724 70.013)" fill="#d2dbf7"/>
        <rect id="Rectangle-2" data-name="Rectangle" width="22.118" height="79.357" transform="translate(132.39 171.087) rotate(180)" fill="#e6e9f8"/>
        <rect id="Rectangle-3" data-name="Rectangle" width="45.644" height="50.537" transform="translate(33.059 120.55)" fill="#e6e9f8"/>
        <path id="Path-5" data-name="Path" d="M11.293,49.3a20.1,20.1,0,0,0,4.677-5.017c2.554-3.771,4.461-8.388,8.526-10.442,2.317-1.17,5-1.306,7.593-1.418l12.292-.534c3.735-.162,7.4-.028,10.95-1.229,2.482-.839,3.559-2.528,4.59-4.849a48.38,48.38,0,0,1,6.631-11.257,16.243,16.243,0,0,1,4.769-4.163c3.642-1.932,7.351-.722,10.92.72C77.686,3.219,67.973-2.313,58.872.958c-3.39,1.219-6.291,3.586-9.723,4.682-3.639,1.162-7.557.8-11.376.741S29.89,6.643,26.8,8.895a15.639,15.639,0,0,0-4.852,6.815c-1.928,4.624-3.06,9.811-6.33,13.749-1.7,2.048-4.007,2.85-6.3,3.99a16.8,16.8,0,0,0-6.214,5.319C1.187,41.492-1.072,46.528.563,49.81c1.709,3.43,6.818,1.836,9.406.351A14.481,14.481,0,0,0,11.293,49.3Z" transform="translate(16.537)" fill="#f0f3fc"/>
        <rect id="Rectangle-4" data-name="Rectangle" width="5.63" height="15.081" transform="translate(38.823 134.022)" fill="#d2dbf7"/>
        <rect id="Rectangle-5" data-name="Rectangle" width="5.63" height="15.081" transform="translate(50.251 134.022)" fill="#d2dbf7"/>
        <rect id="Rectangle-6" data-name="Rectangle" width="5.63" height="15.081" transform="translate(61.679 134.022)" fill="#d2dbf7"/>
        <rect id="Rectangle-7" data-name="Rectangle" width="5.63" height="15.081" transform="translate(113.958 98.97)" fill="#d2dbf7"/>
        <rect id="Rectangle-8" data-name="Rectangle" width="5.63" height="15.081" transform="translate(121.331 98.97)" fill="#d2dbf7"/>
        <rect id="Rectangle-9" data-name="Rectangle" width="5.63" height="15.081" transform="translate(113.958 118.941)" fill="#d2dbf7"/>
        <rect id="Rectangle-10" data-name="Rectangle" width="5.63" height="15.081" transform="translate(121.331 118.941)" fill="#d2dbf7"/>
        <rect id="Rectangle-11" data-name="Rectangle" width="5.63" height="15.081" transform="translate(113.958 138.912)" fill="#d2dbf7"/>
        <rect id="Rectangle-12" data-name="Rectangle" width="5.63" height="15.081" transform="translate(121.331 138.912)" fill="#d2dbf7"/>
      </g>
      <g id="Group-4" data-name="Group" transform="translate(97.805 0)">
        <path id="Path-6" data-name="Path" d="M45.934,5.73a6.032,6.032,0,0,1-3.552,4.356c-1.681.734-3.552.758-5.3,1.255-1.728.521-3.5,1.776-3.623,3.6-.118,2.107,2.084,4.072,1.4,6.085a3.471,3.471,0,0,1-1.563,1.728c-3.717,2.32-8.524.9-12.857,1.492-2.983.379-5.753,1.752-8.476,3.1A5.4,5.4,0,0,0,9.992,28.7C9,29.9,8.642,32.082,7.08,32.058c-1.35,0-1.847-1.965-1.184-3.149.687-1.184,1.965-1.847,2.96-2.794a6.893,6.893,0,0,0,1.752-6.843c-.118,0-2.557-1.16-2.77-1.278-1.563-.947-1.066-1.066-3.031-.426A7.767,7.767,0,0,1,0,17.876,43.077,43.077,0,0,1,34.923,0a41.792,41.792,0,0,1,9.163.994A4.909,4.909,0,0,1,45.934,5.73Z" transform="translate(18.762 10.473)" fill="#b1d8f2"/>
        <path id="Path-7" data-name="Path" d="M37.476,1.918A43.2,43.2,0,0,1,10.153,42.027a13.048,13.048,0,0,1-2.486-1.444c-1.941-1.326-4.143-3.268-3.575-5.564.71-2.865,5.209-3.433,5.9-6.322a3.037,3.037,0,0,0-3.6-3.433,10.9,10.9,0,0,0-2.746,1.728c-.923.568-2.249.829-2.983.024a2.853,2.853,0,0,1-.568-1.657,6.655,6.655,0,0,1,.687-4.5c1.515-2.249,4.735-2.131,7.434-2.178,3.552-.071,7.435-1.089,9.376-4.072A10.877,10.877,0,0,0,19.1,9.234a6.242,6.242,0,0,1,.379-2.2,4.13,4.13,0,0,1,1.8-1.8c3.173-1.8,7.174-.947,10.7-1.847A11.58,11.58,0,0,0,37.429,0C37.452.639,37.476,1.279,37.476,1.918Z" transform="translate(59.325 51.647)" fill="#a8cfef"/>
        <path id="Path-8" data-name="Path" d="M34.9,22.581c.45,1.847.237,4.1-1.326,5.185-2.2,1.563-5.706-.166-7.79,1.563-.876.71-1.278,1.871-2.06,2.652a4.743,4.743,0,0,1-.568.45A43.267,43.267,0,0,1,0,.443,22.381,22.381,0,0,1,4.238,1.627,15.9,15.9,0,0,0,13.8,1.3,5.162,5.162,0,0,1,16.858.775c1.3.379,1.965,1.871,2.036,3.244.071,1.349-.26,2.723-.071,4.072a5.718,5.718,0,0,0,4.285,4.735,5.774,5.774,0,0,0,5.943-2.32c1.586-2.391,1.16-5.517.639-8.311a2.508,2.508,0,0,1-.024-1.184C30-.22,31.822-.243,32.887.491c2.415,1.657,2.581,5.185,1.918,8.05-.687,2.865-1.965,5.706-1.563,8.618C33.5,19.029,34.45,20.734,34.9,22.581Z" transform="translate(11.067 59.586)" fill="#b1d8f2"/>
        <path id="Path-9" data-name="Path" d="M11.36,4.656a3.885,3.885,0,0,1,1.327.858,3.9,3.9,0,0,1,.728,1.857c.535,2.636.929,5.772-.989,7.657-1.444,1.419-3.867,1.7-4.952,3.408-.733,1.154-.646,2.677-1.331,3.86a3.443,3.443,0,0,1-4.523,1.21A3.443,3.443,0,0,1,.4,18.985c.832-1.447,2.619-2.082,3.615-3.421,1.535-2.064.717-5.012-.485-7.286S.752,3.7.93,1.135A1.465,1.465,0,0,1,1.087.5C1.4-.04,2.162-.07,2.764.074c1.5.359,2.412,1.472,3.67,2.249A48.027,48.027,0,0,0,11.36,4.656Z" transform="translate(66.832 29.414)" fill="#b1d8f2"/>
        <path id="Shape-2" data-name="Shape" d="M43.016,151.341a16.331,16.331,0,0,1-5.46-4.541c-2.857-4.026-1.089-8.215.314-12.411,1.15-3.441,2.3-7.032,1.605-10.7a4.373,4.373,0,0,0-1.825-3.161c-1.438-.8-3.312-.006-4.377,1.247a20.562,20.562,0,0,0-2.313,4.339c-.735,1.471-1.858,2.923-3.464,3.276a4.317,4.317,0,0,1-3.927-1.4,8.481,8.481,0,0,1-1.9-3.87c-1.436-5.872.345-11.846.527-17.749a31.5,31.5,0,0,0-.232-4.856c-.125-1-.3-2-.515-2.971C21.4,98.312,20.894,97,20.3,95.641a53.666,53.666,0,1,1,67.086-.248,10.9,10.9,0,0,1,6.629,6.172c1.051,2.729.463,6.177-1.837,7.983a8.688,8.688,0,0,1-5.116,1.572c-.936.032-1.872-.014-2.808-.06-.878-.043-1.755-.086-2.633-.064a8.362,8.362,0,0,0-5.244,1.623c-2.031,1.71-2.516,4.736-1.913,7.322a24.171,24.171,0,0,0,3.509,7.108c1.41,2.25,2.79,4.625,3.111,7.261a5.362,5.362,0,0,1-.428,3.14c-.851,1.619-2.293,1.683-3.883,1.4-4.213-.748-8.351-1.682-11.017-5.344-1.592-2.187-2.391-4.9-4.163-6.946a15.207,15.207,0,0,0-4.543-3.316,4.514,4.514,0,0,0-2.728-.72,3.126,3.126,0,0,0-2.142,1.682,7.923,7.923,0,0,0-.558,4.506c.688,7.341,2.92,14.182,2.734,21.634a3.9,3.9,0,0,1-.508,2.19,3.352,3.352,0,0,1-2.555,1.143q-.375.029-.748.029A15.719,15.719,0,0,1,43.016,151.341Z" transform="translate(0)" fill="#adadea"/>
        <path id="Path-10" data-name="Path" d="M7.871,14.325a8.744,8.744,0,0,1-5.138,1.569c-.911.025-1.8-.025-2.708-.051a8.843,8.843,0,0,0,1.114-.506,9.144,9.144,0,0,0,4.606-5.214,10.429,10.429,0,0,0-.1-5.366A4.586,4.586,0,0,0,4.2,2.05C2.961,1.114,1.063,1.392,0,.3.86.278,2.126.025,3.265,0a1.264,1.264,0,0,1-.2.177,10.852,10.852,0,0,1,6.631,6.15A7.13,7.13,0,0,1,7.871,14.325Z" transform="translate(84.318 95.226)" opacity="0.1"/>
        <path id="Path-11" data-name="Path" d="M15.793,19.185c-.835,1.62-2.278,1.7-3.872,1.417-4.2-.759-8.352-1.7-11.01-5.34C.582,14.806.278,14.3,0,13.819,2.987,15.211,6.1,16.35,9.365,16.2a2.352,2.352,0,0,0,1.443-.405,2.662,2.662,0,0,0,.582-2.1,16.439,16.439,0,0,0-.633-4.733c-.683-1.949-2.1-3.619-2.43-5.669C8.2,2.531,8.124.051,9.238,0A.186.186,0,0,1,9.39.051,8.883,8.883,0,0,0,9.618,1.7c.582,2.582,2.1,4.834,3.493,7.087,1.417,2.252,2.809,4.631,3.113,7.264A5.319,5.319,0,0,1,15.793,19.185Z" transform="translate(64.855 118.257)" opacity="0.1"/>
        <path id="Path-12" data-name="Path" d="M18.306,25.942a3.756,3.756,0,0,1-.506,2.177,3.3,3.3,0,0,1-2.556,1.164c-2.885.228-5.745-.911-8.276-2.354A16.353,16.353,0,0,1,1.5,22.4,8.3,8.3,0,0,1,.084,16.325a14.841,14.841,0,0,0,11.364,4.784,4.331,4.331,0,0,0,1.7-.354,3.53,3.53,0,0,0,1.721-3.164,14.32,14.32,0,0,0-.633-3.7,27.471,27.471,0,0,1-.582-9.744C13.827,2.759,14.536,0,16.054,0a8.272,8.272,0,0,0-.481,4.3C16.256,11.643,18.509,18.476,18.306,25.942Z" transform="translate(36.046 124.407)" opacity="0.1"/>
        <path id="Path-13" data-name="Path" d="M12.655,0a3.587,3.587,0,0,0-.633.607,21.048,21.048,0,0,0-2.3,4.353A5.658,5.658,0,0,1,6.252,8.23,4.3,4.3,0,0,1,2.329,6.838,8.2,8.2,0,0,1,.43,2.966,18.308,18.308,0,0,1,0,.384,4.01,4.01,0,0,0,.228.966a6.6,6.6,0,0,0,5.9,3.315,3.237,3.237,0,0,0,2.1-.582,4.775,4.775,0,0,0,.962-1.265C9.845,1.5,11.414-.1,12.655,0Z" transform="translate(21.247 121.163)" opacity="0.1"/>
      </g>
      <g id="Group-5" data-name="Group" transform="translate(120.845 185.686)">
        <path id="Path-14" data-name="Path" d="M61.274,9.01c0,1.341-.962,2.582-2.708,3.72-4.809,3.139-15.489,5.315-27.916,5.315S7.542,15.869,2.733,12.73C.987,11.617,0,10.351,0,9.01,0,4.049,13.718,0,30.65,0,47.557,0,61.274,4.049,61.274,9.01Z" transform="translate(0 0)" fill="#94b9bf"/>
        <path id="Path-15" data-name="Path" d="M55.833,5.289C51.024,8.428,40.343,10.6,27.916,10.6S4.809,8.428,0,5.289C4.809,2.177,15.489,0,27.916,0S51.024,2.177,55.833,5.289Z" transform="translate(2.733 7.441)" fill="#cce9f1"/>
      </g>
      <g id="Group-6" data-name="Group" transform="translate(35.779 64.513)">
        <path id="Path-16" data-name="Path" d="M2.3,29.258c8.031-.51,12.04-1.942,15.926-8.343,1.8-3.123.356-11.654-2.246-20.2L12.9,0l-.574,19.485C7.608,20.66,1.948,21.033,0,23.555Z" transform="translate(25.017 31.324)" fill="#edb6a4"/>
        <path id="Path-17" data-name="Path" d="M0,1.744A50.242,50.242,0,0,1,6.4,0S9.109,6.033,8.7,7.5c-.575.5-3.334,2.188-4.66,1.313S0,1.744,0,1.744Z" transform="translate(27.549 51.387)" fill="#a8cfef"/>
        <path id="Path-18" data-name="Path" d="M15.1,3.911C13,7.372,10.861,9.354,8.078,10.542l-.005.024c-.559.49-3.323,2.189-4.656,1.3L3.4,11.838a1.2,1.2,0,0,1-.185.037c-.111-.074-.241-.178-.353-.251A8.608,8.608,0,0,1,0,8.717a10.345,10.345,0,0,0,1.212-.1,34.636,34.636,0,0,0,6.365-.993c.8-.211,1.609-.422,2.4-.686a9.223,9.223,0,0,0,1.787-.79,6.707,6.707,0,0,0,1.182-1.044A13.315,13.315,0,0,0,15.355,1.23,8.721,8.721,0,0,1,15.893,0,8.286,8.286,0,0,1,15.1,3.911Z" transform="translate(28.163 48.326)" opacity="0.1"/>
        <g id="Group-7" data-name="Group" transform="translate(0 119.518)">
          <path id="Path-19" data-name="Path" d="M5.571,0,3.109,1.052a1.572,1.572,0,0,0-1.544.014L0,2.31,6.128,9.219l1.425-.908L6.327,4.386,7.748,3.227Z" transform="translate(0.462 0)" fill="#edb6a4"/>
          <path id="Path-20" data-name="Path" d="M2.18.108C1.356.2.772.73,0,1.667L7.075,9.992c1.126,1.214,2.1.955,1.624-.447L6.958,3.817A2.009,2.009,0,0,1,5.17,3.139,8.865,8.865,0,0,1,3.518,1.09c.325-.272.61-.56.317-1.09Z" transform="translate(0 0.607)" fill="#393768"/>
        </g>
        <path id="Path-21" data-name="Path" d="M8.668,3.047,17.167,0c2.926,5.274,5.232,16.476,3.27,23.1-3.008,6.368-5.294,11.477-16.8,20.864L0,39.414,11.463,23.2C9.5,15.468,7.535,8.588,8.668,3.047Z" transform="translate(5.191 79.685)" fill="#393768"/>
        <path id="Path-22" data-name="Path" d="M6.887,12.645A47.113,47.113,0,0,1,0,24.053c.916-2.64,2.592-5.018,3.349-7.732A24.049,24.049,0,0,0,4,11.506a12.081,12.081,0,0,0-.107-3.23c-.4-2.061-2.017-4.029-2.1-6.15C1.705.171,4.405-.263,5.874.134A4.571,4.571,0,0,1,7.085.676C7.772,4.934,7.851,9.352,6.887,12.645Z" transform="translate(18.75 90.139)" opacity="0.1"/>
        <g id="Group-8" data-name="Group" transform="translate(25.712 125.496)">
          <path id="Path-23" data-name="Path" d="M2.816,0,1.591,2.381a1.573,1.573,0,0,0-1.18,1L0,5.333,9.127,6.742l.518-1.609L6.2,2.894l.355-1.8Z" transform="translate(0.379 0)" fill="#edb6a4"/>
          <path id="Path-24" data-name="Path" d="M.683,1.139A3.409,3.409,0,0,0,0,3.731l10.759,1.9c1.642.216,2.229-.607.965-1.38l-5-3.3a2.009,2.009,0,0,1-1.809.62,8.87,8.87,0,0,1-2.579-.524C2.417.625,2.453.221,1.889,0Z" transform="translate(0 1.87)" fill="#393768"/>
        </g>
        <path id="Path-25" data-name="Path" d="M0,5.15,10.165,0c3.934,4.847,7.16,15.761,9.366,20.516,2.259,5.223-.638,14.606-3.51,29.178l-5.7-1.182L11.3,26.29C6.241,18.889.142,12.254,0,5.15Z" transform="translate(17.669 77.198)" fill="#393768"/>
        <path id="Path-26" data-name="Path" d="M18.225,11.784c-.194,4.855-.966,14.345-.44,17.545C17.439,30.527-.44,32.9.008,30.776,3.29,15.188.044,10.042,5.593,1.724,8.2-1.288,14.616-.09,16.747,3.281A20.786,20.786,0,0,1,18.225,11.784Z" transform="translate(13.49 52.159)" fill="#a8cfef"/>
        <path id="Path-27" data-name="Path" d="M0,3.671A6.176,6.176,0,0,0,.5.246L4.54,0,5.629,4.59A12.7,12.7,0,0,1,0,3.671Z" transform="translate(22.634 48.529)" fill="#edb6a4"/>
        <g id="Group-9" data-name="Group" transform="translate(21.715 55.563)">
          <path id="Path-28" data-name="Path" d="M0,4.1c4.021,7.157,5.917,10.664,13.258,12.145,3.549.635,11.883-4.218,19.039-9.57l-1.94-2.83L13.208,9.924C10.5,5.889,7.615.976,4.581,0Z" transform="translate(1.246 0.724)" fill="#edb6a4"/>
          <path id="Path-29" data-name="Path" d="M6.163,0c4.353,2.381,4.535,4.071,6.291,6.986-.883,2.864-3.117,4.845-5.871,6.487L0,5.257Z" transform="translate(0 0)" fill="#a8cfef"/>
          <path id="Path-30" data-name="Path" d="M1.94,5.332A4.606,4.606,0,0,0,4.534,5.7a10.44,10.44,0,0,0,2.778-2.58A4.775,4.775,0,0,0,5.05.8l-2.525.661L2.439,0,1.28.438,0,2.5Z" transform="translate(31.602 2.07)" fill="#edb6a4"/>
        </g>
        <path id="Path-31" data-name="Path" d="M13.932,9.769a17.355,17.355,0,0,1-4.87-1.657c-.25,4.2-.415,8.6-.075,10.6-.132.5-3.4,1.211-7.1,1.724a7.547,7.547,0,0,0,3.32-2.9,7.672,7.672,0,0,0,.664-3.762A12.977,12.977,0,0,0,4.463,7.449C3.378,5.625,1.587,4.26.7,2.326A12.625,12.625,0,0,1,0,0,15.783,15.783,0,0,0,5.584,5.734c.222.148.425.267.652.391l.276.134a12.749,12.749,0,0,0,2.582.974l.024.005c.771.187,1.533.3,2.315.436a26.59,26.59,0,0,0,6.744.455C18.46,8.112,19.362,7.8,19.6,8a.352.352,0,0,1,.123.381C17.319,9.443,15.276,10,13.932,9.769Z" transform="translate(22.296 62.776)" opacity="0.1"/>
        <path id="Path-32" data-name="Path" d="M5.084,2.39c-.414.04-.841.026-1.284.085-.521.068-1.051.058-1.577.15a2.669,2.669,0,0,0-1.435.56c-.181.139-.314.289-.5.428l-.176.115c-.049-.01-.068-.04-.116-.05A6.282,6.282,0,0,0,.5.235L4.32,0a.735.735,0,0,1,.232.1Z" transform="translate(22.644 48.533)" opacity="0.1"/>
        <path id="Path-33" data-name="Path" d="M2.149,8.848c2.7,1.389,5.158,2.252,6.9,1.574C9.936,6.574,9.746,3.006,7.371,0L0,2.06Z" transform="translate(20.597 40.315)" fill="#edb6a4"/>
        <path id="Path-34" data-name="Path" d="M4.466,2.716a1.313,1.313,0,0,1-.311.166,1.123,1.123,0,0,1-.576.03,10.909,10.909,0,0,1-2.124-.639,2.423,2.423,0,0,0,.075,1.373c.081.194.142.434-.016.557-.093.1-.254.029-.391-.028A2.307,2.307,0,0,1,.065,2.717a2.716,2.716,0,0,1,.168-1.7A1.893,1.893,0,0,1,1.553.033a2.483,2.483,0,0,1,.9.025c.372.074.767.157,1.129.253a.85.85,0,0,1,.239.072A10.15,10.15,0,0,1,4.466,2.716Z" transform="translate(25.511 42.233)" opacity="0.1"/>
        <path id="Path-35" data-name="Path" d="M11.491,6.92c-1.167.736-2.548.55-4.03-.034a3.78,3.78,0,0,0,.533,2.3c-.126.3-.147.355-.506.5C7.062,9.069,6.663,8.309,6.2,8.416A1.373,1.373,0,0,0,5.43,9.85c.071.833,1.03,1.676,1.958,2.6-1.068.568-1.832.906-2.589.652a4.494,4.494,0,0,1-3.376-1.756C.426,10.156.99,8.724.231,7.756c-.667-.9.181-4.742,1.616-4.474,1.308.215.565-.594,1.646-2.2C4.585-.546,9.913-.1,10.967.878,12.346,2.16,14.221,4.77,11.491,6.92Z" transform="translate(18.912 36.927)" fill="#393768"/>
        <path id="Path-36" data-name="Path" d="M4.092.2c.215.222,1.492.184,1.373.539A4.577,4.577,0,0,1,2.637,2.065c-.661-.088-2.07-.14-2.515-.573C-.269,1.054.39.306.561.144,1.622.051,3.339-.154,4.092.2Z" transform="translate(37.788 29.986)" fill="#edb6a4"/>
        <g id="Group-10" data-name="Group" transform="translate(22.847 0)">
          <g id="Group-11" data-name="Group" transform="translate(0)">
            <path id="Path-37" data-name="Path" d="M31.324,15.662a15.692,15.692,0,1,1-.361-3.315A15.062,15.062,0,0,1,31.324,15.662Z" fill="#393768"/>
            <path id="Shape-3" data-name="Shape" d="M0,17.128a2.491,2.491,0,0,1,2.594-2.619,2.479,2.479,0,0,1,2.546,2.619,2.479,2.479,0,0,1-2.546,2.618A2.5,2.5,0,0,1,0,17.128Zm.937-4.06L.288,0H4.852L4.227,13.067Z" transform="translate(13.092 5.789)" fill="#e6e9f8"/>
          </g>
          <path id="Path-38" data-name="Path" d="M29.474,3.315A15.659,15.659,0,0,1,0,10.689a8.554,8.554,0,0,1,2.715-.264,12.981,12.981,0,0,1,4.564,1.009c1.3.552,2.5,1.369,3.843,1.874a8.462,8.462,0,0,0,5.549.24,6.7,6.7,0,0,0,4.132-3.6c.6-1.393.721-3.051,1.8-4.132a10.315,10.315,0,0,1,2.858-1.561,7.346,7.346,0,0,0,2.69-2.306c.336-.48.6-1.345.961-1.946A15.085,15.085,0,0,1,29.474,3.315Z" transform="translate(1.85 12.347)" opacity="0.1"/>
        </g>
      </g>
      <g id="Group-12" data-name="Group" transform="translate(170.124 68.557)">
        <path id="Shape-4" data-name="Shape" d="M17.417,34.667l-1.189-1.189-3.214-3.214a1.245,1.245,0,0,1-1.772-.025,1.268,1.268,0,0,1,0-1.772L8.432,25.682c-.2-.2-.354-.456-.557-.658-.228-.278-.456-.531-.658-.81a8.313,8.313,0,0,1-.506-.785c-.177-.278-.354-.557-.506-.835-.127-.253-.2-.506-.329-.759-.127-.329-.278-.658-.38-1.012a6.316,6.316,0,0,1-.177-.658,10.525,10.525,0,0,1-.278-1.215.781.781,0,0,0-.051-.2h.025a.227.227,0,0,0-.025-.127A45.732,45.732,0,0,0,19.391,5.08h.025a12.245,12.245,0,0,1,6.277,3.366l.329.329a53.36,53.36,0,0,1-10.756,11.87,1.264,1.264,0,0,1-.2.177,10.851,10.851,0,0,1,6.631,6.15A7.245,7.245,0,0,1,20.4,34.465a3.423,3.423,0,0,1-.531.506,6.931,6.931,0,0,1-2.582,1.215A1.16,1.16,0,0,1,17.417,34.667ZM5.774,12.445.789,6.7c-1.266-1.417-.962-3.8.582-5.34A4,4,0,0,1,6.711.778l5.745,4.986a12.332,12.332,0,0,1,3.29-.835A43.36,43.36,0,0,1,5.066,14.976,12.566,12.566,0,0,1,5.774,12.445Z" transform="translate(0 6.02)" opacity="0.1"/>
        <g id="Group-13" data-name="Group" transform="translate(3.925 0)">
          <g id="Group-14" data-name="Group" transform="translate(68.997 128.38)">
            <path id="Path-39" data-name="Path" d="M7.143,0l1.07,2.455A1.572,1.572,0,0,1,9.326,3.524L9.612,5.5l-9.2.824L0,4.687,3.585,2.673,3.345.855Z" transform="translate(2.496 0)" fill="#edb6a4"/>
            <path id="Path-40" data-name="Path" d="M11.952,1.214a3.41,3.41,0,0,1,.516,2.63L1.61,5.048C-.042,5.159-.575,4.3.735,3.609L5.931.635A2.01,2.01,0,0,0,7.7,1.369,8.868,8.868,0,0,0,10.3,1.011c-.05-.421-.06-.826.518-1.011Z" transform="translate(0 1.949)" fill="#393768"/>
          </g>
          <path id="Path-41" data-name="Path" d="M15.1,15.844c-1.746,3.366-3.948,6.834-5.9,10.428l2.025,13.945,1.164,8.074L6.851,50.037C2.523,35.838-1.3,26.777.422,21.361,2.143,16.4,4.244,5.214,7.66,0L18.29,4.1C18.594,7.947,17.151,11.845,15.1,15.844Z" transform="translate(67.281 80.006)" fill="#e6e9f8"/>
          <path id="Path-42" data-name="Path" d="M2.391,12.492,4.416,26.437c-.329-.38-.633-.759-.936-1.164a6.638,6.638,0,0,1-1.215-2.025,11.757,11.757,0,0,1-.3-2.075C1.606,18.667-.191,16.415.113,13.935.24,12.9-.162,10.283.079,9.293.589,7.2,2.762,0,2.762,0S4.618,4.317,5.3,3.735A10.5,10.5,0,0,1,7.655,2.469a3.741,3.741,0,0,0,.633-.4C6.541,5.431,4.339,8.9,2.391,12.492Z" transform="translate(74.095 93.786)" opacity="0.1"/>
          <g id="Group-15" data-name="Group" transform="translate(87.393 125.789)">
            <path id="Path-43" data-name="Path" d="M4.674,0,6.636,1.823a1.572,1.572,0,0,1,1.449.535l1.053,1.7-8.1,4.432L0,7.151,2.481,3.872,1.534,2.3Z" transform="translate(1.654 0)" fill="#edb6a4"/>
            <path id="Path-44" data-name="Path" d="M9.713.661c.745.362,1.115,1.061,1.525,2.2L1.766,8.31C.3,9.072-.536,8.5.389,7.34l3.574-4.8A2.009,2.009,0,0,0,5.875,2.5a8.87,8.87,0,0,0,2.246-1.37C7.907.768,7.736.4,8.191,0Z" transform="translate(0 1.314)" fill="#393768"/>
          </g>
          <path id="Path-45" data-name="Path" d="M13.149,1.382,1.838,0C-.211,5.9.47,17.257.014,22.479-.331,28.159,5.586,36,13.247,48.72L18.2,45.669,9.721,25.106C11.957,16.425,15.434,8.11,13.149,1.382Z" transform="translate(76.452 80.01)" fill="#e6e9f8"/>
          <path id="Path-46" data-name="Path" d="M24.734,21.737c-7.453,3.034-11.686,3.488-17.97-.585C3.783,19.124,1.375,10.813,0,1.984L2.47,0l8.992,17.3c4.757-.993,10.015-3.119,12.867-1.7Z" transform="translate(54.905 39.579)" fill="#edb6a4"/>
          <path id="Path-47" data-name="Path" d="M6.522,0A50.278,50.278,0,0,0,0,1.213S.185,7.824,1.195,8.97c.736.2,3.953.52,4.767-.845S6.522,0,6.522,0Z" transform="translate(69.671 54.707)" fill="#393768"/>
          <path id="Path-48" data-name="Path" d="M2.419,3.175c3.392,2.2,6.181,3.059,9.2,2.918l.015.02c.717.2,3.945.526,4.759-.854l0-.035a1.187,1.187,0,0,0,.183-.047c.068-.115.14-.265.208-.38A8.606,8.606,0,0,0,18.1.936a10.41,10.41,0,0,1-1.134.437,34.644,34.644,0,0,1-6.163,1.875c-.816.16-1.632.32-2.459.426a9.208,9.208,0,0,1-1.953.066,6.7,6.7,0,0,1-1.518-.425A13.321,13.321,0,0,1,1.019.874,8.7,8.7,0,0,0,0,0,8.3,8.3,0,0,0,2.419,3.175Z" transform="translate(59.239 57.56)" opacity="0.1"/>
          <path id="Path-49" data-name="Path" d="M.015,11.784c.194,4.855.966,14.345.44,17.544C.8,30.527,18.68,32.9,18.232,30.776,14.95,15.188,18.2,10.042,12.647,1.724,10.039-1.288,3.624-.09,1.493,3.281A20.792,20.792,0,0,0,.015,11.784Z" transform="translate(72.231 54.125)" fill="#393768"/>
          <path id="Path-50" data-name="Path" d="M5.629,3.671a6.176,6.176,0,0,1-.5-3.425L1.089,0,0,4.59A12.7,12.7,0,0,0,5.629,3.671Z" transform="translate(75.698 50.495)" fill="#edb6a4"/>
          <path id="Path-51" data-name="Path" d="M5.8,9.769a17.355,17.355,0,0,0,4.87-1.657c.25,4.2.415,8.6.075,10.6.132.5,3.4,1.211,7.1,1.724a7.547,7.547,0,0,1-3.32-2.9,7.671,7.671,0,0,1-.664-3.762A12.977,12.977,0,0,1,15.27,7.449c1.086-1.824,2.876-3.189,3.762-5.123A12.625,12.625,0,0,0,19.733,0a15.783,15.783,0,0,1-5.584,5.734c-.222.148-.425.267-.652.391l-.276.134a12.749,12.749,0,0,1-2.582.974l-.024.005c-.771.187-1.533.3-2.315.436a26.59,26.59,0,0,1-6.744.455C1.274,8.112.371,7.8.135,8a.352.352,0,0,0-.123.381C2.414,9.443,4.457,10,5.8,9.769Z" transform="translate(61.932 64.743)" opacity="0.1"/>
          <path id="Path-52" data-name="Path" d="M0,2.39c.414.04.841.026,1.284.085.521.068,1.051.058,1.577.15a2.669,2.669,0,0,1,1.435.56c.181.139.314.289.5.428l.176.115c.049-.01.068-.04.116-.05a6.282,6.282,0,0,1-.5-3.442L.764,0A.735.735,0,0,0,.531.1Z" transform="translate(76.234 50.499)" opacity="0.1"/>
          <path id="Path-53" data-name="Path" d="M7.387,8.848c-2.7,1.389-5.158,2.252-6.9,1.574C-.4,6.574-.209,3.006,2.165,0L9.536,2.06Z" transform="translate(73.827 42.281)" fill="#edb6a4"/>
          <path id="Path-54" data-name="Path" d="M0,2.716a1.313,1.313,0,0,0,.311.166,1.123,1.123,0,0,0,.576.03A10.926,10.926,0,0,0,3.01,2.274a2.423,2.423,0,0,1-.075,1.373c-.081.194-.142.434.016.557.093.1.254.029.391-.028A2.308,2.308,0,0,0,4.4,2.717a2.716,2.716,0,0,0-.168-1.7A1.893,1.893,0,0,0,2.914.033a2.483,2.483,0,0,0-.9.025C1.639.131,1.245.215.882.311A.85.85,0,0,0,.643.383,10.131,10.131,0,0,0,0,2.716Z" transform="translate(73.984 44.2)" opacity="0.1"/>
          <path id="Path-55" data-name="Path" d="M1.522,6.444c1.167.736,2.548.55,4.03-.034a3.78,3.78,0,0,1-.533,2.3c.126.3.147.355.506.5.426-.623.825-1.383,1.285-1.276a1.373,1.373,0,0,1,.773,1.434c-.071.833-1.03,1.676-1.958,2.6,1.068.568,1.832.906,2.589.652a4.494,4.494,0,0,0,3.376-1.756c1-1.185.432-2.617,1.191-3.586C13.449,6.379,11.327-1.9,2.046.4.217.854-1.209,4.294,1.522,6.444Z" transform="translate(72.036 39.369)" fill="#393768"/>
          <path id="Path-56" data-name="Path" d="M1.04,1.585c-.1.293-1.263.814-1,1.082a4.577,4.577,0,0,0,3.125-.035c.557-.367,1.8-1.027,2.016-1.61C5.339.459,4.421.072,4.2,0,3.2.378,1.566.941,1.04,1.585Z" transform="translate(52.267 38.693)" fill="#edb6a4"/>
          <g id="Group-16" data-name="Group" transform="translate(0)">
            <path id="Path-57" data-name="Path" d="M25.678,8.445,65.641,48.408A12.186,12.186,0,0,1,48.406,65.642L8.444,25.679A12.172,12.172,0,0,1,5.777,12.454L.784,6.709c-1.253-1.432-.966-3.794.591-5.351A3.979,3.979,0,0,1,6.708.785l5.745,4.993a11.981,11.981,0,0,1,4.6-.913A12.187,12.187,0,0,1,25.678,8.445Z" transform="translate(0 0)" fill="#e6e9f8"/>
            <path id="Path-58" data-name="Path" d="M60.642,46.9a12.19,12.19,0,0,1-17.236.025L3.442,6.963A12.08,12.08,0,0,1,0,.028c.962-.4,6.466,3.617,7.733,6.363C10.018,11.345,22,20.825,23.447,22.116a47.369,47.369,0,0,1,9.227,11.078c2.4,4.075,6.3,5.481,10.63,7.4,4.252,1.873,9.187,1.367,13.617,0a11.783,11.783,0,0,0,5.264-2.86,4.951,4.951,0,0,0,1.291-3.594A12.158,12.158,0,0,1,60.642,46.9Z" transform="translate(4.994 18.716)" opacity="0.1"/>
            <path id="Path-59" data-name="Path" d="M34.829,33.039,2.161.371a1.266,1.266,0,0,0-1.79,1.79L33.039,34.828a3.454,3.454,0,1,0,1.79-1.789Z" transform="translate(15.012 15.004)" fill="#393768"/>
            <path id="Path-60" data-name="Path" d="M4.249,2.161,2.161,4.249a1.266,1.266,0,0,1-1.79-1.79L2.459.371a1.266,1.266,0,0,1,1.79,1.79Z" transform="translate(17.063 32.192)" fill="#7272b7"/>
            <path id="Path-61" data-name="Path" d="M4.249,2.161,2.161,4.249a1.266,1.266,0,0,1-1.79-1.79L2.459.371a1.266,1.266,0,0,1,1.79,1.79Z" transform="translate(29.441 44.57)" fill="#7272b7"/>
            <g id="Group-17" data-name="Group" transform="translate(10.873 25.108)">
              <path id="Path-62" data-name="Path" d="M5.144,2.161,2.161,5.144a1.266,1.266,0,0,1-1.79-1.79L3.354.371a1.266,1.266,0,0,1,1.79,1.79Z" transform="translate(0 0)" fill="#adadea"/>
              <path id="Path-63" data-name="Path" d="M5.144,2.161,2.161,5.144a1.266,1.266,0,0,1-1.79-1.79L3.354.371a1.266,1.266,0,0,1,1.79,1.79Z" transform="translate(12.378 12.378)" fill="#adadea"/>
              <path id="Path-64" data-name="Path" d="M5.144,2.161,2.161,5.144a1.266,1.266,0,0,1-1.79-1.79L3.354.371a1.266,1.266,0,0,1,1.79,1.79Z" transform="translate(24.757 24.757)" fill="#adadea"/>
            </g>
            <path id="Path-65" data-name="Path" d="M4.249,2.161,2.161,4.249a1.266,1.266,0,0,1-1.79-1.79L2.459.371a1.266,1.266,0,0,1,1.79,1.79Z" transform="translate(41.819 56.948)" fill="#7272b7"/>
          </g>
          <g id="Group-18" data-name="Group" transform="translate(43.331 57.529)">
            <path id="Path-66" data-name="Path" d="M32.3,4.1c-4.021,7.157-5.917,10.664-13.258,12.145C15.489,16.883,7.156,12.031,0,6.679l1.94-2.83L19.089,9.924C21.8,5.889,24.682.976,27.716,0Z" transform="translate(5.372 0.723)" fill="#edb6a4"/>
            <path id="Path-67" data-name="Path" d="M6.291,0C1.938,2.381,1.756,4.071,0,6.986c.883,2.864,3.117,4.845,5.871,6.487l6.583-8.217Z" transform="translate(26.461 0)" fill="#393768"/>
            <path id="Path-68" data-name="Path" d="M5.372,5.332A4.606,4.606,0,0,1,2.778,5.7,10.44,10.44,0,0,1,0,3.117,4.775,4.775,0,0,1,2.263.8l2.525.661L4.873,0,6.032.438,7.313,2.5Z" transform="translate(0 2.07)" fill="#edb6a4"/>
          </g>
        </g>
      </g>
    </g>
  </g>
</svg>
