<svg xmlns="http://www.w3.org/2000/svg" xmlns:xlink="http://www.w3.org/1999/xlink" width="295.254" height="260.306" viewBox="0 0 295.254 260.306">
  <defs>
    <clipPath id="clip-path">
      <path id="Trazado_239" data-name="Trazado 239" d="M292.946,260.306H-2.033V0h169.32A29.849,29.849,0,0,1,165.6,20.673c-4.679,9.918-15.181,17.486-27.059,19.5-6.291,1.068-12.862.672-19.031,2.205s-12.233,5.9-12.25,11.593c-.024,8,11.074,12.1,20.061,11.923s18.714-2.29,26.471,1.75c14.441,7.52,9.05,27.956,18.473,40.256,10.469,13.661,34.4,12.15,48.48,22.933,12.976,9.935,14.092,27.125,14.6,42.346s2.634,32.586,16.53,41.48c6.481,4.148,14.6,5.717,21.559,9.2a36,36,0,0,1,17.78,20.215A35.639,35.639,0,0,1,292.946,260.306Z" transform="translate(0)" fill="none"/>
    </clipPath>
  </defs>
  <g id="Grupo_23" data-name="Grupo 23" transform="translate(2.033)" clip-path="url(#clip-path)">
    <rect id="Rectángulo_4" data-name="Rectángulo 4" width="520.216" height="260.306" transform="translate(-1.482)" fill="#e1eefa"/>
    <ellipse id="Elipse_3" data-name="Elipse 3" cx="33.499" cy="29.8" rx="33.499" ry="29.8" transform="translate(193.961 203.78)" fill="#ffd464"/>
    <path id="Trazado_161" data-name="Trazado 161" d="M475.5,909.784H237.8l-.87-11.145-3.352-42.909s91.561.21,164.058,17.308C431.524,881.028,461.247,892.71,475.5,909.784Z" transform="translate(-171.77 -649.478)" fill="#fff0ce"/>
    <path id="Trazado_162" data-name="Trazado 162" d="M484.523,964.286H246.814l-.87-11.145c27.959.675,63.3.687,102.347-1.244,59.394-2.936,63.42-15.512,58.359-24.358C440.543,935.53,470.266,947.212,484.523,964.286Z" transform="translate(-180.789 -703.981)" fill="#ffe197"/>
    <path id="Trazado_163" data-name="Trazado 163" d="M298.419,67.008H209.861a.39.39,0,1,1-.062-.776l14.9-1.853a.812.812,0,0,0,.726-1.073,4.947,4.947,0,0,1-.309-2.246,5.887,5.887,0,0,1,5.676-4.987,6.837,6.837,0,0,1,1.479.06,1.15,1.15,0,0,0,.287.007,1.013,1.013,0,0,0,.881-.7c1.133-4.052,5.251-7.055,10.158-7.055a11.818,11.818,0,0,1,2.536.275,1.018,1.018,0,0,0,1.124-.511,14.473,14.473,0,0,1,7.825-6.954,16.763,16.763,0,0,1,6.408-1.111c8.145.171,14.742,6.165,14.769,13.413a12.242,12.242,0,0,1-.089,1.518,1.073,1.073,0,0,0,.875,1.142,12.123,12.123,0,0,1,8.738,7.433,1.233,1.233,0,0,0,1,.776L298.5,66.094A.459.459,0,1,1,298.419,67.008Z" transform="translate(-154.161 -30.423)" fill="#fafdff"/>
    <path id="Trazado_164" data-name="Trazado 164" d="M629.62,537.355l7.618-.948a1.915,1.915,0,0,1-.2-1.006,2.285,2.285,0,0,1,2.183-1.975,2.671,2.671,0,0,1,1.151.163.371.371,0,0,0,.531-.336,4.5,4.5,0,0,1-.037-.573c0-2.765,2.52-5.006,5.626-5.006a6.25,6.25,0,0,1,1.732.242.87.87,0,0,0,1.02-.406,8.271,8.271,0,0,1,7.782-4.292c4.223.156,7.643,3.224,7.784,6.983a6.581,6.581,0,0,1-.012.718,1.021,1.021,0,0,0,.785,1.027,6.155,6.155,0,0,1,4.671,5.739H629.646A.165.165,0,1,1,629.62,537.355Z" transform="translate(-460.393 -397.104)" fill="#fafdff"/>
    <path id="Trazado_165" data-name="Trazado 165" d="M77.507,181.468l-6.2-.772a1.557,1.557,0,0,0,.16-.819,1.86,1.86,0,0,0-1.777-1.608,2.176,2.176,0,0,0-.937.133.3.3,0,0,1-.432-.274,3.64,3.64,0,0,0,.03-.467,4.351,4.351,0,0,0-4.581-4.076,5.087,5.087,0,0,0-1.41.2.708.708,0,0,1-.831-.331,6.735,6.735,0,0,0-6.336-3.494c-3.439.127-6.222,2.625-6.337,5.685a5.317,5.317,0,0,0,.01.585.831.831,0,0,1-.639.836,5.012,5.012,0,0,0-3.8,4.672H77.486A.134.134,0,1,0,77.507,181.468Z" transform="translate(-33.867 -128.99)" fill="#fafdff"/>
    <path id="Trazado_166" data-name="Trazado 166" d="M66.782,596.492c2.111,2.421,6.324,2.946,8.065,5.59a7.312,7.312,0,0,0-1.59-8.023c-1.131-1.141-4.51-3.947-6.428-3.194C64.572,591.751,65.661,595.207,66.782,596.492Z" transform="translate(-49.243 -448.356)" fill="#6fb657"/>
    <path id="Trazado_167" data-name="Trazado 167" d="M616.11,834.487c1.13-.276,2.4.346,3.479-.058a2.937,2.937,0,0,1-2.274,1.9c-.57.105-2.134.256-2.483-.3C614.421,835.377,615.51,834.634,616.11,834.487Z" transform="translate(-449.662 -633.3)" fill="#489355"/>
    <path id="Trazado_168" data-name="Trazado 168" d="M465.653,384.615a16.246,16.246,0,0,1,1.314,1.609,6.094,6.094,0,0,0,6.138,1.657l-2.889-2.685a7.856,7.856,0,0,0-2.452-1.744,4.181,4.181,0,0,0-2.879-.081C463.431,384.025,464.962,383.993,465.653,384.615Z" transform="translate(-339.967 -290.801)" fill="#6fb657"/>
    <path id="Trazado_169" data-name="Trazado 169" d="M742.158,1128.747" transform="translate(-542.555 -856.692)" fill="none" stroke="#489355" stroke-miterlimit="10" stroke-width="1"/>
    <g id="Grupo_17" data-name="Grupo 17" transform="translate(57.704 82.348)">
      <path id="Trazado_170" data-name="Trazado 170" d="M226.3,458.123h-7.855l.512-28.183.038-2.041,1.087-59.605.038-2.041.447-24.592h3.612l.447,24.592.038,2.041,1.086,59.605.038,2.041Z" transform="translate(-218.444 -341.66)" fill="#fff"/>
      <path id="Trazado_171" data-name="Trazado 171" d="M234.672,445.731h-2.5V443.69h2.46Z" transform="translate(-228.454 -419.098)" fill="#bbd0e4"/>
      <path id="Trazado_172" data-name="Trazado 172" d="M235.8,701.5h-3.623V699.46h3.585Z" transform="translate(-228.454 -613.222)" fill="#bbd0e4"/>
      <path id="Trazado_173" data-name="Trazado 173" d="M226.567,443.69v2.041h-2.084l.038-2.041Z" transform="translate(-222.847 -419.098)" fill="#62768b"/>
      <path id="Trazado_174" data-name="Trazado 174" d="M226.67,341.66v24.592h-2.046l.447-24.592Z" transform="translate(-222.95 -341.66)" fill="#c3cad4" style="mix-blend-mode: multiply;isolation: isolate"/>
      <path id="Trazado_175" data-name="Trazado 175" d="M223.542,699.46V701.5h-3.208l.038-2.042Z" transform="translate(-219.822 -613.222)" fill="#62768b"/>
      <path id="Trazado_176" data-name="Trazado 176" d="M223.644,452.16v59.605h-3.17l1.087-59.605Z" transform="translate(-219.924 -425.527)" fill="#c3cad4" style="mix-blend-mode: multiply;isolation: isolate"/>
      <path id="Trazado_177" data-name="Trazado 177" d="M218.956,707.93h3.208v28.183h-3.72Z" transform="translate(-218.444 -619.65)" fill="#c3cad4" style="mix-blend-mode: multiply;isolation: isolate"/>
    </g>
    <g id="Grupo_18" data-name="Grupo 18" transform="translate(97.716 146.282)">
      <path id="Trazado_178" data-name="Trazado 178" d="M370.721,675.173h-4.6l.3-16.517.022-1.2.637-34.932.022-1.2.262-14.412h2.117l.262,14.412.022,1.2.637,34.932.022,1.2Z" transform="translate(-366.117 -606.92)" fill="#fff"/>
      <path id="Trazado_179" data-name="Trazado 179" d="M375.628,667.911h-1.464v-1.2h1.442Z" transform="translate(-371.984 -652.303)" fill="#bbd0e4"/>
      <path id="Trazado_180" data-name="Trazado 180" d="M376.287,817.806h-2.123v-1.2h2.1Z" transform="translate(-371.984 -766.069)" fill="#bbd0e4"/>
      <path id="Trazado_181" data-name="Trazado 181" d="M370.878,666.715v1.2h-1.221l.022-1.2Z" transform="translate(-368.698 -652.303)" fill="#62768b"/>
      <path id="Trazado_182" data-name="Trazado 182" d="M370.938,606.92v14.412h-1.2L370,606.92Z" transform="translate(-368.758 -606.92)" fill="#c3cad4" style="mix-blend-mode: multiply;isolation: isolate"/>
      <path id="Trazado_183" data-name="Trazado 183" d="M369.105,816.609v1.2h-1.88l.022-1.2Z" transform="translate(-366.925 -766.069)" fill="#62768b"/>
      <path id="Trazado_184" data-name="Trazado 184" d="M369.165,671.679v34.932h-1.858l.637-34.932Z" transform="translate(-366.985 -656.071)" fill="#c3cad4" style="mix-blend-mode: multiply;isolation: isolate"/>
      <path id="Trazado_185" data-name="Trazado 185" d="M366.417,821.573h1.88V838.09h-2.18Z" transform="translate(-366.117 -769.837)" fill="#c3cad4" style="mix-blend-mode: multiply;isolation: isolate"/>
    </g>
    <g id="Grupo_19" data-name="Grupo 19" transform="translate(141.565 180.39)">
      <path id="Trazado_186" data-name="Trazado 186" d="M530.868,791.611h-2.912l.19-10.449.014-.757.4-22.1.014-.757.166-9.117h1.339l.166,9.117.014.757.4,22.1.014.757Z" transform="translate(-527.956 -748.432)" fill="#fff"/>
      <path id="Trazado_187" data-name="Trazado 187" d="M533.973,787.017h-.926v-.757h.912Z" transform="translate(-531.667 -777.142)" fill="#bbd0e4"/>
      <path id="Trazado_188" data-name="Trazado 188" d="M534.39,881.844h-1.343v-.757h1.329Z" transform="translate(-531.667 -849.114)" fill="#bbd0e4"/>
      <path id="Trazado_189" data-name="Trazado 189" d="M530.968,786.26v.757H530.2l.014-.757Z" transform="translate(-529.589 -777.142)" fill="#62768b"/>
      <path id="Trazado_190" data-name="Trazado 190" d="M531.006,748.432v9.117h-.758l.166-9.117Z" transform="translate(-529.627 -748.432)" fill="#c3cad4" style="mix-blend-mode: multiply;isolation: isolate"/>
      <path id="Trazado_191" data-name="Trazado 191" d="M529.847,881.087v.757h-1.189l.014-.757Z" transform="translate(-528.467 -849.114)" fill="#62768b"/>
      <path id="Trazado_192" data-name="Trazado 192" d="M529.884,789.4v22.1h-1.175l.4-22.1Z" transform="translate(-528.505 -779.526)" fill="#c3cad4" style="mix-blend-mode: multiply;isolation: isolate"/>
      <path id="Trazado_193" data-name="Trazado 193" d="M528.146,884.228h1.189v10.449h-1.379Z" transform="translate(-527.956 -851.498)" fill="#c3cad4" style="mix-blend-mode: multiply;isolation: isolate"/>
    </g>
    <g id="Grupo_20" data-name="Grupo 20" transform="translate(-25.013 -5.304)">
      <path id="Trazado_194" data-name="Trazado 194" d="M225.3,58.4l-2.869,3.652-2.262,2.878a.878.878,0,0,1-1.561-.436v-86.1a.383.383,0,0,1,.279-.371.445.445,0,0,1,.61.342l6.457,77.918A3.008,3.008,0,0,1,225.3,58.4Z" transform="translate(-135.844 22.004)" fill="#ffd464"/>
      <path id="Trazado_195" data-name="Trazado 195" d="M-2.357,366.14l-83.817,43.047a.456.456,0,0,1-.515-.046.364.364,0,0,1,.043-.624l72.627-43.931a4.019,4.019,0,0,1,2.384-.554l4.956.381,3.967.306A.748.748,0,0,1-2.357,366.14Z" transform="translate(86.846 -270.978)" fill="#ffd464"/>
      <path id="Trazado_196" data-name="Trazado 196" d="M333.406,392.623a.454.454,0,0,1-.531.1l-79.086-33.984a3.485,3.485,0,0,1-1.729-1.559l-2.208-4.2-1.585-3.015c-.355-.675.48-1.357,1.206-.983l83.817,43.047A.366.366,0,0,1,333.406,392.623Z" transform="translate(-157.408 -259.481)" fill="#ffd464"/>
      <path id="Trazado_197" data-name="Trazado 197" d="M-1.934,367.378l-83.817,43.047a.457.457,0,0,1-.515-.046l80.01-44.729,3.967.306A.748.748,0,0,1-1.934,367.378Z" transform="translate(86.423 -272.216)" fill="#c4a970"/>
      <path id="Trazado_198" data-name="Trazado 198" d="M222.427,62.126,220.165,65a.878.878,0,0,1-1.561-.436v-86.1a.383.383,0,0,1,.279-.371Z" transform="translate(-135.844 21.925)" fill="#c4a970"/>
      <path id="Trazado_199" data-name="Trazado 199" d="M333.406,392.623l-83.554-39.648-1.585-3.015c-.355-.675.48-1.357,1.206-.983l83.817,43.047A.366.366,0,0,1,333.406,392.623Z" transform="translate(-157.408 -259.481)" fill="#c4a970"/>
      <path id="Trazado_200" data-name="Trazado 200" d="M222.488,336.938c0,2.815-2.566,5.1-5.733,5.1s-5.73-2.282-5.73-5.1,2.566-5.1,5.73-5.1S222.488,334.122,222.488,336.938Z" transform="translate(-130.317 -246.555)" fill="#90b1d2"/>
      <path id="Trazado_201" data-name="Trazado 201" d="M216.754,331.84v10.2c-3.165,0-5.73-2.282-5.73-5.1S213.59,331.84,216.754,331.84Z" transform="translate(-130.317 -246.555)" fill="#62758d"/>
    </g>
    <g id="Grupo_21" data-name="Grupo 21" transform="translate(74.15 106.684)">
      <path id="Trazado_202" data-name="Trazado 202" d="M306.02,476.9l-.319,2.2-.252,1.737a.443.443,0,0,1-.8.128l-22.38-38.049a.173.173,0,0,1,.027-.221.237.237,0,0,1,.359.026l23.107,33.107A1.486,1.486,0,0,1,306.02,476.9Z" transform="translate(-281.399 -442.626)" fill="#ffd464"/>
      <path id="Trazado_203" data-name="Trazado 203" d="M305.406,614.273l-25.852,36.265a.221.221,0,0,1-.24.086.19.19,0,0,1-.143-.285l20.677-34.354a1.769,1.769,0,0,1,.91-.736l2.289-.851,1.832-.681C305.265,613.575,305.629,613.958,305.406,614.273Z" transform="translate(-279.142 -572.457)" fill="#ffd464"/>
      <path id="Trazado_204" data-name="Trazado 204" d="M430.234,601.287a.2.2,0,0,1-.209.153l-43.785,1.249a1.987,1.987,0,0,1-1.169-.334l-2.069-1.4-1.484-1.006a.377.377,0,0,1,.277-.683l48.231,1.783A.2.2,0,0,1,430.234,601.287Z" transform="translate(-353.656 -561.509)" fill="#ffd464"/>
      <path id="Trazado_205" data-name="Trazado 205" d="M305.869,614.273l-25.852,36.265a.221.221,0,0,1-.24.086L303.51,614.4l1.832-.681C305.728,613.575,306.093,613.958,305.869,614.273Z" transform="translate(-279.605 -572.457)" fill="#c4a970"/>
      <path id="Trazado_206" data-name="Trazado 206" d="M305.7,479.32l-.252,1.737a.443.443,0,0,1-.8.128l-22.38-38.049a.173.173,0,0,1,.027-.221Z" transform="translate(-281.399 -442.845)" fill="#c4a970"/>
      <path id="Trazado_207" data-name="Trazado 207" d="M430.234,601.287,383,600.952l-1.484-1.006a.377.377,0,0,1,.277-.683l48.231,1.783A.2.2,0,0,1,430.234,601.287Z" transform="translate(-353.656 -561.509)" fill="#c4a970"/>
      <path id="Trazado_208" data-name="Trazado 208" d="M369.51,596.5a2.412,2.412,0,0,1-1.209,3.432,3.041,3.041,0,0,1-3.857-1.074,2.411,2.411,0,0,1,1.207-3.431A3.041,3.041,0,0,1,369.51,596.5Z" transform="translate(-341.094 -558.381)" fill="#90b1d2"/>
      <path id="Trazado_209" data-name="Trazado 209" d="M365.651,596.346l2.65,4.506a3.041,3.041,0,0,1-3.857-1.074A2.412,2.412,0,0,1,365.651,596.346Z" transform="translate(-341.094 -559.296)" fill="#62758d"/>
    </g>
    <g id="Grupo_22" data-name="Grupo 22" transform="translate(110.254 154.704)">
      <path id="Trazado_210" data-name="Trazado 210" d="M535.141,665.46l-1.457.629-1.148.5c-.244.106-.5-.131-.363-.342l15.239-24.313a.144.144,0,0,1,.145-.066.127.127,0,0,1,.112.182L535.7,664.955A1.129,1.129,0,0,1,535.141,665.46Z" transform="translate(-499.692 -641.863)" fill="#ffd464"/>
      <path id="Trazado_211" data-name="Trazado 211" d="M443.826,747.638l-31.289.417a.135.135,0,0,1-.137-.085.126.126,0,0,1,.123-.17l28.285-2.234a1.3,1.3,0,0,1,.771.177l1.332.8,1.066.642A.243.243,0,0,1,443.826,747.638Z" transform="translate(-412.391 -720.568)" fill="#ffd464"/>
      <path id="Trazado_212" data-name="Trazado 212" d="M554.034,775.643a.145.145,0,0,1-.167-.047l-16.318-20.674a.971.971,0,0,1-.212-.683l.12-1.5.086-1.073a.286.286,0,0,1,.515-.109l16.05,23.9A.121.121,0,0,1,554.034,775.643Z" transform="translate(-503.481 -725.03)" fill="#ffd464"/>
      <path id="Trazado_213" data-name="Trazado 213" d="M443.848,750.734l-31.289.417a.135.135,0,0,1-.137-.085l30.512-1.425,1.066.642A.243.243,0,0,1,443.848,750.734Z" transform="translate(-412.414 -723.664)" fill="#c4a970"/>
      <path id="Trazado_214" data-name="Trazado 214" d="M533.685,666.089l-1.148.5c-.244.106-.5-.131-.363-.342l15.239-24.313a.144.144,0,0,1,.145-.066Z" transform="translate(-499.692 -641.863)" fill="#c4a970"/>
      <path id="Trazado_215" data-name="Trazado 215" d="M554.367,775.643l-16.578-22.9.086-1.073a.286.286,0,0,1,.515-.109l16.05,23.9A.121.121,0,0,1,554.367,775.643Z" transform="translate(-503.813 -725.03)" fill="#c4a970"/>
      <path id="Trazado_216" data-name="Trazado 216" d="M530.194,745.322a1.979,1.979,0,0,1-2.521.637,1.557,1.557,0,0,1-.716-2.242,1.979,1.979,0,0,1,2.52-.637A1.557,1.557,0,0,1,530.194,745.322Z" transform="translate(-495.745 -718.525)" fill="#90b1d2"/>
      <path id="Trazado_217" data-name="Trazado 217" d="M529.477,743.079l-1.8,2.879a1.557,1.557,0,0,1-.716-2.242A1.979,1.979,0,0,1,529.477,743.079Z" transform="translate(-495.745 -718.525)" fill="#62758d"/>
    </g>
    <path id="Trazado_218" data-name="Trazado 218" d="M237.706,829.47H195.438a422.13,422.13,0,0,0-38.65-24.775c-17.834,3.994-36.86,5-55.425,4.247,13.3,13.967,12.6,20.528,12.6,20.528H-.006V749.91s8.364,1.126,22.014,3.391c5.465.906,11.778,2,18.744,3.271l.033.007c39.022,7.141,98.432,20.053,143.461,38.906C207.5,805.22,226.911,816.541,237.706,829.47Z" transform="translate(-1.478 -569.164)" fill="#6fb657"/>
    <path id="Trazado_219" data-name="Trazado 219" d="M23.138,725.872a1.323,1.323,0,0,1-.045.34,3.142,3.142,0,0,1-2.565,2.542H-.767a3.261,3.261,0,0,1-1.27-2.542,3.656,3.656,0,0,1,3.849-3.424,4.223,4.223,0,0,1,1.425.244c0-.03,0-.058,0-.088,0-2.97,2.706-5.377,6.045-5.377a6.146,6.146,0,0,1,5.431,3.016,4.849,4.849,0,0,1,1.819-.352,4.182,4.182,0,0,1,4.4,3.918c0,.1-.009.192-.016.288a1.87,1.87,0,0,1,.524-.074A1.612,1.612,0,0,1,23.138,725.872Z" transform="translate(0.003 -544.616)" fill="#004963"/>
    <path id="Trazado_220" data-name="Trazado 220" d="M216.023,815.374c-17.834,3.994-36.859,5-55.425,4.247-11.851-12.456-34.833-30.8-79.355-55.641,5.465.906,11.778,2,18.744,3.271l.033.007C101.573,767.648,156.583,781.546,216.023,815.374Z" transform="translate(-60.713 -579.842)" fill="#ffd977"/>
    <path id="Trazado_221" data-name="Trazado 221" d="M386.723,1001.985s.7-6.561-12.6-20.528c18.565.754,37.591-.253,55.425-4.247a422.119,422.119,0,0,1,38.65,24.775Z" transform="translate(-274.239 -741.679)" fill="#ffc933"/>
    <path id="Trazado_222" data-name="Trazado 222" d="M101.363,936.518c13.3,13.967,12.6,20.528,12.6,20.528H-.006V918C17.367,923.44,58.117,934.761,101.363,936.518Z" transform="translate(-1.478 -696.74)" fill="#509d3b"/>
    <path id="Trazado_223" data-name="Trazado 223" d="M659.6,972.984H617.334a422.137,422.137,0,0,0-38.65-24.775A132.567,132.567,0,0,0,606.142,939C629.392,948.735,648.808,960.056,659.6,972.984Z" transform="translate(-423.374 -712.678)" fill="#509d3b"/>
    <path id="Trazado_224" data-name="Trazado 224" d="M.812,958.32a4.992,4.992,0,0,1-.17,1.285s-.773,7.474-9.693,9.6H-89.521a12.325,12.325,0,0,1-4.8-9.6c0-7.141,6.515-12.937,14.543-12.937a15.945,15.945,0,0,1,5.386.922c0-.113-.008-.219-.008-.332,0-11.222,10.227-20.32,22.842-20.32,9.022,0,16.811,4.647,20.524,11.4A18.336,18.336,0,0,1-24.162,937c9.192,0,16.642,6.627,16.642,14.8,0,.363-.034.725-.06,1.088a7.085,7.085,0,0,1,1.98-.28C-2.059,952.615.812,955.169.812,958.32Z" transform="translate(67.283 -703.523)" fill="#004963"/>
    <path id="Trazado_225" data-name="Trazado 225" d="M267.74,1047.587H235s0-8.364,10.195-8.364c0,0,.793-6.5,12.914-5.945C268.972,1033.775,267.74,1047.587,267.74,1047.587Z" transform="translate(-172.813 -784.208)" fill="#004464"/>
    <path id="Trazado_226" data-name="Trazado 226" d="M789.1,1034.836H756.359s0-8.364,10.195-8.364c0,0,.793-6.5,12.914-5.945C790.327,1021.024,789.1,1034.836,789.1,1034.836Z" transform="translate(-552.909 -774.53)" fill="#489355"/>
    <path id="Trazado_227" data-name="Trazado 227" d="M17.008,789.71l-.383-1.021a.392.392,0,0,0-.187-.216.459.459,0,0,0-.313-.036.363.363,0,0,0-.284.445l.383,1.021a.391.391,0,0,0,.187.216.461.461,0,0,0,.313.036A.364.364,0,0,0,17.008,789.71Z" transform="translate(-13.019 -598.394)" fill="#509d3b"/>
    <path id="Trazado_228" data-name="Trazado 228" d="M21.8,787.2a.411.411,0,0,0-.243-.166.456.456,0,0,0-.313.036.43.43,0,0,0-.187.216l-.51,1.134a.328.328,0,0,0,.041.278.412.412,0,0,0,.243.166.457.457,0,0,0,.313-.037.429.429,0,0,0,.187-.216l.51-1.134A.328.328,0,0,0,21.8,787.2Z" transform="translate(-16.454 -597.327)" fill="#509d3b"/>
    <path id="Trazado_229" data-name="Trazado 229" d="M65.8,824.2a.425.425,0,0,0-.5.253l-.55,1.464-.616-1.1a.438.438,0,0,0-.556-.13.348.348,0,0,0-.146.495l.638,1.134a.439.439,0,0,0,.556.13.415.415,0,0,0,.06-.05.386.386,0,0,0,.259.2.425.425,0,0,0,.5-.253l.639-1.7A.361.361,0,0,0,65.8,824.2Z" transform="translate(-47.692 -625.543)" fill="#509d3b"/>
    <path id="Trazado_230" data-name="Trazado 230" d="M72.546,830.569a.378.378,0,0,0-.187-.216.454.454,0,0,0-.313-.036.389.389,0,0,0-.243.166l-.383.794a.251.251,0,0,0-.048.134.247.247,0,0,0,.007.144.379.379,0,0,0,.187.216.455.455,0,0,0,.313.036.389.389,0,0,0,.243-.166l.383-.794a.25.25,0,0,0,.048-.134A.247.247,0,0,0,72.546,830.569Z" transform="translate(-53.511 -630.18)" fill="#509d3b"/>
    <path id="Trazado_231" data-name="Trazado 231" d="M122.057,898.219l-.51-.907a.41.41,0,0,0-.243-.166.461.461,0,0,0-.313.037.348.348,0,0,0-.146.495l.51.907a.409.409,0,0,0,.243.166.461.461,0,0,0,.313-.036A.348.348,0,0,0,122.057,898.219Z" transform="translate(-89.548 -680.902)" fill="#509d3b"/>
    <path id="Trazado_232" data-name="Trazado 232" d="M129.371,895.918a.412.412,0,0,0-.243-.166.458.458,0,0,0-.313.036.406.406,0,0,0-.187.216l-.255.68a.334.334,0,0,0,.041.279.412.412,0,0,0,.243.166.457.457,0,0,0,.313-.037.4.4,0,0,0,.187-.216l.255-.681A.334.334,0,0,0,129.371,895.918Z" transform="translate(-95.062 -679.846)" fill="#509d3b"/>
    <path id="Trazado_233" data-name="Trazado 233" d="M258.537,958.688l-.9-2.041a.425.425,0,0,0-.5-.252c-.192.055-.367.256-.284.445l.9,2.04a.425.425,0,0,0,.5.253C258.445,959.078,258.62,958.876,258.537,958.688Z" transform="translate(-188.73 -725.869)" fill="#509d3b"/>
    <path id="Trazado_234" data-name="Trazado 234" d="M268.39,954.982a.377.377,0,0,0-.187-.216.456.456,0,0,0-.313-.037.465.465,0,0,0-.243.166l-.645.789v-2.195a.409.409,0,0,0-.813,0v2.382a.389.389,0,0,0,.4.361.36.36,0,0,0,0,.189.379.379,0,0,0,.187.216.455.455,0,0,0,.313.036.463.463,0,0,0,.243-.166l1.02-1.248A.33.33,0,0,0,268.39,954.982Z" transform="translate(-195.548 -723.402)" fill="#509d3b"/>
    <path id="Trazado_235" data-name="Trazado 235" d="M404.47,843.9a.436.436,0,0,0-.287-.106.478.478,0,0,0-.287.106l-.564.439-.262-.628a.4.4,0,0,0-.187-.216.46.46,0,0,0-.313-.037.41.41,0,0,0-.243.166.322.322,0,0,0-.041.279l.38.908a.456.456,0,0,0,.093.144.347.347,0,0,0,.118.249.436.436,0,0,0,.288.106.481.481,0,0,0,.287-.106l1.02-.794a.333.333,0,0,0,0-.511Z" transform="translate(-294.758 -640.157)" fill="#509d3b"/>
    <path id="Trazado_236" data-name="Trazado 236" d="M467.131,851.151a.409.409,0,0,0-.243-.166l-.108-.013a.443.443,0,0,0-.205.049,2.481,2.481,0,0,0-1.044.759q.047-.678.095-1.356a.388.388,0,0,0-.406-.362.4.4,0,0,0-.406.362l-.119,1.7a.388.388,0,0,0,.406.362.42.42,0,0,0,.323-.159.339.339,0,0,0,.132.111.444.444,0,0,0,.556-.13,1.959,1.959,0,0,1,.122-.16,2.135,2.135,0,0,1,.313-.279,2.278,2.278,0,0,1,.438-.225.371.371,0,0,0,.187-.216A.334.334,0,0,0,467.131,851.151Z" transform="translate(-340.268 -645.177)" fill="#509d3b"/>
    <path id="Trazado_237" data-name="Trazado 237" d="M567.582,929.828a.407.407,0,0,0-.243-.166.456.456,0,0,0-.313.036l-.42.242-.223-1.036a.417.417,0,0,0-.5-.253.368.368,0,0,0-.284.445l.268,1.245a.343.343,0,0,0,.205.223.265.265,0,0,0,.036.073.407.407,0,0,0,.243.166.457.457,0,0,0,.313-.036l.772-.444a.391.391,0,0,0,.187-.216A.334.334,0,0,0,567.582,929.828Z" transform="translate(-413.827 -704.814)" fill="#509d3b"/>
    <path id="Trazado_238" data-name="Trazado 238" d="M310.554,815.488a.374.374,0,0,0-.187-.216.506.506,0,0,0-.313-.037,2.254,2.254,0,0,0-.714.251l-.079-.432a.371.371,0,0,0-.187-.216.46.46,0,0,0-.313-.037.41.41,0,0,0-.243.166l-.041.086a.323.323,0,0,0,0,.192l.124.681a.268.268,0,0,0,.069.124,1.846,1.846,0,0,0-.116.168.346.346,0,0,0,.146.495.442.442,0,0,0,.556-.13,1.588,1.588,0,0,1,.139-.191,1.8,1.8,0,0,1,.244-.215,1.952,1.952,0,0,1,.321-.167,2,2,0,0,1,.309-.079.407.407,0,0,0,.243-.166A.334.334,0,0,0,310.554,815.488Z" transform="translate(-226.368 -618.405)" fill="#509d3b"/>
  </g>
</svg>
