<svg xmlns="http://www.w3.org/2000/svg" xmlns:xlink="http://www.w3.org/1999/xlink" width="282.34" height="266.343" viewBox="0 0 282.34 266.343">
  <defs>
    <clipPath id="clip-path">
      <rect id="Rectángulo_47360" data-name="Rectángulo 47360" width="282.34" height="266.343" fill="none"/>
    </clipPath>
  </defs>
  <g id="Grupo_877766" data-name="Grupo 877766" transform="translate(0 0)">
    <g id="Grupo_877765" data-name="Grupo 877765" transform="translate(0 0)" clip-path="url(#clip-path)">
      <path id="Trazado_270275" data-name="Trazado 270275" d="M44.018,21.408H54.14a4.892,4.892,0,0,1,4.875-4.614H69.75A4.583,4.583,0,0,1,73.722,9.87h3.595a3.124,3.124,0,0,1,3.039-4.034h8.073A3.124,3.124,0,0,1,91.468,9.87h9.363a4.616,4.616,0,0,1,0,9.233H88.54a4.816,4.816,0,0,1,0,5.189h3.353a4.9,4.9,0,0,1,0,9.8H74.012A4.88,4.88,0,0,1,69.866,26.6H63.629a3.752,3.752,0,0,1-3.459,2.3H44.018a3.749,3.749,0,1,1,0-7.5" transform="translate(-17.663 22.358)" fill="#fff"/>
      <path id="Trazado_270276" data-name="Trazado 270276" d="M5.03,58.887l88.227-30.53a18.659,18.659,0,0,1,10.475,0l88.227,30.53Z" transform="translate(66.079 105.772)" fill="#3f8a49"/>
      <path id="Trazado_270277" data-name="Trazado 270277" d="M.333,44.289,58.871,30.548a17.909,17.909,0,0,1,6.952,0l58.543,13.741Z" transform="translate(156.365 115.736)" fill="#266b32"/>
      <path id="Trazado_270278" data-name="Trazado 270278" d="M28.514,48.566,96.753,29.386a17.676,17.676,0,0,1,8.107,0l68.23,19.181Z" transform="translate(-28.514 110.782)" fill="#277c33"/>
      <rect id="Rectángulo_47353" data-name="Rectángulo 47353" width="2.851" height="22.519" transform="translate(251.786 137.305)" fill="#bc7637"/>
      <path id="Trazado_270279" data-name="Trazado 270279" d="M3.7,42.454a6.189,6.189,0,0,1,2.546-5,5.559,5.559,0,0,1,4.474-8.726,3.876,3.876,0,0,1,7.426-1.3l.063,0a4.4,4.4,0,0,1,4.406,4.4,4.287,4.287,0,0,1-.295,1.541,8.127,8.127,0,0,1,2.923,9.359,5.164,5.164,0,0,1-6.716,7.706A6.19,6.19,0,0,1,7.15,48,6.2,6.2,0,0,1,3.7,42.454" transform="translate(237.987 96.148)" fill="#66a646"/>
      <path id="Trazado_270280" data-name="Trazado 270280" d="M6.5,34.477a5.542,5.542,0,0,1,3.469-8.6,14.838,14.838,0,0,0,6.865,7.523A10.108,10.108,0,0,0,25.519,46.42a5.124,5.124,0,0,1-6.74,1.034A6.19,6.19,0,0,1,7.405,45.019,6.177,6.177,0,0,1,6.5,34.477" transform="translate(237.732 99.125)" fill="#277c33"/>
      <rect id="Rectángulo_47354" data-name="Rectángulo 47354" width="3.469" height="27.399" transform="translate(230.745 132.425)" fill="#bc7637"/>
      <path id="Trazado_270281" data-name="Trazado 270281" d="M7.481,44.483a7.522,7.522,0,0,1,3.1-6.078,6.754,6.754,0,0,1,5.44-10.615,4.713,4.713,0,0,1,9.03-1.585l.082,0a5.358,5.358,0,0,1,5.358,5.358,5.257,5.257,0,0,1-.358,1.875,9.877,9.877,0,0,1,3.556,11.388,6.243,6.243,0,0,1,1.532,4.073A6.306,6.306,0,0,1,28.918,55.2a6.231,6.231,0,0,1-3.4-1,7.527,7.527,0,0,1-13.832-2.967,7.527,7.527,0,0,1-4.208-6.745" transform="translate(210.972 89.52)" fill="#66a646"/>
      <path id="Trazado_270282" data-name="Trazado 270282" d="M10.895,34.781a6.747,6.747,0,0,1,4.223-10.47,18.037,18.037,0,0,0,8.349,9.156A12.293,12.293,0,0,0,34.033,49.309a6.215,6.215,0,0,1-8.2,1.261A7.525,7.525,0,0,1,12,47.6a7.508,7.508,0,0,1-1.106-12.823" transform="translate(210.656 93.144)" fill="#277c33"/>
      <rect id="Rectángulo_47355" data-name="Rectángulo 47355" width="2.788" height="22.027" transform="translate(18.2 137.802)" fill="#bc7637"/>
      <path id="Trazado_270283" data-name="Trazado 270283" d="M52.1,42.249A6.045,6.045,0,0,1,54.6,37.364a5.433,5.433,0,0,1,4.372-8.532,3.789,3.789,0,0,1,7.262-1.271l.063-.01a4.306,4.306,0,0,1,4.3,4.31,4.242,4.242,0,0,1-.285,1.507,7.92,7.92,0,0,1,2.855,9.151A5.011,5.011,0,0,1,74.4,45.795a5.067,5.067,0,0,1-5.068,5.068,5.012,5.012,0,0,1-2.725-.807A6.052,6.052,0,0,1,55.484,47.67,6.061,6.061,0,0,1,52.1,42.249" transform="translate(-43.787 96.822)" fill="#66a646"/>
      <path id="Trazado_270284" data-name="Trazado 270284" d="M54.844,34.447a5.424,5.424,0,0,1,3.392-8.416,14.508,14.508,0,0,0,6.716,7.358,9.778,9.778,0,0,0-.435,2.9,9.878,9.878,0,0,0,8.929,9.832,5.009,5.009,0,0,1-6.59,1.015,6.053,6.053,0,0,1-11.122-2.382,6.038,6.038,0,0,1-.889-10.31" transform="translate(-44.036 99.734)" fill="#3f8a49"/>
      <rect id="Rectángulo_47356" data-name="Rectángulo 47356" width="3.377" height="26.674" transform="translate(36.207 133.15)" fill="#bc7637"/>
      <path id="Trazado_270285" data-name="Trazado 270285" d="M47.831,44.184a7.341,7.341,0,0,1,3.02-5.919,6.578,6.578,0,0,1,5.3-10.334,4.589,4.589,0,0,1,8.793-1.541l.077,0A5.215,5.215,0,0,1,70.234,31.6a5.088,5.088,0,0,1-.348,1.821,9.615,9.615,0,0,1,3.459,11.088,6.074,6.074,0,0,1,1.493,3.967,6.122,6.122,0,0,1-9.445,5.16A7.326,7.326,0,0,1,51.928,50.75a7.334,7.334,0,0,1-4.1-6.566" transform="translate(-23.592 90.501)" fill="#66a646"/>
      <path id="Trazado_270286" data-name="Trazado 270286" d="M51.154,34.736a6.573,6.573,0,0,1,4.112-10.194A17.574,17.574,0,0,0,63.4,33.456,11.956,11.956,0,0,0,73.683,48.883,6.057,6.057,0,0,1,65.7,50.11a7.33,7.33,0,0,1-13.47-2.889,7.31,7.31,0,0,1-1.077-12.484" transform="translate(-23.899 94.029)" fill="#3f8a49"/>
      <path id="Trazado_270287" data-name="Trazado 270287" d="M0,117.746V42.052s44.691,9.059,135.884,0c81.835-8.126,145.953-1.609,145.953-1.609l.5,72.723s-32.646-12.678-61.905-3.271c-68.244,21.944-101.31,5.005-134.072.15-29.593-4.392-71.186-2.561-86.362,7.7" transform="translate(0 145.478)" fill="#ea9f07"/>
      <path id="Trazado_270288" data-name="Trazado 270288" d="M281.936,32.982V85.524c-44.478-9.32-90.14,20.442-142.928,7.851-65.828-15.7-99.044,14.7-138.9-9.663V32.982Z" transform="translate(-0.099 126.367)" fill="#b16430"/>
      <path id="Trazado_270289" data-name="Trazado 270289" d="M.1,51.25V32.982H281.941V52.757S265.22,50.829,260.8,50.829c-5.46,0-16.354,2.8-21.809,2.8-6.044,0-18.142-2.8-24.191-2.8-6.735,0-20.21,2.8-26.95,2.8-6.938,0-20.819-2.8-27.752-2.8-7.334,0-22.012,2.8-29.346,2.8-7.527,0-22.592-2.8-30.129-2.8-7.131,0-21.408,2.8-28.539,2.8-7.237,0-21.708-2.8-28.94-2.8-5.155,0-15.461,2.8-20.616,2.8C17.748,53.632.1,51.25.1,51.25" transform="translate(-0.104 126.367)" fill="#66a646"/>
      <rect id="Rectángulo_47357" data-name="Rectángulo 47357" width="1.749" height="41.101" transform="translate(193.897 118.196)" fill="#125e7f"/>
      <path id="Trazado_270290" data-name="Trazado 270290" d="M35.585,56.774H76.932l.092-.9L10.2,20.905l-.092.9Z" transform="translate(156.475 80.096)" fill="#a5a5a5"/>
      <path id="Trazado_270291" data-name="Trazado 270291" d="M35.585,55.874H76.933L44.04,20.9H10.109Z" transform="translate(156.567 80.092)" fill="#cacccb"/>
      <path id="Trazado_270292" data-name="Trazado 270292" d="M21.416,27.726H37.5l-6.329-6.769H15.734Z" transform="translate(168.818 80.294)" fill="#125e7f"/>
      <path id="Trazado_270293" data-name="Trazado 270293" d="M24.329,27.726H40.418l-5.624-6.769H19.357Z" transform="translate(148.398 80.294)" fill="#125e7f"/>
      <path id="Trazado_270294" data-name="Trazado 270294" d="M20.4,29.924H37.265L30.322,22.5H14.166Z" transform="translate(176.632 86.197)" fill="#125e7f"/>
      <path id="Trazado_270295" data-name="Trazado 270295" d="M23.42,29.924H40.287L34.122,22.5H17.965Z" transform="translate(155.255 86.197)" fill="#125e7f"/>
      <path id="Trazado_270296" data-name="Trazado 270296" d="M19.3,32.373H37.03l-7.653-8.184H12.438Z" transform="translate(185.216 92.674)" fill="#125e7f"/>
      <path id="Trazado_270297" data-name="Trazado 270297" d="M22.441,32.373H40.168l-6.8-8.184H16.431Z" transform="translate(162.788 92.674)" fill="#125e7f"/>
      <path id="Trazado_270298" data-name="Trazado 270298" d="M18.129,35.12H36.807l-8.479-9.069h-17.8Z" transform="translate(194.685 99.812)" fill="#125e7f"/>
      <path id="Trazado_270299" data-name="Trazado 270299" d="M21.389,35.12H40.068L32.54,26.051H14.732Z" transform="translate(171.097 99.812)" fill="#125e7f"/>
      <rect id="Rectángulo_47358" data-name="Rectángulo 47358" width="2.198" height="51.701" transform="translate(145.977 107.596)" fill="#125e7f"/>
      <path id="Trazado_270300" data-name="Trazado 270300" d="M49.96,62.914h52.015l.111-1.135L18.025,17.793l-.111,1.135Z" transform="translate(93.705 68.171)" fill="#a5a5a5"/>
      <path id="Trazado_270301" data-name="Trazado 270301" d="M49.961,61.778h52.01L60.595,17.793H17.914Z" transform="translate(93.82 68.171)" fill="#cacccb"/>
      <path id="Trazado_270302" data-name="Trazado 270302" d="M32.135,26.371H52.374l-7.967-8.513H24.989Z" transform="translate(109.233 68.422)" fill="#125e7f"/>
      <path id="Trazado_270303" data-name="Trazado 270303" d="M35.8,26.371H56.038l-7.073-8.513H29.547Z" transform="translate(83.547 68.422)" fill="#125e7f"/>
      <path id="Trazado_270304" data-name="Trazado 270304" d="M30.853,29.14h21.22L43.333,19.8H23.016Z" transform="translate(119.065 75.844)" fill="#125e7f"/>
      <path id="Trazado_270305" data-name="Trazado 270305" d="M34.656,29.14h21.22L48.117,19.8H27.8Z" transform="translate(92.171 75.844)" fill="#125e7f"/>
      <path id="Trazado_270306" data-name="Trazado 270306" d="M29.481,32.218h22.3l-9.634-10.3H20.843Z" transform="translate(129.857 83.994)" fill="#125e7f"/>
      <path id="Trazado_270307" data-name="Trazado 270307" d="M33.426,32.218h22.3l-8.552-10.3H25.865Z" transform="translate(101.645 83.994)" fill="#125e7f"/>
      <path id="Trazado_270308" data-name="Trazado 270308" d="M28.006,35.673h23.5L40.838,24.266h-22.4Z" transform="translate(141.765 92.973)" fill="#125e7f"/>
      <path id="Trazado_270309" data-name="Trazado 270309" d="M32.1,35.673H55.6L46.126,24.266h-22.4Z" transform="translate(112.101 92.973)" fill="#125e7f"/>
      <rect id="Rectángulo_47359" data-name="Rectángulo 47359" width="2.865" height="67.307" transform="translate(82.207 91.991)" fill="#125e7f"/>
      <path id="Trazado_270310" data-name="Trazado 270310" d="M69.719,71.952h67.713l.15-1.478L28.15,13.212,28,14.69Z" transform="translate(9.478 50.618)" fill="#a5a5a5"/>
      <path id="Trazado_270311" data-name="Trazado 270311" d="M69.719,70.474h67.713L83.566,13.212H28Z" transform="translate(9.628 50.618)" fill="#cacccb"/>
      <path id="Trazado_270312" data-name="Trazado 270312" d="M46.512,24.381H72.858L62.49,13.3H37.212Z" transform="translate(29.695 50.946)" fill="#125e7f"/>
      <path id="Trazado_270313" data-name="Trazado 270313" d="M51.282,24.381H77.628L68.424,13.3H43.146Z" transform="translate(-3.743 50.946)" fill="#125e7f"/>
      <path id="Trazado_270314" data-name="Trazado 270314" d="M44.848,27.981H72.47L61.1,15.82H34.644Z" transform="translate(42.489 60.611)" fill="#125e7f"/>
      <path id="Trazado_270315" data-name="Trazado 270315" d="M49.794,27.981H77.416L67.318,15.82H40.866Z" transform="translate(7.484 60.611)" fill="#125e7f"/>
      <path id="Trazado_270316" data-name="Trazado 270316" d="M43.061,31.991H72.093l-12.538-13.4H31.814Z" transform="translate(56.54 71.218)" fill="#125e7f"/>
      <path id="Trazado_270317" data-name="Trazado 270317" d="M48.194,31.991H77.226l-11.132-13.4H38.352Z" transform="translate(19.816 71.218)" fill="#125e7f"/>
      <path id="Trazado_270318" data-name="Trazado 270318" d="M41.135,36.487H71.728L57.837,21.64H28.68Z" transform="translate(72.048 82.91)" fill="#125e7f"/>
      <path id="Trazado_270319" data-name="Trazado 270319" d="M46.47,36.487H77.058L64.728,21.64H35.57Z" transform="translate(33.425 82.91)" fill="#125e7f"/>
      <path id="Trazado_270320" data-name="Trazado 270320" d="M12.189,24h5.054a5.825,5.825,0,0,1,5.749-6.957h9.924a3.649,3.649,0,0,1,3.624-3.3h4.88a4.56,4.56,0,0,1,4.092-2.565H64.557a4.554,4.554,0,0,1,3.889,6.957H83.231a4.945,4.945,0,0,1,0,9.89h-.184a4.693,4.693,0,0,1,.367,1.831,4.759,4.759,0,0,1-4.759,4.759H65.47a4.752,4.752,0,0,1-4.392-2.928H53.884a6.039,6.039,0,0,1-5.807,4.392H12.189a6.042,6.042,0,1,1,0-12.083" transform="translate(164.477 42.834)" fill="#fff"/>
      <path id="Trazado_270321" data-name="Trazado 270321" d="M33.839,40.71a23.288,23.288,0,0,1-1.131-4.266l-9.436-3.57,9.45-4.261a23.291,23.291,0,0,1,1.155-4.261L27.5,16.543l10.291,1.034a23.522,23.522,0,0,1,3.145-3.136L39.313,4.508l8.416,6.054a23.228,23.228,0,0,1,4.261-1.126L55.566,0l4.261,9.45a23.279,23.279,0,0,1,4.261,1.15L71.9,4.218,70.863,14.509A23.848,23.848,0,0,1,74,17.659l9.933-1.619-6.059,8.412A23.289,23.289,0,0,1,79,28.718l9.436,3.575-9.45,4.257a23.289,23.289,0,0,1-1.155,4.261l6.387,7.812-10.3-1.039a23.558,23.558,0,0,1-3.145,3.14L72.4,60.654,63.988,54.6a23.79,23.79,0,0,1-4.266,1.131l-3.575,9.436L51.89,55.711a23.174,23.174,0,0,1-4.261-1.15l-7.812,6.382L40.85,50.653a23.812,23.812,0,0,1-3.136-3.145l-9.929,1.619Z" transform="translate(81.458 -0.002)" fill="#ffef24"/>
      <path id="Trazado_270322" data-name="Trazado 270322" d="M36.029,24.456l-9.436-3.575,9.45-4.257A23.29,23.29,0,0,1,37.2,12.363L30.816,4.55,41.107,5.589A23.681,23.681,0,0,1,43.571,3.13a30.951,30.951,0,0,0-.353,4.421A30.775,30.775,0,0,0,73.989,38.322c.188,0,.367-.024.551-.029-.155.135-.28.309-.44.44l1.619,9.933L67.3,42.608a22.76,22.76,0,0,1-4.261,1.131l-3.575,9.436L55.2,43.724a23.384,23.384,0,0,1-4.261-1.15l-7.808,6.382L44.17,38.665a23.848,23.848,0,0,1-3.136-3.15l-9.929,1.619,6.054-8.412a23.287,23.287,0,0,1-1.131-4.266" transform="translate(78.138 11.99)" fill="#ffbc27"/>
    </g>
  </g>
</svg>
