<svg xmlns="http://www.w3.org/2000/svg" width="820" height="463" viewBox="0 0 820 463">
  <g id="Grupo_894595" data-name="Grupo 894595" transform="translate(-389.746 -6534.332)">
    <path id="Trazado_705073" data-name="Trazado 705073" d="M1.156,15V3.625h3.9A4.76,4.76,0,0,1,7.992,4.4,2.724,2.724,0,0,1,9,6.7a2.456,2.456,0,0,1-.422,1.406,2.715,2.715,0,0,1-1.234.969,2.511,2.511,0,0,1,1.426.941,2.742,2.742,0,0,1,.5,1.66,3.028,3.028,0,0,1-1.027,2.461A4.467,4.467,0,0,1,5.3,15ZM3.133,9.867v3.555h2.2a2.124,2.124,0,0,0,1.453-.461A1.618,1.618,0,0,0,7.3,11.68,1.623,1.623,0,0,0,5.492,9.867Zm0-1.453H5.07A2.241,2.241,0,0,0,6.512,8a1.432,1.432,0,0,0,.52-1.184,1.452,1.452,0,0,0-.48-1.219,2.426,2.426,0,0,0-1.5-.375H3.133ZM13.086,15h-1.9V6.547h1.9ZM11.07,4.352a1.008,1.008,0,0,1,.277-.727,1.048,1.048,0,0,1,.793-.289,1.061,1.061,0,0,1,.8.289,1,1,0,0,1,.281.727.977.977,0,0,1-.281.715,1.069,1.069,0,0,1-.8.285,1.056,1.056,0,0,1-.793-.285A.984.984,0,0,1,11.07,4.352ZM14.8,10.7a4.984,4.984,0,0,1,.492-2.238,3.6,3.6,0,0,1,1.383-1.531,3.9,3.9,0,0,1,2.047-.535,3.692,3.692,0,0,1,2.777,1.1,4.333,4.333,0,0,1,1.152,2.922l.008.445a5.029,5.029,0,0,1-.48,2.234A3.551,3.551,0,0,1,20.8,14.617a3.925,3.925,0,0,1-2.066.539,3.667,3.667,0,0,1-2.863-1.191A4.563,4.563,0,0,1,14.8,10.789Zm1.9.164a3.406,3.406,0,0,0,.539,2.043,1.752,1.752,0,0,0,1.5.738,1.733,1.733,0,0,0,1.5-.75,3.762,3.762,0,0,0,.535-2.2,3.362,3.362,0,0,0-.551-2.031,1.856,1.856,0,0,0-2.973-.012A3.691,3.691,0,0,0,16.7,10.859Zm11.039,2.781a1.716,1.716,0,0,0,1.18-.414,1.415,1.415,0,0,0,.5-1.023H31.2a2.789,2.789,0,0,1-.492,1.473,3.228,3.228,0,0,1-1.25,1.082,3.725,3.725,0,0,1-1.7.4,3.6,3.6,0,0,1-2.812-1.148,4.555,4.555,0,0,1-1.039-3.172v-.2a4.479,4.479,0,0,1,1.031-3.09,3.571,3.571,0,0,1,2.813-1.16,3.473,3.473,0,0,1,2.457.879,3.148,3.148,0,0,1,1,2.309H29.414a1.738,1.738,0,0,0-.5-1.2,1.6,1.6,0,0,0-1.184-.469,1.671,1.671,0,0,0-1.422.668,3.408,3.408,0,0,0-.508,2.027v.3a3.465,3.465,0,0,0,.5,2.051A1.669,1.669,0,0,0,27.734,13.641ZM32.281,10.7a4.984,4.984,0,0,1,.492-2.238,3.6,3.6,0,0,1,1.383-1.531A3.9,3.9,0,0,1,36.2,6.391a3.692,3.692,0,0,1,2.777,1.1,4.333,4.333,0,0,1,1.152,2.922l.008.445a5.029,5.029,0,0,1-.48,2.234,3.551,3.551,0,0,1-1.375,1.523,3.925,3.925,0,0,1-2.066.539,3.667,3.667,0,0,1-2.863-1.191,4.563,4.563,0,0,1-1.074-3.176Zm1.9.164a3.406,3.406,0,0,0,.539,2.043,1.752,1.752,0,0,0,1.5.738,1.733,1.733,0,0,0,1.5-.75,3.762,3.762,0,0,0,.535-2.2A3.362,3.362,0,0,0,37.7,8.664a1.856,1.856,0,0,0-2.973-.012A3.691,3.691,0,0,0,34.18,10.859Zm9.352-4.312.055.883a3.042,3.042,0,0,1,2.438-1.039,2.337,2.337,0,0,1,2.32,1.3,3,3,0,0,1,2.594-1.3,2.636,2.636,0,0,1,2.082.773,3.405,3.405,0,0,1,.7,2.281V15h-1.9V9.5a1.681,1.681,0,0,0-.352-1.18A1.539,1.539,0,0,0,50.3,7.945a1.581,1.581,0,0,0-1.059.348,1.833,1.833,0,0,0-.574.91L48.68,15h-1.9V9.438a1.354,1.354,0,0,0-1.523-1.492,1.671,1.671,0,0,0-1.617.93V15h-1.9V6.547Zm19.555,4.313a5.078,5.078,0,0,1-.879,3.133,2.863,2.863,0,0,1-2.418,1.164,2.758,2.758,0,0,1-2.312-1.07L57.383,15H55.664V3h1.9V7.359a2.748,2.748,0,0,1,2.211-.969A2.9,2.9,0,0,1,62.2,7.539a5.162,5.162,0,0,1,.883,3.211Zm-1.9-.164A3.589,3.589,0,0,0,60.7,8.633,1.613,1.613,0,0,0,59.3,7.945a1.763,1.763,0,0,0-1.734,1.078v3.484a1.781,1.781,0,0,0,1.75,1.1,1.6,1.6,0,0,0,1.375-.664,3.477,3.477,0,0,0,.5-2.008ZM69.8,14.172a2.944,2.944,0,0,1-2.375.984,2.624,2.624,0,0,1-2.082-.8,3.423,3.423,0,0,1-.707-2.328V6.547h1.9V12q0,1.609,1.336,1.609a1.876,1.876,0,0,0,1.867-.992V6.547h1.9V15H69.844ZM78.3,12.7a.861.861,0,0,0-.418-.773,4.445,4.445,0,0,0-1.387-.469,7.129,7.129,0,0,1-1.617-.516,2.158,2.158,0,0,1-1.422-1.992,2.25,2.25,0,0,1,.922-1.828,3.644,3.644,0,0,1,2.344-.734,3.792,3.792,0,0,1,2.449.75,2.38,2.38,0,0,1,.934,1.945h-1.9a1.17,1.17,0,0,0-.406-.91,1.557,1.557,0,0,0-1.078-.363,1.682,1.682,0,0,0-1.02.289.911.911,0,0,0-.395.773.769.769,0,0,0,.367.68,5.049,5.049,0,0,0,1.484.488,7.027,7.027,0,0,1,1.754.586,2.484,2.484,0,0,1,.945.816,2.082,2.082,0,0,1,.309,1.156,2.2,2.2,0,0,1-.945,1.848,4.031,4.031,0,0,1-2.477.707,4.371,4.371,0,0,1-1.852-.375,3.047,3.047,0,0,1-1.266-1.031,2.441,2.441,0,0,1-.453-1.414h1.844a1.338,1.338,0,0,0,.508,1.035,1.973,1.973,0,0,0,1.242.363,1.92,1.92,0,0,0,1.141-.285A.883.883,0,0,0,78.3,12.7Zm5.9-8.211V6.547H85.7V7.953H84.2v4.719a1.039,1.039,0,0,0,.191.7.888.888,0,0,0,.684.215,2.925,2.925,0,0,0,.664-.078v1.469a4.676,4.676,0,0,1-1.25.18q-2.188,0-2.187-2.414V7.953H80.914V6.547H82.3V4.492ZM89.164,15h-1.9V6.547h1.9ZM87.148,4.352a1.008,1.008,0,0,1,.277-.727,1.048,1.048,0,0,1,.793-.289,1.061,1.061,0,0,1,.8.289,1,1,0,0,1,.281.727.977.977,0,0,1-.281.715,1.069,1.069,0,0,1-.8.285,1.056,1.056,0,0,1-.793-.285A.984.984,0,0,1,87.148,4.352Zm11.5,6.508a5.078,5.078,0,0,1-.879,3.133,2.863,2.863,0,0,1-2.418,1.164,2.758,2.758,0,0,1-2.312-1.07L92.945,15H91.227V3h1.9V7.359a2.748,2.748,0,0,1,2.211-.969,2.9,2.9,0,0,1,2.43,1.148,5.162,5.162,0,0,1,.883,3.211Zm-1.9-.164a3.589,3.589,0,0,0-.484-2.062,1.613,1.613,0,0,0-1.406-.687,1.763,1.763,0,0,0-1.734,1.078v3.484a1.781,1.781,0,0,0,1.75,1.1,1.6,1.6,0,0,0,1.375-.664,3.477,3.477,0,0,0,.5-2.008Zm5.508,4.3h-1.9V3h1.9Zm5.789.156a3.928,3.928,0,0,1-2.926-1.137A4.124,4.124,0,0,1,104,10.992v-.234a5.072,5.072,0,0,1,.488-2.262,3.716,3.716,0,0,1,1.371-1.551,3.625,3.625,0,0,1,1.969-.555,3.318,3.318,0,0,1,2.668,1.1,4.658,4.658,0,0,1,.941,3.117v.766h-5.523a2.539,2.539,0,0,0,.7,1.656,2.1,2.1,0,0,0,1.543.609,2.571,2.571,0,0,0,2.125-1.055l1.023.977a3.418,3.418,0,0,1-1.355,1.176A4.244,4.244,0,0,1,108.047,15.156Zm-.227-7.242a1.6,1.6,0,0,0-1.262.547,2.835,2.835,0,0,0-.613,1.523h3.617V9.844a2.307,2.307,0,0,0-.508-1.441A1.586,1.586,0,0,0,107.82,7.914ZM121.633,12.7a.861.861,0,0,0-.418-.773,4.445,4.445,0,0,0-1.387-.469,7.129,7.129,0,0,1-1.617-.516,2.158,2.158,0,0,1-1.422-1.992,2.25,2.25,0,0,1,.922-1.828,3.644,3.644,0,0,1,2.344-.734,3.792,3.792,0,0,1,2.449.75,2.38,2.38,0,0,1,.934,1.945h-1.9a1.17,1.17,0,0,0-.406-.91,1.557,1.557,0,0,0-1.078-.363,1.682,1.682,0,0,0-1.02.289.911.911,0,0,0-.395.773.769.769,0,0,0,.367.68,5.049,5.049,0,0,0,1.484.488,7.027,7.027,0,0,1,1.754.586,2.484,2.484,0,0,1,.945.816A2.082,2.082,0,0,1,123.5,12.6a2.2,2.2,0,0,1-.945,1.848,4.031,4.031,0,0,1-2.477.707,4.371,4.371,0,0,1-1.852-.375,3.047,3.047,0,0,1-1.266-1.031,2.441,2.441,0,0,1-.453-1.414h1.844a1.338,1.338,0,0,0,.508,1.035,1.973,1.973,0,0,0,1.242.363,1.92,1.92,0,0,0,1.141-.285A.883.883,0,0,0,121.633,12.7ZM124.8,10.7a4.984,4.984,0,0,1,.492-2.238,3.6,3.6,0,0,1,1.383-1.531,3.9,3.9,0,0,1,2.047-.535,3.692,3.692,0,0,1,2.777,1.1,4.333,4.333,0,0,1,1.152,2.922l.008.445a5.029,5.029,0,0,1-.48,2.234,3.551,3.551,0,0,1-1.375,1.523,3.925,3.925,0,0,1-2.066.539,3.667,3.667,0,0,1-2.863-1.191,4.563,4.563,0,0,1-1.074-3.176Zm1.9.164a3.406,3.406,0,0,0,.539,2.043,1.752,1.752,0,0,0,1.5.738,1.733,1.733,0,0,0,1.5-.75,3.762,3.762,0,0,0,.535-2.2,3.362,3.362,0,0,0-.551-2.031,1.856,1.856,0,0,0-2.973-.012A3.691,3.691,0,0,0,126.7,10.859ZM129.242,3h2.164l-2.164,2.367-1.523,0Zm7.039,12h-1.9V3h1.9Zm4.086,0h-1.9V6.547h1.9ZM138.352,4.352a1.008,1.008,0,0,1,.277-.727,1.048,1.048,0,0,1,.793-.289,1.061,1.061,0,0,1,.8.289,1,1,0,0,1,.281.727.977.977,0,0,1-.281.715,1.069,1.069,0,0,1-.8.285,1.056,1.056,0,0,1-.793-.285A.984.984,0,0,1,138.352,4.352Zm3.727,6.359a5.026,5.026,0,0,1,.906-3.137,2.9,2.9,0,0,1,2.43-1.184,2.759,2.759,0,0,1,2.172.938V3h1.9V15h-1.719l-.094-.875a2.8,2.8,0,0,1-2.273,1.031,2.887,2.887,0,0,1-2.4-1.2A5.21,5.21,0,0,1,142.078,10.711Zm1.9.164a3.519,3.519,0,0,0,.5,2.012,1.61,1.61,0,0,0,1.41.723,1.793,1.793,0,0,0,1.7-1.039V8.961A1.766,1.766,0,0,0,145.9,7.945a1.622,1.622,0,0,0-1.422.73A3.919,3.919,0,0,0,143.977,10.875Zm7.133-.18a4.984,4.984,0,0,1,.492-2.238,3.6,3.6,0,0,1,1.383-1.531,3.9,3.9,0,0,1,2.047-.535,3.692,3.692,0,0,1,2.777,1.1,4.333,4.333,0,0,1,1.152,2.922l.008.445a5.029,5.029,0,0,1-.48,2.234,3.551,3.551,0,0,1-1.375,1.523,3.925,3.925,0,0,1-2.066.539,3.667,3.667,0,0,1-2.863-1.191,4.563,4.563,0,0,1-1.074-3.176Zm1.9.164a3.406,3.406,0,0,0,.539,2.043,1.752,1.752,0,0,0,1.5.738,1.733,1.733,0,0,0,1.5-.75,3.762,3.762,0,0,0,.535-2.2,3.362,3.362,0,0,0-.551-2.031,1.856,1.856,0,0,0-2.973-.012A3.691,3.691,0,0,0,153.008,10.859Z" transform="translate(423.75 6948.332)" fill="#12263f"/>
    <path id="Trazado_705074" data-name="Trazado 705074" d="M10.188,15H8.219V9.953H3.133V15H1.156V3.625H3.133V8.359H8.219V3.625h1.969Zm4.172,0h-1.9V6.547h1.9ZM12.344,4.352a1.008,1.008,0,0,1,.277-.727,1.048,1.048,0,0,1,.793-.289,1.061,1.061,0,0,1,.8.289,1,1,0,0,1,.281.727.977.977,0,0,1-.281.715,1.069,1.069,0,0,1-.8.285,1.056,1.056,0,0,1-.793-.285A.984.984,0,0,1,12.344,4.352Zm3.727,6.359a5.026,5.026,0,0,1,.906-3.137,2.9,2.9,0,0,1,2.43-1.184,2.759,2.759,0,0,1,2.172.938V3h1.9V15H21.758l-.094-.875a2.8,2.8,0,0,1-2.273,1.031,2.887,2.887,0,0,1-2.4-1.2A5.21,5.21,0,0,1,16.07,10.711Zm1.9.164a3.519,3.519,0,0,0,.5,2.012,1.61,1.61,0,0,0,1.41.723,1.793,1.793,0,0,0,1.7-1.039V8.961a1.766,1.766,0,0,0-1.687-1.016,1.622,1.622,0,0,0-1.422.73A3.918,3.918,0,0,0,17.969,10.875ZM29.883,8.281a4.7,4.7,0,0,0-.773-.062,1.741,1.741,0,0,0-1.758,1V15h-1.9V6.547h1.813l.047.945a2.139,2.139,0,0,1,1.906-1.1,1.777,1.777,0,0,1,.672.109ZM35.9,15a2.93,2.93,0,0,1-.219-.789,3.193,3.193,0,0,1-4.3.219,2.325,2.325,0,0,1-.8-1.8,2.4,2.4,0,0,1,1-2.074,4.865,4.865,0,0,1,2.871-.723h1.164V9.281A1.481,1.481,0,0,0,35.25,8.23a1.456,1.456,0,0,0-1.117-.395,1.672,1.672,0,0,0-1.062.324,1,1,0,0,0-.414.824h-1.9a2.107,2.107,0,0,1,.461-1.3,3.071,3.071,0,0,1,1.254-.949,4.4,4.4,0,0,1,1.77-.344,3.547,3.547,0,0,1,2.367.746,2.661,2.661,0,0,1,.906,2.1v3.813a4.321,4.321,0,0,0,.32,1.82V15Zm-2.086-1.367a2.159,2.159,0,0,0,1.059-.273,1.827,1.827,0,0,0,.746-.734V11.031H34.594a2.8,2.8,0,0,0-1.586.367,1.189,1.189,0,0,0-.531,1.039,1.109,1.109,0,0,0,.363.871A1.407,1.407,0,0,0,33.813,13.633ZM34.867,3h2.164L34.867,5.367l-1.523,0Zm9.758,11.172a2.944,2.944,0,0,1-2.375.984,2.624,2.624,0,0,1-2.082-.8,3.423,3.423,0,0,1-.707-2.328V6.547h1.9V12q0,1.609,1.336,1.609a1.876,1.876,0,0,0,1.867-.992V6.547h1.9V15H44.672ZM50.414,15h-1.9V3h1.9ZM54.5,15H52.6V6.547h1.9ZM52.484,4.352a1.008,1.008,0,0,1,.277-.727,1.048,1.048,0,0,1,.793-.289,1.061,1.061,0,0,1,.8.289,1,1,0,0,1,.281.727.977.977,0,0,1-.281.715,1.069,1.069,0,0,1-.8.285,1.056,1.056,0,0,1-.793-.285A.984.984,0,0,1,52.484,4.352Zm7.555,9.289a1.716,1.716,0,0,0,1.18-.414,1.415,1.415,0,0,0,.5-1.023h1.789a2.789,2.789,0,0,1-.492,1.473,3.228,3.228,0,0,1-1.25,1.082,3.725,3.725,0,0,1-1.7.4,3.6,3.6,0,0,1-2.812-1.148,4.555,4.555,0,0,1-1.039-3.172v-.2a4.479,4.479,0,0,1,1.031-3.09,3.571,3.571,0,0,1,2.813-1.16,3.473,3.473,0,0,1,2.457.879,3.148,3.148,0,0,1,1,2.309H61.719a1.738,1.738,0,0,0-.5-1.2,1.6,1.6,0,0,0-1.184-.469,1.671,1.671,0,0,0-1.422.668,3.408,3.408,0,0,0-.508,2.027v.3a3.465,3.465,0,0,0,.5,2.051A1.669,1.669,0,0,0,60.039,13.641ZM69.992,15a2.93,2.93,0,0,1-.219-.789,3.193,3.193,0,0,1-4.3.219,2.325,2.325,0,0,1-.8-1.8,2.4,2.4,0,0,1,1-2.074,4.865,4.865,0,0,1,2.871-.723h1.164V9.281a1.481,1.481,0,0,0-.367-1.051,1.456,1.456,0,0,0-1.117-.395,1.672,1.672,0,0,0-1.062.324,1,1,0,0,0-.414.824h-1.9a2.107,2.107,0,0,1,.461-1.3,3.071,3.071,0,0,1,1.254-.949,4.4,4.4,0,0,1,1.77-.344,3.547,3.547,0,0,1,2.367.746,2.661,2.661,0,0,1,.906,2.1v3.813a4.321,4.321,0,0,0,.32,1.82V15Zm-2.086-1.367a2.159,2.159,0,0,0,1.059-.273,1.827,1.827,0,0,0,.746-.734V11.031H68.688A2.8,2.8,0,0,0,67.1,11.4a1.189,1.189,0,0,0-.531,1.039,1.109,1.109,0,0,0,.363.871A1.407,1.407,0,0,0,67.906,13.633ZM79.367,6.547l.055.883a3.042,3.042,0,0,1,2.438-1.039,2.337,2.337,0,0,1,2.32,1.3,3,3,0,0,1,2.594-1.3,2.636,2.636,0,0,1,2.082.773,3.405,3.405,0,0,1,.7,2.281V15h-1.9V9.5A1.681,1.681,0,0,0,87.3,8.32a1.539,1.539,0,0,0-1.164-.375,1.581,1.581,0,0,0-1.059.348,1.833,1.833,0,0,0-.574.91l.008,5.8h-1.9V9.438a1.354,1.354,0,0,0-1.523-1.492,1.671,1.671,0,0,0-1.617.93V15h-1.9V6.547ZM93.523,15h-1.9V6.547h1.9ZM91.508,4.352a1.008,1.008,0,0,1,.277-.727,1.048,1.048,0,0,1,.793-.289,1.061,1.061,0,0,1,.8.289,1,1,0,0,1,.281.727.977.977,0,0,1-.281.715,1.069,1.069,0,0,1-.8.285,1.056,1.056,0,0,1-.793-.285A.984.984,0,0,1,91.508,4.352Zm7.117,4.977,1.609-2.781h2.109l-2.586,4.164L102.43,15h-2.094l-1.687-2.891L96.969,15H94.859l2.672-4.289L94.953,6.547h2.094Zm7.391-4.836V6.547h1.492V7.953h-1.492v4.719a1.039,1.039,0,0,0,.191.7.888.888,0,0,0,.684.215,2.925,2.925,0,0,0,.664-.078v1.469a4.676,4.676,0,0,1-1.25.18q-2.188,0-2.187-2.414V7.953h-1.391V6.547h1.391V4.492ZM114.008,15a2.93,2.93,0,0,1-.219-.789,3.193,3.193,0,0,1-4.3.219,2.325,2.325,0,0,1-.8-1.8,2.4,2.4,0,0,1,1-2.074,4.865,4.865,0,0,1,2.871-.723h1.164V9.281a1.481,1.481,0,0,0-.367-1.051,1.456,1.456,0,0,0-1.117-.395,1.672,1.672,0,0,0-1.062.324,1,1,0,0,0-.414.824h-1.9a2.107,2.107,0,0,1,.461-1.3,3.071,3.071,0,0,1,1.254-.949,4.4,4.4,0,0,1,1.77-.344,3.547,3.547,0,0,1,2.367.746,2.661,2.661,0,0,1,.906,2.1v3.813a4.321,4.321,0,0,0,.32,1.82V15Zm-2.086-1.367a2.159,2.159,0,0,0,1.059-.273,1.827,1.827,0,0,0,.746-.734V11.031H112.7a2.8,2.8,0,0,0-1.586.367,1.189,1.189,0,0,0-.531,1.039,1.109,1.109,0,0,0,.363.871A1.407,1.407,0,0,0,111.922,13.633Z" transform="translate(628.254 6948.332)" fill="#12263f"/>
    <path id="Trazado_705075" data-name="Trazado 705075" d="M7.8,9.922H3.133v3.5H8.594V15H1.156V3.625H8.539V5.219H3.133V8.359H7.8Zm1.711.773a4.984,4.984,0,0,1,.492-2.238,3.6,3.6,0,0,1,1.383-1.531,3.9,3.9,0,0,1,2.047-.535,3.692,3.692,0,0,1,2.777,1.1,4.333,4.333,0,0,1,1.152,2.922l.008.445a5.029,5.029,0,0,1-.48,2.234,3.551,3.551,0,0,1-1.375,1.523,3.925,3.925,0,0,1-2.066.539,3.667,3.667,0,0,1-2.863-1.191,4.563,4.563,0,0,1-1.074-3.176Zm1.9.164a3.406,3.406,0,0,0,.539,2.043,1.752,1.752,0,0,0,1.5.738,1.733,1.733,0,0,0,1.5-.75,3.762,3.762,0,0,0,.535-2.2,3.362,3.362,0,0,0-.551-2.031,1.856,1.856,0,0,0-2.973-.012A3.691,3.691,0,0,0,11.414,10.859ZM13.961,3h2.164L13.961,5.367l-1.523,0ZM21,15H19.1V3H21Zm4.086,0h-1.9V6.547h1.9ZM23.07,4.352a1.008,1.008,0,0,1,.277-.727,1.048,1.048,0,0,1,.793-.289,1.061,1.061,0,0,1,.8.289,1,1,0,0,1,.281.727.977.977,0,0,1-.281.715,1.069,1.069,0,0,1-.8.285,1.056,1.056,0,0,1-.793-.285A.984.984,0,0,1,23.07,4.352Zm7.555,9.289a1.716,1.716,0,0,0,1.18-.414,1.415,1.415,0,0,0,.5-1.023h1.789a2.789,2.789,0,0,1-.492,1.473,3.228,3.228,0,0,1-1.25,1.082,3.725,3.725,0,0,1-1.7.4,3.6,3.6,0,0,1-2.812-1.148A4.555,4.555,0,0,1,26.8,10.836v-.2a4.479,4.479,0,0,1,1.031-3.09,3.571,3.571,0,0,1,2.813-1.16A3.473,3.473,0,0,1,33.1,7.27a3.148,3.148,0,0,1,1,2.309H32.3a1.738,1.738,0,0,0-.5-1.2,1.6,1.6,0,0,0-1.184-.469,1.671,1.671,0,0,0-1.422.668,3.408,3.408,0,0,0-.508,2.027v.3a3.465,3.465,0,0,0,.5,2.051A1.669,1.669,0,0,0,30.625,13.641ZM40.578,15a2.93,2.93,0,0,1-.219-.789,3.193,3.193,0,0,1-4.3.219,2.325,2.325,0,0,1-.8-1.8,2.4,2.4,0,0,1,1-2.074,4.865,4.865,0,0,1,2.871-.723H40.3V9.281A1.481,1.481,0,0,0,39.93,8.23a1.456,1.456,0,0,0-1.117-.395,1.672,1.672,0,0,0-1.062.324,1,1,0,0,0-.414.824h-1.9a2.107,2.107,0,0,1,.461-1.3,3.071,3.071,0,0,1,1.254-.949,4.4,4.4,0,0,1,1.77-.344,3.547,3.547,0,0,1,2.367.746,2.661,2.661,0,0,1,.906,2.1v3.813a4.321,4.321,0,0,0,.32,1.82V15Zm-2.086-1.367a2.159,2.159,0,0,0,1.059-.273,1.827,1.827,0,0,0,.746-.734V11.031H39.273a2.8,2.8,0,0,0-1.586.367,1.189,1.189,0,0,0-.531,1.039,1.109,1.109,0,0,0,.363.871A1.407,1.407,0,0,0,38.492,13.633ZM49.953,6.547l.055.883a3.042,3.042,0,0,1,2.438-1.039,2.337,2.337,0,0,1,2.32,1.3,3,3,0,0,1,2.594-1.3,2.636,2.636,0,0,1,2.082.773,3.405,3.405,0,0,1,.7,2.281V15h-1.9V9.5a1.681,1.681,0,0,0-.352-1.18,1.539,1.539,0,0,0-1.164-.375,1.581,1.581,0,0,0-1.059.348,1.833,1.833,0,0,0-.574.91L55.1,15H53.2V9.438A1.354,1.354,0,0,0,51.68,7.945a1.671,1.671,0,0,0-1.617.93V15h-1.9V6.547ZM67.141,15a2.93,2.93,0,0,1-.219-.789,3.193,3.193,0,0,1-4.3.219,2.325,2.325,0,0,1-.8-1.8,2.4,2.4,0,0,1,1-2.074A4.865,4.865,0,0,1,65.7,9.836h1.164V9.281a1.481,1.481,0,0,0-.367-1.051,1.456,1.456,0,0,0-1.117-.395,1.672,1.672,0,0,0-1.062.324,1,1,0,0,0-.414.824H62a2.107,2.107,0,0,1,.461-1.3,3.071,3.071,0,0,1,1.254-.949,4.4,4.4,0,0,1,1.77-.344,3.547,3.547,0,0,1,2.367.746,2.661,2.661,0,0,1,.906,2.1v3.813a4.321,4.321,0,0,0,.32,1.82V15Zm-2.086-1.367a2.159,2.159,0,0,0,1.059-.273,1.827,1.827,0,0,0,.746-.734V11.031H65.836a2.8,2.8,0,0,0-1.586.367,1.189,1.189,0,0,0-.531,1.039,1.109,1.109,0,0,0,.363.871A1.407,1.407,0,0,0,65.055,13.633ZM75.172,8.281a4.7,4.7,0,0,0-.773-.062,1.741,1.741,0,0,0-1.758,1V15h-1.9V6.547h1.813l.047.945a2.139,2.139,0,0,1,1.906-1.1,1.777,1.777,0,0,1,.672.109ZM78.391,15h-1.9V6.547h1.9ZM76.375,4.352a1.008,1.008,0,0,1,.277-.727,1.048,1.048,0,0,1,.793-.289,1.061,1.061,0,0,1,.8.289,1,1,0,0,1,.281.727.977.977,0,0,1-.281.715,1.069,1.069,0,0,1-.8.285,1.056,1.056,0,0,1-.793-.285A.984.984,0,0,1,76.375,4.352Zm5.844,2.2.055.977a3.039,3.039,0,0,1,2.461-1.133q2.641,0,2.688,3.023V15h-1.9V9.523a1.741,1.741,0,0,0-.348-1.191,1.462,1.462,0,0,0-1.137-.387,1.829,1.829,0,0,0-1.711,1.039V15h-1.9V6.547ZM94.406,15a2.93,2.93,0,0,1-.219-.789,3.193,3.193,0,0,1-4.3.219,2.325,2.325,0,0,1-.8-1.8,2.4,2.4,0,0,1,1-2.074,4.865,4.865,0,0,1,2.871-.723h1.164V9.281a1.481,1.481,0,0,0-.367-1.051,1.456,1.456,0,0,0-1.117-.395,1.672,1.672,0,0,0-1.062.324,1,1,0,0,0-.414.824h-1.9a2.107,2.107,0,0,1,.461-1.3,3.071,3.071,0,0,1,1.254-.949,4.4,4.4,0,0,1,1.77-.344,3.547,3.547,0,0,1,2.367.746,2.661,2.661,0,0,1,.906,2.1v3.813a4.321,4.321,0,0,0,.32,1.82V15ZM92.32,13.633a2.159,2.159,0,0,0,1.059-.273,1.827,1.827,0,0,0,.746-.734V11.031H93.1a2.8,2.8,0,0,0-1.586.367,1.189,1.189,0,0,0-.531,1.039,1.109,1.109,0,0,0,.363.871A1.407,1.407,0,0,0,92.32,13.633Z" transform="translate(783.254 6948.332)" fill="#12263f"/>
    <path id="Trazado_705076" data-name="Trazado 705076" d="M1.156,15V3.625h3.9A4.76,4.76,0,0,1,7.992,4.4,2.724,2.724,0,0,1,9,6.7a2.456,2.456,0,0,1-.422,1.406,2.715,2.715,0,0,1-1.234.969,2.511,2.511,0,0,1,1.426.941,2.742,2.742,0,0,1,.5,1.66,3.028,3.028,0,0,1-1.027,2.461A4.467,4.467,0,0,1,5.3,15ZM3.133,9.867v3.555h2.2a2.124,2.124,0,0,0,1.453-.461A1.618,1.618,0,0,0,7.3,11.68,1.623,1.623,0,0,0,5.492,9.867Zm0-1.453H5.07A2.241,2.241,0,0,0,6.512,8a1.432,1.432,0,0,0,.52-1.184,1.452,1.452,0,0,0-.48-1.219,2.426,2.426,0,0,0-1.5-.375H3.133ZM13.086,15h-1.9V6.547h1.9ZM11.07,4.352a1.008,1.008,0,0,1,.277-.727,1.048,1.048,0,0,1,.793-.289,1.061,1.061,0,0,1,.8.289,1,1,0,0,1,.281.727.977.977,0,0,1-.281.715,1.069,1.069,0,0,1-.8.285,1.056,1.056,0,0,1-.793-.285A.984.984,0,0,1,11.07,4.352ZM14.8,10.7a4.984,4.984,0,0,1,.492-2.238,3.6,3.6,0,0,1,1.383-1.531,3.9,3.9,0,0,1,2.047-.535,3.692,3.692,0,0,1,2.777,1.1,4.333,4.333,0,0,1,1.152,2.922l.008.445a5.029,5.029,0,0,1-.48,2.234A3.551,3.551,0,0,1,20.8,14.617a3.925,3.925,0,0,1-2.066.539,3.667,3.667,0,0,1-2.863-1.191A4.563,4.563,0,0,1,14.8,10.789Zm1.9.164a3.406,3.406,0,0,0,.539,2.043,1.752,1.752,0,0,0,1.5.738,1.733,1.733,0,0,0,1.5-.75,3.762,3.762,0,0,0,.535-2.2,3.362,3.362,0,0,0-.551-2.031,1.856,1.856,0,0,0-2.973-.012A3.691,3.691,0,0,0,16.7,10.859Zm7.234-.148a4.944,4.944,0,0,1,.926-3.145,2.971,2.971,0,0,1,2.457-1.176A2.784,2.784,0,0,1,29.586,7.4l.086-.852h1.711v8.2a3.406,3.406,0,0,1-1.035,2.625,3.943,3.943,0,0,1-2.793.961,4.5,4.5,0,0,1-1.816-.387,3.227,3.227,0,0,1-1.348-1.012l.9-1.141a2.713,2.713,0,0,0,2.156,1.039,2.1,2.1,0,0,0,1.492-.512,1.961,1.961,0,0,0,.547-1.5v-.57a2.8,2.8,0,0,1-2.187.914,2.964,2.964,0,0,1-2.426-1.18A5.1,5.1,0,0,1,23.93,10.711Zm1.891.164a3.4,3.4,0,0,0,.52,2,1.671,1.671,0,0,0,1.441.73,1.827,1.827,0,0,0,1.7-.984V8.906A1.8,1.8,0,0,0,27.8,7.945a1.677,1.677,0,0,0-1.457.742A3.811,3.811,0,0,0,25.82,10.875ZM38.383,15a2.93,2.93,0,0,1-.219-.789,3.193,3.193,0,0,1-4.3.219,2.325,2.325,0,0,1-.8-1.8,2.4,2.4,0,0,1,1-2.074,4.865,4.865,0,0,1,2.871-.723H38.1V9.281a1.481,1.481,0,0,0-.367-1.051,1.456,1.456,0,0,0-1.117-.395,1.672,1.672,0,0,0-1.062.324,1,1,0,0,0-.414.824h-1.9a2.107,2.107,0,0,1,.461-1.3,3.071,3.071,0,0,1,1.254-.949,4.4,4.4,0,0,1,1.77-.344,3.547,3.547,0,0,1,2.367.746A2.661,2.661,0,0,1,40,9.234v3.813a4.321,4.321,0,0,0,.32,1.82V15ZM36.3,13.633a2.159,2.159,0,0,0,1.059-.273,1.827,1.827,0,0,0,.746-.734V11.031H37.078a2.8,2.8,0,0,0-1.586.367,1.189,1.189,0,0,0-.531,1.039,1.109,1.109,0,0,0,.363.871A1.407,1.407,0,0,0,36.3,13.633Zm10.43-.93a.861.861,0,0,0-.418-.773,4.445,4.445,0,0,0-1.387-.469,7.129,7.129,0,0,1-1.617-.516,2.158,2.158,0,0,1-1.422-1.992A2.25,2.25,0,0,1,42.8,7.125a3.644,3.644,0,0,1,2.344-.734,3.792,3.792,0,0,1,2.449.75,2.38,2.38,0,0,1,.934,1.945h-1.9a1.17,1.17,0,0,0-.406-.91,1.557,1.557,0,0,0-1.078-.363,1.682,1.682,0,0,0-1.02.289.911.911,0,0,0-.395.773.769.769,0,0,0,.367.68,5.049,5.049,0,0,0,1.484.488,7.027,7.027,0,0,1,1.754.586,2.484,2.484,0,0,1,.945.816,2.082,2.082,0,0,1,.309,1.156,2.2,2.2,0,0,1-.945,1.848,4.031,4.031,0,0,1-2.477.707,4.371,4.371,0,0,1-1.852-.375,3.047,3.047,0,0,1-1.266-1.031,2.441,2.441,0,0,1-.453-1.414h1.844a1.338,1.338,0,0,0,.508,1.035,1.973,1.973,0,0,0,1.242.363,1.92,1.92,0,0,0,1.141-.285A.883.883,0,0,0,46.727,12.7Z" transform="translate(920.002 6948.332)" fill="#12263f"/>
    <path id="Trazado_705077" data-name="Trazado 705077" d="M3.719,3.625,7,12.344l3.273-8.719h2.555V15H10.859V11.25l.2-5.016L7.7,15H6.281L2.93,6.242l.2,5.008V15H1.156V3.625ZM20.031,15a2.93,2.93,0,0,1-.219-.789,2.955,2.955,0,0,1-2.219.945,2.982,2.982,0,0,1-2.078-.727,2.325,2.325,0,0,1-.8-1.8,2.4,2.4,0,0,1,1-2.074,4.865,4.865,0,0,1,2.871-.723H19.75V9.281a1.481,1.481,0,0,0-.367-1.051,1.456,1.456,0,0,0-1.117-.395A1.672,1.672,0,0,0,17.2,8.16a1,1,0,0,0-.414.824h-1.9a2.107,2.107,0,0,1,.461-1.3,3.071,3.071,0,0,1,1.254-.949,4.4,4.4,0,0,1,1.77-.344,3.547,3.547,0,0,1,2.367.746,2.661,2.661,0,0,1,.906,2.1v3.813a4.321,4.321,0,0,0,.32,1.82V15Zm-2.086-1.367A2.159,2.159,0,0,0,19,13.359a1.827,1.827,0,0,0,.746-.734V11.031H18.727a2.8,2.8,0,0,0-1.586.367,1.189,1.189,0,0,0-.531,1.039,1.109,1.109,0,0,0,.363.871A1.407,1.407,0,0,0,17.945,13.633ZM28.063,8.281a4.7,4.7,0,0,0-.773-.062,1.741,1.741,0,0,0-1.758,1V15h-1.9V6.547h1.813l.047.945a2.139,2.139,0,0,1,1.906-1.1,1.777,1.777,0,0,1,.672.109Zm4.773,6.875A3.928,3.928,0,0,1,29.91,14.02a4.124,4.124,0,0,1-1.121-3.027v-.234A5.072,5.072,0,0,1,29.277,8.5a3.716,3.716,0,0,1,1.371-1.551,3.625,3.625,0,0,1,1.969-.555,3.318,3.318,0,0,1,2.668,1.1,4.658,4.658,0,0,1,.941,3.117v.766H30.7a2.539,2.539,0,0,0,.7,1.656,2.1,2.1,0,0,0,1.543.609,2.571,2.571,0,0,0,2.125-1.055l1.023.977a3.418,3.418,0,0,1-1.355,1.176A4.244,4.244,0,0,1,32.836,15.156Zm-.227-7.242a1.6,1.6,0,0,0-1.262.547,2.835,2.835,0,0,0-.613,1.523h3.617V9.844A2.307,2.307,0,0,0,33.844,8.4,1.586,1.586,0,0,0,32.609,7.914ZM37.344,10.7a4.984,4.984,0,0,1,.492-2.238,3.6,3.6,0,0,1,1.383-1.531,3.9,3.9,0,0,1,2.047-.535,3.692,3.692,0,0,1,2.777,1.1A4.333,4.333,0,0,1,45.2,10.414l.008.445a5.029,5.029,0,0,1-.48,2.234,3.551,3.551,0,0,1-1.375,1.523,3.925,3.925,0,0,1-2.066.539,3.667,3.667,0,0,1-2.863-1.191,4.563,4.563,0,0,1-1.074-3.176Zm1.9.164a3.406,3.406,0,0,0,.539,2.043,1.752,1.752,0,0,0,1.5.738,1.733,1.733,0,0,0,1.5-.75,3.762,3.762,0,0,0,.535-2.2,3.362,3.362,0,0,0-.551-2.031,1.856,1.856,0,0,0-2.973-.012A3.691,3.691,0,0,0,39.242,10.859Zm9.352-4.312.055.883a3.042,3.042,0,0,1,2.438-1.039,2.337,2.337,0,0,1,2.32,1.3A3,3,0,0,1,56,6.391a2.636,2.636,0,0,1,2.082.773,3.405,3.405,0,0,1,.7,2.281V15h-1.9V9.5a1.681,1.681,0,0,0-.352-1.18,1.539,1.539,0,0,0-1.164-.375,1.581,1.581,0,0,0-1.059.348,1.833,1.833,0,0,0-.574.91l.008,5.8h-1.9V9.438A1.354,1.354,0,0,0,50.32,7.945a1.671,1.671,0,0,0-1.617.93V15H46.8V6.547ZM60.375,10.7a4.984,4.984,0,0,1,.492-2.238A3.6,3.6,0,0,1,62.25,6.926,3.9,3.9,0,0,1,64.3,6.391a3.692,3.692,0,0,1,2.777,1.1,4.333,4.333,0,0,1,1.152,2.922l.008.445a5.029,5.029,0,0,1-.48,2.234,3.551,3.551,0,0,1-1.375,1.523,3.925,3.925,0,0,1-2.066.539,3.667,3.667,0,0,1-2.863-1.191,4.563,4.563,0,0,1-1.074-3.176Zm1.9.164a3.406,3.406,0,0,0,.539,2.043,1.752,1.752,0,0,0,1.5.738,1.733,1.733,0,0,0,1.5-.75,3.762,3.762,0,0,0,.535-2.2,3.362,3.362,0,0,0-.551-2.031,1.856,1.856,0,0,0-2.973-.012A3.691,3.691,0,0,0,62.273,10.859Zm9.945-6.367V6.547h1.492V7.953H72.219v4.719a1.039,1.039,0,0,0,.191.7.888.888,0,0,0,.684.215,2.925,2.925,0,0,0,.664-.078v1.469a4.676,4.676,0,0,1-1.25.18q-2.188,0-2.187-2.414V7.953H68.93V6.547H70.32V4.492Zm7.367,3.789a4.7,4.7,0,0,0-.773-.062,1.741,1.741,0,0,0-1.758,1V15h-1.9V6.547h1.813l.047.945a2.139,2.139,0,0,1,1.906-1.1,1.777,1.777,0,0,1,.672.109ZM82.8,15h-1.9V6.547h1.9ZM80.789,4.352a1.008,1.008,0,0,1,.277-.727,1.048,1.048,0,0,1,.793-.289,1.061,1.061,0,0,1,.8.289,1,1,0,0,1,.281.727.977.977,0,0,1-.281.715,1.069,1.069,0,0,1-.8.285,1.056,1.056,0,0,1-.793-.285A.984.984,0,0,1,80.789,4.352ZM86.9,13.484h4.5V15H84.539V13.758l4.289-5.68H84.617V6.547h6.617v1.2Z" transform="translate(1117.746 6948.332)" fill="#12263f"/>
    <path id="Trazado_705078" data-name="Trazado 705078" d="M1.156,15V3.625h3.9A4.76,4.76,0,0,1,7.992,4.4,2.724,2.724,0,0,1,9,6.7a2.456,2.456,0,0,1-.422,1.406,2.715,2.715,0,0,1-1.234.969,2.511,2.511,0,0,1,1.426.941,2.742,2.742,0,0,1,.5,1.66,3.028,3.028,0,0,1-1.027,2.461A4.467,4.467,0,0,1,5.3,15ZM3.133,9.867v3.555h2.2a2.124,2.124,0,0,0,1.453-.461A1.618,1.618,0,0,0,7.3,11.68,1.623,1.623,0,0,0,5.492,9.867Zm0-1.453H5.07A2.241,2.241,0,0,0,6.512,8a1.432,1.432,0,0,0,.52-1.184,1.452,1.452,0,0,0-.48-1.219,2.426,2.426,0,0,0-1.5-.375H3.133ZM13.086,15h-1.9V6.547h1.9ZM11.07,4.352a1.008,1.008,0,0,1,.277-.727,1.048,1.048,0,0,1,.793-.289,1.061,1.061,0,0,1,.8.289,1,1,0,0,1,.281.727.977.977,0,0,1-.281.715,1.069,1.069,0,0,1-.8.285,1.056,1.056,0,0,1-.793-.285A.984.984,0,0,1,11.07,4.352ZM14.8,10.7a4.984,4.984,0,0,1,.492-2.238,3.6,3.6,0,0,1,1.383-1.531,3.9,3.9,0,0,1,2.047-.535,3.692,3.692,0,0,1,2.777,1.1,4.333,4.333,0,0,1,1.152,2.922l.008.445a5.029,5.029,0,0,1-.48,2.234A3.551,3.551,0,0,1,20.8,14.617a3.925,3.925,0,0,1-2.066.539,3.667,3.667,0,0,1-2.863-1.191A4.563,4.563,0,0,1,14.8,10.789Zm1.9.164a3.406,3.406,0,0,0,.539,2.043,1.752,1.752,0,0,0,1.5.738,1.733,1.733,0,0,0,1.5-.75,3.762,3.762,0,0,0,.535-2.2,3.362,3.362,0,0,0-.551-2.031,1.856,1.856,0,0,0-2.973-.012A3.691,3.691,0,0,0,16.7,10.859Zm11.039,2.781a1.716,1.716,0,0,0,1.18-.414,1.415,1.415,0,0,0,.5-1.023H31.2a2.789,2.789,0,0,1-.492,1.473,3.228,3.228,0,0,1-1.25,1.082,3.725,3.725,0,0,1-1.7.4,3.6,3.6,0,0,1-2.812-1.148,4.555,4.555,0,0,1-1.039-3.172v-.2a4.479,4.479,0,0,1,1.031-3.09,3.571,3.571,0,0,1,2.813-1.16,3.473,3.473,0,0,1,2.457.879,3.148,3.148,0,0,1,1,2.309H29.414a1.738,1.738,0,0,0-.5-1.2,1.6,1.6,0,0,0-1.184-.469,1.671,1.671,0,0,0-1.422.668,3.408,3.408,0,0,0-.508,2.027v.3a3.465,3.465,0,0,0,.5,2.051A1.669,1.669,0,0,0,27.734,13.641ZM32.281,10.7a4.984,4.984,0,0,1,.492-2.238,3.6,3.6,0,0,1,1.383-1.531A3.9,3.9,0,0,1,36.2,6.391a3.692,3.692,0,0,1,2.777,1.1,4.333,4.333,0,0,1,1.152,2.922l.008.445a5.029,5.029,0,0,1-.48,2.234,3.551,3.551,0,0,1-1.375,1.523,3.925,3.925,0,0,1-2.066.539,3.667,3.667,0,0,1-2.863-1.191,4.563,4.563,0,0,1-1.074-3.176Zm1.9.164a3.406,3.406,0,0,0,.539,2.043,1.752,1.752,0,0,0,1.5.738,1.733,1.733,0,0,0,1.5-.75,3.762,3.762,0,0,0,.535-2.2A3.362,3.362,0,0,0,37.7,8.664a1.856,1.856,0,0,0-2.973-.012A3.691,3.691,0,0,0,34.18,10.859Zm9.352-4.312.055.883a3.042,3.042,0,0,1,2.438-1.039,2.337,2.337,0,0,1,2.32,1.3,3,3,0,0,1,2.594-1.3,2.636,2.636,0,0,1,2.082.773,3.405,3.405,0,0,1,.7,2.281V15h-1.9V9.5a1.681,1.681,0,0,0-.352-1.18A1.539,1.539,0,0,0,50.3,7.945a1.581,1.581,0,0,0-1.059.348,1.833,1.833,0,0,0-.574.91L48.68,15h-1.9V9.438a1.354,1.354,0,0,0-1.523-1.492,1.671,1.671,0,0,0-1.617.93V15h-1.9V6.547Zm19.555,4.313a5.078,5.078,0,0,1-.879,3.133,2.863,2.863,0,0,1-2.418,1.164,2.758,2.758,0,0,1-2.312-1.07L57.383,15H55.664V3h1.9V7.359a2.748,2.748,0,0,1,2.211-.969A2.9,2.9,0,0,1,62.2,7.539a5.162,5.162,0,0,1,.883,3.211Zm-1.9-.164A3.589,3.589,0,0,0,60.7,8.633,1.613,1.613,0,0,0,59.3,7.945a1.763,1.763,0,0,0-1.734,1.078v3.484a1.781,1.781,0,0,0,1.75,1.1,1.6,1.6,0,0,0,1.375-.664,3.477,3.477,0,0,0,.5-2.008ZM69.8,14.172a2.944,2.944,0,0,1-2.375.984,2.624,2.624,0,0,1-2.082-.8,3.423,3.423,0,0,1-.707-2.328V6.547h1.9V12q0,1.609,1.336,1.609a1.876,1.876,0,0,0,1.867-.992V6.547h1.9V15H69.844ZM78.3,12.7a.861.861,0,0,0-.418-.773,4.445,4.445,0,0,0-1.387-.469,7.129,7.129,0,0,1-1.617-.516,2.158,2.158,0,0,1-1.422-1.992,2.25,2.25,0,0,1,.922-1.828,3.644,3.644,0,0,1,2.344-.734,3.792,3.792,0,0,1,2.449.75,2.38,2.38,0,0,1,.934,1.945h-1.9a1.17,1.17,0,0,0-.406-.91,1.557,1.557,0,0,0-1.078-.363,1.682,1.682,0,0,0-1.02.289.911.911,0,0,0-.395.773.769.769,0,0,0,.367.68,5.049,5.049,0,0,0,1.484.488,7.027,7.027,0,0,1,1.754.586,2.484,2.484,0,0,1,.945.816,2.082,2.082,0,0,1,.309,1.156,2.2,2.2,0,0,1-.945,1.848,4.031,4.031,0,0,1-2.477.707,4.371,4.371,0,0,1-1.852-.375,3.047,3.047,0,0,1-1.266-1.031,2.441,2.441,0,0,1-.453-1.414h1.844a1.338,1.338,0,0,0,.508,1.035,1.973,1.973,0,0,0,1.242.363,1.92,1.92,0,0,0,1.141-.285A.883.883,0,0,0,78.3,12.7Zm5.9-8.211V6.547H85.7V7.953H84.2v4.719a1.039,1.039,0,0,0,.191.7.888.888,0,0,0,.684.215,2.925,2.925,0,0,0,.664-.078v1.469a4.676,4.676,0,0,1-1.25.18q-2.188,0-2.187-2.414V7.953H80.914V6.547H82.3V4.492ZM89.164,15h-1.9V6.547h1.9ZM87.148,4.352a1.008,1.008,0,0,1,.277-.727,1.048,1.048,0,0,1,.793-.289,1.061,1.061,0,0,1,.8.289,1,1,0,0,1,.281.727.977.977,0,0,1-.281.715,1.069,1.069,0,0,1-.8.285,1.056,1.056,0,0,1-.793-.285A.984.984,0,0,1,87.148,4.352Zm11.5,6.508a5.078,5.078,0,0,1-.879,3.133,2.863,2.863,0,0,1-2.418,1.164,2.758,2.758,0,0,1-2.312-1.07L92.945,15H91.227V3h1.9V7.359a2.748,2.748,0,0,1,2.211-.969,2.9,2.9,0,0,1,2.43,1.148,5.162,5.162,0,0,1,.883,3.211Zm-1.9-.164a3.589,3.589,0,0,0-.484-2.062,1.613,1.613,0,0,0-1.406-.687,1.763,1.763,0,0,0-1.734,1.078v3.484a1.781,1.781,0,0,0,1.75,1.1,1.6,1.6,0,0,0,1.375-.664,3.477,3.477,0,0,0,.5-2.008Zm5.508,4.3h-1.9V3h1.9Zm5.789.156a3.928,3.928,0,0,1-2.926-1.137A4.124,4.124,0,0,1,104,10.992v-.234a5.072,5.072,0,0,1,.488-2.262,3.716,3.716,0,0,1,1.371-1.551,3.625,3.625,0,0,1,1.969-.555,3.318,3.318,0,0,1,2.668,1.1,4.658,4.658,0,0,1,.941,3.117v.766h-5.523a2.539,2.539,0,0,0,.7,1.656,2.1,2.1,0,0,0,1.543.609,2.571,2.571,0,0,0,2.125-1.055l1.023.977a3.418,3.418,0,0,1-1.355,1.176A4.244,4.244,0,0,1,108.047,15.156Zm-.227-7.242a1.6,1.6,0,0,0-1.262.547,2.835,2.835,0,0,0-.613,1.523h3.617V9.844a2.307,2.307,0,0,0-.508-1.441A1.586,1.586,0,0,0,107.82,7.914Zm16.492,2.945a5.078,5.078,0,0,1-.879,3.133,2.863,2.863,0,0,1-2.418,1.164,2.758,2.758,0,0,1-2.312-1.07l-.094.914h-1.719V3h1.9V7.359A2.748,2.748,0,0,1,121,6.391a2.9,2.9,0,0,1,2.43,1.148,5.162,5.162,0,0,1,.883,3.211Zm-1.9-.164a3.589,3.589,0,0,0-.484-2.062,1.613,1.613,0,0,0-1.406-.687,1.763,1.763,0,0,0-1.734,1.078v3.484a1.781,1.781,0,0,0,1.75,1.1,1.6,1.6,0,0,0,1.375-.664,3.477,3.477,0,0,0,.5-2.008Zm8.539,4.3a2.93,2.93,0,0,1-.219-.789,3.193,3.193,0,0,1-4.3.219,2.325,2.325,0,0,1-.8-1.8,2.4,2.4,0,0,1,1-2.074,4.865,4.865,0,0,1,2.871-.723h1.164V9.281A1.481,1.481,0,0,0,130.3,8.23a1.456,1.456,0,0,0-1.117-.395,1.672,1.672,0,0,0-1.062.324,1,1,0,0,0-.414.824h-1.9a2.107,2.107,0,0,1,.461-1.3,3.071,3.071,0,0,1,1.254-.949,4.4,4.4,0,0,1,1.77-.344,3.547,3.547,0,0,1,2.367.746,2.661,2.661,0,0,1,.906,2.1v3.813a4.321,4.321,0,0,0,.32,1.82V15Zm-2.086-1.367a2.16,2.16,0,0,0,1.059-.273,1.827,1.827,0,0,0,.746-.734V11.031h-1.023a2.8,2.8,0,0,0-1.586.367,1.189,1.189,0,0,0-.531,1.039,1.109,1.109,0,0,0,.363.871A1.407,1.407,0,0,0,128.867,13.633Zm10.43-.93a.861.861,0,0,0-.418-.773,4.445,4.445,0,0,0-1.387-.469,7.129,7.129,0,0,1-1.617-.516,2.158,2.158,0,0,1-1.422-1.992,2.25,2.25,0,0,1,.922-1.828,3.644,3.644,0,0,1,2.344-.734,3.792,3.792,0,0,1,2.449.75,2.38,2.38,0,0,1,.934,1.945h-1.9a1.17,1.17,0,0,0-.406-.91,1.557,1.557,0,0,0-1.078-.363,1.682,1.682,0,0,0-1.02.289.911.911,0,0,0-.395.773.769.769,0,0,0,.367.68,5.049,5.049,0,0,0,1.484.488,7.027,7.027,0,0,1,1.754.586,2.484,2.484,0,0,1,.945.816,2.082,2.082,0,0,1,.309,1.156,2.2,2.2,0,0,1-.945,1.848,4.031,4.031,0,0,1-2.477.707,4.371,4.371,0,0,1-1.852-.375,3.047,3.047,0,0,1-1.266-1.031,2.441,2.441,0,0,1-.453-1.414h1.844a1.338,1.338,0,0,0,.508,1.035,1.973,1.973,0,0,0,1.242.363,1.92,1.92,0,0,0,1.141-.285A.883.883,0,0,0,139.3,12.7Zm8.641,1.469a2.944,2.944,0,0,1-2.375.984,2.624,2.624,0,0,1-2.082-.8,3.423,3.423,0,0,1-.707-2.328V6.547h1.9V12q0,1.609,1.336,1.609a1.876,1.876,0,0,0,1.867-.992V6.547h1.9V15h-1.789Zm8.2-5.891a4.7,4.7,0,0,0-.773-.062,1.741,1.741,0,0,0-1.758,1V15h-1.9V6.547h1.813l.047.945a2.139,2.139,0,0,1,1.906-1.1,1.777,1.777,0,0,1,.672.109ZM162.148,15a2.93,2.93,0,0,1-.219-.789,3.193,3.193,0,0,1-4.3.219,2.325,2.325,0,0,1-.8-1.8,2.4,2.4,0,0,1,1-2.074,4.865,4.865,0,0,1,2.871-.723h1.164V9.281A1.481,1.481,0,0,0,161.5,8.23a1.456,1.456,0,0,0-1.117-.395,1.672,1.672,0,0,0-1.062.324,1,1,0,0,0-.414.824h-1.9a2.107,2.107,0,0,1,.461-1.3,3.071,3.071,0,0,1,1.254-.949,4.4,4.4,0,0,1,1.77-.344,3.547,3.547,0,0,1,2.367.746,2.661,2.661,0,0,1,.906,2.1v3.813a4.321,4.321,0,0,0,.32,1.82V15Zm-2.086-1.367a2.16,2.16,0,0,0,1.059-.273,1.827,1.827,0,0,0,.746-.734V11.031h-1.023a2.8,2.8,0,0,0-1.586.367,1.189,1.189,0,0,0-.531,1.039,1.109,1.109,0,0,0,.363.871A1.407,1.407,0,0,0,160.063,13.633Z" transform="translate(423.75 6978.332)" fill="#12263f"/>
    <path id="Trazado_705079" data-name="Trazado 705079" d="M9.875,13.523a3.779,3.779,0,0,1-1.711,1.219,6.98,6.98,0,0,1-2.484.414,4.9,4.9,0,0,1-2.531-.648,4.319,4.319,0,0,1-1.7-1.855A6.491,6.491,0,0,1,.828,9.836V8.945A6.02,6.02,0,0,1,2.063,4.918,4.281,4.281,0,0,1,5.508,3.469a4.529,4.529,0,0,1,3.016.941A4.057,4.057,0,0,1,9.867,7.117H7.93A2.18,2.18,0,0,0,5.547,5.063a2.336,2.336,0,0,0-2.02.956,4.871,4.871,0,0,0-.715,2.806V9.7A4.626,4.626,0,0,0,3.59,12.56a2.564,2.564,0,0,0,2.16,1.019,2.848,2.848,0,0,0,2.156-.687V10.664H5.563v-1.5H9.875Zm5.711,1.633A3.928,3.928,0,0,1,12.66,14.02a4.124,4.124,0,0,1-1.121-3.027v-.234A5.072,5.072,0,0,1,12.027,8.5,3.716,3.716,0,0,1,13.4,6.945a3.625,3.625,0,0,1,1.969-.555,3.318,3.318,0,0,1,2.668,1.1,4.658,4.658,0,0,1,.941,3.117v.766H13.453a2.539,2.539,0,0,0,.7,1.656,2.1,2.1,0,0,0,1.543.609,2.571,2.571,0,0,0,2.125-1.055l1.023.977a3.418,3.418,0,0,1-1.355,1.176A4.244,4.244,0,0,1,15.586,15.156Zm-.227-7.242a1.6,1.6,0,0,0-1.262.547,2.835,2.835,0,0,0-.613,1.523H17.1V9.844A2.307,2.307,0,0,0,16.594,8.4,1.586,1.586,0,0,0,15.359,7.914ZM20.094,10.7a4.984,4.984,0,0,1,.492-2.238,3.6,3.6,0,0,1,1.383-1.531,3.9,3.9,0,0,1,2.047-.535,3.692,3.692,0,0,1,2.777,1.1,4.333,4.333,0,0,1,1.152,2.922l.008.445a5.029,5.029,0,0,1-.48,2.234A3.551,3.551,0,0,1,26.1,14.617a3.925,3.925,0,0,1-2.066.539,3.667,3.667,0,0,1-2.863-1.191,4.563,4.563,0,0,1-1.074-3.176Zm1.9.164a3.406,3.406,0,0,0,.539,2.043,1.752,1.752,0,0,0,1.5.738,1.733,1.733,0,0,0,1.5-.75,3.762,3.762,0,0,0,.535-2.2,3.362,3.362,0,0,0-.551-2.031,1.856,1.856,0,0,0-2.973-.012A3.691,3.691,0,0,0,21.992,10.859Zm9.945-6.367V6.547H33.43V7.953H31.938v4.719a1.039,1.039,0,0,0,.191.7.888.888,0,0,0,.684.215,2.924,2.924,0,0,0,.664-.078v1.469a4.676,4.676,0,0,1-1.25.18q-2.188,0-2.187-2.414V7.953H28.648V6.547h1.391V4.492ZM38.6,15.156a3.928,3.928,0,0,1-2.926-1.137,4.124,4.124,0,0,1-1.121-3.027v-.234A5.072,5.072,0,0,1,35.043,8.5a3.716,3.716,0,0,1,1.371-1.551,3.625,3.625,0,0,1,1.969-.555,3.318,3.318,0,0,1,2.668,1.1,4.658,4.658,0,0,1,.941,3.117v.766H36.469a2.539,2.539,0,0,0,.7,1.656,2.1,2.1,0,0,0,1.543.609,2.571,2.571,0,0,0,2.125-1.055l1.023.977A3.418,3.418,0,0,1,40.5,14.738,4.244,4.244,0,0,1,38.6,15.156Zm-.227-7.242a1.6,1.6,0,0,0-1.262.547A2.835,2.835,0,0,0,36.5,9.984h3.617V9.844A2.307,2.307,0,0,0,39.609,8.4,1.586,1.586,0,0,0,38.375,7.914ZM38.8,3h2.164L38.8,5.367l-1.523,0Zm9.086,5.281a4.7,4.7,0,0,0-.773-.062,1.741,1.741,0,0,0-1.758,1V15h-1.9V6.547h1.813l.047.945a2.139,2.139,0,0,1,1.906-1.1A1.777,1.777,0,0,1,47.9,6.5Zm2.984-1.734.055.883a3.042,3.042,0,0,1,2.438-1.039,2.337,2.337,0,0,1,2.32,1.3,3,3,0,0,1,2.594-1.3,2.636,2.636,0,0,1,2.082.773,3.405,3.405,0,0,1,.7,2.281V15h-1.9V9.5a1.681,1.681,0,0,0-.352-1.18,1.539,1.539,0,0,0-1.164-.375,1.581,1.581,0,0,0-1.059.348,1.833,1.833,0,0,0-.574.91l.008,5.8h-1.9V9.438A1.354,1.354,0,0,0,52.6,7.945a1.671,1.671,0,0,0-1.617.93V15h-1.9V6.547ZM65.031,15h-1.9V6.547h1.9ZM63.016,4.352a1.008,1.008,0,0,1,.277-.727,1.048,1.048,0,0,1,.793-.289,1.061,1.061,0,0,1,.8.289,1,1,0,0,1,.281.727.977.977,0,0,1-.281.715,1.069,1.069,0,0,1-.8.285,1.056,1.056,0,0,1-.793-.285A.984.984,0,0,1,63.016,4.352Zm7.555,9.289a1.716,1.716,0,0,0,1.18-.414,1.415,1.415,0,0,0,.5-1.023h1.789a2.789,2.789,0,0,1-.492,1.473,3.228,3.228,0,0,1-1.25,1.082,3.725,3.725,0,0,1-1.7.4,3.6,3.6,0,0,1-2.812-1.148,4.555,4.555,0,0,1-1.039-3.172v-.2a4.479,4.479,0,0,1,1.031-3.09,3.571,3.571,0,0,1,2.813-1.16,3.473,3.473,0,0,1,2.457.879,3.148,3.148,0,0,1,1,2.309H72.25a1.738,1.738,0,0,0-.5-1.2,1.6,1.6,0,0,0-1.184-.469,1.671,1.671,0,0,0-1.422.668,3.408,3.408,0,0,0-.508,2.027v.3a3.465,3.465,0,0,0,.5,2.051A1.669,1.669,0,0,0,70.57,13.641ZM80.523,15a2.93,2.93,0,0,1-.219-.789,3.193,3.193,0,0,1-4.3.219,2.325,2.325,0,0,1-.8-1.8,2.4,2.4,0,0,1,1-2.074,4.865,4.865,0,0,1,2.871-.723h1.164V9.281a1.481,1.481,0,0,0-.367-1.051,1.456,1.456,0,0,0-1.117-.395A1.672,1.672,0,0,0,77.7,8.16a1,1,0,0,0-.414.824h-1.9a2.107,2.107,0,0,1,.461-1.3A3.071,3.071,0,0,1,77.1,6.734a4.4,4.4,0,0,1,1.77-.344,3.547,3.547,0,0,1,2.367.746,2.661,2.661,0,0,1,.906,2.1v3.813a4.321,4.321,0,0,0,.32,1.82V15Zm-2.086-1.367a2.159,2.159,0,0,0,1.059-.273,1.827,1.827,0,0,0,.746-.734V11.031H79.219a2.8,2.8,0,0,0-1.586.367,1.189,1.189,0,0,0-.531,1.039,1.109,1.109,0,0,0,.363.871A1.407,1.407,0,0,0,78.438,13.633Z" transform="translate(628.254 6978.332)" fill="#12263f"/>
    <path id="Trazado_705080" data-name="Trazado 705080" d="M7.1,12.07a1.374,1.374,0,0,0-.527-1.156,6.345,6.345,0,0,0-1.9-.82,9.186,9.186,0,0,1-2.187-.922A2.919,2.919,0,0,1,.93,6.625,2.772,2.772,0,0,1,2.051,4.359a4.538,4.538,0,0,1,2.91-.891,4.916,4.916,0,0,1,2.117.438A3.475,3.475,0,0,1,8.539,5.152,3.2,3.2,0,0,1,9.07,6.945H7.1a1.782,1.782,0,0,0-.559-1.395,2.305,2.305,0,0,0-1.6-.5,2.408,2.408,0,0,0-1.5.414,1.379,1.379,0,0,0-.535,1.156A1.247,1.247,0,0,0,3.484,7.66a6.66,6.66,0,0,0,1.906.813,8.768,8.768,0,0,1,2.133.9A3.392,3.392,0,0,1,8.7,10.527a3.011,3.011,0,0,1,.375,1.527,2.707,2.707,0,0,1-1.09,2.262,4.727,4.727,0,0,1-2.957.84,5.557,5.557,0,0,1-2.27-.457,3.812,3.812,0,0,1-1.609-1.262,3.144,3.144,0,0,1-.574-1.875H2.555a1.84,1.84,0,0,0,.641,1.5,2.805,2.805,0,0,0,1.836.531,2.437,2.437,0,0,0,1.551-.418A1.349,1.349,0,0,0,7.1,12.07ZM10.273,10.7a4.984,4.984,0,0,1,.492-2.238,3.6,3.6,0,0,1,1.383-1.531A3.9,3.9,0,0,1,14.2,6.391a3.692,3.692,0,0,1,2.777,1.1,4.333,4.333,0,0,1,1.152,2.922l.008.445a5.029,5.029,0,0,1-.48,2.234,3.551,3.551,0,0,1-1.375,1.523,3.925,3.925,0,0,1-2.066.539,3.667,3.667,0,0,1-2.863-1.191,4.563,4.563,0,0,1-1.074-3.176Zm1.9.164a3.406,3.406,0,0,0,.539,2.043,1.752,1.752,0,0,0,1.5.738,1.733,1.733,0,0,0,1.5-.75,3.762,3.762,0,0,0,.535-2.2,3.362,3.362,0,0,0-.551-2.031,1.856,1.856,0,0,0-2.973-.012A3.691,3.691,0,0,0,12.172,10.859ZM21.758,15h-1.9V3h1.9Zm7.117,0a2.93,2.93,0,0,1-.219-.789,3.193,3.193,0,0,1-4.3.219,2.325,2.325,0,0,1-.8-1.8,2.4,2.4,0,0,1,1-2.074,4.865,4.865,0,0,1,2.871-.723h1.164V9.281a1.481,1.481,0,0,0-.367-1.051,1.456,1.456,0,0,0-1.117-.395,1.672,1.672,0,0,0-1.062.324,1,1,0,0,0-.414.824h-1.9a2.107,2.107,0,0,1,.461-1.3,3.071,3.071,0,0,1,1.254-.949,4.4,4.4,0,0,1,1.77-.344,3.547,3.547,0,0,1,2.367.746,2.661,2.661,0,0,1,.906,2.1v3.813a4.321,4.321,0,0,0,.32,1.82V15Zm-2.086-1.367a2.159,2.159,0,0,0,1.059-.273,1.827,1.827,0,0,0,.746-.734V11.031H27.57a2.8,2.8,0,0,0-1.586.367,1.189,1.189,0,0,0-.531,1.039,1.109,1.109,0,0,0,.363.871A1.407,1.407,0,0,0,26.789,13.633ZM36.906,8.281a4.7,4.7,0,0,0-.773-.062,1.741,1.741,0,0,0-1.758,1V15h-1.9V6.547h1.813l.047.945a2.139,2.139,0,0,1,1.906-1.1,1.777,1.777,0,0,1,.672.109Zm7.563-3.789V6.547h1.492V7.953H44.469v4.719a1.039,1.039,0,0,0,.191.7.888.888,0,0,0,.684.215,2.924,2.924,0,0,0,.664-.078v1.469a4.676,4.676,0,0,1-1.25.18q-2.187,0-2.187-2.414V7.953H41.18V6.547H42.57V4.492Zm6.664,10.664a3.928,3.928,0,0,1-2.926-1.137,4.124,4.124,0,0,1-1.121-3.027v-.234A5.072,5.072,0,0,1,47.574,8.5a3.716,3.716,0,0,1,1.371-1.551,3.625,3.625,0,0,1,1.969-.555,3.318,3.318,0,0,1,2.668,1.1,4.658,4.658,0,0,1,.941,3.117v.766H49a2.539,2.539,0,0,0,.7,1.656,2.1,2.1,0,0,0,1.543.609,2.571,2.571,0,0,0,2.125-1.055l1.023.977a3.418,3.418,0,0,1-1.355,1.176A4.244,4.244,0,0,1,51.133,15.156Zm-.227-7.242a1.6,1.6,0,0,0-1.262.547,2.835,2.835,0,0,0-.613,1.523h3.617V9.844A2.307,2.307,0,0,0,52.141,8.4,1.586,1.586,0,0,0,50.906,7.914ZM51.336,3H53.5L51.336,5.367l-1.523,0Zm9.086,5.281a4.7,4.7,0,0,0-.773-.062,1.741,1.741,0,0,0-1.758,1V15h-1.9V6.547H57.8l.047.945a2.139,2.139,0,0,1,1.906-1.1,1.777,1.777,0,0,1,.672.109Zm2.984-1.734.055.883A3.042,3.042,0,0,1,65.9,6.391a2.337,2.337,0,0,1,2.32,1.3,3,3,0,0,1,2.594-1.3,2.636,2.636,0,0,1,2.082.773,3.405,3.405,0,0,1,.7,2.281V15H71.7V9.5a1.681,1.681,0,0,0-.352-1.18,1.539,1.539,0,0,0-1.164-.375,1.581,1.581,0,0,0-1.059.348,1.833,1.833,0,0,0-.574.91l.008,5.8h-1.9V9.438a1.354,1.354,0,0,0-1.523-1.492,1.671,1.671,0,0,0-1.617.93V15h-1.9V6.547ZM77.563,15h-1.9V6.547h1.9ZM75.547,4.352a1.008,1.008,0,0,1,.277-.727,1.048,1.048,0,0,1,.793-.289,1.061,1.061,0,0,1,.8.289,1,1,0,0,1,.281.727.977.977,0,0,1-.281.715,1.069,1.069,0,0,1-.8.285,1.056,1.056,0,0,1-.793-.285A.984.984,0,0,1,75.547,4.352ZM83.1,13.641a1.716,1.716,0,0,0,1.18-.414,1.415,1.415,0,0,0,.5-1.023H86.57a2.789,2.789,0,0,1-.492,1.473,3.228,3.228,0,0,1-1.25,1.082,3.725,3.725,0,0,1-1.7.4,3.6,3.6,0,0,1-2.812-1.148,4.555,4.555,0,0,1-1.039-3.172v-.2A4.479,4.479,0,0,1,80.3,7.551a3.571,3.571,0,0,1,2.813-1.16,3.473,3.473,0,0,1,2.457.879,3.148,3.148,0,0,1,1,2.309H84.781a1.738,1.738,0,0,0-.5-1.2A1.6,1.6,0,0,0,83.1,7.914a1.671,1.671,0,0,0-1.422.668,3.408,3.408,0,0,0-.508,2.027v.3a3.465,3.465,0,0,0,.5,2.051A1.669,1.669,0,0,0,83.1,13.641ZM93.055,15a2.93,2.93,0,0,1-.219-.789,3.193,3.193,0,0,1-4.3.219,2.325,2.325,0,0,1-.8-1.8,2.4,2.4,0,0,1,1-2.074,4.865,4.865,0,0,1,2.871-.723h1.164V9.281a1.481,1.481,0,0,0-.367-1.051,1.456,1.456,0,0,0-1.117-.395,1.672,1.672,0,0,0-1.062.324,1,1,0,0,0-.414.824h-1.9a2.107,2.107,0,0,1,.461-1.3,3.071,3.071,0,0,1,1.254-.949,4.4,4.4,0,0,1,1.77-.344,3.547,3.547,0,0,1,2.367.746,2.661,2.661,0,0,1,.906,2.1v3.813a4.321,4.321,0,0,0,.32,1.82V15Zm-2.086-1.367a2.159,2.159,0,0,0,1.059-.273,1.827,1.827,0,0,0,.746-.734V11.031H91.75a2.8,2.8,0,0,0-1.586.367,1.189,1.189,0,0,0-.531,1.039,1.109,1.109,0,0,0,.363.871A1.407,1.407,0,0,0,90.969,13.633Z" transform="translate(783.254 6978.332)" fill="#12263f"/>
    <path id="Trazado_705081" data-name="Trazado 705081" d="M1.156,15V3.625h3.9A4.76,4.76,0,0,1,7.992,4.4,2.724,2.724,0,0,1,9,6.7a2.456,2.456,0,0,1-.422,1.406,2.715,2.715,0,0,1-1.234.969,2.511,2.511,0,0,1,1.426.941,2.742,2.742,0,0,1,.5,1.66,3.028,3.028,0,0,1-1.027,2.461A4.467,4.467,0,0,1,5.3,15ZM3.133,9.867v3.555h2.2a2.124,2.124,0,0,0,1.453-.461A1.618,1.618,0,0,0,7.3,11.68,1.623,1.623,0,0,0,5.492,9.867Zm0-1.453H5.07A2.241,2.241,0,0,0,6.512,8a1.432,1.432,0,0,0,.52-1.184,1.452,1.452,0,0,0-.48-1.219,2.426,2.426,0,0,0-1.5-.375H3.133ZM13.086,15h-1.9V6.547h1.9ZM11.07,4.352a1.008,1.008,0,0,1,.277-.727,1.048,1.048,0,0,1,.793-.289,1.061,1.061,0,0,1,.8.289,1,1,0,0,1,.281.727.977.977,0,0,1-.281.715,1.069,1.069,0,0,1-.8.285,1.056,1.056,0,0,1-.793-.285A.984.984,0,0,1,11.07,4.352ZM14.8,10.7a4.984,4.984,0,0,1,.492-2.238,3.6,3.6,0,0,1,1.383-1.531,3.9,3.9,0,0,1,2.047-.535,3.692,3.692,0,0,1,2.777,1.1,4.333,4.333,0,0,1,1.152,2.922l.008.445a5.029,5.029,0,0,1-.48,2.234A3.551,3.551,0,0,1,20.8,14.617a3.925,3.925,0,0,1-2.066.539,3.667,3.667,0,0,1-2.863-1.191A4.563,4.563,0,0,1,14.8,10.789Zm1.9.164a3.406,3.406,0,0,0,.539,2.043,1.752,1.752,0,0,0,1.5.738,1.733,1.733,0,0,0,1.5-.75,3.762,3.762,0,0,0,.535-2.2,3.362,3.362,0,0,0-.551-2.031,1.856,1.856,0,0,0-2.973-.012A3.691,3.691,0,0,0,16.7,10.859Zm11.039,2.781a1.716,1.716,0,0,0,1.18-.414,1.415,1.415,0,0,0,.5-1.023H31.2a2.789,2.789,0,0,1-.492,1.473,3.228,3.228,0,0,1-1.25,1.082,3.725,3.725,0,0,1-1.7.4,3.6,3.6,0,0,1-2.812-1.148,4.555,4.555,0,0,1-1.039-3.172v-.2a4.479,4.479,0,0,1,1.031-3.09,3.571,3.571,0,0,1,2.813-1.16,3.473,3.473,0,0,1,2.457.879,3.148,3.148,0,0,1,1,2.309H29.414a1.738,1.738,0,0,0-.5-1.2,1.6,1.6,0,0,0-1.184-.469,1.671,1.671,0,0,0-1.422.668,3.408,3.408,0,0,0-.508,2.027v.3a3.465,3.465,0,0,0,.5,2.051A1.669,1.669,0,0,0,27.734,13.641ZM32.281,10.7a4.984,4.984,0,0,1,.492-2.238,3.6,3.6,0,0,1,1.383-1.531A3.9,3.9,0,0,1,36.2,6.391a3.692,3.692,0,0,1,2.777,1.1,4.333,4.333,0,0,1,1.152,2.922l.008.445a5.029,5.029,0,0,1-.48,2.234,3.551,3.551,0,0,1-1.375,1.523,3.925,3.925,0,0,1-2.066.539,3.667,3.667,0,0,1-2.863-1.191,4.563,4.563,0,0,1-1.074-3.176Zm1.9.164a3.406,3.406,0,0,0,.539,2.043,1.752,1.752,0,0,0,1.5.738,1.733,1.733,0,0,0,1.5-.75,3.762,3.762,0,0,0,.535-2.2A3.362,3.362,0,0,0,37.7,8.664a1.856,1.856,0,0,0-2.973-.012A3.691,3.691,0,0,0,34.18,10.859Zm9.352-4.312.055.883a3.042,3.042,0,0,1,2.438-1.039,2.337,2.337,0,0,1,2.32,1.3,3,3,0,0,1,2.594-1.3,2.636,2.636,0,0,1,2.082.773,3.405,3.405,0,0,1,.7,2.281V15h-1.9V9.5a1.681,1.681,0,0,0-.352-1.18A1.539,1.539,0,0,0,50.3,7.945a1.581,1.581,0,0,0-1.059.348,1.833,1.833,0,0,0-.574.91L48.68,15h-1.9V9.438a1.354,1.354,0,0,0-1.523-1.492,1.671,1.671,0,0,0-1.617.93V15h-1.9V6.547Zm19.555,4.313a5.078,5.078,0,0,1-.879,3.133,2.863,2.863,0,0,1-2.418,1.164,2.758,2.758,0,0,1-2.312-1.07L57.383,15H55.664V3h1.9V7.359a2.748,2.748,0,0,1,2.211-.969A2.9,2.9,0,0,1,62.2,7.539a5.162,5.162,0,0,1,.883,3.211Zm-1.9-.164A3.589,3.589,0,0,0,60.7,8.633,1.613,1.613,0,0,0,59.3,7.945a1.763,1.763,0,0,0-1.734,1.078v3.484a1.781,1.781,0,0,0,1.75,1.1,1.6,1.6,0,0,0,1.375-.664,3.477,3.477,0,0,0,.5-2.008ZM69.8,14.172a2.944,2.944,0,0,1-2.375.984,2.624,2.624,0,0,1-2.082-.8,3.423,3.423,0,0,1-.707-2.328V6.547h1.9V12q0,1.609,1.336,1.609a1.876,1.876,0,0,0,1.867-.992V6.547h1.9V15H69.844ZM78.3,12.7a.861.861,0,0,0-.418-.773,4.445,4.445,0,0,0-1.387-.469,7.129,7.129,0,0,1-1.617-.516,2.158,2.158,0,0,1-1.422-1.992,2.25,2.25,0,0,1,.922-1.828,3.644,3.644,0,0,1,2.344-.734,3.792,3.792,0,0,1,2.449.75,2.38,2.38,0,0,1,.934,1.945h-1.9a1.17,1.17,0,0,0-.406-.91,1.557,1.557,0,0,0-1.078-.363,1.682,1.682,0,0,0-1.02.289.911.911,0,0,0-.395.773.769.769,0,0,0,.367.68,5.049,5.049,0,0,0,1.484.488,7.027,7.027,0,0,1,1.754.586,2.484,2.484,0,0,1,.945.816,2.082,2.082,0,0,1,.309,1.156,2.2,2.2,0,0,1-.945,1.848,4.031,4.031,0,0,1-2.477.707,4.371,4.371,0,0,1-1.852-.375,3.047,3.047,0,0,1-1.266-1.031,2.441,2.441,0,0,1-.453-1.414h1.844a1.338,1.338,0,0,0,.508,1.035,1.973,1.973,0,0,0,1.242.363,1.92,1.92,0,0,0,1.141-.285A.883.883,0,0,0,78.3,12.7Zm5.9-8.211V6.547H85.7V7.953H84.2v4.719a1.039,1.039,0,0,0,.191.7.888.888,0,0,0,.684.215,2.925,2.925,0,0,0,.664-.078v1.469a4.676,4.676,0,0,1-1.25.18q-2.188,0-2.187-2.414V7.953H80.914V6.547H82.3V4.492ZM89.164,15h-1.9V6.547h1.9ZM87.148,4.352a1.008,1.008,0,0,1,.277-.727,1.048,1.048,0,0,1,.793-.289,1.061,1.061,0,0,1,.8.289,1,1,0,0,1,.281.727.977.977,0,0,1-.281.715,1.069,1.069,0,0,1-.8.285,1.056,1.056,0,0,1-.793-.285A.984.984,0,0,1,87.148,4.352Zm11.5,6.508a5.078,5.078,0,0,1-.879,3.133,2.863,2.863,0,0,1-2.418,1.164,2.758,2.758,0,0,1-2.312-1.07L92.945,15H91.227V3h1.9V7.359a2.748,2.748,0,0,1,2.211-.969,2.9,2.9,0,0,1,2.43,1.148,5.162,5.162,0,0,1,.883,3.211Zm-1.9-.164a3.589,3.589,0,0,0-.484-2.062,1.613,1.613,0,0,0-1.406-.687,1.763,1.763,0,0,0-1.734,1.078v3.484a1.781,1.781,0,0,0,1.75,1.1,1.6,1.6,0,0,0,1.375-.664,3.477,3.477,0,0,0,.5-2.008Zm5.508,4.3h-1.9V3h1.9Zm5.789.156a3.928,3.928,0,0,1-2.926-1.137A4.124,4.124,0,0,1,104,10.992v-.234a5.072,5.072,0,0,1,.488-2.262,3.716,3.716,0,0,1,1.371-1.551,3.625,3.625,0,0,1,1.969-.555,3.318,3.318,0,0,1,2.668,1.1,4.658,4.658,0,0,1,.941,3.117v.766h-5.523a2.539,2.539,0,0,0,.7,1.656,2.1,2.1,0,0,0,1.543.609,2.571,2.571,0,0,0,2.125-1.055l1.023.977a3.418,3.418,0,0,1-1.355,1.176A4.244,4.244,0,0,1,108.047,15.156Zm-.227-7.242a1.6,1.6,0,0,0-1.262.547,2.835,2.835,0,0,0-.613,1.523h3.617V9.844a2.307,2.307,0,0,0-.508-1.441A1.586,1.586,0,0,0,107.82,7.914ZM118.914,15h-1.9V3h1.9Zm4.109,0h-1.9V6.547h1.9Zm-.359-11.945h2.164l-2.164,2.367-1.523,0Zm2.164,7.648a5,5,0,0,1,.906-3.148,2.945,2.945,0,0,1,2.453-1.164,2.768,2.768,0,0,1,2.242.992l.109-.836h1.688v11.7h-1.9V14.281a2.834,2.834,0,0,1-2.156.875,2.917,2.917,0,0,1-2.43-1.184A5.23,5.23,0,0,1,124.828,10.7Zm1.9.164a3.528,3.528,0,0,0,.512,2.035,1.631,1.631,0,0,0,1.418.738,1.8,1.8,0,0,0,1.672-.961V8.836a1.8,1.8,0,0,0-1.656-.922,1.659,1.659,0,0,0-1.426.727A3.849,3.849,0,0,0,126.727,10.867Zm12.664,3.3a2.944,2.944,0,0,1-2.375.984,2.624,2.624,0,0,1-2.082-.8,3.423,3.423,0,0,1-.707-2.328V6.547h1.9V12q0,1.609,1.336,1.609a1.876,1.876,0,0,0,1.867-.992V6.547h1.9V15h-1.789ZM145.18,15h-1.9V6.547h1.9ZM143.164,4.352a1.008,1.008,0,0,1,.277-.727,1.048,1.048,0,0,1,.793-.289,1.061,1.061,0,0,1,.8.289,1,1,0,0,1,.281.727.977.977,0,0,1-.281.715,1.069,1.069,0,0,1-.8.285,1.056,1.056,0,0,1-.793-.285A.984.984,0,0,1,143.164,4.352Zm3.727,6.359a5.026,5.026,0,0,1,.906-3.137,2.9,2.9,0,0,1,2.43-1.184,2.759,2.759,0,0,1,2.172.938V3h1.9V15h-1.719l-.094-.875a2.8,2.8,0,0,1-2.273,1.031,2.887,2.887,0,0,1-2.4-1.2A5.21,5.21,0,0,1,146.891,10.711Zm1.9.164a3.519,3.519,0,0,0,.5,2.012,1.61,1.61,0,0,0,1.41.723,1.793,1.793,0,0,0,1.7-1.039V8.961a1.766,1.766,0,0,0-1.687-1.016,1.622,1.622,0,0,0-1.422.73A3.919,3.919,0,0,0,148.789,10.875Zm7.133-.18a4.984,4.984,0,0,1,.492-2.238A3.6,3.6,0,0,1,157.8,6.926a3.9,3.9,0,0,1,2.047-.535,3.692,3.692,0,0,1,2.777,1.1,4.333,4.333,0,0,1,1.152,2.922l.008.445a5.029,5.029,0,0,1-.48,2.234,3.551,3.551,0,0,1-1.375,1.523,3.925,3.925,0,0,1-2.066.539A3.667,3.667,0,0,1,157,13.965a4.563,4.563,0,0,1-1.074-3.176Zm1.9.164a3.406,3.406,0,0,0,.539,2.043,1.752,1.752,0,0,0,1.5.738,1.733,1.733,0,0,0,1.5-.75,3.762,3.762,0,0,0,.535-2.2,3.362,3.362,0,0,0-.551-2.031,1.856,1.856,0,0,0-2.973-.012A3.691,3.691,0,0,0,157.82,10.859Z" transform="translate(920.002 6978.332)" fill="#12263f"/>
    <path id="Trazado_705082" data-name="Trazado 705082" d="M0,0H341V394H0Z" transform="translate(389.746 6534.332)" fill="#0078ad"/>
    <path id="Trazado_705083" data-name="Trazado 705083" d="M0,0H412V197H0Z" transform="translate(730.746 6534.332)" fill="#e6cf31"/>
    <path id="Trazado_705084" data-name="Trazado 705084" d="M0,0H67V144H0Z" transform="translate(1142.746 6534.332)" fill="#23703c"/>
    <path id="Trazado_705085" data-name="Trazado 705085" d="M0,0H67V93H0Z" transform="translate(1142.746 6678.332)" fill="#359fd9"/>
    <path id="Trazado_705086" data-name="Trazado 705086" d="M0,0H67V59H0Z" transform="translate(1142.746 6771.332)" fill="#af9ca2"/>
    <path id="Trazado_705087" data-name="Trazado 705087" d="M0,0H38V56H0Z" transform="translate(1142.746 6830.332)" fill="#73c36e"/>
    <path id="Trazado_705088" data-name="Trazado 705088" d="M0,0H29V56H0Z" transform="translate(1180.746 6830.332)" fill="#75a470"/>
    <path id="Trazado_705089" data-name="Trazado 705089" d="M0,0H29V25H0Z" transform="translate(1180.746 6886.332)" fill="#d89c2c"/>
    <path id="Trazado_705090" data-name="Trazado 705090" d="M0,0H29V17H0Z" transform="translate(1180.746 6911.332)" fill="#c5e3c1"/>
    <path id="Trazado_705091" data-name="Trazado 705091" d="M0,0H38V42H0Z" transform="translate(1142.746 6886.332)" fill="#8d1713"/>
    <path id="Trazado_705092" data-name="Trazado 705092" d="M0,0H412V197H0Z" transform="translate(730.746 6731.332)" fill="#857a7e"/>
    <path id="Trazado_705093" data-name="Trazado 705093" d="M108.009,12.438H109.6v1.714h-1.591V17h-2.136V14.152h-5.528l-.062-1.3L105.8,4.2h2.206Zm-5.484,0h3.349V7.095l-.158.281ZM116.8,17h-2.127V6.719l-3.138,1.07V6l4.992-1.837h.272Zm4.887,2.883-1.151-.686a6.21,6.21,0,0,0,.7-1.393,4.157,4.157,0,0,0,.2-1.208V14.935h1.925l-.009,1.538a4.287,4.287,0,0,1-.47,1.868A4.64,4.64,0,0,1,121.685,19.883ZM133.8,17h-8.6V15.532l4.263-4.649a10.615,10.615,0,0,0,1.314-1.718,2.784,2.784,0,0,0,.391-1.384,2.1,2.1,0,0,0-.514-1.477,1.783,1.783,0,0,0-1.384-.562,2.056,2.056,0,0,0-1.608.633,2.489,2.489,0,0,0-.571,1.731h-2.136a4.186,4.186,0,0,1,.532-2.1,3.662,3.662,0,0,1,1.521-1.455,4.84,4.84,0,0,1,2.281-.519,4.329,4.329,0,0,1,2.94.936A3.249,3.249,0,0,1,133.3,7.552a4.392,4.392,0,0,1-.541,2.008,11.42,11.42,0,0,1-1.771,2.386l-3.129,3.349H133.8Zm6.021-10.336a2.568,2.568,0,0,1,.747-1.9,2.975,2.975,0,0,1,3.933,0,2.633,2.633,0,0,1,.743,1.947v.633a2.551,2.551,0,0,1-.743,1.89,2.653,2.653,0,0,1-1.956.738,2.737,2.737,0,0,1-1.956-.725,2.559,2.559,0,0,1-.769-1.956Zm1.494.673a1.41,1.41,0,0,0,.338.983,1.145,1.145,0,0,0,.892.374,1.121,1.121,0,0,0,.879-.374,1.474,1.474,0,0,0,.334-1.018V6.659a1.426,1.426,0,0,0-.338-.987,1.138,1.138,0,0,0-.892-.379,1.106,1.106,0,0,0-.883.383,1.493,1.493,0,0,0-.33,1.009Zm4.658,6.525a2.516,2.516,0,0,1,.765-1.907,2.98,2.98,0,0,1,3.907,0,2.6,2.6,0,0,1,.76,1.969v.624a2.571,2.571,0,0,1-.734,1.885,2.637,2.637,0,0,1-1.964.743,2.715,2.715,0,0,1-1.982-.734,2.586,2.586,0,0,1-.751-1.938Zm1.494.677a1.4,1.4,0,0,0,.347.98,1.151,1.151,0,0,0,.892.382,1.115,1.115,0,0,0,.883-.365,1.5,1.5,0,0,0,.321-1.024v-.659a1.389,1.389,0,0,0-.343-.984,1.236,1.236,0,0,0-1.762,0,1.452,1.452,0,0,0-.338,1.02Zm-4.482,1.5-1.1-.633,6.249-10,1.1.633ZM54.945,41H52.73V35.322H47.008V41H44.785V28.2h2.224v5.326H52.73V28.2h2.215Zm4.693,0H57.5V31.49h2.136ZM57.371,29.021a1.133,1.133,0,0,1,.312-.817,1.179,1.179,0,0,1,.892-.325,1.193,1.193,0,0,1,.9.325,1.125,1.125,0,0,1,.316.817,1.1,1.1,0,0,1-.316.8,1.2,1.2,0,0,1-.9.321,1.188,1.188,0,0,1-.892-.321A1.107,1.107,0,0,1,57.371,29.021Zm4.192,7.154a5.654,5.654,0,0,1,1.02-3.529,3.267,3.267,0,0,1,2.733-1.332,3.1,3.1,0,0,1,2.443,1.055V27.5H69.9V41H67.961l-.105-.984a3.148,3.148,0,0,1-2.558,1.16,3.248,3.248,0,0,1-2.7-1.345A5.861,5.861,0,0,1,61.563,36.175Zm2.136.185a3.958,3.958,0,0,0,.558,2.263,1.811,1.811,0,0,0,1.586.813,2.017,2.017,0,0,0,1.916-1.169V34.206a1.986,1.986,0,0,0-1.9-1.143,1.824,1.824,0,0,0-1.6.822A4.408,4.408,0,0,0,63.7,36.359Zm13.4-2.918a5.285,5.285,0,0,0-.87-.07A1.959,1.959,0,0,0,74.254,34.5V41H72.119V31.49h2.039l.053,1.063a2.406,2.406,0,0,1,2.145-1.239,2,2,0,0,1,.756.123ZM83.87,41a3.3,3.3,0,0,1-.246-.888,3.593,3.593,0,0,1-4.834.246,2.615,2.615,0,0,1-.905-2.021A2.7,2.7,0,0,1,79.014,36a5.473,5.473,0,0,1,3.23-.813h1.31v-.624a1.666,1.666,0,0,0-.413-1.182,1.638,1.638,0,0,0-1.257-.444,1.881,1.881,0,0,0-1.2.365,1.129,1.129,0,0,0-.466.927H78.086a2.37,2.37,0,0,1,.519-1.463A3.455,3.455,0,0,1,80.016,31.7a4.955,4.955,0,0,1,1.991-.387,3.99,3.99,0,0,1,2.663.839,2.993,2.993,0,0,1,1.02,2.36V38.8a4.861,4.861,0,0,0,.36,2.048V41Zm-2.347-1.538a2.429,2.429,0,0,0,1.191-.308,2.055,2.055,0,0,0,.839-.826V36.535H82.4a3.148,3.148,0,0,0-1.784.413,1.338,1.338,0,0,0-.6,1.169,1.248,1.248,0,0,0,.409.98A1.583,1.583,0,0,0,81.523,39.462ZM82.709,27.5h2.435l-2.435,2.663-1.714,0ZM93.687,40.068a3.312,3.312,0,0,1-2.672,1.107,2.952,2.952,0,0,1-2.342-.905,3.851,3.851,0,0,1-.8-2.619V31.49h2.136v6.135q0,1.811,1.5,1.811a2.111,2.111,0,0,0,2.1-1.116V31.49h2.136V41H93.74ZM100.2,41H98.064V27.5H100.2Zm4.6,0h-2.136V31.49H104.8Zm-2.268-11.979a1.133,1.133,0,0,1,.312-.817,1.179,1.179,0,0,1,.892-.325,1.193,1.193,0,0,1,.9.325,1.125,1.125,0,0,1,.316.817,1.1,1.1,0,0,1-.316.8,1.2,1.2,0,0,1-.9.321,1.188,1.188,0,0,1-.892-.321A1.107,1.107,0,0,1,102.529,29.021Zm8.5,10.45A1.931,1.931,0,0,0,112.355,39a1.591,1.591,0,0,0,.563-1.151h2.013a3.137,3.137,0,0,1-.554,1.657,3.632,3.632,0,0,1-1.406,1.217,4.191,4.191,0,0,1-1.916.448,4.055,4.055,0,0,1-3.164-1.292,5.124,5.124,0,0,1-1.169-3.568V36.1a5.039,5.039,0,0,1,1.16-3.476,4.018,4.018,0,0,1,3.164-1.305,3.907,3.907,0,0,1,2.764.989,3.542,3.542,0,0,1,1.121,2.6h-2.013a1.956,1.956,0,0,0-.558-1.345,1.8,1.8,0,0,0-1.332-.527,1.879,1.879,0,0,0-1.6.751,3.834,3.834,0,0,0-.571,2.281V36.4a3.9,3.9,0,0,0,.558,2.307A1.878,1.878,0,0,0,111.028,39.471ZM122.225,41a3.3,3.3,0,0,1-.246-.888,3.593,3.593,0,0,1-4.834.246,2.615,2.615,0,0,1-.905-2.021A2.7,2.7,0,0,1,117.369,36a5.473,5.473,0,0,1,3.23-.813h1.31v-.624a1.666,1.666,0,0,0-.413-1.182,1.638,1.638,0,0,0-1.257-.444,1.881,1.881,0,0,0-1.2.365,1.129,1.129,0,0,0-.466.927h-2.136a2.37,2.37,0,0,1,.519-1.463,3.455,3.455,0,0,1,1.411-1.068,4.955,4.955,0,0,1,1.991-.387,3.99,3.99,0,0,1,2.663.839,2.993,2.993,0,0,1,1.02,2.36V38.8a4.861,4.861,0,0,0,.36,2.048V41Zm-2.347-1.538a2.429,2.429,0,0,0,1.191-.308,2.055,2.055,0,0,0,.839-.826V36.535h-1.151a3.148,3.148,0,0,0-1.784.413,1.338,1.338,0,0,0-.6,1.169,1.248,1.248,0,0,0,.409.98A1.583,1.583,0,0,0,119.878,39.462Zm15.864-6.021a5.285,5.285,0,0,0-.87-.07A1.959,1.959,0,0,0,132.9,34.5V41h-2.136V31.49H132.8l.053,1.063A2.406,2.406,0,0,1,135,31.314a2,2,0,0,1,.756.123Zm5.37,7.734a4.419,4.419,0,0,1-3.292-1.279,4.639,4.639,0,0,1-1.261-3.406v-.264a5.706,5.706,0,0,1,.549-2.544,4.181,4.181,0,0,1,1.542-1.745,4.078,4.078,0,0,1,2.215-.624,3.733,3.733,0,0,1,3,1.239,5.24,5.24,0,0,1,1.059,3.507v.861h-6.214a2.856,2.856,0,0,0,.787,1.863,2.362,2.362,0,0,0,1.736.686,2.892,2.892,0,0,0,2.391-1.187l1.151,1.1a3.845,3.845,0,0,1-1.525,1.323A4.774,4.774,0,0,1,141.113,41.176Zm-.255-8.147a1.8,1.8,0,0,0-1.419.615,3.189,3.189,0,0,0-.69,1.714h4.069V35.2a2.6,2.6,0,0,0-.571-1.622A1.785,1.785,0,0,0,140.858,33.028Zm7.708-1.538.062,1.1a3.419,3.419,0,0,1,2.769-1.274q2.971,0,3.023,3.4V41h-2.136V34.839a1.958,1.958,0,0,0-.391-1.34,1.645,1.645,0,0,0-1.279-.435,2.058,2.058,0,0,0-1.925,1.169V41h-2.136V31.49Zm7.629,4.667a5.607,5.607,0,0,1,.554-2.518,4.044,4.044,0,0,1,1.556-1.723,4.383,4.383,0,0,1,2.3-.6,4.154,4.154,0,0,1,3.125,1.239,4.874,4.874,0,0,1,1.3,3.287l.009.5a5.658,5.658,0,0,1-.541,2.514,4,4,0,0,1-1.547,1.714,4.415,4.415,0,0,1-2.325.606,4.125,4.125,0,0,1-3.221-1.34,5.133,5.133,0,0,1-1.208-3.573Zm2.136.185a3.832,3.832,0,0,0,.606,2.3,1.971,1.971,0,0,0,1.688.831,1.95,1.95,0,0,0,1.683-.844,4.232,4.232,0,0,0,.6-2.47,3.782,3.782,0,0,0-.62-2.285,2.089,2.089,0,0,0-3.344-.013A4.152,4.152,0,0,0,158.331,36.342Zm11.733,1.951,2.013-6.8h2.206l-3.3,9.51h-1.854l-3.322-9.51h2.215ZM181.165,41a3.3,3.3,0,0,1-.246-.888,3.593,3.593,0,0,1-4.834.246,2.615,2.615,0,0,1-.905-2.021A2.7,2.7,0,0,1,176.309,36a5.473,5.473,0,0,1,3.23-.813h1.31v-.624a1.666,1.666,0,0,0-.413-1.182,1.638,1.638,0,0,0-1.257-.444,1.881,1.881,0,0,0-1.2.365,1.129,1.129,0,0,0-.466.927h-2.136a2.37,2.37,0,0,1,.519-1.463,3.455,3.455,0,0,1,1.411-1.068,4.955,4.955,0,0,1,1.991-.387,3.99,3.99,0,0,1,2.663.839,2.993,2.993,0,0,1,1.02,2.36V38.8a4.861,4.861,0,0,0,.36,2.048V41Zm-2.347-1.538a2.429,2.429,0,0,0,1.191-.308,2.055,2.055,0,0,0,.839-.826V36.535H179.7a3.148,3.148,0,0,0-1.784.413,1.338,1.338,0,0,0-.6,1.169,1.248,1.248,0,0,0,.409.98A1.583,1.583,0,0,0,178.818,39.462Zm14.748-3.12a5.712,5.712,0,0,1-.989,3.524,3.221,3.221,0,0,1-2.72,1.31,3.1,3.1,0,0,1-2.6-1.2L187.15,41h-1.934V27.5h2.136v4.9a3.091,3.091,0,0,1,2.487-1.09,3.258,3.258,0,0,1,2.733,1.292,5.807,5.807,0,0,1,.993,3.612Zm-2.136-.185a4.037,4.037,0,0,0-.545-2.32,1.815,1.815,0,0,0-1.582-.773,1.983,1.983,0,0,0-1.951,1.213V38.2a2,2,0,0,0,1.969,1.239,1.8,1.8,0,0,0,1.547-.747,3.912,3.912,0,0,0,.563-2.259Zm6.2,4.843h-2.136V27.5h2.136Zm6.513.176a4.419,4.419,0,0,1-3.292-1.279,4.639,4.639,0,0,1-1.261-3.406v-.264a5.706,5.706,0,0,1,.549-2.544,4.181,4.181,0,0,1,1.542-1.745,4.078,4.078,0,0,1,2.215-.624,3.733,3.733,0,0,1,3,1.239,5.24,5.24,0,0,1,1.059,3.507v.861H201.74a2.856,2.856,0,0,0,.787,1.863,2.362,2.362,0,0,0,1.736.686,2.892,2.892,0,0,0,2.391-1.187l1.151,1.1a3.845,3.845,0,0,1-1.525,1.323A4.774,4.774,0,0,1,204.139,41.176Zm-.255-8.147a1.8,1.8,0,0,0-1.419.615,3.189,3.189,0,0,0-.69,1.714h4.069V35.2a2.6,2.6,0,0,0-.571-1.622A1.785,1.785,0,0,0,203.884,33.028Z" transform="translate(436.75 6706.332)" fill="#fff"/>
    <path id="Trazado_705094" data-name="Trazado 705094" d="M109.389,17h-8.6V15.532l4.263-4.649a10.615,10.615,0,0,0,1.314-1.718,2.784,2.784,0,0,0,.391-1.384,2.1,2.1,0,0,0-.514-1.477,1.783,1.783,0,0,0-1.384-.562,2.056,2.056,0,0,0-1.608.633,2.489,2.489,0,0,0-.571,1.731h-2.136A4.186,4.186,0,0,1,101.07,6a3.662,3.662,0,0,1,1.521-1.455,4.84,4.84,0,0,1,2.281-.519,4.329,4.329,0,0,1,2.94.936,3.249,3.249,0,0,1,1.077,2.588,4.392,4.392,0,0,1-.541,2.008,11.42,11.42,0,0,1-1.771,2.386l-3.129,3.349h5.941Zm2.2-6.346L112.28,4.2h6.873V6.049h-5.1L113.7,9.107a3.951,3.951,0,0,1,2-.51,3.565,3.565,0,0,1,2.843,1.169,4.632,4.632,0,0,1,1.015,3.146,4.264,4.264,0,0,1-1.125,3.107,4.106,4.106,0,0,1-3.085,1.156,4.3,4.3,0,0,1-2.914-1,3.606,3.606,0,0,1-1.252-2.632h2.065a2.256,2.256,0,0,0,.668,1.428,2.032,2.032,0,0,0,1.424.5,1.836,1.836,0,0,0,1.534-.7,3.035,3.035,0,0,0,.549-1.916,2.682,2.682,0,0,0-.606-1.85,2.121,2.121,0,0,0-1.67-.681,2.333,2.333,0,0,0-1.863.756Zm10.1,9.229-1.151-.686a6.21,6.21,0,0,0,.7-1.393,4.157,4.157,0,0,0,.2-1.208V14.935h1.925l-.009,1.538a4.287,4.287,0,0,1-.47,1.868A4.64,4.64,0,0,1,121.685,19.883ZM127.67,9.626h1.3a2.328,2.328,0,0,0,1.56-.51,1.819,1.819,0,0,0,.576-1.45,1.982,1.982,0,0,0-.479-1.419,1.928,1.928,0,0,0-1.463-.505,2.039,2.039,0,0,0-1.415.5,1.659,1.659,0,0,0-.554,1.3H125.06a3.233,3.233,0,0,1,.523-1.793,3.513,3.513,0,0,1,1.459-1.261,4.753,4.753,0,0,1,2.1-.453,4.4,4.4,0,0,1,3.01.962,3.377,3.377,0,0,1,1.094,2.676,2.719,2.719,0,0,1-.549,1.622,3.445,3.445,0,0,1-1.419,1.147,3.14,3.14,0,0,1,1.6,1.134,3.1,3.1,0,0,1,.549,1.846,3.437,3.437,0,0,1-1.182,2.742,5.19,5.19,0,0,1-6.13.035,3.242,3.242,0,0,1-1.178-2.619h2.136a1.787,1.787,0,0,0,.567,1.371,2.15,2.15,0,0,0,1.525.527,2.217,2.217,0,0,0,1.564-.527,1.978,1.978,0,0,0,.571-1.529,2,2,0,0,0-.6-1.556,2.555,2.555,0,0,0-1.775-.545H127.67Zm12.155-2.962a2.568,2.568,0,0,1,.747-1.9,2.975,2.975,0,0,1,3.933,0,2.633,2.633,0,0,1,.743,1.947v.633a2.551,2.551,0,0,1-.743,1.89,2.653,2.653,0,0,1-1.956.738,2.737,2.737,0,0,1-1.956-.725,2.559,2.559,0,0,1-.769-1.956Zm1.494.673a1.41,1.41,0,0,0,.338.983,1.145,1.145,0,0,0,.892.374,1.121,1.121,0,0,0,.879-.374,1.474,1.474,0,0,0,.334-1.018V6.659a1.426,1.426,0,0,0-.338-.987,1.138,1.138,0,0,0-.892-.379,1.106,1.106,0,0,0-.883.383,1.493,1.493,0,0,0-.33,1.009Zm4.658,6.525a2.516,2.516,0,0,1,.765-1.907,2.98,2.98,0,0,1,3.907,0,2.6,2.6,0,0,1,.76,1.969v.624a2.571,2.571,0,0,1-.734,1.885,2.637,2.637,0,0,1-1.964.743,2.715,2.715,0,0,1-1.982-.734,2.586,2.586,0,0,1-.751-1.938Zm1.494.677a1.4,1.4,0,0,0,.347.98,1.151,1.151,0,0,0,.892.382,1.115,1.115,0,0,0,.883-.365,1.5,1.5,0,0,0,.321-1.024v-.659a1.389,1.389,0,0,0-.343-.984,1.236,1.236,0,0,0-1.762,0,1.452,1.452,0,0,0-.338,1.02Zm-4.482,1.5-1.1-.633,6.249-10,1.1.633ZM63.079,37.7a1.545,1.545,0,0,0-.593-1.3,7.138,7.138,0,0,0-2.14-.923,10.335,10.335,0,0,1-2.461-1.037,3.284,3.284,0,0,1-1.749-2.865A3.118,3.118,0,0,1,57.4,29.029a5.1,5.1,0,0,1,3.274-1,5.53,5.53,0,0,1,2.382.492,3.909,3.909,0,0,1,1.644,1.4,3.6,3.6,0,0,1,.6,2.017H63.079a2.005,2.005,0,0,0-.628-1.569,2.594,2.594,0,0,0-1.8-.567,2.709,2.709,0,0,0-1.692.466,1.551,1.551,0,0,0-.6,1.3,1.4,1.4,0,0,0,.65,1.173,7.493,7.493,0,0,0,2.145.914,9.865,9.865,0,0,1,2.4,1.011,3.816,3.816,0,0,1,1.327,1.3,3.388,3.388,0,0,1,.422,1.718,3.045,3.045,0,0,1-1.226,2.544,5.318,5.318,0,0,1-3.327.945,6.251,6.251,0,0,1-2.553-.514,4.289,4.289,0,0,1-1.811-1.419,3.537,3.537,0,0,1-.646-2.109h2.224a2.07,2.07,0,0,0,.721,1.688,3.156,3.156,0,0,0,2.065.6,2.742,2.742,0,0,0,1.745-.47A1.517,1.517,0,0,0,63.079,37.7Zm3.568-1.547a5.607,5.607,0,0,1,.554-2.518,4.044,4.044,0,0,1,1.556-1.723,4.383,4.383,0,0,1,2.3-.6,4.154,4.154,0,0,1,3.125,1.239,4.874,4.874,0,0,1,1.3,3.287l.009.5a5.658,5.658,0,0,1-.541,2.514A4,4,0,0,1,73.4,40.569a4.415,4.415,0,0,1-2.325.606,4.125,4.125,0,0,1-3.221-1.34,5.133,5.133,0,0,1-1.208-3.573Zm2.136.185a3.832,3.832,0,0,0,.606,2.3,1.971,1.971,0,0,0,1.688.831,1.95,1.95,0,0,0,1.683-.844,4.232,4.232,0,0,0,.6-2.47,3.782,3.782,0,0,0-.62-2.285,2.089,2.089,0,0,0-3.344-.013A4.152,4.152,0,0,0,68.783,36.342ZM79.567,41H77.432V27.5h2.136Zm8.007,0a3.3,3.3,0,0,1-.246-.888,3.593,3.593,0,0,1-4.834.246,2.615,2.615,0,0,1-.905-2.021A2.7,2.7,0,0,1,82.718,36a5.473,5.473,0,0,1,3.23-.813h1.31v-.624a1.666,1.666,0,0,0-.413-1.182,1.638,1.638,0,0,0-1.257-.444,1.881,1.881,0,0,0-1.2.365,1.129,1.129,0,0,0-.466.927H81.791a2.37,2.37,0,0,1,.519-1.463A3.455,3.455,0,0,1,83.72,31.7a4.955,4.955,0,0,1,1.991-.387,3.99,3.99,0,0,1,2.663.839,2.993,2.993,0,0,1,1.02,2.36V38.8a4.861,4.861,0,0,0,.36,2.048V41Zm-2.347-1.538a2.429,2.429,0,0,0,1.191-.308,2.055,2.055,0,0,0,.839-.826V36.535H86.106a3.148,3.148,0,0,0-1.784.413,1.338,1.338,0,0,0-.6,1.169,1.248,1.248,0,0,0,.409.98A1.583,1.583,0,0,0,85.228,39.462Zm11.382-6.021a5.285,5.285,0,0,0-.87-.07A1.959,1.959,0,0,0,93.762,34.5V41H91.626V31.49h2.039l.053,1.063a2.406,2.406,0,0,1,2.145-1.239,2,2,0,0,1,.756.123ZM103.192,41V33.072h-1.45V31.49h1.45v-.87a3.266,3.266,0,0,1,.879-2.443,3.367,3.367,0,0,1,2.461-.861,4.936,4.936,0,0,1,1.2.158l-.053,1.67a4.207,4.207,0,0,0-.817-.07,1.371,1.371,0,0,0-1.529,1.573v.844h1.934v1.582h-1.934V41Zm5.229-4.843a5.607,5.607,0,0,1,.554-2.518,4.044,4.044,0,0,1,1.556-1.723,4.383,4.383,0,0,1,2.3-.6,4.154,4.154,0,0,1,3.125,1.239,4.874,4.874,0,0,1,1.3,3.287l.009.5a5.658,5.658,0,0,1-.541,2.514,4,4,0,0,1-1.547,1.714,4.415,4.415,0,0,1-2.325.606,4.125,4.125,0,0,1-3.221-1.34,5.133,5.133,0,0,1-1.208-3.573Zm2.136.185a3.832,3.832,0,0,0,.606,2.3,1.971,1.971,0,0,0,1.688.831,1.95,1.95,0,0,0,1.683-.844,4.232,4.232,0,0,0,.6-2.47,3.782,3.782,0,0,0-.62-2.285,2.089,2.089,0,0,0-3.344-.013A4.152,4.152,0,0,0,110.558,36.342Zm11.188-7.163V31.49h1.679v1.582h-1.679v5.309a1.169,1.169,0,0,0,.215.787,1,1,0,0,0,.769.242,3.29,3.29,0,0,0,.747-.088v1.652a5.26,5.26,0,0,1-1.406.2q-2.461,0-2.461-2.716V33.072h-1.564V31.49h1.564V29.179Zm2.646,6.979a5.607,5.607,0,0,1,.554-2.518,4.044,4.044,0,0,1,1.556-1.723,4.383,4.383,0,0,1,2.3-.6,4.154,4.154,0,0,1,3.125,1.239,4.874,4.874,0,0,1,1.3,3.287l.009.5a5.658,5.658,0,0,1-.541,2.514,4,4,0,0,1-1.547,1.714,4.415,4.415,0,0,1-2.325.606,4.125,4.125,0,0,1-3.221-1.34,5.133,5.133,0,0,1-1.208-3.573Zm2.136.185a3.832,3.832,0,0,0,.606,2.3,1.971,1.971,0,0,0,1.688.831,1.95,1.95,0,0,0,1.683-.844,4.232,4.232,0,0,0,.6-2.47,3.782,3.782,0,0,0-.62-2.285,2.089,2.089,0,0,0-3.344-.013A4.152,4.152,0,0,0,126.527,36.342Zm11.733,1.951,2.013-6.8h2.206l-3.3,9.51h-1.854l-3.322-9.51h2.215Zm5.019-2.136a5.607,5.607,0,0,1,.554-2.518,4.044,4.044,0,0,1,1.556-1.723,4.383,4.383,0,0,1,2.3-.6,4.154,4.154,0,0,1,3.125,1.239,4.874,4.874,0,0,1,1.3,3.287l.009.5a5.658,5.658,0,0,1-.541,2.514,4,4,0,0,1-1.547,1.714,4.415,4.415,0,0,1-2.325.606,4.125,4.125,0,0,1-3.221-1.34,5.133,5.133,0,0,1-1.208-3.573Zm2.136.185a3.832,3.832,0,0,0,.606,2.3,1.971,1.971,0,0,0,1.688.831,1.95,1.95,0,0,0,1.683-.844,4.232,4.232,0,0,0,.6-2.47,3.782,3.782,0,0,0-.62-2.285,2.089,2.089,0,0,0-3.344-.013A4.152,4.152,0,0,0,145.415,36.342ZM156.2,41h-2.136V27.5H156.2Zm5-11.821V31.49h1.679v1.582H161.2v5.309a1.169,1.169,0,0,0,.215.787,1,1,0,0,0,.769.242,3.29,3.29,0,0,0,.747-.088v1.652a5.26,5.26,0,0,1-1.406.2q-2.461,0-2.461-2.716V33.072H157.5V31.49h1.564V29.179ZM170.191,41a3.3,3.3,0,0,1-.246-.888,3.593,3.593,0,0,1-4.834.246,2.615,2.615,0,0,1-.905-2.021A2.7,2.7,0,0,1,165.335,36a5.473,5.473,0,0,1,3.23-.813h1.31v-.624a1.666,1.666,0,0,0-.413-1.182,1.638,1.638,0,0,0-1.257-.444,1.881,1.881,0,0,0-1.2.365,1.129,1.129,0,0,0-.466.927h-2.136a2.37,2.37,0,0,1,.519-1.463,3.455,3.455,0,0,1,1.411-1.068,4.955,4.955,0,0,1,1.991-.387,3.99,3.99,0,0,1,2.663.839,2.993,2.993,0,0,1,1.02,2.36V38.8a4.861,4.861,0,0,0,.36,2.048V41Zm-2.347-1.538a2.429,2.429,0,0,0,1.191-.308,2.055,2.055,0,0,0,.839-.826V36.535h-1.151a3.148,3.148,0,0,0-1.784.413,1.338,1.338,0,0,0-.6,1.169,1.248,1.248,0,0,0,.409.98A1.583,1.583,0,0,0,167.845,39.462ZM176.52,41h-2.136V31.49h2.136Zm-2.268-11.979a1.133,1.133,0,0,1,.312-.817,1.179,1.179,0,0,1,.892-.325,1.193,1.193,0,0,1,.9.325,1.125,1.125,0,0,1,.316.817,1.1,1.1,0,0,1-.316.8,1.2,1.2,0,0,1-.9.321,1.188,1.188,0,0,1-.892-.321A1.107,1.107,0,0,1,174.252,29.021Zm8.5,10.45A1.931,1.931,0,0,0,184.078,39a1.591,1.591,0,0,0,.563-1.151h2.013a3.137,3.137,0,0,1-.554,1.657,3.632,3.632,0,0,1-1.406,1.217,4.191,4.191,0,0,1-1.916.448,4.055,4.055,0,0,1-3.164-1.292,5.124,5.124,0,0,1-1.169-3.568V36.1a5.039,5.039,0,0,1,1.16-3.476,4.018,4.018,0,0,1,3.164-1.305,3.907,3.907,0,0,1,2.764.989,3.542,3.542,0,0,1,1.121,2.6h-2.013a1.956,1.956,0,0,0-.558-1.345,1.8,1.8,0,0,0-1.332-.527,1.879,1.879,0,0,0-1.6.751,3.834,3.834,0,0,0-.571,2.281V36.4a3.9,3.9,0,0,0,.558,2.307A1.878,1.878,0,0,0,182.751,39.471ZM193.948,41a3.3,3.3,0,0,1-.246-.888,3.593,3.593,0,0,1-4.834.246,2.615,2.615,0,0,1-.905-2.021A2.7,2.7,0,0,1,189.092,36a5.473,5.473,0,0,1,3.23-.813h1.31v-.624a1.666,1.666,0,0,0-.413-1.182,1.638,1.638,0,0,0-1.257-.444,1.881,1.881,0,0,0-1.2.365,1.129,1.129,0,0,0-.466.927h-2.136a2.37,2.37,0,0,1,.519-1.463,3.455,3.455,0,0,1,1.411-1.068,4.955,4.955,0,0,1,1.991-.387,3.99,3.99,0,0,1,2.663.839,2.993,2.993,0,0,1,1.02,2.36V38.8a4.861,4.861,0,0,0,.36,2.048V41ZM191.6,39.462a2.429,2.429,0,0,0,1.191-.308,2.055,2.055,0,0,0,.839-.826V36.535H192.48a3.148,3.148,0,0,0-1.784.413,1.338,1.338,0,0,0-.6,1.169,1.248,1.248,0,0,0,.409.98A1.583,1.583,0,0,0,191.6,39.462Z" transform="translate(815 6606.332)" fill="#12263f"/>
    <path id="Trazado_705095" data-name="Trazado 705095" d="M4.61,9.626h1.3a2.328,2.328,0,0,0,1.56-.51,1.819,1.819,0,0,0,.576-1.45,1.982,1.982,0,0,0-.479-1.419A1.928,1.928,0,0,0,6.1,5.741a2.039,2.039,0,0,0-1.415.5,1.659,1.659,0,0,0-.554,1.3H2a3.233,3.233,0,0,1,.523-1.793A3.513,3.513,0,0,1,3.982,4.48a4.753,4.753,0,0,1,2.1-.453,4.4,4.4,0,0,1,3.01.962,3.377,3.377,0,0,1,1.094,2.676,2.719,2.719,0,0,1-.549,1.622,3.445,3.445,0,0,1-1.419,1.147,3.14,3.14,0,0,1,1.6,1.134,3.1,3.1,0,0,1,.549,1.846,3.437,3.437,0,0,1-1.182,2.742,4.59,4.59,0,0,1-3.107,1.02,4.555,4.555,0,0,1-3.023-.984,3.242,3.242,0,0,1-1.178-2.619H4.013a1.787,1.787,0,0,0,.567,1.371,2.15,2.15,0,0,0,1.525.527,2.217,2.217,0,0,0,1.564-.527,1.978,1.978,0,0,0,.571-1.529,2,2,0,0,0-.6-1.556,2.555,2.555,0,0,0-1.775-.545H4.61Zm8.2,10.257L11.659,19.2a6.21,6.21,0,0,0,.7-1.393,4.157,4.157,0,0,0,.2-1.208V14.935H14.48l-.009,1.538A4.287,4.287,0,0,1,14,18.34,4.64,4.64,0,0,1,12.811,19.883ZM22.109,17H19.982V6.719l-3.138,1.07V6l4.992-1.837h.272ZM26.469,6.664a2.568,2.568,0,0,1,.747-1.9,2.975,2.975,0,0,1,3.933,0,2.633,2.633,0,0,1,.743,1.947v.633a2.551,2.551,0,0,1-.743,1.89,2.653,2.653,0,0,1-1.956.738,2.737,2.737,0,0,1-1.956-.725,2.559,2.559,0,0,1-.769-1.956Zm1.494.673a1.41,1.41,0,0,0,.338.983,1.145,1.145,0,0,0,.892.374,1.121,1.121,0,0,0,.879-.374A1.474,1.474,0,0,0,30.406,7.3V6.659a1.426,1.426,0,0,0-.338-.987,1.138,1.138,0,0,0-.892-.379,1.106,1.106,0,0,0-.883.383,1.493,1.493,0,0,0-.33,1.009Zm4.658,6.525a2.516,2.516,0,0,1,.765-1.907,2.98,2.98,0,0,1,3.907,0,2.6,2.6,0,0,1,.76,1.969v.624a2.571,2.571,0,0,1-.734,1.885,2.637,2.637,0,0,1-1.964.743,2.715,2.715,0,0,1-1.982-.734,2.586,2.586,0,0,1-.751-1.938Zm1.494.677a1.4,1.4,0,0,0,.347.98,1.151,1.151,0,0,0,.892.382,1.115,1.115,0,0,0,.883-.365,1.5,1.5,0,0,0,.321-1.024v-.659a1.389,1.389,0,0,0-.343-.984,1.236,1.236,0,0,0-1.762,0,1.452,1.452,0,0,0-.338,1.02Zm-4.482,1.5-1.1-.633,6.249-10,1.1.633Z" transform="translate(1155 6600.332)" fill="#fff"/>
    <path id="Trazado_705096" data-name="Trazado 705096" d="M10.745,17h-8.6V15.532L6.4,10.883A10.615,10.615,0,0,0,7.717,9.165,2.784,2.784,0,0,0,8.108,7.78,2.1,2.1,0,0,0,7.594,6.3,1.783,1.783,0,0,0,6.21,5.741,2.056,2.056,0,0,0,4.6,6.374,2.489,2.489,0,0,0,4.03,8.105H1.895A4.186,4.186,0,0,1,2.426,6,3.662,3.662,0,0,1,3.947,4.546a4.84,4.84,0,0,1,2.281-.519,4.329,4.329,0,0,1,2.94.936,3.249,3.249,0,0,1,1.077,2.588A4.392,4.392,0,0,1,9.7,9.56a11.42,11.42,0,0,1-1.771,2.386L4.8,15.295h5.941Zm2.065,2.883L11.659,19.2a6.21,6.21,0,0,0,.7-1.393,4.157,4.157,0,0,0,.2-1.208V14.935H14.48l-.009,1.538A4.287,4.287,0,0,1,14,18.34,4.64,4.64,0,0,1,12.811,19.883ZM22.109,17H19.982V6.719l-3.138,1.07V6l4.992-1.837h.272ZM26.469,6.664a2.568,2.568,0,0,1,.747-1.9,2.975,2.975,0,0,1,3.933,0,2.633,2.633,0,0,1,.743,1.947v.633a2.551,2.551,0,0,1-.743,1.89,2.653,2.653,0,0,1-1.956.738,2.737,2.737,0,0,1-1.956-.725,2.559,2.559,0,0,1-.769-1.956Zm1.494.673a1.41,1.41,0,0,0,.338.983,1.145,1.145,0,0,0,.892.374,1.121,1.121,0,0,0,.879-.374A1.474,1.474,0,0,0,30.406,7.3V6.659a1.426,1.426,0,0,0-.338-.987,1.138,1.138,0,0,0-.892-.379,1.106,1.106,0,0,0-.883.383,1.493,1.493,0,0,0-.33,1.009Zm4.658,6.525a2.516,2.516,0,0,1,.765-1.907,2.98,2.98,0,0,1,3.907,0,2.6,2.6,0,0,1,.76,1.969v.624a2.571,2.571,0,0,1-.734,1.885,2.637,2.637,0,0,1-1.964.743,2.715,2.715,0,0,1-1.982-.734,2.586,2.586,0,0,1-.751-1.938Zm1.494.677a1.4,1.4,0,0,0,.347.98,1.151,1.151,0,0,0,.892.382,1.115,1.115,0,0,0,.883-.365,1.5,1.5,0,0,0,.321-1.024v-.659a1.389,1.389,0,0,0-.343-.984,1.236,1.236,0,0,0-1.762,0,1.452,1.452,0,0,0-.338,1.02Zm-4.482,1.5-1.1-.633,6.249-10,1.1.633Z" transform="translate(1155 6710.332)" fill="#12263f"/>
    <path id="Trazado_705097" data-name="Trazado 705097" d="M7.924,17H5.8V6.719L2.659,7.789V6L7.651,4.159h.272Zm4.887,2.883L11.659,19.2a6.21,6.21,0,0,0,.7-1.393,4.157,4.157,0,0,0,.2-1.208V14.935H14.48l-.009,1.538A4.287,4.287,0,0,1,14,18.34,4.64,4.64,0,0,1,12.811,19.883ZM24.931,17h-8.6V15.532l4.263-4.649A10.615,10.615,0,0,0,21.9,9.165a2.784,2.784,0,0,0,.391-1.384A2.1,2.1,0,0,0,21.78,6.3,1.783,1.783,0,0,0,20.4,5.741a2.056,2.056,0,0,0-1.608.633,2.489,2.489,0,0,0-.571,1.731H16.08A4.186,4.186,0,0,1,16.612,6a3.662,3.662,0,0,1,1.521-1.455,4.84,4.84,0,0,1,2.281-.519,4.329,4.329,0,0,1,2.94.936A3.249,3.249,0,0,1,24.43,7.552a4.392,4.392,0,0,1-.541,2.008,11.42,11.42,0,0,1-1.771,2.386l-3.129,3.349h5.941ZM26.469,6.664a2.568,2.568,0,0,1,.747-1.9,2.975,2.975,0,0,1,3.933,0,2.633,2.633,0,0,1,.743,1.947v.633a2.551,2.551,0,0,1-.743,1.89,2.653,2.653,0,0,1-1.956.738,2.737,2.737,0,0,1-1.956-.725,2.559,2.559,0,0,1-.769-1.956Zm1.494.673a1.41,1.41,0,0,0,.338.983,1.145,1.145,0,0,0,.892.374,1.121,1.121,0,0,0,.879-.374A1.474,1.474,0,0,0,30.406,7.3V6.659a1.426,1.426,0,0,0-.338-.987,1.138,1.138,0,0,0-.892-.379,1.106,1.106,0,0,0-.883.383,1.493,1.493,0,0,0-.33,1.009Zm4.658,6.525a2.516,2.516,0,0,1,.765-1.907,2.98,2.98,0,0,1,3.907,0,2.6,2.6,0,0,1,.76,1.969v.624a2.571,2.571,0,0,1-.734,1.885,2.637,2.637,0,0,1-1.964.743,2.715,2.715,0,0,1-1.982-.734,2.586,2.586,0,0,1-.751-1.938Zm1.494.677a1.4,1.4,0,0,0,.347.98,1.151,1.151,0,0,0,.892.382,1.115,1.115,0,0,0,.883-.365,1.5,1.5,0,0,0,.321-1.024v-.659a1.389,1.389,0,0,0-.343-.984,1.236,1.236,0,0,0-1.762,0,1.452,1.452,0,0,0-.338,1.02Zm-4.482,1.5-1.1-.633,6.249-10,1.1.633Z" transform="translate(1155 6784.332)" fill="#12263f"/>
    <path id="Trazado_705098" data-name="Trazado 705098" d="M109.389,17h-8.6V15.532l4.263-4.649a10.615,10.615,0,0,0,1.314-1.718,2.784,2.784,0,0,0,.391-1.384,2.1,2.1,0,0,0-.514-1.477,1.783,1.783,0,0,0-1.384-.562,2.056,2.056,0,0,0-1.608.633,2.489,2.489,0,0,0-.571,1.731h-2.136A4.186,4.186,0,0,1,101.07,6a3.662,3.662,0,0,1,1.521-1.455,4.84,4.84,0,0,1,2.281-.519,4.329,4.329,0,0,1,2.94.936,3.249,3.249,0,0,1,1.077,2.588,4.392,4.392,0,0,1-.541,2.008,11.42,11.42,0,0,1-1.771,2.386l-3.129,3.349h5.941Zm2.2-6.346L112.28,4.2h6.873V6.049h-5.1L113.7,9.107a3.951,3.951,0,0,1,2-.51,3.565,3.565,0,0,1,2.843,1.169,4.632,4.632,0,0,1,1.015,3.146,4.264,4.264,0,0,1-1.125,3.107,4.106,4.106,0,0,1-3.085,1.156,4.3,4.3,0,0,1-2.914-1,3.606,3.606,0,0,1-1.252-2.632h2.065a2.256,2.256,0,0,0,.668,1.428,2.032,2.032,0,0,0,1.424.5,1.836,1.836,0,0,0,1.534-.7,3.035,3.035,0,0,0,.549-1.916,2.682,2.682,0,0,0-.606-1.85,2.121,2.121,0,0,0-1.67-.681,2.333,2.333,0,0,0-1.863.756Zm10.1,9.229-1.151-.686a6.21,6.21,0,0,0,.7-1.393,4.157,4.157,0,0,0,.2-1.208V14.935h1.925l-.009,1.538a4.287,4.287,0,0,1-.47,1.868A4.64,4.64,0,0,1,121.685,19.883Zm11.856-8.271a6.979,6.979,0,0,1-1.033,4.162,3.647,3.647,0,0,1-3.142,1.4,3.7,3.7,0,0,1-3.125-1.367,6.683,6.683,0,0,1-1.077-4.047V9.547a6.874,6.874,0,0,1,1.033-4.14,4.3,4.3,0,0,1,6.284-.035A6.664,6.664,0,0,1,133.541,9.4Zm-2.136-2.391a5.415,5.415,0,0,0-.492-2.641,1.881,1.881,0,0,0-3.1-.044,5,5,0,0,0-.519,2.483v2.9a5.555,5.555,0,0,0,.5,2.672,1.683,1.683,0,0,0,1.573.879,1.653,1.653,0,0,0,1.521-.813,5.226,5.226,0,0,0,.519-2.544Zm8.42-2.558a2.568,2.568,0,0,1,.747-1.9,2.975,2.975,0,0,1,3.933,0,2.633,2.633,0,0,1,.743,1.947v.633a2.551,2.551,0,0,1-.743,1.89,2.653,2.653,0,0,1-1.956.738,2.737,2.737,0,0,1-1.956-.725,2.559,2.559,0,0,1-.769-1.956Zm1.494.673a1.41,1.41,0,0,0,.338.983,1.145,1.145,0,0,0,.892.374,1.121,1.121,0,0,0,.879-.374,1.474,1.474,0,0,0,.334-1.018V6.659a1.426,1.426,0,0,0-.338-.987,1.138,1.138,0,0,0-.892-.379,1.106,1.106,0,0,0-.883.383,1.493,1.493,0,0,0-.33,1.009Zm4.658,6.525a2.516,2.516,0,0,1,.765-1.907,2.98,2.98,0,0,1,3.907,0,2.6,2.6,0,0,1,.76,1.969v.624a2.571,2.571,0,0,1-.734,1.885,2.637,2.637,0,0,1-1.964.743,2.715,2.715,0,0,1-1.982-.734,2.586,2.586,0,0,1-.751-1.938Zm1.494.677a1.4,1.4,0,0,0,.347.98,1.151,1.151,0,0,0,.892.382,1.115,1.115,0,0,0,.883-.365,1.5,1.5,0,0,0,.321-1.024v-.659a1.389,1.389,0,0,0-.343-.984,1.236,1.236,0,0,0-1.762,0,1.452,1.452,0,0,0-.338,1.02Zm-4.482,1.5-1.1-.633,6.249-10,1.1.633Zm-69.2,19.245H68.533v3.938h6.144V41H66.309V28.2h8.306V30H68.533v3.533h5.256Zm1.925.87a5.607,5.607,0,0,1,.554-2.518,4.044,4.044,0,0,1,1.556-1.723,4.383,4.383,0,0,1,2.3-.6,4.154,4.154,0,0,1,3.125,1.239,4.874,4.874,0,0,1,1.3,3.287l.009.5a5.658,5.658,0,0,1-.541,2.514,4,4,0,0,1-1.547,1.714,4.415,4.415,0,0,1-2.325.606,4.125,4.125,0,0,1-3.221-1.34,5.133,5.133,0,0,1-1.208-3.573Zm2.136.185a3.832,3.832,0,0,0,.606,2.3,1.971,1.971,0,0,0,1.688.831,1.95,1.95,0,0,0,1.683-.844,4.232,4.232,0,0,0,.6-2.47,3.782,3.782,0,0,0-.62-2.285,2.089,2.089,0,0,0-3.344-.013A4.152,4.152,0,0,0,77.849,36.342ZM80.714,27.5h2.435l-2.435,2.663-1.714,0ZM88.633,41H86.5V27.5h2.136Zm4.6,0H91.094V31.49H93.23ZM90.962,29.021a1.133,1.133,0,0,1,.312-.817,1.179,1.179,0,0,1,.892-.325,1.193,1.193,0,0,1,.9.325,1.125,1.125,0,0,1,.316.817,1.1,1.1,0,0,1-.316.8,1.2,1.2,0,0,1-.9.321,1.188,1.188,0,0,1-.892-.321A1.107,1.107,0,0,1,90.962,29.021Zm8.5,10.45A1.931,1.931,0,0,0,100.789,39a1.591,1.591,0,0,0,.563-1.151h2.013a3.137,3.137,0,0,1-.554,1.657,3.632,3.632,0,0,1-1.406,1.217,4.191,4.191,0,0,1-1.916.448,4.055,4.055,0,0,1-3.164-1.292,5.124,5.124,0,0,1-1.169-3.568V36.1a5.039,5.039,0,0,1,1.16-3.476,4.018,4.018,0,0,1,3.164-1.305,3.907,3.907,0,0,1,2.764.989,3.542,3.542,0,0,1,1.121,2.6h-2.013a1.956,1.956,0,0,0-.558-1.345,1.8,1.8,0,0,0-1.332-.527,1.879,1.879,0,0,0-1.6.751,3.834,3.834,0,0,0-.571,2.281V36.4a3.9,3.9,0,0,0,.558,2.307A1.878,1.878,0,0,0,99.461,39.471ZM110.659,41a3.3,3.3,0,0,1-.246-.888,3.593,3.593,0,0,1-4.834.246,2.615,2.615,0,0,1-.905-2.021A2.7,2.7,0,0,1,105.8,36a5.473,5.473,0,0,1,3.23-.813h1.31v-.624a1.666,1.666,0,0,0-.413-1.182,1.638,1.638,0,0,0-1.257-.444,1.881,1.881,0,0,0-1.2.365,1.129,1.129,0,0,0-.466.927h-2.136a2.37,2.37,0,0,1,.519-1.463A3.455,3.455,0,0,1,106.8,31.7a4.955,4.955,0,0,1,1.991-.387,3.99,3.99,0,0,1,2.663.839,2.993,2.993,0,0,1,1.02,2.36V38.8a4.861,4.861,0,0,0,.36,2.048V41Zm-2.347-1.538a2.429,2.429,0,0,0,1.191-.308,2.055,2.055,0,0,0,.839-.826V36.535h-1.151a3.148,3.148,0,0,0-1.784.413,1.338,1.338,0,0,0-.6,1.169,1.248,1.248,0,0,0,.409.98A1.583,1.583,0,0,0,108.312,39.462Zm13.562-10.283V31.49h1.679v1.582h-1.679v5.309a1.169,1.169,0,0,0,.215.787,1,1,0,0,0,.769.242,3.29,3.29,0,0,0,.747-.088v1.652a5.26,5.26,0,0,1-1.406.2q-2.461,0-2.461-2.716V33.072h-1.564V31.49h1.564V29.179Zm7.5,12a4.419,4.419,0,0,1-3.292-1.279,4.639,4.639,0,0,1-1.261-3.406v-.264a5.706,5.706,0,0,1,.549-2.544,4.181,4.181,0,0,1,1.542-1.745,4.078,4.078,0,0,1,2.215-.624,3.733,3.733,0,0,1,3,1.239,5.24,5.24,0,0,1,1.059,3.507v.861h-6.214a2.856,2.856,0,0,0,.787,1.863,2.362,2.362,0,0,0,1.736.686,2.892,2.892,0,0,0,2.391-1.187l1.151,1.1a3.845,3.845,0,0,1-1.525,1.323A4.774,4.774,0,0,1,129.371,41.176Zm-.255-8.147a1.8,1.8,0,0,0-1.419.615,3.189,3.189,0,0,0-.69,1.714h4.069V35.2a2.6,2.6,0,0,0-.571-1.622A1.785,1.785,0,0,0,129.116,33.028Zm10.705.413a5.285,5.285,0,0,0-.87-.07,1.959,1.959,0,0,0-1.978,1.125V41h-2.136V31.49h2.039l.053,1.063a2.406,2.406,0,0,1,2.145-1.239,2,2,0,0,1,.756.123Zm6.328,0a5.285,5.285,0,0,0-.87-.07A1.959,1.959,0,0,0,143.3,34.5V41h-2.136V31.49H143.2l.053,1.063a2.406,2.406,0,0,1,2.145-1.239,2,2,0,0,1,.756.123Zm5.37,7.734a4.419,4.419,0,0,1-3.292-1.279,4.639,4.639,0,0,1-1.261-3.406v-.264a5.706,5.706,0,0,1,.549-2.544,4.181,4.181,0,0,1,1.542-1.745,4.078,4.078,0,0,1,2.215-.624,3.733,3.733,0,0,1,3,1.239,5.24,5.24,0,0,1,1.059,3.507v.861H149.12a2.856,2.856,0,0,0,.787,1.863,2.362,2.362,0,0,0,1.736.686,2.892,2.892,0,0,0,2.391-1.187l1.151,1.1a3.845,3.845,0,0,1-1.525,1.323A4.774,4.774,0,0,1,151.519,41.176Zm-.255-8.147a1.8,1.8,0,0,0-1.419.615,3.189,3.189,0,0,0-.69,1.714h4.069V35.2a2.6,2.6,0,0,0-.571-1.622A1.785,1.785,0,0,0,151.264,33.028Zm11.057,5.388a.968.968,0,0,0-.47-.87,5,5,0,0,0-1.56-.527,8.02,8.02,0,0,1-1.819-.58,2.428,2.428,0,0,1-1.6-2.241,2.531,2.531,0,0,1,1.037-2.057,4.1,4.1,0,0,1,2.637-.826,4.266,4.266,0,0,1,2.755.844,2.677,2.677,0,0,1,1.05,2.188h-2.136a1.316,1.316,0,0,0-.457-1.024,1.752,1.752,0,0,0-1.213-.409,1.893,1.893,0,0,0-1.147.325,1.025,1.025,0,0,0-.444.87.866.866,0,0,0,.413.765,5.68,5.68,0,0,0,1.67.549,7.9,7.9,0,0,1,1.973.659,2.794,2.794,0,0,1,1.063.918,2.342,2.342,0,0,1,.347,1.3,2.478,2.478,0,0,1-1.063,2.079,4.535,4.535,0,0,1-2.786.8,4.917,4.917,0,0,1-2.083-.422,3.428,3.428,0,0,1-1.424-1.16,2.746,2.746,0,0,1-.51-1.591h2.074a1.5,1.5,0,0,0,.571,1.165,2.22,2.22,0,0,0,1.4.409,2.16,2.16,0,0,0,1.283-.321A.993.993,0,0,0,162.321,38.416Zm6.636-9.237V31.49h1.679v1.582h-1.679v5.309a1.169,1.169,0,0,0,.215.787,1,1,0,0,0,.769.242,3.29,3.29,0,0,0,.747-.088v1.652a5.26,5.26,0,0,1-1.406.2q-2.461,0-2.461-2.716V33.072h-1.564V31.49h1.564V29.179Zm8.288,4.263a5.285,5.285,0,0,0-.87-.07A1.959,1.959,0,0,0,174.4,34.5V41h-2.136V31.49H174.3l.053,1.063a2.406,2.406,0,0,1,2.145-1.239,2,2,0,0,1,.756.123Zm5.37,7.734a4.419,4.419,0,0,1-3.292-1.279,4.639,4.639,0,0,1-1.261-3.406v-.264a5.706,5.706,0,0,1,.549-2.544,4.181,4.181,0,0,1,1.542-1.745,4.078,4.078,0,0,1,2.215-.624,3.733,3.733,0,0,1,3,1.239,5.24,5.24,0,0,1,1.059,3.507v.861h-6.214A2.856,2.856,0,0,0,181,38.785a2.362,2.362,0,0,0,1.736.686,2.892,2.892,0,0,0,2.391-1.187l1.151,1.1a3.845,3.845,0,0,1-1.525,1.323A4.774,4.774,0,0,1,182.615,41.176Zm-.255-8.147a1.8,1.8,0,0,0-1.419.615,3.189,3.189,0,0,0-.69,1.714h4.069V35.2a2.6,2.6,0,0,0-.571-1.622A1.785,1.785,0,0,0,182.36,33.028Z" transform="translate(809 6804.332)" fill="#fff"/>
    <path id="Trazado_705099" data-name="Trazado 705099" d="M0,0H19V19H0Z" transform="translate(398.246 6948.332)" fill="#20753c"/>
    <path id="Trazado_705100" data-name="Trazado 705100" d="M0,0H19V19H0Z" transform="translate(602.75 6948.332)" fill="#389fd9"/>
    <path id="Trazado_705101" data-name="Trazado 705101" d="M0,0H19V19H0Z" transform="translate(757.75 6948.332)" fill="#ad9ca2"/>
    <path id="Trazado_705102" data-name="Trazado 705102" d="M0,0H19V19H0Z" transform="translate(894.498 6948.332)" fill="#6cc760"/>
    <path id="Trazado_705103" data-name="Trazado 705103" d="M0,0H19V19H0Z" transform="translate(1092.241 6948.332)" fill="#425aa2"/>
    <path id="Trazado_705104" data-name="Trazado 705104" d="M0,0H19V19H0Z" transform="translate(398.246 6978.332)" fill="#73a96f"/>
    <path id="Trazado_705105" data-name="Trazado 705105" d="M0,0H19V19H0Z" transform="translate(602.75 6978.332)" fill="#82170f"/>
    <path id="Trazado_705106" data-name="Trazado 705106" d="M0,0H19V19H0Z" transform="translate(757.75 6978.332)" fill="#dd9737"/>
    <path id="Trazado_705107" data-name="Trazado 705107" d="M0,0H19V19H0Z" transform="translate(894.498 6978.332)" fill="#c3e8bf"/>
  </g>
</svg>
