<svg id="Grupo_877759" data-name="Grupo 877759" xmlns="http://www.w3.org/2000/svg" xmlns:xlink="http://www.w3.org/1999/xlink" width="278.145" height="210.323" viewBox="0 0 278.145 210.323">
  <defs>
    <clipPath id="clip-path">
      <rect id="Rectángulo_47321" data-name="Rectángulo 47321" width="278.145" height="210.323" fill="none"/>
    </clipPath>
  </defs>
  <g id="Grupo_877758" data-name="Grupo 877758" transform="translate(0 0)" clip-path="url(#clip-path)">
    <path id="Trazado_269926" data-name="Trazado 269926" d="M100.213,16.745H70.745a5.212,5.212,0,0,0-5.128,4.3h-14.3a6.292,6.292,0,0,0-6.355-7.363H34.508a5.509,5.509,0,0,0-4.59-2.459H9.045a5.527,5.527,0,0,0,0,11.055h8.372a6.429,6.429,0,0,0,6.055,4.3h4.947a6.92,6.92,0,0,0,0,4.3H10.886a5.525,5.525,0,1,0,0,11.05H53.245a5.526,5.526,0,0,0,5.527-5.527H75.654a7.676,7.676,0,0,0,7.677-7.673,7.756,7.756,0,0,0-.157-1.536h17.039a5.218,5.218,0,1,0,0-10.436" transform="translate(13.216 42.142)" fill="#fff"/>
    <path id="Trazado_269927" data-name="Trazado 269927" d="M123.619,33.892H109.525a6.8,6.8,0,0,0-6.783-6.422H87.8a6.38,6.38,0,0,0-5.532-9.637h-5a4.363,4.363,0,0,0-4.229-5.622H61.786a4.363,4.363,0,0,0-4.229,5.622H44.524a6.424,6.424,0,1,0,0,12.848H61.639a6.708,6.708,0,0,0,0,7.225H56.973a6.826,6.826,0,1,0,0,13.652H81.865a6.8,6.8,0,0,0,5.77-10.441H96.32a5.213,5.213,0,0,0,4.814,3.216h22.485a5.221,5.221,0,0,0,0-10.441" transform="translate(143.124 45.872)" fill="#fff"/>
    <path id="Trazado_269928" data-name="Trazado 269928" d="M176.059,90.71,103.928,18.579a6.061,6.061,0,0,0-8.567,0L23.235,90.71Z" transform="translate(87.287 63.135)" fill="#66a646"/>
    <path id="Trazado_269929" data-name="Trazado 269929" d="M199.579,106.561,107.86,14.842a7.706,7.706,0,0,0-10.893,0L5.248,106.561Z" transform="translate(19.715 47.285)" fill="#3f8a49"/>
    <path id="Trazado_269930" data-name="Trazado 269930" d="M123.1,79.116,65.11,21.122a4.869,4.869,0,0,0-6.888,0L.228,79.116Z" transform="translate(0.857 73.988)" fill="#266b32"/>
    <path id="Trazado_269931" data-name="Trazado 269931" d="M126.272,65.013l-40.68-40.68a3.416,3.416,0,0,0-4.828,0L40.09,65.013Z" transform="translate(150.607 87.662)" fill="#277c33"/>
    <rect id="Rectángulo_47294" data-name="Rectángulo 47294" width="3.406" height="26.899" transform="translate(70.252 126.243)" fill="#bc7637"/>
    <path id="Trazado_269932" data-name="Trazado 269932" d="M39.534,43.242a7.41,7.41,0,0,0-3.044-5.97A6.584,6.584,0,0,0,37.679,33.5a6.653,6.653,0,0,0-6.531-6.645A4.627,4.627,0,0,0,22.281,25.3l-.081-.01a5.266,5.266,0,0,0-5.261,5.261,5.13,5.13,0,0,0,.352,1.841A9.716,9.716,0,0,0,13.8,43.575a6.168,6.168,0,0,0,8.02,9.2,7.393,7.393,0,0,0,13.585-2.916,7.4,7.4,0,0,0,4.129-6.621" transform="translate(46.196 84.552)" fill="#66a646"/>
    <path id="Trazado_269933" data-name="Trazado 269933" d="M35.325,33.729A6.627,6.627,0,0,0,31.182,23.45a17.7,17.7,0,0,1-8.2,8.985A12.069,12.069,0,0,1,12.607,47.995a6.108,6.108,0,0,0,8.048,1.237A7.394,7.394,0,0,0,34.241,46.32a7.374,7.374,0,0,0,1.085-12.591" transform="translate(47.361 88.094)" fill="#277c33"/>
    <rect id="Rectángulo_47295" data-name="Rectángulo 47295" width="2.797" height="22.109" transform="translate(26.704 131.033)" fill="#bc7637"/>
    <path id="Trazado_269934" data-name="Trazado 269934" d="M25.967,41.275a6.068,6.068,0,0,0-2.5-4.9,5.455,5.455,0,0,0-4.39-8.567,3.8,3.8,0,0,0-7.287-1.275l-.067-.01A4.324,4.324,0,0,0,7.4,30.844a4.241,4.241,0,0,0,.29,1.517,7.945,7.945,0,0,0-2.868,9.185,5.069,5.069,0,0,0,6.588,7.568,6.076,6.076,0,0,0,11.164-2.4,6.076,6.076,0,0,0,3.4-5.442" transform="translate(13.457 91.032)" fill="#66a646"/>
    <path id="Trazado_269935" data-name="Trazado 269935" d="M22.511,33.456a5.444,5.444,0,0,0-3.406-8.448,14.59,14.59,0,0,1-6.74,7.387,9.824,9.824,0,0,1,.438,2.911,9.921,9.921,0,0,1-8.966,9.875A5.02,5.02,0,0,0,10.453,46.2a6.077,6.077,0,0,0,11.164-2.393,6.062,6.062,0,0,0,.894-10.351" transform="translate(14.411 93.947)" fill="#277c33"/>
    <rect id="Rectángulo_47296" data-name="Rectángulo 47296" width="3.406" height="26.899" transform="translate(46.754 126.243)" fill="#bc7637"/>
    <path id="Trazado_269936" data-name="Trazado 269936" d="M34.594,43.242a7.41,7.41,0,0,0-3.044-5.97A6.584,6.584,0,0,0,32.739,33.5a6.653,6.653,0,0,0-6.531-6.645A4.627,4.627,0,0,0,17.341,25.3l-.081-.01A5.266,5.266,0,0,0,12,30.551a5.131,5.131,0,0,0,.352,1.841A9.716,9.716,0,0,0,8.86,43.575a6.168,6.168,0,0,0,8.02,9.2,7.393,7.393,0,0,0,13.585-2.916,7.4,7.4,0,0,0,4.129-6.621" transform="translate(27.638 84.552)" fill="#66a646"/>
    <path id="Trazado_269937" data-name="Trazado 269937" d="M30.385,33.729A6.627,6.627,0,0,0,26.242,23.45a17.7,17.7,0,0,1-8.2,8.985A12.069,12.069,0,0,1,7.667,47.995a6.108,6.108,0,0,0,8.048,1.237A7.394,7.394,0,0,0,29.3,46.32a7.374,7.374,0,0,0,1.085-12.591" transform="translate(28.803 88.094)" fill="#277c33"/>
    <rect id="Rectángulo_47297" data-name="Rectángulo 47297" width="3.824" height="30.215" transform="translate(241.48 122.928)" fill="#bc7637"/>
    <path id="Trazado_269938" data-name="Trazado 269938" d="M78.579,44.606a8.3,8.3,0,0,0-3.42-6.7,7.453,7.453,0,0,0-6-11.711A5.2,5.2,0,0,0,59.2,24.451l-.09-.01a5.872,5.872,0,0,0-5.518,7.977A10.931,10.931,0,0,0,49.031,41.3a10.819,10.819,0,0,0,.647,3.672,6.883,6.883,0,0,0-1.689,4.5,6.933,6.933,0,0,0,10.693,5.846,8.307,8.307,0,0,0,15.26-3.273,8.318,8.318,0,0,0,4.638-7.44" transform="translate(180.281 80.062)" fill="#66a646"/>
    <path id="Trazado_269939" data-name="Trazado 269939" d="M73.856,33.92A7.444,7.444,0,0,0,69.2,22.371a19.9,19.9,0,0,1-9.209,10.1A13.553,13.553,0,0,1,48.336,49.946a6.873,6.873,0,0,0,9.043,1.389,8.3,8.3,0,0,0,15.255-3.273A8.28,8.28,0,0,0,73.856,33.92" transform="translate(181.585 84.041)" fill="#3f8a49"/>
    <rect id="Rectángulo_47298" data-name="Rectángulo 47298" width="2.797" height="22.109" transform="translate(265.425 131.033)" fill="#bc7637"/>
    <path id="Trazado_269940" data-name="Trazado 269940" d="M76.153,41.275a6.068,6.068,0,0,0-2.5-4.9,5.455,5.455,0,0,0-4.39-8.567,3.8,3.8,0,0,0-7.287-1.275l-.067-.01a4.3,4.3,0,0,0-4.038,5.841A7.95,7.95,0,0,0,55,41.546a5.069,5.069,0,0,0,6.588,7.568,6.076,6.076,0,0,0,11.164-2.4,6.076,6.076,0,0,0,3.4-5.442" transform="translate(201.992 91.032)" fill="#66a646"/>
    <path id="Trazado_269941" data-name="Trazado 269941" d="M72.7,33.456a5.444,5.444,0,0,0-3.406-8.448,14.59,14.59,0,0,1-6.74,7.387,9.918,9.918,0,0,1-8.529,12.786A5.02,5.02,0,0,0,60.639,46.2,6.077,6.077,0,0,0,71.8,43.807,6.062,6.062,0,0,0,72.7,33.456" transform="translate(202.946 93.947)" fill="#3f8a49"/>
    <path id="Trazado_269942" data-name="Trazado 269942" d="M0,32.375V78.953c87.919-30.448,132.2,38.3,277.474-1.95V32.023Z" transform="translate(0 120.301)" fill="#7f4c2f"/>
    <path id="Trazado_269943" data-name="Trazado 269943" d="M277.474,49.556V32.023H0V52.406s16.42-2.859,20.754-2.859c5.351,0,16.059,2.754,21.41,2.754,5.936,0,17.809-2.754,23.746-2.754,6.617,0,19.85,2.754,26.466,2.754,6.812,0,20.435-2.754,27.247-2.754,7.2,0,21.605,2.754,28.8,2.754,7.4,0,22.19-2.754,29.587-2.754,7.007,0,21.015,2.754,28.022,2.754,7.107,0,21.31-2.754,28.412-2.754,5.061,0,15.183,2.754,20.24,2.754,4.695,0,22.789-2.745,22.789-2.745" transform="translate(0 120.301)" fill="#66a646"/>
    <path id="Trazado_269944" data-name="Trazado 269944" d="M23.312,79.232H37.573c-1.46-17.871-3.411-40.756-3.558-54.864C33.891,12.224,34.2,4.2,34.2,4.2H26.713s.319,7.3.186,20.164c-.133,13.267-2.122,36.608-3.587,54.864" transform="translate(87.577 15.792)" fill="#cacccb"/>
    <path id="Trazado_269945" data-name="Trazado 269945" d="M24.16,79.232H32.1c-.89-17.871-2.069-40.756-2.212-54.864-.119-12.144.024-20.164.024-20.164H25.739s.209,7.3.19,20.164C25.91,37.634,24.9,60.975,24.16,79.232" transform="translate(90.762 15.792)" fill="#bfbfbf"/>
    <path id="Trazado_269946" data-name="Trazado 269946" d="M24.782,79.232h3.23c-.457-17.871-1.061-40.756-1.194-54.864-.114-12.144-.1-20.164-.1-20.164h-1.7s.124,7.3.186,20.164c.062,13.267-.224,36.608-.423,54.864" transform="translate(93.099 15.792)" fill="#a0a0a0"/>
    <rect id="Rectángulo_47299" data-name="Rectángulo 47299" width="8.348" height="1.684" transform="translate(113.843 19.812)" fill="#828282"/>
    <rect id="Rectángulo_47300" data-name="Rectángulo 47300" width="7.406" height="1.684" transform="translate(114.314 36.07)" fill="#828282"/>
    <rect id="Rectángulo_47301" data-name="Rectángulo 47301" width="9.29" height="1.684" transform="translate(113.372 57.651)" fill="#828282"/>
    <path id="Trazado_269947" data-name="Trazado 269947" d="M30.55,82.61H44.811c-1.46-17.871-3.411-40.76-3.558-54.864-.124-12.144.186-20.164.186-20.164H33.951s.319,7.3.186,20.164C34,41.012,32.015,64.354,30.55,82.61" transform="translate(114.768 28.483)" fill="#cacccb"/>
    <path id="Trazado_269948" data-name="Trazado 269948" d="M31.4,82.61h7.944c-.885-17.871-2.069-40.76-2.207-54.864-.124-12.144.019-20.164.019-20.164H32.977s.209,7.3.19,20.164C33.148,41.012,32.135,64.354,31.4,82.61" transform="translate(117.954 28.483)" fill="#bfbfbf"/>
    <path id="Trazado_269949" data-name="Trazado 269949" d="M32.02,82.61h3.23c-.457-17.871-1.061-40.76-1.194-54.864-.114-12.144-.1-20.164-.1-20.164h-1.7s.124,7.3.186,20.164c.067,13.267-.219,36.608-.423,54.864" transform="translate(120.29 28.483)" fill="#a0a0a0"/>
    <rect id="Rectángulo_47302" data-name="Rectángulo 47302" width="8.348" height="1.684" transform="translate(148.272 35.88)" fill="#828282"/>
    <rect id="Rectángulo_47303" data-name="Rectángulo 47303" width="7.406" height="1.684" transform="translate(148.743 52.138)" fill="#828282"/>
    <rect id="Rectángulo_47304" data-name="Rectángulo 47304" width="9.29" height="1.684" transform="translate(147.801 73.72)" fill="#828282"/>
    <path id="Trazado_269950" data-name="Trazado 269950" d="M26.954,82.61H41.215c-1.46-17.871-3.411-40.76-3.558-54.864-.124-12.144.186-20.164.186-20.164H30.355s.319,7.3.186,20.164c-.133,13.267-2.122,36.608-3.587,54.864" transform="translate(101.259 28.483)" fill="#cacccb"/>
    <path id="Trazado_269951" data-name="Trazado 269951" d="M27.8,82.61h7.944c-.885-17.871-2.069-40.76-2.207-54.864-.124-12.144.019-20.164.019-20.164H29.381s.209,7.3.19,20.164C29.552,41.012,28.539,64.354,27.8,82.61" transform="translate(104.444 28.483)" fill="#bfbfbf"/>
    <path id="Trazado_269952" data-name="Trazado 269952" d="M28.425,82.61h3.23c-.457-17.871-1.061-40.76-1.194-54.864-.114-12.144-.1-20.164-.1-20.164h-1.7s.124,7.3.186,20.164c.067,13.267-.219,36.608-.423,54.864" transform="translate(106.785 28.483)" fill="#a0a0a0"/>
    <rect id="Rectángulo_47305" data-name="Rectángulo 47305" width="8.348" height="1.684" transform="translate(131.171 35.88)" fill="#828282"/>
    <rect id="Rectángulo_47306" data-name="Rectángulo 47306" width="7.406" height="1.684" transform="translate(131.642 52.138)" fill="#828282"/>
    <rect id="Rectángulo_47307" data-name="Rectángulo 47307" width="9.29" height="1.684" transform="translate(130.701 73.72)" fill="#828282"/>
    <rect id="Rectángulo_47308" data-name="Rectángulo 47308" width="60.291" height="58.184" transform="translate(107.069 94.459)" fill="#a0a0a0"/>
    <rect id="Rectángulo_47309" data-name="Rectángulo 47309" width="4.614" height="14.665" transform="translate(112.868 101.356)" fill="#ffd527"/>
    <rect id="Rectángulo_47310" data-name="Rectángulo 47310" width="4.614" height="14.665" transform="translate(121.763 101.356)" fill="#ffd527"/>
    <rect id="Rectángulo_47311" data-name="Rectángulo 47311" width="4.614" height="14.665" transform="translate(130.662 101.356)" fill="#ffd527"/>
    <path id="Trazado_269953" data-name="Trazado 269953" d="M96.779,28.075,85.353,20.811v7.24l-11.392-7.24v7.24l-11.392-7.24v7.24l-11.388-7.24v7.264H48.565V46.731h-23.7V74.462h81.687V28.075Z" transform="translate(93.399 78.181)" fill="#cacccb"/>
    <rect id="Rectángulo_47312" data-name="Rectángulo 47312" width="4.348" height="8.7" transform="translate(123.261 137.422)" fill="#ffd527"/>
    <rect id="Rectángulo_47313" data-name="Rectángulo 47313" width="4.348" height="8.7" transform="translate(131.795 137.422)" fill="#ffd527"/>
    <rect id="Rectángulo_47314" data-name="Rectángulo 47314" width="4.352" height="8.7" transform="translate(140.323 137.422)" fill="#ffd527"/>
    <rect id="Rectángulo_47315" data-name="Rectángulo 47315" width="4.348" height="8.7" transform="translate(148.857 137.422)" fill="#ffd527"/>
    <rect id="Rectángulo_47316" data-name="Rectángulo 47316" width="4.348" height="8.7" transform="translate(157.39 137.422)" fill="#ffd527"/>
    <rect id="Rectángulo_47317" data-name="Rectángulo 47317" width="4.348" height="8.7" transform="translate(165.924 137.422)" fill="#ffd527"/>
    <rect id="Rectángulo_47318" data-name="Rectángulo 47318" width="4.348" height="8.7" transform="translate(174.458 137.422)" fill="#ffd527"/>
    <rect id="Rectángulo_47319" data-name="Rectángulo 47319" width="4.348" height="8.7" transform="translate(182.986 137.422)" fill="#ffd527"/>
    <rect id="Rectángulo_47320" data-name="Rectángulo 47320" width="4.348" height="8.7" transform="translate(191.52 137.422)" fill="#ffd527"/>
    <path id="Trazado_269954" data-name="Trazado 269954" d="M59.718,35.178A12.018,12.018,0,1,1,47.7,23.158a12.021,12.021,0,0,1,12.02,12.02" transform="translate(134.047 86.997)" fill="#fff"/>
    <path id="Trazado_269955" data-name="Trazado 269955" d="M39.207,27.291h-.09a1.955,1.955,0,0,1-1.032-.3v4.1h1.489v-3.81c-.124,0-.243.014-.366.014" transform="translate(143.071 101.382)" fill="#bc7637"/>
    <path id="Trazado_269956" data-name="Trazado 269956" d="M49.44,30.816a3.785,3.785,0,0,0,.29-1.456,3.841,3.841,0,0,0-3.011-3.729,2.932,2.932,0,0,0-5.18-.728,3.218,3.218,0,0,0-2.7,3.173,3.134,3.134,0,0,0,.038.466,5.163,5.163,0,0,0-1.5,5.056,3.584,3.584,0,0,0-.566,1.922,3.615,3.615,0,0,0,4.814,3.411A4.143,4.143,0,0,0,48.636,37.1a4.127,4.127,0,0,0,.8-6.288m-1.613,5.7a3.234,3.234,0,0,1-5.941,1.275,2.671,2.671,0,0,1-1.456.433,2.706,2.706,0,0,1-2.707-2.711,2.667,2.667,0,0,1,.656-1.746,4.236,4.236,0,0,1,1.527-4.89,2.275,2.275,0,0,1,2.145-3.106l.033,0a2.026,2.026,0,0,1,3.881.675A2.9,2.9,0,0,1,48.3,31.011a3.226,3.226,0,0,1-.476,5.508" transform="translate(138.289 88.838)" fill="#66a646"/>
    <path id="Trazado_269957" data-name="Trazado 269957" d="M42.15,29.5H17.5l.01.114v4.015H42.15c.785,0,1.422-.928,1.422-2.064S42.935,29.5,42.15,29.5" transform="translate(65.746 110.83)" fill="#935638"/>
    <path id="Trazado_269958" data-name="Trazado 269958" d="M17.5,30.236v.637h24.64a1.249,1.249,0,0,0,1.013-.637Z" transform="translate(65.754 113.587)" fill="#7a4026"/>
    <path id="Trazado_269959" data-name="Trazado 269959" d="M20.6,31.581a1.925,1.925,0,0,1-1.712,2.083,1.925,1.925,0,0,1-1.712-2.083A1.925,1.925,0,0,1,18.892,29.5,1.925,1.925,0,0,1,20.6,31.581" transform="translate(64.541 110.815)" fill="#b16430"/>
    <path id="Trazado_269960" data-name="Trazado 269960" d="M18.742,33.4a1.767,1.767,0,0,1-1.522-1.931,1.772,1.772,0,0,1,1.522-1.936,1.772,1.772,0,0,1,1.522,1.936A1.767,1.767,0,0,1,18.742,33.4" transform="translate(64.691 110.931)" fill="#f9a56b"/>
    <path id="Trazado_269961" data-name="Trazado 269961" d="M18.652,29.554l-.024,0A1.6,1.6,0,0,1,19.97,31.3,1.6,1.6,0,0,1,18.6,33.05a1.584,1.584,0,0,1-1.36-1.712v.033a1.654,1.654,0,0,0,1.408,1.817,1.654,1.654,0,0,0,1.408-1.817,1.654,1.654,0,0,0-1.408-1.817" transform="translate(64.781 111.025)" fill="#b16430"/>
    <path id="Trazado_269962" data-name="Trazado 269962" d="M18.393,32.451h.01a1.405,1.405,0,0,1,.024-2.716,1.233,1.233,0,0,1,1.061,1.332v-.029a1.285,1.285,0,0,0-1.094-1.413,1.459,1.459,0,0,0,0,2.825" transform="translate(64.988 111.296)" fill="#b16430"/>
    <path id="Trazado_269963" data-name="Trazado 269963" d="M18.176,29.72h-.014a1.029,1.029,0,0,1-.014,1.993.907.907,0,0,1-.775-.975v.019a.945.945,0,0,0,.8,1.037,1.071,1.071,0,0,0,0-2.074" transform="translate(65.262 111.649)" fill="#b16430"/>
    <path id="Trazado_269964" data-name="Trazado 269964" d="M17.96,30.906a.512.512,0,0,1,0-.994.4.4,0,0,1,.347.285.46.46,0,0,0-.414-.381.582.582,0,0,0,0,1.132.35.35,0,0,0,.214-.081.309.309,0,0,1-.147.038" transform="translate(65.54 112.013)" fill="#b16430"/>
    <path id="Trazado_269965" data-name="Trazado 269965" d="M43.075,29.5H18.426l.01.114v4.015h24.64c.785,0,1.422-.928,1.422-2.064S43.86,29.5,43.075,29.5" transform="translate(69.221 110.83)" fill="#935638"/>
    <path id="Trazado_269966" data-name="Trazado 269966" d="M18.428,30.236v.637h24.64a1.249,1.249,0,0,0,1.013-.637Z" transform="translate(69.229 113.587)" fill="#7a4026"/>
    <path id="Trazado_269967" data-name="Trazado 269967" d="M21.53,31.581a1.925,1.925,0,0,1-1.712,2.083A1.925,1.925,0,0,1,18.1,31.581,1.925,1.925,0,0,1,19.817,29.5a1.925,1.925,0,0,1,1.712,2.083" transform="translate(68.015 110.815)" fill="#b16430"/>
    <path id="Trazado_269968" data-name="Trazado 269968" d="M19.667,33.4a1.767,1.767,0,0,1-1.522-1.931,1.772,1.772,0,0,1,1.522-1.936,1.772,1.772,0,0,1,1.522,1.936A1.767,1.767,0,0,1,19.667,33.4" transform="translate(68.166 110.931)" fill="#f9a56b"/>
    <path id="Trazado_269969" data-name="Trazado 269969" d="M19.577,29.554l-.024,0A1.6,1.6,0,0,1,20.895,31.3a1.6,1.6,0,0,1-1.365,1.746,1.584,1.584,0,0,1-1.36-1.712v.033a1.654,1.654,0,0,0,1.408,1.817,1.654,1.654,0,0,0,1.408-1.817,1.654,1.654,0,0,0-1.408-1.817" transform="translate(68.256 111.025)" fill="#b16430"/>
    <path id="Trazado_269970" data-name="Trazado 269970" d="M19.317,32.451h.019a1.4,1.4,0,0,1,.019-2.716,1.233,1.233,0,0,1,1.056,1.332v-.029a1.285,1.285,0,0,0-1.094-1.413,1.459,1.459,0,0,0,0,2.825" transform="translate(68.459 111.296)" fill="#b16430"/>
    <path id="Trazado_269971" data-name="Trazado 269971" d="M19.1,29.72h-.01a1.03,1.03,0,0,1-.019,1.993.907.907,0,0,1-.775-.975v.019a.945.945,0,0,0,.8,1.037,1.071,1.071,0,0,0,0-2.074" transform="translate(68.737 111.649)" fill="#b16430"/>
    <path id="Trazado_269972" data-name="Trazado 269972" d="M18.885,30.906a.512.512,0,0,1,0-.994.4.4,0,0,1,.347.285.464.464,0,0,0-.414-.381.582.582,0,0,0,0,1.132.35.35,0,0,0,.214-.081.309.309,0,0,1-.147.038" transform="translate(69.015 112.013)" fill="#b16430"/>
    <path id="Trazado_269973" data-name="Trazado 269973" d="M41.659,30.369H17.01l.01.114V34.5h24.64c.785,0,1.422-.928,1.422-2.064s-.637-2.064-1.422-2.064" transform="translate(63.902 114.087)" fill="#935638"/>
    <path id="Trazado_269974" data-name="Trazado 269974" d="M17.012,31.1v.637h24.64a1.249,1.249,0,0,0,1.013-.637Z" transform="translate(63.909 116.844)" fill="#7a4026"/>
    <path id="Trazado_269975" data-name="Trazado 269975" d="M20.114,32.449A1.925,1.925,0,0,1,18.4,34.533a1.925,1.925,0,0,1-1.712-2.083A1.925,1.925,0,0,1,18.4,30.366a1.925,1.925,0,0,1,1.712,2.083" transform="translate(62.696 114.076)" fill="#b16430"/>
    <path id="Trazado_269976" data-name="Trazado 269976" d="M18.251,34.264a1.767,1.767,0,0,1-1.522-1.931A1.772,1.772,0,0,1,18.251,30.4a1.772,1.772,0,0,1,1.522,1.936,1.767,1.767,0,0,1-1.522,1.931" transform="translate(62.846 114.192)" fill="#f9a56b"/>
    <path id="Trazado_269977" data-name="Trazado 269977" d="M18.161,30.422l-.024,0a1.6,1.6,0,0,1,1.341,1.746,1.6,1.6,0,0,1-1.365,1.75,1.589,1.589,0,0,1-1.36-1.717v.033a1.654,1.654,0,0,0,1.408,1.817,1.654,1.654,0,0,0,1.408-1.817,1.654,1.654,0,0,0-1.408-1.817" transform="translate(62.936 114.286)" fill="#b16430"/>
    <path id="Trazado_269978" data-name="Trazado 269978" d="M17.9,33.318l.019,0A1.4,1.4,0,0,1,17.94,30.6,1.238,1.238,0,0,1,19,31.934v-.029A1.285,1.285,0,0,0,17.9,30.493a1.459,1.459,0,0,0,0,2.825" transform="translate(63.143 114.553)" fill="#b16430"/>
    <path id="Trazado_269979" data-name="Trazado 269979" d="M17.685,30.587h-.014a1.03,1.03,0,0,1-.01,1.993.909.909,0,0,1-.78-.98v.024a.94.94,0,0,0,.8,1.032,1.068,1.068,0,0,0,0-2.069" transform="translate(63.417 114.906)" fill="#b16430"/>
    <path id="Trazado_269980" data-name="Trazado 269980" d="M17.469,31.774a.512.512,0,0,1,0-.994.391.391,0,0,1,.347.285.46.46,0,0,0-.414-.381.582.582,0,0,0,0,1.132.35.35,0,0,0,.214-.081.309.309,0,0,1-.147.038" transform="translate(63.695 115.274)" fill="#b16430"/>
    <path id="Trazado_269981" data-name="Trazado 269981" d="M42.584,30.369H17.935l.01.114V34.5h24.64c.785,0,1.422-.928,1.422-2.064s-.637-2.064-1.422-2.064" transform="translate(67.377 114.087)" fill="#935638"/>
    <path id="Trazado_269982" data-name="Trazado 269982" d="M17.937,31.1v.637h24.64A1.249,1.249,0,0,0,43.59,31.1Z" transform="translate(67.384 116.844)" fill="#7a4026"/>
    <path id="Trazado_269983" data-name="Trazado 269983" d="M21.039,32.449a1.925,1.925,0,0,1-1.712,2.083,1.925,1.925,0,0,1-1.712-2.083,1.925,1.925,0,0,1,1.712-2.083,1.925,1.925,0,0,1,1.712,2.083" transform="translate(66.171 114.076)" fill="#b16430"/>
    <path id="Trazado_269984" data-name="Trazado 269984" d="M19.176,34.264a1.767,1.767,0,0,1-1.522-1.931A1.772,1.772,0,0,1,19.176,30.4,1.772,1.772,0,0,1,20.7,32.333a1.767,1.767,0,0,1-1.522,1.931" transform="translate(66.321 114.192)" fill="#f9a56b"/>
    <path id="Trazado_269985" data-name="Trazado 269985" d="M19.086,30.422l-.024,0A1.6,1.6,0,0,1,20.4,32.172a1.6,1.6,0,0,1-1.365,1.75,1.589,1.589,0,0,1-1.36-1.717v.033a1.654,1.654,0,0,0,1.408,1.817,1.654,1.654,0,0,0,1.408-1.817,1.654,1.654,0,0,0-1.408-1.817" transform="translate(66.411 114.286)" fill="#b16430"/>
    <path id="Trazado_269986" data-name="Trazado 269986" d="M18.826,33.318l.019,0a1.4,1.4,0,0,1,.014-2.716,1.238,1.238,0,0,1,1.061,1.337v-.029a1.285,1.285,0,0,0-1.094-1.413,1.459,1.459,0,0,0,0,2.825" transform="translate(66.614 114.553)" fill="#b16430"/>
    <path id="Trazado_269987" data-name="Trazado 269987" d="M18.61,30.587H18.6a1.03,1.03,0,0,1-.01,1.993.909.909,0,0,1-.78-.98v.024a.94.94,0,0,0,.8,1.032,1.068,1.068,0,0,0,0-2.069" transform="translate(66.892 114.906)" fill="#b16430"/>
    <path id="Trazado_269988" data-name="Trazado 269988" d="M18.394,31.774a.512.512,0,0,1,0-.994.391.391,0,0,1,.347.285.464.464,0,0,0-.414-.381.582.582,0,0,0,0,1.132.35.35,0,0,0,.214-.081.309.309,0,0,1-.147.038" transform="translate(67.17 115.274)" fill="#b16430"/>
    <path id="Trazado_269989" data-name="Trazado 269989" d="M42.584,28.634H17.935l.01.114v4.015h24.64c.785,0,1.422-.928,1.422-2.064s-.637-2.064-1.422-2.064" transform="translate(67.377 107.569)" fill="#935638"/>
    <path id="Trazado_269990" data-name="Trazado 269990" d="M17.937,29.368v.637h24.64a1.249,1.249,0,0,0,1.013-.637Z" transform="translate(67.384 110.326)" fill="#7a4026"/>
    <path id="Trazado_269991" data-name="Trazado 269991" d="M21.039,30.713A1.925,1.925,0,0,1,19.326,32.8a1.925,1.925,0,0,1-1.712-2.083,1.925,1.925,0,0,1,1.712-2.083,1.925,1.925,0,0,1,1.712,2.083" transform="translate(66.171 107.554)" fill="#b16430"/>
    <path id="Trazado_269992" data-name="Trazado 269992" d="M19.176,32.529A1.767,1.767,0,0,1,17.654,30.6a1.772,1.772,0,0,1,1.522-1.936A1.772,1.772,0,0,1,20.7,30.6a1.767,1.767,0,0,1-1.522,1.931" transform="translate(66.321 107.674)" fill="#f9a56b"/>
    <path id="Trazado_269993" data-name="Trazado 269993" d="M19.086,28.686l-.024,0A1.6,1.6,0,0,1,20.4,30.436a1.6,1.6,0,0,1-1.365,1.75,1.589,1.589,0,0,1-1.36-1.717V30.5a1.654,1.654,0,0,0,1.408,1.817A1.654,1.654,0,0,0,20.494,30.5a1.654,1.654,0,0,0-1.408-1.817" transform="translate(66.411 107.764)" fill="#b16430"/>
    <path id="Trazado_269994" data-name="Trazado 269994" d="M18.826,31.583l.019,0a1.4,1.4,0,0,1,.014-2.716A1.238,1.238,0,0,1,19.92,30.2v-.029a1.285,1.285,0,0,0-1.094-1.413,1.459,1.459,0,0,0,0,2.825" transform="translate(66.614 108.035)" fill="#b16430"/>
    <path id="Trazado_269995" data-name="Trazado 269995" d="M18.61,28.852H18.6a1.03,1.03,0,0,1-.01,1.993.907.907,0,0,1-.78-.975v.019a.945.945,0,0,0,.8,1.037,1.071,1.071,0,0,0,0-2.074" transform="translate(66.892 108.388)" fill="#b16430"/>
    <path id="Trazado_269996" data-name="Trazado 269996" d="M18.394,30.038a.512.512,0,0,1,0-.994.391.391,0,0,1,.347.285.464.464,0,0,0-.414-.381.582.582,0,0,0,0,1.132A.35.35,0,0,0,18.541,30a.309.309,0,0,1-.147.038" transform="translate(67.17 108.752)" fill="#b16430"/>
    <path id="Trazado_269997" data-name="Trazado 269997" d="M43.509,30.369H18.86l.01.114V34.5h24.64c.785,0,1.422-.928,1.422-2.064s-.637-2.064-1.422-2.064" transform="translate(70.852 114.087)" fill="#935638"/>
    <path id="Trazado_269998" data-name="Trazado 269998" d="M18.862,31.1v.637H43.5a1.249,1.249,0,0,0,1.013-.637Z" transform="translate(70.859 116.844)" fill="#7a4026"/>
    <path id="Trazado_269999" data-name="Trazado 269999" d="M21.963,32.449a1.925,1.925,0,0,1-1.712,2.083,1.925,1.925,0,0,1-1.712-2.083,1.925,1.925,0,0,1,1.712-2.083,1.925,1.925,0,0,1,1.712,2.083" transform="translate(69.642 114.076)" fill="#b16430"/>
    <path id="Trazado_270000" data-name="Trazado 270000" d="M20.1,34.264a1.767,1.767,0,0,1-1.522-1.931A1.772,1.772,0,0,1,20.1,30.4a1.772,1.772,0,0,1,1.522,1.936A1.767,1.767,0,0,1,20.1,34.264" transform="translate(69.796 114.192)" fill="#f9a56b"/>
    <path id="Trazado_270001" data-name="Trazado 270001" d="M20.011,30.422l-.024,0a1.6,1.6,0,0,1,1.341,1.746,1.6,1.6,0,0,1-1.365,1.75,1.589,1.589,0,0,1-1.36-1.717v.033a1.654,1.654,0,0,0,1.408,1.817,1.654,1.654,0,0,0,1.408-1.817,1.654,1.654,0,0,0-1.408-1.817" transform="translate(69.886 114.286)" fill="#b16430"/>
    <path id="Trazado_270002" data-name="Trazado 270002" d="M19.751,33.318l.019,0a1.4,1.4,0,0,1,.014-2.716,1.238,1.238,0,0,1,1.061,1.337v-.029a1.285,1.285,0,0,0-1.094-1.413,1.459,1.459,0,0,0,0,2.825" transform="translate(70.089 114.553)" fill="#b16430"/>
    <path id="Trazado_270003" data-name="Trazado 270003" d="M19.534,30.587H19.52a1.029,1.029,0,0,1-.014,1.993.909.909,0,0,1-.775-.98v.024a.94.94,0,0,0,.8,1.032,1.068,1.068,0,0,0,0-2.069" transform="translate(70.363 114.906)" fill="#b16430"/>
    <path id="Trazado_270004" data-name="Trazado 270004" d="M19.319,31.774a.512.512,0,0,1,0-.994.4.4,0,0,1,.347.285.464.464,0,0,0-.414-.381.582.582,0,0,0,0,1.132.35.35,0,0,0,.214-.081.309.309,0,0,1-.147.038" transform="translate(70.645 115.274)" fill="#b16430"/>
    <path id="Trazado_270005" data-name="Trazado 270005" d="M41.182,31.234H16.533l.01.114v4.015h24.64c.785,0,1.422-.928,1.422-2.064s-.637-2.064-1.422-2.064" transform="translate(62.11 117.337)" fill="#935638"/>
    <path id="Trazado_270006" data-name="Trazado 270006" d="M16.535,31.967V32.6h24.64a1.249,1.249,0,0,0,1.013-.637Z" transform="translate(62.117 120.09)" fill="#7a4026"/>
    <path id="Trazado_270007" data-name="Trazado 270007" d="M19.637,33.313A1.925,1.925,0,0,1,17.924,35.4a1.925,1.925,0,0,1-1.712-2.083,1.925,1.925,0,0,1,1.712-2.083,1.925,1.925,0,0,1,1.712,2.083" transform="translate(60.904 117.322)" fill="#b16430"/>
    <path id="Trazado_270008" data-name="Trazado 270008" d="M17.774,35.128A1.767,1.767,0,0,1,16.252,33.2a1.772,1.772,0,0,1,1.522-1.936A1.772,1.772,0,0,1,19.3,33.2a1.767,1.767,0,0,1-1.522,1.931" transform="translate(61.054 117.438)" fill="#f9a56b"/>
    <path id="Trazado_270009" data-name="Trazado 270009" d="M17.684,31.286l-.024,0A1.6,1.6,0,0,1,19,33.036a1.6,1.6,0,0,1-1.365,1.746,1.584,1.584,0,0,1-1.36-1.712V33.1a1.654,1.654,0,0,0,1.408,1.817A1.654,1.654,0,0,0,19.092,33.1a1.654,1.654,0,0,0-1.408-1.817" transform="translate(61.144 117.532)" fill="#b16430"/>
    <path id="Trazado_270010" data-name="Trazado 270010" d="M17.425,34.183l.019,0a1.4,1.4,0,0,1,.014-2.716A1.238,1.238,0,0,1,18.519,32.8v-.029a1.285,1.285,0,0,0-1.094-1.413,1.459,1.459,0,0,0,0,2.825" transform="translate(61.351 117.802)" fill="#b16430"/>
    <path id="Trazado_270011" data-name="Trazado 270011" d="M17.208,31.452h-.014a1.03,1.03,0,0,1-.01,1.993.907.907,0,0,1-.78-.975v.019a.945.945,0,0,0,.8,1.037,1.071,1.071,0,0,0,0-2.074" transform="translate(61.625 118.156)" fill="#b16430"/>
    <path id="Trazado_270012" data-name="Trazado 270012" d="M16.992,32.638a.512.512,0,0,1,0-.994.4.4,0,0,1,.347.281.46.46,0,0,0-.414-.376.582.582,0,0,0,0,1.132.35.35,0,0,0,.214-.081.309.309,0,0,1-.147.038" transform="translate(61.903 118.52)" fill="#b16430"/>
    <path id="Trazado_270013" data-name="Trazado 270013" d="M42.107,31.234H17.458l.01.114v4.015h24.64c.785,0,1.422-.928,1.422-2.064s-.637-2.064-1.422-2.064" transform="translate(65.585 117.337)" fill="#935638"/>
    <path id="Trazado_270014" data-name="Trazado 270014" d="M17.46,31.967V32.6H42.1a1.249,1.249,0,0,0,1.013-.637Z" transform="translate(65.592 120.09)" fill="#7a4026"/>
    <path id="Trazado_270015" data-name="Trazado 270015" d="M20.562,33.313A1.925,1.925,0,0,1,18.849,35.4a1.925,1.925,0,0,1-1.712-2.083,1.925,1.925,0,0,1,1.712-2.083,1.925,1.925,0,0,1,1.712,2.083" transform="translate(64.379 117.322)" fill="#b16430"/>
    <path id="Trazado_270016" data-name="Trazado 270016" d="M18.7,35.128A1.767,1.767,0,0,1,17.177,33.2,1.772,1.772,0,0,1,18.7,31.261,1.772,1.772,0,0,1,20.221,33.2,1.767,1.767,0,0,1,18.7,35.128" transform="translate(64.529 117.438)" fill="#f9a56b"/>
    <path id="Trazado_270017" data-name="Trazado 270017" d="M18.609,31.286l-.024,0a1.6,1.6,0,0,1,1.341,1.746,1.6,1.6,0,0,1-1.365,1.746A1.584,1.584,0,0,1,17.2,33.07V33.1a1.654,1.654,0,0,0,1.408,1.817A1.654,1.654,0,0,0,20.017,33.1a1.654,1.654,0,0,0-1.408-1.817" transform="translate(64.619 117.532)" fill="#b16430"/>
    <path id="Trazado_270018" data-name="Trazado 270018" d="M18.349,34.183l.019,0a1.4,1.4,0,0,1,.019-2.716A1.238,1.238,0,0,1,19.443,32.8v-.029a1.285,1.285,0,0,0-1.094-1.413,1.459,1.459,0,0,0,0,2.825" transform="translate(64.822 117.802)" fill="#b16430"/>
    <path id="Trazado_270019" data-name="Trazado 270019" d="M18.133,31.452h-.014a1.029,1.029,0,0,1-.014,1.993.907.907,0,0,1-.775-.975v.019a.945.945,0,0,0,.8,1.037,1.071,1.071,0,0,0,0-2.074" transform="translate(65.1 118.156)" fill="#b16430"/>
    <path id="Trazado_270020" data-name="Trazado 270020" d="M17.917,32.638a.512.512,0,0,1,0-.994.4.4,0,0,1,.347.281.46.46,0,0,0-.414-.376.582.582,0,0,0,0,1.132.35.35,0,0,0,.214-.081.309.309,0,0,1-.147.038" transform="translate(65.378 118.52)" fill="#b16430"/>
    <path id="Trazado_270021" data-name="Trazado 270021" d="M43.032,31.234H18.383l.01.114v4.015h24.64c.785,0,1.422-.928,1.422-2.064s-.637-2.064-1.422-2.064" transform="translate(69.06 117.337)" fill="#935638"/>
    <path id="Trazado_270022" data-name="Trazado 270022" d="M18.385,31.967V32.6h24.64a1.249,1.249,0,0,0,1.013-.637Z" transform="translate(69.067 120.09)" fill="#7a4026"/>
    <path id="Trazado_270023" data-name="Trazado 270023" d="M21.486,33.313A1.925,1.925,0,0,1,19.773,35.4a1.925,1.925,0,0,1-1.712-2.083,1.925,1.925,0,0,1,1.712-2.083,1.925,1.925,0,0,1,1.712,2.083" transform="translate(67.85 117.322)" fill="#b16430"/>
    <path id="Trazado_270024" data-name="Trazado 270024" d="M19.623,35.128A1.767,1.767,0,0,1,18.1,33.2a1.772,1.772,0,0,1,1.522-1.936A1.768,1.768,0,0,1,21.145,33.2a1.763,1.763,0,0,1-1.522,1.931" transform="translate(68 117.438)" fill="#f9a56b"/>
    <path id="Trazado_270025" data-name="Trazado 270025" d="M19.533,31.286l-.024,0a1.6,1.6,0,0,1,1.341,1.746,1.591,1.591,0,0,1-1.365,1.746,1.584,1.584,0,0,1-1.36-1.712V33.1a1.654,1.654,0,0,0,1.408,1.817A1.654,1.654,0,0,0,20.941,33.1a1.654,1.654,0,0,0-1.408-1.817" transform="translate(68.091 117.532)" fill="#b16430"/>
    <path id="Trazado_270026" data-name="Trazado 270026" d="M19.274,34.183l.014,0a1.4,1.4,0,0,1,.024-2.716A1.238,1.238,0,0,1,20.368,32.8v-.029a1.285,1.285,0,0,0-1.094-1.413,1.459,1.459,0,0,0,0,2.825" transform="translate(68.297 117.802)" fill="#b16430"/>
    <path id="Trazado_270027" data-name="Trazado 270027" d="M19.057,31.452h-.014a1.03,1.03,0,0,1-.01,1.993.9.9,0,0,1-.775-.975l0,.019a.945.945,0,0,0,.8,1.037,1.071,1.071,0,0,0,0-2.074" transform="translate(68.571 118.156)" fill="#b16430"/>
    <path id="Trazado_270028" data-name="Trazado 270028" d="M18.842,32.638a.512.512,0,0,1,0-.994.392.392,0,0,1,.347.281.464.464,0,0,0-.414-.376.582.582,0,0,0,0,1.132.35.35,0,0,0,.214-.081.309.309,0,0,1-.147.038" transform="translate(68.853 118.52)" fill="#b16430"/>
    <path id="Trazado_270029" data-name="Trazado 270029" d="M43.957,31.234H19.308l.01.114v4.015h24.64c.785,0,1.422-.928,1.422-2.064s-.637-2.064-1.422-2.064" transform="translate(72.535 117.337)" fill="#935638"/>
    <path id="Trazado_270030" data-name="Trazado 270030" d="M19.31,31.967V32.6H43.95a1.249,1.249,0,0,0,1.013-.637Z" transform="translate(72.542 120.09)" fill="#7a4026"/>
    <path id="Trazado_270031" data-name="Trazado 270031" d="M22.411,33.313A1.925,1.925,0,0,1,20.7,35.4a1.925,1.925,0,0,1-1.712-2.083A1.925,1.925,0,0,1,20.7,31.23a1.925,1.925,0,0,1,1.712,2.083" transform="translate(71.325 117.322)" fill="#b16430"/>
    <path id="Trazado_270032" data-name="Trazado 270032" d="M20.548,35.128A1.767,1.767,0,0,1,19.026,33.2a1.772,1.772,0,0,1,1.522-1.936A1.772,1.772,0,0,1,22.07,33.2a1.767,1.767,0,0,1-1.522,1.931" transform="translate(71.475 117.438)" fill="#f9a56b"/>
    <path id="Trazado_270033" data-name="Trazado 270033" d="M20.458,31.286l-.024,0a1.6,1.6,0,0,1,1.341,1.746,1.6,1.6,0,0,1-1.365,1.746,1.584,1.584,0,0,1-1.36-1.712V33.1a1.654,1.654,0,0,0,1.408,1.817A1.654,1.654,0,0,0,21.866,33.1a1.654,1.654,0,0,0-1.408-1.817" transform="translate(71.566 117.532)" fill="#b16430"/>
    <path id="Trazado_270034" data-name="Trazado 270034" d="M20.2,34.183l.019,0a1.4,1.4,0,0,1,.014-2.716A1.238,1.238,0,0,1,21.293,32.8v-.029A1.285,1.285,0,0,0,20.2,31.358a1.459,1.459,0,0,0,0,2.825" transform="translate(71.772 117.802)" fill="#b16430"/>
    <path id="Trazado_270035" data-name="Trazado 270035" d="M19.982,31.452h-.01a1.03,1.03,0,0,1-.019,1.993.907.907,0,0,1-.775-.975v.019a.945.945,0,0,0,.8,1.037,1.071,1.071,0,0,0,0-2.074" transform="translate(72.046 118.156)" fill="#b16430"/>
    <path id="Trazado_270036" data-name="Trazado 270036" d="M19.767,32.638a.512.512,0,0,1,0-.994.392.392,0,0,1,.347.281.46.46,0,0,0-.414-.376.582.582,0,0,0,0,1.132.35.35,0,0,0,.214-.081.309.309,0,0,1-.147.038" transform="translate(72.328 118.52)" fill="#b16430"/>
    <path id="Trazado_270037" data-name="Trazado 270037" d="M51.786,29.5H27.137l.01.114v4.015h24.64c.785,0,1.422-.928,1.422-2.064S52.571,29.5,51.786,29.5" transform="translate(101.946 110.83)" fill="#935638"/>
    <path id="Trazado_270038" data-name="Trazado 270038" d="M27.139,30.236v.637h24.64a1.249,1.249,0,0,0,1.013-.637Z" transform="translate(101.954 113.587)" fill="#7a4026"/>
    <path id="Trazado_270039" data-name="Trazado 270039" d="M30.24,31.581a1.925,1.925,0,0,1-1.712,2.083,1.925,1.925,0,0,1-1.712-2.083A1.925,1.925,0,0,1,28.527,29.5a1.925,1.925,0,0,1,1.712,2.083" transform="translate(100.737 110.815)" fill="#b16430"/>
    <path id="Trazado_270040" data-name="Trazado 270040" d="M28.377,33.4a1.767,1.767,0,0,1-1.522-1.931,1.772,1.772,0,0,1,1.522-1.936A1.772,1.772,0,0,1,29.9,31.465,1.767,1.767,0,0,1,28.377,33.4" transform="translate(100.887 110.931)" fill="#f9a56b"/>
    <path id="Trazado_270041" data-name="Trazado 270041" d="M28.287,29.554l-.024,0A1.6,1.6,0,0,1,29.6,31.3a1.6,1.6,0,0,1-1.365,1.746,1.584,1.584,0,0,1-1.36-1.712v.033a1.654,1.654,0,0,0,1.408,1.817,1.654,1.654,0,0,0,1.408-1.817,1.654,1.654,0,0,0-1.408-1.817" transform="translate(100.977 111.025)" fill="#b16430"/>
    <path id="Trazado_270042" data-name="Trazado 270042" d="M28.028,32.451h.019a1.4,1.4,0,0,1,.019-2.716,1.229,1.229,0,0,1,1.056,1.332v-.029a1.285,1.285,0,0,0-1.094-1.413,1.459,1.459,0,0,0,0,2.825" transform="translate(101.184 111.296)" fill="#b16430"/>
    <path id="Trazado_270043" data-name="Trazado 270043" d="M27.811,29.72H27.8a1.03,1.03,0,0,1-.01,1.993.9.9,0,0,1-.775-.975l0,.019a.83.83,0,1,0,.8-1.037" transform="translate(101.458 111.649)" fill="#b16430"/>
    <path id="Trazado_270044" data-name="Trazado 270044" d="M27.6,30.906a.512.512,0,0,1,0-.994.4.4,0,0,1,.347.285.465.465,0,0,0-.419-.381.582.582,0,0,0,0,1.132.34.34,0,0,0,.214-.081.277.277,0,0,1-.143.038" transform="translate(101.736 112.013)" fill="#b16430"/>
    <path id="Trazado_270045" data-name="Trazado 270045" d="M52.71,29.5H28.061l.01.114v4.015H52.71c.785,0,1.422-.928,1.422-2.064S53.5,29.5,52.71,29.5" transform="translate(105.417 110.83)" fill="#935638"/>
    <path id="Trazado_270046" data-name="Trazado 270046" d="M28.063,30.236v.637H52.7a1.249,1.249,0,0,0,1.013-.637Z" transform="translate(105.425 113.587)" fill="#7a4026"/>
    <path id="Trazado_270047" data-name="Trazado 270047" d="M31.165,31.581a1.925,1.925,0,0,1-1.712,2.083,1.925,1.925,0,0,1-1.712-2.083A1.925,1.925,0,0,1,29.452,29.5a1.925,1.925,0,0,1,1.712,2.083" transform="translate(104.212 110.815)" fill="#b16430"/>
    <path id="Trazado_270048" data-name="Trazado 270048" d="M29.3,33.4a1.767,1.767,0,0,1-1.522-1.931A1.772,1.772,0,0,1,29.3,29.529a1.772,1.772,0,0,1,1.522,1.936A1.767,1.767,0,0,1,29.3,33.4" transform="translate(104.362 110.931)" fill="#f9a56b"/>
    <path id="Trazado_270049" data-name="Trazado 270049" d="M29.212,29.554l-.024,0A1.6,1.6,0,0,1,30.53,31.3a1.6,1.6,0,0,1-1.365,1.746,1.584,1.584,0,0,1-1.36-1.712v.033a1.654,1.654,0,0,0,1.408,1.817,1.654,1.654,0,0,0,1.408-1.817,1.654,1.654,0,0,0-1.408-1.817" transform="translate(104.452 111.025)" fill="#b16430"/>
    <path id="Trazado_270050" data-name="Trazado 270050" d="M28.953,32.451h.019a1.4,1.4,0,0,1,.014-2.716,1.233,1.233,0,0,1,1.061,1.332v-.029a1.285,1.285,0,0,0-1.094-1.413,1.459,1.459,0,0,0,0,2.825" transform="translate(104.659 111.296)" fill="#b16430"/>
    <path id="Trazado_270051" data-name="Trazado 270051" d="M28.736,29.72h-.014a1.025,1.025,0,1,1-.79,1.018v.019a.83.83,0,1,0,.8-1.037" transform="translate(104.933 111.649)" fill="#b16430"/>
    <path id="Trazado_270052" data-name="Trazado 270052" d="M28.52,30.906a.512.512,0,0,1,0-.994.4.4,0,0,1,.347.285.46.46,0,0,0-.414-.381.582.582,0,0,0,0,1.132.35.35,0,0,0,.214-.081.309.309,0,0,1-.147.038" transform="translate(105.211 112.013)" fill="#b16430"/>
    <path id="Trazado_270053" data-name="Trazado 270053" d="M51.3,30.369H26.646l.01.114V34.5H51.3c.785,0,1.422-.928,1.422-2.064s-.637-2.064-1.422-2.064" transform="translate(100.102 114.087)" fill="#935638"/>
    <path id="Trazado_270054" data-name="Trazado 270054" d="M26.648,31.1v.637h24.64A1.249,1.249,0,0,0,52.3,31.1Z" transform="translate(100.109 116.844)" fill="#7a4026"/>
    <path id="Trazado_270055" data-name="Trazado 270055" d="M29.749,32.449a1.925,1.925,0,0,1-1.712,2.083,1.925,1.925,0,0,1-1.712-2.083,1.925,1.925,0,0,1,1.712-2.083,1.925,1.925,0,0,1,1.712,2.083" transform="translate(98.892 114.076)" fill="#b16430"/>
    <path id="Trazado_270056" data-name="Trazado 270056" d="M27.886,34.264a1.767,1.767,0,0,1-1.522-1.931A1.772,1.772,0,0,1,27.886,30.4a1.772,1.772,0,0,1,1.522,1.936,1.767,1.767,0,0,1-1.522,1.931" transform="translate(99.042 114.192)" fill="#f9a56b"/>
    <path id="Trazado_270057" data-name="Trazado 270057" d="M27.8,30.422l-.024,0a1.6,1.6,0,0,1,1.341,1.746,1.6,1.6,0,0,1-1.365,1.75,1.589,1.589,0,0,1-1.36-1.717v.033A1.654,1.654,0,0,0,27.8,34.056,1.654,1.654,0,0,0,29.2,32.239,1.654,1.654,0,0,0,27.8,30.422" transform="translate(99.132 114.286)" fill="#b16430"/>
    <path id="Trazado_270058" data-name="Trazado 270058" d="M27.537,33.318l.019,0A1.4,1.4,0,0,1,27.57,30.6a1.238,1.238,0,0,1,1.061,1.337v-.029a1.285,1.285,0,0,0-1.094-1.413,1.459,1.459,0,0,0,0,2.825" transform="translate(99.339 114.553)" fill="#b16430"/>
    <path id="Trazado_270059" data-name="Trazado 270059" d="M27.32,30.587h-.014a1.03,1.03,0,0,1-.01,1.993.9.9,0,0,1-.775-.98l0,.024a.83.83,0,1,0,.8-1.037" transform="translate(99.613 114.906)" fill="#b16430"/>
    <path id="Trazado_270060" data-name="Trazado 270060" d="M27.1,31.774a.512.512,0,0,1,0-.994.4.4,0,0,1,.347.285.46.46,0,0,0-.414-.381.582.582,0,0,0,0,1.132.35.35,0,0,0,.214-.081.309.309,0,0,1-.147.038" transform="translate(99.895 115.274)" fill="#b16430"/>
    <path id="Trazado_270061" data-name="Trazado 270061" d="M52.219,30.369H27.57l.01.114V34.5h24.64c.785,0,1.422-.928,1.422-2.064S53,30.369,52.219,30.369" transform="translate(103.573 114.087)" fill="#935638"/>
    <path id="Trazado_270062" data-name="Trazado 270062" d="M27.573,31.1v.637H52.208a1.249,1.249,0,0,0,1.013-.637Z" transform="translate(103.584 116.844)" fill="#7a4026"/>
    <path id="Trazado_270063" data-name="Trazado 270063" d="M30.674,32.449a1.925,1.925,0,0,1-1.712,2.083,1.925,1.925,0,0,1-1.712-2.083,1.925,1.925,0,0,1,1.712-2.083,1.925,1.925,0,0,1,1.712,2.083" transform="translate(102.367 114.076)" fill="#b16430"/>
    <path id="Trazado_270064" data-name="Trazado 270064" d="M28.811,34.264a1.767,1.767,0,0,1-1.522-1.931A1.772,1.772,0,0,1,28.811,30.4a1.772,1.772,0,0,1,1.522,1.936,1.767,1.767,0,0,1-1.522,1.931" transform="translate(102.517 114.192)" fill="#f9a56b"/>
    <path id="Trazado_270065" data-name="Trazado 270065" d="M28.721,30.422l-.024,0a1.6,1.6,0,0,1,1.341,1.746,1.6,1.6,0,0,1-1.365,1.75,1.589,1.589,0,0,1-1.36-1.717v.033a1.654,1.654,0,0,0,1.408,1.817,1.654,1.654,0,0,0,1.408-1.817,1.654,1.654,0,0,0-1.408-1.817" transform="translate(102.607 114.286)" fill="#b16430"/>
    <path id="Trazado_270066" data-name="Trazado 270066" d="M28.462,33.318l.019,0A1.4,1.4,0,0,1,28.5,30.6a1.238,1.238,0,0,1,1.056,1.337v-.029a1.285,1.285,0,0,0-1.094-1.413,1.459,1.459,0,0,0,0,2.825" transform="translate(102.814 114.553)" fill="#b16430"/>
    <path id="Trazado_270067" data-name="Trazado 270067" d="M28.245,30.587h-.014a1.026,1.026,0,1,1-.79,1.013v.024a.83.83,0,1,0,.8-1.037" transform="translate(103.088 114.906)" fill="#b16430"/>
    <path id="Trazado_270068" data-name="Trazado 270068" d="M28.029,31.774a.512.512,0,0,1,0-.994.391.391,0,0,1,.347.285.46.46,0,0,0-.414-.381.582.582,0,0,0,0,1.132.35.35,0,0,0,.214-.081.309.309,0,0,1-.147.038" transform="translate(103.366 115.274)" fill="#b16430"/>
    <path id="Trazado_270069" data-name="Trazado 270069" d="M52.219,28.634H27.57l.01.114v4.015h24.64c.785,0,1.422-.928,1.422-2.064S53,28.634,52.219,28.634" transform="translate(103.573 107.569)" fill="#935638"/>
    <path id="Trazado_270070" data-name="Trazado 270070" d="M27.573,29.368v.637H52.208a1.249,1.249,0,0,0,1.013-.637Z" transform="translate(103.584 110.326)" fill="#7a4026"/>
    <path id="Trazado_270071" data-name="Trazado 270071" d="M30.674,30.713A1.925,1.925,0,0,1,28.961,32.8a1.925,1.925,0,0,1-1.712-2.083,1.925,1.925,0,0,1,1.712-2.083,1.925,1.925,0,0,1,1.712,2.083" transform="translate(102.367 107.554)" fill="#b16430"/>
    <path id="Trazado_270072" data-name="Trazado 270072" d="M28.811,32.529A1.767,1.767,0,0,1,27.289,30.6a1.772,1.772,0,0,1,1.522-1.936A1.772,1.772,0,0,1,30.333,30.6a1.767,1.767,0,0,1-1.522,1.931" transform="translate(102.517 107.674)" fill="#f9a56b"/>
    <path id="Trazado_270073" data-name="Trazado 270073" d="M28.721,28.686l-.024,0a1.6,1.6,0,0,1,1.341,1.746,1.6,1.6,0,0,1-1.365,1.75,1.589,1.589,0,0,1-1.36-1.717V30.5a1.654,1.654,0,0,0,1.408,1.817A1.654,1.654,0,0,0,30.129,30.5a1.654,1.654,0,0,0-1.408-1.817" transform="translate(102.607 107.764)" fill="#b16430"/>
    <path id="Trazado_270074" data-name="Trazado 270074" d="M28.462,31.583l.019,0a1.4,1.4,0,0,1,.019-2.716A1.238,1.238,0,0,1,29.556,30.2v-.029a1.285,1.285,0,0,0-1.094-1.413,1.459,1.459,0,0,0,0,2.825" transform="translate(102.814 108.035)" fill="#b16430"/>
    <path id="Trazado_270075" data-name="Trazado 270075" d="M28.245,28.852h-.01a1.03,1.03,0,0,1-.019,1.993.9.9,0,0,1-.775-.975v.019a.83.83,0,1,0,.8-1.037" transform="translate(103.088 108.388)" fill="#b16430"/>
    <path id="Trazado_270076" data-name="Trazado 270076" d="M28.029,30.038a.512.512,0,0,1,0-.994.391.391,0,0,1,.347.285.46.46,0,0,0-.414-.381.582.582,0,0,0,0,1.132A.35.35,0,0,0,28.176,30a.309.309,0,0,1-.147.038" transform="translate(103.366 108.752)" fill="#b16430"/>
    <path id="Trazado_270077" data-name="Trazado 270077" d="M53.144,30.369H28.5l.01.114V34.5h24.64c.785,0,1.422-.928,1.422-2.064s-.637-2.064-1.422-2.064" transform="translate(107.048 114.087)" fill="#935638"/>
    <path id="Trazado_270078" data-name="Trazado 270078" d="M28.5,31.1v.637h24.64A1.249,1.249,0,0,0,54.15,31.1Z" transform="translate(107.055 116.844)" fill="#7a4026"/>
    <path id="Trazado_270079" data-name="Trazado 270079" d="M31.6,32.449a1.925,1.925,0,0,1-1.712,2.083,1.925,1.925,0,0,1-1.712-2.083,1.925,1.925,0,0,1,1.712-2.083A1.925,1.925,0,0,1,31.6,32.449" transform="translate(105.842 114.076)" fill="#b16430"/>
    <path id="Trazado_270080" data-name="Trazado 270080" d="M29.736,34.264a1.767,1.767,0,0,1-1.522-1.931A1.772,1.772,0,0,1,29.736,30.4a1.772,1.772,0,0,1,1.522,1.936,1.767,1.767,0,0,1-1.522,1.931" transform="translate(105.992 114.192)" fill="#f9a56b"/>
    <path id="Trazado_270081" data-name="Trazado 270081" d="M29.646,30.422l-.024,0a1.6,1.6,0,0,1,1.341,1.746,1.6,1.6,0,0,1-1.365,1.75,1.588,1.588,0,0,1-1.36-1.717v.033a1.654,1.654,0,0,0,1.408,1.817,1.654,1.654,0,0,0,1.408-1.817,1.654,1.654,0,0,0-1.408-1.817" transform="translate(106.082 114.286)" fill="#b16430"/>
    <path id="Trazado_270082" data-name="Trazado 270082" d="M29.387,33.318l.019,0a1.4,1.4,0,0,1,.019-2.716,1.238,1.238,0,0,1,1.056,1.337v-.029a1.285,1.285,0,0,0-1.094-1.413,1.459,1.459,0,0,0,0,2.825" transform="translate(106.289 114.553)" fill="#b16430"/>
    <path id="Trazado_270083" data-name="Trazado 270083" d="M29.17,30.587h-.014a1.025,1.025,0,1,1-.79,1.013v.024a.83.83,0,1,0,.8-1.037" transform="translate(106.563 114.906)" fill="#b16430"/>
    <path id="Trazado_270084" data-name="Trazado 270084" d="M28.954,31.774a.512.512,0,0,1,0-.994.391.391,0,0,1,.347.285.46.46,0,0,0-.414-.381.582.582,0,0,0,0,1.132.35.35,0,0,0,.214-.081.309.309,0,0,1-.147.038" transform="translate(106.841 115.274)" fill="#b16430"/>
    <path id="Trazado_270085" data-name="Trazado 270085" d="M50.818,31.234H26.169l.01.114v4.015h24.64c.785,0,1.422-.928,1.422-2.064s-.637-2.064-1.422-2.064" transform="translate(98.31 117.337)" fill="#935638"/>
    <path id="Trazado_270086" data-name="Trazado 270086" d="M26.171,31.967V32.6h24.64a1.249,1.249,0,0,0,1.013-.637Z" transform="translate(98.317 120.09)" fill="#7a4026"/>
    <path id="Trazado_270087" data-name="Trazado 270087" d="M29.272,33.313A1.925,1.925,0,0,1,27.559,35.4a1.925,1.925,0,0,1-1.712-2.083,1.925,1.925,0,0,1,1.712-2.083,1.925,1.925,0,0,1,1.712,2.083" transform="translate(97.1 117.322)" fill="#b16430"/>
    <path id="Trazado_270088" data-name="Trazado 270088" d="M27.409,35.128A1.767,1.767,0,0,1,25.887,33.2a1.772,1.772,0,0,1,1.522-1.936A1.772,1.772,0,0,1,28.931,33.2a1.767,1.767,0,0,1-1.522,1.931" transform="translate(97.25 117.438)" fill="#f9a56b"/>
    <path id="Trazado_270089" data-name="Trazado 270089" d="M27.319,31.286l-.024,0a1.6,1.6,0,0,1,1.341,1.746,1.6,1.6,0,0,1-1.365,1.75,1.589,1.589,0,0,1-1.36-1.717V33.1a1.654,1.654,0,0,0,1.408,1.817A1.654,1.654,0,0,0,28.727,33.1a1.654,1.654,0,0,0-1.408-1.817" transform="translate(97.34 117.532)" fill="#b16430"/>
    <path id="Trazado_270090" data-name="Trazado 270090" d="M27.06,34.183l.019,0a1.4,1.4,0,0,1,.014-2.716A1.238,1.238,0,0,1,28.154,32.8v-.029a1.285,1.285,0,0,0-1.094-1.413,1.459,1.459,0,0,0,0,2.825" transform="translate(97.547 117.802)" fill="#b16430"/>
    <path id="Trazado_270091" data-name="Trazado 270091" d="M26.843,31.452h-.01a1.024,1.024,0,1,1-.794,1.018v.019a.945.945,0,0,0,.8,1.037,1.071,1.071,0,0,0,0-2.074" transform="translate(97.821 118.156)" fill="#b16430"/>
    <path id="Trazado_270092" data-name="Trazado 270092" d="M26.628,32.638a.512.512,0,0,1,0-.994.4.4,0,0,1,.347.285.464.464,0,0,0-.414-.381.582.582,0,0,0,0,1.132.35.35,0,0,0,.214-.081.309.309,0,0,1-.147.038" transform="translate(98.103 118.52)" fill="#b16430"/>
    <path id="Trazado_270093" data-name="Trazado 270093" d="M51.743,31.234H27.094l.01.114v4.015h24.64c.78,0,1.422-.928,1.422-2.064s-.642-2.064-1.422-2.064" transform="translate(101.785 117.337)" fill="#935638"/>
    <path id="Trazado_270094" data-name="Trazado 270094" d="M27.1,31.967V32.6h24.64a1.249,1.249,0,0,0,1.013-.637Z" transform="translate(101.788 120.09)" fill="#7a4026"/>
    <path id="Trazado_270095" data-name="Trazado 270095" d="M30.2,33.313A1.925,1.925,0,0,1,28.484,35.4a1.925,1.925,0,0,1-1.712-2.083,1.925,1.925,0,0,1,1.712-2.083A1.925,1.925,0,0,1,30.2,33.313" transform="translate(100.575 117.322)" fill="#b16430"/>
    <path id="Trazado_270096" data-name="Trazado 270096" d="M28.334,35.128A1.767,1.767,0,0,1,26.812,33.2a1.772,1.772,0,0,1,1.522-1.936A1.772,1.772,0,0,1,29.856,33.2a1.767,1.767,0,0,1-1.522,1.931" transform="translate(100.725 117.438)" fill="#f9a56b"/>
    <path id="Trazado_270097" data-name="Trazado 270097" d="M28.244,31.286l-.024,0a1.6,1.6,0,0,1,1.341,1.746,1.6,1.6,0,0,1-1.365,1.75,1.589,1.589,0,0,1-1.36-1.717V33.1a1.654,1.654,0,0,0,1.408,1.817A1.654,1.654,0,0,0,29.652,33.1a1.654,1.654,0,0,0-1.408-1.817" transform="translate(100.815 117.532)" fill="#b16430"/>
    <path id="Trazado_270098" data-name="Trazado 270098" d="M27.985,34.183l.019,0a1.4,1.4,0,0,1,.014-2.716A1.238,1.238,0,0,1,29.079,32.8v-.029a1.285,1.285,0,0,0-1.094-1.413,1.459,1.459,0,0,0,0,2.825" transform="translate(101.022 117.802)" fill="#b16430"/>
    <path id="Trazado_270099" data-name="Trazado 270099" d="M27.768,31.452h-.014a1.025,1.025,0,1,1-.79,1.018v.019a.83.83,0,1,0,.8-1.037" transform="translate(101.296 118.156)" fill="#b16430"/>
    <path id="Trazado_270100" data-name="Trazado 270100" d="M27.552,32.638a.512.512,0,0,1,0-.994.4.4,0,0,1,.347.285.46.46,0,0,0-.414-.381.582.582,0,0,0,0,1.132A.35.35,0,0,0,27.7,32.6a.309.309,0,0,1-.147.038" transform="translate(101.574 118.52)" fill="#b16430"/>
    <path id="Trazado_270101" data-name="Trazado 270101" d="M52.667,31.234H28.018l.01.114v4.015h24.64c.785,0,1.422-.928,1.422-2.064s-.637-2.064-1.422-2.064" transform="translate(105.256 117.337)" fill="#935638"/>
    <path id="Trazado_270102" data-name="Trazado 270102" d="M28.02,31.967V32.6H52.66a1.249,1.249,0,0,0,1.013-.637Z" transform="translate(105.263 120.09)" fill="#7a4026"/>
    <path id="Trazado_270103" data-name="Trazado 270103" d="M31.122,33.313A1.925,1.925,0,0,1,29.409,35.4,1.925,1.925,0,0,1,27.7,33.313a1.925,1.925,0,0,1,1.712-2.083,1.925,1.925,0,0,1,1.712,2.083" transform="translate(104.05 117.322)" fill="#b16430"/>
    <path id="Trazado_270104" data-name="Trazado 270104" d="M29.259,35.128A1.767,1.767,0,0,1,27.737,33.2a1.772,1.772,0,0,1,1.522-1.936A1.772,1.772,0,0,1,30.781,33.2a1.767,1.767,0,0,1-1.522,1.931" transform="translate(104.2 117.438)" fill="#f9a56b"/>
    <path id="Trazado_270105" data-name="Trazado 270105" d="M29.169,31.286l-.024,0a1.6,1.6,0,0,1,1.341,1.746,1.6,1.6,0,0,1-1.365,1.75,1.589,1.589,0,0,1-1.36-1.717V33.1a1.654,1.654,0,0,0,1.408,1.817A1.654,1.654,0,0,0,30.577,33.1a1.654,1.654,0,0,0-1.408-1.817" transform="translate(104.29 117.532)" fill="#b16430"/>
    <path id="Trazado_270106" data-name="Trazado 270106" d="M28.91,34.183l.019,0a1.4,1.4,0,0,1,.014-2.716A1.238,1.238,0,0,1,30,32.8v-.029a1.285,1.285,0,0,0-1.094-1.413,1.459,1.459,0,0,0,0,2.825" transform="translate(104.497 117.802)" fill="#b16430"/>
    <path id="Trazado_270107" data-name="Trazado 270107" d="M28.693,31.452h-.014a1.025,1.025,0,1,1-.79,1.018v.019a.83.83,0,1,0,.8-1.037" transform="translate(104.771 118.156)" fill="#b16430"/>
    <path id="Trazado_270108" data-name="Trazado 270108" d="M28.477,32.638a.512.512,0,0,1,0-.994.4.4,0,0,1,.347.285.46.46,0,0,0-.414-.381.582.582,0,0,0,0,1.132.35.35,0,0,0,.214-.081.309.309,0,0,1-.147.038" transform="translate(105.049 118.52)" fill="#b16430"/>
    <path id="Trazado_270109" data-name="Trazado 270109" d="M53.592,31.234H28.943l.01.114v4.015h24.64c.785,0,1.422-.928,1.422-2.064s-.637-2.064-1.422-2.064" transform="translate(108.731 117.337)" fill="#935638"/>
    <path id="Trazado_270110" data-name="Trazado 270110" d="M28.945,31.967V32.6h24.64a1.249,1.249,0,0,0,1.013-.637Z" transform="translate(108.738 120.09)" fill="#7a4026"/>
    <path id="Trazado_270111" data-name="Trazado 270111" d="M32.047,33.313A1.925,1.925,0,0,1,30.334,35.4a1.925,1.925,0,0,1-1.712-2.083,1.925,1.925,0,0,1,1.712-2.083,1.925,1.925,0,0,1,1.712,2.083" transform="translate(107.525 117.322)" fill="#b16430"/>
    <path id="Trazado_270112" data-name="Trazado 270112" d="M30.184,35.128A1.767,1.767,0,0,1,28.662,33.2a1.772,1.772,0,0,1,1.522-1.936A1.772,1.772,0,0,1,31.706,33.2a1.767,1.767,0,0,1-1.522,1.931" transform="translate(107.675 117.438)" fill="#f9a56b"/>
    <path id="Trazado_270113" data-name="Trazado 270113" d="M30.094,31.286l-.024,0a1.6,1.6,0,0,1,1.341,1.746,1.6,1.6,0,0,1-1.365,1.75,1.589,1.589,0,0,1-1.36-1.717V33.1a1.654,1.654,0,0,0,1.408,1.817A1.654,1.654,0,0,0,31.5,33.1a1.654,1.654,0,0,0-1.408-1.817" transform="translate(107.765 117.532)" fill="#b16430"/>
    <path id="Trazado_270114" data-name="Trazado 270114" d="M29.834,34.183l.019,0a1.4,1.4,0,0,1,.019-2.716A1.238,1.238,0,0,1,30.928,32.8v-.029a1.285,1.285,0,0,0-1.094-1.413,1.459,1.459,0,0,0,0,2.825" transform="translate(107.968 117.802)" fill="#b16430"/>
    <path id="Trazado_270115" data-name="Trazado 270115" d="M29.618,31.452H29.6a1.025,1.025,0,1,1-.79,1.018v.019a.83.83,0,1,0,.8-1.037" transform="translate(108.246 118.156)" fill="#b16430"/>
    <path id="Trazado_270116" data-name="Trazado 270116" d="M29.4,32.638a.512.512,0,0,1,0-.994.4.4,0,0,1,.347.285.46.46,0,0,0-.414-.381.582.582,0,0,0,0,1.132.35.35,0,0,0,.214-.081.309.309,0,0,1-.147.038" transform="translate(108.524 118.52)" fill="#b16430"/>
    <path id="Trazado_270117" data-name="Trazado 270117" d="M66.458,29.5H41.809l.01.114v4.015h24.64c.785,0,1.422-.928,1.422-2.064S67.243,29.5,66.458,29.5" transform="translate(157.065 110.83)" fill="#935638"/>
    <path id="Trazado_270118" data-name="Trazado 270118" d="M41.811,30.236v.637h24.64a1.249,1.249,0,0,0,1.013-.637Z" transform="translate(157.072 113.587)" fill="#7a4026"/>
    <path id="Trazado_270119" data-name="Trazado 270119" d="M44.912,31.581a1.745,1.745,0,1,1-3.425,0,1.745,1.745,0,1,1,3.425,0" transform="translate(155.855 110.815)" fill="#b16430"/>
    <path id="Trazado_270120" data-name="Trazado 270120" d="M43.049,33.4a1.767,1.767,0,0,1-1.522-1.931,1.772,1.772,0,0,1,1.522-1.936,1.772,1.772,0,0,1,1.522,1.936A1.767,1.767,0,0,1,43.049,33.4" transform="translate(156.005 110.931)" fill="#f9a56b"/>
    <path id="Trazado_270121" data-name="Trazado 270121" d="M42.959,29.554l-.024,0A1.6,1.6,0,0,1,44.277,31.3a1.6,1.6,0,0,1-1.365,1.746,1.584,1.584,0,0,1-1.36-1.712v.033a1.654,1.654,0,0,0,1.408,1.817,1.654,1.654,0,0,0,1.408-1.817,1.654,1.654,0,0,0-1.408-1.817" transform="translate(156.096 111.025)" fill="#b16430"/>
    <path id="Trazado_270122" data-name="Trazado 270122" d="M42.7,32.451h.019a1.4,1.4,0,0,1,.014-2.716,1.233,1.233,0,0,1,1.061,1.332v-.029A1.13,1.13,0,1,0,42.7,32.451" transform="translate(156.302 111.296)" fill="#b16430"/>
    <path id="Trazado_270123" data-name="Trazado 270123" d="M42.483,29.72h-.014a1.025,1.025,0,1,1-.79,1.018v.019a.83.83,0,1,0,.8-1.037" transform="translate(156.577 111.649)" fill="#b16430"/>
    <path id="Trazado_270124" data-name="Trazado 270124" d="M42.267,30.906a.512.512,0,0,1,0-.994.391.391,0,0,1,.347.285.46.46,0,0,0-.414-.381.582.582,0,0,0,0,1.132.35.35,0,0,0,.214-.081.309.309,0,0,1-.147.038" transform="translate(156.854 112.013)" fill="#b16430"/>
    <path id="Trazado_270125" data-name="Trazado 270125" d="M67.387,29.5H42.733l.014.114v4.015h24.64c.78,0,1.422-.928,1.422-2.064S68.167,29.5,67.387,29.5" transform="translate(160.536 110.83)" fill="#935638"/>
    <path id="Trazado_270126" data-name="Trazado 270126" d="M42.735,30.236v.637h24.64a1.249,1.249,0,0,0,1.013-.637Z" transform="translate(160.544 113.587)" fill="#7a4026"/>
    <path id="Trazado_270127" data-name="Trazado 270127" d="M45.837,31.581a1.745,1.745,0,1,1-3.425,0,1.745,1.745,0,1,1,3.425,0" transform="translate(159.33 110.815)" fill="#b16430"/>
    <path id="Trazado_270128" data-name="Trazado 270128" d="M43.974,33.4a1.767,1.767,0,0,1-1.522-1.931,1.772,1.772,0,0,1,1.522-1.936A1.772,1.772,0,0,1,45.5,31.465,1.767,1.767,0,0,1,43.974,33.4" transform="translate(159.48 110.931)" fill="#f9a56b"/>
    <path id="Trazado_270129" data-name="Trazado 270129" d="M43.884,29.554l-.024,0A1.6,1.6,0,0,1,45.2,31.3a1.4,1.4,0,1,1-2.726.033v.033a1.654,1.654,0,0,0,1.408,1.817,1.654,1.654,0,0,0,1.408-1.817,1.654,1.654,0,0,0-1.408-1.817" transform="translate(159.571 111.025)" fill="#b16430"/>
    <path id="Trazado_270130" data-name="Trazado 270130" d="M43.625,32.451h.019a1.4,1.4,0,0,1,.014-2.716,1.233,1.233,0,0,1,1.061,1.332v-.029a1.13,1.13,0,1,0-1.094,1.413" transform="translate(159.777 111.296)" fill="#b16430"/>
    <path id="Trazado_270131" data-name="Trazado 270131" d="M43.408,29.72h-.014a1.03,1.03,0,0,1-.01,1.993.9.9,0,0,1-.775-.975l0,.019a.83.83,0,1,0,.8-1.037" transform="translate(160.051 111.649)" fill="#b16430"/>
    <path id="Trazado_270132" data-name="Trazado 270132" d="M43.192,30.906a.512.512,0,0,1,0-.994.391.391,0,0,1,.347.285.46.46,0,0,0-.414-.381.582.582,0,0,0,0,1.132.35.35,0,0,0,.214-.081.309.309,0,0,1-.147.038" transform="translate(160.329 112.013)" fill="#b16430"/>
    <path id="Trazado_270133" data-name="Trazado 270133" d="M65.967,30.369H41.318l.01.114V34.5h24.64c.785,0,1.422-.928,1.422-2.064s-.637-2.064-1.422-2.064" transform="translate(155.22 114.087)" fill="#935638"/>
    <path id="Trazado_270134" data-name="Trazado 270134" d="M41.32,31.1v.637H65.96a1.249,1.249,0,0,0,1.013-.637Z" transform="translate(155.228 116.844)" fill="#7a4026"/>
    <path id="Trazado_270135" data-name="Trazado 270135" d="M44.421,32.449a1.745,1.745,0,1,1-3.425,0,1.745,1.745,0,1,1,3.425,0" transform="translate(154.011 114.076)" fill="#b16430"/>
    <path id="Trazado_270136" data-name="Trazado 270136" d="M42.558,34.264a1.767,1.767,0,0,1-1.522-1.931A1.772,1.772,0,0,1,42.558,30.4a1.772,1.772,0,0,1,1.522,1.936,1.767,1.767,0,0,1-1.522,1.931" transform="translate(154.161 114.192)" fill="#f9a56b"/>
    <path id="Trazado_270137" data-name="Trazado 270137" d="M42.468,30.422l-.024,0a1.6,1.6,0,0,1,1.341,1.746,1.6,1.6,0,0,1-1.365,1.75,1.588,1.588,0,0,1-1.36-1.717v.033a1.654,1.654,0,0,0,1.408,1.817,1.654,1.654,0,0,0,1.408-1.817,1.654,1.654,0,0,0-1.408-1.817" transform="translate(154.251 114.286)" fill="#b16430"/>
    <path id="Trazado_270138" data-name="Trazado 270138" d="M42.209,33.318l.019,0A1.4,1.4,0,1,1,43.3,31.934v-.029a1.13,1.13,0,1,0-1.094,1.413" transform="translate(154.458 114.553)" fill="#b16430"/>
    <path id="Trazado_270139" data-name="Trazado 270139" d="M41.992,30.587h-.014a1.026,1.026,0,1,1-.79,1.018v.019a.83.83,0,1,0,.8-1.037" transform="translate(154.732 114.906)" fill="#b16430"/>
    <path id="Trazado_270140" data-name="Trazado 270140" d="M41.777,31.774a.512.512,0,0,1,0-.994.4.4,0,0,1,.347.285.464.464,0,0,0-.414-.381.582.582,0,0,0,0,1.132.35.35,0,0,0,.214-.081.309.309,0,0,1-.147.038" transform="translate(155.014 115.274)" fill="#b16430"/>
    <path id="Trazado_270141" data-name="Trazado 270141" d="M66.891,30.369H42.242l.01.114V34.5h24.64c.785,0,1.422-.928,1.422-2.064s-.637-2.064-1.422-2.064" transform="translate(158.692 114.087)" fill="#935638"/>
    <path id="Trazado_270142" data-name="Trazado 270142" d="M42.244,31.1v.637h24.64A1.249,1.249,0,0,0,67.9,31.1Z" transform="translate(158.699 116.844)" fill="#7a4026"/>
    <path id="Trazado_270143" data-name="Trazado 270143" d="M45.346,32.449a1.745,1.745,0,1,1-3.425,0,1.745,1.745,0,1,1,3.425,0" transform="translate(157.486 114.076)" fill="#b16430"/>
    <path id="Trazado_270144" data-name="Trazado 270144" d="M43.483,34.264a1.767,1.767,0,0,1-1.522-1.931A1.772,1.772,0,0,1,43.483,30.4a1.772,1.772,0,0,1,1.522,1.936,1.767,1.767,0,0,1-1.522,1.931" transform="translate(157.636 114.192)" fill="#f9a56b"/>
    <path id="Trazado_270145" data-name="Trazado 270145" d="M43.393,30.422l-.024,0a1.6,1.6,0,0,1,1.341,1.746,1.6,1.6,0,0,1-1.365,1.75,1.589,1.589,0,0,1-1.36-1.717v.033a1.654,1.654,0,0,0,1.408,1.817A1.654,1.654,0,0,0,44.8,32.239a1.654,1.654,0,0,0-1.408-1.817" transform="translate(157.726 114.286)" fill="#b16430"/>
    <path id="Trazado_270146" data-name="Trazado 270146" d="M43.134,33.318l.019,0a1.4,1.4,0,1,1,1.075-1.379v-.029a1.13,1.13,0,1,0-1.094,1.413" transform="translate(157.933 114.553)" fill="#b16430"/>
    <path id="Trazado_270147" data-name="Trazado 270147" d="M42.917,30.587H42.9a1.025,1.025,0,1,1-.79,1.018v.019a.83.83,0,1,0,.8-1.037" transform="translate(158.207 114.906)" fill="#b16430"/>
    <path id="Trazado_270148" data-name="Trazado 270148" d="M42.7,31.774a.512.512,0,0,1,0-.994.4.4,0,0,1,.347.285.46.46,0,0,0-.414-.381.582.582,0,0,0,0,1.132.35.35,0,0,0,.214-.081.309.309,0,0,1-.147.038" transform="translate(158.485 115.274)" fill="#b16430"/>
    <path id="Trazado_270149" data-name="Trazado 270149" d="M66.891,28.634H42.242l.01.114v4.015h24.64c.785,0,1.422-.928,1.422-2.064s-.637-2.064-1.422-2.064" transform="translate(158.692 107.569)" fill="#935638"/>
    <path id="Trazado_270150" data-name="Trazado 270150" d="M42.244,29.368v.637h24.64a1.249,1.249,0,0,0,1.013-.637Z" transform="translate(158.699 110.326)" fill="#7a4026"/>
    <path id="Trazado_270151" data-name="Trazado 270151" d="M45.346,30.713a1.745,1.745,0,1,1-3.425,0,1.745,1.745,0,1,1,3.425,0" transform="translate(157.486 107.554)" fill="#b16430"/>
    <path id="Trazado_270152" data-name="Trazado 270152" d="M43.483,32.529A1.767,1.767,0,0,1,41.961,30.6a1.772,1.772,0,0,1,1.522-1.936A1.772,1.772,0,0,1,45.005,30.6a1.767,1.767,0,0,1-1.522,1.931" transform="translate(157.636 107.674)" fill="#f9a56b"/>
    <path id="Trazado_270153" data-name="Trazado 270153" d="M43.393,28.686l-.024,0a1.6,1.6,0,0,1,1.341,1.746,1.6,1.6,0,0,1-1.365,1.75,1.589,1.589,0,0,1-1.36-1.717V30.5a1.654,1.654,0,0,0,1.408,1.817A1.654,1.654,0,0,0,44.8,30.5a1.654,1.654,0,0,0-1.408-1.817" transform="translate(157.726 107.764)" fill="#b16430"/>
    <path id="Trazado_270154" data-name="Trazado 270154" d="M43.134,31.583l.019,0A1.4,1.4,0,1,1,44.228,30.2v-.029a1.13,1.13,0,1,0-1.094,1.413" transform="translate(157.933 108.035)" fill="#b16430"/>
    <path id="Trazado_270155" data-name="Trazado 270155" d="M42.917,28.852h-.01a1.024,1.024,0,1,1-.794,1.018v.019a.83.83,0,1,0,.8-1.037" transform="translate(158.207 108.388)" fill="#b16430"/>
    <path id="Trazado_270156" data-name="Trazado 270156" d="M42.7,30.038a.512.512,0,0,1,0-.994.4.4,0,0,1,.347.285.46.46,0,0,0-.414-.381.582.582,0,0,0,0,1.132A.35.35,0,0,0,42.848,30a.309.309,0,0,1-.147.038" transform="translate(158.485 108.752)" fill="#b16430"/>
    <path id="Trazado_270157" data-name="Trazado 270157" d="M67.816,30.369H43.167l.009.114V34.5h24.64c.785,0,1.422-.928,1.422-2.064s-.637-2.064-1.422-2.064" transform="translate(162.166 114.087)" fill="#935638"/>
    <path id="Trazado_270158" data-name="Trazado 270158" d="M43.169,31.1v.637h24.64a1.249,1.249,0,0,0,1.013-.637Z" transform="translate(162.174 116.844)" fill="#7a4026"/>
    <path id="Trazado_270159" data-name="Trazado 270159" d="M46.271,32.449a1.745,1.745,0,1,1-3.425,0,1.745,1.745,0,1,1,3.425,0" transform="translate(160.961 114.076)" fill="#b16430"/>
    <path id="Trazado_270160" data-name="Trazado 270160" d="M44.408,34.264a1.767,1.767,0,0,1-1.522-1.931A1.772,1.772,0,0,1,44.408,30.4a1.772,1.772,0,0,1,1.522,1.936,1.767,1.767,0,0,1-1.522,1.931" transform="translate(161.111 114.192)" fill="#f9a56b"/>
    <path id="Trazado_270161" data-name="Trazado 270161" d="M44.318,30.422l-.024,0a1.6,1.6,0,0,1,1.341,1.746,1.6,1.6,0,0,1-1.365,1.75,1.589,1.589,0,0,1-1.36-1.717v.033a1.654,1.654,0,0,0,1.408,1.817,1.654,1.654,0,0,0,1.408-1.817,1.654,1.654,0,0,0-1.408-1.817" transform="translate(161.201 114.286)" fill="#b16430"/>
    <path id="Trazado_270162" data-name="Trazado 270162" d="M44.059,33.318l.019,0a1.4,1.4,0,1,1,1.075-1.379v-.029a1.13,1.13,0,1,0-1.094,1.413" transform="translate(161.408 114.553)" fill="#b16430"/>
    <path id="Trazado_270163" data-name="Trazado 270163" d="M43.842,30.587h-.014a1.03,1.03,0,0,1-.01,1.993.9.9,0,0,1-.775-.975l0,.019a.83.83,0,1,0,.8-1.037" transform="translate(161.682 114.906)" fill="#b16430"/>
    <path id="Trazado_270164" data-name="Trazado 270164" d="M43.626,31.774a.512.512,0,0,1,0-.994.391.391,0,0,1,.347.285.46.46,0,0,0-.414-.381.582.582,0,0,0,0,1.132.35.35,0,0,0,.214-.081.309.309,0,0,1-.147.038" transform="translate(161.96 115.274)" fill="#b16430"/>
    <path id="Trazado_270165" data-name="Trazado 270165" d="M65.494,31.234H40.84a.937.937,0,0,1,.014.114v4.015h24.64c.785,0,1.422-.928,1.422-2.064s-.637-2.064-1.422-2.064" transform="translate(153.425 117.337)" fill="#935638"/>
    <path id="Trazado_270166" data-name="Trazado 270166" d="M40.843,31.967V32.6h24.64a1.249,1.249,0,0,0,1.013-.637Z" transform="translate(153.436 120.09)" fill="#7a4026"/>
    <path id="Trazado_270167" data-name="Trazado 270167" d="M43.944,33.313a1.745,1.745,0,1,1-3.425,0,1.745,1.745,0,1,1,3.425,0" transform="translate(152.219 117.322)" fill="#b16430"/>
    <path id="Trazado_270168" data-name="Trazado 270168" d="M42.081,35.128A1.767,1.767,0,0,1,40.559,33.2a1.772,1.772,0,0,1,1.522-1.936A1.772,1.772,0,0,1,43.6,33.2a1.767,1.767,0,0,1-1.522,1.931" transform="translate(152.369 117.438)" fill="#f9a56b"/>
    <path id="Trazado_270169" data-name="Trazado 270169" d="M41.991,31.286l-.024,0a1.6,1.6,0,0,1,1.341,1.746,1.6,1.6,0,0,1-1.365,1.75,1.588,1.588,0,0,1-1.36-1.717V33.1a1.654,1.654,0,0,0,1.408,1.817A1.654,1.654,0,0,0,43.4,33.1a1.654,1.654,0,0,0-1.408-1.817" transform="translate(152.459 117.532)" fill="#b16430"/>
    <path id="Trazado_270170" data-name="Trazado 270170" d="M41.732,34.183l.019,0A1.4,1.4,0,1,1,42.826,32.8v-.029a1.13,1.13,0,1,0-1.094,1.413" transform="translate(152.666 117.802)" fill="#b16430"/>
    <path id="Trazado_270171" data-name="Trazado 270171" d="M41.515,31.452H41.5a1.025,1.025,0,1,1-.79,1.018v.019a.83.83,0,1,0,.8-1.037" transform="translate(152.94 118.156)" fill="#b16430"/>
    <path id="Trazado_270172" data-name="Trazado 270172" d="M41.3,32.638a.512.512,0,0,1,0-.994.39.39,0,0,1,.342.285.46.46,0,0,0-.414-.381.582.582,0,0,0,0,1.132.35.35,0,0,0,.214-.081.291.291,0,0,1-.143.038" transform="translate(153.218 118.52)" fill="#b16430"/>
    <path id="Trazado_270173" data-name="Trazado 270173" d="M66.414,31.234H41.765l.01.114v4.015h24.64c.785,0,1.422-.928,1.422-2.064s-.637-2.064-1.422-2.064" transform="translate(156.9 117.337)" fill="#935638"/>
    <path id="Trazado_270174" data-name="Trazado 270174" d="M41.767,31.967V32.6h24.64a1.249,1.249,0,0,0,1.013-.637Z" transform="translate(156.907 120.09)" fill="#7a4026"/>
    <path id="Trazado_270175" data-name="Trazado 270175" d="M44.869,33.313a1.745,1.745,0,1,1-3.425,0,1.745,1.745,0,1,1,3.425,0" transform="translate(155.694 117.322)" fill="#b16430"/>
    <path id="Trazado_270176" data-name="Trazado 270176" d="M43.006,35.128A1.763,1.763,0,0,1,41.484,33.2a1.768,1.768,0,0,1,1.522-1.936A1.772,1.772,0,0,1,44.528,33.2a1.767,1.767,0,0,1-1.522,1.931" transform="translate(155.844 117.438)" fill="#f9a56b"/>
    <path id="Trazado_270177" data-name="Trazado 270177" d="M42.916,31.286l-.024,0a1.6,1.6,0,0,1,1.341,1.746,1.6,1.6,0,0,1-1.365,1.75,1.589,1.589,0,0,1-1.36-1.717V33.1a1.654,1.654,0,0,0,1.408,1.817A1.654,1.654,0,0,0,44.324,33.1a1.654,1.654,0,0,0-1.408-1.817" transform="translate(155.934 117.532)" fill="#b16430"/>
    <path id="Trazado_270178" data-name="Trazado 270178" d="M42.657,34.183l.019,0A1.4,1.4,0,1,1,43.751,32.8v-.029a1.13,1.13,0,1,0-1.094,1.413" transform="translate(156.141 117.802)" fill="#b16430"/>
    <path id="Trazado_270179" data-name="Trazado 270179" d="M42.44,31.452H42.43a1.025,1.025,0,1,1-.794,1.018v.019a.83.83,0,1,0,.8-1.037" transform="translate(156.415 118.156)" fill="#b16430"/>
    <path id="Trazado_270180" data-name="Trazado 270180" d="M42.224,32.638a.512.512,0,0,1,0-.994.4.4,0,0,1,.347.285.464.464,0,0,0-.414-.381.582.582,0,0,0,0,1.132.35.35,0,0,0,.214-.081.309.309,0,0,1-.147.038" transform="translate(156.693 118.52)" fill="#b16430"/>
    <path id="Trazado_270181" data-name="Trazado 270181" d="M67.339,31.234H42.69l.01.114v4.015h24.64c.785,0,1.422-.928,1.422-2.064s-.637-2.064-1.422-2.064" transform="translate(160.375 117.337)" fill="#935638"/>
    <path id="Trazado_270182" data-name="Trazado 270182" d="M42.692,31.967V32.6h24.64a1.249,1.249,0,0,0,1.013-.637Z" transform="translate(160.382 120.09)" fill="#7a4026"/>
    <path id="Trazado_270183" data-name="Trazado 270183" d="M45.794,33.313a1.745,1.745,0,1,1-3.425,0,1.745,1.745,0,1,1,3.425,0" transform="translate(159.169 117.322)" fill="#b16430"/>
    <path id="Trazado_270184" data-name="Trazado 270184" d="M43.931,35.128A1.767,1.767,0,0,1,42.409,33.2a1.772,1.772,0,0,1,1.522-1.936A1.772,1.772,0,0,1,45.453,33.2a1.767,1.767,0,0,1-1.522,1.931" transform="translate(159.319 117.438)" fill="#f9a56b"/>
    <path id="Trazado_270185" data-name="Trazado 270185" d="M43.841,31.286l-.024,0a1.6,1.6,0,0,1,1.341,1.746,1.6,1.6,0,0,1-1.365,1.75,1.589,1.589,0,0,1-1.36-1.717V33.1a1.654,1.654,0,0,0,1.408,1.817A1.654,1.654,0,0,0,45.249,33.1a1.654,1.654,0,0,0-1.408-1.817" transform="translate(159.409 117.532)" fill="#b16430"/>
    <path id="Trazado_270186" data-name="Trazado 270186" d="M43.582,34.183l.019,0A1.4,1.4,0,1,1,44.676,32.8v-.029a1.13,1.13,0,1,0-1.094,1.413" transform="translate(159.616 117.802)" fill="#b16430"/>
    <path id="Trazado_270187" data-name="Trazado 270187" d="M43.365,31.452h-.014a1.025,1.025,0,1,1-.79,1.018v.019a.83.83,0,1,0,.8-1.037" transform="translate(159.89 118.156)" fill="#b16430"/>
    <path id="Trazado_270188" data-name="Trazado 270188" d="M43.149,32.638a.512.512,0,0,1,0-.994.4.4,0,0,1,.347.285.46.46,0,0,0-.414-.381.582.582,0,0,0,0,1.132A.35.35,0,0,0,43.3,32.6a.309.309,0,0,1-.147.038" transform="translate(160.168 118.52)" fill="#b16430"/>
    <path id="Trazado_270189" data-name="Trazado 270189" d="M68.264,31.234H43.615l.01.114v4.015h24.64c.785,0,1.422-.928,1.422-2.064s-.637-2.064-1.422-2.064" transform="translate(163.85 117.337)" fill="#935638"/>
    <path id="Trazado_270190" data-name="Trazado 270190" d="M43.617,31.967V32.6h24.64a1.249,1.249,0,0,0,1.013-.637Z" transform="translate(163.857 120.09)" fill="#7a4026"/>
    <path id="Trazado_270191" data-name="Trazado 270191" d="M46.719,33.313a1.745,1.745,0,1,1-3.425,0,1.745,1.745,0,1,1,3.425,0" transform="translate(162.644 117.322)" fill="#b16430"/>
    <path id="Trazado_270192" data-name="Trazado 270192" d="M44.856,35.128A1.767,1.767,0,0,1,43.334,33.2a1.772,1.772,0,0,1,1.522-1.936A1.772,1.772,0,0,1,46.378,33.2a1.767,1.767,0,0,1-1.522,1.931" transform="translate(162.794 117.438)" fill="#f9a56b"/>
    <path id="Trazado_270193" data-name="Trazado 270193" d="M44.766,31.286l-.024,0a1.6,1.6,0,0,1,1.341,1.746,1.6,1.6,0,0,1-1.365,1.75,1.588,1.588,0,0,1-1.36-1.717V33.1a1.654,1.654,0,0,0,1.408,1.817A1.654,1.654,0,0,0,46.174,33.1a1.654,1.654,0,0,0-1.408-1.817" transform="translate(162.884 117.532)" fill="#b16430"/>
    <path id="Trazado_270194" data-name="Trazado 270194" d="M44.506,34.183l.019,0A1.4,1.4,0,1,1,45.6,32.8v-.029a1.13,1.13,0,1,0-1.094,1.413" transform="translate(163.087 117.802)" fill="#b16430"/>
    <path id="Trazado_270195" data-name="Trazado 270195" d="M44.29,31.452h-.014a1.026,1.026,0,1,1-.79,1.018v.019a.83.83,0,1,0,.8-1.037" transform="translate(163.365 118.156)" fill="#b16430"/>
    <path id="Trazado_270196" data-name="Trazado 270196" d="M44.074,32.638a.512.512,0,0,1,0-.994.4.4,0,0,1,.347.285.46.46,0,0,0-.414-.381.582.582,0,0,0,0,1.132.35.35,0,0,0,.214-.081.309.309,0,0,1-.147.038" transform="translate(163.643 118.52)" fill="#b16430"/>
    <path id="Trazado_270197" data-name="Trazado 270197" d="M73.524,4.284H47.867A2.742,2.742,0,0,0,45.151,6.8H39.814a2.264,2.264,0,0,0-2.264,2.264,2.186,2.186,0,0,0,.433,1.256H34.405a2.388,2.388,0,0,0-1.7,4.067,1.616,1.616,0,0,0-1.446,1.594A1.636,1.636,0,0,0,32.9,17.617h3.772a1.636,1.636,0,0,0,1.636-1.636,1.574,1.574,0,0,0-.295-.88H50.759a2.383,2.383,0,0,0,2.212-1.508h9.737a3.268,3.268,0,0,0,3.268-3.273,3.55,3.55,0,0,0-.048-.5h7.6a2.766,2.766,0,1,0,0-5.532" transform="translate(117.439 16.093)" fill="#adc8e3"/>
    <path id="Trazado_270198" data-name="Trazado 270198" d="M74.034,2.433h-24.4a3.261,3.261,0,0,0-2.749,5.033H38.311a2.514,2.514,0,0,0-2.516,2.516,2.439,2.439,0,0,0,.385,1.256H35.043a2.765,2.765,0,0,0-2.768,2.768,2.7,2.7,0,0,0,.68,1.76H30.134a2.894,2.894,0,0,0-2.892,2.892,2.861,2.861,0,0,0,2.1,2.735,2.008,2.008,0,0,0,1.427,3.43h4.024A2.016,2.016,0,0,0,36.8,22.811a1.979,1.979,0,0,0-.48-1.261h4.129A2.859,2.859,0,0,0,42.6,16.77h1.246a2.763,2.763,0,0,0,2.764-2.764,2.673,2.673,0,0,0-.509-1.513h7.3a2.506,2.506,0,0,0,2.3-3.52H74.034a3.27,3.27,0,0,0,0-6.54" transform="translate(102.341 9.139)" fill="#adc8e3"/>
    <path id="Trazado_270199" data-name="Trazado 270199" d="M75.131,0H59.786a3.9,3.9,0,0,0-3.839,3.268H42.8A3.268,3.268,0,0,0,39.537,6.54a3.227,3.227,0,0,0,.171,1.008h-2.94A2.764,2.764,0,0,0,34,10.313a2.957,2.957,0,0,0,.1.5H28.844a2.891,2.891,0,0,0-2.892,2.892,2.81,2.81,0,0,0,.4,1.384H26.2a1.762,1.762,0,1,0,0,3.525H30.48a1.763,1.763,0,0,0,1.76-1.765,1.429,1.429,0,0,0-.052-.247h9.233a2.9,2.9,0,0,0,2.892-2.9,2.771,2.771,0,0,0-.124-.628h2.388a2.765,2.765,0,0,0,2.768-2.768,2.512,2.512,0,0,0-.1-.5H63.939A3.273,3.273,0,0,0,66.955,7.8h8.177a3.9,3.9,0,1,0,0-7.8" transform="translate(91.811 -0.001)" fill="#adc8e3"/>
  </g>
</svg>
