<svg id="Grupo_974123" data-name="Grupo 974123" xmlns="http://www.w3.org/2000/svg" xmlns:xlink="http://www.w3.org/1999/xlink" width="422.141" height="437.5" viewBox="0 0 422.141 437.5">
  <defs>
    <clipPath id="clip-path">
      <rect id="Rectángulo_339764" data-name="Rectángulo 339764" width="422.141" height="437.5" fill="none"/>
    </clipPath>
  </defs>
  <rect id="Rectángulo_339763" data-name="Rectángulo 339763" width="372.478" height="404.982" transform="translate(49.026 3.723)" fill="#fff"/>
  <g id="Grupo_974110" data-name="Grupo 974110">
    <g id="Grupo_974109" data-name="Grupo 974109" clip-path="url(#clip-path)">
      <text id="Anomalía_de_la_temperatura_C_relativa_al_período_1961-1990" data-name="Anomalía de la temperatura (ºC) relativa al período 1961-1990" transform="translate(8.998 393.573) rotate(-90)" fill="#070808" font-size="11" font-family="ArialMT, Arial"><tspan x="0" y="0">Anomalía de la temperatura (ºC) relativa al período 1961-1990</tspan></text>
      <path id="Trazado_704945" data-name="Trazado 704945" d="M37.691,155.421H410.169m-355.458,0v-4.006" transform="translate(11.335 45.535)" fill="none" stroke="#050605" stroke-miterlimit="2.5" stroke-width="0.98"/>
    </g>
  </g>
  <text id="_" data-name=" " transform="translate(64.534 212.714)" fill="#050605" font-size="8" font-family="Helvetica-Bold, Helvetica" font-weight="700"><tspan x="0" y="0"> </tspan></text>
  <line id="Línea_228" data-name="Línea 228" y1="4.006" transform="translate(172.483 196.949)" fill="none" stroke="#050605" stroke-miterlimit="2.5" stroke-width="0.98"/>
  <text id="_2" data-name=" " transform="translate(170.97 212.714)" fill="#050605" font-size="8" font-family="Helvetica-Bold, Helvetica" font-weight="700"><tspan x="0" y="0"> </tspan></text>
  <line id="Línea_229" data-name="Línea 229" y1="4.006" transform="translate(278.898 196.949)" fill="none" stroke="#050605" stroke-miterlimit="2.5" stroke-width="0.98"/>
  <text id="_3" data-name=" " transform="translate(277.384 212.714)" fill="#050605" font-size="8" font-family="Helvetica-Bold, Helvetica" font-weight="700"><tspan x="0" y="0"> </tspan></text>
  <line id="Línea_230" data-name="Línea 230" y1="4.006" transform="translate(385.32 196.949)" fill="none" stroke="#050605" stroke-miterlimit="2.5" stroke-width="0.98"/>
  <text id="_4" data-name=" " transform="translate(383.806 212.714)" fill="#050605" font-size="8" font-family="Helvetica-Bold, Helvetica" font-weight="700"><tspan x="0" y="0"> </tspan></text>
  <g id="Grupo_974112" data-name="Grupo 974112">
    <g id="Grupo_974111" data-name="Grupo 974111" clip-path="url(#clip-path)">
      <path id="Trazado_704946" data-name="Trazado 704946" d="M76,200.807v-2m21.284,2v-2m21.289,2v-2m21.285,2v-2m42.559,2v-2m21.288,2v-2m21.285,2v-2m21.289,2v-2m42.573,2v-2m21.288,2v-2m21.268,2v-2m21.286,2v-2m42.579,2v-2M37.691.49H410.169M54.711.49V4.5M161.148.49V4.5M267.564.49V4.5M373.985.49V4.5M76,.49v2m21.284-2v2m21.289-2v2m21.285-2v2m42.559-2v2m21.288-2v2m21.285-2v2m21.289-2v2m42.573-2v2m21.288-2v2m21.268-2v2m21.286-2v2m42.579-2v2M37.691,200.807V.49m0,186.772h7.448" transform="translate(11.335 0.147)" fill="none" stroke="#050605" stroke-miterlimit="2.5" stroke-width="0.98"/>
    </g>
  </g>
  <text id="_0_6" data-name="−0,6" transform="translate(24.714 189.614)" fill="#050605" font-size="10" font-family="ArialMT, Arial"><tspan x="0" y="0">−0,6</tspan></text>
  <line id="Línea_231" data-name="Línea 231" x2="7.448" transform="translate(49.026 157.285)" fill="none" stroke="#050605" stroke-miterlimit="2.5" stroke-width="0.98"/>
  <text id="_0_4" data-name="−0,4" transform="translate(24.714 159.487)" fill="#050605" font-size="10" font-family="ArialMT, Arial"><tspan x="0" y="0">−0,4</tspan></text>
  <line id="Línea_232" data-name="Línea 232" x2="7.448" transform="translate(49.026 127.161)" fill="none" stroke="#050605" stroke-miterlimit="2.5" stroke-width="0.98"/>
  <text id="_0_2" data-name="−0,2" transform="translate(24.714 129.365)" fill="#050605" font-size="10" font-family="ArialMT, Arial"><tspan x="0" y="0">−0,2</tspan></text>
  <line id="Línea_233" data-name="Línea 233" x2="7.448" transform="translate(49.026 97.038)" fill="none" stroke="#050605" stroke-miterlimit="2.5" stroke-width="0.98"/>
  <text id="_0_0" data-name="0,0" transform="translate(31.065 100.246)" fill="#050605" font-size="11" font-family="ArialMT, Arial"><tspan x="0" y="0">0,0</tspan></text>
  <line id="Línea_234" data-name="Línea 234" x2="7.448" transform="translate(49.026 66.915)" fill="none" stroke="#050605" stroke-miterlimit="2.5" stroke-width="0.98"/>
  <text id="_0_2-2" data-name="0,2" transform="translate(31.065 70.115)" fill="#050605" font-size="11" font-family="ArialMT, Arial"><tspan x="0" y="0">0,2</tspan></text>
  <line id="Línea_235" data-name="Línea 235" x2="7.448" transform="translate(49.026 36.791)" fill="none" stroke="#050605" stroke-miterlimit="2.5" stroke-width="0.98"/>
  <text id="_0_4-2" data-name="0,4" transform="translate(31.065 39.998)" fill="#050605" font-size="11" font-family="ArialMT, Arial"><tspan x="0" y="0">0,4</tspan></text>
  <line id="Línea_236" data-name="Línea 236" x2="7.448" transform="translate(49.026 6.666)" fill="none" stroke="#050605" stroke-miterlimit="2.5" stroke-width="0.98"/>
  <g id="Grupo_974114" data-name="Grupo 974114">
    <g id="Grupo_974113" data-name="Grupo 974113" clip-path="url(#clip-path)">
      <text id="_0_6-2" data-name="0,6" transform="translate(31.065 9.872)" fill="#050605" font-size="11" font-family="ArialMT, Arial"><tspan x="0" y="0">0,6</tspan></text>
      <path id="Trazado_704947" data-name="Trazado 704947" d="M325.774,200.808V.491m0,186.772h-7.447m7.447-30.125h-7.447m7.447-30.124h-7.447m7.447-30.124h-7.447m7.447-30.122h-7.447m7.447-30.125h-7.447m7.447-30.125h-7.447" transform="translate(95.73 0.148)" fill="none" stroke="#050605" stroke-miterlimit="2.5" stroke-width="0.98"/>
    </g>
  </g>
  <path id="Trazado_704948" data-name="Trazado 704948" d="M51.663,150.594l2.068-22.533.914.193,2.483,7.933,2.37-4.032,1.41,2.085L63,147.776l2.179,15.291,3.439,1.678,1.861-23.252,1.051,4.1,2.11,8.091,2.136,17.129,1.439-.046L78.672,147.2l1.35,18.745h1.441L83.6,134.884l1.181-3.023,1.642,8.26,1.42-.016,1.734-9.949,1.214,2.564,2.072,2.206,2.08,8.4,1.418-.075,1.521-11.022,1.318,7.292,2.136,10.614,2.691,7.054,2.985-5.25,2.128-46.981,1.106-8.459,1.768,32.833,3.271-.926,1.911-3.249,1.208.682,2.077,11.4,2.121,16.712,1.318.312,2.1-3.137,1.224-1.472,1.764,6.5,1.413-.1,2.123-16.43,1.189-11.047,1.636,28.316,1.433.082,1.283-7.358,1.556,12.916,2.233,3.446,1.314-.246,2.089-10.074,2.157-2.747,2.008-28.775.843,1.065,2.108,29.9,1.439.036,2.121-17.764,1.519-9.826,1.314,6.528,2.124,21.683,2.138,10.156,2.148,7.254,1.413-.135,2.123-21.812,1.155-7.136,1.677,21.341,2.213,7.211,3.075,2.406,1.64-4.3,1.595,6.619,1.419-.072L183.6,162l2.14-2.276,2.158-27.336,1.1-7.168,1.713,27.8,2.128,12.674,1.432-.039,2.136-19.38,2.1-9.238,2.125-5.273,1.224-5.34,1.629,13.633,1.381.2,1.549-3.62,1.4,2.493,1.342-.235,2.146-12.823,1.423-10.812,1.463,10.611,2.124.287,2.066,19.475,1.44-.029,2.118-31.71,1.41-5.1,1.424,5.109,2.12,20.882,1.439,0,1.768-18.21,1.084,3.587,1.357.074,2.162-5.079,2.114-17.8,1.134-1.374,1.747,5.658,1.4-.079,2.02-10.752,1-.064,2.427,7.651,3.061-4.546,1.5-16.377,1.329,11.7,2.142,14.312,1.349.238,1.977-3.639,1.2-.346,1.872,4.884,2.112,15.126,1.435-.021,2.123-18.952,2.118-12.158,1.033-4.878,1.8,29.546,2.134,8.623,2.138,11.437,1.433-.095,2.116-39.393,1.56-5.407,1.28,2.81,2.125,10.007,1.422-.04,1.839-11.868,1.831,2.733,1.439-3.339,1.964,38.468,1.433.082,2.127-12.643,1.955-9.723,1.047.369,2,4.971,1.389-.2,1.7-16.808,1.125,4.51,2.119,23.593,1.437.021,2.124-18.066,1.142-10.294,1.686,32.678,1.428.114,1.3-6.121,1.518,9.7,1.436-.075,1.74-34.852,1.086,8.4,1.435-.009L326.222,84.9l2.1-5.216,1.133-3.822,1.731,15.718,1.439-.022,1.353-16.893,1.489,21.37,3.284,3.264,2.378-12.815,2.108-20.434,1-1.122,1.861,10.432,1.431-.068L349.38,52.9l.978,2.609,2.115,22.647,1.4.173,2.132-6.064,2.146-8.967,1.359-11.669,1.467,15.226,1.44-.021,2.125-32.063,1.233-11.543,1.618,25.8,3.434,1.714,2.22-22.373,2.058-7.551L376.163,20l1.863,7.653,1.416-.065,1.691-11.428,1.229,3.746,2.072,1.9,2.088,14.067,1.432-.01,2.131-15.93,1.084-3.9L392.9,33.429l1.388.2,2.146-5.274L395.1,27.81l-1.047,2.574-1.829-18.335-1.417-.121-2.141,7.72L387.2,30.6l-1.413-9.508-2.17-2-2.066-6.3-1.4.12-1.6,10.793L377.04,17.5l-3.2,2.475-2.218,8.135L369.6,48.51l-.813-.406-2.1-33.476-1.439-.031-2.142,20.052-1.54,23.221L360.3,44.727l-1.437-.014-2.133,18.331-2.11,8.812-1.012,2.88-1.83-19.554-2.174-5.81-1.4.194-1.662,20.078-1.411-7.912-3.284,3.7L339.7,86.274l-1.869,10.068-.959-.952-2.122-30.453-1.441-.008-1.517,18.936L330.5,72.136l-1.411-.126L326.956,79.2l-2.148,5.332-1.452,12.348-1.37-10.6-1.439.057-1.794,35.908-1.038-6.631-1.42-.039-.974,4.572-1.859-36.073-1.441-.042L309.9,103.168v-.005L308.59,114.3l-1.5-16.761-2.155-8.636-1.419.1-1.828,18.018-1.154-2.864-3.231-1.139L295.011,114.4l-1.033,6.143-1.785-34.956-1.385-.248-1.615,3.747-1.385-2.066-1.314.29-1.521,9.809-1.34-6.31-2.157-4.732-1.351.1-2.148,7.443-1.8,33.538-1.039-5.553-2.112-8.534L270.9,78.336l-1.428-.105-2.142,10.118-2.128,12.226-1.489,13.29-1.341-9.6-2.406-6.28-3.054.884-1.234,2.274-1.817-12.153-2.123-18.672-1.437.016-2.11,23.023-1.182,1.755-1.865-5.875-3.243.208-1.687,8.985L238.541,93l-3.111,3.766-2.14,18.02-1.3,3.055-1.566-5.182-1.41.139L227.6,127.41l-1.4-13.764-2.155-7.733H222.65l-2.145,7.746-1.569,23.512-1.3-12.285-2.158-.291-2.046-14.835-1.432.005-2.12,16.1-1.8,10.779-1.838-3.262-1.636,3.831-1.8-15.079-1.423-.074-2.127,9.278-2.125,5.273-2.144,9.432L193.4,160.335l-1.255-7.474-2.121-34.452-1.435-.065-2.129,13.881-2.121,26.882-2.107,2.244L180.593,173.3l-1.242-5.159-1.379-.088L176.2,172.7l-1.173-.918-2.032-6.625-2.136-27.185-1.433-.059L167.3,151.036,165.53,169.2l-1.078-3.643-2.11-10.021-2.123-21.677-2.132-10.585-1.422.033-2.144,13.867L153.3,147.406,151.7,124.655l-2.278-2.882-1.286.4-2.108,30.2-2.092,2.664-1.8,8.684-1.094-1.687-2.1-17.456-1.429-.038-1.051,6.034-1.781-30.8-1.44-.036L131.11,139.45l-1.656,12.817-1.54-5.683-3.052,3.664-1.072,1.6-1.883-14.837-2.206-12.1-3.035-1.714-2.337,3.975-.973.274-2.093-38.863-1.437-.055-2.129,16.3-2.116,46.695-1.3,2.284-1.557-4.078-2.108-10.484L98.493,127.5l-1.426.03L95.44,139.327l-1.267-5.116L92,131.9l-2.09-4.419-1.366.185-1.459,8.375-1.367-6.883-1.383-.122-2.162,5.532L80.726,155.6l-1.388-19.279-1.443.008L76.253,162.93l-1.188-9.521-2.133-8.182v0l-2.125-8.288-1.42.121-2.038,25.455-.844-.412-2.072-14.54L62.287,133.7l-2.875-4.249-1.878,3.2-1.764-5.632-3.33-.7-2.218,24.149Z" transform="translate(15.103 3.587)" fill="#050605"/>
  <path id="Trazado_704949" data-name="Trazado 704949" d="M352.8,29.221l-.2-2.467-.684-10.9-1.439-.031-.183,1.705.182-2.037,1.44.018Zm10.453.018-.462-2.281.467,1.917,1.418-.065.165-1.119-.161,1.484-1.427.064m9.181,2.585-1.413-9.508-.561-.516-.555-5.116-1.028,2.189-.519-.055-1.571-4.793-.366.031-.062-.263-.029.271-.946.081-.628,4.247-.826,4.317,1.45-13.264,1.422-.086,1.649,7.019,1.238-2.64,1.374.229,1.5,13.841,1.331-9.365L376.03,7.873l1.426.059,1.9,16.2,1.059-1.485,1.176.838L379.446,26.5l-.619-.159-.592-5.272-.778-7.8-.839-.072-.069-.591-.117.575-.392-.034-2.141,7.72-1.466,10.955m-23.288,13.7.594-8.967.038-.507,1.244-10.338L349.777,39.72l-.632,5.805m5.848.983-.16-.291,2.021-17.227L359.2,15.809l3.29,2.332.711,3.521-.857-2.672-.066-.274-.017.013-.018-.056-.992.624-.062-.308-.963-.683-.327,1.841-.823.516-.747,3.279-1.467,5.384-.745,7.5-1.119,9.679M354,49.092l-.1-1.553.636,1.171-.54.382M342.673,58.1l1.422-14,1.433-.027,1.311,9.311.7-6.472-.756,10.421L345.53,45.752l-1.435-.005L342.673,58.1m-14.331,7.136.121-1.151.411-.332-.285,1.2-.247.278m10.2,6.831-1.1-11.129-.424-4.533-1.353-3.617-.064-.844-.532-.745-.226-.6-1.4.194-.99,11.942-.6,5.7-1.44-7.771-.588.475-.113-.886-.286,1.21-1.837,1.487,1.631-6.9,1.42.074,1.273,9.941,1.535-17.432,1.307-.356,2.259,3.162,1.532,20.635m-.739,9.569-.453-6.116.359,3.858,1.4.172.289-.823.481-.342.291-1.855.57-1.621.493-1.085,2.154-9.29.194-1.673.489-4.213-.679,6.694-2.179,13.868L337.8,81.635m-20.78,1.755-1.288-10.845-.909-.1-.183-2.475-1.056,4.458-.014.109-1.381,3.876-1.128,3.555,1.1-7.808,2.149-9.074,1.424.112,1.32,17.789-.035.406m.838,10.532-1.441,0-.26-3.508.263,2.387,1.439-.022,1.353-16.893.03.406-1.383,17.633m-7.357.319.955-8.123.736-1.83-.73,5.179L310.5,94.24m12.581,1.277-.973-1.345L320.5,72.48,322.115,90.7l1.191,3.387-.225,1.432m-51.247,1.994.057-.4.117.083-.174.317m-50.393,6.181.183-1.552,1.2-2.553,1.123.091.411,1.338-1.059-1.2-1.857,3.88m30.626,4.938.5-2.843,2.14-10.557.942.061.027.436-.97-.057-2.129,11.441-.51,1.519m31.243,2.625,1.251-2.644.964.049.552,1.367-.922-.795-1.844,2.023m21.031.862,1.441-27.331,1.436-.064L308.386,93l-1.171-6.541-1.432.086-1.441,25.571m-10.57,1.073-.431-3.028-.4-4.438.864,6.12,1.328-7.53,1.186-10.953-.515,4.949-.674,6.078v-.005l-.173,1.475-1.188,7.332m-7.112,2-1.388-3.939,0-.005,2.6,2.244,1.868-13.866.088.276-1.777,15.134-1.4.156m17.37,2.474-1.078-7.089-1.422-.035-1.015,5.018-1.6-27.406,1.612,24.906,1.007-4.3,1.422.073,1.093,8.533-.017.3M239.775,119.4l-2.111-11.883-1.579-14.549-1.349,7.652h-3.1l-1.942-2.73-1.309.931-2.06,8.758-1.4.033-1.4-4.919.134-.282,2.278,2.586,2.4-7.912,1.7-1.21.994,1.4.747,2.353.451-.671.159.222h1.142l.341-1.937.843.477,1.306-9.986.346.012,1.3,11.652v0l2.114,20.01m4.962,1.315-1.791-1.558-.061-.008-.473-2.008-.865,1.847-.368-.044-.222-2.106,1.029-2.193,1.358.142,1.394,5.929m-45.088,7.174-.169-.78.06.008.109.773m-96.781.424-.1-.1.044-.007.052.108m-1.47.371.052-.3.026,0-.078.3m41.569,1.381-.458-.016.029-.2h.386l.043.211m53.264.03.291-2.694.017-.1.843-6.4,1.185-.02.766,5.558-.682-3.146-1.422.048-1,6.757m64.031.009-.838-.978-.4-1.687-.836-.594-.614-9.3.182.738.483,6.828,1.255.891.769,4.1m-12.72,2.21-1.289-6.389-2.128-1.5-.688-2.927.855.744h0l1.015.886.1.433.861.607,1.275,8.146m2.638.108,1.687-18.656,1.605-4.775-1.6,9.078-1.69,14.354m-48.062.336-.552-.07.052-.074.5.134v.01m-1.465,3.693-1.3-.319-1.126-7.986,1.244,5.73,1.043.134.017.13.085-.117.943.121.107.9-1.009,1.411m78.888,1.2-1.436-.075-1.977-39.291-1.28,2.7-1.857-1.318-1.958,13.876-1.424.044L267.5,103.2l-1.619-2.3-.717.51.6-2.194.468-.333.414.591.845,2.566,2.137,7.438,1.4-.068,2.1-11.258.065-.118,1.085.77,1.773-3.742.127.026,1.925,36.1,1.428.117,2.127-9.739,2.076-8.63.788-.866-.757,1.6-2.1,10.446-2.125,13.533m-178.79,3.028-1.424-.252.646-3.659.765.2,1.794-6.894,1.1,1.184,1.342,4.915-1.345-2.829-1.154-2.458-1.727,9.794M195.676,142l.858-4.1,1.129-7.627-1.142,10.541L195.676,142m-79.891.2.558-4.763,1.462-10.366-.983,9.138-.473,2.652-.563,3.339m71.621,1.557-.185-1.05.008-.043.177,1.093m-78.6,2.207-1.554-6.86-.112-.879-.259-1.42.235.5,1.727,8.589-.038.075m31.41.744.969-8.12.407-2.631.925-2.98.066.281-1.4,5.909-.965,7.542M109.139,148.5l-.714-.151,0-.02.771.094-.055.077m80.722,1.387-1.029-6.368.916,5.208,1.181-2.513,2.162-3.07,1.233-1.734-.743,3.547-1.4,1.985-.449.956-.633.209-1.24,1.779m-6.868,1.5-.524-.725,2.029-2.881,1.535-6.485-1.547,7.648-1.493,2.443m-28.881.153.836-5.172.259.034.248,3.149-.782-.066-.562,2.055m-32.426.245-.48-8.3.5,8.162-.025.14m-7,1.7-1.54-5.682-.264.317-.583-3.313-1.107.778-1.994,2.829,2.1-4.2.578-.878.641-.451,1.709,8.811.691-.007-.233,1.8m8.234.007h-.065l.464-2.659.077.639-.476,2.02m14.576.983-1.956-18.044-.965-.671-.84,4.166.609-6.089.817.568.353,1.011,1.811,16.6.173,2.456m66.117,1.212L201.7,135.35l1.917,16.142,1.437-.031,2.11-28.218,1.495-2.7,1.361,1.908,2.107,21.3h1.44l1.856-19,1.645,3.675.033-.066.069.286.265-.942,2.5-4.918,1.2-9.616-1.19,10.96-2.138,7.594-1.4-.03L215.294,127l-1.729,19.641-1.44,0-2.114-22.464-1.335-2.819-1.509,4.281-2.115,30.027-1.44.017m-74.328.407,1.964-11.16.931-4.616-.143,2.06-.792,7.929-1.147,4.75-.813,1.037m-1.3,5.842-.736-.036-1-2.547-.671-1.847-.952-7.912,1.636,5.806,1.545,4.35,1.132-2.408-.953,4.594m39.962,7.734.254-1.835,1.366-1.941.339-3.815.016-.018-.362,4.057-1.613,3.552m-17.185.752-.389-1.315-.682-2.858-2.119-13.466h0l-1.052-6.777-.06-.618,1.107,7.076,2.119,9.027,1.219,5.99,1.383-12.743-1.527,15.683m10.092,3.044-.6-.467-.494-1.616.476.338.615,1.744m17.215.347-2.129-12.077-1.751-24.844-.618,3.058.646-3.52,1.727,24.289,1.825,4.432.3,1.77.252-.006.32,1.814.216-1.83.643-.018.675-6.117.986-7.352.6-1.268.969,1.338-1.1,2.34-2.128,17.95-1.428.042m-12.242.7-.337-1.394.743-1.583-.406,2.977m-1.051,1.815-.735-1.1.351-.494.384,1.595m-1.3,1.545.33-.389.07.1-.4.286m-2,.116-.6-.105-1.246-3.541L161.747,176l.375,1.065.375-.267-1.018,1.19" transform="translate(29.87 2.368)" fill="#4daae1"/>
  <path id="Trazado_704950" data-name="Trazado 704950" d="M363.134,17.171l.628-4.248.947-.081-.108.985-.834.026Zm3.6.427-.594-.062-.965-3.728-.148.005-.229-.978.364-.031,1.573,4.794m-6.018.173-.083-.261.016-.013.068.274m15.895,2.081-.779-6.954-.734-.04-.1-.881.839.073.778,7.8m-25.631,5.682-.684-8.621-1.439-.03-.9,7.456.714-8.036.182-1.705,1.44.033.684,10.9m10.654,2.121-.467-1.917-1-4.93,1.476,4.6,1.4-.085.692-3.624-.522,4.768-.167,1.12-1.416.065m9.195,3.083-1.466-8.089-.319-.144-.208-1.925.561.516,1.413,9.508,1.466-10.955,2.141-7.72.392.033-.176.871-.225-.012-2.132,9.556-1.446,8.36M354.491,35.61l.744-7.5,1.469-5.384-1.469,6.454-.744,6.433M347.36,45.816l.758-10.477-.594,8.966-.164,1.511m3.706,2.992L349.736,28.1,351,43.945l1.29,2.374.1,1.553-1.318.935M335.814,59.716l-.432-4.356-1.2-1.877-.142-1.917,1.353,3.617.424,4.533m-4.986,1.791.99-11.942,1.4-.194.226.6-.354-.5-.217,2.458-1.051.248-.991,9.321m11.13.131.531-4.611-.04.4-.49,4.212m-3.409,13.669.088-.563.481-1.059-.57,1.622m-1.061,3.02-1.4-.172-.36-3.858-.248-3.334.61,6.134,1.311.216.034.436.345-.246-.289.823M314.8,91.578l-.263-2.387-.4-5.423.667,5.6,1.437-.023,1.354-15.864.074,1-.047.588-.029-.406-1.353,16.893-1.439.022m-18.658.689.01-.095v0l-.01.092m26.816,1.818L324.743,82.7l1.977-18.69.247-.278-.1.414-2.127,21.068-1.786,8.868M230.15,98.4l-.747-2.353,1.2,1.683-.451.67m77.562.418-1.424-.042-.951-6.759.955,5.345,1.426-.013,2.115-13.066,1.021-3.217-.284,2-.736,1.83-.955,8.123-1.167,5.8m-84.693,1.3-.284-.32-.411-1.34.226.018.468,1.642m70.317,4.521.174-1.475v.005l.674-6.078-.672,6.47-.176,1.078m-1.617,4.3-1.031-7.244-1.647-5.192,1.64,3.465.64,4.533.4,4.438m-6.841.229-.424-.364-.553-1.367.372.018.6,1.713m-66.805,2.607.953-8.781.976-2.076-.183,1.552-.79,1.647-.956,7.659m38.059,5.281-.182-.738-1.436-21.788-.461-.026-.027-.437.486.031,1.619,22.958m45.888,7.31-.693-5.415.7,4.575,1.436-.069.7-12.444-.7,13.3-1.439.053m-104.1,1.524-.061-.008-.146-.672-.766-5.558h.092l.881,6.24m-3.018.285.7-6.5.155,0-.842,6.4-.017.1m-54.832,3.378.22-.925h.628l-.03.2-.585-.021-.233.751m60.494,1.986-.066-.008v-.01l.068.018m59.186,1.755-1.044-4.341-.064-.075-.769-4.1.81.575,1.081,4.546,1.843-30.107.676-.48-.692,2.551L259.749,133.3m-58.234.676-.267-2.246.056.016.211,2.231M105.63,137.89l-.125-.551-.79-2.894.544,1.146.259,1.42.112.879m24.787,3.27.142-2.06.122-.607-.264,2.668m14.482,3.629-1.076-6.935-2.129-9-.349-.013-.043-.211h.393l2.128,9.05,1.016,6.488.06.618m-38.1,2.341-.217-.046.215.026,0,.02m30.639,7.362-1.435-.013-.133-1.223L135.7,150.8l.306,2.806,1.436.008,2.115-17.54.414-1.331-.407,2.631-.97,8.12-1.152,9m-24.837.034-1.344-7.625.264-.317,1.54,5.683.232-1.8.734-.008,1.563-9.27-1.558,13.293-1.431.042m11.351,1.761-1.013-2.8-1.052-3.734-.117.5-.077-.639-.463,2.659h-.081l-.946,2.449-1.924-28.883-1.433-.079-1.651,9.235.985-9.138.663-4.7,1.436.056,1.3,21.048.48,8.3.025-.14.033.538,1-4.265,1.4-.031.481,1.705.952,7.914m2.5,4.434-.094,0,.953-4.594.206-.437.143-.812.813-1.035-.955,3.948-1.067,2.934m41.828.138,1.787-20.126.459-2.275-.459,2.5-1.77,19.88-.017.017m8.952,4.82.122-1.03.518-.068.676-5.038-.674,6.117-.643.018m-.79.022-.3-1.772.342.83.042-.005.165.94-.252.006m-27.184,4.325-.51-2.138.389,1.315,1.527-15.683.248-2.3,2.15-6.108.26.034-.838,5.172-1.574,5.753-1.653,13.952m10.864,4.754-2.116-1.657-.6-1.708-.464-.329-.341-1.141-2.135-21.56-.635-.053-.247-3.15.882.112,2.112,23.762,1.562,1.107.494,1.617.6.467.894,2.534m3.153.514-.124-.186-.384-1.595,1-1.413.1-.2.336,1.394.407-2.977,1.286-2.735.68-.965-.252,1.834-.486,1.073-.834,3.339-1.727,2.432" transform="translate(31.491 3.587)" fill="#2a7395"/>
  <text id="Promedio_anual" data-name="Promedio anual" transform="translate(65.473 20.03)" fill="#050605" font-size="11" font-family="ArialMT, Arial"><tspan x="0" y="0">Promedio anual</tspan></text>
  <g id="Grupo_974116" data-name="Grupo 974116">
    <g id="Grupo_974115" data-name="Grupo 974115" clip-path="url(#clip-path)">
      <path id="Trazado_704951" data-name="Trazado 704951" d="M37.691,312.788H410.169m-355.458,0v-4.095" transform="translate(11.335 92.833)" fill="none" stroke="#050605" stroke-miterlimit="2.5" stroke-width="0.98"/>
    </g>
  </g>
  <text id="_5" data-name=" " transform="translate(64.534 415.781)" fill="#050605" font-size="8" font-family="ArialMT, Arial"><tspan x="0" y="0"> </tspan></text>
  <line id="Línea_237" data-name="Línea 237" y1="4.095" transform="translate(172.483 401.526)" fill="none" stroke="#050605" stroke-miterlimit="2.5" stroke-width="0.98"/>
  <text id="_6" data-name=" " transform="translate(170.97 415.781)" fill="#050605" font-size="8" font-family="ArialMT, Arial"><tspan x="0" y="0"> </tspan></text>
  <line id="Línea_238" data-name="Línea 238" y1="4.095" transform="translate(278.898 401.526)" fill="none" stroke="#050605" stroke-miterlimit="2.5" stroke-width="0.98"/>
  <text id="_7" data-name=" " transform="translate(277.384 415.781)" fill="#050605" font-size="8" font-family="ArialMT, Arial"><tspan x="0" y="0"> </tspan></text>
  <line id="Línea_239" data-name="Línea 239" y1="4.095" transform="translate(385.32 401.526)" fill="none" stroke="#050605" stroke-miterlimit="2.5" stroke-width="0.98"/>
  <text id="_8" data-name=" " transform="translate(383.806 415.781)" fill="#050605" font-size="8" font-family="ArialMT, Arial"><tspan x="0" y="0"> </tspan></text>
  <g id="Grupo_974118" data-name="Grupo 974118">
    <g id="Grupo_974117" data-name="Grupo 974117" clip-path="url(#clip-path)">
      <path id="Trazado_704952" data-name="Trazado 704952" d="M76,359.16v-2.037m21.284,2.037v-2.037m21.289,2.037v-2.037m21.285,2.037v-2.037m42.559,2.037v-2.037m21.288,2.037v-2.037m21.285,2.037v-2.037m21.289,2.037v-2.037m42.573,2.037v-2.037m21.288,2.037v-2.037m21.268,2.037v-2.037m21.286,2.037v-2.037m42.579,2.037v-2.037M37.691,154.494H410.169m-355.458,0v4.093m106.437-4.093v4.093m106.415-4.093v4.093m106.422-4.093v4.093M76,154.494v2.055m21.284-2.055v2.055m21.289-2.055v2.055m21.285-2.055v2.055m42.559-2.055v2.055m21.288-2.055v2.055m21.285-2.055v2.055m21.289-2.055v2.055m42.573-2.055v2.055m21.288-2.055v2.055m21.268-2.055v2.055m21.286-2.055v2.055m42.579-2.055v2.055M37.691,359.16V154.494m0,190.83h7.448" transform="translate(11.335 46.461)" fill="none" stroke="#050605" stroke-miterlimit="2.5" stroke-width="0.98"/>
    </g>
  </g>
  <text id="_0_6-3" data-name="−0,6" transform="translate(24.714 393.995)" fill="#050605" font-size="10" font-family="ArialMT, Arial"><tspan x="0" y="0">−0,6</tspan></text>
  <line id="Línea_240" data-name="Línea 240" x2="7.448" transform="translate(49.026 360.994)" fill="none" stroke="#050605" stroke-miterlimit="2.5" stroke-width="0.98"/>
  <text id="_0_4-3" data-name="−0,4" transform="translate(24.714 363.219)" fill="#050605" font-size="10" font-family="ArialMT, Arial"><tspan x="0" y="0">−0,4</tspan></text>
  <line id="Línea_241" data-name="Línea 241" x2="7.448" transform="translate(49.026 330.219)" fill="none" stroke="#050605" stroke-miterlimit="2.5" stroke-width="0.98"/>
  <text id="_0_2-3" data-name="−0,2" transform="translate(24.714 332.421)" fill="#050605" font-size="10" font-family="ArialMT, Arial"><tspan x="0" y="0">−0,2</tspan></text>
  <line id="Línea_242" data-name="Línea 242" x2="7.448" transform="translate(49.026 299.445)" fill="none" stroke="#050605" stroke-miterlimit="2.5" stroke-width="0.98"/>
  <text id="_0_0-2" data-name="0,0" transform="translate(31.065 302.648)" fill="#050605" font-size="11" font-family="ArialMT, Arial"><tspan x="0" y="0">0,0</tspan></text>
  <line id="Línea_243" data-name="Línea 243" x2="7.448" transform="translate(49.026 268.668)" fill="none" stroke="#050605" stroke-miterlimit="2.5" stroke-width="0.98"/>
  <text id="_0_2-4" data-name="0,2" transform="translate(31.065 271.874)" fill="#050605" font-size="11" font-family="ArialMT, Arial"><tspan x="0" y="0">0,2</tspan></text>
  <line id="Línea_244" data-name="Línea 244" x2="7.448" transform="translate(49.026 237.895)" fill="none" stroke="#050605" stroke-miterlimit="2.5" stroke-width="0.98"/>
  <text id="_0_4-4" data-name="0,4" transform="translate(31.065 241.101)" fill="#050605" font-size="11" font-family="ArialMT, Arial"><tspan x="0" y="0">0,4</tspan></text>
  <line id="Línea_245" data-name="Línea 245" x2="7.448" transform="translate(49.026 207.12)" fill="none" stroke="#050605" stroke-miterlimit="2.5" stroke-width="0.98"/>
  <text id="_0_6-4" data-name="0,6" transform="translate(31.065 210.327)" fill="#050605" font-size="11" font-family="ArialMT, Arial"><tspan x="0" y="0">0,6</tspan></text>
  <g id="Grupo_974120" data-name="Grupo 974120">
    <g id="Grupo_974119" data-name="Grupo 974119" clip-path="url(#clip-path)">
      <path id="Trazado_704953" data-name="Trazado 704953" d="M325.774,359.161V154.495m0,190.83h-7.447m7.447-30.791h-7.447m7.447-30.775h-7.447m7.447-30.775h-7.447m7.447-30.777h-7.447m7.447-30.773h-7.447m7.447-30.775h-7.447" transform="translate(95.73 46.461)" fill="none" stroke="#050605" stroke-miterlimit="2.5" stroke-width="0.98"/>
    </g>
  </g>
  <rect id="Rectángulo_339770" data-name="Rectángulo 339770" width="21.29" height="24.762" transform="translate(66.046 336.85)" fill="#bdbcbc"/>
  <rect id="Rectángulo_339771" data-name="Rectángulo 339771" width="21.29" height="24.762" transform="translate(66.046 336.85)" fill="none" stroke="#fff" stroke-miterlimit="2.5" stroke-width="0.278"/>
  <text id="_1850" data-name="1850" transform="translate(54.075 420.614)" fill="#050605" font-size="11" font-family="ArialMT, Arial"><tspan x="0" y="0">1850</tspan></text>
  <rect id="Rectángulo_339772" data-name="Rectángulo 339772" width="21.284" height="23.087" transform="translate(87.336 339.91)" fill="#bdbcbc"/>
  <rect id="Rectángulo_339773" data-name="Rectángulo 339773" width="21.284" height="23.087" transform="translate(87.336 339.91)" fill="none" stroke="#fff" stroke-miterlimit="2.5" stroke-width="0.278"/>
  <rect id="Rectángulo_339774" data-name="Rectángulo 339774" width="21.289" height="20.16" transform="translate(108.62 329.446)" fill="#bdbcbc"/>
  <rect id="Rectángulo_339775" data-name="Rectángulo 339775" width="21.289" height="20.16" transform="translate(108.62 329.446)" fill="none" stroke="#fff" stroke-miterlimit="2.5" stroke-width="0.278"/>
  <rect id="Rectángulo_339776" data-name="Rectángulo 339776" width="21.285" height="19.386" transform="translate(129.909 335.922)" fill="#bdbcbc"/>
  <rect id="Rectángulo_339777" data-name="Rectángulo 339777" width="21.285" height="19.386" transform="translate(129.909 335.922)" fill="none" stroke="#fff" stroke-miterlimit="2.5" stroke-width="0.278"/>
  <rect id="Rectángulo_339778" data-name="Rectángulo 339778" width="21.289" height="20.155" transform="translate(151.194 345.463)" fill="#bdbcbc"/>
  <rect id="Rectángulo_339779" data-name="Rectángulo 339779" width="21.289" height="20.155" transform="translate(151.194 345.463)" fill="none" stroke="#fff" stroke-miterlimit="2.5" stroke-width="0.278"/>
  <rect id="Rectángulo_339780" data-name="Rectángulo 339780" width="21.268" height="18.461" transform="translate(172.483 353.767)" fill="#bdbcbc"/>
  <rect id="Rectángulo_339781" data-name="Rectángulo 339781" width="21.268" height="18.461" transform="translate(172.483 353.767)" fill="none" stroke="#fff" stroke-miterlimit="2.5" stroke-width="0.278"/>
  <text id="_1900" data-name="1900" transform="translate(160.496 420.614)" fill="#050605" font-size="11" font-family="ArialMT, Arial"><tspan x="0" y="0">1900</tspan></text>
  <rect id="Rectángulo_339782" data-name="Rectángulo 339782" width="21.288" height="17.553" transform="translate(193.751 350.839)" fill="#bdbcbc"/>
  <rect id="Rectángulo_339783" data-name="Rectángulo 339783" width="21.288" height="17.553" transform="translate(193.751 350.839)" fill="none" stroke="#fff" stroke-miterlimit="2.5" stroke-width="0.278"/>
  <rect id="Rectángulo_339784" data-name="Rectángulo 339784" width="21.285" height="16.012" transform="translate(215.039 329.139)" fill="#bdbcbc"/>
  <rect id="Rectángulo_339785" data-name="Rectángulo 339785" width="21.285" height="16.012" transform="translate(215.039 329.139)" fill="none" stroke="#fff" stroke-miterlimit="2.5" stroke-width="0.278"/>
  <rect id="Rectángulo_339786" data-name="Rectángulo 339786" width="21.289" height="14.779" transform="translate(236.324 310.217)" fill="#bdbcbc"/>
  <rect id="Rectángulo_339787" data-name="Rectángulo 339787" width="21.289" height="14.779" transform="translate(236.324 310.217)" fill="none" stroke="#fff" stroke-miterlimit="2.5" stroke-width="0.278"/>
  <rect id="Rectángulo_339788" data-name="Rectángulo 339788" width="21.284" height="13.684" transform="translate(257.613 292.989)" fill="#bdbcbc"/>
  <rect id="Rectángulo_339789" data-name="Rectángulo 339789" width="21.284" height="13.684" transform="translate(257.613 292.989)" fill="none" stroke="#fff" stroke-miterlimit="2.5" stroke-width="0.278"/>
  <rect id="Rectángulo_339790" data-name="Rectángulo 339790" width="21.289" height="13.701" transform="translate(278.897 302.064)" fill="#bdbcbc"/>
  <rect id="Rectángulo_339791" data-name="Rectángulo 339791" width="21.289" height="13.701" transform="translate(278.897 302.064)" fill="none" stroke="#fff" stroke-miterlimit="2.5" stroke-width="0.278"/>
  <text id="_1950" data-name="1950" transform="translate(266.912 420.614)" fill="#050605" font-size="11" font-family="ArialMT, Arial"><tspan x="0" y="0">1950</tspan></text>
  <rect id="Rectángulo_339792" data-name="Rectángulo 339792" width="21.288" height="12.158" transform="translate(300.186 301.604)" fill="#bdbcbc"/>
  <rect id="Rectángulo_339793" data-name="Rectángulo 339793" width="21.288" height="12.158" transform="translate(300.186 301.604)" fill="none" stroke="#fff" stroke-miterlimit="2.5" stroke-width="0.278"/>
  <rect id="Rectángulo_339794" data-name="Rectángulo 339794" width="21.268" height="11.064" transform="translate(321.474 305.764)" fill="#bdbcbc"/>
  <rect id="Rectángulo_339795" data-name="Rectángulo 339795" width="21.268" height="11.064" transform="translate(321.474 305.764)" fill="none" stroke="#fff" stroke-miterlimit="2.5" stroke-width="0.278"/>
  <rect id="Rectángulo_339796" data-name="Rectángulo 339796" width="21.286" height="12.776" transform="translate(342.743 278.672)" fill="#bdbcbc"/>
  <rect id="Rectángulo_339797" data-name="Rectángulo 339797" width="21.286" height="12.776" transform="translate(342.743 278.672)" fill="none" stroke="#fff" stroke-miterlimit="2.5" stroke-width="0.278"/>
  <rect id="Rectángulo_339798" data-name="Rectángulo 339798" width="21.29" height="14.917" transform="translate(364.03 250.516)" fill="#bdbcbc"/>
  <rect id="Rectángulo_339799" data-name="Rectángulo 339799" width="21.29" height="14.917" transform="translate(364.03 250.516)" fill="none" stroke="#fff" stroke-miterlimit="2.5" stroke-width="0.278"/>
  <rect id="Rectángulo_339800" data-name="Rectángulo 339800" width="21.289" height="16.629" transform="translate(385.32 221.267)" fill="#bdbcbc"/>
  <rect id="Rectángulo_339801" data-name="Rectángulo 339801" width="21.289" height="16.629" transform="translate(385.32 221.267)" fill="none" stroke="#fff" stroke-miterlimit="2.5" stroke-width="0.278"/>
  <text id="_2000" data-name="2000" transform="translate(373.327 420.614)" fill="#050605" font-size="11" font-family="ArialMT, Arial"><tspan x="0" y="0">2000</tspan></text>
  <text id="Promedio_decenal" data-name="Promedio decenal" transform="translate(65.473 220.791)" fill="#050605" font-size="11" font-family="ArialMT, Arial"><tspan x="0" y="0">Promedio decenal</tspan></text>
  <path id="Trazado_704954" data-name="Trazado 704954" d="M359.806,18.453l.086-.476,1.351-.849.036.186Zm3.939,3.768-.55-2.729.587,1.826.148-.78-.185,1.683M351.16,24.69l-.111-1.4-.031.251.04-.458.1,1.605m28.124,4.745-.527-5.278.066.017.4,3.607,1.091-3.018,1.359.493L381,27.132l-.67-.272-1.046,2.574M371.02,30,369.7,22.7l-2.09-.943-1.4-5.425-.026.13.185-1.251,1.229,3.745,1.029.946.213.823.869.393L371.02,30m2.689.986,1.606-12,1.084-3.9.4,3.967-.3-2.646-1.182,5.3-1.606,9.281m-16.163,3.829.734-7.4,1.444-5.294-1.444,6.345-.734,6.349M347.54,44.736l.754-10.421-.592,8.918-.163,1.5m6.42.444L352.8,27.05l1.233,15.524.8,1.472-.065.562-.805.571m.851,1.855-.269-.5.419-.3-.077.778-.073.014M342.144,60.491l.526-4.563-.039.4-.487,4.166m-8.258.206.724-8.746.977,2.609.407,4.352-.4-4.014-.938-1.463-.771,7.262m-4.356,1.022-.108-.585-.551.447.544-2.3.4-.324.274,2.133-.558.628m9.307,12.068-.052-.557-.248-3.335.342,3.439L339.4,72.2l-.559,1.591m-25.6.938.334-2.36.765-2.149.489.056.062.839-.564-.051-1.086,3.664m3.887,6.982-.066-.894,1.487-17.419,1.44.008.514,6.908-.337-3.792-.177-2.531-1.44-.008-1.42,17.728m-20.8,9.484.935-8.972,1.44.033.217,3.729-.219-3.373-1.439-.031-.935,8.615m27.012.8-.027-.077,1.623-10.349,2.159-20.4.492-.4-.519,2.19-2.131,21.094-1.6,7.94m-14.582,1.444-.365-2.6.2,1.147L310.041,83l1.016-3.2-.274,1.946-.743,1.846-.972,8.258-.32,1.591m-76.5.718-.009-.007-1.861-5.862-1.712.109.5-1.774,1.38-.036,2.059,6.11.454.256-.809,1.2m1.614.912-.352-.2.525-.78-.173.979m56.6.074-.35-.739-.571.092.051-.5.555-.048.075.237.239.96m32.6.252-.959-.952-.138-1.978.875,2.488.306-.022-.085.464m-95.805.285,1.093-5.813.994-.064.229.721-1.137,4.048-.1.342-1.076.766m45.937.19-1.186-.843,1.952-3.576.516-.64.226.338.572-1.328.868-1.077.047.016.215,4.207-.225-.044-.095-1.8-.917,1.137-1.973,3.612m-47.64,6.5-.48-1.682.887-.051-.407,1.733m70.838,1.521.177-1.508.679-6.119-.679,6.537-.177,1.089m-26.2,3.12-1.333-6.563-2.214-3.141-.522-1.588-.36,1.331-1.388.983.094-1.734.891-3.284,1.384-.036,2.127,6.469,1.3,4.528.688-3.686.176-.005.751-4.847.053-.094-1.648,11.669m21.718,1.147-1.009-7.086-1.06-3.343.051-.434,1.016,2.147.6,4.277.4,4.439m-4.918,1.443-.107-.3.143-.021-.036.319m-2.464.3.593-1.253.155.434-.748.818M221.128,111l.93-8.554,1.251-2.665.211.743-1.466,3.062L221.128,111m19.7,3.932-1.739-9.791-2.12-19.549-.615-.021-.16-1.432-.186,1.42-.47-.014-.077.438.727-7.936.312,0,1.156,10.178,1.708,11.422,1.586,15.018-.122.263m63.227.367-.014-.107.3-5.242-.282,5.349m-3.486,3.824-.022,0-.164-3.2.433.035,1.207-5.148.492,3.85-.081,0-.3-2-.4,1.978-.206-.005-.956,4.49m-19.841.135.931-5.541.644-3.2.109-.446.894-.981-.926,1.956-1.652,8.214m-37.3.072-1.1-.96-2.47-.3-.087-.838.034.2,1.367.182.371-.792,1.338.161.552,2.35m-36.774,1.238.118-1.785,1.722-3.107,2.073,2.9.161,1.592-1.5-3.179-1.335.068-1.237,3.507m10.437,5.622-1.43-6.041-.782.056.057-.589.68-.111,1.523,3.4,1.379-2.715.471-3.77.122-.286-.6,5.554-1.084,3.849-.334.656m-115.623.025.183-.706.239-.406.873.939-1.3.173m96.188,1.893.375-3.455.186,1.323-.146-.672-.415,2.8m81.534.247-.1-2.019.415.023-.314,2m-30.358.92-1.284-6.368-1.289-.908-.036-.233-.926-.808-.567-2.412.5.437h0l2.336,2.041,1.259,8.046,1.009-11.171.812-7.241,1.41-4.195-1.629,9.226-1.6,13.585m-144.344.339-1.627-3.47,1.237,1.329.39,2.141m96.117,2.239-.1-.013-.862-6.12,1.015,4.683.9.116-.953,1.335m-64.484,1.063-.969-.674-.68-1.945-.137,1.376-.247-.172.329-4.722.341-.042,1.162,3.318.2,2.859m65.57.268-.036-.313.007-.009.03.323m-28.73.285.056-.7.8-4.359.659.036.051.818-.709-.046-.857,4.252m-73,1.13-.633-.164,2.059-7.92-1.426,8.084m148.342.488-.773-4.941.778,3.859,1.426-.059.434-3.693-.432,4.788-1.433.046m-35.493,1.358-.245-2.595h.237l.027.281.027-.281h.182l-.229,2.6m-106.994.751-.1-.451L104.975,134l.516,1.09.217,1.193.116.909m155.277.228-2.1-8.736-2.166-2.534-1.761-26.726-1.1,5.882-.507,1.513.516-2.932,1.081-5.332,1.774,25.165,1.344.952.059.9,1.178,1.377,1.681,7.072,1.426-.122,2.1-34.282.533-.379-.518,1.9-2.115,36.145-1.426.127m-66.781,1.822.787-3.763,1.12-7.556-1.106,10.194-.8,1.125m-60.845,1.087.139-1.986.117-.584-.256,2.57m55.354,1.021-.81-4.6-1.415-.04-.574,2.421.568-2.81,1.422.029.809,5m-43.745,2.67-1.061-6.838-1.441-6.089.025-.1,1.416,6.02,1,6.394.06.614m-35.892,2.235h0l.005-.008,0,.008m29.331.111-.057-.825,1.293-10.719.419-1.354-.425,2.76-.973,8.141-.256,2m-23.73,2.11-1.469-8.327-.808.568-.079-.4-.562.856-1.723,1.215-1.228,1.743-.082-.4,1.2-2.4,2.162-3.288,1.312.26,1.368,7.047.9-5.306-.99,8.439m75.229,1.536-1.3-.3-1.314-8.12,1.315,7.464,1.364.182,1.648-3.509,1.324-.438.523-2.5.691-.978,1.4-1.977L194.3,146.4l-2.289.758-1.987,2.851m-58.846,1.5.117-.669-.04.568-.077.1m49.752.219.5-4.547.077-.018.961,1.325-.051.073-.662,1.409-.358-.5-.238,1.762-.23.492m2.166.09-.371-.511.947-2.017,2.168-3.078,1.364-5.767.017.092-1.368,6.769-2.758,4.512m-61.1,5.516-1.394-.213-1.747-26.245-.6,3.369.68-6.3.829,13.422.84,14.568,1.435.082.631-3.621.252-1.077.721.007.523,4.343-.736-2.03-1.43,3.7m56.635,2.045-.013-.077.118-.884-.105.961m-49.38,1.384,1.065-5.135.215-.457.113-.644.784-1-.9,3.72-1.277,3.515m-1.89,1.994-1.094-1.687-.637-5.3,1.4,3.944.216.012.438,1.113.173-.472-.5,2.389m35.133,11.867,1.455-1.7.09.131-.679.955-.866.617m-.457,2.759-2.97-.528-2.271-7.582-1.764-17.811-1.076,3.936-2.119,17.877-1.419.083-1.445-6.051,1.453,4.906,1.413-.135,1.885-19.36.23-2.127.989-2.806,1.876,21.107,1.7,1.211.485,1.579.025.021,1.164,3.884.679.121.518,1.47,2.084-1.48-1.44,1.684m4.289,1.692-2.448-3.662.519-.369.442-.622.479,1.985,1.419-.072.9-6.558,1.139-2.422,2.2-3.12,2.153-24.251.446-2.209-.445,2.426-2.148,24.117-2.146,4.727-2.505,10.03" transform="translate(29.873 4.536)" fill="#f78034"/>
  <path id="Trazado_704955" data-name="Trazado 704955" d="M364.823,21.493l.861-7.876.428-.013.868,3.7.246.026.858,3.317-1.029-.944-1.228-3.746-.186,1.251Zm-14,6.393-.2-2.456-.1-1.605.02-.23.276,4.291m20.4,6.915-.735-4.057-1.319-8.884.964.434,1.082,9.973,1.435.023,2.136-15.031.934-4.636.466.026L377.6,24.738l.62.159.527,5.278,1.046-2.574.67.272L379,31.921l-1.4-.165-1.34-11.961-.4-3.969-1.084,3.9-1.606,12-.528,3.066-1.424.005m-24.054,9.173.592-8.918.04-.574,1.247-10.352L347.8,38.15l-.632,5.823m7.181,3.788.077-.778,1.166-.827,2.157-18.383,1.523-8.58,1.474-1.139.514,2.544-.366-1.139-1.083.68-.62,2.726-1.444,5.294-.734,7.4-1.381,11.954-1.281.248M345.674,64l-1.422-13.1-.68,5.914.818-8.067,1.288,9.142,1.433-.023,1.331-12.262-1.329,18.366L345.674,64m-14.885,8.139-1.8-9.679.558-.628,1.231,9.616,1.437-.029,1.734-19.689.276-.065,1.031,1.61,1.3,17.482-1.1-11.1-.407-4.352-.977-2.609-.725,8.746-1.132,10.645-1.429.056m7.758,4.979-.065-.01-.233-3.136.052.557.559-1.589.459-1.012,2.1-9.069.187-1.626.485-4.166-.676,6.662-1.7,10.809-1.173,2.581m-21.928,5.817-.036-.486L318,64.72l1.44.008.178,2.531-.178-2L318,65.27l-1.383,17.664m-1.4.624-1.094-9.21-1.1,3.094-1.083,3.414.76-5.39,1.086-3.665.564.051.869,11.707m-41.051,8.329-.226-.338.8-.989-.572,1.327m34.369.7.97-8.258.744-1.846-.75,5.312-.964,4.792m-75.561,3.022-1.262-.713.809-1.2.493.278L235,78.779l.654.007-.727,7.936-1.429,8.1-.525.78m57.151.691-.2-.418-.239-.96.437,1.377m32.275.057-2.241-3.1-1.411-18.987.021-.269,1.384,15.575,1.276,3.625.138,1.978.959.952.086-.463,1.083-.077.345-1.716-.338,2.166-1.3.312M263.364,99.1l.561-2.066-.094,1.734-.467.332m-24.533,1.286-1.708-11.422-1.156-10.18.468,0,2.123,19.01.273,2.587m31.485.637.9-4.793.031-.057-.752,4.847-.176,0m-45.782.4-.433-1.521.665.753L226.51,94.9l1.618-5.77,1.712-.109,1.861,5.862-.829-.468-1.488-4.413-.351,1.255-.229-.721-.994.064-1.093,5.813-.155.111-1.141,4.849-.888.051m61.808,8.615-.38-1.08.3.261,1.942-14.419.849-.074-.051.5-.8.131-1.721,14.657-.142.021m18.9.764,1.05-19.9.127.9-.081-.447-1.1,19.446M293.9,116.681l-1.43-.014-1.106-7.769-.4-4.438,1.5,10.665,1.428.025,2.128-12.06,1.2-11.031-.515,4.948-.678,6.119-.178,1.506L293.9,116.681m-75.442.473.7-5.587-.576,5.3-.122.286m30.847,1.482.6-6.6.215-.64-.812,7.241m53.106.108-.51-3.349.079,0,.431,3.347m-2.4,1.113-1.156-.082-1.623-27.81.021-.187,1.6,24.8.992.083.164,3.2m.274.021-.252-.018.956-4.49.207.005-.911,4.5M101.12,126.246l.135-.516.1.111-.239.406m177.851.851-.415-.023-1.669-33.166-1.022-.2L275.65,89.5l1.237.4,1.837,34.437.987-4.519,2.058-8.564-.643,3.2L280.194,120l-.489,2.436-.734,4.664m-76.64,4.422-.685-.185.674.086.012.1M105.8,134.235l-1.4-2.944,0,0-.444-.944-.39-2.141.829.89,1.4,5.135m106.531.351,1.379-14.118.7-.114-.057.589-.641.047-1.2,13.6h-.182m-.29,0-1.15-12.219-.691-1.457-.161-1.592.844,1.181,1.393,14.087h-.235m-40.425,3.663.871-4.746-.056.7-.816,4.044m-39.849.035,1.061-10.641,1.06-.126-.329,4.722-.5-.35-1.29,6.4m-15.087,2.7.562-4.783,1.125-7.98.03.471-.68,6.3-.481,2.7v-.007l-.557,3.3m21.566,4.126.973-8.14.425-2.761,1.51-4.861-1.932,8.136-.977,7.626m65.447.269L202.6,133.765l1.031,8.7,1.578-21.08,1.034-1.869-.118,1.785-.921,2.614-1.511,21.458m-96.022,1.5-.363-.043-2.017-8.9-.116-.909-.216-1.193.241.507,2.1,10.462.367.077m30.2,1.163-1.5-13.845-.778-.54-.2-2.86,1.005,2.875,1.452,13.314.085-.7.057.825-.118.933m-7.761,7.236.532-3.018.077-.1.04-.568,1.375-7.812.947-4.693-.138,1.986-.805,8.054-1.243,5.152-.784,1m-8.61,1.489-1.433-.082-.842-14.568.843,13.629,1.423.121.64-2.721-.631,3.621m5.005,7.131-2.146-5.457-.732-2.023-.523-4.342.488,0,.436,1.2.319,1.13.749,2.106.639,5.3,1.094,1.687.5-2.389.217-.6.291.016,1.95-4.153-1.065,5.137-.86,2.365-1.351.018m51.113.653-.778-4.416-2.121-30.086-.722-.047-.051-.818.773.043,2.115,29.733,1.052,2.555.2-1.462.013.077.105-.961,1.467-10.927,1.225-.308-.5,4.546-.711,1.517-1.238,10.45-.825.105m-19.119,7.9-.026-.021-.484-1.579.039.029.471,1.571m-8.606.51-1.454-4.906-.7-2.95-2.127-13.525-1.059-6.818-.06-.614,1.123,7.168,2.127,9.06,2.138,10.52,1.427-.066,1.885-17.363-1.885,19.36-1.411.135m14.889,4.194-.477-1.985.059-.082.816,1.219.911-3.651.021-.03.989-2.1-.9,6.558-1.419.072" transform="translate(30.41 3.796)" fill="#a6501c"/>
  <path id="Trazado_704956" data-name="Trazado 704956" d="M361.133,17.051l-.038-.185.994-.624.018.056Zm-2.958,4.46.745-3.279.825-.518-.086.476-.735.568-.749,2.752m5.462.994-1.446-5.946.857,2.672.55,2.728.183-1.683.825-4.317-.969,6.547m15.039,1.407-.065-.018-.525-5.254.59,5.272M349.59,34.125l.038-.565,1.233-11.544.051.805-.04.458-1.245,10.338-.036.507m4.8,12.153-.636-1.171-1.3-20.786.2,2.467,1.163,18.128.805-.571.065-.562.159.293,1.12-9.679L354.814,45.98l-.42.3m-7.746,10.38-1.266-13.143-1.437-.013-1.462,12.56.04-.4,1.422-12.352,1.436,0L346.638,54.9l.754-10.42.164-1.5-.908,13.688M331.626,68.432l-1.411-7.912-.274.31-.274-2.133.588-.476,1.441,7.772.6-5.7-.674,8.136m8.965,4.043.5-1.422,2.147-8.967.193-1.658-.193,1.674-2.155,9.29-.492,1.084m-1.952.493L337.285,58.5l1.1,11.128.248,3.335m-28,8.512.274-1.947,1.128-3.554,1.38-3.876-.333,2.361-1.046,3.529-1.4,3.487m6.238,1.173-1.293-11.729-.845-.075-.062-.839.908.1,1.288,10.845.036-.407.066.894-.1,1.208m5.818,12.034-.875-2.488-1.808-25.943.337,3.793,1.612,21.692.974,1.344.225-1.432.026.078,1.6-7.94L326.912,62.7l.519-2.192,1.837-1.487-.545,2.3-.41.332-.121,1.151-1.262,1.423-2.149,20.838L323,94.666l-.306.021m-88.135.593-.843-.477.172-.979.8-1.181.635-6.924.077-.438.468.016-1.3,9.984m34.915,11.766-2.138-7.438-.844-2.566,2.214,3.141,1.333,6.563,1.647-11.669.173-.317,1.188.843-.065.117-2.1,11.258-1.4.068m24.2,6.047-.481-5.363.431,3.027,1.186-7.332-1.136,9.668m-52.648,4.251-1.366-.181-.035-.2-2.114-20.01v0l-1.3-11.653.614.021,2.121,19.549,1.739,9.791.122-.263.222,2.1.367.044-.371.792m4.129,3.347-1.015-.886h0l-.853-.743-.553-2.349.061.008,1.791,1.557.567,2.412m58.686.346-1.039-6.631-.429-.012-.493-3.85-1.207,5.15-.433-.036-1.691-32.791-1.441-.042-1.449,13.054.515-4.951.934-8.615,1.44.031.217,3.373,1.6,27.406,1.015-5.017,1.423.034,1.078,7.089.017-.3.014.105.281-5.349,1.441-25.571,1.432-.085,1.171,6.541.366,2.6.32-1.591-.481,4.089-1.37-10.6-1.437.057-1.794,35.908m-86.556,4.231,1.084-3.849.6-5.554.816-1.913,1.506-12.693,1.857-3.88,1.059,1.2.571,1.848.146-.008.479,1.682.408-1.733.368-.021.929-4.939,1.076-.766-2.4,7.914-2.276-2.587-.135.284-.209-.741-1.253,2.665-.929,8.552-1.2,9.618-2.5,4.917m62.1,3.6-1.427-.116-1.925-36.1.224.044,1.7,33.312.99.057.1,2.019.314-1.994h.027l1.2-7.1,1.652-8.214.925-1.955L285,106.8l.924.8.593,1.474.211-.03.105.3.038-.319,1.037-.147,1.483-14.641.571-.092.351.739.423,1.7.619,6.883-.6-4.278-1.016-2.146-.051.434-.088-.277-1.869,13.866-2.6-2.242,0,.005-.153-.436-.593,1.254-.788.865-2.076,8.632-2.128,9.737m-31.214,4.869-.778-3.861-1.275-8.146,1.289.909,1.285,6.367,1.6-13.585,1.627-9.225.51-1.519,2.131-11.443.97.057,1.146,18.784.751,3.032.613,9.3-1.344-.952-1.774-25.165-1.081,5.332-.516,2.932-1.605,4.775-1.686,18.656-.434,3.693-1.427.06m12.786.023-1.681-7.072.838.979.835,4.468,1.432-.095,1.841-34.274,1.389-.983-.6,2.194-.535.379-2.1,34.282-1.424.122m-155.61,1.065-.518-1.09-1.344-4.915-1.1-1.185-1.794,6.894-.765-.2,1.424-8.084.079-.3,1.3-.172.095.1,1.629,3.47,1,5.48m28.123,3.252.477-6.844.247.172-.607,6.09-.117.583m-13.857,3.031-.829-13.421.035-.325.793,13.746m73.82,1.416.741-3.548.8-1.125,1.1-10.194,1-6.757,1.42-.047.683,3.145.091.666.055.008.17.78.861,6.12-1.042-.134-1.243-5.73-.186-1.324-.375,3.455-1.129,7.627-.859,4.1-1.406,1.977-.689.979m-48.554.617-1-6.394-1.416-6.02-.025.1-.066-.28-.925,2.98.914-5.916.459.014,1.054,5.234,1.007,10.28m-35.834,2.849-.771-.092-1.171-9.222,1.556,6.861.038-.077.081.4,1.229-1.744,1.723-1.215-.578.878-2.1,4.2-.005.008m29.339.2-.007-.09.256-2-.25,2.088m65.083,2.866-1.917-16.142-.03-.321-.008.008-.105-.9-.943-.121.953-1.335.552.07,1.5,14.106,1.439-.029,1.609-24.1,1.236-3.507,1.335-.066,1.5,3.179,1.388,13.676h.451l.245,2.595.229-2.6h.514l1.324-13.641.78-.056,1.431,6.041-.034.066-1.645-3.673-1.856,19h-1.439l-2.107-21.3-1.362-1.908-1.493,2.7-2.11,28.219-1.437.03m-89.387.207-1.709-8.812.806-.568,1.469,8.327.991-8.439.563-3.339.472-2.651-.479,4.455-1.424,11.02-.689.008m23.094.323-1.811-16.6-.352-1.011.968.675,1.2,16.938m45.4,1.462-.968-1.337.661-1.409.051-.073.526.726,1.493-2.444,1.545-7.648.574-2.421,1.415.04.81,4.6,1.029,6.368,1.241-1.779.633-.208-1.648,3.509-1.366-.183-1.314-7.464-.177-1.091-.008.042-.017-.092-1.366,5.767-2.168,3.079-.947,2.016m-60.056,1.089.187-1.077h.065l-.252,1.077m7.431.488,1.147-4.749.792-7.931-.744,10.637-.117.669-1.078,1.374m.22,2.745.193-.927.134-.173-.113.644-.213.457m49.854,2.962.756-6.861.232-.492-.987,7.353M127.1,159.47l-.216-.012-1.4-3.944-.053-.438.67,1.847,1,2.547m23.124,7.207-.689-2.33-2.11-10.02-1.054-10.752,1.054,6.778h0l2.119,13.466.682,2.858m17.262,2.843.312-2.281,1.613-3.551.362-4.058,1.048-1.115,2-25.313.858-4.251.709.044,1.4,22.82,1.831,10.9-1.825-4.432L174.069,134l-.646,3.52-.446,2.21-2.153,24.249-2.2,3.12-1.138,2.422m-9.11.326-1.7-1.211-1.877-21.107-.987,2.806-.232,2.127.241-2.452.144-.9.562-2.054.782.066,1.342,17.093,1.729,5.632m2.871,7.075-.519-1.47.6.105,1.018-1.19.866-.617.678-.953.736,1.1.065.269-.442.623-.519.368-.07-.1-.332.389-2.082,1.48" transform="translate(30.02 4.799)" fill="#d97737"/>
  <path id="Trazado_704957" data-name="Trazado 704957" d="M366.569,17.329l-.245-.026-.868-3.7.147,0Zm11,7.57-.622-.159-1.417-12.089.734.039.779,6.955.525,5.254m-15.488.3L360.6,20.6l-.514-2.544.974-.754.083.261,1.448,5.947.968-6.547.633-3.317.834-.027-.86,7.876-.692,3.623-1.4.086m9.913,7.089-1.433-.023L369.475,22.3l.319.144,1.466,8.089,1.445-8.36,2.132-9.556.225.012-.934,4.636L371.99,32.293M353.768,46.986,354.917,35.4l.744-6.433,1.469-6.454.749-2.751.735-.568-1.523,8.58-2.157,18.383-1.165.827M330.126,71.45l-1.232-9.616.274-.308,1.411,7.912.674-8.136.991-9.321,1.051-.248-1.734,19.689-1.436.029m8.937,3.089,1.7-10.809.676-6.662L342.9,44.507l1.437.014L345.6,57.662l.908-13.686.632-5.823,1.246-14.021.9-7.456,1.439.029.684,8.623,1.3,20.786-1.29-2.375-1.259-15.849-.276-4.291-.021.23-.051-.805-1.233,11.543-.038.566-.758,10.479-1.331,12.262-1.435.023-1.288-9.142-.818,8.067-.529,4.612-.194,1.658-2.147,8.967-.5,1.422-.481,1.059m-1.24,2.57-1.311-.217-.61-6.133-1.3-17.483,1.2,1.877.432,4.356,1.353,14.464.232,3.136M320.771,93.2,319.5,89.579,318.11,74l-.02.269-.074-1-1.354,15.865-1.437.023-.667-5.606-.868-11.707.847.075,1.292,11.729.1-1.208.035.486,1.384-17.664,1.441-.007.177,2L320.771,93.2m-87.931,1.625,1.431-8.1-.635,6.924-.8,1.181m89.112.842,1.783-9.6,2.149-20.839,1.262-1.422L325.169,82.5,323.382,93.88l-.346,1.716-1.084.075m-97.187,5.709,1.141-4.849.156-.111-.929,4.939-.368.021m-1.033.059-.571-1.848.284.32.433,1.521-.146.008m62.1,8.586,1.721-14.657.8-.131-1.483,14.641-1.037.147m-.354.049-.593-1.472.424.364.38,1.08-.211.029m-29.1,6.042-.751-3.032L254.481,94.3l.462.026,1.435,21.79m42.815.548-.991-.083-1.6-24.8-.021.189v0l-.01.094-1.2,11.031-2.127,12.06-1.428-.025-1.5-10.666-.619-6.883-.423-1.695.2.418,1.647,5.191,1.031,7.244.481,5.363,1.136-9.667.176-1.077.672-6.471L296.06,83.83l1.441.042,1.691,32.791m-81.268.208.576-5.3.956-7.659.79-1.647-1.506,12.692-.816,1.913m84.527,6.452-.7-4.576-.429-3.347.429.012,1.039,6.631,1.794-35.908,1.437-.057,1.371,10.6.48-4.089.965-4.792.749-5.312,1.4-3.486,1.046-3.529-.76,5.39-1.021,3.218-2.115,13.065-1.426.013-.955-5.345-.128-.9-1.048,19.9-.7,12.445-1.436.069M198.284,125.68l-.056-.008-.091-.666.147.674m79.615,1.4-.99-.057-1.7-33.312,1.022.2,1.668,33.166m.444.025h-.027l.732-4.664.49-2.436-1.2,7.1M259.9,133.142l-.835-4.467.064.074,1.044,4.341,1.842-31.433.692-2.551.466-.332-1.841,34.274-1.432.094m-48.046,1.445,1.2-13.6.641-.047-1.323,13.641h-.515m-.925,0-1.388-13.677.689,1.457,1.15,12.219h-.451m-8.511,10.844-1.5-14.106.066.009.685.185.267,2.246,1.093,11.612,1.511-21.457.922-2.614-1.609,24.1-1.439.029m-95.193,1.471-.215-.027-.368-.077-2.1-10.463-.241-.506-1-5.479.444.943,0,0,1.4,2.945.791,2.9.125.55,1.169,9.222M130.1,151.59l.744-10.637.265-2.666,1.289-6.4.5.35-.477,6.844-.947,4.693L130.1,151.59m7.771,1.817-1.436-.008-.306-2.806-1.194-16.939.777.541,1.5,13.845.118-.933.007.091.25-2.088.977-7.626,1.93-8.136.233-.749.585.02-.914,5.917-.414,1.331-2.115,17.54m-17.037,2.458-1.424-.121-.843-13.629-.793-13.747-.035.325-.029-.471-1.126,7.98-.562,4.781-1.563,9.27-.734.009,1.424-11.02.479-4.455,1.652-9.235,1.432.078,1.924,28.883.946-2.448h.081l-.187,1.077-.64,2.721m3.6.654-.748-2.106-.319-1.132,1.013,2.8.053.438m2.737,4.01-.29-.016,1.067-2.934.955-3.948,1.078-1.374-.531,3.018-.135.173-.193.927-1.951,4.153m41.554.105,1.77-19.88.459-2.5.816-4.044-2,25.313-1.048,1.115m9.057,3.807,1.24-10.45.711-1.515-.757,6.861-.676,5.036-.518.068m-.866.112-.342-.83-1.831-10.9-1.4-22.82.722.047,2.12,30.086.778,4.416-.042.005m-19.549,6.325-.039-.027-1.729-5.632-1.342-17.094.635.055,2.135,21.558.341,1.141m-8.15.017-2.137-10.52-2.128-9.06-1.121-7.168-1.007-10.28-1.054-5.234.349.013,2.129,9,1.076,6.934,1.054,10.751,2.11,10.021.689,2.33.51,2.137,1.653-13.952,1.574-5.753-.144.9-.241,2.452-1.883,17.363-1.428.066m16.214,1.76.834-3.34.486-1.072-.312,2.281-.987,2.1-.021.03m-1.786,2.514-.065-.269.124.186-.059.083" transform="translate(31.065 3.793)" fill="#c86c30"/>
  <path id="Trazado_704958" data-name="Trazado 704958" d="M355.285,174.335h21.289m-42.579,30.312h21.29m-42.577,24.165h21.286m-42.556,27.076h21.27m-42.557,7.089h21.288m-42.577,4.607h21.289m-42.573-7.538h21.284M206.289,273.44h21.289M185,294.832h21.285m-42.573,19.077H185m-42.556-2.621h21.268m-42.557-8.768h21.289m-42.574-10h21.285" transform="translate(30.035 52.427)" fill="none" stroke="#0e9cdb" stroke-miterlimit="2.5" stroke-width="1.47"/>
  <path id="Trazado_704959" data-name="Trazado 704959" d="M355.285,177.022h21.289m-42.579,27.317h21.29m-42.577,25.073h21.286m-42.556,26.061h21.27m-42.557,3.991h21.288m-42.577,7.742h21.289m-42.573-11.286h21.284m-42.573,15.107h21.289M185,294.125h21.285m-42.573,18.308H185m-42.556.5h21.268m-42.557-9.815h21.289M99.874,291.027h21.285" transform="translate(30.035 53.236)" fill="none" stroke="#f36711" stroke-miterlimit="2.5" stroke-width="1.47"/>
  <path id="Trazado_704960" data-name="Trazado 704960" d="M370.049,176.626h21.289M348.759,204.78h21.29M327.472,231.7h21.286M306.2,258.179h21.268m-42.556-3.547H306.2m-42.577,1.081h21.289m-42.573-9.076h21.284m-42.573,17.536h21.289m-42.574,19.4h21.285m-42.573,22.317h21.288m-42.556,3.528h21.268m-42.557-7.845h21.289m-42.574-9.54h21.285M93.35,286.025h21.289m-42.573,11.85H93.35M50.776,295.58h21.29" transform="translate(15.27 53.116)" fill="none" stroke="#262626" stroke-miterlimit="2.5" stroke-width="1.111"/>
  <g id="Grupo_974122" data-name="Grupo 974122">
    <g id="Grupo_974121" data-name="Grupo 974121" clip-path="url(#clip-path)">
      <text id="Añ" transform="translate(223.187 431.743)" fill="#070808" font-size="11" font-family="ArialMT, Arial"><tspan x="0" y="0">Añ</tspan></text>
      <text id="o" transform="translate(238.444 431.743)" fill="#070808" font-size="11" font-family="ArialMT, Arial"><tspan x="0" y="0">o</tspan></text>
    </g>
  </g>
</svg>
