<svg xmlns="http://www.w3.org/2000/svg" width="94" height="94" viewBox="0 0 94 94">
  <g id="Grupo_974095" data-name="Grupo 974095" transform="translate(-326 -3836)">
    <circle id="Elipse_5546" data-name="Elipse 5546" cx="47" cy="47" r="47" transform="translate(326 3836)" fill="#fff"/>
    <g id="Layer_29" transform="translate(338.977 3849.005)">
      <g id="Grupo_969997" data-name="Grupo 969997" transform="translate(0.023 -0.005)">
        <circle id="Elipse_5551" data-name="Elipse 5551" cx="28.228" cy="28.228" r="28.228" transform="translate(6.154 8.702)" fill="#55bde3"/>
        <g id="Grupo_969995" data-name="Grupo 969995" transform="translate(9.713 8.715)">
          <path id="Trazado_660517" data-name="Trazado 660517" d="M341.356,178.753l-2.666,1.3-2.8,5.832-8.958,2.206-4.33-5.616,4.709-6.536-1.1-2.422,3.681-3.884H330a6.032,6.032,0,0,0,1.692-.257l.677.108a5.825,5.825,0,0,0,.839.054,6.942,6.942,0,0,0,4.506-1.637A28.107,28.107,0,0,1,341.356,178.753Z" transform="translate(-288.661 -153.893)" fill="#2a8078"/>
          <path id="Trazado_660518" data-name="Trazado 660518" d="M117.212,72.988l3.261,7.294-.419,6.374-6.577,2.558-1.922-4.466-5.778.514-2.314-5.291a42.38,42.38,0,0,0-5.954-3.9A15.807,15.807,0,0,1,94.6,74.422h.014a28.266,28.266,0,0,1,25.86-9.7Z" transform="translate(-91.515 -64.394)" fill="#2a8078"/>
          <path id="Trazado_660519" data-name="Trazado 660519" d="M94.6,74.422a28.3,28.3,0,0,1,25.874-9.7l-3.261,8.268,3.261,7.294-.42,6.374-6.577,2.558-1.922-4.466-5.778.514-2.314-5.291Z" transform="translate(-91.515 -64.394)" fill="#2a8078"/>
          <path id="Trazado_660520" data-name="Trazado 660520" d="M157.761,273.716s2.368-.244,3.275-.392c2.233-.392,6.644.622,6.644.622l1.8,5.778-2.057,1.922-2.057,4.912L164.608,294l-4.249,4.763s-.839-3.234-1.015-4.655-.514-4.452-.514-4.452l-1.732-.974-1.719-4.547-4.479-1.448,1.583-7.091Z" transform="translate(-140.196 -244.973)" fill="#2a8078"/>
          <path id="Trazado_660521" data-name="Trazado 660521" d="M71.8,242.069l2.4-2.869,3.085,1.434v4.587H75.914Z" transform="translate(-71.8 -215.545)" fill="#2a8078"/>
        </g>
        <path id="Trazado_660522" data-name="Trazado 660522" d="M272.932,448.073l-2.761,1.367a2.718,2.718,0,0,1-3.261-1.475l-1.137-2.531a3.292,3.292,0,0,1,1.461-4.249l1.5-.785" transform="translate(-229.564 -380.803)" fill="#f9c19b"/>
        <path id="Trazado_660523" data-name="Trazado 660523" d="M297.561,431.426l-3.248,2.1a3.433,3.433,0,0,1-4.439-1.407l-3.139-5.846a2.447,2.447,0,0,1,.907-3.261l.663-.406a2.455,2.455,0,0,1,3.37.866.013.013,0,0,0,.014.014l.731,1.286" transform="translate(-247.684 -365.117)" fill="#f9c19b"/>
        <path id="Trazado_660524" data-name="Trazado 660524" d="M331.679,405.116l-3.654,2.368a3.873,3.873,0,0,1-5.02-1.583l-3.532-6.6a2.756,2.756,0,0,1,1.015-3.681l.758-.46a2.784,2.784,0,0,1,3.789.961.05.05,0,0,1,.014.041l.839,1.448" transform="translate(-275.957 -341.351)" fill="#f9c19b"/>
        <path id="Trazado_660525" data-name="Trazado 660525" d="M378.505,383.186l-1.759,6.82a4.272,4.272,0,0,1-3.708,3.194l-.3.027a4.253,4.253,0,0,1-3.938-1.786l-3.789-5.359a3.34,3.34,0,0,1,.636-4.52l.054-.041a3.332,3.332,0,0,1,4.682.514l.122.162,2.314,3.288" transform="translate(-315.096 -329.259)" fill="#f9c19b"/>
        <path id="Trazado_660526" data-name="Trazado 660526" d="M422.761,288.5l5.088,5.846a5.684,5.684,0,0,1-1.313,7.916L422,304.536a3.745,3.745,0,0,1-5.02-1.692c0-.014-.014-.014-.014-.027a3.628,3.628,0,0,1,1.286-4.587l2.936-2.544a19.223,19.223,0,0,0,1.056-3.234A39.13,39.13,0,0,0,422.761,288.5Z" transform="translate(-360.246 -249.459)" fill="#ffc9a3"/>
        <path id="Trazado_660527" data-name="Trazado 660527" d="M187.2,448.073l2.774,1.367a2.709,2.709,0,0,0,3.248-1.475l1.137-2.531a3.292,3.292,0,0,0-1.461-4.249l-1.5-.785" transform="translate(-161.871 -380.803)" fill="#f9c19b"/>
        <path id="Trazado_660528" data-name="Trazado 660528" d="M139.1,431.426l3.248,2.1a3.429,3.429,0,0,0,4.439-1.407l3.139-5.846a2.435,2.435,0,0,0-.907-3.261l-.663-.406a2.455,2.455,0,0,0-3.37.866.013.013,0,0,1-.014.014l-.731,1.286" transform="translate(-120.28 -365.117)" fill="#f9c19b"/>
        <path id="Trazado_660529" data-name="Trazado 660529" d="M95.9,405.081l3.654,2.368a3.873,3.873,0,0,0,5.02-1.583l3.545-6.6a2.774,2.774,0,0,0-1.028-3.681l-.744-.46a2.78,2.78,0,0,0-3.8.974c0,.014-.014.014-.014.027l-.825,1.448" transform="translate(-82.926 -341.316)" fill="#f9c19b"/>
        <path id="Trazado_660530" data-name="Trazado 660530" d="M39.1,383.186l1.759,6.82a4.272,4.272,0,0,0,3.708,3.194l.3.027a4.253,4.253,0,0,0,3.938-1.786l3.789-5.359a3.34,3.34,0,0,0-.636-4.52l-.054-.041a3.332,3.332,0,0,0-4.682.514l-.122.162-2.314,3.288" transform="translate(-33.812 -329.259)" fill="#f9c19b"/>
        <path id="Trazado_660531" data-name="Trazado 660531" d="M6.218,288.5l-5.1,5.846a5.684,5.684,0,0,0,1.326,7.916l4.533,2.273a3.73,3.73,0,0,0,5.007-1.692.047.047,0,0,1,.014-.027,3.608,3.608,0,0,0-1.272-4.587l-2.95-2.544a19.223,19.223,0,0,1-1.056-3.234,37.634,37.634,0,0,1-.5-3.951Z" transform="translate(-0.023 -249.459)" fill="#ffc9a3"/>
        <path id="Trazado_660532" data-name="Trazado 660532" d="M141.416,0A7.039,7.039,0,0,0,134.975,4.2a5.494,5.494,0,0,0,3.234,9.933,5.43,5.43,0,0,0,1.678-.257,7.246,7.246,0,0,0,1.529.162,7.023,7.023,0,1,0,0-14.046Z" transform="translate(-114.761 0.005)" fill="#719b29"/>
        <path id="Trazado_660533" data-name="Trazado 660533" d="M184.8,52.3h1.624V67.74H184.8Z" transform="translate(-159.796 -45.222)" fill="#9a5645"/>
        <path id="Trazado_660534" data-name="Trazado 660534" d="M0,0H4.885V1.624H0Z" transform="translate(25.267 11.282) rotate(-40.782)" fill="#9a5645"/>
        <path id="Trazado_660535" data-name="Trazado 660535" d="M0,0H1.624V2.855H0Z" transform="translate(22.915 8.832) rotate(-61.719)" fill="#9a5645"/>
        <path id="Trazado_660536" data-name="Trazado 660536" d="M352.419,83.13a7.017,7.017,0,0,1-7.023,7.023,5.823,5.823,0,0,1-.839-.054l-.677-.108a6.032,6.032,0,0,1-1.692.257h-.108a5.492,5.492,0,0,1-3.126-9.933,7.024,7.024,0,0,1,13.465,2.815Z" transform="translate(-291.134 -65.795)" fill="#719b29"/>
        <path id="Trazado_660537" data-name="Trazado 660537" d="M388.8,128.5h1.624v15.44H388.8Z" transform="translate(-336.19 -111.11)" fill="#9a5645"/>
        <path id="Trazado_660538" data-name="Trazado 660538" d="M0,0H4.885V1.624H0Z" transform="translate(52.867 21.584) rotate(-40.782)" fill="#9a5645"/>
        <path id="Trazado_660539" data-name="Trazado 660539" d="M0,0H1.624V2.855H0Z" transform="translate(50.523 19.129) rotate(-61.719)" fill="#9a5645"/>
        <g id="Grupo_969996" data-name="Grupo 969996" transform="translate(13.912 55.378)">
          <path id="Trazado_660540" data-name="Trazado 660540" d="M367.09,417.653l-4.6-6.32a.821.821,0,0,0-1.137-.189.806.806,0,0,0-.176,1.137l4.6,6.333a.789.789,0,0,0,1.11.189c.014,0,.014-.014.027-.014a.831.831,0,0,0,.176-1.137Z" transform="translate(-326.077 -410.755)" fill="#f2b58c"/>
          <path id="Trazado_660541" data-name="Trazado 660541" d="M320.636,427.251a.809.809,0,1,0-1.367.866l3.64,5.778a.814.814,0,0,0,1.123.257.826.826,0,0,0,.257-1.123Z" transform="translate(-289.867 -424.481)" fill="#f2b58c"/>
          <path id="Trazado_660542" data-name="Trazado 660542" d="M284.245,449.644a.812.812,0,0,0-1.434.758l2.734,5.2a.823.823,0,0,0,1.1.338.793.793,0,0,0,.352-1.069c0-.014-.014-.014-.014-.027Z" transform="translate(-258.389 -443.829)" fill="#f2b58c"/>
          <path id="Trazado_660543" data-name="Trazado 660543" d="M189.9,448.021a.823.823,0,0,0-1.1.338l-2.679,5.088a.819.819,0,0,0,.338,1.1.8.8,0,0,0,1.083-.311c0-.014.014-.014.014-.027l2.679-5.088A.819.819,0,0,0,189.9,448.021Z" transform="translate(-174.771 -442.693)" fill="#f2b58c"/>
          <path id="Trazado_660544" data-name="Trazado 660544" d="M149.377,422.256a.83.83,0,0,0-1.123.271l-3.9,6.563a.8.8,0,0,0,.271,1.1l.014.014a.8.8,0,0,0,1.1-.271l.014-.014,3.9-6.55A.811.811,0,0,0,149.377,422.256Z" transform="translate(-138.636 -420.393)" fill="#f2b58c"/>
          <path id="Trazado_660545" data-name="Trazado 660545" d="M107.912,409.372a.822.822,0,0,0-1.137.2l-3.8,5.494a.816.816,0,0,0,1.34.934l3.8-5.494A.822.822,0,0,0,107.912,409.372Z" transform="translate(-102.827 -409.227)" fill="#f2b58c"/>
        </g>
      </g>
    </g>
  </g>
</svg>
