<svg id="Grupo_893833" data-name="Grupo 893833" xmlns="http://www.w3.org/2000/svg" xmlns:xlink="http://www.w3.org/1999/xlink" width="507.307" height="348.309" viewBox="0 0 507.307 348.309">
  <defs>
    <clipPath id="clip-path">
      <rect id="Rectángulo_326954" data-name="Rectángulo 326954" width="507.307" height="348.309" fill="none"/>
    </clipPath>
    <clipPath id="clip-path-2">
      <rect id="Rectángulo_326929" data-name="Rectángulo 326929" width="507.306" height="348.308" fill="none"/>
    </clipPath>
    <clipPath id="clip-path-3">
      <rect id="Rectángulo_326928" data-name="Rectángulo 326928" width="496.856" height="63.343" fill="none"/>
    </clipPath>
    <clipPath id="clip-path-5">
      <rect id="Rectángulo_326944" data-name="Rectángulo 326944" width="90.766" height="31.584" fill="none"/>
    </clipPath>
    <clipPath id="clip-path-6">
      <rect id="Rectángulo_326945" data-name="Rectángulo 326945" width="63.33" height="22.039" fill="none"/>
    </clipPath>
    <clipPath id="clip-path-7">
      <rect id="Rectángulo_326946" data-name="Rectángulo 326946" width="71.666" height="27.752" fill="none"/>
    </clipPath>
    <clipPath id="clip-path-8">
      <rect id="Rectángulo_326947" data-name="Rectángulo 326947" width="4.115" height="5.39" fill="none"/>
    </clipPath>
    <clipPath id="clip-path-9">
      <rect id="Rectángulo_326948" data-name="Rectángulo 326948" width="3.835" height="5.17" fill="none"/>
    </clipPath>
    <clipPath id="clip-path-10">
      <rect id="Rectángulo_326949" data-name="Rectángulo 326949" width="148.161" height="158.972" fill="none"/>
    </clipPath>
    <clipPath id="clip-path-11">
      <rect id="Rectángulo_326950" data-name="Rectángulo 326950" width="50.996" height="40.246" fill="none"/>
    </clipPath>
  </defs>
  <g id="Grupo_893832" data-name="Grupo 893832" clip-path="url(#clip-path)">
    <g id="Grupo_893802" data-name="Grupo 893802" transform="translate(0 0.001)">
      <g id="Grupo_893801" data-name="Grupo 893801" clip-path="url(#clip-path-2)">
        <g id="Grupo_893800" data-name="Grupo 893800" transform="translate(10.451 284.965)" opacity="0.5">
          <g id="Grupo_893799" data-name="Grupo 893799">
            <g id="Grupo_893798" data-name="Grupo 893798" clip-path="url(#clip-path-3)">
              <path id="Trazado_635360" data-name="Trazado 635360" d="M538.633,1170.834c0,17.492-111.225,31.672-248.428,31.672s-248.428-14.18-248.428-31.672S153,1139.162,290.2,1139.162s248.428,14.18,248.428,31.672" transform="translate(-41.777 -1139.162)" fill="#b8d5dc"/>
            </g>
          </g>
        </g>
      </g>
    </g>
    <path id="Trazado_635361" data-name="Trazado 635361" d="M234.7,1035.145h-7.867l7.044-63.837h7.867Z" transform="translate(-170.092 -728.332)" fill="#99c4cc"/>
    <path id="Trazado_635362" data-name="Trazado 635362" d="M0,781.316l17.419,67.519H131.344l-17.419-67.519Z" transform="translate(0 -585.867)" fill="#99c4cc"/>
    <path id="Trazado_635363" data-name="Trazado 635363" d="M148.737,848.835H34.811L17.393,781.316H131.318Z" transform="translate(-13.042 -585.867)" fill="#b8d5dc"/>
    <rect id="Rectángulo_326930" data-name="Rectángulo 326930" width="113.926" height="0.968" transform="translate(8.709 211.86)" fill="#99c4cc"/>
    <rect id="Rectángulo_326931" data-name="Rectángulo 326931" width="113.926" height="0.968" transform="translate(13.06 228.725)" fill="#99c4cc"/>
    <rect id="Rectángulo_326932" data-name="Rectángulo 326932" width="113.925" height="0.968" transform="translate(17.411 245.587)" fill="#99c4cc"/>
    <rect id="Rectángulo_326933" data-name="Rectángulo 326933" width="0.967" height="69.73" transform="translate(24.274 195.571) rotate(-14.467)" fill="#99c4cc"/>
    <rect id="Rectángulo_326934" data-name="Rectángulo 326934" width="0.966" height="69.73" transform="translate(48.36 195.571) rotate(-14.465)" fill="#99c4cc"/>
    <rect id="Rectángulo_326935" data-name="Rectángulo 326935" width="0.967" height="69.73" transform="matrix(0.968, -0.25, 0.25, 0.968, 72.445, 195.571)" fill="#99c4cc"/>
    <rect id="Rectángulo_326936" data-name="Rectángulo 326936" width="0.967" height="69.73" transform="translate(96.531 195.571) rotate(-14.465)" fill="#99c4cc"/>
    <g id="Grupo_893831" data-name="Grupo 893831" transform="translate(0 0.001)">
      <g id="Grupo_893830" data-name="Grupo 893830" clip-path="url(#clip-path-2)">
        <path id="Trazado_635364" data-name="Trazado 635364" d="M235.571,1203.275h13.335a5.809,5.809,0,0,1,5.809,5.809H235.571Z" transform="translate(-176.642 -902.272)" fill="#99c4cc"/>
        <path id="Trazado_635365" data-name="Trazado 635365" d="M717.5,1077.014h-5.176l4.635-42h5.176Z" transform="translate(-534.135 -776.102)" fill="#99c4cc"/>
        <path id="Trazado_635366" data-name="Trazado 635366" d="M649.5,990.646H574.544l-11.46-44.423h74.955Z" transform="translate(-422.226 -709.523)" fill="#99c4cc"/>
        <path id="Trazado_635367" data-name="Trazado 635367" d="M660.942,990.646H585.987l-11.46-44.423h74.955Z" transform="translate(-430.807 -709.523)" fill="#b8d5dc"/>
        <rect id="Rectángulo_326937" data-name="Rectángulo 326937" width="74.956" height="0.64" transform="translate(146.588 247.497)" fill="#99c4cc"/>
        <rect id="Rectángulo_326938" data-name="Rectángulo 326938" width="74.956" height="0.64" transform="translate(149.45 258.591)" fill="#99c4cc"/>
        <rect id="Rectángulo_326939" data-name="Rectángulo 326939" width="74.954" height="0.64" transform="translate(152.313 269.687)" fill="#99c4cc"/>
        <rect id="Rectángulo_326940" data-name="Rectángulo 326940" width="0.636" height="45.879" transform="matrix(0.968, -0.25, 0.25, 0.968, 156.829, 236.779)" fill="#99c4cc"/>
        <rect id="Rectángulo_326941" data-name="Rectángulo 326941" width="0.636" height="45.88" transform="translate(172.674 236.779) rotate(-14.465)" fill="#99c4cc"/>
        <rect id="Rectángulo_326942" data-name="Rectángulo 326942" width="0.636" height="45.88" transform="translate(188.521 236.779) rotate(-14.465)" fill="#99c4cc"/>
        <rect id="Rectángulo_326943" data-name="Rectángulo 326943" width="0.636" height="45.88" transform="translate(204.367 236.779) rotate(-14.465)" fill="#99c4cc"/>
        <path id="Trazado_635368" data-name="Trazado 635368" d="M718.073,1187.632h8.774a3.822,3.822,0,0,1,3.822,3.822h-12.6Z" transform="translate(-538.444 -890.542)" fill="#99c4cc"/>
        <g id="Grupo_893805" data-name="Grupo 893805" transform="translate(358.173 45.047)" opacity="0.8">
          <g id="Grupo_893804" data-name="Grupo 893804">
            <g id="Grupo_893803" data-name="Grupo 893803" clip-path="url(#clip-path-5)">
              <path id="Trazado_635369" data-name="Trazado 635369" d="M1495.634,188.937s-5.2-10.007-18.368-8.753-11.6,11.284-17.868,10.344-15.046,0-16.927,6.269-10.344,2.821-10.658,8.15,9.717,9.09,21.315,4.388,17.24,3.653,33.54,2.14,18.319-3.394,27.967-2.453,9.419-5.665,5.03-10.054-22.152-3.971-24.033-10.031" transform="translate(-1431.807 -180.076)" fill="#fff"/>
            </g>
          </g>
        </g>
        <g id="Grupo_893808" data-name="Grupo 893808" transform="translate(193.745 -0.001)" opacity="0.6">
          <g id="Grupo_893807" data-name="Grupo 893807">
            <g id="Grupo_893806" data-name="Grupo 893806" clip-path="url(#clip-path-6)">
              <path id="Trazado_635370" data-name="Trazado 635370" d="M819.038,6.186S815.408-.8,806.222.079,798.13,7.952,793.756,7.3s-10.5,0-11.81,4.374-7.217,1.968-7.436,5.686,6.78,6.343,14.872,3.062,12.029,2.549,23.4,1.493S825.565,19.544,832.3,20.2s6.572-3.953,3.51-7.015-15.456-2.77-16.769-7" transform="translate(-774.504 -0.002)" fill="#fff"/>
            </g>
          </g>
        </g>
        <g id="Grupo_893811" data-name="Grupo 893811" transform="translate(32.386 57.262)" opacity="0.6">
          <g id="Grupo_893810" data-name="Grupo 893810">
            <g id="Grupo_893809" data-name="Grupo 893809" clip-path="url(#clip-path-7)">
              <path id="Trazado_635371" data-name="Trazado 635371" d="M179.858,236.7a14.429,14.429,0,0,0-14.5-7.69c-10.395,1.1-9.157,9.915-14.107,9.089s-11.88,0-13.365,5.508-8.167,2.479-8.415,7.161,7.672,7.987,16.83,3.856,13.612,3.209,26.482,1.88,14.464-2.982,22.082-2.156,7.437-4.978,3.972-8.834-17.491-3.489-18.976-8.814" transform="translate(-129.463 -228.91)" fill="#fff"/>
            </g>
          </g>
        </g>
        <path id="Trazado_635372" data-name="Trazado 635372" d="M1840.579,855.505h-6.387l.534-47.026.817-72.031h2.894l1.145,63.633Z" transform="translate(-1375.362 -552.224)" fill="#fff"/>
        <path id="Trazado_635373" data-name="Trazado 635373" d="M1841.182,800.082a73.347,73.347,0,0,0-4.856,8.4l.817-72.031h2.894Z" transform="translate(-1376.962 -552.224)" fill="#b8d5dc"/>
        <path id="Trazado_635374" data-name="Trazado 635374" d="M1838.173,600.166l-1.3-3.946a13.09,13.09,0,0,1,2.255-12.34L1864,553.148a.576.576,0,0,1,.96.625l-23.93,46.615a1.551,1.551,0,0,1-2.852-.222" transform="translate(-1376.875 -414.612)" fill="#fff"/>
        <path id="Trazado_635375" data-name="Trazado 635375" d="M1844.428,731.451l4.152-.186a13.09,13.09,0,0,1,11.269,5.51l22.854,32.261a.576.576,0,0,1-.862.755l-38.4-35.654a1.551,1.551,0,0,1,.986-2.686" transform="translate(-1381.925 -548.327)" fill="#fff"/>
        <path id="Trazado_635376" data-name="Trazado 635376" d="M1695.3,728.8l-2.113,3.578a13.091,13.091,0,0,1-10.774,6.425l-39.506,1.5a.576.576,0,0,1-.161-1.134l50.844-12.667a1.551,1.551,0,0,1,1.71,2.293" transform="translate(-1231.479 -544.733)" fill="#fff"/>
        <path id="Trazado_635377" data-name="Trazado 635377" d="M1834.262,728.876a3.379,3.379,0,1,1,4.545,1.475,3.378,3.378,0,0,1-4.545-1.475" transform="translate(-1375.138 -542.861)" fill="#366f90"/>
        <path id="Trazado_635378" data-name="Trazado 635378" d="M1824.333,1199.852H1801.68a6.736,6.736,0,0,1,6.736-6.736h9.181a6.736,6.736,0,0,1,6.736,6.736" transform="translate(-1350.983 -894.654)" fill="#fff"/>
        <path id="Trazado_635379" data-name="Trazado 635379" d="M1694.181,753.747h-10.5l.877-64.795,1.342-99.246h4.757l1.882,87.676Z" transform="translate(-1262.504 -442.189)" fill="#fff"/>
        <path id="Trazado_635380" data-name="Trazado 635380" d="M1695.171,677.381a98.665,98.665,0,0,0-7.981,11.57l1.342-99.247h4.757Z" transform="translate(-1265.133 -442.189)" fill="#b8d5dc"/>
        <path id="Trazado_635381" data-name="Trazado 635381" d="M1605.082,578.375l2.552,5.7a19.669,19.669,0,0,1-1.478,18.789l-32.463,49.748a.865.865,0,0,1-1.53-.787l28.622-73.343a2.33,2.33,0,0,1,4.3-.106" transform="translate(-1178.831 -432.66)" fill="#fff"/>
        <path id="Trazado_635382" data-name="Trazado 635382" d="M1508.82,442.623l-6.177.915a19.669,19.669,0,0,1-17.688-6.509l-39.1-44.716a.865.865,0,0,1,1.172-1.26l62.859,47.4a2.33,2.33,0,0,1-1.062,4.165" transform="translate(-1083.997 -293.092)" fill="#fff"/>
        <path id="Trazado_635383" data-name="Trazado 635383" d="M1689.132,517.266l2.61-5.673a19.669,19.669,0,0,1,15.118-11.254l58.819-8.305a.865.865,0,0,1,.415,1.67l-74.054,26.728a2.33,2.33,0,0,1-2.908-3.166" transform="translate(-1266.424 -368.943)" fill="#fff"/>
        <path id="Trazado_635384" data-name="Trazado 635384" d="M1688.663,571.459a5.076,5.076,0,1,1-7.019-1.508,5.076,5.076,0,0,1,7.019,1.508" transform="translate(-1259.234 -426.766)" fill="#366f90"/>
        <path id="Trazado_635385" data-name="Trazado 635385" d="M1667.483,1224.871h-37.229a11.07,11.07,0,0,1,11.07-11.07h15.089a11.07,11.07,0,0,1,11.07,11.07" transform="translate(-1222.44 -910.165)" fill="#fff"/>
        <path id="Trazado_635386" data-name="Trazado 635386" d="M489.54,820.136c.4,11.837,1.351,23.647,2,35.471.26,4.759.565,9.494-.782,14.129a19.67,19.67,0,0,1-6.227,9.61c-8.215,6.956-19.8,6.388-29.866,7.348-8.7.829-18.483,3.254-24.148,10.468-6.209,7.907-4.475,18.646,1.568,26.108,6.6,8.151,17.545,11.136,27.537,12.22a81.4,81.4,0,0,0,34.754-3.831,47.36,47.36,0,0,0,7.9-3.408,72.012,72.012,0,0,0,7.114-4.845,52.293,52.293,0,0,1,13.935-7.419c21.307-7.265,43.945-.909,63.653,8.1,2.616,1.2,5.209,2.442,7.788,3.715,2.262,1.117,4.258-2.274,1.985-3.4-19.817-9.784-41.436-18.022-63.908-14.733a59.273,59.273,0,0,0-14.874,4.2c-5.008,2.156-9.245,5.262-13.662,8.4-9.325,6.621-21.438,9.2-32.714,9.678-10.382.442-22.057-.622-31.01-6.375-7.282-4.678-12.95-14.641-8.749-23.179,3.843-7.811,13.43-10.735,21.466-11.622,10.547-1.164,21.908-.5,31.187-6.53,7.325-4.757,10.912-12.532,11.229-21.112.211-5.71-.457-11.523-.814-17.22-.367-5.864-.756-11.727-1.063-17.594q-.214-4.086-.358-8.175c-.086-2.525-4.02-2.536-3.934,0" transform="translate(-319.901 -613.554)" fill="#acab58"/>
        <path id="Trazado_635387" data-name="Trazado 635387" d="M495.046,820.136c.4,11.837,1.351,23.647,2,35.471.26,4.759.565,9.494-.782,14.129a19.669,19.669,0,0,1-6.227,9.61c-8.215,6.956-19.8,6.388-29.865,7.348-8.7.829-18.483,3.254-24.148,10.468-6.209,7.907-4.475,18.646,1.568,26.108,6.6,8.151,17.545,11.136,27.537,12.22a81.4,81.4,0,0,0,34.754-3.831,47.371,47.371,0,0,0,7.9-3.408,72.023,72.023,0,0,0,7.114-4.845,52.291,52.291,0,0,1,13.935-7.419c21.307-7.265,43.946-.909,63.653,8.1,2.616,1.2,5.209,2.442,7.788,3.715,2.262,1.117,4.258-2.274,1.985-3.4-19.817-9.784-41.436-18.022-63.909-14.733a59.274,59.274,0,0,0-14.874,4.2c-5.008,2.156-9.245,5.262-13.662,8.4-9.325,6.621-21.438,9.2-32.714,9.678-10.382.442-22.057-.622-31.01-6.375-7.282-4.678-12.949-14.641-8.749-23.179,3.843-7.811,13.43-10.735,21.465-11.622,10.548-1.164,21.908-.5,31.187-6.53,7.325-4.757,10.912-12.532,11.229-21.112.211-5.71-.457-11.523-.814-17.22-.367-5.864-.756-11.727-1.063-17.594q-.214-4.086-.358-8.175c-.086-2.525-4.02-2.536-3.934,0" transform="translate(-324.03 -613.554)" fill="#25ffff"/>
        <path id="Trazado_635388" data-name="Trazado 635388" d="M667.972,851.388h0a9.914,9.914,0,0,1-9.914-9.914v-6.219a9.914,9.914,0,1,1,19.827,0v6.219a9.914,9.914,0,0,1-9.914,9.914" transform="translate(-493.442 -618.88)" fill="#049b9b"/>
        <path id="Trazado_635389" data-name="Trazado 635389" d="M485.046,143.013v96.755a10.407,10.407,0,0,1-7.351,9.916,10.238,10.238,0,0,1-3.016.451,10.4,10.4,0,0,1-10.367-10.367V143.013a10.4,10.4,0,0,1,10.367-10.367,10.237,10.237,0,0,1,3.016.451,10.411,10.411,0,0,1,7.351,9.916" transform="translate(-348.163 -99.465)" fill="#b8d5dc"/>
        <path id="Trazado_635390" data-name="Trazado 635390" d="M503.127,144.365V241.12a10.407,10.407,0,0,1-7.351,9.916,10.407,10.407,0,0,1-7.351-9.916V144.365a10.407,10.407,0,0,1,7.351-9.916,10.411,10.411,0,0,1,7.351,9.916" transform="translate(-366.244 -100.817)" fill="#fff"/>
        <path id="Trazado_635391" data-name="Trazado 635391" d="M841.095,143.013v96.755a10.407,10.407,0,0,1-7.351,9.916,10.238,10.238,0,0,1-3.016.451,10.4,10.4,0,0,1-10.367-10.367V143.013a10.4,10.4,0,0,1,10.367-10.367,10.237,10.237,0,0,1,3.016.451,10.411,10.411,0,0,1,7.351,9.916" transform="translate(-615.145 -99.465)" fill="#b8d5dc"/>
        <path id="Trazado_635392" data-name="Trazado 635392" d="M859.176,144.365V241.12a7.683,7.683,0,1,1-14.7,0V144.365a7.454,7.454,0,1,1,14.7,0" transform="translate(-633.226 -100.817)" fill="#fff"/>
        <path id="Trazado_635393" data-name="Trazado 635393" d="M491.112,505.669H372.229A13.373,13.373,0,0,1,358.856,492.3v-98.16a13.373,13.373,0,0,1,13.373-13.372H491.112a13.372,13.372,0,0,1,13.372,13.372V492.3a13.372,13.372,0,0,1-13.372,13.372" transform="translate(-269.087 -285.515)" fill="#25ffff"/>
        <path id="Trazado_635394" data-name="Trazado 635394" d="M559.856,505.669H449.737a12.921,12.921,0,0,1-12.921-12.921V393.685a12.921,12.921,0,0,1,12.921-12.921H559.856a12.921,12.921,0,0,1,12.921,12.921v99.063a12.921,12.921,0,0,1-12.921,12.921" transform="translate(-327.545 -285.515)" fill="#25ffff"/>
        <path id="Trazado_635395" data-name="Trazado 635395" d="M622.877,571.366l18.689-27.595H620.69l26.355-42.029h17.308l-21.831,33.114h21.831Z" transform="translate(-465.422 -376.23)" fill="#ad84ff"/>
        <path id="Trazado_635396" data-name="Trazado 635396" d="M611.745,571.366l14.975-27.595H605.844L632.2,501.741h17.308l-21.831,33.114h21.831Z" transform="translate(-454.29 -376.23)" fill="#fff"/>
        <path id="Trazado_635397" data-name="Trazado 635397" d="M1595.1,1046.933c-.168.991-.068,3.066-.218,4.062-.065.432-.186,1.909.224,2.074.355.143.99-.931,1.23-1.487,1.493,3.412,4.639,7.327,1.96.373l.009,0c.274.582,2.143,4.911,2.927,4.283.574-.461-1.066-3.982-1.507-4.943l.023-.014c.526.944,1.967,3.871,2.539,3.461.752-.54-1.221-4.26-1.221-4.26s1.565,3.123,2.124,2.185c.315-.529-.667-2.35-1.293-3.476h0c-.131-.236-.247-.442-.332-.6a1.9,1.9,0,0,0-.225-.331,17.046,17.046,0,0,0-2.175-2.82,2.177,2.177,0,0,0-2.579-.693,3.139,3.139,0,0,0-1.487,2.187" transform="translate(-1195.864 -783.257)" fill="#ffb27d"/>
        <path id="Trazado_635398" data-name="Trazado 635398" d="M1321.056,853.65c-.108-1-.767-2.962-.894-3.961-.055-.433-.341-1.886-.778-1.926-.38-.035-.7,1.178-.778,1.781-2.361-2.846-6.446-5.7-1.984.206l-.008.006c-.421-.48-3.393-4.1-3.975-3.269-.426.607,2.105,3.515,2.79,4.311l-.019.02c-.761-.754-2.941-3.15-3.378-2.592-.576.735,2.33,3.738,2.33,3.738s-2.352-2.548-2.634-1.487c-.159.6,1.279,2.064,2.187,2.964h0c.19.189.358.353.482.479a1.867,1.867,0,0,0,.306.253,16.653,16.653,0,0,0,2.855,2.082,2.163,2.163,0,0,0,2.665-.076,3.192,3.192,0,0,0,.834-2.527" transform="translate(-983.585 -634.59)" fill="#ffb27d"/>
        <path id="Trazado_635399" data-name="Trazado 635399" d="M1461.847,1289.464s.082,2.281-1.472,3.013-6.135,1.572-4.32,2.939c1.042.785,5.674-.021,6.991-.095s2.588.412,3.515-.5c1.019-1-.346-5.607-.346-5.607a5.379,5.379,0,0,1-2.125.668,4.317,4.317,0,0,1-2.242-.423" transform="translate(-1091.503 -966.716)" fill="#331832"/>
        <path id="Trazado_635400" data-name="Trazado 635400" d="M1572.03,1245.74s3.382,8.984,2.7,10.594-3.562,5.376-1.321,5.15c1.286-.13,4.223-3.9,5.158-4.862s2.2-1.468,2.3-2.778c.114-1.442-4.372-6.042-4.372-6.042s-.435-6.551-1.178-5.826c-1.072,1.046-3.285,3.765-3.285,3.765" transform="translate(-1178.781 -931.249)" fill="#331832"/>
        <path id="Trazado_635401" data-name="Trazado 635401" d="M1484.357,844.513s.263-3.933,3.847-3.606,2.309,2.751,2.825,3.53-1.461,2.411-3.2,2.346-3.47-2.27-3.47-2.27" transform="translate(-1113.039 -630.537)" fill="#ef8062"/>
        <path id="Trazado_635402" data-name="Trazado 635402" d="M1431.718,1055.588c.643-7.229,15.5,1.139,15.5,1.139s5.2,49.826,2.153,56.733c-.6,1.363-3.056,1.285-4.2,1.129-8.11-1.1-9.562-25.974-11.435-36.936-.94-5.5-2.4-17.692-2.01-22.064" transform="translate(-1073.52 -789.323)" fill="#2e0877"/>
        <path id="Trazado_635403" data-name="Trazado 635403" d="M1459.482,1047.786c-.468,1.768-7.324,3.478-15.437,1.408s-14.432-4.219-13.964-5.987,7.545-2.487,15.658-.417,14.211,3.228,13.743,5" transform="translate(-1072.323 -780.987)" fill="#331832"/>
        <path id="Trazado_635404" data-name="Trazado 635404" d="M1433.941,927.456a25.656,25.656,0,0,1-3.788-2.272,15.044,15.044,0,0,1,13.493-6.631c1.249.1,6.877,1.22,8.084,1.462,15.49,3.108,7.9,34.835,7.823,35.523a52.826,52.826,0,0,0-29.4-4.579,85.357,85.357,0,0,1,3.788-23.5" transform="translate(-1072.395 -688.739)" fill="#ad84ff"/>
        <path id="Trazado_635405" data-name="Trazado 635405" d="M1457.9,1055.232s-13.608-4.589-24.96-4.154a1.016,1.016,0,0,0-.988.914s-.317,4.067-.247,5.422c.154,3,27.072,2.513,27.072,2.513Z" transform="translate(-1073.55 -788.126)" fill="#2e0877"/>
        <path id="Trazado_635406" data-name="Trazado 635406" d="M1489.549,889.13a6.008,6.008,0,0,1-4.988,1.934c-3.054-.07-1.561-3.077-1.561-3.077a1.106,1.106,0,0,0,1.248-1.08l.095-.887.047-.44.152-1.4.136-1.261.559-5.173,1.288,5.309.219.9.755,3.112a2.869,2.869,0,0,0,2.035,2.06l.016,0" transform="translate(-1111.748 -658.172)" fill="#ffb27d"/>
        <path id="Trazado_635407" data-name="Trazado 635407" d="M1492,902.571a3.6,3.6,0,0,1-2.354,1.627l.153-1.4c.887-.149,2.2-.223,2.2-.223" transform="translate(-1117.006 -676.79)" fill="#331832"/>
        <path id="Trazado_635408" data-name="Trazado 635408" d="M1506.407,884.264a5.62,5.62,0,0,0-.819,2.481c-.4,2.624-3.6,2.353-3.993,1.374-.049-.121,1.892-4.014,1.892-4.014L1504.6,884Z" transform="translate(-1125.964 -662.863)" fill="#ef8062"/>
        <path id="Trazado_635409" data-name="Trazado 635409" d="M1474.72,861.242c1.4-3.017,4.584-4.537,7.121-3.394s3.461,4.515,2.065,7.532-4.584,4.537-7.121,3.394-3.461-4.515-2.065-7.532" transform="translate(-1105.325 -642.969)" fill="#ffb27d"/>
        <path id="Trazado_635410" data-name="Trazado 635410" d="M1482.554,855.164c.05.225-1.974,2.71,3.117,5.814s4.769-4.675.85-6.613c-5.658-2.8-8.222.555-8.29,2.146s4.323-1.347,4.323-1.347" transform="translate(-1108.445 -639.835)" fill="#ef8062"/>
        <path id="Trazado_635411" data-name="Trazado 635411" d="M1505.279,879.379s1.169,3.238-.658,5.186c0,0,1.9-.772,2.165-1.262a20.687,20.687,0,0,0,.762-2.462Z" transform="translate(-1128.234 -659.4)" fill="#ef8062"/>
        <path id="Trazado_635412" data-name="Trazado 635412" d="M1504.268,884.633a1.267,1.267,0,0,1-1.676-.622,1.317,1.317,0,0,1,1.011-1.508,1.268,1.268,0,0,1,1.676.622,1.317,1.317,0,0,1-1.011,1.508" transform="translate(-1126.682 -661.676)" fill="#ffb27d"/>
        <path id="Trazado_635413" data-name="Trazado 635413" d="M1493.032,879.649a.112.112,0,0,1-.042-.091.111.111,0,0,1,.119-.1,1.265,1.265,0,0,1,1.218.9.109.109,0,0,1-.07.141.129.129,0,0,1-.146-.07,2,2,0,0,0-1.011-.748.118.118,0,0,1-.068-.026" transform="translate(-1119.512 -659.456)" fill="#080435"/>
        <path id="Trazado_635414" data-name="Trazado 635414" d="M1492.277,884.353a.437.437,0,0,1-.519.3.428.428,0,0,1-.145-.579.437.437,0,0,1,.519-.3.428.428,0,0,1,.145.579" transform="translate(-1118.443 -662.679)" fill="#080435"/>
        <path id="Trazado_635415" data-name="Trazado 635415" d="M1477.035,874.714a.115.115,0,0,1-.074-.069.109.109,0,0,1,.068-.142,1.274,1.274,0,0,1,1.471.387.109.109,0,0,1-.009.157.128.128,0,0,1-.161-.011,2.026,2.026,0,0,0-1.222-.323.115.115,0,0,1-.072,0" transform="translate(-1107.488 -655.675)" fill="#080435"/>
        <path id="Trazado_635416" data-name="Trazado 635416" d="M1478.6,879.208c0,.265-.159.478-.357.475s-.359-.22-.36-.485.159-.478.357-.475.359.22.36.485" transform="translate(-1108.185 -658.908)" fill="#080435"/>
        <g id="Grupo_893814" data-name="Grupo 893814" transform="translate(372.119 218.604)" opacity="0.3">
          <g id="Grupo_893813" data-name="Grupo 893813">
            <g id="Grupo_893812" data-name="Grupo 893812" clip-path="url(#clip-path-8)">
              <path id="Trazado_635417" data-name="Trazado 635417" d="M1491.647,876.4a3.132,3.132,0,0,1-2.359,2.865c-1.123.1-1.886-1.029-1.706-2.514a3.132,3.132,0,0,1,2.359-2.865c1.122-.1,1.886,1.029,1.706,2.514" transform="translate(-1487.557 -873.883)" fill="#fff"/>
            </g>
          </g>
        </g>
        <g id="Grupo_893817" data-name="Grupo 893817" transform="translate(367.523 217.373)" opacity="0.3">
          <g id="Grupo_893816" data-name="Grupo 893816">
            <g id="Grupo_893815" data-name="Grupo 893815" clip-path="url(#clip-path-9)">
              <path id="Trazado_635418" data-name="Trazado 635418" d="M1472.917,871.453c-.344,1.427-1.435,2.625-2.436,2.676s-1.534-1.064-1.19-2.491,1.435-2.625,2.436-2.676,1.534,1.064,1.19,2.491" transform="translate(-1469.188 -868.96)" fill="#fff"/>
            </g>
          </g>
        </g>
        <path id="Trazado_635419" data-name="Trazado 635419" d="M1490.826,875.773a3.928,3.928,0,0,0,.141-.576c.012-.068.023-.136.03-.2.013-.115.022-.228.025-.341a2.58,2.58,0,0,0-.66-1.92,1.6,1.6,0,0,0-1.3-.483,1.858,1.858,0,0,0-.3.051,3.529,3.529,0,0,0-2.084,2.195,3.87,3.87,0,0,0-.184.814,3.672,3.672,0,0,0-.007.78,2.4,2.4,0,0,0,.641,1.481,1.717,1.717,0,0,0,.487.343,1.668,1.668,0,0,0,.162.064,1.627,1.627,0,0,0,.651.076,1.987,1.987,0,0,0,.7-.191,3.263,3.263,0,0,0,1.422-1.437c.038-.066.072-.135.1-.2a4.074,4.074,0,0,0,.176-.447m-3.928,1.146a2.589,2.589,0,0,1-.226-.845,3.293,3.293,0,0,1,.006-.741,3.891,3.891,0,0,1,.162-.74,3.308,3.308,0,0,1,.125-.331,2.926,2.926,0,0,1,1.888-1.793,1.468,1.468,0,0,1,.228-.035,1.421,1.421,0,0,1,1.147.425,2.022,2.022,0,0,1,.5.908,2.677,2.677,0,0,1,.083.456c0,.01,0,.017,0,.026a.055.055,0,0,1,0,.015,1.982,1.982,0,0,1,.013.249,3.191,3.191,0,0,1-.022.457,3.6,3.6,0,0,1-.092.5c-.027.109-.059.216-.1.321s-.082.219-.129.324v0a3.178,3.178,0,0,1-1.365,1.539,1.837,1.837,0,0,1-.719.216,1.459,1.459,0,0,1-.729-.127,1.435,1.435,0,0,1-.417-.3,1.817,1.817,0,0,1-.355-.514.046.046,0,0,0-.005-.01" transform="translate(-1114.62 -654.05)" fill="#331832"/>
        <path id="Trazado_635420" data-name="Trazado 635420" d="M1472.353,870.933c.029-.074.056-.147.081-.222a.638.638,0,0,0-.073.008,4.29,4.29,0,0,1-.5,1.11.007.007,0,0,1,0,0c.026-.036.05-.072.074-.109,0-.006.008-.013.011-.018.029-.042.058-.089.083-.134.04-.067.082-.135.119-.205s.073-.141.107-.215.062-.139.091-.211m0,0c.029-.074.056-.147.081-.222a.638.638,0,0,0-.073.008,4.29,4.29,0,0,1-.5,1.11.007.007,0,0,1,0,0c.026-.036.05-.072.074-.109,0-.006.008-.013.011-.018.029-.042.058-.089.083-.134.04-.067.082-.135.119-.205s.073-.141.107-.215.062-.139.091-.211m0,0c.029-.074.056-.147.081-.222a.638.638,0,0,0-.073.008,4.29,4.29,0,0,1-.5,1.11.007.007,0,0,1,0,0c.026-.036.05-.072.074-.109,0-.006.008-.013.011-.018.029-.042.058-.089.083-.134.04-.067.082-.135.119-.205s.073-.141.107-.215.062-.139.091-.211m0,0c.029-.074.056-.147.081-.222a.638.638,0,0,0-.073.008,4.29,4.29,0,0,1-.5,1.11.007.007,0,0,1,0,0c.026-.036.05-.072.074-.109,0-.006.008-.013.011-.018.029-.042.058-.089.083-.134.04-.067.082-.135.119-.205s.073-.141.107-.215.062-.139.091-.211m0,0c.029-.074.056-.147.081-.222a.638.638,0,0,0-.073.008,4.29,4.29,0,0,1-.5,1.11.007.007,0,0,1,0,0c.026-.036.05-.072.074-.109,0-.006.008-.013.011-.018.029-.042.058-.089.083-.134.04-.067.082-.135.119-.205s.073-.141.107-.215.062-.139.091-.211m0,0c.029-.074.056-.147.081-.222a.638.638,0,0,0-.073.008,4.29,4.29,0,0,1-.5,1.11.007.007,0,0,1,0,0c.026-.036.05-.072.074-.109,0-.006.008-.013.011-.018.029-.042.058-.089.083-.134.04-.067.082-.135.119-.205s.073-.141.107-.215.062-.139.091-.211m0,0c.029-.074.056-.147.081-.222a.638.638,0,0,0-.073.008,4.29,4.29,0,0,1-.5,1.11.007.007,0,0,1,0,0c.026-.036.05-.072.074-.109,0-.006.008-.013.011-.018.029-.042.058-.089.083-.134.04-.067.082-.135.119-.205s.073-.141.107-.215.062-.139.091-.211m0,0c.029-.074.056-.147.081-.222a.638.638,0,0,0-.073.008,4.29,4.29,0,0,1-.5,1.11.007.007,0,0,1,0,0c.026-.036.05-.072.074-.109,0-.006.008-.013.011-.018.029-.042.058-.089.083-.134.04-.067.082-.135.119-.205s.073-.141.107-.215.062-.139.091-.211m.207-.227c.032-.111.059-.225.081-.339.012-.061.021-.123.031-.185a2.754,2.754,0,0,0-.535-2.3,1.385,1.385,0,0,0-.369-.269,1.224,1.224,0,0,0-.343-.111,1.278,1.278,0,0,0-.264-.014h0c-.021,0-.046,0-.068,0-1.074.1-2.137,1.436-2.363,2.993a2.756,2.756,0,0,0,.536,2.3,1.307,1.307,0,0,0,.4.287,1.251,1.251,0,0,0,.56.108h.008c.024,0,.048,0,.073,0a1.956,1.956,0,0,0,1.123-.545v0h0a3.8,3.8,0,0,0,.87-1.219,4.182,4.182,0,0,0,.255-.7m-.726,1.168a3.024,3.024,0,0,1-.728.784,1.646,1.646,0,0,1-.7.314s0,0-.005,0a0,0,0,0,1,0,0,.065.065,0,0,1-.026,0,.581.581,0,0,1-.089.013.755.755,0,0,1-.1,0,1.059,1.059,0,0,1-.782-.336,2.554,2.554,0,0,1-.491-2.109s0,0,0-.007a.069.069,0,0,0,0-.008l0,0,0-.019c.217-1.479,1.2-2.752,2.2-2.839a1.112,1.112,0,0,1,.188,0,1.017,1.017,0,0,1,.353.088A1.135,1.135,0,0,1,1472,868a.235.235,0,0,1,.023.027,1.9,1.9,0,0,1,.432.877,3.435,3.435,0,0,1,.03,1.245c-.011.071-.023.141-.036.211-.024.12-.054.239-.087.357a4.29,4.29,0,0,1-.5,1.11.409.409,0,0,0-.03.044m.518-.941c.029-.074.056-.147.081-.222a.638.638,0,0,0-.073.008,4.29,4.29,0,0,1-.5,1.11.007.007,0,0,1,0,0c.026-.036.05-.072.074-.109,0-.006.008-.013.011-.018.029-.042.058-.089.083-.134.04-.067.082-.135.119-.205s.073-.141.107-.215.062-.139.091-.211m0,0c.029-.074.056-.147.081-.222a.638.638,0,0,0-.073.008,4.29,4.29,0,0,1-.5,1.11.007.007,0,0,1,0,0c.026-.036.05-.072.074-.109,0-.006.008-.013.011-.018.029-.042.058-.089.083-.134.04-.067.082-.135.119-.205s.073-.141.107-.215.062-.139.091-.211m0,0c.029-.074.056-.147.081-.222a.638.638,0,0,0-.073.008,4.29,4.29,0,0,1-.5,1.11.007.007,0,0,1,0,0c.026-.036.05-.072.074-.109,0-.006.008-.013.011-.018.029-.042.058-.089.083-.134.04-.067.082-.135.119-.205s.073-.141.107-.215.062-.139.091-.211m0,0c.029-.074.056-.147.081-.222a.638.638,0,0,0-.073.008,4.29,4.29,0,0,1-.5,1.11.007.007,0,0,1,0,0c.026-.036.05-.072.074-.109,0-.006.008-.013.011-.018.029-.042.058-.089.083-.134.04-.067.082-.135.119-.205s.073-.141.107-.215.062-.139.091-.211m0,0c.029-.074.056-.147.081-.222a.638.638,0,0,0-.073.008,4.29,4.29,0,0,1-.5,1.11.007.007,0,0,1,0,0c.026-.036.05-.072.074-.109,0-.006.008-.013.011-.018.029-.042.058-.089.083-.134.04-.067.082-.135.119-.205s.073-.141.107-.215.062-.139.091-.211m0,0c.029-.074.056-.147.081-.222a.638.638,0,0,0-.073.008,4.29,4.29,0,0,1-.5,1.11.007.007,0,0,1,0,0c.026-.036.05-.072.074-.109,0-.006.008-.013.011-.018.029-.042.058-.089.083-.134.04-.067.082-.135.119-.205s.073-.141.107-.215.062-.139.091-.211m0,0c.029-.074.056-.147.081-.222a.638.638,0,0,0-.073.008,4.29,4.29,0,0,1-.5,1.11.007.007,0,0,1,0,0c.026-.036.05-.072.074-.109,0-.006.008-.013.011-.018.029-.042.058-.089.083-.134.04-.067.082-.135.119-.205s.073-.141.107-.215.062-.139.091-.211" transform="translate(-1101.288 -650.48)" fill="#331832"/>
        <path id="Trazado_635421" data-name="Trazado 635421" d="M1482.554,879.339a.178.178,0,0,1-.1-.118.169.169,0,0,1,.129-.207,2,2,0,0,1,1.541.426.17.17,0,0,1,.035.242.18.18,0,0,1-.248.03,1.641,1.641,0,0,0-1.242-.362.182.182,0,0,1-.115-.012" transform="translate(-1111.609 -659.109)" fill="#331832"/>
        <path id="Trazado_635422" data-name="Trazado 635422" d="M1514.6,857.7s2.076-3.356,5.144-1.484,1.583,3.344.888,4.364a3.4,3.4,0,0,1-3.975.657c-1.534-.826-2.057-3.537-2.057-3.537" transform="translate(-1135.72 -641.606)" fill="#ef8062"/>
        <path id="Trazado_635423" data-name="Trazado 635423" d="M1503.207,905.694a.108.108,0,0,1-.091-.05,4.814,4.814,0,0,0-1.976-1.573.108.108,0,0,1-.057-.141.1.1,0,0,1,.142-.059,4.946,4.946,0,0,1,2.073,1.655.108.108,0,0,1-.031.15.114.114,0,0,1-.06.017" transform="translate(-1125.574 -677.759)" fill="#ef8062"/>
        <path id="Trazado_635424" data-name="Trazado 635424" d="M1481.308,893.363a1.734,1.734,0,0,1-1.627-.725.061.061,0,0,1,.028-.079.064.064,0,0,1,.078.027c.406.851,1.959.643,1.969.634a.07.07,0,0,1,.066.05.061.061,0,0,1-.048.068,3.91,3.91,0,0,1-.465.026" transform="translate(-1109.529 -669.28)" fill="#020202"/>
        <path id="Trazado_635425" data-name="Trazado 635425" d="M1477.58,918.257s-1.337,2.94,1.561,3.078c0,0-1.557,1.441-2.61.825s-.02-1.12-.464-1.525-.937-.7-.473-1.152.029-1.27.029-1.27a4.253,4.253,0,0,1,1.957.045" transform="translate(-1106.328 -688.444)" fill="#daebe8"/>
        <path id="Trazado_635426" data-name="Trazado 635426" d="M1476.638,946.725a.456.456,0,1,0-.466.431.449.449,0,0,0,.466-.431" transform="translate(-1106.568 -709.56)" fill="#daebe8"/>
        <path id="Trazado_635427" data-name="Trazado 635427" d="M1467.7,1003.143a.456.456,0,1,0-.466.43.449.449,0,0,0,.466-.43" transform="translate(-1099.867 -751.865)" fill="#daebe8"/>
        <path id="Trazado_635428" data-name="Trazado 635428" d="M1468.285,977.5a.456.456,0,1,0-.466.431.449.449,0,0,0,.466-.431" transform="translate(-1100.305 -732.638)" fill="#daebe8"/>
        <path id="Trazado_635429" data-name="Trazado 635429" d="M1359.691,895.371a81.148,81.148,0,0,0-2.056,17.984l11.453-29.843a60.963,60.963,0,0,1-15.375-1.851c-5.229-1.3-14.555-9.2-15.531-9.77-1.054-.611-4.812,3.91-4.812,3.91-.84,1.472,12.333,16.224,26.322,19.57" transform="translate(-999.793 -653.743)" fill="#ad84ff"/>
        <path id="Trazado_635430" data-name="Trazado 635430" d="M1510.7,925.01s9.983.227,23.847,29.172a1.748,1.748,0,0,1-.732,2.293l-3.222,1.717a3.012,3.012,0,0,1-3.959-1.048c-2.923-4.517-9.611-14.172-15.085-17.027-7.227-3.77-.849-15.107-.849-15.107" transform="translate(-1130.843 -693.616)" fill="#ad84ff"/>
        <path id="Trazado_635431" data-name="Trazado 635431" d="M1495.021,923.265l2.055.436a1.037,1.037,0,0,1-.676,1.352c-1.018.306-1.221.3-1.562,1.051s-1.6.754-2.037.48-1.235.7-1.952.68-1.114-1.256-.815-2.066a13.38,13.38,0,0,0,4.988-1.934" transform="translate(-1117.221 -692.308)" fill="#daebe8"/>
        <path id="Trazado_635432" data-name="Trazado 635432" d="M1538.546,997.513a.071.071,0,0,1-.065-.041c-1.527-3.333-5.378-6.059-5.418-6.086a.072.072,0,0,1,.082-.117c.038.029,3.92,2.776,5.465,6.144a.072.072,0,0,1-.035.094.1.1,0,0,1-.029.006" transform="translate(-1149.54 -743.291)" fill="#331832"/>
        <path id="Trazado_635433" data-name="Trazado 635433" d="M1438.5,958.97a.045.045,0,0,1-.021,0,.069.069,0,0,1-.047-.088l.707-2.274a.079.079,0,0,1,.088-.047.069.069,0,0,1,.047.088l-.707,2.274a.07.07,0,0,1-.067.05" transform="translate(-1078.599 -717.271)" fill="#331832"/>
        <path id="Trazado_635434" data-name="Trazado 635434" d="M1465.375,1066.553s8.787,39,24.232,52.947a4.815,4.815,0,0,0,5.432.711l2.827-1.441a4.037,4.037,0,0,0,1.738-5.368c-4-8.117-13.49-28.668-16.449-46.543Z" transform="translate(-1098.806 -799.752)" fill="#2e0877"/>
        <path id="Trazado_635435" data-name="Trazado 635435" d="M1469.673,1111.885c-.039-.106-3.957-10.451-5.268-16.3a11.768,11.768,0,0,0-5.919-7.937l.081-.182a11.992,11.992,0,0,1,6.03,8.077c1.31,5.836,5.223,16.173,5.262,16.275Z" transform="translate(-1093.64 -815.43)" fill="#331832"/>
        <path id="Trazado_635436" data-name="Trazado 635436" d="M639.545,187.177a7.225,7.225,0,0,0-7.575-3.21c-5.394.819-9.125,6.744-13.317,3.187s-8.615-3.4-11.192-.165.7,7.207-6.036,6.08-6.936,4.818-2.081,10.589,18.973,8.59,25.211,5.75,13.31-6.774,15.727-9.547,3.375-10.243-.737-12.685" transform="translate(-446.905 -137.866)" fill="#331832"/>
        <path id="Trazado_635437" data-name="Trazado 635437" d="M682.378,184.6c-.01-.046-1.013-4.635-5.182-4.771-2.893-.089-5.368,1.36-7.541,2.643-2.084,1.232-3.885,2.295-5.368,1.4-3.7-2.238-6.386-3.108-10.007-1.3l-.131-.261c4.113-2.058,7.214-.557,10.29,1.307,1.332.807,2.981-.167,5.068-1.4,2.206-1.3,4.705-2.784,7.7-2.684,4.4.144,5.448,4.955,5.458,5Z" transform="translate(-490.511 -134.622)" fill="#331832"/>
        <path id="Trazado_635438" data-name="Trazado 635438" d="M674.531,204.556a9.32,9.32,0,0,1-5.669-2.55.05.05,0,0,1-.006-.07.058.058,0,0,1,.068-.006c3.466,2.893,6.725,3.327,8.724,1.165,2.138-2.321,5.205-3.227,7.64-2.245a3.809,3.809,0,0,0,4.144-.71.049.049,0,0,1,.069,0,.047.047,0,0,1,0,.068,3.837,3.837,0,0,1-2.642,1.062,4.251,4.251,0,0,1-1.608-.329c-2.4-.968-5.425-.068-7.535,2.221a4.194,4.194,0,0,1-3.188,1.4" transform="translate(-501.53 -150.064)" fill="#331832"/>
        <path id="Trazado_635439" data-name="Trazado 635439" d="M634.517,210.895a38.541,38.541,0,0,1-5.454-10.368l5.213-.94c2.859,7.387,11.14,12.992,18.311,12.228l5.825,8.307c-4.13,1.548-17.129-.784-23.9-9.226" transform="translate(-471.701 -149.66)" fill="#ffb27d"/>
        <path id="Trazado_635440" data-name="Trazado 635440" d="M628.221,181.117c.2-.841.222-2.626.408-3.472.08-.367.265-1.628-.09-1.792-.308-.143-.929.743-1.172,1.206-1.148-3.011-3.739-6.545-1.724-.429l-.008,0c-.213-.514-1.647-4.333-2.378-3.838-.535.363.738,3.475,1.079,4.324l-.021.01c-.418-.839-1.545-3.431-2.075-3.111-.7.422.862,3.723.862,3.723s-1.227-2.767-1.773-1.993c-.308.436.469,2.053.967,3.054h0c.1.21.2.393.264.532a1.654,1.654,0,0,0,.182.3,14.779,14.779,0,0,0,1.785,2.541,1.978,1.978,0,0,0,2.256.739,2.687,2.687,0,0,0,1.437-1.793" transform="translate(-465.849 -129.537)" fill="#ffb27d"/>
        <path id="Trazado_635441" data-name="Trazado 635441" d="M632.568,506.74s.12,4.534-.526,5.811-3.223,4.142-1.333,4.168c1.084.015,3.713-2.852,4.539-3.561s2-1.005,2.052-2.1c.024-.518-.854-1.248-1.191-2.157a15.549,15.549,0,0,1-.753-3.324s-1.367-1.532-2.023-1a2.588,2.588,0,0,0-.766,2.158" transform="translate(-472.425 -378.275)" fill="#331832"/>
        <path id="Trazado_635442" data-name="Trazado 635442" d="M710.5,350.157c-.5,1.661-6.835,1.237-14.159-.947s-12.861-5.3-12.366-6.963,6.835-1.237,14.159.947S711,348.5,710.5,350.157" transform="translate(-512.853 -255.873)" fill="#331832"/>
        <path id="Trazado_635443" data-name="Trazado 635443" d="M514.515,419.944s-4.191,1.534-5.566,1.321-4.779-1.759-4.265.041c.3,1.033,3.716,2.628,4.613,3.189s1.507,1.583,2.539,1.29c.49-.139.92-1.2,1.671-1.805a15.49,15.49,0,0,1,2.883-1.756s1.038-1.777.354-2.231a2.471,2.471,0,0,0-2.23-.05" transform="translate(-378.397 -314.703)" fill="#331832"/>
        <path id="Trazado_635444" data-name="Trazado 635444" d="M706.168,255.1s-1.631-5.58-8.6-5.767c-3.295-.088-6.4-.222-8.373,5.424-1.77,5.069-2.79,7.487-5.126,18.562a34.913,34.913,0,0,1,26.525,7.909c1.539-5.226,1.445-16.944.4-24.96-.327-2.5-4.253.621-4.821-1.168" transform="translate(-512.945 -186.943)" fill="#ad84ff"/>
        <path id="Trazado_635445" data-name="Trazado 635445" d="M724.566,250.385l-1.593,6.471s-20.215,2.52-21.862-.461c-2.454-4.44-1.147-10.179-1.147-10.179a85.114,85.114,0,0,0,8.821.17c2.707-.153,3.426-.462,6.579.5,7.241,2.21,9.2,3.5,9.2,3.5" transform="translate(-524.605 -184.624)" fill="#cfb7ff"/>
        <path id="Trazado_635446" data-name="Trazado 635446" d="M779.79,262.062c.51.744-.205,3.357-1.749,5.17-1.611,1.893-3.218,3.3-4.261,2.63-1.469-.941.5-4.523,2.08-6.139,2.061-2.109,3.566-2.192,3.93-1.661" transform="translate(-579.828 -196.301)" fill="#331832"/>
        <path id="Trazado_635447" data-name="Trazado 635447" d="M735.234,224.018c-.915-.449-.057-2.362-.057-2.362.794-.073,1.314-.172,1.448-.774l.163-.74.08-.367.26-1.172.232-1.053.954-4.316.552,4.605.094.782s.112,2.856,1.848,3.283c.061-.032-3.585,3.088-5.574,2.113" transform="translate(-550.996 -159.893)" fill="#ffb27d"/>
        <path id="Trazado_635448" data-name="Trazado 635448" d="M745.122,234.67a2.99,2.99,0,0,1-2.092,1.153l.26-1.172c.744-.043,1.833.019,1.833.019" transform="translate(-557.158 -175.942)" fill="#f09962"/>
        <path id="Trazado_635449" data-name="Trazado 635449" d="M758.332,216.168a4.9,4.9,0,0,0-.394,2.186c-.033,2.255-2.686,2.408-3.122,1.632-.054-.1,1.1-3.6,1.1-3.6l.9-.223Z" transform="translate(-565.994 -162.087)" fill="#331832"/>
        <path id="Trazado_635450" data-name="Trazado 635450" d="M730.459,199.393c.807-2.705,3.253-4.364,5.462-3.7s3.346,3.387,2.539,6.092-3.253,4.364-5.462,3.7-3.346-3.387-2.539-6.092" transform="translate(-547.537 -146.629)" fill="#ffb27d"/>
        <path id="Trazado_635451" data-name="Trazado 635451" d="M745.493,214.877a.094.094,0,0,1,.041-.174,1.034,1.034,0,0,1,1.1.612.094.094,0,0,1-.041.127.1.1,0,0,1-.128-.042,1.635,1.635,0,0,0-.913-.509.1.1,0,0,1-.059-.014" transform="translate(-558.971 -160.987)" fill="#080435"/>
        <path id="Trazado_635452" data-name="Trazado 635452" d="M746.529,218.982c-.057.217-.233.36-.392.318a.366.366,0,0,1-.184-.47c.057-.217.233-.36.392-.317a.366.366,0,0,1,.184.47" transform="translate(-559.337 -163.845)" fill="#080435"/>
        <path id="Trazado_635453" data-name="Trazado 635453" d="M731.843,212.472a.1.1,0,0,1-.069-.05.094.094,0,0,1,.04-.127,1.033,1.033,0,0,1,1.25.151.1.1,0,0,1,.01.133.1.1,0,0,1-.134.01,1.638,1.638,0,0,0-1.038-.126.1.1,0,0,1-.059.009" transform="translate(-548.71 -159.081)" fill="#080435"/>
        <path id="Trazado_635454" data-name="Trazado 635454" d="M735.015,215.907c.031.223-.077.421-.24.443s-.32-.142-.35-.366.077-.421.24-.442.32.142.35.365" transform="translate(-550.702 -161.622)" fill="#080435"/>
        <path id="Trazado_635455" data-name="Trazado 635455" d="M735.485,225.022a1.486,1.486,0,0,0,.91,1.181,1.275,1.275,0,0,0,1.458-.654,5.386,5.386,0,0,1-2.368-.526" transform="translate(-551.501 -168.733)" fill="#fff"/>
        <path id="Trazado_635456" data-name="Trazado 635456" d="M646.4,354.49s-15.794,9.584-18.846,16.553-3.3,20.85-.241,22.671,6.106,1.935,7.792-4.154,1.847-14.322,7.465-16.62,21.768-10.29,19.778-13.81-13.519-6.19-15.948-4.641" transform="translate(-468.755 -265.476)" fill="#73b3ce"/>
        <path id="Trazado_635457" data-name="Trazado 635457" d="M576.865,347.051s-17.578,2.727-22.386,5.534-14.271,9.3-14.088,12.472,3.345,4.839,6.135,4.295,13.993-7.65,17.982-8.606a166.584,166.584,0,0,1,22.661-3.414l2.324-8.022a34.531,34.531,0,0,0-12.629-2.259" transform="translate(-405.208 -260.234)" fill="#73b3ce"/>
        <path id="Trazado_635458" data-name="Trazado 635458" d="M650.91,378.85l-.141-.135c1.821-1.933,8.727-7.183,8.8-7.235l.117.153c-.069.053-6.964,5.293-8.774,7.218" transform="translate(-487.977 -278.553)" fill="#331832"/>
        <path id="Trazado_635459" data-name="Trazado 635459" d="M732.07,193.976a2.342,2.342,0,0,1-2.713,1.616,4.578,4.578,0,0,0-3.753,1.872l1.14-5.867,5.368-.426L735.1,192.5l.405,5.1-.459,2.3-.488-1.948s-1.041-3.565-2.491-3.979" transform="translate(-544.091 -143.35)" fill="#331832"/>
        <path id="Trazado_635460" data-name="Trazado 635460" d="M757.957,218.518a1.031,1.031,0,0,1-1.445-.324,1.133,1.133,0,0,1,.66-1.389,1.031,1.031,0,0,1,1.445.324,1.133,1.133,0,0,1-.66,1.389" transform="translate(-567.214 -162.457)" fill="#ffb27d"/>
        <path id="Trazado_635461" data-name="Trazado 635461" d="M790.163,284.716a38.544,38.544,0,0,1-2.972,11.332l-4.481-2.824c2.726-7,.183-17.332-5.039-22.027a1.51,1.51,0,0,1-.234-1.734c1.033-2.794,4.239-5.985,5.583-4.322,3.55,4.393,7.613,12.352,7.143,19.576" transform="translate(-582.838 -198.472)" fill="#ffb27d"/>
        <path id="Trazado_635462" data-name="Trazado 635462" d="M792.66,372.985c-.716.485-1.936,1.788-2.644,2.287-.307.217-1.294,1.022-1.143,1.383.132.313,1.187.079,1.679-.1-1.185,3-1.657,7.353.982,1.48l.007,0c-.19.523-1.708,4.309-.835,4.436.64.093,1.8-3.063,2.121-3.92l.023.007c-.258.9-1.175,3.575-.568,3.7.8.159,1.876-3.329,1.876-3.329s-.962,2.87-.036,2.668c.521-.114,1.039-1.832,1.347-2.906h0c.064-.225.12-.423.164-.571a1.659,1.659,0,0,0,.065-.341,14.8,14.8,0,0,0,.4-3.08,1.979,1.979,0,0,0-1.167-2.068,2.688,2.688,0,0,0-2.27.354" transform="translate(-591.522 -279.316)" fill="#ffb27d"/>
        <g id="Grupo_893820" data-name="Grupo 893820" transform="translate(215.342 132.512)" opacity="0.6">
          <g id="Grupo_893819" data-name="Grupo 893819">
            <g id="Grupo_893818" data-name="Grupo 893818" clip-path="url(#clip-path-10)">
              <path id="Trazado_635463" data-name="Trazado 635463" d="M937.818,529.772c-40.693-1.529-75.373,35.427-76.924,70.447-.975,22.01,11.37,38.017,30.778,47.252,26.365,13.713,25.218,39.894,25.218,39.894L952.4,688.7c1.053-23.786,25.323-39.21,28.426-41.087,14.829-8.687,24.813-24.566,27.869-51.661,3.93-34.847-30.18-64.649-70.873-66.177" transform="translate(-860.84 -529.726)" fill="#fff"/>
            </g>
          </g>
        </g>
        <path id="Trazado_635464" data-name="Trazado 635464" d="M1100.951,1118.71s5,7.574-.459,14.537c-1.524,1.946-5.583,2.982-10.708,3.375-13.212,1.023-33.492-2.219-35.527-5.111-2.825-4.018-1.122-8.513,2.135-9.478,0,0-4.369-3.714-2.982-8.078s3.782-5.143,3.782-5.143-3.344-2.08-3.4-7.946c-.024-2.321,1.049-4.862,4.458-6.714,5.206-2.829,15.861-4.049,36.375-.409,0,0,9.257,1.728,6.551,12.053,0,0,6.273,7.293-.223,12.913" transform="translate(-789.459 -818.446)" fill="#25ffff"/>
        <g id="Grupo_893823" data-name="Grupo 893823" transform="translate(237.967 148.403)" opacity="0.9">
          <g id="Grupo_893822" data-name="Grupo 893822">
            <g id="Grupo_893821" data-name="Grupo 893821" clip-path="url(#clip-path-11)">
              <path id="Trazado_635465" data-name="Trazado 635465" d="M999.476,610.142s-16.88,4.033-27.095,17.175-23.673,3.295-20.671-10.643,20.724-25.565,30.975-23.089,26.051,7.625,16.791,16.557" transform="translate(-951.283 -593.25)" fill="#fff"/>
            </g>
          </g>
        </g>
        <path id="Trazado_635466" data-name="Trazado 635466" d="M1155.979,1190.631a.652.652,0,0,1-.3-.044,43.692,43.692,0,0,0-8.684-2.171,47.577,47.577,0,0,0-20.037,1.1.647.647,0,0,1-.356-1.244,48.894,48.894,0,0,1,20.629-1.126,44.019,44.019,0,0,1,8.93,2.242.647.647,0,0,1-.179,1.244" transform="translate(-844.425 -889.722)" fill="#049b9b"/>
        <path id="Trazado_635467" data-name="Trazado 635467" d="M1150.214,1139.09a.652.652,0,0,1-.241-.022,83.261,83.261,0,0,0-10.872-2.145c-5.64-.736-13.707-1.168-20.1.959a.647.647,0,1,1-.408-1.228c6.636-2.206,14.92-1.768,20.7-1.012a84.683,84.683,0,0,1,11.041,2.182.647.647,0,0,1-.116,1.266" transform="translate(-838.438 -851.096)" fill="#049b9b"/>
        <path id="Trazado_635468" data-name="Trazado 635468" d="M1089.785,1144.613c-13.212,1.023-33.492-2.219-35.527-5.111-2.824-4.018-1.122-8.513,2.135-9.478,0,0-4.369-3.714-2.982-8.077s3.782-5.143,3.782-5.143-3.344-2.08-3.4-7.946c-.023-2.321,1.049-4.862,4.458-6.714l.008,0s-4.44,11.356,6.05,14.854a1.351,1.351,0,0,1,.351,2.271c-1.311,1.4.263,9.092,3.583,10.666s-.787,7.605,3.409,10.666c3.228,2.352,13.548,3.577,18.135,4.015" transform="translate(-789.459 -826.437)" fill="#049b9b"/>
        <path id="Trazado_635469" data-name="Trazado 635469" d="M1045.556,710.274c-7.262-10.049-3.672-31.676,25.692-43.033,25.887-10.012,34.222-22.392,34.222-22.392s9.768,30.735-4.236,54.467c-17.091,28.964-46.28,23.962-55.678,10.957" transform="translate(-781.591 -483.538)" fill="#d6d944"/>
        <path id="Trazado_635470" data-name="Trazado 635470" d="M1059.246,728.99a1.059,1.059,0,0,1-1.037-.854c-.05-.255-4.65-25.656,26.951-45.1,25.713-15.829,30.927-41.315,30.977-41.57a1.059,1.059,0,0,1,2.08.4c-.051.267-5.414,26.639-31.948,42.97-30.362,18.687-26.03,42.65-25.983,42.891a1.058,1.058,0,0,1-.833,1.244.99.99,0,0,1-.207.02" transform="translate(-793.298 -480.354)" fill="#acab58"/>
        <path id="Trazado_635471" data-name="Trazado 635471" d="M1106.578,796.382a1.06,1.06,0,0,1-1.014-.754c-3.3-10.935-.1-18.561.041-18.878a1.059,1.059,0,0,1,1.945.839c-.031.07-3.024,7.273.041,17.428a1.06,1.06,0,0,1-.707,1.32,1.119,1.119,0,0,1-.307.044" transform="translate(-827.888 -581.967)" fill="#acab58"/>
        <path id="Trazado_635472" data-name="Trazado 635472" d="M1180.5,797.184c-3.031,0-5.129-.138-5.364-.156a1.058,1.058,0,0,1-.983-1.129,1.039,1.039,0,0,1,1.13-.983c.155.006,16.045,1.056,24.979-2.787a1.06,1.06,0,0,1,.836,1.948c-6.115,2.629-14.967,3.107-20.6,3.107" transform="translate(-880.431 -593.909)" fill="#acab58"/>
        <path id="Trazado_635473" data-name="Trazado 635473" d="M926.441,933.467a7.241,7.241,0,0,1-2.915-1.034c-2.96-1.819-4.946-5.662-6.438-12.462a33.162,33.162,0,0,0-2.714-6.943l6.672-3.578a40.527,40.527,0,0,1,3.437,8.9c.518,2.362.794-12.547,2.07-13.957.782-.864,3.936.558,3.936.558a75.344,75.344,0,0,1,2.5,11.828,58.057,58.057,0,0,1,.555,8.8,14.471,14.471,0,0,1-.575,3.869,5.307,5.307,0,0,1-3.705,3.821,7.543,7.543,0,0,1-2.824.2" transform="translate(-685.64 -677.946)" fill="#ffb27d"/>
        <path id="Trazado_635474" data-name="Trazado 635474" d="M962.205,1014.143c-.82,0-1.463-.317-1.464-.725a.468.468,0,0,1,.151-.331,1.969,1.969,0,0,1,1.32-.4h.012c.82,0,1.463.317,1.464.725s-.647.73-1.471.73Zm.007-1.256a1.789,1.789,0,0,0-1.181.341.275.275,0,0,0-.094.191c0,.249.521.525,1.268.525h.012c.751,0,1.275-.279,1.275-.531s-.521-.525-1.268-.525Z" transform="translate(-720.408 -759.361)" fill="#e9845c"/>
        <path id="Trazado_635475" data-name="Trazado 635475" d="M951.189,968.766a.1.1,0,0,1-.1-.088,15.574,15.574,0,0,1,1.034-7.464.09.09,0,0,1,.132-.047.1.1,0,0,1,.047.129,15.355,15.355,0,0,0-1.017,7.359.1.1,0,0,1-.087.109s-.007,0-.012,0" transform="translate(-713.109 -720.718)" fill="#e9845c"/>
        <path id="Trazado_635476" data-name="Trazado 635476" d="M966.292,901.2s4.054.345,5.641-1.237,2.418-4.8,1.227-4.03a14.766,14.766,0,0,0-2.443,2.178s2.531-3.131,1.542-3.405-3.163,2.469-3.163,2.469,2.714-3.965,1.7-3.922-3.058,3.07-3.058,3.07,2.378-3.79,1.2-3.713-1.945,3.145-2.933,2.87-4.828-1.218-4.828,1.553Z" transform="translate(-720.73 -669.32)" fill="#ffb27d"/>
        <path id="Trazado_635477" data-name="Trazado 635477" d="M993.946,915.482a.081.081,0,0,1-.082-.076.082.082,0,0,1,.076-.088c.65-.041,1.216-.992,1.22-1a.081.081,0,0,1,.114-.03.083.083,0,0,1,.03.112c-.025.044-.616,1.036-1.353,1.083Z" transform="translate(-745.245 -685.566)" fill="#e9845c"/>
        <path id="Trazado_635478" data-name="Trazado 635478" d="M986.467,911.946a.082.082,0,0,1-.022-.161,2.794,2.794,0,0,0,1.486-1.206.083.083,0,1,1,.144.082,2.9,2.9,0,0,1-1.586,1.282.055.055,0,0,1-.022,0" transform="translate(-739.637 -682.763)" fill="#e9845c"/>
        <path id="Trazado_635479" data-name="Trazado 635479" d="M981.415,908.457H981.4a.081.081,0,0,1-.08-.085.08.08,0,0,1,.082-.079h.015c.687,0,1.35-1.118,1.356-1.13a.079.079,0,0,1,.113-.029.082.082,0,0,1,.031.112c-.029.05-.719,1.212-1.5,1.212" transform="translate(-735.839 -680.201)" fill="#e9845c"/>
        <path id="Trazado_635480" data-name="Trazado 635480" d="M883.274,1293.334s.117,2.26,1.665,2.857,6,1.053,4.38,2.552c-.928.86-5.424.442-6.689.476s-2.438.618-3.4-.2c-1.059-.9-.15-5.568-.15-5.568a5.056,5.056,0,0,0,2.088.487,4.028,4.028,0,0,0,2.107-.6" transform="translate(-658.902 -969.802)" fill="#331832"/>
        <path id="Trazado_635481" data-name="Trazado 635481" d="M886.7,1019.031s.58,10.2-2.149,29.87c-1.97,14.2-4.363,28.521-5.541,35.388a5.33,5.33,0,0,1-4.86,4.461l-1.307.088a4.474,4.474,0,0,1-4.708-4.721l2.059-46.294.4-15.23Z" transform="translate(-650.964 -764.117)" fill="#0f58b9"/>
        <path id="Trazado_635482" data-name="Trazado 635482" d="M825.327,1294.9s.117,2.26,1.665,2.857,6,1.053,4.38,2.552c-.928.86-5.424.442-6.689.476s-2.438.618-3.4-.2c-1.059-.9-.15-5.568-.15-5.568a5.057,5.057,0,0,0,2.088.487,4.029,4.029,0,0,0,2.107-.6" transform="translate(-615.45 -970.974)" fill="#331832"/>
        <path id="Trazado_635483" data-name="Trazado 635483" d="M828.752,1020.594s.581,10.2-2.149,29.87c-1.971,14.2-4.363,28.521-5.541,35.387a5.331,5.331,0,0,1-4.86,4.461l-1.307.088a4.474,4.474,0,0,1-4.708-4.721l2.059-46.294.4-15.23Z" transform="translate(-607.512 -765.289)" fill="#0f58b9"/>
        <path id="Trazado_635484" data-name="Trazado 635484" d="M814.517,1056.193c.065,1.231,7.525,1.519,16.728.983s16.529-2.008,16.464-3.239-7.5-1.754-16.7-1.219-16.559,2.243-16.494,3.474" transform="translate(-610.762 -789.222)" fill="#331832"/>
        <path id="Trazado_635485" data-name="Trazado 635485" d="M813.794,906.914s1.455-6.5,13.47-6.889c17.327-.562,16.152,15.4,18.408,39.561,0,0-17.135-1.954-33.21,1.953,0,0-2.166-24.66,1.331-34.625" transform="translate(-608.725 -674.87)" fill="#ad84ff"/>
        <path id="Trazado_635486" data-name="Trazado 635486" d="M801.94,905.952l7.966,4.131s17.228,1.1,21.77.223a7.31,7.31,0,0,0,5.7-4.259,25.154,25.154,0,0,0-13.29-6.016c-.779-.106-1.587-.178-2.423-.21a23.728,23.728,0,0,0-4.172.2c-10.436,1.462-15.554,5.935-15.554,5.935" transform="translate(-601.332 -674.714)" fill="#ad84ff"/>
        <path id="Trazado_635487" data-name="Trazado 635487" d="M860.257,867.767l.828-2.952.241-.859,1.417-5.053.339,4.98.2,2.989.064.946c.044.642.439.767.931,1.313.2.221,1.473,1.56.086,2.218-1.727.82-5.027-.262-6.311-1.76.01,0,1.934-.866,2.2-1.82" transform="translate(-643.41 -644.045)" fill="#ffb27d"/>
        <path id="Trazado_635488" data-name="Trazado 635488" d="M849.494,1060.044s-10.059-2.667-30.62,1.921l-.079,2.978,30.328.254Z" transform="translate(-613.97 -794.293)" fill="#0f58b9"/>
        <path id="Trazado_635489" data-name="Trazado 635489" d="M800.738,923.414c-.64.96.39,2.793,2.3,4.1s3.979,1.58,4.619.621-.39-2.793-2.3-4.1-3.979-1.58-4.619-.621" transform="translate(-600.288 -691.991)" fill="#331832"/>
        <path id="Trazado_635490" data-name="Trazado 635490" d="M774.67,965.785c.508-7.974,1.769-19.858,5.32-28.967a27.27,27.27,0,0,1,1.823-4.062c.527-.932-.515-2.92-2.1-3.839-1.487-.862-3.76-.653-4.109-.2a24.054,24.054,0,0,0-2.162,4.585c-3.319,8.121-5.765,18.988-6.262,32.377Z" transform="translate(-575.267 -696.1)" fill="#ffb27d"/>
        <path id="Trazado_635491" data-name="Trazado 635491" d="M883.343,847.681a6.587,6.587,0,0,1,.55,2.679c0,1.554-2.272-1.8-2.272-1.8Z" transform="translate(-661.08 -635.631)" fill="#5c305d"/>
        <path id="Trazado_635492" data-name="Trazado 635492" d="M865.48,848.492c-.97-2.8-3.642-4.424-5.967-3.619s-3.424,3.73-2.453,6.534,3.642,4.424,5.967,3.62,3.424-3.73,2.453-6.534" transform="translate(-642.398 -633.371)" fill="#ffb27d"/>
        <path id="Trazado_635493" data-name="Trazado 635493" d="M845.034,839.987l2.067-.653a1.57,1.57,0,0,0,1-.926c.293-.766.743-1.221,2.729-1.552,2.514-.419,3.856-2.245,3.858-3.606a1.521,1.521,0,0,0-2.584-1.137c-1.123.893-.905-.776-2.144-.694-2.316.154-2.381,1.977-4.236,2.3-2.433.423-6.386,3.15-3.458,6.984Z" transform="translate(-630.791 -623.435)" fill="#331832"/>
        <path id="Trazado_635494" data-name="Trazado 635494" d="M872.759,864.25a.089.089,0,0,0,.027-.076.09.09,0,0,0-.1-.079.978.978,0,0,0-.9.79.091.091,0,0,0,.064.11.1.1,0,0,0,.11-.064,1.548,1.548,0,0,1,.747-.657.09.09,0,0,0,.052-.025" transform="translate(-653.703 -647.939)" fill="#080435"/>
        <path id="Trazado_635495" data-name="Trazado 635495" d="M874.918,868.071c.1.192.289.291.429.22a.35.35,0,0,0,.076-.476c-.1-.192-.289-.291-.429-.22a.35.35,0,0,0-.076.476" transform="translate(-656.012 -650.547)" fill="#080435"/>
        <path id="Trazado_635496" data-name="Trazado 635496" d="M885.819,860.242a.066.066,0,0,0,.039-.054.109.109,0,0,0-.059-.113.634.634,0,0,0-.881.288.107.107,0,0,0,.023.124.067.067,0,0,0,.1-.007.948.948,0,0,1,.732-.24.061.061,0,0,0,.046,0" transform="translate(-663.544 -644.866)" fill="#080435"/>
        <path id="Trazado_635497" data-name="Trazado 635497" d="M886.067,864.03c.017.215.157.379.313.367s.269-.2.252-.411-.157-.379-.313-.367-.269.2-.252.411" transform="translate(-664.413 -647.582)" fill="#080435"/>
        <path id="Trazado_635498" data-name="Trazado 635498" d="M845.374,863.775s2.105,2.848,4.222,2.654c0,0-2.166-2.055,1.06-4.242,0,0-3.342.156-5.281,1.588" transform="translate(-633.901 -646.508)" fill="#5c305d"/>
        <path id="Trazado_635499" data-name="Trazado 635499" d="M856.515,868.019a.872.872,0,1,0-.6-1.154.922.922,0,0,0,.6,1.154" transform="translate(-641.768 -649.615)" fill="#ffb27d"/>
        <path id="Trazado_635500" data-name="Trazado 635500" d="M862.709,862.843s.26,2.7.9,3.089,4.125-.267,5.65-1.247l.011.005a3.627,3.627,0,0,1-2.005,4.186,5.119,5.119,0,0,1-1.72.352,3.524,3.524,0,0,1-3.127-1.19,10.271,10.271,0,0,1-.2-2.4,2.327,2.327,0,0,0-.9-1.689,3.435,3.435,0,0,1,1.391-1.107" transform="translate(-645.856 -647)" fill="#5c305d"/>
        <path id="Trazado_635501" data-name="Trazado 635501" d="M880.77,832.235a.665.665,0,0,1-.637-.446l.117-.035a.531.531,0,0,0,.521.358.879.879,0,0,0,.2-.023l.027.117a.966.966,0,0,1-.23.029" transform="translate(-659.964 -623.688)" fill="#331832"/>
        <path id="Trazado_635502" data-name="Trazado 635502" d="M881.775,838.822l-.029-.053c.026-.015,2.519-1.344,2.347-2.738a.914.914,0,0,0-.358-.742c-.312-.17-.769.041-1.168.223-.063.029-.123.059-.182.082l-.023-.053c.057-.026.117-.056.179-.082.418-.194.882-.408,1.225-.223a.972.972,0,0,1,.389.789c.176,1.432-2.275,2.74-2.379,2.8" transform="translate(-661.174 -626.247)" fill="#fff"/>
        <path id="Trazado_635503" data-name="Trazado 635503" d="M855.44,837.515l0-.059a4.406,4.406,0,0,0,3.622-1.913l.053.029a4.454,4.454,0,0,1-3.672,1.942" transform="translate(-641.446 -626.529)" fill="#fff"/>
        <path id="Trazado_635504" data-name="Trazado 635504" d="M784.149,995.337a.685.685,0,0,1-.11-.009.917.917,0,0,1-.61-.379,1.852,1.852,0,0,1-.289-1.344h0a1.982,1.982,0,0,1,.459-1.047.97.97,0,0,1,.873-.37c.615.082,1.018.857.9,1.725-.113.813-.648,1.423-1.222,1.423m.208-2.858a.749.749,0,0,0-.54.279,1.666,1.666,0,0,0-.383.889h0a1.556,1.556,0,0,0,.233,1.124.648.648,0,0,0,.413.264.569.569,0,0,0,.069,0c.421,0,.836-.51.927-1.165.1-.7-.2-1.329-.647-1.391a.576.576,0,0,0-.072,0" transform="translate(-587.219 -743.981)" fill="#ec865c"/>
        <path id="Trazado_635505" data-name="Trazado 635505" d="M763.871,1067.017s6.422.192,6.641.656c.505,1.072,1.021,3.409,1.505,4.49.21.469.807,2.093.367,2.363-.382.234-1.471-.834-1.928-1.4-.636,3.323-2.458,7.911-2.234.825h-.012c-.15.706-.9,5.138-1.925,5-.783-.105-.212-4.276.022-5.44l-.032-.01c-.341,1.163-.912,4.652-1.8,4.446-.759-.175-.057-5.015-.057-5.015s-.958,3.944-1.6,3.189c-.591-.693.2-4.412.44-5.54.246-1.171.618-3.559.618-3.559" transform="translate(-571.832 -800.099)" fill="#ffb27d"/>
        <path id="Trazado_635506" data-name="Trazado 635506" d="M924.747,926.746a15.762,15.762,0,0,0-2.3-4.014l.156-.123a16.014,16.014,0,0,1,2.328,4.078Z" transform="translate(-691.696 -691.816)" fill="#331832"/>
        <path id="Trazado_635507" data-name="Trazado 635507" d="M873.474,1104.614l-.2-.024c.012-.085,1.128-8.444,1.97-11.446.851-3.031,4.764-5.645,4.8-5.672l.109.164c-.038.026-3.891,2.6-4.721,5.56-.838,2.99-1.954,11.335-1.964,11.417" transform="translate(-654.823 -815.438)" fill="#331832"/>
        <path id="Trazado_635508" data-name="Trazado 635508" d="M877.515,875.664a6.282,6.282,0,0,0,2.885-.525,1.292,1.292,0,0,1-.973,1.311,1.55,1.55,0,0,1-1.912-.787" transform="translate(-658.001 -656.22)" fill="#fff"/>
      </g>
    </g>
  </g>
</svg>
