<svg xmlns="http://www.w3.org/2000/svg" xmlns:xlink="http://www.w3.org/1999/xlink" width="144.324" height="141.101" viewBox="0 0 144.324 141.101">
  <defs>
    <clipPath id="clip-path">
      <rect id="Rectángulo_45178" data-name="Rectángulo 45178" width="105.776" height="141.101" fill="none"/>
    </clipPath>
    <clipPath id="clip-path-2">
      <rect id="Rectángulo_45171" data-name="Rectángulo 45171" width="105.776" height="144.101" fill="none"/>
    </clipPath>
    <clipPath id="clip-path-3">
      <rect id="Rectángulo_45165" data-name="Rectángulo 45165" width="21.396" height="19.65" fill="none"/>
    </clipPath>
    <clipPath id="clip-path-4">
      <rect id="Rectángulo_45166" data-name="Rectángulo 45166" width="8.318" height="26.616" fill="none"/>
    </clipPath>
    <clipPath id="clip-path-5">
      <rect id="Rectángulo_45167" data-name="Rectángulo 45167" width="8.776" height="30.205" fill="none"/>
    </clipPath>
    <clipPath id="clip-path-6">
      <rect id="Rectángulo_45168" data-name="Rectángulo 45168" width="18.322" height="22.243" fill="none"/>
    </clipPath>
    <clipPath id="clip-path-7">
      <rect id="Rectángulo_45169" data-name="Rectángulo 45169" width="5.033" height="4.391" fill="none"/>
    </clipPath>
    <clipPath id="clip-path-8">
      <rect id="Rectángulo_45170" data-name="Rectángulo 45170" width="75.981" height="44.54" fill="none"/>
    </clipPath>
    <clipPath id="clip-path-9">
      <path id="Trazado_258529" data-name="Trazado 258529" d="M26.4,0V109.891L43.2,116.7l.067.019c-.26,1.069.316,2.192,1.739,3.014a9.638,9.638,0,0,0,8.72,0l3.376-.318,4.282,12.657H72.713l.977-11.667,35.356-22.469L89.931,70.515V0Z" transform="translate(-26.398 0.001)" fill="none"/>
    </clipPath>
    <clipPath id="clip-path-10">
      <path id="Trazado_258531" data-name="Trazado 258531" d="M47.944,64.56c.011,1.2.014,1.879.017,3.083l.009-3.372c0-1.2-.006-1.879-.017-3.083Z" transform="translate(-47.944 -61.188)" fill="none"/>
    </clipPath>
    <clipPath id="clip-path-11">
      <path id="Trazado_258533" data-name="Trazado 258533" d="M47.958,61.089c.011,1.2.015,1.879.017,3.083L50.39,62.82c0-.626,0-1.3-.011-1.927Z" transform="translate(-47.958 -60.893)" fill="none"/>
    </clipPath>
    <clipPath id="clip-path-13">
      <path id="Trazado_258539" data-name="Trazado 258539" d="M58.619,71.98l-.009,3.372h5.322l.009-3.372H58.619" transform="translate(-58.61 -71.98)" fill="none"/>
    </clipPath>
    <clipPath id="clip-path-15">
      <path id="Trazado_258543" data-name="Trazado 258543" d="M59.618,68.705l-.994,2.171h5.322L62.94,68.705Z" transform="translate(-58.624 -68.705)" fill="none"/>
    </clipPath>
    <clipPath id="clip-path-18">
      <rect id="Rectángulo_45172" data-name="Rectángulo 45172" width="25.357" height="16.245" fill="none"/>
    </clipPath>
    <clipPath id="clip-path-19">
      <rect id="Rectángulo_45173" data-name="Rectángulo 45173" width="8.846" height="31.623" fill="none"/>
    </clipPath>
    <clipPath id="clip-path-20">
      <rect id="Rectángulo_45174" data-name="Rectángulo 45174" width="11.413" height="38.679" fill="none"/>
    </clipPath>
    <clipPath id="clip-path-21">
      <rect id="Rectángulo_45175" data-name="Rectángulo 45175" width="13.823" height="9.234" fill="none"/>
    </clipPath>
    <clipPath id="clip-path-22">
      <rect id="Rectángulo_45176" data-name="Rectángulo 45176" width="2.965" height="4.153" fill="none"/>
    </clipPath>
  </defs>
  <g id="Grupo_873849" data-name="Grupo 873849" transform="translate(0)">
    <g id="Grupo_873792" data-name="Grupo 873792" transform="translate(0 46.732)">
      <path id="Trazado_256462" data-name="Trazado 256462" d="M123.029,84.5C94.76,68.179,49.069,68.1,20.977,84.316s-27.95,42.6.319,58.92c12.41,7.165,28.178,11.2,44.566,12.113,20.427,1.138,41.726-2.83,57.486-11.929,28.093-16.219,27.95-42.6-.319-58.92" transform="translate(0 -67.767)" fill="#813b18"/>
      <path id="Trazado_256463" data-name="Trazado 256463" d="M123.029,78.426c-28.269-16.321-73.96-16.4-102.052-.184s-27.95,42.6.319,58.92,73.959,16.4,102.052.184,27.95-42.6-.319-58.92" transform="translate(0 -66.131)" fill="#eaa849"/>
    </g>
    <g id="Grupo_873847" data-name="Grupo 873847" transform="translate(20)">
      <g id="Grupo_873846" data-name="Grupo 873846" clip-path="url(#clip-path)">
        <g id="Grupo_873812" data-name="Grupo 873812" transform="translate(0 -3)">
          <g id="Grupo_873811" data-name="Grupo 873811" clip-path="url(#clip-path-2)">
            <g id="Grupo_873795" data-name="Grupo 873795" transform="translate(2.495 85.926)" opacity="0.3" style="mix-blend-mode: multiply;isolation: isolate">
              <g id="Grupo_873794" data-name="Grupo 873794">
                <g id="Grupo_873793" data-name="Grupo 873793" clip-path="url(#clip-path-3)">
                  <path id="Trazado_258443" data-name="Trazado 258443" d="M23.078,132.311c1.836,1.458,2.785,3.972,1.466,5.793-.819,1.132-2.323,1.784-3.231,2.865-1.4,1.665-1.13,4-2.326,5.776a6.711,6.711,0,0,1-5.695,2.512,9.979,9.979,0,0,1-5.972-2.366,9.4,9.4,0,0,1-2.694-11.22c3.113-6.425,12.531-8.062,18.452-3.36" transform="translate(-3.763 -129.611)" fill="#96530e"/>
                </g>
              </g>
            </g>
            <path id="Trazado_258444" data-name="Trazado 258444" d="M18.764,65.96c1.374,1.175,9.78,2.74,12.018,1.307,3.3-1.577,6.521-4.763,10.338-8.115l-1.478-2.914a49.812,49.812,0,0,0-10.591,5.884c-2.507-1.752-7.868-2.5-10.213-4.554Z" transform="translate(-6.324 -18.955)" fill="#004759"/>
            <path id="Trazado_258445" data-name="Trazado 258445" d="M12.46,141.841l-.493,2.557s1.768,2.85,2.93,3.583,2.484,2.483,1.984,3.342-1.914,2-4.868.522a13.534,13.534,0,0,1-2.5-2.555c-2.5-2.989-1.312-4-1.207-5.078a15.293,15.293,0,0,1,.469-2.339Z" transform="translate(-2.673 -47.807)"/>
            <path id="Trazado_258446" data-name="Trazado 258446" d="M22.074,128.977l.016,2.6a10.884,10.884,0,0,0,1.975,1.67,20.56,20.56,0,0,1,2.311,1.466c2.5,2.2-1.442,3.6-3.219,2.1-1.053-.894-1.6-1.637-2.56-1.779s-2.839-.577-3.056-1.272,1.1-4.975,1.1-4.975Z" transform="translate(-5.904 -43.407)"/>
            <path id="Trazado_258447" data-name="Trazado 258447" d="M16.455,96.568l2.331,9.59s-1.975,3.79-1.769,11.964c0,0,1.973,2.8,4.715,1.519,0,0,1.714-12.067,2.707-13.935s-.54-12.344-.54-12.344Z" transform="translate(-5.546 -31.467)" fill="#004759"/>
            <g id="Grupo_873798" data-name="Grupo 873798" transform="translate(10.909 61.895)" opacity="0.5" style="mix-blend-mode: multiply;isolation: isolate">
              <g id="Grupo_873797" data-name="Grupo 873797">
                <g id="Grupo_873796" data-name="Grupo 873796" clip-path="url(#clip-path-4)">
                  <path id="Trazado_258448" data-name="Trazado 258448" d="M16.455,96.568l2.331,9.59s-1.975,3.79-1.769,11.964c0,0,1.973,2.8,4.715,1.519,0,0,1.714-12.067,2.707-13.935s-.54-12.344-.54-12.344Z" transform="translate(-16.455 -93.362)" fill="#004759"/>
                </g>
              </g>
            </g>
            <path id="Trazado_258449" data-name="Trazado 258449" d="M15.786,95.868s.007.374.015,1c.015.6.023,1.443.03,2.411a79.234,79.234,0,0,1-.382,9.2c-.03.206-.427,2.389-.45,2.556-.549,3.4-2.747,13.362-2.594,14.591a11.909,11.909,0,0,1-4.228-.794,1.875,1.875,0,0,1-.619-.466c-1-1.22.839-9.814,1.732-14.331a19.251,19.251,0,0,0-.16-2.7c-.175-.8-1.4-10.837-1.4-10.837a8.51,8.51,0,0,1-.68-1.87,10.22,10.22,0,0,1,.084-4.693c.1-.42.221-.847.367-1.289l13.209,1.244s-.565,5.09-4.93,5.975" transform="translate(-2.299 -29.879)" fill="#004759"/>
            <g id="Grupo_873801" data-name="Grupo 873801" transform="translate(4.756 64.753)" opacity="0.3" style="mix-blend-mode: multiply;isolation: isolate">
              <g id="Grupo_873800" data-name="Grupo 873800">
                <g id="Grupo_873799" data-name="Grupo 873799" clip-path="url(#clip-path-5)">
                  <path id="Trazado_258450" data-name="Trazado 258450" d="M15.95,102.321c0,.008-3.52,2.5-3.52,2.5l-1,9.267L8.3,127.878a1.877,1.877,0,0,1-.618-.465c-1-1.221.839-9.814,1.732-14.332a19.239,19.239,0,0,0-.16-2.7c-.175-.8-1.4-10.837-1.4-10.837a8.476,8.476,0,0,1-.68-1.87L15.92,99.91c.015.6.023,1.442.03,2.411" transform="translate(-7.174 -97.673)" fill="#004759"/>
                </g>
              </g>
            </g>
            <path id="Trazado_258451" data-name="Trazado 258451" d="M23.275,83.7C15.957,88.569,8,88.615,4.952,83.5l.313-3.656c0-.008.283-3.411.283-3.411l.794-9.394.534-6.281c.686-.374,4.6-3.228,7.852-4.3l5.249.859c.709,9.844,2.306,14.167,2.535,17.3l.007.16c.084,1.167.153,2.037.214,2.747.168,2.19.244,2.892.542,6.173" transform="translate(-1.669 -19.031)" fill="#e35b00"/>
            <path id="Trazado_258452" data-name="Trazado 258452" d="M22.957,87.622s-1.941,2.728-7.932,3.964a10.722,10.722,0,0,1-9.6-2.511c0-.008.282-3.412.282-3.412a14.328,14.328,0,0,0,16.964-1.816l.008.16Z" transform="translate(-1.828 -28.261)" fill="#fcee21"/>
            <g id="Grupo_873804" data-name="Grupo 873804" transform="translate(3.283 46.07)" opacity="0.5" style="mix-blend-mode: multiply;isolation: isolate">
              <g id="Grupo_873803" data-name="Grupo 873803">
                <g id="Grupo_873802" data-name="Grupo 873802" clip-path="url(#clip-path-6)">
                  <path id="Trazado_258453" data-name="Trazado 258453" d="M23.275,88.091C15.957,92.96,8,93.006,4.952,87.893l.313-3.656c0-.008.283-3.411.283-3.411l.794-9.394,2.685-1.94C8.717,80.051,15.2,88.635,22.9,84.107c.168,2.19.076.7.374,3.984" transform="translate(-4.952 -69.492)" fill="#bd4c00"/>
                </g>
              </g>
            </g>
            <path id="Trazado_258454" data-name="Trazado 258454" d="M18,52.557l-2.854,3.838c-1.723,1.389,1.289,4.6,4.157,4.824,1.344-.177.67-3.455,2.314-4.306Z" transform="translate(-4.934 -17.714)" fill="#ffb294"/>
            <g id="Grupo_873807" data-name="Grupo 873807" transform="translate(12.282 39.127)" opacity="0.5" style="mix-blend-mode: multiply;isolation: isolate">
              <g id="Grupo_873806" data-name="Grupo 873806">
                <g id="Grupo_873805" data-name="Grupo 873805" clip-path="url(#clip-path-7)">
                  <path id="Trazado_258455" data-name="Trazado 258455" d="M18.6,59.02s-.679,3.915,2.009,4.378c1.5.258,2.947-3.526,2.947-3.526Z" transform="translate(-18.526 -59.02)" fill="#ffc0a8"/>
                </g>
              </g>
            </g>
            <path id="Trazado_258456" data-name="Trazado 258456" d="M18.025,55.088l.1.8A2.181,2.181,0,0,0,19,57.378l1.67,1.222a2.073,2.073,0,0,0,2.3-.434,13.173,13.173,0,0,0,1.387-3.207l.477-1.171c.135-1.817,0-3.449-1.041-4.464a4.169,4.169,0,0,0-5.331-1.6,3.918,3.918,0,0,0-1.647,2.557v2.861Z" transform="translate(-5.666 -15.961)" fill="#ffb294"/>
            <path id="Trazado_258457" data-name="Trazado 258457" d="M17.3,47.125a3.223,3.223,0,0,0-2.254,1.638,3.694,3.694,0,0,0,.059,2.973A8.538,8.538,0,0,0,17.49,54.5a12.408,12.408,0,0,0,2.383,1.262l1.712.778a3.44,3.44,0,0,0,1.826.082,6.06,6.06,0,0,0,1.573-.68A2.085,2.085,0,0,0,26,53.661a14.086,14.086,0,0,0-1.605-3.8Z" transform="translate(-4.976 -15.883)" fill="#ba3800"/>
            <path id="Trazado_258458" data-name="Trazado 258458" d="M17.366,46.847a3.222,3.222,0,0,0-2.253,1.638,3.692,3.692,0,0,0,.058,2.973,8.538,8.538,0,0,0,2.383,2.76,12.385,12.385,0,0,0,2.383,1.261l1.712.778a3.439,3.439,0,0,0,1.826.082,6.06,6.06,0,0,0,1.573-.68,2.085,2.085,0,0,0,1.016-2.277,14.086,14.086,0,0,0-1.605-3.8Z" transform="translate(-4.998 -15.79)" fill="#e35b00"/>
            <path id="Trazado_258459" data-name="Trazado 258459" d="M16,48.768a4.57,4.57,0,0,1,1.667-2.315,2.676,2.676,0,0,1,2.252-.776l1.13.044a3.674,3.674,0,0,1,2.715,1.217,6.276,6.276,0,0,1,1.585,4.017,6.346,6.346,0,0,1-.467,2.408s-.54,1.376-2.7,1.351a7.566,7.566,0,0,1-3.907-1.29c-2.316-1.782-2.586-3.654-2.273-4.656" transform="translate(-5.355 -15.385)" fill="#f60"/>
            <path id="Trazado_258460" data-name="Trazado 258460" d="M17.486,48.214a25.972,25.972,0,0,0,5.492,5.541Z" transform="translate(-5.894 -16.25)" fill="#ba3800"/>
            <path id="Trazado_258461" data-name="Trazado 258461" d="M18.565,46.692a1.98,1.98,0,0,1,2.031.318A9.808,9.808,0,0,1,22.7,48.847a10.983,10.983,0,0,1,1.862,3.329,5.283,5.283,0,0,0-.9-2.537,9.436,9.436,0,0,0-2.924-2.959s-1.358-.743-2.172.011" transform="translate(-6.257 -15.623)" fill="#ba3800"/>
            <path id="Trazado_258462" data-name="Trazado 258462" d="M23.666,45.759c1.877.436,3.577,2.056,3.944,5.172a6.767,6.767,0,0,0-.766-3.109,4.18,4.18,0,0,0-3.178-2.063" transform="translate(-7.977 -15.423)" fill="#ba3800"/>
            <path id="Trazado_258463" data-name="Trazado 258463" d="M26.278,58.109l-.111-.22.16-1.488a3.287,3.287,0,0,0,2.125-1.266l.27.107L28.594,56.8a2.946,2.946,0,0,1-2.316,1.309" transform="translate(-8.82 -18.583)" fill="#ba3800"/>
            <path id="Trazado_258464" data-name="Trazado 258464" d="M30.094,53.154H30.3l.123.792-.164.565-.215-.043a3.058,3.058,0,0,0,.05-1.314" transform="translate(-10.126 -17.915)" fill="#ba3800"/>
            <path id="Trazado_258465" data-name="Trazado 258465" d="M21.8,58.309l.263-.55.872.274.043.2-.282.56-.9-.24Z" transform="translate(-7.346 -19.468)" fill="#ba3800"/>
            <path id="Trazado_258466" data-name="Trazado 258466" d="M15.4,51.285l.27-.54.282.055.111.688-.225.6-.3-.078Z" transform="translate(-5.191 -17.103)" fill="#ba3800"/>
            <path id="Trazado_258467" data-name="Trazado 258467" d="M4.852,79.334C7.251,71.069,7.9,67.375,6.92,63.693c0,0-1.04-1.016-1.692-.869C1.642,63.626-.011,77.5.007,78.292c.053,2.36-.424,4.683,1.919,11.222l3.091-1.148a64.707,64.707,0,0,1-.165-9.032" transform="translate(0 -21.17)" fill="#004759"/>
            <path id="Trazado_258468" data-name="Trazado 258468" d="M6.41,100.65c-1.115-1.622-4.617-.518-4.644,1.358l.761,1.911c-.181,1.73-.051,2.306,1.028,4.352l.974,1.087,1.333.41a4.432,4.432,0,0,0,2.3-1.612.621.621,0,0,0-.067-.791,2.735,2.735,0,0,1-1.355-2.377c-.006-.428,1.9-.131,1.9-.131.7.16,1.008-.595.132-.866L6.7,103.163Z" transform="translate(-0.595 -33.659)"/>
            <path id="Trazado_258469" data-name="Trazado 258469" d="M48.311,59.319a7.583,7.583,0,0,1-2.953-3.587l3.72-2.859,2.088-2.086c.758-.771,1.459-.217.79.528l-.542.741.552-.194,2.564-.406s.892.292,1.03.815,1.16,2.418.117,3.148a11.348,11.348,0,0,1-2.337.62l-2.318.767Z" transform="translate(-15.288 -16.992)"/>
            <g id="Grupo_873810" data-name="Grupo 873810" transform="translate(18.064 85.132)" opacity="0.3" style="mix-blend-mode: multiply;isolation: isolate">
              <g id="Grupo_873809" data-name="Grupo 873809">
                <g id="Grupo_873808" data-name="Grupo 873808" clip-path="url(#clip-path-8)">
                  <path id="Trazado_258470" data-name="Trazado 258470" d="M103.228,139.351,84.285,128.414,52.336,146.981,28.388,145.55l-1.141,6.6,22.4,1.338-9.72,5.648c.011.839.017,1.741.014,2.58l7.542,4.354h4.448l9.284-5.4,2.257,12.278,9.521-.57-2.469-13.432,3.321,1.918,11.32-6.535L81.292,152.1ZM62.5,154.291l-3.872-2.235.567-.329,3.872,2.235Zm22.243-17.412,3.872,2.235L70.145,149.847l-3.871-2.235Z" transform="translate(-27.247 -128.414)" fill="#96530e"/>
                </g>
              </g>
            </g>
            <path id="Trazado_258471" data-name="Trazado 258471" d="M62.275,172.484c2.408,1.39,2.408,3.644,0,5.034a9.634,9.634,0,0,1-8.72,0c-2.408-1.39-2.408-3.644,0-5.034a9.638,9.638,0,0,1,8.72,0" transform="translate(-17.442 -57.784)" fill="#1a1a1a"/>
            <path id="Trazado_258472" data-name="Trazado 258472" d="M90.531,164.423l-4.639,1.2-2.667-2.617-3.96,2.3,2.813,15.3,6.854-.411-2.466-13.414,4.065-2.362" transform="translate(-26.716 -54.941)" fill="gray"/>
            <path id="Trazado_258473" data-name="Trazado 258473" d="M90.531,164.423l-4.639,1.2-2.667-2.617-3.96,2.3,2.813,15.3,6.854-.411-2.466-13.414,4.065-2.362" transform="translate(-26.716 -54.941)" fill="#666"/>
          </g>
        </g>
        <g id="Grupo_873814" data-name="Grupo 873814" transform="translate(17.501 -3.001)">
          <g id="Grupo_873813" data-name="Grupo 873813" clip-path="url(#clip-path-9)">
            <path id="Trazado_258474" data-name="Trazado 258474" d="M110.84,97.171,88.859,32.928l1.187-.3,21.981,64.242Z" transform="translate(-47.451 -10.998)"/>
            <path id="Trazado_258475" data-name="Trazado 258475" d="M88.489,23.795l-3.372-1.934-5.467,3.146,3.372,1.934Z" transform="translate(-44.346 -7.368)" fill="gray"/>
            <path id="Trazado_258476" data-name="Trazado 258476" d="M83.021,28.54l-3.372-1.934V40.6l3.372,1.934Z" transform="translate(-44.346 -8.967)" fill="#585858"/>
            <path id="Trazado_258477" data-name="Trazado 258477" d="M84.735,41.919,90.2,35.04V24.778l-5.467,3.146Z" transform="translate(-46.061 -8.351)"/>
            <path id="Trazado_258478" data-name="Trazado 258478" d="M88.489,89.755l-3.372-1.934-5.467-4.895,3.372,1.934Z" transform="translate(-44.346 -27.949)" fill="gray"/>
            <path id="Trazado_258479" data-name="Trazado 258479" d="M83.021,84.86l-3.372-1.934v18.366l3.372,1.934Z" transform="translate(-44.346 -27.95)" fill="#585858"/>
            <path id="Trazado_258480" data-name="Trazado 258480" d="M84.735,104.21,90.2,97.33V90.738l-5.467-4.895Z" transform="translate(-46.061 -28.933)" fill="#ba3800"/>
            <path id="Trazado_258481" data-name="Trazado 258481" d="M67.5,132.523c1.576-.91,3-.994,4.036-.4l3.073,1.786a3.965,3.965,0,0,1,1.655,3.638,12.457,12.457,0,0,1-5.654,9.792c-1.677.968-3.181.994-4.223.265.062.043.121.092.187.13L63.5,145.954a3.971,3.971,0,0,1-1.655-3.638,12.462,12.462,0,0,1,5.654-9.792" transform="translate(-38.345 -44.404)"/>
            <path id="Trazado_258482" data-name="Trazado 258482" d="M77.826,138.462a12.457,12.457,0,0,1-5.654,9.792c-3.132,1.809-5.68.357-5.69-3.243a12.457,12.457,0,0,1,5.654-9.792c3.132-1.809,5.68-.357,5.69,3.243m-5.659,7.831a8.709,8.709,0,0,0,3.955-6.847c-.007-2.519-1.789-3.534-3.981-2.269a8.71,8.71,0,0,0-3.952,6.848c.007,2.519,1.786,3.533,3.978,2.267" transform="translate(-39.908 -45.312)" fill="#333"/>
            <path id="Trazado_258483" data-name="Trazado 258483" d="M76.99,140.559a8.709,8.709,0,0,1-3.955,6.847c-2.191,1.266-3.971.251-3.978-2.267a8.71,8.71,0,0,1,3.952-6.849c2.192-1.266,3.974-.25,3.981,2.269" transform="translate(-40.776 -46.426)" fill="#333"/>
            <path id="Trazado_258484" data-name="Trazado 258484" d="M71.174,146.443a2.425,2.425,0,0,1-.276-1.209,6.028,6.028,0,0,1,2.737-4.739,2.522,2.522,0,0,1,1.206-.377c.912-.013,1.545.695,1.547,1.943a6.026,6.026,0,0,1-2.737,4.739c-1.091.625-2.036.444-2.477-.358" transform="translate(-41.397 -47.226)" fill="#f60"/>
            <path id="Trazado_258485" data-name="Trazado 258485" d="M67.5,132.523c1.576-.91,3-.994,4.036-.4l3.073,1.786c-1.031-.6-2.46-.514-4.035.4a12.457,12.457,0,0,0-5.654,9.792,3.969,3.969,0,0,0,1.654,3.638L63.5,145.954a3.971,3.971,0,0,1-1.655-3.638,12.462,12.462,0,0,1,5.654-9.792" transform="translate(-38.345 -44.404)"/>
            <path id="Trazado_258486" data-name="Trazado 258486" d="M71.174,146.444a2.425,2.425,0,0,1-.276-1.209,6.028,6.028,0,0,1,2.737-4.739,2.522,2.522,0,0,1,1.206-.377,2.418,2.418,0,0,1,.275,1.209,6.027,6.027,0,0,1-2.736,4.739,2.463,2.463,0,0,1-1.206.377" transform="translate(-41.397 -47.226)" fill="#ba3800"/>
            <path id="Trazado_258487" data-name="Trazado 258487" d="M101.372,136.2l-16.295-9.408L53.447,145.17l-23.165-1.385-.686,3.972-.007,2.341,26.425,1.579,3.96-2.3,4.5,2.6L62.54,153.1l-.007,2.341,2.813,15.3,6.854-.41.007-2.341-2.078-11.3,31.236-18.152ZM70.937,148.221l-4.5-2.6,19.086-11.092,4.5,2.6L70.937,148.221" transform="translate(-27.474 -42.733)" fill="#1a1a1a"/>
            <path id="Trazado_258488" data-name="Trazado 258488" d="M69.745,154.578l2.466,13.414-6.854.41-2.813-15.3,3.96-2.3-6.519-3.764-3.96,2.3L29.6,147.757l.686-3.972L53.45,145.17l31.631-18.382,16.295,9.408L69.745,154.578m1.2-6.357,21.11-12.268-6.519-3.764-21.11,12.268Z" transform="translate(-27.477 -42.733)" fill="gray"/>
            <path id="Trazado_258489" data-name="Trazado 258489" d="M69.745,154.578l2.466,13.414-6.854.41-2.813-15.3,3.96-2.3-6.519-3.764-3.96,2.3L29.6,147.757l.686-3.972L53.45,145.17l31.631-18.382,16.295,9.408L69.745,154.578m1.2-6.357,21.11-12.268-6.519-3.764-21.11,12.268Z" transform="translate(-27.477 -42.733)" fill="#666"/>
            <path id="Trazado_258490" data-name="Trazado 258490" d="M81.03,132.967l-9.487,5.513a1.3,1.3,0,0,1,1.314.129l9.487-5.513a1.3,1.3,0,0,0-1.315-.129" transform="translate(-41.614 -44.773)" fill="#f60"/>
            <path id="Trazado_258491" data-name="Trazado 258491" d="M90.03,159.094l9.487-5.513.021-7.6-9.487,5.513Z" transform="translate(-47.845 -49.201)" fill="#ba3800"/>
            <path id="Trazado_258492" data-name="Trazado 258492" d="M82.644,144l9.487-5.513-9.119-5.264-9.487,5.513Z" transform="translate(-42.282 -44.902)" fill="#ba3800"/>
            <path id="Trazado_258493" data-name="Trazado 258493" d="M89.125,149.87l9.487-5.513a4.064,4.064,0,0,0-1.845-3.191l-9.487,5.513a4.063,4.063,0,0,1,1.844,3.191" transform="translate(-46.919 -47.579)" fill="#f60"/>
            <path id="Trazado_258494" data-name="Trazado 258494" d="M72.572,141.411c-1.02-.589-1.85-.115-1.854,1.057l-.022,7.6,12.817,7.4.022-7.6a4.064,4.064,0,0,0-1.844-3.192Z" transform="translate(-41.329 -47.576)" fill="#e35b00"/>
            <path id="Trazado_258495" data-name="Trazado 258495" d="M78.884,10.566l-.107,103.279-4.739-2.736L74.145,7.83Z" transform="translate(-42.455 -2.639)" fill="gray"/>
            <path id="Trazado_258496" data-name="Trazado 258496" d="M78.331,12.2l-2.495-1.441-.1,100.688,2.495,1.441Z" transform="translate(-43.028 -3.627)" fill="#585858"/>
            <path id="Trazado_258497" data-name="Trazado 258497" d="M81.187,114.026l.107-103.279,1.842-1.071.856-1.309c-.04,14.421-.066,89.018-.108,103.279l-.854,1.311-1.842,1.07" transform="translate(-44.865 -2.819)"/>
            <path id="Trazado_258498" data-name="Trazado 258498" d="M81.635,7.388,80.781,8.7,78.939,9.768l-1.006-.581L75.2,7.611,74.2,7.031l1.843-1.071,2.255-.5Z" transform="translate(-42.509 -1.84)" fill="#585858"/>
            <path id="Trazado_258499" data-name="Trazado 258499" d="M121.852,128.572l2.609,1.526a.723.723,0,0,0-.728.071l-2.609-1.526a.724.724,0,0,1,.729-.071" transform="translate(-58.325 -43.311)"/>
            <path id="Trazado_258500" data-name="Trazado 258500" d="M119.375,136.283l-2.609-1.526-.012-1.743,2.609,1.526Z" transform="translate(-56.852 -44.831)"/>
            <path id="Trazado_258501" data-name="Trazado 258501" d="M120.9,131.323,118.3,129.8l1.875-1.083,2.609,1.526Z" transform="translate(-57.372 -43.382)"/>
            <path id="Trazado_258502" data-name="Trazado 258502" d="M119.363,133.641l-2.609-1.526a2.249,2.249,0,0,1,1.022-1.768l2.609,1.526a2.251,2.251,0,0,0-1.022,1.768" transform="translate(-56.852 -43.933)"/>
            <path id="Trazado_258503" data-name="Trazado 258503" d="M123.586,130.945c.565-.326,1.025-.064,1.027.585l.012,1.743-3.924,2.265-.012-1.743a2.252,2.252,0,0,1,1.022-1.768Z" transform="translate(-58.179 -44.087)" fill="#585858"/>
            <path id="Trazado_258504" data-name="Trazado 258504" d="M59.877,65.289a1.508,1.508,0,0,1,1.364,0,.479.479,0,0,1,.283.394v99.8a.48.48,0,0,1-.283.394,1.508,1.508,0,0,1-1.364,0,.479.479,0,0,1-.282-.394v-99.8a.479.479,0,0,1,.282-.394" transform="translate(-37.587 -21.95)" fill="#1a1a1a"/>
            <path id="Trazado_258505" data-name="Trazado 258505" d="M58.168,195.621a3.719,3.719,0,0,0-2.431.278c-.983.613.278,1.132.278,1.132a6.239,6.239,0,0,0,4.844-.75c2.709-1.514,2.078-3.8,2.078-3.8a3.805,3.805,0,0,0-2.839-2.672v3.34a3.736,3.736,0,0,1-1.924,2.672Z" transform="translate(-36.16 -63.975)" fill="gray"/>
            <path id="Trazado_258506" data-name="Trazado 258506" d="M62.506,189.813v2.462l1.852-1.437a4.3,4.3,0,0,0-1.852-1.024" transform="translate(-38.568 -63.975)" fill="#4d4d4d"/>
            <path id="Trazado_258507" data-name="Trazado 258507" d="M58.168,185.936a3.719,3.719,0,0,0-2.431.278c-.983.613.278,1.132.278,1.132a6.239,6.239,0,0,0,4.844-.75c2.709-1.513,2.078-3.8,2.078-3.8a3.805,3.805,0,0,0-2.839-2.672v3.34a3.735,3.735,0,0,1-1.924,2.672Z" transform="translate(-36.16 -60.711)" fill="gray"/>
            <path id="Trazado_258508" data-name="Trazado 258508" d="M62.506,180.129v2.462l1.852-1.437a4.3,4.3,0,0,0-1.852-1.024" transform="translate(-38.568 -60.711)" fill="#4d4d4d"/>
            <path id="Trazado_258509" data-name="Trazado 258509" d="M58.168,176.252a3.719,3.719,0,0,0-2.431.278c-.983.612.278,1.132.278,1.132a6.239,6.239,0,0,0,4.844-.75c2.709-1.514,2.078-3.8,2.078-3.8a3.805,3.805,0,0,0-2.839-2.672v3.34a3.735,3.735,0,0,1-1.924,2.672Z" transform="translate(-36.16 -57.447)" fill="#b3b3b3"/>
            <path id="Trazado_258510" data-name="Trazado 258510" d="M62.506,170.444v2.462l1.852-1.437a4.294,4.294,0,0,0-1.852-1.024" transform="translate(-38.568 -57.447)" fill="#4d4d4d"/>
            <path id="Trazado_258511" data-name="Trazado 258511" d="M58.168,166.568a3.719,3.719,0,0,0-2.431.278c-.983.613.278,1.132.278,1.132a6.239,6.239,0,0,0,4.844-.75c2.709-1.513,2.078-3.8,2.078-3.8A3.805,3.805,0,0,0,60.1,160.76v3.34a3.735,3.735,0,0,1-1.924,2.672Z" transform="translate(-36.16 -54.183)" fill="#b3b3b3"/>
            <path id="Trazado_258512" data-name="Trazado 258512" d="M62.506,160.76v2.462l1.852-1.437a4.3,4.3,0,0,0-1.852-1.024" transform="translate(-38.568 -54.183)" fill="#4d4d4d"/>
            <path id="Trazado_258513" data-name="Trazado 258513" d="M58.168,156.883a3.719,3.719,0,0,0-2.431.278c-.983.613.278,1.132.278,1.132a6.239,6.239,0,0,0,4.844-.75c2.709-1.514,2.078-3.8,2.078-3.8a3.805,3.805,0,0,0-2.839-2.672v3.34a3.735,3.735,0,0,1-1.924,2.672Z" transform="translate(-36.16 -50.919)" fill="#b3b3b3"/>
            <path id="Trazado_258514" data-name="Trazado 258514" d="M62.506,151.075v2.462l1.852-1.437a4.3,4.3,0,0,0-1.852-1.024" transform="translate(-38.568 -50.919)" fill="#4d4d4d"/>
            <path id="Trazado_258515" data-name="Trazado 258515" d="M58.168,147.2a3.716,3.716,0,0,0-2.431.279c-.983.612.278,1.132.278,1.132a6.238,6.238,0,0,0,4.844-.751c2.709-1.512,2.078-3.795,2.078-3.795a3.8,3.8,0,0,0-2.839-2.672v3.339a3.736,3.736,0,0,1-1.924,2.673Z" transform="translate(-36.16 -47.655)" fill="#b3b3b3"/>
            <path id="Trazado_258516" data-name="Trazado 258516" d="M62.506,141.391v2.462l1.852-1.437a4.3,4.3,0,0,0-1.852-1.024" transform="translate(-38.568 -47.655)" fill="#4d4d4d"/>
            <path id="Trazado_258517" data-name="Trazado 258517" d="M58.168,137.514a3.719,3.719,0,0,0-2.431.278c-.983.613.278,1.132.278,1.132a6.239,6.239,0,0,0,4.844-.75c2.709-1.514,2.078-3.8,2.078-3.8a3.805,3.805,0,0,0-2.839-2.672v3.34a3.735,3.735,0,0,1-1.924,2.672Z" transform="translate(-36.16 -44.391)" fill="#b3b3b3"/>
            <path id="Trazado_258518" data-name="Trazado 258518" d="M62.506,131.706v2.462l1.852-1.437a4.3,4.3,0,0,0-1.852-1.024" transform="translate(-38.568 -44.391)" fill="#4d4d4d"/>
            <path id="Trazado_258519" data-name="Trazado 258519" d="M58.168,127.83a3.719,3.719,0,0,0-2.431.278c-.983.612.278,1.132.278,1.132a6.239,6.239,0,0,0,4.844-.75c2.709-1.514,2.078-3.8,2.078-3.8a3.805,3.805,0,0,0-2.839-2.672v3.34a3.736,3.736,0,0,1-1.924,2.672Z" transform="translate(-36.16 -41.127)" fill="#b3b3b3"/>
            <path id="Trazado_258520" data-name="Trazado 258520" d="M62.506,122.022v2.462l1.852-1.437a4.3,4.3,0,0,0-1.852-1.024" transform="translate(-38.568 -41.127)" fill="#4d4d4d"/>
            <path id="Trazado_258521" data-name="Trazado 258521" d="M58.168,118.145a3.719,3.719,0,0,0-2.431.278c-.983.613.278,1.132.278,1.132a6.239,6.239,0,0,0,4.844-.75c2.709-1.514,2.078-3.8,2.078-3.8a3.805,3.805,0,0,0-2.839-2.672v3.34a3.735,3.735,0,0,1-1.924,2.672Z" transform="translate(-36.16 -37.862)" fill="#b3b3b3"/>
            <path id="Trazado_258522" data-name="Trazado 258522" d="M62.506,112.337V114.8l1.852-1.437a4.3,4.3,0,0,0-1.852-1.024" transform="translate(-38.568 -37.862)" fill="#4d4d4d"/>
            <path id="Trazado_258523" data-name="Trazado 258523" d="M58.168,108.46a3.721,3.721,0,0,0-2.431.279c-.983.612.278,1.132.278,1.132a6.239,6.239,0,0,0,4.844-.75c2.709-1.514,2.078-3.8,2.078-3.8a3.8,3.8,0,0,0-2.839-2.672v3.339a3.737,3.737,0,0,1-1.924,2.673Z" transform="translate(-36.16 -34.598)" fill="#b3b3b3"/>
            <path id="Trazado_258524" data-name="Trazado 258524" d="M62.506,102.653v2.462l1.852-1.437a4.294,4.294,0,0,0-1.852-1.024" transform="translate(-38.568 -34.598)" fill="#4d4d4d"/>
            <path id="Trazado_258525" data-name="Trazado 258525" d="M58.168,98.776a3.719,3.719,0,0,0-2.431.278c-.983.613.278,1.132.278,1.132a6.239,6.239,0,0,0,4.844-.75c2.709-1.514,2.078-3.8,2.078-3.8A3.805,3.805,0,0,0,60.1,92.968v3.34a3.735,3.735,0,0,1-1.924,2.672Z" transform="translate(-36.16 -31.334)" fill="#b3b3b3"/>
            <path id="Trazado_258526" data-name="Trazado 258526" d="M62.506,92.968V95.43l1.852-1.437a4.3,4.3,0,0,0-1.852-1.024" transform="translate(-38.568 -31.334)" fill="#4d4d4d"/>
            <path id="Trazado_258527" data-name="Trazado 258527" d="M68.991,50.177l-.013-1.2L81.37,56.128l-3.411-.774Z" transform="translate(-40.749 -16.505)" fill="#4d4d4d"/>
            <path id="Trazado_258528" data-name="Trazado 258528" d="M50.379,56.876l-2.42.2,13.935-8.1.013,1.2Z" transform="translate(-33.665 -16.506)" fill="#4d4d4d"/>
          </g>
        </g>
        <g id="Grupo_873816" data-name="Grupo 873816" transform="translate(31.785 37.565)">
          <g id="Grupo_873815" data-name="Grupo 873815" clip-path="url(#clip-path-10)">
            <path id="Trazado_258530" data-name="Trazado 258530" d="M47.971,64.271l-.009,3.372c0-1.2-.007-1.879-.018-3.083l.01-3.372c.011,1.2.015,1.879.017,3.083" transform="translate(-47.944 -61.188)" fill="#434343"/>
          </g>
        </g>
        <g id="Grupo_873818" data-name="Grupo 873818" transform="translate(31.794 37.369)">
          <g id="Grupo_873817" data-name="Grupo 873817" clip-path="url(#clip-path-11)">
            <path id="Trazado_258532" data-name="Trazado 258532" d="M50.39,62.82l-2.414,1.352c0-1.2-.007-1.879-.017-3.082l2.421-.2c.009.626.012,1.3.011,1.926" transform="translate(-47.958 -60.893)" fill="#606060"/>
          </g>
        </g>
        <g id="Grupo_873820" data-name="Grupo 873820" transform="translate(17.501 -3.001)">
          <g id="Grupo_873819" data-name="Grupo 873819" clip-path="url(#clip-path-9)">
            <path id="Trazado_258534" data-name="Trazado 258534" d="M72.1,55.967l-11.529,6.7H57.253L51.62,59.415c0-.626,0-1.3-.011-1.927l11.527-6.7Z" transform="translate(-34.895 -17.118)" fill="#ccc"/>
            <path id="Trazado_258535" data-name="Trazado 258535" d="M76.664,58.6l3.411.774L66.14,67.47,65.134,65.3Z" transform="translate(-39.454 -19.75)" fill="#4d4d4d"/>
            <path id="Trazado_258536" data-name="Trazado 258536" d="M80.581,59.765l-.009,3.372-13.935,8.1.009-3.372Z" transform="translate(-39.961 -20.143)" fill="#333"/>
          </g>
        </g>
        <g id="Grupo_873822" data-name="Grupo 873822" transform="translate(38.856 44.719)">
          <g id="Grupo_873821" data-name="Grupo 873821" clip-path="url(#clip-path-13)">
            <path id="Trazado_258538" data-name="Trazado 258538" d="M63.94,71.98l-.009,3.372H58.609l.01-3.372H63.94" transform="translate(-58.61 -71.98)" fill="#333"/>
          </g>
        </g>
        <g id="Grupo_873824" data-name="Grupo 873824" transform="translate(17.501 -3.001)">
          <g id="Grupo_873823" data-name="Grupo 873823" clip-path="url(#clip-path-9)">
            <path id="Trazado_258540" data-name="Trazado 258540" d="M55.033,69.91l-.01,3.372L47.97,69.209l.01-3.372Z" transform="translate(-33.669 -22.19)" fill="#333"/>
          </g>
        </g>
        <g id="Grupo_873826" data-name="Grupo 873826" transform="translate(38.865 42.548)">
          <g id="Grupo_873825" data-name="Grupo 873825" clip-path="url(#clip-path-15)">
            <path id="Trazado_258542" data-name="Trazado 258542" d="M62.94,68.705l1.005,2.171H58.624l.994-2.171Z" transform="translate(-58.624 -68.705)" fill="#606060"/>
          </g>
        </g>
        <g id="Grupo_873828" data-name="Grupo 873828" transform="translate(17.501 -3.001)">
          <g id="Grupo_873827" data-name="Grupo 873827" clip-path="url(#clip-path-9)">
            <path id="Trazado_258544" data-name="Trazado 258544" d="M56.032,67.052l-.994,2.171-7.054-4.072L50.4,63.8Z" transform="translate(-33.674 -21.503)" fill="#606060"/>
            <path id="Trazado_258545" data-name="Trazado 258545" d="M69.316,58.568a.734.734,0,0,1,0,1.39,2.661,2.661,0,0,1-2.408,0,.734.734,0,0,1,0-1.39,2.661,2.661,0,0,1,2.408,0" transform="translate(-39.884 -19.642)" fill="#ccc"/>
            <path id="Trazado_258546" data-name="Trazado 258546" d="M68.761,55.435a5.887,5.887,0,0,0-3.137,0H63.679v1.814a1.745,1.745,0,0,0,1.029,1.434,5.49,5.49,0,0,0,4.968,0A1.745,1.745,0,0,0,70.7,57.249V55.435Z" transform="translate(-38.964 -18.612)" fill="#1a1a1a"/>
            <path id="Trazado_258547" data-name="Trazado 258547" d="M72.26,50.577l-3.514,4.178a2.55,2.55,0,0,1-.677.549,3.915,3.915,0,0,1-.575.269,5.148,5.148,0,0,1-1.138.274q-.2.026-.4.038c-.156.011-.315.015-.473.011A5.015,5.015,0,0,1,63.1,55.3a2.539,2.539,0,0,1-.677-.549l-3.514-4.178Z" transform="translate(-37.356 -17.046)" fill="gray"/>
            <path id="Trazado_258548" data-name="Trazado 258548" d="M72.26,25.984V39.159a2.4,2.4,0,0,1-.4,1.3,3.294,3.294,0,0,1-.279.384,4.145,4.145,0,0,1-.826.75,4.327,4.327,0,0,1-.453.291,2.758,2.758,0,0,1-.32.162,8.128,8.128,0,0,1-1.6.605,7.669,7.669,0,0,1-.825.18,6.9,6.9,0,0,1-.774.11c-.274.029-.547.047-.826.053-.123.011-.251.011-.373.011s-.268,0-.4-.011a7.914,7.914,0,0,1-.826-.058c-.262-.023-.518-.058-.774-.1-.279-.046-.553-.111-.826-.18s-.524-.157-.774-.25l-.052-.018c-.163-.058-.314-.128-.459-.192-.035-.018-.064-.029-.093-.041-.076-.034-.145-.07-.221-.1-.1-.052-.2-.11-.3-.162-.168-.1-.326-.2-.477-.3a4.534,4.534,0,0,1-.826-.756,2.616,2.616,0,0,1-.652-1.669V25.984a6.673,6.673,0,0,1,.8-3.182,6.986,6.986,0,0,1,.721-1.065,6.637,6.637,0,0,1,1.419-1.285,6.249,6.249,0,0,1,1.134-.617,6.643,6.643,0,0,1,2.594-.524c.064,0,.128,0,.186.006a6.676,6.676,0,0,1,6.492,6.666" transform="translate(-37.356 -6.508)" fill="#1a1a1a"/>
            <path id="Trazado_258549" data-name="Trazado 258549" d="M60.719,26.524V44.015a4.56,4.56,0,0,1-.826-.756V26.524Z" transform="translate(-37.687 -8.939)" fill="#4d4d4d"/>
            <path id="Trazado_258550" data-name="Trazado 258550" d="M63.132,26.524V44.835l-.052-.017c-.163-.058-.314-.128-.459-.192-.035-.017-.064-.029-.093-.04l-.221-.1V26.524Z" transform="translate(-38.501 -8.939)" fill="#4d4d4d"/>
            <path id="Trazado_258551" data-name="Trazado 258551" d="M65.545,26.524V45.266c-.279-.046-.553-.11-.826-.18V26.524Z" transform="translate(-39.314 -8.939)" fill="#4d4d4d"/>
            <path id="Trazado_258552" data-name="Trazado 258552" d="M67.958,26.524v18.9a7.75,7.75,0,0,1-.826-.058V26.524Z" transform="translate(-40.127 -8.939)" fill="#4d4d4d"/>
            <path id="Trazado_258553" data-name="Trazado 258553" d="M70.371,26.524V45.376c-.273.029-.547.046-.826.052v-18.9Z" transform="translate(-40.941 -8.939)" fill="#4d4d4d"/>
            <path id="Trazado_258554" data-name="Trazado 258554" d="M72.784,26.524V45.085a7.559,7.559,0,0,1-.826.18V26.524Z" transform="translate(-41.754 -8.939)" fill="#4d4d4d"/>
            <path id="Trazado_258555" data-name="Trazado 258555" d="M75.2,26.524V44.481a5.776,5.776,0,0,1-.826.361V26.524Z" transform="translate(-42.567 -8.939)" fill="#4d4d4d"/>
            <path id="Trazado_258556" data-name="Trazado 258556" d="M77.61,26.524V43.277a4.166,4.166,0,0,1-.826.75v-17.5Z" transform="translate(-43.381 -8.939)" fill="#4d4d4d"/>
            <path id="Trazado_258557" data-name="Trazado 258557" d="M72.412,29.8a3.61,3.61,0,0,1-2.111,3,10.74,10.74,0,0,1-9.75,0,3.609,3.609,0,0,1-2.111-3,2.705,2.705,0,0,1,.314-1.253V29.8c0,2.294,3.311,3.854,6.673,3.854a10.269,10.269,0,0,0,3.878-.717,4.972,4.972,0,0,0,2.472-1.948A2.432,2.432,0,0,0,72.1,29.8V28.546a2.7,2.7,0,0,1,.314,1.251" transform="translate(-37.198 -9.62)"/>
            <path id="Trazado_258558" data-name="Trazado 258558" d="M72.076,51.279a2.327,2.327,0,0,0-.07-.437,3.858,3.858,0,0,1-.789.856,1.747,1.747,0,0,1-.167.515,3.238,3.238,0,0,1-1.328,1.279,8.757,8.757,0,0,1-7.913,0,3.258,3.258,0,0,1-1.33-1.28,1.739,1.739,0,0,1-.164-.514,3.709,3.709,0,0,1-.792-.852,2.339,2.339,0,0,0-.069.432c-.005.058-.007.116-.007.174a3.325,3.325,0,0,0,1.938,2.772,9.693,9.693,0,0,0,8.76,0,3.327,3.327,0,0,0,1.938-2.772c0-.058,0-.116-.007-.174" transform="translate(-37.537 -17.136)" fill="#1a1a1a"/>
            <path id="Trazado_258559" data-name="Trazado 258559" d="M72.412,48.14a2.864,2.864,0,0,1-.676,1.806,4.681,4.681,0,0,1-1.026.934c-.129.088-.266.174-.409.257a10.735,10.735,0,0,1-9.75,0c-.144-.084-.282-.169-.412-.258a4.684,4.684,0,0,1-1.025-.933,2.875,2.875,0,0,1-.676-1.806,2.705,2.705,0,0,1,.314-1.253V48.14a2.456,2.456,0,0,0,.431,1.374,3.709,3.709,0,0,0,.792.852,9.071,9.071,0,0,0,5.451,1.628,10.284,10.284,0,0,0,3.878-.717,6.236,6.236,0,0,0,1.573-.913,3.825,3.825,0,0,0,.789-.855c.04-.058.076-.119.111-.18A2.431,2.431,0,0,0,72.1,48.14V46.888a2.717,2.717,0,0,1,.314,1.252" transform="translate(-37.197 -15.802)"/>
            <path id="Trazado_258560" data-name="Trazado 258560" d="M58.912,26.684c0,2.294,3.311,3.854,6.673,3.854a10.264,10.264,0,0,0,3.878-.717,4.966,4.966,0,0,0,2.472-1.948,2.425,2.425,0,0,0,.323-1.189v-.731a6.669,6.669,0,0,0-6.486-6.634,1.642,1.642,0,0,0-.187-.01,6.634,6.634,0,0,0-3.731,1.14A6.7,6.7,0,0,0,59.716,22.8a6.639,6.639,0,0,0-.8,3.158Z" transform="translate(-37.357 -6.507)" fill="gray"/>
            <path id="Trazado_258561" data-name="Trazado 258561" d="M63.679,20.022v.743A1.746,1.746,0,0,0,64.708,22.2a5.494,5.494,0,0,0,4.968,0A1.746,1.746,0,0,0,70.7,20.765v-.743Z" transform="translate(-38.964 -6.748)"/>
            <path id="Trazado_258562" data-name="Trazado 258562" d="M69.676,17.557c1.372.792,1.372,2.076,0,2.869a5.494,5.494,0,0,1-4.968,0c-1.372-.792-1.372-2.076,0-2.869a5.49,5.49,0,0,1,4.968,0" transform="translate(-38.964 -5.717)" fill="#ccc"/>
            <path id="Trazado_258563" data-name="Trazado 258563" d="M65.231,17.793v1.375a1.234,1.234,0,0,0,.728,1.014,3.88,3.88,0,0,0,3.512,0,1.234,1.234,0,0,0,.728-1.014V17.793Z" transform="translate(-39.487 -5.996)"/>
            <path id="Trazado_258564" data-name="Trazado 258564" d="M69.471,16.049a1.07,1.07,0,0,1,0,2.028,3.882,3.882,0,0,1-3.513,0,1.07,1.07,0,0,1,0-2.028,3.882,3.882,0,0,1,3.513,0" transform="translate(-39.487 -5.267)" fill="#ccc"/>
            <path id="Trazado_258565" data-name="Trazado 258565" d="M55.527,63.457V64.1a1.514,1.514,0,0,0,.892,1.244,4.764,4.764,0,0,0,4.309,0,1.514,1.514,0,0,0,.892-1.244v-.645Z" transform="translate(-36.216 -21.387)"/>
            <path id="Trazado_258566" data-name="Trazado 258566" d="M60.729,61.319a1.313,1.313,0,0,1,0,2.488,4.764,4.764,0,0,1-4.309,0,1.313,1.313,0,0,1,0-2.488,4.764,4.764,0,0,1,4.309,0" transform="translate(-36.216 -20.493)" fill="#ccc"/>
            <path id="Trazado_258567" data-name="Trazado 258567" d="M56.873,61.524v1.193a1.071,1.071,0,0,0,.631.88,3.366,3.366,0,0,0,3.047,0,1.072,1.072,0,0,0,.631-.88V61.524Z" transform="translate(-36.67 -20.736)"/>
            <path id="Trazado_258568" data-name="Trazado 258568" d="M60.551,60.012a.928.928,0,0,1,0,1.759,3.366,3.366,0,0,1-3.047,0,.928.928,0,0,1,0-1.759,3.366,3.366,0,0,1,3.047,0" transform="translate(-36.67 -20.103)" fill="#fff"/>
            <path id="Trazado_258569" data-name="Trazado 258569" d="M96.175,150.342c1.577-.91,3-.994,4.036-.4l3.074,1.786a3.965,3.965,0,0,1,1.654,3.638,12.457,12.457,0,0,1-5.654,9.792c-1.677.968-3.181.994-4.223.265.062.043.121.092.187.13l-3.073-1.786a3.971,3.971,0,0,1-1.655-3.638,12.461,12.461,0,0,1,5.654-9.792" transform="translate(-48.011 -50.41)"/>
            <path id="Trazado_258570" data-name="Trazado 258570" d="M106.5,156.28a12.459,12.459,0,0,1-5.654,9.792c-3.132,1.809-5.68.357-5.69-3.243a12.459,12.459,0,0,1,5.654-9.792c3.132-1.809,5.68-.357,5.69,3.243m-5.659,7.831a8.709,8.709,0,0,0,3.955-6.847c-.007-2.519-1.789-3.534-3.981-2.269a8.708,8.708,0,0,0-3.952,6.848c.007,2.519,1.786,3.533,3.978,2.267" transform="translate(-49.573 -51.318)" fill="#333"/>
            <path id="Trazado_258571" data-name="Trazado 258571" d="M105.666,158.378a8.709,8.709,0,0,1-3.955,6.847c-2.191,1.266-3.971.251-3.978-2.267a8.711,8.711,0,0,1,3.952-6.849c2.192-1.266,3.974-.249,3.981,2.269" transform="translate(-50.441 -52.432)" fill="#fff"/>
            <path id="Trazado_258572" data-name="Trazado 258572" d="M99.85,164.262a2.425,2.425,0,0,1-.276-1.209,6.028,6.028,0,0,1,2.737-4.739,2.522,2.522,0,0,1,1.206-.377c.912-.013,1.545.695,1.547,1.943a6.026,6.026,0,0,1-2.737,4.739c-1.091.625-2.036.444-2.477-.358" transform="translate(-51.062 -53.232)" fill="#f60"/>
            <path id="Trazado_258573" data-name="Trazado 258573" d="M96.175,150.342c1.577-.91,3-.994,4.036-.4l3.074,1.786c-1.032-.6-2.46-.514-4.036.4a12.457,12.457,0,0,0-5.654,9.792,3.97,3.97,0,0,0,1.654,3.638l-3.073-1.786a3.971,3.971,0,0,1-1.655-3.638,12.461,12.461,0,0,1,5.654-9.792" transform="translate(-48.011 -50.41)"/>
            <path id="Trazado_258574" data-name="Trazado 258574" d="M99.85,164.263a2.425,2.425,0,0,1-.276-1.209,6.028,6.028,0,0,1,2.737-4.739,2.522,2.522,0,0,1,1.206-.377,2.419,2.419,0,0,1,.275,1.209,6.029,6.029,0,0,1-2.736,4.739,2.468,2.468,0,0,1-1.206.376" transform="translate(-51.062 -53.232)" fill="#ba3800"/>
          </g>
        </g>
        <g id="Grupo_873845" data-name="Grupo 873845" transform="translate(0 -3)">
          <g id="Grupo_873844" data-name="Grupo 873844" clip-path="url(#clip-path-2)">
            <g id="Grupo_873831" data-name="Grupo 873831" transform="translate(80.42 99.8)" opacity="0.3" style="mix-blend-mode: multiply;isolation: isolate">
              <g id="Grupo_873830" data-name="Grupo 873830">
                <g id="Grupo_873829" data-name="Grupo 873829" clip-path="url(#clip-path-18)">
                  <path id="Trazado_258576" data-name="Trazado 258576" d="M145.794,156.581c-.758-1-1.742-.813-2.764-1.6-1.392-1.069-1.667-2.541-3.238-3.356a12.864,12.864,0,0,0-10.152-.089c-1.441.68-4.127,2-3.822,4,.222,1.456,1.939,2.227,3.122,2.729,1.093.465,4.442,2.157,3.013,3.819-1.156,1.344-10.565.658-10.648,3.382-.059,1.937,8.5.445,10.386.135a11.433,11.433,0,0,1,6.535.722c1.592.716,3.9.783,6.289-1.27,1.887-1.619,3.031-6.177,1.279-8.48" transform="translate(-121.306 -150.539)" fill="#96530e"/>
                </g>
              </g>
            </g>
            <path id="Trazado_258577" data-name="Trazado 258577" d="M124.414,115.868c-.048-.031-1.458.029-1.458.029l-2.724-.394-1.626.894-1.244.692L115.99,118.6c-.249.326.011.573.428.29l1.364-1.106a.647.647,0,0,0,.42.7.851.851,0,0,0,.638.638,1,1,0,0,0,.661.432l1.171.283.491-.309.068-.5,1.2-.443.64-.491,1.723-1.071Z" transform="translate(-39.061 -38.93)" fill="#ffb294"/>
            <path id="Trazado_258578" data-name="Trazado 258578" d="M136.7,111.027l-.04.408a2.168,2.168,0,0,1,.052,1.963l-.229,1.075.139.65c-.064.43-.28.459-.554.335l.244.346.621.774.657.336c.271.209.195.309-.012.368.125.228.017.347-.2.414l-.573-.357c.013.28-.144.485-.4.279l-1.007-.972a5.3,5.3,0,0,1-.832-1.809,8.222,8.222,0,0,1,.584-3.03l-.007-.5c-.13-.647,1.472-.756,1.556-.277" transform="translate(-45.357 -37.322)" fill="#ffb294"/>
            <path id="Trazado_258579" data-name="Trazado 258579" d="M133.838,103.95l-1.523-.929-1.512-5.55s-5.707-5.449-4.587-11.3l5.506,4.075,4.472,9.135Z" transform="translate(-42.492 -29.044)" fill="#00a9d4"/>
            <path id="Trazado_258580" data-name="Trazado 258580" d="M142.8,151.373a5.146,5.146,0,0,1-.255,2.859c-.572,1.187-1.74.866-2.78.834-2.011-.064-3.26,1.222-5.857.727-1.544-.294-2.512-.819-2.651-1.86.037-.459.387-.868,1.022-1.228,0,0,3.84-.919,3.943-.963a18.808,18.808,0,0,0,1.962-1.02c.054-.117,1.146-2.723,1.146-2.723l3.814.72Z" transform="translate(-44.241 -49.883)"/>
            <path id="Trazado_258581" data-name="Trazado 258581" d="M153.766,160.779a3.953,3.953,0,0,1,.168,2.34,12.365,12.365,0,0,0-.588,1.246c-.256.756-.284,2.039-1.461,2.751-1.411,1.009-4.041.933-4.813-.251a6.022,6.022,0,0,1,1.191-2.739l1.453-2.418.025-2.329,3.874-.659Z" transform="translate(-49.571 -53.497)"/>
            <path id="Trazado_258582" data-name="Trazado 258582" d="M145.78,107.211l-2.888,15.3c.392,4.667,1.976,9.277,1.516,13.781-.352,1.866-4.212,1.561-4.941.182.273-3.5-1.749-8.707-2.487-14.458-.135-5.685-.031-11.535,1.156-16.038Z" transform="translate(-46.154 -35.719)" fill="#30485c"/>
            <path id="Trazado_258583" data-name="Trazado 258583" d="M145.78,107.211l-2.888,15.3c.392,4.667,1.976,9.277,1.516,13.781-.352,1.866-4.212,1.561-4.941.182.273-3.5-1.749-8.707-2.487-14.458-.135-5.685-.031-11.535,1.156-16.038Z" transform="translate(-46.154 -35.719)" fill="#004759"/>
            <g id="Grupo_873834" data-name="Grupo 873834" transform="translate(90.78 70.256)" opacity="0.5" style="mix-blend-mode: multiply;isolation: isolate">
              <g id="Grupo_873833" data-name="Grupo 873833">
                <g id="Grupo_873832" data-name="Grupo 873832" clip-path="url(#clip-path-19)">
                  <path id="Trazado_258584" data-name="Trazado 258584" d="M145.78,107.211l-2.888,15.3c.392,4.667,1.976,9.277,1.516,13.781-.352,1.866-4.212,1.561-4.941.182.273-3.5-1.749-8.707-2.487-14.458-.135-5.685-.031-11.535,1.156-16.038Z" transform="translate(-136.934 -105.975)" fill="#004759"/>
                </g>
              </g>
            </g>
            <path id="Trazado_258585" data-name="Trazado 258585" d="M138.515,106.705c-.185,1.58,1.784,5.849,4.171,7.843-.052,3.382.107,9.257.495,13.1,1.53,5.592,2.911,10.949,3.123,14.453.609.844,2.523,1.252,3.754.859a1.384,1.384,0,0,0,.246-.091c.026-.012.054-.026.084-.037a1.245,1.245,0,0,0,.763-1.083,51.8,51.8,0,0,0-1.453-13.518l.953-15.613a12.054,12.054,0,0,0,.4-8.337l-1.051.2Z" transform="translate(-46.682 -35.148)" fill="#004759"/>
            <g id="Grupo_873837" data-name="Grupo 873837" transform="translate(93.495 69.133)" opacity="0.5" style="mix-blend-mode: multiply;isolation: isolate">
              <g id="Grupo_873836" data-name="Grupo 873836">
                <g id="Grupo_873835" data-name="Grupo 873835" clip-path="url(#clip-path-20)">
                  <path id="Trazado_258586" data-name="Trazado 258586" d="M148.233,128.547c2.228,2.981,2.457,8.692,2.676,14.414.048-.02.128-.05.246-.092.026-.012.054-.026.084-.036a1.248,1.248,0,0,0,.763-1.083,51.8,51.8,0,0,0-1.453-13.518l.953-15.613a12.052,12.052,0,0,0,.4-8.336l-1.051.2-9.82,5.337c7.813,1.077,8.162,11.719,7.2,18.724" transform="translate(-141.029 -104.281)" fill="#004759"/>
                </g>
              </g>
            </g>
            <path id="Trazado_258587" data-name="Trazado 258587" d="M126.6,85.87a13.993,13.993,0,0,0,5.556,8.711l.96,1.826,1.262,2.4c10.557,4.317,12.562-2.9,12.562-2.9-.788-7.613-5.848-9.944-5.848-9.944a15.544,15.544,0,0,0-5.606-5.084C123.872,75.8,126.6,85.87,126.6,85.87" transform="translate(-42.578 -26.778)" fill="#00a9d4"/>
            <g id="Grupo_873840" data-name="Grupo 873840" transform="translate(90.542 64.175)" opacity="0.5" style="mix-blend-mode: multiply;isolation: isolate">
              <g id="Grupo_873839" data-name="Grupo 873839">
                <g id="Grupo_873838" data-name="Grupo 873838" clip-path="url(#clip-path-21)">
                  <path id="Trazado_258588" data-name="Trazado 258588" d="M136.575,102.255l1.262,2.4c10.557,4.317,12.562-2.9,12.562-2.9s-5.508.487-7.062-4.195l-2.879-.764s-.9,4.8-3.883,5.453" transform="translate(-136.575 -96.802)" fill="#004759"/>
                </g>
              </g>
            </g>
            <path id="Trazado_258589" data-name="Trazado 258589" d="M141.7,97.07s-1.237,11.608-4.488,12.42c-2.7,2.072-9.35,1.973-10.452,2,0,0-1.789-2-.419-2.951.748.246,8.392-2.841,8.392-2.841l.956-5.683c-.05-6.375,6.145-5.741,6.012-2.943" transform="translate(-42.41 -32.035)" fill="#00a9d4"/>
            <path id="Trazado_258590" data-name="Trazado 258590" d="M128.975,85.766l2.571.3s1.458.292,1.03,3.053c-.414,2.67-1.6,2.875-1.6,2.875l-4.369-2.037Z" transform="translate(-42.673 -28.907)" fill="#ffb294"/>
            <g id="Grupo_873843" data-name="Grupo 873843" transform="translate(85.358 61.314)" opacity="0.5" style="mix-blend-mode: multiply;isolation: isolate">
              <g id="Grupo_873842" data-name="Grupo 873842">
                <g id="Grupo_873841" data-name="Grupo 873841" clip-path="url(#clip-path-22)">
                  <path id="Trazado_258591" data-name="Trazado 258591" d="M130.3,92.486l1.4,1.778s.276,2.725-1.27,2.337c-.758-.19-1.676-1.686-1.676-1.686Z" transform="translate(-128.755 -92.486)" fill="#f2a9a2"/>
                </g>
              </g>
            </g>
            <path id="Trazado_258592" data-name="Trazado 258592" d="M127.058,87.774s1.8-5.477-3.112-6.495a4.744,4.744,0,0,0-4.93,3.412c-.4,1.627-.909,3.466,2.012,5.2l.147.745c.027.393.221.593.535.518l.361-.142a3.487,3.487,0,0,0,2.294.631,3.98,3.98,0,0,0,2.692-3.868" transform="translate(-40.011 -27.38)" fill="#ffb294"/>
            <path id="Trazado_258593" data-name="Trazado 258593" d="M125.873,87.949c-.022-.011-.532.525-.532.525-1.073-.181-1.819.217-2.8-.91A3.074,3.074,0,0,1,119.5,88.8a2.793,2.793,0,0,1-.741-.491c-.735-.714-1.616-3.791,1.444-6.284a3.934,3.934,0,0,1,4.621-.629,5.009,5.009,0,0,1,2.629,5.809,1.13,1.13,0,0,1-1.584.748" transform="translate(-39.79 -27.271)"/>
            <path id="Trazado_258594" data-name="Trazado 258594" d="M128.657,90.748a.8.8,0,0,1,.961-.442,1.1,1.1,0,0,1,.713.853.809.809,0,0,1-.08.581.743.743,0,0,1-.706.291,1.009,1.009,0,0,1-.888-1.283" transform="translate(-43.346 -30.427)" fill="#ffb294"/>
            <path id="Trazado_258595" data-name="Trazado 258595" d="M124.766,79.657a3.237,3.237,0,0,1,2.263,1.644,3.708,3.708,0,0,1-.059,2.985,8.566,8.566,0,0,1-2.393,2.771,12.435,12.435,0,0,1-2.393,1.266l-1.718.782a3.45,3.45,0,0,1-1.834.082,6.087,6.087,0,0,1-1.578-.683,2.093,2.093,0,0,1-1.02-2.285,14.159,14.159,0,0,1,1.612-3.815Z" transform="translate(-39.083 -26.848)" fill="#ba3800"/>
            <path id="Trazado_258596" data-name="Trazado 258596" d="M124.7,79.378a3.237,3.237,0,0,1,2.263,1.644,3.708,3.708,0,0,1-.059,2.985,8.567,8.567,0,0,1-2.393,2.771,12.435,12.435,0,0,1-2.393,1.266l-1.718.782a3.45,3.45,0,0,1-1.834.082,6.087,6.087,0,0,1-1.578-.683,2.093,2.093,0,0,1-1.02-2.285,14.158,14.158,0,0,1,1.612-3.815Z" transform="translate(-39.062 -26.754)" fill="#e35b00"/>
            <path id="Trazado_258597" data-name="Trazado 258597" d="M127.023,81.307a4.587,4.587,0,0,0-1.674-2.324,2.683,2.683,0,0,0-2.26-.779l-1.135.044a3.688,3.688,0,0,0-2.725,1.221,6.3,6.3,0,0,0-1.591,4.033,6.374,6.374,0,0,0,.469,2.417s.543,1.382,2.713,1.357a7.6,7.6,0,0,0,3.922-1.3c2.325-1.789,2.6-3.667,2.281-4.674" transform="translate(-39.65 -26.349)" fill="#f60"/>
            <path id="Trazado_258598" data-name="Trazado 258598" d="M127.551,80.751a26.089,26.089,0,0,1-5.512,5.562Z" transform="translate(-41.133 -27.217)" fill="#ba3800"/>
            <path id="Trazado_258599" data-name="Trazado 258599" d="M126.209,79.222a1.987,1.987,0,0,0-2.039.32,9.841,9.841,0,0,0-2.115,1.844,11.028,11.028,0,0,0-1.868,3.343,5.3,5.3,0,0,1,.906-2.547,9.47,9.47,0,0,1,2.935-2.97s1.364-.746,2.18.011" transform="translate(-40.509 -26.587)" fill="#ba3800"/>
            <path id="Trazado_258600" data-name="Trazado 258600" d="M122.137,78.286c-1.884.437-3.591,2.064-3.958,5.192a6.786,6.786,0,0,1,.769-3.121,4.2,4.2,0,0,1,3.189-2.071" transform="translate(-39.832 -26.386)" fill="#ba3800"/>
            <path id="Trazado_258601" data-name="Trazado 258601" d="M120.224,90.684l.111-.221-.16-1.494a3.3,3.3,0,0,1-2.134-1.27l-.27.107.129,1.564a2.96,2.96,0,0,0,2.325,1.313" transform="translate(-39.694 -29.559)" fill="#ba3800"/>
            <path id="Trazado_258602" data-name="Trazado 258602" d="M117.5,85.709H117.3l-.123.795.165.567.215-.043a3.073,3.073,0,0,1-.05-1.319" transform="translate(-39.493 -28.888)" fill="#ba3800"/>
            <path id="Trazado_258603" data-name="Trazado 258603" d="M125.425,90.883l-.264-.552-.876.276-.043.2.284.562.9-.241Z" transform="translate(-41.876 -30.446)" fill="#ba3800"/>
            <path id="Trazado_258604" data-name="Trazado 258604" d="M132.108,83.833l-.271-.542-.284.055-.111.691.226.6.3-.078Z" transform="translate(-44.302 -28.073)" fill="#ba3800"/>
          </g>
        </g>
      </g>
    </g>
  </g>
</svg>
