<svg xmlns="http://www.w3.org/2000/svg" xmlns:xlink="http://www.w3.org/1999/xlink" width="495.04" height="538.068" viewBox="0 0 495.04 538.068">
  <defs>
    <clipPath id="clip-path">
      <rect id="Rectángulo_48089" data-name="Rectángulo 48089" width="495.04" height="538.068" fill="none"/>
    </clipPath>
    <clipPath id="clip-path-3">
      <rect id="Rectángulo_48056" data-name="Rectángulo 48056" width="164.543" height="64.803" fill="none"/>
    </clipPath>
    <clipPath id="clip-path-4">
      <rect id="Rectángulo_48057" data-name="Rectángulo 48057" width="164.797" height="69.818" fill="none"/>
    </clipPath>
    <clipPath id="clip-path-5">
      <path id="Trazado_592505" data-name="Trazado 592505" d="M67.481,21.644A36.924,36.924,0,0,0,47.726,44.23a40.005,40.005,0,0,0,2.059,30.76A39.973,39.973,0,0,0,72.436,95.968a37.885,37.885,0,0,0,49.677-23.745,39.635,39.635,0,0,0-2.059-30.76A40,40,0,0,0,97.4,20.486,39.007,39.007,0,0,0,83.6,17.854a37.029,37.029,0,0,0-16.114,3.79" transform="translate(-45.581 -17.854)" fill="none"/>
    </clipPath>
    <linearGradient id="linear-gradient" x1="-0.612" y1="5.842" x2="-0.598" y2="5.842" gradientUnits="objectBoundingBox">
      <stop offset="0" stop-color="#8fb81d"/>
      <stop offset="0.222" stop-color="#8fb81d"/>
      <stop offset="1" stop-color="#8fce98"/>
    </linearGradient>
    <clipPath id="clip-path-6">
      <path id="Trazado_592506" data-name="Trazado 592506" d="M294.776,45.9a26.517,26.517,0,0,0-14.028,14.478,26.243,26.243,0,0,0-.45,20.141A24.293,24.293,0,0,0,313.18,94.225a26.27,26.27,0,0,0,14.028-14.414,26.608,26.608,0,0,0,.386-20.205A24.361,24.361,0,0,0,304.933,43.66,25.158,25.158,0,0,0,294.776,45.9" transform="translate(-278.505 -43.66)" fill="none"/>
    </clipPath>
    <linearGradient id="linear-gradient-2" x1="-6.255" y1="8.359" x2="-6.233" y2="8.359" xlink:href="#linear-gradient"/>
    <clipPath id="clip-path-8">
      <path id="Trazado_592508" data-name="Trazado 592508" d="M147.359,0a31.5,31.5,0,0,0-23.68,10.361A35.065,35.065,0,0,0,113.9,35.326a35.067,35.067,0,0,0,9.781,24.969,32.38,32.38,0,0,0,47.361,0,35.073,35.073,0,0,0,9.781-24.969A35.071,35.071,0,0,0,171.04,10.36,31.5,31.5,0,0,0,147.359,0Z" transform="translate(-113.898 0.001)" fill="none"/>
    </clipPath>
    <linearGradient id="linear-gradient-3" x1="-1.972" y1="7.102" x2="-1.955" y2="7.102" xlink:href="#linear-gradient"/>
    <clipPath id="clip-path-10">
      <path id="Trazado_592510" data-name="Trazado 592510" d="M206.407,0a29.289,29.289,0,0,0-22.072,9.654,32.442,32.442,0,0,0-9.138,23.23,32.663,32.663,0,0,0,9.138,23.293,30.059,30.059,0,0,0,44.143,0,32.657,32.657,0,0,0,9.138-23.293,32.436,32.436,0,0,0-9.138-23.23A29.289,29.289,0,0,0,206.407,0Z" transform="translate(-175.198 0.001)" fill="none"/>
    </clipPath>
    <linearGradient id="linear-gradient-4" x1="-3.279" y1="7.613" x2="-3.26" y2="7.613" xlink:href="#linear-gradient"/>
    <clipPath id="clip-path-12">
      <path id="Trazado_592512" data-name="Trazado 592512" d="M241.249,19.535a31.034,31.034,0,0,0-10.618,21.234,30.858,30.858,0,0,0,6.628,22.716,28.537,28.537,0,0,0,41.7,3.8,31.151,31.151,0,0,0,10.617-21.169,31.071,31.071,0,0,0-6.628-22.779,27.67,27.67,0,0,0-20.012-11q-1.423-.127-2.811-.127a27.846,27.846,0,0,0-18.875,7.334" transform="translate(-230.481 -12.201)" fill="none"/>
    </clipPath>
    <linearGradient id="linear-gradient-5" x1="-4.462" y1="7.713" x2="-4.442" y2="7.713" xlink:href="#linear-gradient"/>
    <clipPath id="clip-path-14">
      <path id="Trazado_592515" data-name="Trazado 592515" d="M112.127,360.6q-2.43,19.75,2.51,35.906a53.473,53.473,0,0,0,14.736,24.129,50.936,50.936,0,0,0,24.2,12.356,68.586,68.586,0,0,0,14.651,1.595h.314q23.72-.058,50.349-15.88,33.082-19.654,59.651-58.107Z" transform="translate(-111.325 -360.6)" fill="none"/>
    </clipPath>
    <linearGradient id="linear-gradient-6" x1="-0.8" y1="0.914" x2="-0.793" y2="0.914" gradientUnits="objectBoundingBox">
      <stop offset="0" stop-color="#9fc532"/>
      <stop offset="0.329" stop-color="#9fc532"/>
      <stop offset="1" stop-color="#9fedbe"/>
    </linearGradient>
    <clipPath id="clip-path-16">
      <path id="Trazado_592524" data-name="Trazado 592524" d="M133.254,117.345a6.317,6.317,0,0,0-1.158,4.762,6.92,6.92,0,0,0,1.866,3.6q-.828,1.28-1.629,2.566a.344.344,0,0,0,.021-.058,5.328,5.328,0,0,0-1.995-6.113,1.121,1.121,0,0,1-.322.515,6.317,6.317,0,0,0-1.158,4.762,7.116,7.116,0,0,0,1.866,3.668q-.757,1.469-1.48,2.96a5.413,5.413,0,0,0-2.767-5.856,2.17,2.17,0,0,1-.257.579,6.481,6.481,0,0,0-.579,4.89,6.915,6.915,0,0,0,2.252,3.282q-.8,1.932-1.48,3.861c0-.08,0-.166,0-.257a5.575,5.575,0,0,0-3.41-5.534,6.011,6.011,0,0,1-.193.708,6.42,6.42,0,0,0,0,4.89,6.835,6.835,0,0,0,2.638,3.024q-.515,1.815-.965,3.6a1.213,1.213,0,0,0,0-.193,5.572,5.572,0,0,0-3.99-5.082q-.066.32-.129.707a6.325,6.325,0,0,0,.579,4.826,6.623,6.623,0,0,0,2.9,2.638q-.342,1.863-.579,3.668c-.015-.118-.037-.248-.064-.386a5.58,5.58,0,0,0-4.44-4.633,3.652,3.652,0,0,0-.064.708,5.95,5.95,0,0,0,1.094,4.7,6.671,6.671,0,0,0,3.153,2.381q-.118,1.948-.193,3.861a2.8,2.8,0,0,0-.129-.579,5.519,5.519,0,0,0-4.955-4.054v.708a6.307,6.307,0,0,0,1.673,4.569,6.7,6.7,0,0,0,3.475,1.93,64.513,64.513,0,0,0,1.158,10.424.58.58,0,0,0,.257.386.648.648,0,0,0,.515.129.542.542,0,0,0,.386-.322.482.482,0,0,0,.129-.45,65.718,65.718,0,0,1-1.158-10.231,6.543,6.543,0,0,0,3.282-1.866,6.307,6.307,0,0,0,1.673-4.569v-.708a5.573,5.573,0,0,0-4.955,3.925q.071-1.5.193-3.024a6.944,6.944,0,0,0,3.475-1.48,6.333,6.333,0,0,0,2.252-4.311,3.663,3.663,0,0,1,.064-.708,5.593,5.593,0,0,0-5.405,3.41c-.021.045-.044.087-.064.129q.224-1.643.515-3.282a7.139,7.139,0,0,0,3.668-1.094,6.5,6.5,0,0,0,2.7-4.054c.042-.257.085-.494.129-.708a5.536,5.536,0,0,0-5.727,2.831,3.181,3.181,0,0,0-.193.386q.429-1.9.965-3.8a6.886,6.886,0,0,0,3.732-.643,6.453,6.453,0,0,0,3.153-3.732,5.765,5.765,0,0,0,.193-.708,5.547,5.547,0,0,0-6.049,2.188.2.2,0,0,1-.064.064q.66-1.824,1.416-3.668a7.494,7.494,0,0,0,3.861-.192,6.8,6.8,0,0,0,3.539-3.412,2.841,2.841,0,0,0,.257-.708,5.582,5.582,0,0,0-6.242,1.544,4.214,4.214,0,0,1-.322.322q.828-1.651,1.737-3.346a6.786,6.786,0,0,0,3.732.257,6.958,6.958,0,0,0,3.925-2.96,3.986,3.986,0,0,0,.386-.708,5.6,5.6,0,0,0-6.435.772,1.787,1.787,0,0,1-.257.193q.851-1.4,1.737-2.831a7.167,7.167,0,0,0,3.861.257,6.952,6.952,0,0,0,3.925-2.96,3.866,3.866,0,0,0,.386-.708,5.6,5.6,0,0,0-6.435.772c-.228.2-.463.417-.708.643a.549.549,0,0,0-.257-.386.6.6,0,0,0-.45-.063h-.064a6.965,6.965,0,0,0,.322-1.031,5.328,5.328,0,0,0-1.995-6.113,1.138,1.138,0,0,1-.322.515" transform="translate(-117.682 -116.83)" fill="none"/>
    </clipPath>
    <linearGradient id="linear-gradient-7" x1="-3.378" y1="6.27" x2="-3.347" y2="6.27" gradientUnits="objectBoundingBox">
      <stop offset="0" stop-color="#ffbb5c"/>
      <stop offset="0.217" stop-color="#ffbb5c"/>
      <stop offset="1" stop-color="#ffe897"/>
    </linearGradient>
    <clipPath id="clip-path-17">
      <path id="Trazado_592525" data-name="Trazado 592525" d="M101.015,135.277a9.361,9.361,0,0,0,.577.911l-.063.017a.592.592,0,0,0-.463.257.628.628,0,0,0-.166.378l-.788-.456a5.593,5.593,0,0,0-6.416.92,3.878,3.878,0,0,0,.556.582,6.951,6.951,0,0,0,4.558,1.844,7.245,7.245,0,0,0,3.6-1.232q1.3,1.118,2.49,2.331l-.315-.181a5.6,5.6,0,0,0-6.416.92,3.819,3.819,0,0,0,.556.583,6.956,6.956,0,0,0,4.558,1.843,7.45,7.45,0,0,0,3.555-1.152q1.288,1.32,2.481,2.8l-.347-.306a5.586,5.586,0,0,0-6.43.124,2.839,2.839,0,0,0,.432.616,6.8,6.8,0,0,0,4.3,2.38,7.483,7.483,0,0,0,3.717-.8q1.261,1.55,2.363,3.1l-.063.017a5.542,5.542,0,0,0-6.408-.548,5.831,5.831,0,0,0,.369.633,6.449,6.449,0,0,0,4.011,2.79,6.867,6.867,0,0,0,3.726-.266q1.042,1.652,1.961,3.338a1.7,1.7,0,0,0-.287-.323,5.538,5.538,0,0,0-6.265-1.252c.1.2.2.413.308.65a6.5,6.5,0,0,0,3.66,3.217,6.738,6.738,0,0,0,3.764.124,28.373,28.373,0,0,1,1.391,2.957l-.08-.045a5.591,5.591,0,0,0-6.1-1.9,3.732,3.732,0,0,1,.246.667,6.32,6.32,0,0,0,3.291,3.582,7.086,7.086,0,0,0,3.74.53q.523,1.459.923,2.951a5.475,5.475,0,0,0-5.757-2.588c.055.207.117.436.183.683a6.319,6.319,0,0,0,6.391,4.951,64.392,64.392,0,0,1,1.589,10.166.73.73,0,0,0,.2.48.939.939,0,0,0,.5.131.543.543,0,0,0,.42-.178.807.807,0,0,0,.193-.519,62.466,62.466,0,0,0-1.578-10.369,6.579,6.579,0,0,0,2.856-2.764,6.307,6.307,0,0,0,.435-4.845c-.068-.248-.129-.476-.184-.683a5.517,5.517,0,0,0-3.737,5.2,3.693,3.693,0,0,0-.019.672,37.319,37.319,0,0,0-1.187-3.679,7.314,7.314,0,0,0,2.476-3.2,5.95,5.95,0,0,0-.16-4.82,3.578,3.578,0,0,0-.246-.668,5.58,5.58,0,0,0-3.089,5.625,1.419,1.419,0,0,0,.054.452q-.732-1.737-1.508-3.394a7.085,7.085,0,0,0,2.1-3.359,6.331,6.331,0,0,0-.69-4.812q-.162-.357-.308-.651a5.575,5.575,0,0,0-2.538,5.943c.022.084.039.145.05.187q-.9-1.625-1.911-3.152a7.106,7.106,0,0,0,1.811-3.683,6.416,6.416,0,0,0-1.265-4.723,6.224,6.224,0,0,1-.371-.634,5.574,5.574,0,0,0-1.861,6.228c.022.084.05.187.084.311q-1.2-1.745-2.508-3.392a6.817,6.817,0,0,0,1.387-3.77,6.482,6.482,0,0,0-1.824-4.574,2.222,2.222,0,0,1-.4-.492,5.412,5.412,0,0,0-1.157,6.372q-1.066-1.247-2.259-2.459a7.111,7.111,0,0,0,.916-4.042,6.324,6.324,0,0,0-2.351-4.3,1.114,1.114,0,0,1-.444-.413,5.331,5.331,0,0,0-.345,6.422c.01.04.022.081.032.124q-1.095-1.106-2.235-2.133a7.311,7.311,0,0,0,.87-3.964,6.318,6.318,0,0,0-2.351-4.3,1.132,1.132,0,0,1-.444-.413,5.327,5.327,0,0,0-.344,6.421" transform="translate(-93.696 -128.856)" fill="none"/>
    </clipPath>
    <linearGradient id="linear-gradient-8" x1="-2.315" y1="6.183" x2="-2.288" y2="6.183" xlink:href="#linear-gradient-7"/>
    <clipPath id="clip-path-19">
      <path id="Trazado_592529" data-name="Trazado 592529" d="M111.049,75.74a23.64,23.64,0,0,0-7.126,17.227,24.628,24.628,0,0,0,18.4,23.572,9.183,9.183,0,0,0,1.175.313,27.581,27.581,0,0,0,4.7.391,29.46,29.46,0,0,0,4.854-.391c.336-.067.676-.147,1.018-.236a23.592,23.592,0,0,0,11.276-6.578,23.122,23.122,0,0,0,7.126-17.072A24.309,24.309,0,0,0,111.049,75.74" transform="translate(-103.923 -68.693)" fill="none"/>
    </clipPath>
    <linearGradient id="linear-gradient-9" x1="-2.258" y1="7.924" x2="-2.236" y2="7.924" gradientUnits="objectBoundingBox">
      <stop offset="0" stop-color="#ffe750"/>
      <stop offset="0.166" stop-color="#ffe750"/>
      <stop offset="0.377" stop-color="#ffe750"/>
      <stop offset="1" stop-color="#ffff7d"/>
    </linearGradient>
    <clipPath id="clip-path-21">
      <path id="Trazado_592531" data-name="Trazado 592531" d="M144.841,85.021l6.879,1.111q-2.207,3.627-6.953,12.576l8.266.844-7.063,15.41q1.512-2.149,8.244-10.086,6.925-8.147,8.295-9.367l-6.428-.964q8.6-11.38,9.9-12.688-3.892-.981-8.957-2.057.99-1.832,4.529-7.477a88.305,88.305,0,0,1,4.758-7.443q-11.8-2.087-13.006-2.5-.791,2.1-8.464,22.644" transform="translate(-144.766 -62.377)" fill="none"/>
    </clipPath>
    <linearGradient id="linear-gradient-10" x1="-2.969" y1="11.14" x2="-2.946" y2="11.14" gradientUnits="objectBoundingBox">
      <stop offset="0" stop-color="#ffc72d"/>
      <stop offset="0.987" stop-color="#ffe750"/>
      <stop offset="1" stop-color="#ffe750"/>
    </linearGradient>
    <clipPath id="clip-path-23">
      <path id="Trazado_592538" data-name="Trazado 592538" d="M205.121,204.666a1.723,1.723,0,0,0-.708.257,1.282,1.282,0,0,0-.515.837,2.569,2.569,0,0,0-.193,1.543,1.3,1.3,0,0,0,.257.838,2.249,2.249,0,0,0,.965.449,2.022,2.022,0,0,0,2.96-1.672,2.6,2.6,0,0,0-.193-1.353,1.912,1.912,0,0,0-1.094-.835,5.333,5.333,0,0,0-.969-.086c-.169,0-.338.008-.511.022m-6.628-.322a1.058,1.058,0,0,0-.9.771l-.064.516.129.385.193.323.322.193.45.129a1.134,1.134,0,0,0,.965-.579,1.03,1.03,0,0,0,.064-1.158,1.408,1.408,0,0,0-.965-.645Zm21.75-1.353a1.121,1.121,0,0,0-.965.645,1.1,1.1,0,0,0,1.158,1.609,1.212,1.212,0,0,0,.837-.579.94.94,0,0,0-.257-1.351.919.919,0,0,0-.708-.386Zm7.207-.964a1.1,1.1,0,1,0,1.158,1.866.922.922,0,0,0,.515-1.03,2.191,2.191,0,0,0-.322-.708l-.322-.194a.847.847,0,0,0-.425-.113,1.248,1.248,0,0,0-.6.179m32.367-22.844a4.146,4.146,0,0,0-1.158,2.959,3.927,3.927,0,0,0,1.158,2.9,4.029,4.029,0,0,0,2.96,1.224,4.178,4.178,0,0,0,4.118-4.12,4.032,4.032,0,0,0-1.223-2.959,3.929,3.929,0,0,0-2.9-1.158,4.147,4.147,0,0,0-2.96,1.158m10.489-3.411a1.369,1.369,0,0,0-.772.45,1.032,1.032,0,0,0-.259.835,1.173,1.173,0,0,0,.645.837.9.9,0,0,0,1.03,0l.45-.449.129-.387a.944.944,0,0,0-.257-.9,1.764,1.764,0,0,0-.838-.449ZM254.6,175a.97.97,0,0,0-.579.645l-.064.513.064.516a2.753,2.753,0,0,0,.257.385,1.151,1.151,0,0,0,.708.323.964.964,0,0,0,.643-.129,1.013,1.013,0,0,0,.515-.708,1.319,1.319,0,0,0-.129-1.158,1.11,1.11,0,0,0-.9-.516Zm-18.4,2.317a9.688,9.688,0,0,0-2.252,3.026,2.471,2.471,0,0,0-2.124-1.288.883.883,0,0,0-.386.066q-1.224-5.019-6.177-5.019-3.927,0-7.078,4.246a9.17,9.17,0,0,0-3.024-.45,14.767,14.767,0,0,0-3.346.322,5.7,5.7,0,0,0-5.92-4.117,10.748,10.748,0,0,0-7.529,3.216,12.348,12.348,0,0,0-1.416,1.674,9.473,9.473,0,0,0-1.094.708,6.093,6.093,0,0,0-1.351,1.223,5.7,5.7,0,0,0-3.024-.967,5.963,5.963,0,0,0-4.054,1.674,1.139,1.139,0,0,1-.322.32,4.726,4.726,0,0,0-.708-1.287,5.61,5.61,0,0,0-5.084-2.637,8.327,8.327,0,0,0-4.826,1.673,6.382,6.382,0,0,0-2.831,5.405,17.846,17.846,0,0,0,.579,3.861l-.193-.257q-2.06-1.674-3.153-1.674a3.124,3.124,0,0,0-2.188.9c-.086.086-.151.152-.194.194a5.833,5.833,0,0,0-3.988-1.351,7.669,7.669,0,0,0-4.7,1.48,6.043,6.043,0,0,0-2.38,5.018,9.325,9.325,0,0,0,.322,2.382q.129.45.45,1.287a2.418,2.418,0,0,0-.772-.129,4.865,4.865,0,0,0-3.282,1.158,3.972,3.972,0,0,0-1.609,3.346,7.812,7.812,0,0,0,.257,1.287,9.153,9.153,0,0,0,.45,1.737h2.7q6.177.127,8.237-5.278a6.581,6.581,0,0,0,6.37,3.991,6.173,6.173,0,0,0,1.609-.193c.171.6.322,1.093.45,1.48h2.251l2.189-2.961q4.5,2.06,7.657-.45,1.608,2.125,5.212,2.125a4.6,4.6,0,0,0,.772-.066,4.645,4.645,0,0,0,.385,1.353h2.575l1.479-2.7q3.992,2.832,7.981-.9,1.544,2.317,5.212,2.317a4.981,4.981,0,0,0,4.311-2.188q.259-.45.515-.837a10.33,10.33,0,0,0,2.059-.322,6.02,6.02,0,0,0,3.99,1.287q4.44,0,5.791-3.024h.772a6.76,6.76,0,0,0,5.277,2.059,7.627,7.627,0,0,0,4.7-1.351,4.3,4.3,0,0,0,1.8-3.217,4.362,4.362,0,0,0,.837.964,7.642,7.642,0,0,0,5.212,1.546,8.188,8.188,0,0,0,6.628-2.833,5.8,5.8,0,0,0,1.672-3.732,2.962,2.962,0,0,0-.192-1.157,4.32,4.32,0,0,0,2.831-.579q1.93-1.288,1.93-4.44a7.806,7.806,0,0,0-.516-3.217,2.524,2.524,0,0,0-2.38-1.224,5.28,5.28,0,0,0-3.346,1.224q-.322-7.917-6.5-7.915a10.6,10.6,0,0,0-7.529,3.216" transform="translate(-152.548 -174.1)" fill="none"/>
    </clipPath>
    <linearGradient id="linear-gradient-11" x1="-3.269" y1="2.892" x2="-3.25" y2="2.892" gradientUnits="objectBoundingBox">
      <stop offset="0" stop-color="#ab8477"/>
      <stop offset="0.313" stop-color="#ab8477"/>
      <stop offset="1" stop-color="#d98477"/>
    </linearGradient>
    <clipPath id="clip-path-25">
      <path id="Trazado_592541" data-name="Trazado 592541" d="M150.292,266.692a24.181,24.181,0,0,0-2.867,9.558q-.373,2.977-.521,6.431-5.49,1.318-10.081,2.692-4.6,1.357-5.214,6.6T134.3,296.5H146.99a42.18,42.18,0,0,1,2.695-6.952q1.614-3.168,6.428-3.387t6.257,3.561A32.1,32.1,0,0,1,164.2,296.5h21.985a30.463,30.463,0,0,1,2.519-6.865q1.652-3.3,6.257-3.475,4.595-.255,6.257,3.649a45.157,45.157,0,0,1,2.519,6.691l10.081-.088q6.114-.249,5.387-4.257a39.683,39.683,0,0,0-.261-7.995q-1.129-4.953-9.036-4.952-4.423.263-7.387.521-1.7-14.857-5.04-18.509-3.911-4.257-19.9-4.259-21.289,0-27.285,9.733" transform="translate(-131.513 -256.959)" fill="none"/>
    </clipPath>
    <linearGradient id="linear-gradient-12" x1="-2.418" y1="2.431" x2="-2.401" y2="2.431" gradientUnits="objectBoundingBox">
      <stop offset="0" stop-color="#ffbb54"/>
      <stop offset="1" stop-color="#ffdb74"/>
    </linearGradient>
    <clipPath id="clip-path-27">
      <rect id="Rectángulo_48083" data-name="Rectángulo 48083" width="29.15" height="52.701" fill="none"/>
    </clipPath>
    <linearGradient id="linear-gradient-13" x1="-2.596" y1="3.603" x2="-2.573" y2="3.603" gradientUnits="objectBoundingBox">
      <stop offset="0" stop-color="#b7c8d6"/>
      <stop offset="1" stop-color="#dadce6"/>
    </linearGradient>
    <clipPath id="clip-path-29">
      <rect id="Rectángulo_48087" data-name="Rectángulo 48087" width="29.149" height="39.124" fill="none"/>
    </clipPath>
    <linearGradient id="linear-gradient-14" x1="-4.306" y1="3.574" x2="-4.275" y2="3.574" xlink:href="#linear-gradient-13"/>
  </defs>
  <g id="Grupo_879810" data-name="Grupo 879810" transform="translate(-868.199 -500.135)">
    <g id="Grupo_879809" data-name="Grupo 879809" transform="translate(868.199 500.135)">
      <g id="Grupo_879808" data-name="Grupo 879808" clip-path="url(#clip-path)">
        <g id="Grupo_879755" data-name="Grupo 879755">
          <g id="Grupo_879754" data-name="Grupo 879754" clip-path="url(#clip-path)">
            <g id="Grupo_879750" data-name="Grupo 879750" transform="translate(0 86.613)" opacity="0.61">
              <g id="Grupo_879749" data-name="Grupo 879749">
                <g id="Grupo_879748" data-name="Grupo 879748" clip-path="url(#clip-path-3)">
                  <path id="Trazado_592503" data-name="Trazado 592503" d="M3.425,103.781a2.094,2.094,0,0,0-1.631-.075A2.416,2.416,0,0,0,.014,106a2.519,2.519,0,0,0,1.261,2.521,2.014,2.014,0,0,0,2.668-.223,3.586,3.586,0,0,0,.743-.964,3.929,3.929,0,0,0,.223-1.557l-.3-.889a2.369,2.369,0,0,0-1.187-1.112M12.916,102a6.464,6.464,0,0,0-1.335,1.483,3.959,3.959,0,0,0-.891,1.557q-.593,1.929,1.409,3.336a6.809,6.809,0,0,0,3.781.965,3.526,3.526,0,0,0,2.151-.52q1.409-.963,1.26-3.781a5.35,5.35,0,0,0-.444-2.372,3.238,3.238,0,0,0-2.373-1.484,4.4,4.4,0,0,0-3.558.816m142.137,1.927a3.285,3.285,0,0,1-.223-1.037v-.148a9.883,9.883,0,0,1,.223,1.185.932.932,0,0,0,.519.372q.371.075,3.189.075a22.475,22.475,0,0,0,3.262-.149,2.846,2.846,0,0,0,2.52-2.965q0-4.45-6.08-4.449a10.666,10.666,0,0,0-5.338,1.705q-2.521,1.631-2.595,1.632c-.2,0-.3-.024-.3-.075v-.148a36.1,36.1,0,0,0-1.483-7.192q-2.077-6.378-5.784-6.377a10.348,10.348,0,0,0-5.338,1.853q-.3-1.631-.593-3.188-2.224-9.639-9.713-9.641-6.674,0-12.161,5.489a40.3,40.3,0,0,0-1.408-3.856q-4.079-9.714-9.565-9.715-9.936,0-18.907,10.011-8.009,9.119-8.009,16.164H76.31a40.161,40.161,0,0,0-4.3-6.6q-3.262-3.855-10.751-3.856a14.235,14.235,0,0,0-6.6,2q-4.894,2.595-4.894,6.45v.445h-.445q-4.967,0-10.158,3.856-5.708,4.3-4.893,9.415-1.334-1.853-2.224-2.892a4.4,4.4,0,0,0-3.633-2,6.767,6.767,0,0,0-3.337.964,4.474,4.474,0,0,0-2.373,3.929,5.51,5.51,0,0,0,1.409,3.337,5.045,5.045,0,0,0,2.744,1.928,3.933,3.933,0,0,0-.223.519,9.133,9.133,0,0,0-.223,2.744,7.25,7.25,0,0,0,1.632,4.968,5.827,5.827,0,0,0,4.522,1.78q2.151,0,4.893-2.373a41.419,41.419,0,0,1,4.376-3.558q-.817.517-.891.964a25.569,25.569,0,0,0-.073,2.817,12.038,12.038,0,0,0,2.3,6.748,10.949,10.949,0,0,0,9.638,4.893q6.674,0,11.863-5.784a23,23,0,0,0,2.966-4,11.475,11.475,0,0,0,3.04,2.6,13.735,13.735,0,0,0,7.044,2.3,16.817,16.817,0,0,0,11.2-4.078,20.5,20.5,0,0,0,5.041,6q5.932,5.118,11.419,5.117,7.266,0,9.045-5.561a30.962,30.962,0,0,0,.445-6.9,8.849,8.849,0,0,0,9.417,7.34,10.506,10.506,0,0,0,8.453-3.781,25.327,25.327,0,0,0,3.706-6.525,7.826,7.826,0,0,0,4.746,1.409q4.3,0,9.342-4.228,5.411-4.595,4.522-9.935" transform="translate(0 -67.3)" fill="#fff"/>
                </g>
              </g>
            </g>
            <g id="Grupo_879753" data-name="Grupo 879753" transform="translate(315.305 357.456)" opacity="0.61">
              <g id="Grupo_879752" data-name="Grupo 879752">
                <g id="Grupo_879751" data-name="Grupo 879751" clip-path="url(#clip-path-4)">
                  <path id="Trazado_592504" data-name="Trazado 592504" d="M299.437,297.569a11.78,11.78,0,0,0-2.381,6.95q-.965-3.8-4.89-9.781-6.048-9.266-12.741-9.266-5.6,0-12.548,3.925-6.627,3.732-7.657,8.044a5.78,5.78,0,0,0-.708-.193q-.45-.064-2.638-.064a11.2,11.2,0,0,0-7.979,2.96,8.509,8.509,0,0,0-2.9,6.435q0,3.089,3.925,5.083a12.339,12.339,0,0,0,5.47,1.48h.45a62.236,62.236,0,0,0-.322,6.242q-.193,5.083,1.673,7.979t7.464,2.574a10.16,10.16,0,0,0,8.494-5.663q0,.515-.45,4.44a28.916,28.916,0,0,0,.515,7.915q2.317,10.94,14.221,10.939,6.95,0,11.261-6.692a22.584,22.584,0,0,0,2.51-4.826,17.122,17.122,0,0,0,5.856.837q3.539,0,7.657-4.376a.988.988,0,0,1,.193-.257q.708,6.37,7.143,9.459,5.149,2.51,13.063,2.51,10.038,0,14.543-8.3a23.1,23.1,0,0,0,1.995-5.019,19.812,19.812,0,0,0,2.123,1.673q3.411,2.317,9.459,2.317,7.206,0,13.578-7.657a27.913,27.913,0,0,0,3.089-4.44q3.411,3.8,9.524,3.8,5.149,0,10.1-5.405a12.084,12.084,0,0,0,2.96-7.078q1.415,1.8,2.96,1.48a9.633,9.633,0,0,0,3.41-1.416q1.93-1.222,1.93-4.569a7.293,7.293,0,0,0-1.351-4.7,4.6,4.6,0,0,0-3.8-1.673,11.333,11.333,0,0,0-5.019,1.094,5.623,5.623,0,0,0-1.094.643,13.976,13.976,0,0,0-2.059-4.5q-3.152-4.7-7.786-4.7A16.4,16.4,0,0,0,380,298.535a13.585,13.585,0,0,0-2.252-5.277,10.8,10.8,0,0,0-9.524-4.826,16.021,16.021,0,0,0-8.687,2.188q-.45-1.351-.965-2.7-4.183-10.168-12.355-10.167-8.687,0-16.409,6.821-7.013,6.177-7.658,12.87-3.925-5.6-11.261-5.6-7.465,0-11.454,5.727" transform="translate(-244.998 -277.75)" fill="#fff"/>
                </g>
              </g>
            </g>
          </g>
        </g>
        <g id="Grupo_879757" data-name="Grupo 879757" transform="translate(58.661 22.978)">
          <g id="Grupo_879756" data-name="Grupo 879756" clip-path="url(#clip-path-5)">
            <rect id="Rectángulo_48059" data-name="Rectángulo 48059" width="88.13" height="88.748" transform="translate(-8.405 0.623) rotate(-5.001)" fill="url(#linear-gradient)"/>
          </g>
        </g>
        <g id="Grupo_879759" data-name="Grupo 879759" transform="translate(358.428 56.189)">
          <g id="Grupo_879758" data-name="Grupo 879758" clip-path="url(#clip-path-6)">
            <rect id="Rectángulo_48060" data-name="Rectángulo 48060" width="56.826" height="57.906" transform="translate(-5.389 0.407) rotate(-5.001)" fill="url(#linear-gradient-2)"/>
          </g>
        </g>
        <g id="Grupo_879761" data-name="Grupo 879761">
          <g id="Grupo_879760" data-name="Grupo 879760" clip-path="url(#clip-path)">
            <path id="Trazado_592507" data-name="Trazado 592507" d="M354.532,142.759q-11.39-29.833-34.555-48.776Q276.349,58.333,194.562,65.09A119.817,119.817,0,0,0,177.9,67.214a155.762,155.762,0,0,0-37,11.325q-46.157,20.866-55.6,64.22Z" transform="translate(24.478 18.37)" fill="#78a303"/>
          </g>
        </g>
        <g id="Grupo_879763" data-name="Grupo 879763" transform="translate(146.583 -0.001)">
          <g id="Grupo_879762" data-name="Grupo 879762" clip-path="url(#clip-path-8)">
            <rect id="Rectángulo_48062" data-name="Rectángulo 48062" width="72.821" height="76.156" transform="translate(-6.13 0.536) rotate(-5.001)" fill="url(#linear-gradient-3)"/>
          </g>
        </g>
        <g id="Grupo_879765" data-name="Grupo 879765">
          <g id="Grupo_879764" data-name="Grupo 879764" clip-path="url(#clip-path)">
            <path id="Trazado_592509" data-name="Trazado 592509" d="M365.929,198.622a237.57,237.57,0,0,0-.965-29.214,169.762,169.762,0,0,0-9.91-44.207H85.82a107.117,107.117,0,0,0-2.188,16.152q-1.737,27.992,16.409,49.548,2.714,3.2,7.143,7.722Z" transform="translate(23.956 35.929)" fill="#82ad0c"/>
          </g>
        </g>
        <g id="Grupo_879767" data-name="Grupo 879767" transform="translate(225.475 -0.001)">
          <g id="Grupo_879766" data-name="Grupo 879766" clip-path="url(#clip-path-10)">
            <rect id="Rectángulo_48064" data-name="Rectángulo 48064" width="67.919" height="71.02" transform="matrix(0.996, -0.087, 0.087, 0.996, -5.716, 0.5)" fill="url(#linear-gradient-4)"/>
          </g>
        </g>
        <g id="Grupo_879769" data-name="Grupo 879769">
          <g id="Grupo_879768" data-name="Grupo 879768" clip-path="url(#clip-path)">
            <path id="Trazado_592511" data-name="Trazado 592511" d="M349.318,258.76q10.492-40.96,11.325-76.51H101.9q4.378,4.372,10.36,9.974,12.484,11.712,18.082,18.211a87.472,87.472,0,0,1,21.428,48.326Z" transform="translate(29.242 52.3)" fill="#88b610"/>
          </g>
        </g>
        <g id="Grupo_879771" data-name="Grupo 879771" transform="translate(296.623 15.702)">
          <g id="Grupo_879770" data-name="Grupo 879770" clip-path="url(#clip-path-12)">
            <rect id="Rectángulo_48066" data-name="Rectángulo 48066" width="65.749" height="68.05" transform="matrix(0.996, -0.087, 0.087, 0.996, -6.094, 0.478)" fill="url(#linear-gradient-5)"/>
          </g>
        </g>
        <g id="Grupo_879773" data-name="Grupo 879773">
          <g id="Grupo_879772" data-name="Grupo 879772" clip-path="url(#clip-path)">
            <path id="Trazado_592513" data-name="Trazado 592513" d="M314.405,318.21A509.761,509.761,0,0,0,335.9,259.525q2.695-9.037,4.955-17.825H143.3q.3,2.737.45,5.534,1.6,29.239-12.355,70.976Z" transform="translate(37.707 69.361)" fill="#8fb81d"/>
            <path id="Trazado_592514" data-name="Trazado 592514" d="M136.98,301.15q-5.152,15.4-12.419,32.5-10.135,23.876-12.612,44.014H278.353q4.784-6.874,9.331-14.35a515.994,515.994,0,0,0,32.3-62.161Z" transform="translate(32.126 86.421)" fill="#93c218"/>
          </g>
        </g>
        <g id="Grupo_879775" data-name="Grupo 879775" transform="translate(143.273 464.082)">
          <g id="Grupo_879774" data-name="Grupo 879774" clip-path="url(#clip-path-14)">
            <rect id="Rectángulo_48068" data-name="Rectángulo 48068" width="174.213" height="89.39" transform="translate(-7.714 0.648) rotate(-5.371)" fill="url(#linear-gradient-6)"/>
          </g>
        </g>
        <g id="Grupo_879777" data-name="Grupo 879777">
          <g id="Grupo_879776" data-name="Grupo 879776" clip-path="url(#clip-path)">
            <path id="Trazado_592516" data-name="Trazado 592516" d="M85.3,125.2H354.532M119.6,428.153H286.033M106.694,198.622H365.439m-208.908,76.51h197.55m-209.455,76.51H327.667" transform="translate(24.478 35.929)" fill="none" stroke="#fff" stroke-linecap="round" stroke-linejoin="round" stroke-width="2"/>
            <path id="Trazado_592517" data-name="Trazado 592517" d="M173.294,155.658a9.17,9.17,0,0,0-5.121-1.34,8.705,8.705,0,0,0-3.784.788,4.524,4.524,0,0,0,1.34,2.915,4.644,4.644,0,0,0,3.7,1.656,4.479,4.479,0,0,0,3.625-1.734l1.181-1.577a11.039,11.039,0,0,0-.946-.709m-40.5,2.363a4.524,4.524,0,0,0,1.34-2.915,8.7,8.7,0,0,0-3.782-.788,9.172,9.172,0,0,0-5.122,1.34,11.032,11.032,0,0,0-.946.709q.473.631,1.183,1.577a4.477,4.477,0,0,0,3.624,1.734,4.644,4.644,0,0,0,3.7-1.656" transform="translate(35.665 44.285)" fill="#ffe7ea"/>
            <path id="Trazado_592518" data-name="Trazado 592518" d="M159.141,151.663q.552.71,1.34,1.97.788,1.181,1.812,2.916,1.419.394,3.782-1.655a6.285,6.285,0,0,0,2.284-4.65q-.077-2.6-1.023-3.309-1.025-.788-1.1,0A9.153,9.153,0,0,1,163.4,150.8a4.715,4.715,0,0,1-4.255.866M132.98,150.8a9.163,9.163,0,0,1-2.836-3.861q-.079-.788-1.1,0-.946.708-1.024,3.309a6.29,6.29,0,0,0,2.284,4.65q2.365,2.048,3.782,1.655,1.025-1.734,1.812-2.916.79-1.261,1.34-1.97a4.715,4.715,0,0,1-4.255-.866" transform="translate(36.737 42.053)" fill="#f4c9c6"/>
            <path id="Trazado_592519" data-name="Trazado 592519" d="M128.6,170.055v.346a13.467,13.467,0,0,0,7.542,12.663,25.838,25.838,0,0,0,12.04,3.183,25.559,25.559,0,0,0,12.041-3.183,13.452,13.452,0,0,0,7.611-12.663,29.331,29.331,0,0,0-3.945-15.5q-3.8-6.3-14.876-6.435a14.509,14.509,0,0,1,1.8,7.266q0,6.434-5.744,10.655a21.634,21.634,0,0,1-12.8,3.806q-1.108,0-3.668-.138" transform="translate(36.905 42.605)" fill="#fff"/>
            <path id="Trazado_592520" data-name="Trazado 592520" d="M132.477,154.9a29.463,29.463,0,0,0-3.875,15.154q2.56.137,3.668.138a21.64,21.64,0,0,0,12.8-3.806q5.743-4.222,5.744-10.656a14.5,14.5,0,0,0-1.8-7.265h-.553q-12.11,0-15.984,6.435" transform="translate(36.905 42.606)" fill="#c49fa2"/>
            <path id="Trazado_592521" data-name="Trazado 592521" d="M138.251,170.016a4.654,4.654,0,0,0,2.127,4.255,8.089,8.089,0,0,0,4.885,1.261,9.818,9.818,0,0,0,4.964-1.34,4.521,4.521,0,0,0,2.049-4.176q0-2.917-1.734-3.7a11.143,11.143,0,0,0-4.885-.866,14.433,14.433,0,0,0-5.279.866q-2.129.788-2.127,3.7m4.175,2.364a1.513,1.513,0,0,1-1.1-.474,1.385,1.385,0,0,1-.394-1.024,1.368,1.368,0,0,1,1.5-1.5,1.39,1.39,0,0,1,1.026.394,1.517,1.517,0,0,1,.472,1.1,1.632,1.632,0,0,1-1.5,1.5m5.044-2.6a1.672,1.672,0,0,1,1.1-.394,1.385,1.385,0,0,1,1.024.394,1.513,1.513,0,0,1,.474,1.1,1.635,1.635,0,0,1-1.5,1.5,1.513,1.513,0,0,1-1.1-.474,1.385,1.385,0,0,1-.394-1.024,1.672,1.672,0,0,1,.394-1.1" transform="translate(39.674 47.478)" fill="#ffb9bc"/>
            <path id="Trazado_592522" data-name="Trazado 592522" d="M147.975,168.507a1.368,1.368,0,0,0-1.5,1.5,1.385,1.385,0,0,0,.394,1.024,1.51,1.51,0,0,0,1.1.472,1.63,1.63,0,0,0,1.5-1.5,1.512,1.512,0,0,0-.472-1.1,1.387,1.387,0,0,0-1.024-.394m-7.249,2.521a1.512,1.512,0,0,0,1.1.472,1.63,1.63,0,0,0,1.5-1.5,1.512,1.512,0,0,0-.472-1.1,1.385,1.385,0,0,0-1.024-.394,1.368,1.368,0,0,0-1.5,1.5,1.385,1.385,0,0,0,.394,1.024" transform="translate(40.271 48.357)" fill="#ff8689"/>
            <path id="Trazado_592523" data-name="Trazado 592523" d="M136.057,164.673a3.244,3.244,0,0,0,3.073-3.073,3.023,3.023,0,0,0-.946-2.206,2.893,2.893,0,0,0-2.127-.867,2.968,2.968,0,0,0-3.073,3.073,2.893,2.893,0,0,0,.867,2.127,3.023,3.023,0,0,0,2.206.946m21.433,0a3.244,3.244,0,0,0,3.073-3.073,3.023,3.023,0,0,0-.946-2.206,2.893,2.893,0,0,0-2.127-.867,2.968,2.968,0,0,0-3.073,3.073,2.893,2.893,0,0,0,.867,2.127,3.021,3.021,0,0,0,2.206.946" transform="translate(38.163 45.492)" fill="#816a69"/>
          </g>
        </g>
        <g id="Grupo_879779" data-name="Grupo 879779" transform="translate(151.453 150.357)">
          <g id="Grupo_879778" data-name="Grupo 879778" clip-path="url(#clip-path-16)">
            <rect id="Rectángulo_48070" data-name="Rectángulo 48070" width="42.343" height="62.253" transform="translate(-17.24 5.792) rotate(-18.569)" fill="url(#linear-gradient-7)"/>
          </g>
        </g>
        <g id="Grupo_879781" data-name="Grupo 879781" transform="translate(120.584 165.834)">
          <g id="Grupo_879780" data-name="Grupo 879780" clip-path="url(#clip-path-17)">
            <rect id="Rectángulo_48071" data-name="Rectángulo 48071" width="48.836" height="60.853" transform="translate(-15.955 5.36) rotate(-18.569)" fill="url(#linear-gradient-8)"/>
          </g>
        </g>
        <g id="Grupo_879783" data-name="Grupo 879783">
          <g id="Grupo_879782" data-name="Grupo 879782" clip-path="url(#clip-path)">
            <path id="Trazado_592526" data-name="Trazado 592526" d="M121.267,112.746q-.156,3.133,2.035,3.132,2.349,0,2.116-3.054-.857.077-2.036.078a12.447,12.447,0,0,1-2.114-.157" transform="translate(34.797 32.355)" fill="#a38a8d"/>
            <path id="Trazado_592527" data-name="Trazado 592527" d="M128.105,112.906a9.949,9.949,0,0,0,.391-3.29v-.078a14.752,14.752,0,0,1-4.542.471,13.439,13.439,0,0,1-4.7-.548v.156a7.322,7.322,0,0,0,.548,3.29q.315.629,2.036.782a12.346,12.346,0,0,0,2.115.157q1.178,0,2.036-.078,1.845-.216,2.115-.861" transform="translate(34.223 31.412)" fill="#c8afb2"/>
            <path id="Trazado_592528" data-name="Trazado 592528" d="M129.968,105.949q-.514.133-1.018.234a29.475,29.475,0,0,1-4.856.393,27.577,27.577,0,0,1-4.7-.393,9.236,9.236,0,0,1-1.175-.313v.939a7.328,7.328,0,0,0,.391,2.663,2.765,2.765,0,0,0,.313.627,1.114,1.114,0,0,0,.627.391,13.444,13.444,0,0,0,4.7.548,14.8,14.8,0,0,0,4.542-.47,1.262,1.262,0,0,0,.705-.47,1.991,1.991,0,0,0,.157-.548,9.611,9.611,0,0,0,.313-2.741Z" transform="translate(33.926 30.382)" fill="#e0c7ca"/>
          </g>
        </g>
        <g id="Grupo_879785" data-name="Grupo 879785" transform="translate(133.746 88.406)">
          <g id="Grupo_879784" data-name="Grupo 879784" clip-path="url(#clip-path-19)">
            <rect id="Rectángulo_48073" data-name="Rectángulo 48073" width="57.296" height="57.296" transform="matrix(0.2, -0.98, 0.98, 0.2, -9.532, 46.601)" fill="url(#linear-gradient-9)"/>
          </g>
        </g>
        <g id="Grupo_879787" data-name="Grupo 879787">
          <g id="Grupo_879786" data-name="Grupo 879786" clip-path="url(#clip-path)">
            <path id="Trazado_592530" data-name="Trazado 592530" d="M136.322,85.248a10.9,10.9,0,0,1,1.331,4.15,46.806,46.806,0,0,0,4.62-1.957c.17-.082.327-.161.47-.236a18.1,18.1,0,0,0-1.643-4.62q-2.147,1.12-4.777,2.663m-7.753-13.391q-.371.376-.784.861a24.012,24.012,0,0,0-1.957,2.584,20.181,20.181,0,0,1,6.186,4.386,27.691,27.691,0,0,1,2.741,3.054q1.876-1.519,4.307-3.368c-.207-.263-.417-.524-.627-.782q-4.367-5.51-9.867-6.735" transform="translate(36.109 20.621)" fill="#fff"/>
          </g>
        </g>
        <g id="Grupo_879789" data-name="Grupo 879789" transform="translate(186.31 80.277)">
          <g id="Grupo_879788" data-name="Grupo 879788" clip-path="url(#clip-path-21)">
            <rect id="Rectángulo_48075" data-name="Rectángulo 48075" width="56.82" height="40.548" transform="translate(-19.068 44.396) rotate(-66.757)" fill="url(#linear-gradient-10)"/>
          </g>
        </g>
        <g id="Grupo_879791" data-name="Grupo 879791">
          <g id="Grupo_879790" data-name="Grupo 879790" clip-path="url(#clip-path)">
            <path id="Trazado_592532" data-name="Trazado 592532" d="M159.471,230.136l-.449-6.338h-6.9l-.448,6.338Zm-1.291-19.015h-5.216l-.393,6.338h6l-.394-6.338m-4.374-11.892-.393,5.553h4.319l-.393-5.553h-3.534m42.573,30.907-.393-6.338h-6.955l-.449,6.338h7.8m-1.29-19.015h-5.161l-.448,6.338h6.058l-.449-6.338m-4.376-11.892-.393,5.553h4.319l-.393-5.553h-3.534m-20.585,30.907h7.8l-.393-6.338h-6.955l-.449,6.338m6.507-19.015h-5.161l-.449,6.338h6.059l-.449-6.338m-.842-11.892H172.26l-.393,5.553h4.319Z" transform="translate(43.526 57.173)" fill="#fff"/>
            <path id="Trazado_592533" data-name="Trazado 592533" d="M158.922,222.559l-.448-6.338h-6l-.448,6.338Zm-.84-12.677-.449-6.338h-4.319l-.449,6.338h5.217m37.806,12.677-.449-6.338h-6.058l-.449,6.338h6.956m-5.665-19.015-.394,6.338h5.161l-.448-6.338h-4.319m-19.3,12.677-.449,6.338h6.955l-.448-6.338h-6.058m5.609-6.338-.449-6.338h-4.319l-.393,6.338Z" transform="translate(43.626 58.411)" fill="#ff7679"/>
            <path id="Trazado_592534" data-name="Trazado 592534" d="M200.928,243.8V211.382l-37.188,13.8V243.8Z" transform="translate(46.989 60.66)" fill="#f9ab77"/>
            <path id="Trazado_592535" data-name="Trazado 592535" d="M170.45,230.9h-4.488v4.488h4.488Zm13.293,0h-4.488v4.488h4.488Zm6.676,0h-4.488v4.488h4.488Zm0-6.225h-4.488v4.488h4.488ZM177.124,230.9h-4.488v4.488h4.488Zm2.133-1.739h4.488v-4.488h-4.488Zm-6.619,0h4.488v-4.488h-4.488Zm-2.188-4.486h-4.488v4.488h4.488Zm26.588,6.225h-4.431v4.488h4.431Zm-4.431-1.739h4.431v-4.488h-4.431Z" transform="translate(47.626 64.475)" fill="#c18a6d"/>
            <path id="Trazado_592536" data-name="Trazado 592536" d="M185.29,243.81V211.389l-37.188,13.8V243.81Z" transform="translate(42.501 60.662)" fill="#ffb887"/>
            <path id="Trazado_592537" data-name="Trazado 592537" d="M163.617,235.4H168.1v-4.488h-4.488Zm4.488-10.714h-4.488v4.488H168.1ZM157,235.4h4.488v-4.488H157Zm-6.674,0h4.488v-4.488h-4.488ZM157,229.17h4.488v-4.488H157Zm-2.187-4.488h-4.488v4.488h4.488ZM176.967,235.4H181.4v-4.488h-4.431Zm-6.674,0h4.488v-4.488h-4.488Zm4.488-10.714h-4.488v4.488h4.488Zm2.187,4.488H181.4v-4.488h-4.431Z" transform="translate(43.139 64.477)" fill="#cf9a7f"/>
          </g>
        </g>
        <g id="Grupo_879793" data-name="Grupo 879793" transform="translate(196.325 224.062)">
          <g id="Grupo_879792" data-name="Grupo 879792" clip-path="url(#clip-path-23)">
            <rect id="Rectángulo_48077" data-name="Rectángulo 48077" width="67.891" height="124.026" transform="matrix(0.291, -0.957, 0.957, 0.291, -9.674, 31.806)" fill="url(#linear-gradient-11)"/>
          </g>
        </g>
        <g id="Grupo_879795" data-name="Grupo 879795">
          <g id="Grupo_879794" data-name="Grupo 879794" clip-path="url(#clip-path)">
            <path id="Trazado_592539" data-name="Trazado 592539" d="M197.009,293.049a8.184,8.184,0,1,0-5.822,2.432,7.948,7.948,0,0,0,5.822-2.432m-5.736-8.6a2.6,2.6,0,0,1,1.912.782,2.733,2.733,0,0,1,0,4,2.6,2.6,0,0,1-1.912.781,2.781,2.781,0,1,1,0-5.561M157.818,281.4a8.181,8.181,0,1,0,2.434,5.822,7.945,7.945,0,0,0-2.434-5.822m-5.735,3.041a2.6,2.6,0,0,1,1.911.782,2.731,2.731,0,0,1,0,4,2.6,2.6,0,0,1-1.911.781,2.781,2.781,0,1,1,0-5.561" transform="translate(41.249 80.057)" fill="#897d85"/>
            <path id="Trazado_592540" data-name="Trazado 592540" d="M191.945,284.007a2.6,2.6,0,0,0-1.911-.783,2.782,2.782,0,1,0,0,5.562,2.6,2.6,0,0,0,1.911-.782,2.731,2.731,0,0,0,0-4m-39.19,0a2.6,2.6,0,0,0-1.911-.783,2.782,2.782,0,1,0,0,5.562,2.6,2.6,0,0,0,1.911-.782,2.734,2.734,0,0,0,0-4" transform="translate(42.49 81.277)" fill="#aa989e"/>
          </g>
        </g>
        <g id="Grupo_879797" data-name="Grupo 879797" transform="translate(169.254 330.699)">
          <g id="Grupo_879796" data-name="Grupo 879796" clip-path="url(#clip-path-25)">
            <rect id="Rectángulo_48079" data-name="Rectángulo 48079" width="73.052" height="97.116" transform="translate(-15.391 33.171) rotate(-65.556)" fill="url(#linear-gradient-12)"/>
          </g>
        </g>
        <g id="Grupo_879799" data-name="Grupo 879799">
          <g id="Grupo_879798" data-name="Grupo 879798" clip-path="url(#clip-path)">
            <path id="Trazado_592542" data-name="Trazado 592542" d="M172.8,260.412a4.053,4.053,0,0,0-.261,2.172q-.347,15.206-.347,15.988,18.335-.348,22.94-1.042a31.332,31.332,0,0,0-2.78-12.166q-2.32-4.878-8.342-5.475a46.7,46.7,0,0,0-8.342-.348q-2.344.261-2.867.87m-23.2,5.908q-2.689,4.079-3.562,13.035,5.125-.261,23.375-.783,0-.782-.261-15.988a3.394,3.394,0,0,0-.347-2.172q-.438-.6-2.867-.7a39.2,39.2,0,0,0-7.995,1.3,13.451,13.451,0,0,0-8.342,5.3" transform="translate(41.909 74.459)" fill="#a5def9"/>
            <path id="Trazado_592543" data-name="Trazado 592543" d="M118.938,282a2.938,2.938,0,1,0,.869,2.086,2.843,2.843,0,0,0-.869-2.086m5.3,5.04a1.535,1.535,0,0,0,1.3-1.3,1.33,1.33,0,0,0-.435-.956,1.179,1.179,0,0,0-.869-.348,1.2,1.2,0,0,0-1.3,1.3,1.179,1.179,0,0,0,.347.869,1.329,1.329,0,0,0,.956.434M133.1,291.3a3.147,3.147,0,1,0-2.26.956,3.089,3.089,0,0,0,2.26-.956" transform="translate(32.685 80.676)" fill="#fff"/>
            <rect id="Rectángulo_48080" data-name="Rectángulo 48080" width="6.885" height="52.701" transform="translate(188.636 399.604)" fill="#bbc9d6"/>
          </g>
        </g>
        <g id="Grupo_879801" data-name="Grupo 879801" transform="translate(159.487 399.603)">
          <g id="Grupo_879800" data-name="Grupo 879800" clip-path="url(#clip-path-27)">
            <rect id="Rectángulo_48082" data-name="Rectángulo 48082" width="56.217" height="36.136" transform="translate(-7.195 51.7) rotate(-82.077)" fill="url(#linear-gradient-13)"/>
          </g>
        </g>
        <g id="Grupo_879803" data-name="Grupo 879803">
          <g id="Grupo_879802" data-name="Grupo 879802" clip-path="url(#clip-path)">
            <path id="Trazado_592544" data-name="Trazado 592544" d="M149.311,343.5H145v4.311h4.311Zm-6.242,6.113h-4.311v4.311h4.311Zm0-6.113h-4.311v4.311h4.311Zm0-5.92h-4.311v4.311h4.311Zm-10.553,16.345h4.311v-4.311h-4.311Zm-1.93-10.424h-4.311v4.311h4.311Zm0-5.92h-4.311v4.311h4.311Zm1.93,4.311h4.311V337.58h-4.311Zm10.553-10.038h-4.311v4.311h4.311Zm6.242,0H145v4.311h4.311Zm-23.037,4.311h4.311v-4.311h-4.311Zm0-5.92h4.311v-4.311h-4.311Zm4.311-16.345h-4.311v4.311h4.311Zm6.242,5.92h-4.311v4.311h4.311Zm6.242,0h-4.311v4.311h4.311ZM145,330.245h4.311v-4.311H145Zm-8.172-4.311h-4.311v4.311h4.311Zm6.242-12.033h-4.311v4.311h4.311Z" transform="translate(36.237 90.08)" fill="#ebf1fc"/>
            <rect id="Rectángulo_48084" data-name="Rectángulo 48084" width="6.885" height="39.124" transform="translate(220.103 413.182)" fill="#bbc9d6"/>
          </g>
        </g>
        <g id="Grupo_879805" data-name="Grupo 879805" transform="translate(190.953 413.181)">
          <g id="Grupo_879804" data-name="Grupo 879804" clip-path="url(#clip-path-29)">
            <rect id="Rectángulo_48086" data-name="Rectángulo 48086" width="42.768" height="34.263" transform="matrix(0.138, -0.99, 0.99, 0.138, -5.342, 38.381)" fill="url(#linear-gradient-14)"/>
          </g>
        </g>
        <g id="Grupo_879807" data-name="Grupo 879807">
          <g id="Grupo_879806" data-name="Grupo 879806" clip-path="url(#clip-path)">
            <path id="Trazado_592545" data-name="Trazado 592545" d="M169.449,351.192h4.311V346.88h-4.311Zm-6.242,0h4.311V346.88h-4.311Zm-1.93-10.231h-4.311v4.311h4.311Zm-4.311-1.416h4.311v-4.311h-4.311Zm4.311-10.231h-4.311v4.311h4.311Zm6.242,5.92h-4.311v4.311h4.311Zm1.93,4.311h4.311v-4.311h-4.311Zm4.311,1.416h-4.311v4.311h4.311Zm0-11.647h-4.311v4.311h4.311Zm-10.553-1.8h4.311V323.2h-4.311Zm-6.242,0h4.311V323.2h-4.311Zm-6.242,23.68h4.311V346.88h-4.311Zm0-5.92h4.311V340.96h-4.311Zm0-11.647h4.311v-4.311h-4.311Z" transform="translate(43.253 92.749)" fill="#ebf1fc"/>
            <path id="Trazado_592546" data-name="Trazado 592546" d="M42.142,399.657a1.511,1.511,0,0,0,.12,1.3q.571,1.32,1.753.937a1.541,1.541,0,0,0,.864-.466,1.927,1.927,0,0,0,.38-1.01,1.689,1.689,0,0,0-1-1.668,1.416,1.416,0,0,0-1.692.291Zm129.537,7.019a1.287,1.287,0,0,0,1.714-.677,1.645,1.645,0,0,0-.148-1.942,1.507,1.507,0,0,0-1.773-.551,1.625,1.625,0,0,0-1.058,1.615,1.564,1.564,0,0,0,1.265,1.555m-13.213-1.136a2.851,2.851,0,0,0,.646-2.283,11.474,11.474,0,0,0-.523-2.157q-.334-.921-2.323-1.1a6.778,6.778,0,0,0-2.549.629,8.9,8.9,0,0,0-2.664,1.524,41.1,41.1,0,0,0-.017-7.67q-.846-5.527-4.947-5.952a7.245,7.245,0,0,0-5.2,1.961,8.129,8.129,0,0,0-1.784,1.9,25.667,25.667,0,0,0-.95-5.983q-1.5-5.307-6.764-5.733a8.109,8.109,0,0,0-4.642,1.154,9.238,9.238,0,0,0-1.4.824,25.228,25.228,0,0,0-2.264-5.543q-3.687-6.589-8.751-7.069-3.784-.344-8.206,2.629a12.1,12.1,0,0,0-5.7,9.6,10.225,10.225,0,0,0,.511,3.51,8.469,8.469,0,0,1,.5,2.477l-.256-.015a4.386,4.386,0,0,0-1.447-2.918,6.283,6.283,0,0,0-4.032-1.646,5.461,5.461,0,0,0-2.93.543l-.562-1.45q-2.564-5.946-7.31-6.343a11.39,11.39,0,0,0-8.946,3.167,14.223,14.223,0,0,0-4.682,8.694q-5.649-.386-8.437,3.324a7.731,7.731,0,0,0-1.723,5.381,1.42,1.42,0,0,1,.266.982l-.014.256a4.7,4.7,0,0,1-.252-1.238,4.554,4.554,0,0,0-.705-1.2,3.894,3.894,0,0,0-2.6-1.951,4.238,4.238,0,0,0-2.824.936,3.5,3.5,0,0,0-1.7,2.674c-.005.086-.008.151-.01.193a.726.726,0,0,0-.318-.082q-.319-.083-1.021-.187a2.445,2.445,0,0,0-2.2,1.293,4.593,4.593,0,0,0-.985,2.587q-.095,1.67,2.026,1.79a17.558,17.558,0,0,0,2.973-.153q-1.579,2.874.3,7.3a8.924,8.924,0,0,0,8.056,5.677q3.977.353,7.147-3.269a11.34,11.34,0,0,0,1.466-1.979,10.391,10.391,0,0,0,.528.932,9.462,9.462,0,0,0,7.017,3.556q4.618.392,6.952-2.12a13.091,13.091,0,0,0,2.714,4.408,12.285,12.285,0,0,0,8.383,4.471q5.965.531,10.805-6.413a5.667,5.667,0,0,0,.7-1.055,3.353,3.353,0,0,0,.292.532q2.052,3.6,7.18,4.081a9.657,9.657,0,0,0,6.87-1.8,7.972,7.972,0,0,0,2.9-4.54,7.7,7.7,0,0,0,2.143,3.151q1.168.969,4.439,1.283,5.77.519,8.239-4.368a14.027,14.027,0,0,0,.924-2.654,11.887,11.887,0,0,0,4.008.936q2.751.349,3.912-.81a7.284,7.284,0,0,0,1.58-2.875,8.774,8.774,0,0,0,.377-2.105q.16.589,1.862,1.265a4.946,4.946,0,0,0,3.394.386,4.335,4.335,0,0,0,2.525-1.34m7.809.959a1.757,1.757,0,0,0,.965-1.105,3.034,3.034,0,0,0,.283-1.6,2.383,2.383,0,0,0-.786-2.042,3.026,3.026,0,0,0-1.013-.315q-.71.025-1.1,0a5.149,5.149,0,0,0-1.61-.027,2.029,2.029,0,0,0-.857,1.5,6.2,6.2,0,0,0-.341,1.462,2.5,2.5,0,0,0,.559,1.515,2.763,2.763,0,0,0,1.524.408l1.281.138,1.093.062" transform="translate(12.067 106.18)" fill="#fff"/>
            <path id="Trazado_592547" data-name="Trazado 592547" d="M294.835,148.406a14.974,14.974,0,0,0-4.633-.772q-3.025,0-4.183,3.475a15.959,15.959,0,0,0-.708,3.925v.579a9.615,9.615,0,0,0-2.574-2.767,5.558,5.558,0,0,0-3.024-.772q-2.766,0-5.534,3.861-2.38,3.411-2.381,5.47a2.461,2.461,0,0,0,1.544,2.51,18.785,18.785,0,0,0,5.534.515q5.405,0,7.336-3.217h.322q-.322,4.956.708,7.464,2.06,5.276,9.266,5.277a7.736,7.736,0,0,0,5.6-2.252l.45-.45a10.66,10.66,0,0,0,3.089,5.6,10.15,10.15,0,0,0,7.529,3.539q5.984,0,7.979-3.282a15.023,15.023,0,0,0,1.544-4.955,20.573,20.573,0,0,1,.579,2.51,19.214,19.214,0,0,0,1.609,4.5q3.345,6.241,11.068,6.242a10.968,10.968,0,0,0,8.816-4.44,14.263,14.263,0,0,0,2.638-5.019,4.748,4.748,0,0,0,.837.515,6.993,6.993,0,0,0,3.282.708q2.187,0,3.925-2.9a13.581,13.581,0,0,0,1.094-1.995,16.077,16.077,0,0,0,2.381,4.569q3.025,4.118,7.014,4.118,5.276,0,9.009-6.564a26.867,26.867,0,0,0,2.317-5.083,4.883,4.883,0,0,0,.45.515,9.328,9.328,0,0,0,7.078,3.41,4.891,4.891,0,0,0,4.183-2.316q.9-1.288,2.638-4.247l.129-.064a5.431,5.431,0,0,0,.965,2.574,5.232,5.232,0,0,0,4.569,2.188q2.7,0,5.534-3.861A12.314,12.314,0,0,0,405,163.464l.643.064a7.244,7.244,0,0,0,2.638-.45,2.467,2.467,0,0,0,1.866-2.381,2.769,2.769,0,0,0-.515-1.866,3.523,3.523,0,0,0-2.638-.772,5.647,5.647,0,0,0-3.024.579,7.992,7.992,0,0,1-1.094,1.223V159.8a13.606,13.606,0,0,0-.708-2.9q-.9-2.317-2.51-2.317a3.628,3.628,0,0,0-2.317.965,4.533,4.533,0,0,0-1.351,1.931,6.766,6.766,0,0,0-1.737-2.96,6.642,6.642,0,0,0-5.084-2.445q-2.832,0-6.049,3.217a46.286,46.286,0,0,0-.451-6.242q-.965-5.791-7.207-5.791a10.412,10.412,0,0,0-6.821,2.574,10.693,10.693,0,0,0-1.673,1.8,39.96,39.96,0,0,0-1.673-5.47q-2.7-6.886-7.014-6.885a12.323,12.323,0,0,0-10.167,5.019,13.371,13.371,0,0,0-2.831,5.534q-7.764-7.515-15.894.322a20.194,20.194,0,0,0-5.405-7.207q-4.826-4.247-9.91-4.247-6.564,0-12.934,6.628a19.725,19.725,0,0,0-5.084,7.593,6.129,6.129,0,0,0-1.223-.515m119.109,9.331a2.931,2.931,0,0,0-1.351.965,2.343,2.343,0,0,0-.386,1.48,2.633,2.633,0,0,0,.579,1.48,2.36,2.36,0,0,0,1.351.837,2.6,2.6,0,0,0,.965-.064,2.3,2.3,0,0,0,1.351-.772,2.633,2.633,0,0,0,.579-1.48,2.479,2.479,0,0,0-.322-1.351,2.257,2.257,0,0,0-1.223-.965,1.979,1.979,0,0,0-1.544-.129" transform="translate(77.998 38.655)" fill="#fff"/>
          </g>
        </g>
      </g>
    </g>
    <path id="Trazado_705073" data-name="Trazado 705073" d="M6.781,8.4H2.468v3.527H7.479V13H1.155V3.047H7.41V4.12H2.468V7.326H6.781ZM10.288,13H9.023V2.5h1.265Zm5.093.137a3.232,3.232,0,0,1-2.447-.988,3.666,3.666,0,0,1-.943-2.642V9.274a4.438,4.438,0,0,1,.42-1.965,3.28,3.28,0,0,1,1.176-1.354,2.956,2.956,0,0,1,1.637-.489,2.77,2.77,0,0,1,2.242.95,4.114,4.114,0,0,1,.8,2.721v.526H13.255a2.629,2.629,0,0,0,.639,1.767,2.009,2.009,0,0,0,1.555.673,2.2,2.2,0,0,0,1.135-.273,2.851,2.851,0,0,0,.813-.725l.772.6A3.106,3.106,0,0,1,15.381,13.137Zm-.157-6.631a1.687,1.687,0,0,0-1.285.557A2.708,2.708,0,0,0,13.3,8.625H17v-.1a2.409,2.409,0,0,0-.52-1.494A1.588,1.588,0,0,0,15.224,6.506ZM22.7,12.1a1.822,1.822,0,0,0,1.183-.41,1.443,1.443,0,0,0,.561-1.025h1.2a2.293,2.293,0,0,1-.437,1.21,2.881,2.881,0,0,1-1.077.916,3.107,3.107,0,0,1-1.425.342,3.047,3.047,0,0,1-2.4-1.008A4.016,4.016,0,0,1,19.4,9.37V9.158a4.453,4.453,0,0,1,.4-1.921,3.02,3.02,0,0,1,1.138-1.306,3.233,3.233,0,0,1,1.753-.465,2.966,2.966,0,0,1,2.068.745,2.663,2.663,0,0,1,.878,1.935h-1.2A1.743,1.743,0,0,0,23.9,6.967a1.691,1.691,0,0,0-1.207-.461,1.77,1.77,0,0,0-1.494.694,3.259,3.259,0,0,0-.53,2.006v.239a3.194,3.194,0,0,0,.526,1.969A1.779,1.779,0,0,0,22.7,12.1Zm6.077-8.292V5.6h1.381v.978H28.772v4.593a1.027,1.027,0,0,0,.185.667.777.777,0,0,0,.629.222,3.062,3.062,0,0,0,.6-.082V13a3.688,3.688,0,0,1-.971.136,1.575,1.575,0,0,1-1.278-.513,2.2,2.2,0,0,1-.431-1.456V6.581H26.161V5.6h1.347V3.813Zm6.433,2.926a3.79,3.79,0,0,0-.622-.048,1.667,1.667,0,0,0-1.688,1.06V13H31.63V5.6h1.23l.021.854a1.969,1.969,0,0,1,1.764-.991,1.292,1.292,0,0,1,.561.1ZM37.741,13H36.477V5.6h1.265ZM36.374,3.642a.755.755,0,0,1,.188-.52.706.706,0,0,1,.557-.212.717.717,0,0,1,.561.212.747.747,0,0,1,.191.52.722.722,0,0,1-.191.513.73.73,0,0,1-.561.205.718.718,0,0,1-.557-.205A.73.73,0,0,1,36.374,3.642ZM42.731,12.1a1.822,1.822,0,0,0,1.183-.41,1.443,1.443,0,0,0,.561-1.025h1.2a2.293,2.293,0,0,1-.437,1.21,2.881,2.881,0,0,1-1.077.916,3.107,3.107,0,0,1-1.425.342,3.047,3.047,0,0,1-2.4-1.008,4.016,4.016,0,0,1-.892-2.758V9.158a4.453,4.453,0,0,1,.4-1.921,3.02,3.02,0,0,1,1.138-1.306,3.233,3.233,0,0,1,1.753-.465,2.966,2.966,0,0,1,2.068.745,2.663,2.663,0,0,1,.878,1.935h-1.2a1.743,1.743,0,0,0-.543-1.179,1.691,1.691,0,0,0-1.207-.461,1.77,1.77,0,0,0-1.494.694,3.259,3.259,0,0,0-.53,2.006v.239a3.194,3.194,0,0,0,.526,1.969A1.779,1.779,0,0,0,42.731,12.1Zm5.735.9H47.2V5.6h1.265ZM47.1,3.642a.755.755,0,0,1,.188-.52.706.706,0,0,1,.557-.212.717.717,0,0,1,.561.212.747.747,0,0,1,.191.52.722.722,0,0,1-.191.513.73.73,0,0,1-.561.205.718.718,0,0,1-.557-.205A.73.73,0,0,1,47.1,3.642Zm3.083,5.6A4.333,4.333,0,0,1,50.989,6.5a2.745,2.745,0,0,1,4.17-.147V2.5h1.265V13H55.262l-.062-.793a2.575,2.575,0,0,1-2.112.93,2.526,2.526,0,0,1-2.1-1.053,4.382,4.382,0,0,1-.81-2.748Zm1.265.144a3.281,3.281,0,0,0,.52,1.969,1.68,1.68,0,0,0,1.436.711,1.845,1.845,0,0,0,1.757-1.08v-3.4A1.859,1.859,0,0,0,53.416,6.54a1.687,1.687,0,0,0-1.449.718A3.612,3.612,0,0,0,51.447,9.384ZM62.952,13a2.657,2.657,0,0,1-.178-.779,2.822,2.822,0,0,1-2.105.916,2.611,2.611,0,0,1-1.794-.619,2,2,0,0,1-.7-1.569,2.091,2.091,0,0,1,.878-1.794,4.142,4.142,0,0,1,2.471-.639h1.23V7.935a1.42,1.42,0,0,0-.4-1.056,1.593,1.593,0,0,0-1.169-.393,1.844,1.844,0,0,0-1.135.342,1.007,1.007,0,0,0-.458.827H58.324a1.745,1.745,0,0,1,.393-1.07,2.683,2.683,0,0,1,1.066-.817,3.588,3.588,0,0,1,1.48-.3,2.924,2.924,0,0,1,2,.639,2.306,2.306,0,0,1,.752,1.76v3.4a4.162,4.162,0,0,0,.26,1.62V13Zm-2.1-.964a2.223,2.223,0,0,0,1.128-.308,1.861,1.861,0,0,0,.772-.8V9.411h-.991q-2.324,0-2.324,1.36a1.151,1.151,0,0,0,.4.93A1.524,1.524,0,0,0,60.854,12.036Zm4.84-2.8A4.333,4.333,0,0,1,66.5,6.5a2.745,2.745,0,0,1,4.17-.147V2.5h1.265V13H70.772l-.062-.793a2.575,2.575,0,0,1-2.112.93,2.526,2.526,0,0,1-2.1-1.053,4.382,4.382,0,0,1-.81-2.748Zm1.265.144a3.281,3.281,0,0,0,.52,1.969,1.68,1.68,0,0,0,1.436.711,1.845,1.845,0,0,0,1.757-1.08v-3.4A1.859,1.859,0,0,0,68.927,6.54a1.687,1.687,0,0,0-1.449.718A3.612,3.612,0,0,0,66.958,9.384Zm10.138.943a2.334,2.334,0,0,1,.4-1.319,6.094,6.094,0,0,1,1.528-1.4,6.6,6.6,0,0,1-.889-1.3,2.331,2.331,0,0,1-.226-.978,2.346,2.346,0,0,1,.67-1.777A2.517,2.517,0,0,1,80.4,2.91a2.45,2.45,0,0,1,1.7.6,1.934,1.934,0,0,1,.67,1.507,2.127,2.127,0,0,1-.3,1.111A3.953,3.953,0,0,1,81.4,7.2l-.731.54,2.215,2.646a4.2,4.2,0,0,0,.465-1.976h1.142a4.766,4.766,0,0,1-.841,2.892L85.066,13H83.549l-.663-.786A3.465,3.465,0,0,1,81.7,12.9a4.2,4.2,0,0,1-1.384.236,3.42,3.42,0,0,1-2.338-.772A2.576,2.576,0,0,1,77.1,10.327Zm3.22,1.777a2.662,2.662,0,0,0,1.839-.766L79.728,8.434,79.5,8.6a2.276,2.276,0,0,0-1.142,1.729,1.679,1.679,0,0,0,.523,1.292A2.023,2.023,0,0,0,80.315,12.1ZM79.174,5.289A2.871,2.871,0,0,0,79.98,6.93l.807-.567a2.146,2.146,0,0,0,.636-.625,1.425,1.425,0,0,0,.171-.721.978.978,0,0,0-.342-.762,1.248,1.248,0,0,0-.861-.3,1.115,1.115,0,0,0-.889.379A1.416,1.416,0,0,0,79.174,5.289ZM7.205,27.384A4.429,4.429,0,0,1,6.433,30.1a2.476,2.476,0,0,1-2.092,1.032,2.713,2.713,0,0,1-2.119-.854v3.562H.957V23.6H2.112l.062.82a2.605,2.605,0,0,1,2.146-.957,2.522,2.522,0,0,1,2.109,1,4.477,4.477,0,0,1,.776,2.8ZM5.94,27.24a3.268,3.268,0,0,0-.533-1.976,1.718,1.718,0,0,0-1.463-.725,1.859,1.859,0,0,0-1.723,1.019v3.534A1.863,1.863,0,0,0,3.958,30.1,1.71,1.71,0,0,0,5.4,29.383,3.567,3.567,0,0,0,5.94,27.24Zm6.446-2.5a3.79,3.79,0,0,0-.622-.048,1.667,1.667,0,0,0-1.688,1.06V31H8.812V23.6h1.23l.021.854a1.969,1.969,0,0,1,1.764-.991,1.292,1.292,0,0,1,.561.1Zm.69,2.5a4.369,4.369,0,0,1,.427-1.955,3.187,3.187,0,0,1,1.189-1.34,3.238,3.238,0,0,1,1.74-.472,3.119,3.119,0,0,1,2.444,1.046,4.024,4.024,0,0,1,.933,2.782v.089a4.407,4.407,0,0,1-.414,1.938,3.14,3.14,0,0,1-1.183,1.336,3.275,3.275,0,0,1-1.767.479,3.111,3.111,0,0,1-2.437-1.046,4,4,0,0,1-.933-2.769Zm1.271.15a3.164,3.164,0,0,0,.571,1.976,1.934,1.934,0,0,0,3.059-.01,3.46,3.46,0,0,0,.567-2.116,3.159,3.159,0,0,0-.578-1.972,1.836,1.836,0,0,0-1.535-.755,1.816,1.816,0,0,0-1.511.745A3.434,3.434,0,0,0,14.349,27.384Zm6.74-.144A4.333,4.333,0,0,1,21.9,24.5a2.745,2.745,0,0,1,4.17-.147V20.5H27.33V31H26.168l-.062-.793a2.575,2.575,0,0,1-2.112.93,2.526,2.526,0,0,1-2.1-1.053,4.382,4.382,0,0,1-.81-2.748Zm1.265.144a3.281,3.281,0,0,0,.52,1.969,1.68,1.68,0,0,0,1.436.711,1.845,1.845,0,0,0,1.757-1.08v-3.4a1.859,1.859,0,0,0-1.743-1.046,1.687,1.687,0,0,0-1.449.718A3.612,3.612,0,0,0,22.354,27.384Zm11.5,2.885a2.686,2.686,0,0,1-2.167.868,2.3,2.3,0,0,1-1.8-.687,2.974,2.974,0,0,1-.625-2.034V23.6h1.265v4.778q0,1.682,1.367,1.682a1.893,1.893,0,0,0,1.928-1.08V23.6h1.265V31h-1.2Zm6.118-.164a1.822,1.822,0,0,0,1.183-.41,1.443,1.443,0,0,0,.561-1.025h1.2a2.293,2.293,0,0,1-.437,1.21,2.881,2.881,0,0,1-1.077.916,3.107,3.107,0,0,1-1.425.342,3.047,3.047,0,0,1-2.4-1.008,4.016,4.016,0,0,1-.892-2.758v-.212a4.453,4.453,0,0,1,.4-1.921,3.02,3.02,0,0,1,1.138-1.306,3.233,3.233,0,0,1,1.753-.465,2.966,2.966,0,0,1,2.068.745,2.663,2.663,0,0,1,.878,1.935h-1.2a1.743,1.743,0,0,0-.543-1.179,1.691,1.691,0,0,0-1.207-.461,1.77,1.77,0,0,0-1.494.694,3.259,3.259,0,0,0-.53,2.006v.239a3.194,3.194,0,0,0,.526,1.969A1.779,1.779,0,0,0,39.977,30.1Zm7.328,0a1.822,1.822,0,0,0,1.183-.41,1.443,1.443,0,0,0,.561-1.025h1.2a2.293,2.293,0,0,1-.437,1.21,2.881,2.881,0,0,1-1.077.916,3.107,3.107,0,0,1-1.425.342,3.047,3.047,0,0,1-2.4-1.008,4.016,4.016,0,0,1-.892-2.758v-.212a4.453,4.453,0,0,1,.4-1.921,3.02,3.02,0,0,1,1.138-1.306,3.233,3.233,0,0,1,1.753-.465,2.966,2.966,0,0,1,2.068.745,2.663,2.663,0,0,1,.878,1.935h-1.2a1.743,1.743,0,0,0-.543-1.179,1.691,1.691,0,0,0-1.207-.461A1.77,1.77,0,0,0,45.8,25.2a3.259,3.259,0,0,0-.53,2.006v.239a3.194,3.194,0,0,0,.526,1.969A1.779,1.779,0,0,0,47.3,30.1Zm5.735.9H51.775V23.6H53.04Zm-1.367-9.358a.755.755,0,0,1,.188-.52.706.706,0,0,1,.557-.212.717.717,0,0,1,.561.212.747.747,0,0,1,.191.52.722.722,0,0,1-.191.513.73.73,0,0,1-.561.205.718.718,0,0,1-.557-.205A.73.73,0,0,1,51.673,21.642Zm3.056,5.592a4.369,4.369,0,0,1,.427-1.955,3.187,3.187,0,0,1,1.189-1.34,3.238,3.238,0,0,1,1.74-.472,3.119,3.119,0,0,1,2.444,1.046,4.024,4.024,0,0,1,.933,2.782v.089a4.407,4.407,0,0,1-.414,1.938,3.14,3.14,0,0,1-1.183,1.336,3.275,3.275,0,0,1-1.767.479,3.111,3.111,0,0,1-2.437-1.046,4,4,0,0,1-.933-2.769Zm1.271.15a3.164,3.164,0,0,0,.571,1.976,1.934,1.934,0,0,0,3.059-.01,3.46,3.46,0,0,0,.567-2.116,3.159,3.159,0,0,0-.578-1.972,1.836,1.836,0,0,0-1.535-.755,1.816,1.816,0,0,0-1.511.745A3.434,3.434,0,0,0,56,27.384ZM58.659,20.5H60.19l-1.832,2.01-1.019,0Zm5.585,3.1.041.93A2.7,2.7,0,0,1,66.5,23.467q2.345,0,2.365,2.646V31H67.6V26.105a1.7,1.7,0,0,0-.366-1.183,1.466,1.466,0,0,0-1.118-.383,1.825,1.825,0,0,0-1.08.328,2.228,2.228,0,0,0-.725.861V31H63.048V23.6Zm9.687,3.637a4.333,4.333,0,0,1,.807-2.738,2.745,2.745,0,0,1,4.17-.147V20.5h1.265V31H79.01l-.062-.793a2.575,2.575,0,0,1-2.112.93,2.526,2.526,0,0,1-2.1-1.053,4.382,4.382,0,0,1-.81-2.748Zm1.265.144a3.281,3.281,0,0,0,.52,1.969,1.68,1.68,0,0,0,1.436.711,1.845,1.845,0,0,0,1.757-1.08v-3.4a1.859,1.859,0,0,0-1.743-1.046,1.687,1.687,0,0,0-1.449.718A3.612,3.612,0,0,0,75.2,27.384ZM85.2,31.137a3.232,3.232,0,0,1-2.447-.988,3.666,3.666,0,0,1-.943-2.642v-.232a4.438,4.438,0,0,1,.42-1.965,3.28,3.28,0,0,1,1.176-1.354,2.956,2.956,0,0,1,1.637-.489,2.77,2.77,0,0,1,2.242.95,4.114,4.114,0,0,1,.8,2.721v.526H83.077a2.629,2.629,0,0,0,.639,1.767,2.009,2.009,0,0,0,1.555.673,2.2,2.2,0,0,0,1.135-.273,2.851,2.851,0,0,0,.813-.725l.772.6A3.106,3.106,0,0,1,85.2,31.137Zm-.157-6.631a1.687,1.687,0,0,0-1.285.557,2.708,2.708,0,0,0-.643,1.562h3.705v-.1a2.409,2.409,0,0,0-.52-1.494A1.588,1.588,0,0,0,85.046,24.506Zm10.938,5.6a1.822,1.822,0,0,0,1.183-.41,1.443,1.443,0,0,0,.561-1.025h1.2a2.293,2.293,0,0,1-.437,1.21,2.882,2.882,0,0,1-1.077.916,3.107,3.107,0,0,1-1.425.342,3.047,3.047,0,0,1-2.4-1.008,4.016,4.016,0,0,1-.892-2.758v-.212a4.453,4.453,0,0,1,.4-1.921,3.02,3.02,0,0,1,1.138-1.306,3.233,3.233,0,0,1,1.753-.465,2.966,2.966,0,0,1,2.068.745,2.663,2.663,0,0,1,.878,1.935h-1.2a1.743,1.743,0,0,0-.543-1.179,1.691,1.691,0,0,0-1.207-.461,1.77,1.77,0,0,0-1.494.694,3.259,3.259,0,0,0-.53,2.006v.239a3.194,3.194,0,0,0,.526,1.969A1.779,1.779,0,0,0,95.983,30.1Zm8.928.9a2.657,2.657,0,0,1-.178-.779,2.822,2.822,0,0,1-2.105.916,2.611,2.611,0,0,1-1.794-.619,2,2,0,0,1-.7-1.569,2.091,2.091,0,0,1,.878-1.794,4.141,4.141,0,0,1,2.471-.639h1.23v-.581a1.42,1.42,0,0,0-.4-1.056,1.593,1.593,0,0,0-1.169-.393,1.844,1.844,0,0,0-1.135.342,1.007,1.007,0,0,0-.458.827h-1.271a1.745,1.745,0,0,1,.393-1.07,2.683,2.683,0,0,1,1.066-.817,3.588,3.588,0,0,1,1.48-.3,2.924,2.924,0,0,1,2,.639,2.306,2.306,0,0,1,.752,1.76v3.4a4.162,4.162,0,0,0,.26,1.62V31Zm-2.1-.964a2.223,2.223,0,0,0,1.128-.308,1.861,1.861,0,0,0,.772-.8V27.411h-.991q-2.324,0-2.324,1.36a1.151,1.151,0,0,0,.4.93A1.524,1.524,0,0,0,102.813,30.036Zm6.521.964h-1.265V20.5h1.265Zm1.688-3.767a4.369,4.369,0,0,1,.427-1.955,3.187,3.187,0,0,1,1.189-1.34,3.238,3.238,0,0,1,1.74-.472,3.119,3.119,0,0,1,2.444,1.046,4.024,4.024,0,0,1,.933,2.782v.089a4.407,4.407,0,0,1-.414,1.938,3.14,3.14,0,0,1-1.183,1.336,3.275,3.275,0,0,1-1.767.479,3.111,3.111,0,0,1-2.437-1.046,4,4,0,0,1-.933-2.769Zm1.271.15a3.164,3.164,0,0,0,.571,1.976,1.934,1.934,0,0,0,3.059-.01,3.46,3.46,0,0,0,.567-2.116,3.159,3.159,0,0,0-.578-1.972,1.836,1.836,0,0,0-1.535-.755,1.816,1.816,0,0,0-1.511.745A3.434,3.434,0,0,0,112.294,27.384Zm10.623-2.646a3.79,3.79,0,0,0-.622-.048,1.667,1.667,0,0,0-1.688,1.06V31h-1.265V23.6h1.23l.021.854a1.969,1.969,0,0,1,1.764-.991,1.292,1.292,0,0,1,.561.1Z" transform="translate(1086.486 620.209)" fill="#fff"/>
    <path id="Trazado_705074" data-name="Trazado 705074" d="M6.651,10.4H2.481L1.545,13H.191l3.8-9.953H5.141L8.948,13H7.6ZM2.878,9.322H6.262l-1.7-4.655ZM9.789,9.24a4.347,4.347,0,0,1,.8-2.751,2.558,2.558,0,0,1,2.119-1.022,2.544,2.544,0,0,1,2.112.957l.062-.82h1.155v7.219a3.009,3.009,0,0,1-.851,2.263,3.141,3.141,0,0,1-2.287.827,3.8,3.8,0,0,1-1.565-.342,2.7,2.7,0,0,1-1.169-.937l.656-.759a2.473,2.473,0,0,0,1.989,1,1.938,1.938,0,0,0,1.439-.52,1.986,1.986,0,0,0,.516-1.463v-.636a2.6,2.6,0,0,1-2.071.875,2.527,2.527,0,0,1-2.1-1.046A4.571,4.571,0,0,1,9.789,9.24Zm1.271.144a3.316,3.316,0,0,0,.513,1.965,1.666,1.666,0,0,0,1.436.714,1.852,1.852,0,0,0,1.757-1.087V7.6a1.874,1.874,0,0,0-1.743-1.06,1.681,1.681,0,0,0-1.442.718A3.612,3.612,0,0,0,11.061,9.384ZM21.52,6.738A3.79,3.79,0,0,0,20.9,6.69a1.667,1.667,0,0,0-1.688,1.06V13H17.944V5.6h1.23l.021.854a1.969,1.969,0,0,1,1.764-.991,1.292,1.292,0,0,1,.561.1ZM24.056,13H22.791V5.6h1.265ZM22.688,3.642a.755.755,0,0,1,.188-.52.706.706,0,0,1,.557-.212.717.717,0,0,1,.561.212.747.747,0,0,1,.191.52.722.722,0,0,1-.191.513.73.73,0,0,1-.561.205.718.718,0,0,1-.557-.205A.73.73,0,0,1,22.688,3.642ZM29.046,12.1a1.822,1.822,0,0,0,1.183-.41,1.443,1.443,0,0,0,.561-1.025h1.2a2.293,2.293,0,0,1-.437,1.21,2.881,2.881,0,0,1-1.077.916,3.107,3.107,0,0,1-1.425.342,3.047,3.047,0,0,1-2.4-1.008,4.016,4.016,0,0,1-.892-2.758V9.158a4.453,4.453,0,0,1,.4-1.921,3.02,3.02,0,0,1,1.138-1.306,3.233,3.233,0,0,1,1.753-.465,2.966,2.966,0,0,1,2.068.745,2.663,2.663,0,0,1,.878,1.935h-1.2a1.743,1.743,0,0,0-.543-1.179,1.691,1.691,0,0,0-1.207-.461,1.77,1.77,0,0,0-1.494.694,3.259,3.259,0,0,0-.53,2.006v.239a3.194,3.194,0,0,0,.526,1.969A1.779,1.779,0,0,0,29.046,12.1Zm8.928.164a2.686,2.686,0,0,1-2.167.868,2.3,2.3,0,0,1-1.8-.687,2.974,2.974,0,0,1-.625-2.034V5.6h1.265v4.778q0,1.682,1.367,1.682a1.893,1.893,0,0,0,1.928-1.08V5.6H39.2V13H38ZM42.5,13H41.234V2.5H42.5Zm3.739-9.187V5.6h1.381v.978H46.238v4.593a1.027,1.027,0,0,0,.185.667.777.777,0,0,0,.629.222,3.062,3.062,0,0,0,.6-.082V13a3.688,3.688,0,0,1-.971.136,1.575,1.575,0,0,1-1.278-.513,2.2,2.2,0,0,1-.431-1.456V6.581H43.627V5.6h1.347V3.813Zm7.424,8.456a2.686,2.686,0,0,1-2.167.868,2.3,2.3,0,0,1-1.8-.687,2.974,2.974,0,0,1-.625-2.034V5.6h1.265v4.778q0,1.682,1.367,1.682a1.893,1.893,0,0,0,1.928-1.08V5.6h1.265V13h-1.2Zm6.727-5.53a3.79,3.79,0,0,0-.622-.048,1.667,1.667,0,0,0-1.688,1.06V13H56.813V5.6h1.23l.021.854a1.969,1.969,0,0,1,1.764-.991,1.292,1.292,0,0,1,.561.1ZM65.844,13a2.657,2.657,0,0,1-.178-.779,2.822,2.822,0,0,1-2.105.916,2.611,2.611,0,0,1-1.794-.619,2,2,0,0,1-.7-1.569,2.091,2.091,0,0,1,.878-1.794,4.142,4.142,0,0,1,2.471-.639h1.23V7.935a1.42,1.42,0,0,0-.4-1.056,1.593,1.593,0,0,0-1.169-.393,1.844,1.844,0,0,0-1.135.342,1.007,1.007,0,0,0-.458.827H61.216a1.745,1.745,0,0,1,.393-1.07,2.683,2.683,0,0,1,1.066-.817,3.588,3.588,0,0,1,1.48-.3,2.924,2.924,0,0,1,2,.639,2.306,2.306,0,0,1,.752,1.76v3.4a4.162,4.162,0,0,0,.26,1.62V13Zm-2.1-.964a2.223,2.223,0,0,0,1.128-.308,1.861,1.861,0,0,0,.772-.8V9.411h-.991q-2.324,0-2.324,1.36a1.151,1.151,0,0,0,.4.93A1.524,1.524,0,0,0,63.745,12.036Zm8.347-1.709a2.334,2.334,0,0,1,.4-1.319,6.094,6.094,0,0,1,1.528-1.4,6.6,6.6,0,0,1-.889-1.3,2.331,2.331,0,0,1-.226-.978,2.346,2.346,0,0,1,.67-1.777,2.517,2.517,0,0,1,1.818-.643,2.45,2.45,0,0,1,1.7.6,1.934,1.934,0,0,1,.67,1.507,2.127,2.127,0,0,1-.3,1.111A3.953,3.953,0,0,1,76.392,7.2l-.731.54,2.215,2.646a4.2,4.2,0,0,0,.465-1.976h1.142a4.766,4.766,0,0,1-.841,2.892L80.063,13H78.545l-.663-.786A3.465,3.465,0,0,1,76.7,12.9a4.2,4.2,0,0,1-1.384.236,3.42,3.42,0,0,1-2.338-.772A2.576,2.576,0,0,1,72.092,10.327Zm3.22,1.777a2.662,2.662,0,0,0,1.839-.766L74.724,8.434,74.5,8.6a2.276,2.276,0,0,0-1.142,1.729,1.679,1.679,0,0,0,.523,1.292A2.023,2.023,0,0,0,75.312,12.1ZM74.17,5.289a2.871,2.871,0,0,0,.807,1.641l.807-.567a2.146,2.146,0,0,0,.636-.625,1.425,1.425,0,0,0,.171-.721.978.978,0,0,0-.342-.762,1.248,1.248,0,0,0-.861-.3,1.115,1.115,0,0,0-.889.379A1.416,1.416,0,0,0,74.17,5.289ZM84.191,9.233a4.369,4.369,0,0,1,.427-1.955,3.187,3.187,0,0,1,1.189-1.34,3.238,3.238,0,0,1,1.74-.472,3.119,3.119,0,0,1,2.444,1.046,4.024,4.024,0,0,1,.933,2.782v.089a4.407,4.407,0,0,1-.414,1.938,3.14,3.14,0,0,1-1.183,1.336,3.275,3.275,0,0,1-1.767.479,3.111,3.111,0,0,1-2.437-1.046,4,4,0,0,1-.933-2.769Zm1.271.15a3.164,3.164,0,0,0,.571,1.976,1.934,1.934,0,0,0,3.059-.01,3.46,3.46,0,0,0,.567-2.116,3.159,3.159,0,0,0-.578-1.972,1.836,1.836,0,0,0-1.535-.755,1.816,1.816,0,0,0-1.511.745A3.435,3.435,0,0,0,85.463,9.384Zm8.764-5.571V5.6h1.381v.978H94.227v4.593a1.027,1.027,0,0,0,.185.667.777.777,0,0,0,.629.222,3.062,3.062,0,0,0,.6-.082V13a3.688,3.688,0,0,1-.971.136,1.575,1.575,0,0,1-1.278-.513,2.2,2.2,0,0,1-.431-1.456V6.581H91.615V5.6h1.347V3.813Zm6.433,2.926a3.79,3.79,0,0,0-.622-.048,1.667,1.667,0,0,0-1.688,1.06V13H97.084V5.6h1.23l.021.854a1.969,1.969,0,0,1,1.764-.991,1.292,1.292,0,0,1,.561.1Zm.69,2.5a4.369,4.369,0,0,1,.427-1.955,3.187,3.187,0,0,1,1.189-1.34,3.238,3.238,0,0,1,1.74-.472,3.119,3.119,0,0,1,2.444,1.046,4.024,4.024,0,0,1,.933,2.782v.089a4.407,4.407,0,0,1-.414,1.938,3.14,3.14,0,0,1-1.183,1.336,3.275,3.275,0,0,1-1.767.479,3.111,3.111,0,0,1-2.437-1.046,4,4,0,0,1-.933-2.769Zm1.271.15a3.164,3.164,0,0,0,.571,1.976,1.934,1.934,0,0,0,3.059-.01,3.46,3.46,0,0,0,.567-2.116,3.159,3.159,0,0,0-.578-1.972,1.836,1.836,0,0,0-1.535-.755,1.816,1.816,0,0,0-1.511.745A3.435,3.435,0,0,0,102.621,9.384Zm11.354,1.654a.931.931,0,0,0-.386-.8,3.718,3.718,0,0,0-1.347-.489,6.367,6.367,0,0,1-1.524-.492,2.169,2.169,0,0,1-.834-.684,1.635,1.635,0,0,1-.27-.943,1.919,1.919,0,0,1,.769-1.538,3,3,0,0,1,1.965-.629,3.091,3.091,0,0,1,2.041.649,2.063,2.063,0,0,1,.783,1.661H113.9a1.142,1.142,0,0,0-.441-.9,1.652,1.652,0,0,0-1.111-.376,1.729,1.729,0,0,0-1.08.3.947.947,0,0,0-.39.786.767.767,0,0,0,.362.69,4.458,4.458,0,0,0,1.309.444,6.821,6.821,0,0,1,1.535.506,2.239,2.239,0,0,1,.872.708,1.74,1.74,0,0,1,.284,1.008,1.893,1.893,0,0,1-.793,1.589,3.326,3.326,0,0,1-2.058.6,3.725,3.725,0,0,1-1.572-.314,2.557,2.557,0,0,1-1.07-.878,2.117,2.117,0,0,1-.386-1.22h1.265a1.309,1.309,0,0,0,.509,1.008,1.976,1.976,0,0,0,1.254.373,2.039,2.039,0,0,0,1.152-.291A.893.893,0,0,0,113.976,11.038ZM5.523,30.269a2.686,2.686,0,0,1-2.167.868,2.3,2.3,0,0,1-1.8-.687A2.974,2.974,0,0,1,.93,28.416V23.6H2.194v4.778q0,1.682,1.367,1.682a1.893,1.893,0,0,0,1.928-1.08V23.6H6.754V31h-1.2Zm7.458-1.23a.931.931,0,0,0-.386-.8,3.718,3.718,0,0,0-1.347-.489,6.367,6.367,0,0,1-1.524-.492,2.169,2.169,0,0,1-.834-.684,1.635,1.635,0,0,1-.27-.943A1.919,1.919,0,0,1,9.389,24.1a3,3,0,0,1,1.965-.629,3.091,3.091,0,0,1,2.041.649,2.063,2.063,0,0,1,.783,1.661H12.906a1.142,1.142,0,0,0-.441-.9,1.652,1.652,0,0,0-1.111-.376,1.729,1.729,0,0,0-1.08.3.947.947,0,0,0-.39.786.767.767,0,0,0,.362.69,4.458,4.458,0,0,0,1.309.444,6.821,6.821,0,0,1,1.535.506,2.239,2.239,0,0,1,.872.708,1.74,1.74,0,0,1,.284,1.008,1.893,1.893,0,0,1-.793,1.589,3.326,3.326,0,0,1-2.058.6,3.725,3.725,0,0,1-1.572-.314,2.557,2.557,0,0,1-1.07-.878,2.117,2.117,0,0,1-.386-1.22H9.632a1.309,1.309,0,0,0,.509,1.008A1.976,1.976,0,0,0,11.4,30.1a2.039,2.039,0,0,0,1.152-.291A.893.893,0,0,0,12.981,29.038Zm2.577-1.8a4.369,4.369,0,0,1,.427-1.955,3.187,3.187,0,0,1,1.189-1.34,3.238,3.238,0,0,1,1.74-.472,3.119,3.119,0,0,1,2.444,1.046,4.024,4.024,0,0,1,.933,2.782v.089a4.407,4.407,0,0,1-.414,1.938A3.14,3.14,0,0,1,20.7,30.658a3.275,3.275,0,0,1-1.767.479,3.111,3.111,0,0,1-2.437-1.046,4,4,0,0,1-.933-2.769Zm1.271.15a3.164,3.164,0,0,0,.571,1.976,1.934,1.934,0,0,0,3.059-.01,3.46,3.46,0,0,0,.567-2.116,3.159,3.159,0,0,0-.578-1.972,1.836,1.836,0,0,0-1.535-.755,1.816,1.816,0,0,0-1.511.745A3.434,3.434,0,0,0,16.83,27.384Zm11.354,1.654a.931.931,0,0,0-.386-.8,3.718,3.718,0,0,0-1.347-.489,6.367,6.367,0,0,1-1.524-.492,2.169,2.169,0,0,1-.834-.684,1.635,1.635,0,0,1-.27-.943,1.919,1.919,0,0,1,.769-1.538,3,3,0,0,1,1.965-.629,3.091,3.091,0,0,1,2.041.649,2.063,2.063,0,0,1,.783,1.661H28.109a1.142,1.142,0,0,0-.441-.9,1.652,1.652,0,0,0-1.111-.376,1.729,1.729,0,0,0-1.08.3.947.947,0,0,0-.39.786.767.767,0,0,0,.362.69,4.458,4.458,0,0,0,1.309.444,6.821,6.821,0,0,1,1.535.506,2.239,2.239,0,0,1,.872.708,1.74,1.74,0,0,1,.284,1.008,1.893,1.893,0,0,1-.793,1.589,3.326,3.326,0,0,1-2.058.6,3.725,3.725,0,0,1-1.572-.314,2.557,2.557,0,0,1-1.07-.878,2.117,2.117,0,0,1-.386-1.22h1.265a1.309,1.309,0,0,0,.509,1.008A1.976,1.976,0,0,0,26.6,30.1a2.039,2.039,0,0,0,1.152-.291A.893.893,0,0,0,28.185,29.038Zm6.07-1.8a4.333,4.333,0,0,1,.807-2.738,2.745,2.745,0,0,1,4.17-.147V20.5H40.5V31H39.334l-.062-.793a2.575,2.575,0,0,1-2.112.93,2.526,2.526,0,0,1-2.1-1.053,4.382,4.382,0,0,1-.81-2.748Zm1.265.144a3.281,3.281,0,0,0,.52,1.969,1.68,1.68,0,0,0,1.436.711,1.845,1.845,0,0,0,1.757-1.08v-3.4a1.859,1.859,0,0,0-1.743-1.046,1.687,1.687,0,0,0-1.449.718A3.612,3.612,0,0,0,35.52,27.384Zm10.008,3.753a3.232,3.232,0,0,1-2.447-.988,3.666,3.666,0,0,1-.943-2.642v-.232a4.438,4.438,0,0,1,.42-1.965,3.279,3.279,0,0,1,1.176-1.354,2.956,2.956,0,0,1,1.637-.489,2.77,2.77,0,0,1,2.242.95,4.114,4.114,0,0,1,.8,2.721v.526H43.4a2.629,2.629,0,0,0,.639,1.767A2.009,2.009,0,0,0,45.6,30.1a2.2,2.2,0,0,0,1.135-.273,2.851,2.851,0,0,0,.813-.725l.772.6A3.106,3.106,0,0,1,45.527,31.137Zm-.157-6.631a1.687,1.687,0,0,0-1.285.557,2.708,2.708,0,0,0-.643,1.562h3.705v-.1a2.409,2.409,0,0,0-.52-1.494A1.588,1.588,0,0,0,45.37,24.506Zm9.687-2.693V23.6h1.381v.978H55.057v4.593a1.027,1.027,0,0,0,.185.667.777.777,0,0,0,.629.222,3.062,3.062,0,0,0,.6-.082V31a3.688,3.688,0,0,1-.971.136,1.575,1.575,0,0,1-1.278-.513,2.2,2.2,0,0,1-.431-1.456V24.581H52.445V23.6h1.347V21.813ZM59.288,31H58.023V23.6h1.265Zm-1.367-9.358a.755.755,0,0,1,.188-.52.706.706,0,0,1,.557-.212.717.717,0,0,1,.561.212.747.747,0,0,1,.191.52.722.722,0,0,1-.191.513.73.73,0,0,1-.561.205.718.718,0,0,1-.557-.205A.73.73,0,0,1,57.921,21.642Zm6.46,9.5a3.232,3.232,0,0,1-2.447-.988,3.666,3.666,0,0,1-.943-2.642v-.232a4.438,4.438,0,0,1,.42-1.965,3.279,3.279,0,0,1,1.176-1.354,2.956,2.956,0,0,1,1.637-.489,2.77,2.77,0,0,1,2.242.95,4.114,4.114,0,0,1,.8,2.721v.526H62.255a2.629,2.629,0,0,0,.639,1.767,2.009,2.009,0,0,0,1.555.673,2.2,2.2,0,0,0,1.135-.273,2.851,2.851,0,0,0,.813-.725l.772.6A3.106,3.106,0,0,1,64.381,31.137Zm-.157-6.631a1.687,1.687,0,0,0-1.285.557,2.708,2.708,0,0,0-.643,1.562H66v-.1a2.409,2.409,0,0,0-.52-1.494A1.588,1.588,0,0,0,64.224,24.506Zm8.08.232a3.79,3.79,0,0,0-.622-.048,1.667,1.667,0,0,0-1.688,1.06V31H68.729V23.6h1.23l.021.854a1.969,1.969,0,0,1,1.764-.991,1.292,1.292,0,0,1,.561.1Zm4.737,0a3.79,3.79,0,0,0-.622-.048,1.667,1.667,0,0,0-1.688,1.06V31H73.466V23.6H74.7l.021.854a1.969,1.969,0,0,1,1.764-.991,1.292,1.292,0,0,1,.561.1ZM82.5,31a2.657,2.657,0,0,1-.178-.779,2.822,2.822,0,0,1-2.105.916,2.611,2.611,0,0,1-1.794-.619,2,2,0,0,1-.7-1.569,2.091,2.091,0,0,1,.878-1.794,4.141,4.141,0,0,1,2.471-.639H82.3v-.581a1.42,1.42,0,0,0-.4-1.056,1.593,1.593,0,0,0-1.169-.393,1.844,1.844,0,0,0-1.135.342,1.007,1.007,0,0,0-.458.827H77.868a1.745,1.745,0,0,1,.393-1.07,2.683,2.683,0,0,1,1.066-.817,3.588,3.588,0,0,1,1.48-.3,2.924,2.924,0,0,1,2,.639,2.306,2.306,0,0,1,.752,1.76v3.4a4.162,4.162,0,0,0,.26,1.62V31Zm-2.1-.964a2.223,2.223,0,0,0,1.128-.308,1.861,1.861,0,0,0,.772-.8V27.411h-.991q-2.324,0-2.324,1.36a1.151,1.151,0,0,0,.4.93A1.524,1.524,0,0,0,80.4,30.036Z" transform="translate(1086.486 696.209)" fill="#fff"/>
    <path id="Trazado_705075" data-name="Trazado 705075" d="M2.563,13H1.251V3.047H2.563Zm3.4-7.4L6,6.533A2.7,2.7,0,0,1,8.217,5.467q2.345,0,2.365,2.646V13H9.317V8.105a1.7,1.7,0,0,0-.366-1.183A1.466,1.466,0,0,0,7.834,6.54a1.825,1.825,0,0,0-1.08.328,2.228,2.228,0,0,0-.725.861V13H4.765V5.6ZM12.182,9.24A4.333,4.333,0,0,1,12.988,6.5,2.551,2.551,0,0,1,15.1,5.467a2.565,2.565,0,0,1,2.058.889V2.5h1.265V13H17.261l-.062-.793a2.575,2.575,0,0,1-2.112.93,2.526,2.526,0,0,1-2.1-1.053,4.382,4.382,0,0,1-.81-2.748Zm1.265.144a3.281,3.281,0,0,0,.52,1.969,1.68,1.68,0,0,0,1.436.711,1.845,1.845,0,0,0,1.757-1.08v-3.4A1.859,1.859,0,0,0,15.415,6.54a1.687,1.687,0,0,0-1.449.718A3.612,3.612,0,0,0,13.446,9.384Zm11.5,2.885a2.686,2.686,0,0,1-2.167.868,2.3,2.3,0,0,1-1.8-.687,2.974,2.974,0,0,1-.625-2.034V5.6h1.265v4.778q0,1.682,1.367,1.682a1.893,1.893,0,0,0,1.928-1.08V5.6h1.265V13h-1.2Zm7.458-1.23a.931.931,0,0,0-.386-.8,3.718,3.718,0,0,0-1.347-.489,6.367,6.367,0,0,1-1.524-.492,2.169,2.169,0,0,1-.834-.684,1.635,1.635,0,0,1-.27-.943A1.919,1.919,0,0,1,28.817,6.1a3,3,0,0,1,1.965-.629,3.091,3.091,0,0,1,2.041.649,2.063,2.063,0,0,1,.783,1.661H32.334a1.142,1.142,0,0,0-.441-.9,1.652,1.652,0,0,0-1.111-.376,1.729,1.729,0,0,0-1.08.3.947.947,0,0,0-.39.786.767.767,0,0,0,.362.69,4.458,4.458,0,0,0,1.309.444,6.821,6.821,0,0,1,1.535.506,2.239,2.239,0,0,1,.872.708,1.74,1.74,0,0,1,.284,1.008,1.893,1.893,0,0,1-.793,1.589,3.326,3.326,0,0,1-2.058.6,3.725,3.725,0,0,1-1.572-.314,2.557,2.557,0,0,1-1.07-.878,2.117,2.117,0,0,1-.386-1.22H29.06a1.309,1.309,0,0,0,.509,1.008,1.976,1.976,0,0,0,1.254.373,2.039,2.039,0,0,0,1.152-.291A.893.893,0,0,0,32.409,11.038Zm4.628-7.226V5.6h1.381v.978H37.037v4.593a1.027,1.027,0,0,0,.185.667.777.777,0,0,0,.629.222,3.062,3.062,0,0,0,.6-.082V13a3.688,3.688,0,0,1-.971.136,1.575,1.575,0,0,1-1.278-.513,2.2,2.2,0,0,1-.431-1.456V6.581H34.426V5.6h1.347V3.813ZM43.47,6.738a3.79,3.79,0,0,0-.622-.048,1.667,1.667,0,0,0-1.688,1.06V13H39.895V5.6h1.23l.021.854a1.969,1.969,0,0,1,1.764-.991,1.292,1.292,0,0,1,.561.1ZM46.006,13H44.741V5.6h1.265ZM44.639,3.642a.755.755,0,0,1,.188-.52.706.706,0,0,1,.557-.212.717.717,0,0,1,.561.212.747.747,0,0,1,.191.52.722.722,0,0,1-.191.513.73.73,0,0,1-.561.205.718.718,0,0,1-.557-.205A.73.73,0,0,1,44.639,3.642ZM52.6,13a2.657,2.657,0,0,1-.178-.779,2.822,2.822,0,0,1-2.105.916,2.611,2.611,0,0,1-1.794-.619,2,2,0,0,1-.7-1.569A2.091,2.091,0,0,1,48.7,9.155a4.142,4.142,0,0,1,2.471-.639H52.4V7.935A1.42,1.42,0,0,0,52,6.878a1.593,1.593,0,0,0-1.169-.393,1.844,1.844,0,0,0-1.135.342,1.007,1.007,0,0,0-.458.827H47.968a1.745,1.745,0,0,1,.393-1.07,2.683,2.683,0,0,1,1.066-.817,3.588,3.588,0,0,1,1.48-.3,2.924,2.924,0,0,1,2,.639,2.306,2.306,0,0,1,.752,1.76v3.4a4.162,4.162,0,0,0,.26,1.62V13Zm-2.1-.964a2.223,2.223,0,0,0,1.128-.308,1.861,1.861,0,0,0,.772-.8V9.411h-.991q-2.324,0-2.324,1.36a1.151,1.151,0,0,0,.4.93A1.524,1.524,0,0,0,50.5,12.036Z" transform="translate(1135.486 784.209)" fill="#fff"/>
    <path id="Trazado_705076" data-name="Trazado 705076" d="M8.032,4.12h-3.2V13H3.527V4.12H.335V3.047h7.7Zm4.341,2.618a3.79,3.79,0,0,0-.622-.048,1.667,1.667,0,0,0-1.688,1.06V13H8.8V5.6h1.23l.021.854a1.969,1.969,0,0,1,1.764-.991,1.292,1.292,0,0,1,.561.1ZM17.828,13a2.657,2.657,0,0,1-.178-.779,2.822,2.822,0,0,1-2.105.916,2.611,2.611,0,0,1-1.794-.619,2,2,0,0,1-.7-1.569,2.091,2.091,0,0,1,.878-1.794A4.142,4.142,0,0,1,16.4,8.516h1.23V7.935a1.42,1.42,0,0,0-.4-1.056,1.593,1.593,0,0,0-1.169-.393,1.844,1.844,0,0,0-1.135.342,1.007,1.007,0,0,0-.458.827H13.2a1.745,1.745,0,0,1,.393-1.07,2.683,2.683,0,0,1,1.066-.817,3.588,3.588,0,0,1,1.48-.3,2.924,2.924,0,0,1,2,.639,2.306,2.306,0,0,1,.752,1.76v3.4a4.162,4.162,0,0,0,.26,1.62V13Zm-2.1-.964a2.223,2.223,0,0,0,1.128-.308,1.861,1.861,0,0,0,.772-.8V9.411h-.991q-2.324,0-2.324,1.36a1.151,1.151,0,0,0,.4.93A1.524,1.524,0,0,0,15.729,12.036ZM22.073,5.6l.041.93a2.7,2.7,0,0,1,2.215-1.066q2.345,0,2.365,2.646V13H25.43V8.105a1.7,1.7,0,0,0-.366-1.183,1.466,1.466,0,0,0-1.118-.383,1.825,1.825,0,0,0-1.08.328,2.228,2.228,0,0,0-.725.861V13H20.877V5.6Zm10.835,5.435a.931.931,0,0,0-.386-.8,3.718,3.718,0,0,0-1.347-.489,6.367,6.367,0,0,1-1.524-.492,2.169,2.169,0,0,1-.834-.684,1.635,1.635,0,0,1-.27-.943A1.919,1.919,0,0,1,29.316,6.1a3,3,0,0,1,1.965-.629,3.091,3.091,0,0,1,2.041.649A2.063,2.063,0,0,1,34.1,7.777H32.833a1.142,1.142,0,0,0-.441-.9,1.652,1.652,0,0,0-1.111-.376,1.729,1.729,0,0,0-1.08.3.947.947,0,0,0-.39.786.767.767,0,0,0,.362.69,4.458,4.458,0,0,0,1.309.444,6.821,6.821,0,0,1,1.535.506,2.239,2.239,0,0,1,.872.708,1.74,1.74,0,0,1,.284,1.008,1.893,1.893,0,0,1-.793,1.589,3.326,3.326,0,0,1-2.058.6,3.725,3.725,0,0,1-1.572-.314,2.557,2.557,0,0,1-1.07-.878,2.117,2.117,0,0,1-.386-1.22h1.265a1.309,1.309,0,0,0,.509,1.008,1.976,1.976,0,0,0,1.254.373,2.039,2.039,0,0,0,1.152-.291A.893.893,0,0,0,32.908,11.038Zm9.16-1.654A4.429,4.429,0,0,1,41.3,12.1,2.476,2.476,0,0,1,39.2,13.137a2.713,2.713,0,0,1-2.119-.854v3.562H35.82V5.6h1.155l.062.82a2.605,2.605,0,0,1,2.146-.957,2.522,2.522,0,0,1,2.109,1,4.477,4.477,0,0,1,.776,2.8ZM40.8,9.24a3.268,3.268,0,0,0-.533-1.976,1.718,1.718,0,0,0-1.463-.725,1.859,1.859,0,0,0-1.723,1.019v3.534A1.863,1.863,0,0,0,38.821,12.1a1.71,1.71,0,0,0,1.446-.721A3.567,3.567,0,0,0,40.8,9.24Zm2.536-.007a4.369,4.369,0,0,1,.427-1.955,3.187,3.187,0,0,1,1.189-1.34,3.238,3.238,0,0,1,1.74-.472A3.119,3.119,0,0,1,49.14,6.513a4.024,4.024,0,0,1,.933,2.782v.089a4.407,4.407,0,0,1-.414,1.938,3.14,3.14,0,0,1-1.183,1.336,3.275,3.275,0,0,1-1.767.479,3.111,3.111,0,0,1-2.437-1.046,4,4,0,0,1-.933-2.769Zm1.271.15a3.164,3.164,0,0,0,.571,1.976,1.934,1.934,0,0,0,3.059-.01,3.46,3.46,0,0,0,.567-2.116,3.159,3.159,0,0,0-.578-1.972A1.836,1.836,0,0,0,46.7,6.506a1.816,1.816,0,0,0-1.511.745A3.435,3.435,0,0,0,44.611,9.384ZM55.234,6.738a3.79,3.79,0,0,0-.622-.048,1.667,1.667,0,0,0-1.688,1.06V13H51.659V5.6h1.23l.021.854a1.969,1.969,0,0,1,1.764-.991,1.292,1.292,0,0,1,.561.1Zm3.22-2.926V5.6h1.381v.978H58.454v4.593a1.027,1.027,0,0,0,.185.667.777.777,0,0,0,.629.222,3.062,3.062,0,0,0,.6-.082V13a3.688,3.688,0,0,1-.971.136,1.575,1.575,0,0,1-1.278-.513,2.2,2.2,0,0,1-.431-1.456V6.581H55.843V5.6h1.347V3.813Zm5.927,9.324a3.232,3.232,0,0,1-2.447-.988,3.666,3.666,0,0,1-.943-2.642V9.274a4.438,4.438,0,0,1,.42-1.965,3.28,3.28,0,0,1,1.176-1.354,2.956,2.956,0,0,1,1.637-.489,2.77,2.77,0,0,1,2.242.95,4.114,4.114,0,0,1,.8,2.721v.526H62.255a2.629,2.629,0,0,0,.639,1.767,2.009,2.009,0,0,0,1.555.673,2.2,2.2,0,0,0,1.135-.273,2.851,2.851,0,0,0,.813-.725l.772.6A3.106,3.106,0,0,1,64.381,13.137Zm-.157-6.631a1.687,1.687,0,0,0-1.285.557A2.708,2.708,0,0,0,62.3,8.625H66v-.1a2.409,2.409,0,0,0-.52-1.494A1.588,1.588,0,0,0,64.224,6.506Z" transform="translate(1135.486 858.209)" fill="#fff"/>
    <path id="Trazado_705077" data-name="Trazado 705077" d="M6.781,8.4H2.468v3.527H7.479V13H1.155V3.047H7.41V4.12H2.468V7.326H6.781Zm1.7.841A4.333,4.333,0,0,1,9.283,6.5,2.551,2.551,0,0,1,11.4,5.467a2.565,2.565,0,0,1,2.058.889V2.5h1.265V13H13.556l-.062-.793a2.575,2.575,0,0,1-2.112.93,2.526,2.526,0,0,1-2.1-1.053,4.382,4.382,0,0,1-.81-2.748Zm1.265.144a3.281,3.281,0,0,0,.52,1.969,1.68,1.68,0,0,0,1.436.711,1.845,1.845,0,0,0,1.757-1.08v-3.4A1.859,1.859,0,0,0,11.71,6.54a1.687,1.687,0,0,0-1.449.718A3.612,3.612,0,0,0,9.741,9.384ZM18.054,13H16.789V5.6h1.265ZM16.687,3.642a.755.755,0,0,1,.188-.52.706.706,0,0,1,.557-.212.717.717,0,0,1,.561.212.747.747,0,0,1,.191.52.722.722,0,0,1-.191.513.73.73,0,0,1-.561.205.718.718,0,0,1-.557-.205A.73.73,0,0,1,16.687,3.642ZM20.5,13V6.581H19.332V5.6H20.5V4.975a2.57,2.57,0,0,1,.708-1.928,2.744,2.744,0,0,1,2-.69,6.021,6.021,0,0,1,1.935.417L24.931,3.84A4.382,4.382,0,0,0,23.3,3.5a1.592,1.592,0,0,0-1.172.366,1.508,1.508,0,0,0-.359,1.1V5.6h1.511v.978H21.772V13Zm5.271,0H24.5V5.6h1.271Zm5.024-.9a1.822,1.822,0,0,0,1.183-.41,1.443,1.443,0,0,0,.561-1.025h1.2a2.293,2.293,0,0,1-.437,1.21,2.881,2.881,0,0,1-1.077.916,3.107,3.107,0,0,1-1.425.342,3.047,3.047,0,0,1-2.4-1.008A4.016,4.016,0,0,1,27.5,9.37V9.158a4.453,4.453,0,0,1,.4-1.921,3.02,3.02,0,0,1,1.138-1.306,3.233,3.233,0,0,1,1.753-.465,2.966,2.966,0,0,1,2.068.745,2.663,2.663,0,0,1,.878,1.935h-1.2A1.743,1.743,0,0,0,32,6.967a1.691,1.691,0,0,0-1.207-.461A1.77,1.77,0,0,0,29.3,7.2a3.259,3.259,0,0,0-.53,2.006v.239a3.194,3.194,0,0,0,.526,1.969A1.779,1.779,0,0,0,30.8,12.1Zm5.735.9H35.267V5.6h1.265ZM35.164,3.642a.755.755,0,0,1,.188-.52.706.706,0,0,1,.557-.212.717.717,0,0,1,.561.212.747.747,0,0,1,.191.52.722.722,0,0,1-.191.513.73.73,0,0,1-.561.205.718.718,0,0,1-.557-.205A.73.73,0,0,1,35.164,3.642ZM38.22,9.233a4.369,4.369,0,0,1,.427-1.955,3.187,3.187,0,0,1,1.189-1.34,3.238,3.238,0,0,1,1.74-.472A3.119,3.119,0,0,1,44.02,6.513a4.024,4.024,0,0,1,.933,2.782v.089a4.407,4.407,0,0,1-.414,1.938,3.14,3.14,0,0,1-1.183,1.336,3.275,3.275,0,0,1-1.767.479,3.111,3.111,0,0,1-2.437-1.046,4,4,0,0,1-.933-2.769Zm1.271.15a3.164,3.164,0,0,0,.571,1.976,1.934,1.934,0,0,0,3.059-.01,3.46,3.46,0,0,0,.567-2.116,3.159,3.159,0,0,0-.578-1.972,1.836,1.836,0,0,0-1.535-.755,1.816,1.816,0,0,0-1.511.745A3.435,3.435,0,0,0,39.491,9.384Zm11.354,1.654a.931.931,0,0,0-.386-.8,3.718,3.718,0,0,0-1.347-.489,6.367,6.367,0,0,1-1.524-.492,2.169,2.169,0,0,1-.834-.684,1.635,1.635,0,0,1-.27-.943A1.919,1.919,0,0,1,47.253,6.1a3,3,0,0,1,1.965-.629,3.091,3.091,0,0,1,2.041.649,2.063,2.063,0,0,1,.783,1.661H50.771a1.142,1.142,0,0,0-.441-.9,1.652,1.652,0,0,0-1.111-.376,1.729,1.729,0,0,0-1.08.3.947.947,0,0,0-.39.786.767.767,0,0,0,.362.69,4.458,4.458,0,0,0,1.309.444,6.821,6.821,0,0,1,1.535.506,2.239,2.239,0,0,1,.872.708,1.74,1.74,0,0,1,.284,1.008,1.893,1.893,0,0,1-.793,1.589,3.326,3.326,0,0,1-2.058.6,3.725,3.725,0,0,1-1.572-.314,2.557,2.557,0,0,1-1.07-.878,2.117,2.117,0,0,1-.386-1.22H47.5a1.309,1.309,0,0,0,.509,1.008,1.976,1.976,0,0,0,1.254.373,2.039,2.039,0,0,0,1.152-.291A.893.893,0,0,0,50.846,11.038Z" transform="translate(1107.486 932.209)" fill="#fff"/>
    <path id="Trazado_705078" data-name="Trazado 705078" d="M8.812,8.345A6.157,6.157,0,0,1,8.319,10.9a3.728,3.728,0,0,1-1.395,1.665,3.837,3.837,0,0,1-2.105.574,3.8,3.8,0,0,1-2.085-.578,3.817,3.817,0,0,1-1.412-1.647A5.908,5.908,0,0,1,.807,8.434V7.716a6.084,6.084,0,0,1,.5-2.536A3.8,3.8,0,0,1,2.717,3.495,3.788,3.788,0,0,1,4.806,2.91a3.858,3.858,0,0,1,2.109.578,3.721,3.721,0,0,1,1.4,1.675,6.187,6.187,0,0,1,.492,2.553ZM7.506,7.7a4.463,4.463,0,0,0-.711-2.717,2.345,2.345,0,0,0-1.989-.947,2.32,2.32,0,0,0-1.958.947,4.371,4.371,0,0,0-.735,2.628v.731a4.469,4.469,0,0,0,.721,2.7,2.329,2.329,0,0,0,1.986.981A2.32,2.32,0,0,0,6.788,11.1,4.444,4.444,0,0,0,7.506,8.44ZM12.3,3.813V5.6h1.381v.978H12.3v4.593a1.027,1.027,0,0,0,.185.667.777.777,0,0,0,.629.222,3.062,3.062,0,0,0,.6-.082V13a3.688,3.688,0,0,1-.971.136,1.575,1.575,0,0,1-1.278-.513,2.2,2.2,0,0,1-.431-1.456V6.581H9.687V5.6h1.347V3.813ZM18.73,6.738a3.79,3.79,0,0,0-.622-.048A1.667,1.667,0,0,0,16.42,7.75V13H15.155V5.6h1.23l.021.854a1.969,1.969,0,0,1,1.764-.991,1.292,1.292,0,0,1,.561.1Zm.69,2.5a4.369,4.369,0,0,1,.427-1.955,3.187,3.187,0,0,1,1.189-1.34,3.238,3.238,0,0,1,1.74-.472,3.119,3.119,0,0,1,2.444,1.046,4.024,4.024,0,0,1,.933,2.782v.089a4.407,4.407,0,0,1-.414,1.938,3.14,3.14,0,0,1-1.183,1.336,3.275,3.275,0,0,1-1.767.479,3.111,3.111,0,0,1-2.437-1.046,4,4,0,0,1-.933-2.769Zm1.271.15a3.164,3.164,0,0,0,.571,1.976,1.934,1.934,0,0,0,3.059-.01,3.46,3.46,0,0,0,.567-2.116,3.159,3.159,0,0,0-.578-1.972,1.836,1.836,0,0,0-1.535-.755,1.816,1.816,0,0,0-1.511.745A3.435,3.435,0,0,0,20.692,9.384Zm11.354,1.654a.931.931,0,0,0-.386-.8,3.718,3.718,0,0,0-1.347-.489,6.367,6.367,0,0,1-1.524-.492,2.169,2.169,0,0,1-.834-.684,1.635,1.635,0,0,1-.27-.943A1.919,1.919,0,0,1,28.455,6.1a3,3,0,0,1,1.965-.629,3.091,3.091,0,0,1,2.041.649,2.063,2.063,0,0,1,.783,1.661H31.972a1.142,1.142,0,0,0-.441-.9,1.652,1.652,0,0,0-1.111-.376,1.729,1.729,0,0,0-1.08.3.947.947,0,0,0-.39.786.767.767,0,0,0,.362.69,4.458,4.458,0,0,0,1.309.444,6.821,6.821,0,0,1,1.535.506,2.239,2.239,0,0,1,.872.708,1.74,1.74,0,0,1,.284,1.008,1.893,1.893,0,0,1-.793,1.589,3.326,3.326,0,0,1-2.058.6,3.725,3.725,0,0,1-1.572-.314,2.557,2.557,0,0,1-1.07-.878,2.117,2.117,0,0,1-.386-1.22H28.7a1.309,1.309,0,0,0,.509,1.008,1.976,1.976,0,0,0,1.254.373,2.039,2.039,0,0,0,1.152-.291A.893.893,0,0,0,32.047,11.038Z" transform="translate(1071.986 1000.209)" fill="#0f58b9"/>
    <path id="Trazado_705079" data-name="Trazado 705079" d="M16,27H2.111V23.992l6.4-6.727q2.365-2.693,2.365-4.279a2.977,2.977,0,0,0-.561-1.955,2,2,0,0,0-1.627-.67,2.026,2.026,0,0,0-1.709.9,3.68,3.68,0,0,0-.656,2.235H1.7a6.537,6.537,0,0,1,.916-3.384A6.424,6.424,0,0,1,5.16,7.682,7.554,7.554,0,0,1,8.8,6.807a7.431,7.431,0,0,1,4.97,1.49,5.32,5.32,0,0,1,1.743,4.279,6.214,6.214,0,0,1-.437,2.29,10.043,10.043,0,0,1-1.36,2.338,34.267,34.267,0,0,1-2.974,3.274l-2.57,2.967H16Zm2.6-9.724L19.816,7.094H31.451v3.582H23.563l-.451,3.954a5.434,5.434,0,0,1,1.292-.508,5.9,5.9,0,0,1,1.565-.22,5.84,5.84,0,0,1,4.56,1.757,7.077,7.077,0,0,1,1.593,4.929,7.064,7.064,0,0,1-.854,3.466,5.873,5.873,0,0,1-2.4,2.386,7.575,7.575,0,0,1-3.65.834A8.151,8.151,0,0,1,21.7,26.5a6.3,6.3,0,0,1-2.57-2.117,5.145,5.145,0,0,1-.916-3.039h4.621a2.614,2.614,0,0,0,.7,1.733,2.213,2.213,0,0,0,1.654.641q2.324,0,2.324-3.438,0-3.179-2.844-3.179a2.838,2.838,0,0,0-2.406,1.037Zm15.955-6.354a3.907,3.907,0,0,1,1.2-2.98,4.511,4.511,0,0,1,3.227-1.135,4.517,4.517,0,0,1,3.24,1.128,4.011,4.011,0,0,1,1.189,3.056v.984a3.886,3.886,0,0,1-1.189,2.967,4.494,4.494,0,0,1-3.213,1.121,4.617,4.617,0,0,1-3.233-1.114,3.926,3.926,0,0,1-1.224-3.056Zm2.967,1.049a1.653,1.653,0,0,0,.4,1.148,1.4,1.4,0,0,0,1.094.441q1.436,0,1.436-1.82v-.815a1.742,1.742,0,0,0-.383-1.161,1.333,1.333,0,0,0-1.08-.455,1.362,1.362,0,0,0-1.066.441,1.733,1.733,0,0,0-.4,1.2Zm6.494,10.148a3.869,3.869,0,0,1,1.21-2.98,4.549,4.549,0,0,1,3.22-1.121,4.6,4.6,0,0,1,3.24,1.107,3.99,3.99,0,0,1,1.2,3.09v.957a3.9,3.9,0,0,1-1.189,2.98,4.514,4.514,0,0,1-3.227,1.121,4.617,4.617,0,0,1-3.233-1.114A3.926,3.926,0,0,1,44.016,23.1Zm2.953,1.049a1.617,1.617,0,0,0,.438,1.121,1.386,1.386,0,0,0,1.066.482,1.257,1.257,0,0,0,1.436-1.25l.014-1.4a1.673,1.673,0,0,0-.4-1.162,1.543,1.543,0,0,0-2.133-.027,1.651,1.651,0,0,0-.424,1.121ZM39.887,25.51,37.74,24.43,47.461,8.871l2.146,1.08Z" transform="translate(1086.486 588.209)" fill="#fff"/>
    <path id="Trazado_705080" data-name="Trazado 705080" d="M16,27H2.111V23.992l6.4-6.727q2.365-2.693,2.365-4.279a2.977,2.977,0,0,0-.561-1.955,2,2,0,0,0-1.627-.67,2.026,2.026,0,0,0-1.709.9,3.68,3.68,0,0,0-.656,2.235H1.7a6.537,6.537,0,0,1,.916-3.384A6.424,6.424,0,0,1,5.16,7.682,7.554,7.554,0,0,1,8.8,6.807a7.431,7.431,0,0,1,4.97,1.49,5.32,5.32,0,0,1,1.743,4.279,6.214,6.214,0,0,1-.437,2.29,10.043,10.043,0,0,1-1.36,2.338,34.267,34.267,0,0,1-2.974,3.274l-2.57,2.967H16Zm14.492-7.779h2.023v3.555H30.494V27H25.887V22.775h-7.7l-.273-2.816L25.887,7.135V7.094h4.607Zm-8.189,0h3.582V13.1l-.287.465Zm12.25-8.3a3.907,3.907,0,0,1,1.2-2.98,4.511,4.511,0,0,1,3.227-1.135,4.517,4.517,0,0,1,3.24,1.128,4.011,4.011,0,0,1,1.189,3.056v.984a3.886,3.886,0,0,1-1.189,2.967,4.494,4.494,0,0,1-3.213,1.121,4.617,4.617,0,0,1-3.233-1.114,3.926,3.926,0,0,1-1.224-3.056Zm2.967,1.049a1.653,1.653,0,0,0,.4,1.148,1.4,1.4,0,0,0,1.094.441q1.436,0,1.436-1.82v-.815a1.742,1.742,0,0,0-.383-1.161,1.333,1.333,0,0,0-1.08-.455,1.362,1.362,0,0,0-1.066.441,1.733,1.733,0,0,0-.4,1.2Zm6.494,10.148a3.869,3.869,0,0,1,1.21-2.98,4.549,4.549,0,0,1,3.22-1.121,4.6,4.6,0,0,1,3.24,1.107,3.99,3.99,0,0,1,1.2,3.09v.957a3.9,3.9,0,0,1-1.189,2.98,4.514,4.514,0,0,1-3.227,1.121,4.617,4.617,0,0,1-3.233-1.114A3.926,3.926,0,0,1,44.016,23.1Zm2.953,1.049a1.617,1.617,0,0,0,.438,1.121,1.386,1.386,0,0,0,1.066.482,1.257,1.257,0,0,0,1.436-1.25l.014-1.4a1.673,1.673,0,0,0-.4-1.162,1.543,1.543,0,0,0-2.133-.027,1.651,1.651,0,0,0-.424,1.121ZM39.887,25.51,37.74,24.43,47.461,8.871l2.146,1.08Z" transform="translate(1086.486 664.209)" fill="#fff"/>
    <path id="Trazado_705081" data-name="Trazado 705081" d="M16,27H2.111V23.992l6.4-6.727q2.365-2.693,2.365-4.279a2.977,2.977,0,0,0-.561-1.955,2,2,0,0,0-1.627-.67,2.026,2.026,0,0,0-1.709.9,3.68,3.68,0,0,0-.656,2.235H1.7a6.537,6.537,0,0,1,.916-3.384A6.424,6.424,0,0,1,5.16,7.682,7.554,7.554,0,0,1,8.8,6.807a7.431,7.431,0,0,1,4.97,1.49,5.32,5.32,0,0,1,1.743,4.279,6.214,6.214,0,0,1-.437,2.29,10.043,10.043,0,0,1-1.36,2.338,34.267,34.267,0,0,1-2.974,3.274l-2.57,2.967H16Zm12.537,0H23.918V12.289l-4.539,1.326v-3.5l8.736-3.021h.424Zm6.016-16.078a3.907,3.907,0,0,1,1.2-2.98,4.511,4.511,0,0,1,3.227-1.135,4.517,4.517,0,0,1,3.24,1.128,4.011,4.011,0,0,1,1.189,3.056v.984a3.886,3.886,0,0,1-1.189,2.967,4.494,4.494,0,0,1-3.213,1.121,4.617,4.617,0,0,1-3.233-1.114,3.926,3.926,0,0,1-1.224-3.056Zm2.967,1.049a1.653,1.653,0,0,0,.4,1.148,1.4,1.4,0,0,0,1.094.441q1.436,0,1.436-1.82v-.815a1.742,1.742,0,0,0-.383-1.161,1.333,1.333,0,0,0-1.08-.455,1.362,1.362,0,0,0-1.066.441,1.733,1.733,0,0,0-.4,1.2Zm6.494,10.148a3.869,3.869,0,0,1,1.21-2.98,4.549,4.549,0,0,1,3.22-1.121,4.6,4.6,0,0,1,3.24,1.107,3.99,3.99,0,0,1,1.2,3.09v.957a3.9,3.9,0,0,1-1.189,2.98,4.514,4.514,0,0,1-3.227,1.121,4.617,4.617,0,0,1-3.233-1.114A3.926,3.926,0,0,1,44.016,23.1Zm2.953,1.049a1.617,1.617,0,0,0,.438,1.121,1.386,1.386,0,0,0,1.066.482,1.257,1.257,0,0,0,1.436-1.25l.014-1.4a1.673,1.673,0,0,0-.4-1.162,1.543,1.543,0,0,0-2.133-.027,1.651,1.651,0,0,0-.424,1.121ZM39.887,25.51,37.74,24.43,47.461,8.871l2.146,1.08Z" transform="translate(1135.486 752.209)" fill="#fff"/>
    <path id="Trazado_705082" data-name="Trazado 705082" d="M12.324,27H7.7V12.289L3.164,13.615v-3.5L11.9,7.094h.424Zm18.17-7.779h2.023v3.555H30.494V27H25.887V22.775h-7.7l-.273-2.816L25.887,7.135V7.094h4.607Zm-8.189,0h3.582V13.1l-.287.465Zm12.25-8.3a3.907,3.907,0,0,1,1.2-2.98,4.511,4.511,0,0,1,3.227-1.135,4.517,4.517,0,0,1,3.24,1.128,4.011,4.011,0,0,1,1.189,3.056v.984a3.886,3.886,0,0,1-1.189,2.967,4.494,4.494,0,0,1-3.213,1.121,4.617,4.617,0,0,1-3.233-1.114,3.926,3.926,0,0,1-1.224-3.056Zm2.967,1.049a1.653,1.653,0,0,0,.4,1.148,1.4,1.4,0,0,0,1.094.441q1.436,0,1.436-1.82v-.815a1.742,1.742,0,0,0-.383-1.161,1.333,1.333,0,0,0-1.08-.455,1.362,1.362,0,0,0-1.066.441,1.733,1.733,0,0,0-.4,1.2Zm6.494,10.148a3.869,3.869,0,0,1,1.21-2.98,4.549,4.549,0,0,1,3.22-1.121,4.6,4.6,0,0,1,3.24,1.107,3.99,3.99,0,0,1,1.2,3.09v.957a3.9,3.9,0,0,1-1.189,2.98,4.514,4.514,0,0,1-3.227,1.121,4.617,4.617,0,0,1-3.233-1.114A3.926,3.926,0,0,1,44.016,23.1Zm2.953,1.049a1.617,1.617,0,0,0,.438,1.121,1.386,1.386,0,0,0,1.066.482,1.257,1.257,0,0,0,1.436-1.25l.014-1.4a1.673,1.673,0,0,0-.4-1.162,1.543,1.543,0,0,0-2.133-.027,1.651,1.651,0,0,0-.424,1.121ZM39.887,25.51,37.74,24.43,47.461,8.871l2.146,1.08Z" transform="translate(1135.486 826.209)" fill="#fff"/>
    <path id="Trazado_705083" data-name="Trazado 705083" d="M12.324,27H7.7V12.289L3.164,13.615v-3.5L11.9,7.094h.424Zm19.824-8.135a9.5,9.5,0,0,1-1.812,6.221,6.26,6.26,0,0,1-5.106,2.188,6.294,6.294,0,0,1-5.141-2.2,9.49,9.49,0,0,1-1.818-6.207V15.229a9.5,9.5,0,0,1,1.812-6.221A6.276,6.276,0,0,1,25.2,6.82a6.278,6.278,0,0,1,5.127,2.2,9.514,9.514,0,0,1,1.818,6.221Zm-4.607-4.225a7.1,7.1,0,0,0-.561-3.206,1.874,1.874,0,0,0-1.777-1.06,1.829,1.829,0,0,0-1.729.984,6.688,6.688,0,0,0-.581,2.98v5.086a7.153,7.153,0,0,0,.561,3.261,1.881,1.881,0,0,0,1.777,1.032,1.856,1.856,0,0,0,1.736-1,6.829,6.829,0,0,0,.574-3.151Zm7.014-3.719a3.907,3.907,0,0,1,1.2-2.98,4.511,4.511,0,0,1,3.227-1.135,4.517,4.517,0,0,1,3.24,1.128,4.011,4.011,0,0,1,1.189,3.056v.984a3.886,3.886,0,0,1-1.189,2.967,4.494,4.494,0,0,1-3.213,1.121,4.617,4.617,0,0,1-3.233-1.114,3.926,3.926,0,0,1-1.224-3.056Zm2.967,1.049a1.653,1.653,0,0,0,.4,1.148,1.4,1.4,0,0,0,1.094.441q1.436,0,1.436-1.82v-.815a1.742,1.742,0,0,0-.383-1.161,1.333,1.333,0,0,0-1.08-.455,1.362,1.362,0,0,0-1.066.441,1.733,1.733,0,0,0-.4,1.2Zm6.494,10.148a3.869,3.869,0,0,1,1.21-2.98,4.549,4.549,0,0,1,3.22-1.121,4.6,4.6,0,0,1,3.24,1.107,3.99,3.99,0,0,1,1.2,3.09v.957a3.9,3.9,0,0,1-1.189,2.98,4.514,4.514,0,0,1-3.227,1.121,4.617,4.617,0,0,1-3.233-1.114A3.926,3.926,0,0,1,44.016,23.1Zm2.953,1.049a1.617,1.617,0,0,0,.438,1.121,1.386,1.386,0,0,0,1.066.482,1.257,1.257,0,0,0,1.436-1.25l.014-1.4a1.673,1.673,0,0,0-.4-1.162,1.543,1.543,0,0,0-2.133-.027,1.651,1.651,0,0,0-.424,1.121ZM39.887,25.51,37.74,24.43,47.461,8.871l2.146,1.08Z" transform="translate(1107.486 900.209)" fill="#fff"/>
    <path id="Trazado_705084" data-name="Trazado 705084" d="M13.348,6.807V10.43h-.205A6.917,6.917,0,0,0,8.9,11.667a5.224,5.224,0,0,0-2.044,3.438,5.388,5.388,0,0,1,3.938-1.531,5.026,5.026,0,0,1,4.115,1.887,7.61,7.61,0,0,1,1.531,4.949,6.968,6.968,0,0,1-.9,3.486,6.39,6.39,0,0,1-2.5,2.481,7.189,7.189,0,0,1-3.562.9,7.43,7.43,0,0,1-3.787-.964,6.627,6.627,0,0,1-2.6-2.755,9.071,9.071,0,0,1-.957-4.129V17.58a11.492,11.492,0,0,1,1.319-5.53A9.565,9.565,0,0,1,7.223,8.2,10.769,10.769,0,0,1,12.65,6.807ZM9.191,17.1a2.636,2.636,0,0,0-1.531.424,2.691,2.691,0,0,0-.916,1.039v1.381q0,3.773,2.611,3.773a2.118,2.118,0,0,0,1.757-.943,3.845,3.845,0,0,0,.7-2.365,3.774,3.774,0,0,0-.718-2.386A2.3,2.3,0,0,0,9.191,17.1Zm9.256-6.18a3.907,3.907,0,0,1,1.2-2.98,4.511,4.511,0,0,1,3.227-1.135,4.517,4.517,0,0,1,3.24,1.128,4.011,4.011,0,0,1,1.189,3.056v.984a3.886,3.886,0,0,1-1.189,2.967A4.494,4.494,0,0,1,22.9,16.063a4.617,4.617,0,0,1-3.233-1.114,3.926,3.926,0,0,1-1.224-3.056Zm2.967,1.049a1.653,1.653,0,0,0,.4,1.148,1.4,1.4,0,0,0,1.094.441q1.436,0,1.436-1.82v-.815a1.742,1.742,0,0,0-.383-1.161,1.333,1.333,0,0,0-1.08-.455,1.362,1.362,0,0,0-1.066.441,1.733,1.733,0,0,0-.4,1.2Zm6.494,10.148a3.869,3.869,0,0,1,1.21-2.98,4.549,4.549,0,0,1,3.22-1.121,4.6,4.6,0,0,1,3.24,1.107,3.99,3.99,0,0,1,1.2,3.09v.957a3.9,3.9,0,0,1-1.189,2.98,4.514,4.514,0,0,1-3.227,1.121,4.617,4.617,0,0,1-3.233-1.114A3.926,3.926,0,0,1,27.908,23.1Zm2.953,1.049a1.617,1.617,0,0,0,.438,1.121,1.386,1.386,0,0,0,1.066.482,1.257,1.257,0,0,0,1.436-1.25l.014-1.4a1.673,1.673,0,0,0-.4-1.162,1.543,1.543,0,0,0-2.133-.027,1.651,1.651,0,0,0-.424,1.121ZM23.779,25.51l-2.146-1.08L31.354,8.871,33.5,9.951Z" transform="translate(1071.986 968.209)" fill="#0f58b9"/>
  </g>
</svg>
