<svg xmlns="http://www.w3.org/2000/svg" width="400" height="346.292" viewBox="0 0 400 346.292">
  <g id="Grupo_1" data-name="Grupo 1" transform="translate(-581 -177)">
    <g id="Group_2" data-name="Group 2" transform="translate(581 323.803)">
      <path id="Fill_105" data-name="Fill 105" d="M3.623,30.179H8.7V0H0Z" transform="translate(134.527 121.739)" fill="#d4dff9"/>
      <path id="Fill_107" data-name="Fill 107" d="M5.072,30.179H0V0H8.7Z" transform="translate(21.995 121.739)" fill="#d4dff9"/>
      <path id="Fill_109" data-name="Fill 109" d="M6.588,66.5H158.118a6.582,6.582,0,0,0,6.588-6.577V6.577A6.582,6.582,0,0,0,158.118,0H6.588A6.582,6.582,0,0,0,0,6.577V59.92A6.582,6.582,0,0,0,6.588,66.5" transform="translate(0 57.289)" fill="#f0f5ff"/>
      <path id="Stroke_111" data-name="Stroke 111" d="M3.962,34.271H150.514a3.956,3.956,0,0,0,3.962-3.949V3.949A3.956,3.956,0,0,0,150.514,0H3.962A3.956,3.956,0,0,0,0,3.949V30.322A3.956,3.956,0,0,0,3.962,34.271Z" transform="translate(5.115 61.381)" fill="none" stroke="#d4dff9" stroke-miterlimit="10" stroke-width="2"/>
      <path id="Stroke_113" data-name="Stroke 113" d="M3.718,19.949h147.04a3.7,3.7,0,0,0,3.718-3.687V3.687A3.7,3.7,0,0,0,150.758,0H3.718A3.7,3.7,0,0,0,0,3.687V16.262A3.7,3.7,0,0,0,3.718,19.949Z" transform="translate(5.115 98.721)" fill="none" stroke="#d4dff9" stroke-miterlimit="10" stroke-width="2"/>
      <path id="Fill_115" data-name="Fill 115" d="M2.213,4.6H13.644a2.259,2.259,0,0,0,2.213-2.3A2.259,2.259,0,0,0,13.644,0H2.213A2.259,2.259,0,0,0,0,2.3,2.259,2.259,0,0,0,2.213,4.6" transform="translate(74.68 63.939)" fill="#bbd1f5"/>
      <path id="Fill_117" data-name="Fill 117" d="M2.213,4.6H13.644a2.259,2.259,0,0,0,2.213-2.3A2.259,2.259,0,0,0,13.644,0H2.213A2.259,2.259,0,0,0,0,2.3,2.259,2.259,0,0,0,2.213,4.6" transform="translate(74.68 101.279)" fill="#bbd1f5"/>
      <path id="Fill_119" data-name="Fill 119" d="M0,49.1H10.742V0H0Z" transform="translate(26.598 8.184)" fill="#bbd1f5"/>
      <path id="Fill_121" data-name="Fill 121" d="M0,4.6H7.673V0H0Z" transform="translate(28.133 11.253)" fill="#fff"/>
      <path id="Fill_122" data-name="Fill 122" d="M0,49.1H10.742V0H0Z" transform="translate(37.34 8.184)" fill="#b7bfe7"/>
      <path id="Fill_123" data-name="Fill 123" d="M0,4.6H7.673V0H0Z" transform="translate(38.875 11.253)" fill="#fff"/>
      <path id="Fill_124" data-name="Fill 124" d="M0,49.1H10.742V0H0Z" transform="translate(48.082 8.184)" fill="#bbd1f5"/>
      <path id="Fill_125" data-name="Fill 125" d="M0,4.6H7.673V0H0Z" transform="translate(49.616 11.253)" fill="#fff"/>
      <path id="Fill_126" data-name="Fill 126" d="M32.1,40.45a24.422,24.422,0,0,1-15.6,8.588v4.5a1,1,0,0,1-.011.15H29.284a1.2,1.2,0,0,1,1.2,1.2v1.2a1.2,1.2,0,0,1-1.2,1.2H1.2a1.2,1.2,0,0,1-1.2-1.2v-1.2a1.2,1.2,0,0,1,1.2-1.2H13.81a1.007,1.007,0,0,1-.007-.15V47.829a1.35,1.35,0,0,1,1.35-1.351,1.522,1.522,0,0,1,.263.026A21.985,21.985,0,0,0,12.77,2.647a1.313,1.313,0,0,1-1.347-1.293A1.315,1.315,0,0,1,12.712.007,24.632,24.632,0,0,1,32.1,40.45" transform="translate(89.003 0)" fill="#bbd1f5"/>
      <path id="Fill_127" data-name="Fill 127" d="M36.829,18.414A18.414,18.414,0,1,1,18.414,0,18.414,18.414,0,0,1,36.829,18.414" transform="translate(84.399 6.138)" fill="#d4dff9"/>
    </g>
    <g id="Group_9" data-name="Group 9" transform="translate(804.018 219.455)">
      <g id="Group_5" data-name="Group 5" transform="translate(0 24.552)">
        <path id="Fill_11" data-name="Fill 11" d="M.011,12.863a2.5,2.5,0,0,0,.191.78H28.454a.029.029,0,0,0,.027-.019,5.329,5.329,0,0,1,.46-.838c.827-1.177,1.607-.651,2.106-.031a4.635,4.635,0,0,1,.285.405,1,1,0,0,0,.854.484h2.649a.992.992,0,0,0,.932-.632c.6-1.617,1.478-2.668.6-12.11a1,1,0,0,0-.995-.9H24.538a.991.991,0,0,0-.628.226,45.427,45.427,0,0,1-4,2.9c-.113.074-.23.148-.343.218-.784.5-1.564.959-2.336,1.387q-.181.105-.363.2a50.3,50.3,0,0,1-14.85,5.289,2.463,2.463,0,0,0-1.451.846,2.421,2.421,0,0,0-.558,1.793" transform="translate(93.204 262.058)" fill="#0a173b"/>
        <path id="Fill_13" data-name="Fill 13" d="M.011,12.863a2.5,2.5,0,0,0,.191.78H28.454a.029.029,0,0,0,.027-.019,5.329,5.329,0,0,1,.46-.838c.827-1.177,1.607-.651,2.106-.031a4.635,4.635,0,0,1,.285.405,1,1,0,0,0,.854.484h2.649a.992.992,0,0,0,.932-.632c.6-1.617,1.478-2.668.6-12.11a1,1,0,0,0-.995-.9H24.538a.991.991,0,0,0-.628.226,45.427,45.427,0,0,1-4,2.9c-.113.074-.23.148-.343.218-.784.5-1.564.959-2.336,1.387q-.181.105-.363.2a50.3,50.3,0,0,1-14.85,5.289,2.463,2.463,0,0,0-1.451.846,2.421,2.421,0,0,0-.558,1.793" transform="translate(45.983 262.058)" fill="#0a173b"/>
        <path id="Fill_15" data-name="Fill 15" d="M64.392,137.657H49.562L28.879,63.174,17.952,137.267l-16,.39L.062,4.477.051,3.545,0,0,55.806,2.34V61.224Z" transform="translate(66.341 125.182)" fill="#d5dcf4"/>
        <path id="Fill_17" data-name="Fill 17" d="M55.755.347V15.914C47.689,4.738,11.575,1.646.012.932L0,0Z" transform="translate(66.392 128.726)" fill="#aab1c9"/>
        <path id="Fill_19" data-name="Fill 19" d="M59.611,46.406H5.561A5.559,5.559,0,0,1,0,40.849V5.557A5.559,5.559,0,0,1,5.561,0h54.05a5.559,5.559,0,0,1,5.561,5.557V40.849a5.559,5.559,0,0,1-5.561,5.557" transform="translate(78.049 155.209)" fill="#aab1c9"/>
        <path id="Fill_21" data-name="Fill 21" d="M28.879,18.523H0V5.557A5.559,5.559,0,0,1,5.561,0H23.318a5.559,5.559,0,0,1,5.561,5.557V18.523ZM5.561,3.12A2.441,2.441,0,0,0,3.122,5.557V15.4H25.757V5.557A2.441,2.441,0,0,0,23.318,3.12Z" transform="translate(95.025 140.975)" fill="#aab1c9"/>
        <path id="Fill_23" data-name="Fill 23" d="M62.05.78H.39A.39.39,0,1,1,.39,0H62.05a.39.39,0,1,1,0,.78" transform="translate(79.317 172.952)" fill="#0a173b"/>
        <path id="Fill_25" data-name="Fill 25" d="M10.586,8.189H3.073A3.072,3.072,0,0,1,0,5.118V3.071A3.072,3.072,0,0,1,3.073,0h7.512a3.072,3.072,0,0,1,3.073,3.071V5.118a3.072,3.072,0,0,1-3.073,3.071" transform="translate(103.708 169.442)" fill="#0a173b"/>
        <path id="Fill_27" data-name="Fill 27" d="M13.657,0,8.974,2.34,5.012,1.35a1.885,1.885,0,0,0-1.371.181L.971,3.013a.466.466,0,0,0-.232.324L0,7.4a.008.008,0,0,0,.009.009l2.2-.314a.779.779,0,0,0,.646-.582L3.12,5.459,8.143,11.2a.887.887,0,0,0,1.046.217L16,8.189Z" transform="translate(0 111.143)" fill="#f28887"/>
        <path id="Fill_29" data-name="Fill 29" d="M3.345,0,1.393,7.8s-4.683,5.849,3.122,7.409c8.557,1.71,9.268-4.485,9.268-4.485l-1.9-1.73a3.018,3.018,0,0,1-.87-3.061L12.711,0Z" transform="translate(102.412 133.371)" fill="#f28887"/>
        <path id="Fill_31" data-name="Fill 31" d="M1.316,0,.112,3.609A2.169,2.169,0,0,0,1.662,6.4L8.8,8.126A2.172,2.172,0,0,0,11.35,6.767l2.064-5.6Z" transform="translate(104.05 129.471)" fill="#effff5"/>
        <path id="Fill_33" data-name="Fill 33" d="M2.788.174.743,1.289A1.425,1.425,0,0,0,.019,2.774l1.467,8.8a1.426,1.426,0,0,0,2.044,1.04L7.61,10.572a1.424,1.424,0,0,0,.666-1.853L4.774.847A1.426,1.426,0,0,0,2.788.174" transform="translate(13.414 108.589)" fill="#effff5"/>
        <path id="Fill_71" data-name="Fill 71" d="M40.4,11.309c-.539.027-1.213.055-2,.074-.086,0-.168,0-.254.008l-1.861.035c-9.6.148-28.762-.043-34.569-.105C.929,11.313.39,11.305.144,11.3H0l2.638-.776L38.444,0l.348,2.012L39.548,6.4Z" transform="translate(66.142 117.772)" fill="#00b1ba"/>
        <path id="Fill_73" data-name="Fill 73" d="M118.039,48.784,107.631,76.062l-4.523,11.855-.714,1.872a3.533,3.533,0,0,1-3.8,2.234l-8.008-1.143a2.548,2.548,0,0,1-2.127-3.065c.008-.043.02-.086.031-.129l.41-1.505c-.078.008-.16.02-.238.027-.613.07-1.257.14-1.932.207-10.385.994-27.821,1.244-34.9,1.306h0l-1.616.012h-.144c-.874.008-1.362.008-1.362.008L45.58,57.714l-1.038.562L3.328,80.535a.854.854,0,0,1-1.253-.616L.011,66.851a.848.848,0,0,1,.39-.858L28.136,48.582l2.224-1.4q.919-4.346,1.967-8.115c5.9-21.506,14.033-29.321,14.033-29.321L67.2,1.969,80.313,0l29.16,11.371a5.539,5.539,0,0,1,3.426,4.1l5.561,28.44a8.881,8.881,0,0,1-.421,4.875" transform="translate(16.078 41.34)" fill="#00b1ba"/>
        <path id="Fill_75" data-name="Fill 75" d="M0,0,2.342,11.309l-.981,14.4L14.439,23.4l-1.561-9.359L15.22,1.873Z" transform="translate(80.39 45.629)" fill="#effff5"/>
        <path id="Fill_77" data-name="Fill 77" d="M0,7.859l2.622,5.763h3.67l5.243-4.715L6.816,0,1.573,2.62Z" transform="translate(83.275 43.31)" fill="#3107ad"/>
        <path id="Fill_79" data-name="Fill 79" d="M6.816,4.191l5.768,8.383L15.73,0,1.573,2.1,0,12.574Z" transform="translate(81.703 41.215)" fill="#e8eeff"/>
        <path id="Fill_81" data-name="Fill 81" d="M4.2.786,0,14.67,1.049,43.486,9.438,17.813,7.865,0Z" transform="translate(81.702 55.36)" fill="#3107ad"/>
        <path id="Fill_83" data-name="Fill 83" d="M8.913,0,3.146,3.143,0,16.766H7.341L0,18.337,7.865,58.155Z" transform="translate(74.887 42.263)" fill="#2ac6b4"/>
        <path id="Fill_85" data-name="Fill 85" d="M13.632,2.62,0,59.727,18.085,22.034a.445.445,0,0,0-.343-.634l-7.256-.967h7.272a.632.632,0,0,0,.631-.591L19.4,4.191S14.681.2,13.108,0Z" transform="translate(82.751 39.119)" fill="#2ac6b4"/>
        <path id="Fill_87" data-name="Fill 87" d="M7.789,24.076S5.136,22.309,4.628,16.16a.5.5,0,0,0-.215-.373,8.278,8.278,0,0,1-2.718-3.441A19.085,19.085,0,0,1,.109,6.475c-.216-1.783-.242-3.532,1.2-4.847A6.613,6.613,0,0,1,4.506.209,7.776,7.776,0,0,1,7.447.094a3.983,3.983,0,0,1,2.5,1.456c.809,1.1.9,2.58,2.027,3.449a7.27,7.27,0,0,0,4.16,1.055A36.835,36.835,0,0,0,21.759,5.7q.969-.1,1.934-.239c4.972-.685,4.544,4.087,4.544,4.087s5.766.562,4.019,12.768l-7.654,6.3Z" transform="translate(67.283 0)" fill="#0a173b"/>
        <path id="Fill_89" data-name="Fill 89" d="M12.586,13.623C4.2,20.957,0,16.24,0,16.24V7.86L6.363,3.528,11.535,0l.112,1.441.065.827.055.725Z" transform="translate(83.902 27.727)" fill="#f3b5a5"/>
        <path id="Fill_91" data-name="Fill 91" d="M7.49,70l-.972.565h0l-.051.031c-.781-.008-1.319-.016-1.565-.019H4.755c-.874.008-1.362.008-1.362.008L.271,40.556S-.338,2.227.271,0c0,0,1.541,58.206,7.122,69.8.031.07.066.136.1.2" transform="translate(61.387 58.498)" fill="#1c84ae"/>
        <path id="Fill_93" data-name="Fill 93" d="M4.293,0V13.166H0Z" transform="translate(119.415 116.305)" fill="#1c84ae"/>
        <path id="Fill_95" data-name="Fill 95" d="M6.907,10.065,0,9.511l2.224-1.4Q3.143,3.769,4.191,0A26.24,26.24,0,0,0,6.907,10.065" transform="translate(44.214 80.41)" fill="#1c84ae"/>
        <path id="Fill_97" data-name="Fill 97" d="M17.5,1.139C12.289,9.914,7.716,12.679,5.73,13.516V8.273a6.462,6.462,0,0,1-2.065-.19A6.88,6.88,0,0,1,0,5.47l12.093-3.8L17.224.056,17.41,0l.033.414Z" transform="translate(78.172 29.582)" fill="#f28887"/>
        <path id="Fill_99" data-name="Fill 99" d="M25.434,3.981a4.6,4.6,0,0,1-.1.995c-.6,2.64-3.535,2.64-3.535,2.64a8.985,8.985,0,0,1-.423,2.366c-.042.149-.093.307-.154.47a.509.509,0,0,1-.023.074c-.042.135-.1.274-.158.418-1.079,2.687-3.721,6.228-10.145,7.567a8.174,8.174,0,0,1-1.167.158,6.452,6.452,0,0,1-2.065-.19A6.881,6.881,0,0,1,4,15.865C1.651,12.8.679,7.88.275,4.306.093,2.7.024,1.364,0,.6A.482.482,0,0,1,.646.128C6.805,2.14,13.712.5,15.471.016a.471.471,0,0,1,.563.312c1.116,3.337,2.428,4.49,3.47,4.8a1.682,1.682,0,0,0,2.088-1.232l.452-1.808A1.229,1.229,0,0,1,23.3,1.159a2.137,2.137,0,0,1,2.065,1.966,4.719,4.719,0,0,1,.07.855" transform="translate(74.176 19.187)" fill="#f3b5a5"/>
        <path id="Fill_128" data-name="Fill 128" d="M.391,63.955a.391.391,0,0,1-.378-.49L10.919,22.209,7.42.452A.39.39,0,0,1,8.19.329L11.7,22.167a.382.382,0,0,1-.008.161L.768,63.664a.391.391,0,0,1-.377.291" transform="translate(104.195 65.517)" fill="#0a173b"/>
        <path id="Fill_133" data-name="Fill 133" d="M1.768,41.336a.39.39,0,0,1-.387-.342c-3.094-25.12-.027-40.53,0-40.682A.39.39,0,0,1,2.15.469C2.119.62-.921,15.917,2.155,40.9a.39.39,0,0,1-.34.435.4.4,0,0,1-.048,0" transform="translate(60.67 58.108)" fill="#0a173b"/>
        <path id="Fill_134" data-name="Fill 134" d="M0,11.7l4.683.39V0Z" transform="translate(119.025 117.382)" fill="#1c84ae"/>
        <path id="Fill_135" data-name="Fill 135" d="M.39,16.591a.391.391,0,0,1-.365-.529L6.059.252a.39.39,0,0,1,.73.278L.755,16.34a.392.392,0,0,1-.365.251" transform="translate(118.711 113.27)" fill="#0a173b"/>
      </g>
      <path id="Fill_137" data-name="Fill 137" d="M0,19.949H68.828A9.974,9.974,0,0,0,68.828,0H9.944A9.959,9.959,0,0,0,0,9.974Z" transform="translate(98.21)" fill="#94baf5"/>
    </g>
    <g id="Group_10" data-name="Group 10" transform="translate(642.893 219.455)">
      <g id="Group_4" data-name="Group 4" transform="translate(39.386 25.575)">
        <path id="Fill_35" data-name="Fill 35" d="M17.845,7.5l10.146,2.942a3.866,3.866,0,0,1,2.791,3.712,2.933,2.933,0,0,1-2.935,2.932H3.173A3.17,3.17,0,0,1,0,13.821L.317,3.751,10.333,0Z" transform="translate(0 261.173)" fill="#b6badc"/>
        <path id="Fill_37" data-name="Fill 37" d="M17.845,7.5l10.146,2.942a3.866,3.866,0,0,1,2.791,3.712,2.934,2.934,0,0,1-2.936,2.932H3.173A3.17,3.17,0,0,1,0,13.821L.317,3.751,10.333,0Z" transform="translate(45.548 261.173)" fill="#b6badc"/>
        <path id="Fill_39" data-name="Fill 39" d="M14.745,0l-.109,2.884-.157,3.985-.019.546L0,6.635.391,0Z" transform="translate(28.319 30.831)" fill="#f3b5a5"/>
        <path id="Fill_41" data-name="Fill 41" d="M50.17,2.732l5.08,70.638,8.207,71.809H43.917L29.13,67.554l-.453-2.379-9.77,81.176H.148S-1.415,85.859,5.619,68.687c0,0-9.379-40.978-2.736-68.687Z" transform="translate(0.033 123.325)" fill="#d5dcf4"/>
        <path id="Fill_43" data-name="Fill 43" d="M6.991,5.148A2.567,2.567,0,0,1,4.35,4.835L4.193,8.82A11.307,11.307,0,0,1,0,1.951H2.954C3.142,1.253,3.322.6,3.49,0H5.756Z" transform="translate(38.604 28.88)" fill="#f28887"/>
        <path id="Fill_45" data-name="Fill 45" d="M1.172,0,3.6,2.182A7.576,7.576,0,0,0,7.025,3.944L8.6,4.293l8.6,6.635-6.868,5.156a2.075,2.075,0,0,1-2.119.2A30.6,30.6,0,0,1,0,10.147Z" transform="translate(115.076 109.275)" fill="#f3b5a5"/>
        <path id="Fill_47" data-name="Fill 47" d="M4.575,30.937l12.59,1.021,9.873-12.677s4.584,1.056,6.348-6.691S30.212,5.9,23.16,2.378,3.765-1.848.944,8.012C-1.753,17.44,2,27.188,3.872,30.489a.887.887,0,0,0,.7.448" transform="translate(24.8 0)" fill="#0a173b"/>
        <path id="Fill_49" data-name="Fill 49" d="M11.638,2.466A72.01,72.01,0,0,1,6.7,16.9a5.735,5.735,0,0,1-2.364,2.775A2.566,2.566,0,0,1,1.7,19.365,6.61,6.61,0,0,1,0,17.609c.1-.39.2-.765.3-1.128.188-.7.368-1.35.535-1.951C2.095,10.042,2.822,8.1,2.822,8.1S0,7.747,1.059,4.227,5.643,3.169,5.643,3.169L6.7,0c1.059,1.76,4.936,2.466,4.936,2.466" transform="translate(41.258 14.35)" fill="#f3b5a5"/>
        <path id="Fill_51" data-name="Fill 51" d="M117.076,74.773l-1.188,11.852a1.379,1.379,0,0,1-2.056,1.062L61.395,57.815a4.783,4.783,0,0,1-1.856-1.924l-3.654-6.962s-.012.066-.031.187C55.478,51.294,52,71.834,52.367,76.638c.391,5.073-1.563,12.489-3.126,14.83,0,0-33.218,5.073-49.241-2.732,0,0,1.172-56.589,3.908-65.955s6.253-11.318,6.253-11.318L24.23,4.048l.512-2.817A1.5,1.5,0,0,1,26.488.025L40.881,2.635a1.616,1.616,0,0,1,1.325,1.588V6.39l19.552,8.875a5.547,5.547,0,0,1,2.79,2.833l9.688,22.245,1.188,2.732,1.946,1.4L115.9,72.158a2.874,2.874,0,0,1,1.18,2.615" transform="translate(0.963 35.369)" fill="#6d4ef9"/>
        <path id="Fill_53" data-name="Fill 53" d="M39.08,5.854a.386.386,0,0,1-.145-.028C27.411,1.223.654.785.385.781A.39.39,0,1,1,.4,0c.27,0,27.172.445,38.828,5.1a.39.39,0,0,1-.145.753" transform="translate(10.342 49.564)" fill="#0a173b"/>
        <path id="Fill_55" data-name="Fill 55" d="M3.517,46.052C3.908,51.125,1.954,58.54.391,60.882L0,0,7,18.53c-.375,2.178-3.857,22.717-3.486,27.522" transform="translate(49.812 65.955)" fill="#3107ad"/>
        <path id="Fill_59" data-name="Fill 59" d="M.706,72.59a.39.39,0,0,1-.389-.357C-2.007,44.775,9.2.735,9.316.293a.391.391,0,0,1,.757.194C9.96.928-1.217,44.842,1.1,72.167a.39.39,0,0,1-.356.422H.706" transform="translate(12.762 51.905)" fill="#0a173b"/>
        <path id="Fill_61" data-name="Fill 61" d="M6.253,16.782a.391.391,0,0,1-.35-.216C3.959,12.681.179,1.005.019.51A.391.391,0,0,1,.763.271C.8.391,4.684,12.385,6.6,16.217a.39.39,0,0,1-.349.565" transform="translate(50.594 67.907)" fill="#0a173b"/>
        <path id="Fill_63" data-name="Fill 63" d="M0,0,6.539,65.557l3.193-26.53Z" transform="translate(18.977 149.473)" fill="#aab1c9"/>
        <path id="Fill_65" data-name="Fill 65" d="M.39,7.025a.39.39,0,0,1-.32-.614C2.848,2.448,9.745.118,10.037.02a.39.39,0,1,1,.247.741C10.216.784,3.34,3.109.711,6.859a.389.389,0,0,1-.32.167" transform="translate(52.548 51.905)" fill="#0a173b"/>
        <path id="Fill_69" data-name="Fill 69" d="M10.433,43.578a.39.39,0,0,1-.369-.262C5.3,29.653.059.75.006.46A.391.391,0,0,1,.776.321C.828.611,6.059,29.454,10.8,43.06a.391.391,0,0,1-.369.519" transform="translate(18.548 146.74)" fill="#0a173b"/>
      </g>
      <path id="Fill_136" data-name="Fill 136" d="M78.772,19.949H9.944A9.974,9.974,0,0,1,9.944,0H68.828a9.959,9.959,0,0,1,9.944,9.974Z" transform="translate(0)" fill="#94baf5"/>
    </g>
    <g id="Group_6" data-name="Group 6" transform="translate(766.166 177)">
      <path id="Fill_138" data-name="Fill 138" d="M70.769,111.509H2.888A2.892,2.892,0,0,1,0,108.613V2.9A2.892,2.892,0,0,1,2.888,0H70.769a2.892,2.892,0,0,1,2.888,2.9V108.613a2.892,2.892,0,0,1-2.888,2.9" fill="#f0f5ff"/>
      <path id="Fill_139" data-name="Fill 139" d="M45.013,22.506A22.506,22.506,0,1,1,22.507,0,22.506,22.506,0,0,1,45.013,22.506" transform="translate(14.322 7.673)" fill="#00b1ba"/>
      <path id="Fill_140" data-name="Fill 140" d="M6.744,17.9a1.956,1.956,0,0,1-1.538-.749L.434,11.12A2.024,2.024,0,0,1,.737,8.3a1.951,1.951,0,0,1,2.772.308L7.057,13.1,22.9.43a1.951,1.951,0,0,1,2.769.334,2.024,2.024,0,0,1-.329,2.812L7.962,17.474a1.944,1.944,0,0,1-1.218.429" transform="translate(24.552 20.46)" fill="#e8eeff"/>
      <path id="Fill_141" data-name="Fill 141" d="M43.194,6.65H.8c-.439,0-.8-.512-.8-1.143V1.142C0,.511.356,0,.8,0h42.4c.439,0,.8.511.8,1.142V5.507c0,.631-.356,1.143-.8,1.143" transform="translate(5.115 63.939)" fill="#d5e0ff"/>
      <path id="Fill_142" data-name="Fill 142" d="M62.28,6.65H1.147A1.145,1.145,0,0,1,0,5.507V1.142A1.145,1.145,0,0,1,1.147,0H62.28a1.145,1.145,0,0,1,1.147,1.142V5.507A1.145,1.145,0,0,1,62.28,6.65" transform="translate(5.115 76.215)" fill="#d5e0ff"/>
    </g>
    <g id="Group_8" data-name="Group 8" transform="translate(605.552 253.726)">
      <path id="Fill_129" data-name="Fill 129" d="M48.1,51.151H3.052A3.052,3.052,0,0,1,0,48.1V3.052A3.052,3.052,0,0,1,3.052,0H48.1a3.052,3.052,0,0,1,3.052,3.052V48.1A3.052,3.052,0,0,1,48.1,51.151" fill="#f0f5ff"/>
      <path id="Fill_130" data-name="Fill 130" d="M43.99,3.039V40.951a3.038,3.038,0,0,1-3.039,3.039H3.039A3.038,3.038,0,0,1,0,40.951V3.039A3.038,3.038,0,0,1,3.039,0H40.951A3.038,3.038,0,0,1,43.99,3.039" transform="translate(3.581 3.581)" fill="#fff"/>
      <path id="Fill_131" data-name="Fill 131" d="M43.99,0V30.7a3.047,3.047,0,0,1-3.039,3.057H3.039A3.047,3.047,0,0,1,0,30.7V27.9c2.891-5.936,7.909-13.06,15.339-13.06,12.734,0,12.734,2.911,17.364-6.987A12.893,12.893,0,0,1,43.99,0" transform="translate(3.581 13.811)" fill="#bbd1f5"/>
      <path id="Fill_132" data-name="Fill 132" d="M11.253,5.627A5.627,5.627,0,1,1,5.627,0a5.627,5.627,0,0,1,5.627,5.627" transform="translate(11.253 7.673)" fill="#d6ddf5"/>
    </g>
  </g>
</svg>
