<svg id="_x33_5" xmlns="http://www.w3.org/2000/svg" width="93.985" height="93.977" viewBox="0 0 93.985 93.977">
  <g id="Grupo_889185" data-name="Grupo 889185">
    <g id="Grupo_889184" data-name="Grupo 889184">
      <path id="Trazado_624384" data-name="Trazado 624384" d="M97.485,50.49a47.034,47.034,0,0,1-63.011,44.2c0-.007,0-.007-.007-.007A46.995,46.995,0,1,1,97.485,50.49Z" transform="translate(-3.5 -3.505)" fill="#9ee6ff"/>
    </g>
  </g>
  <g id="Grupo_889188" data-name="Grupo 889188" transform="translate(10.859 10.855)">
    <g id="Grupo_889187" data-name="Grupo 889187">
      <g id="Grupo_889186" data-name="Grupo 889186">
        <circle id="Elipse_4903" data-name="Elipse 4903" cx="36.133" cy="36.133" r="36.133" fill="#76d8ff"/>
      </g>
    </g>
  </g>
  <g id="Grupo_889191" data-name="Grupo 889191" transform="translate(73.49 32.24)">
    <g id="Grupo_889190" data-name="Grupo 889190">
      <g id="Grupo_889189" data-name="Grupo 889189">
        <path id="Trazado_624385" data-name="Trazado 624385" d="M103.588,47.413h2.225V80.178h-2.225Z" transform="translate(-103.588 -47.413)" fill="#24272b"/>
      </g>
    </g>
  </g>
  <g id="Grupo_889198" data-name="Grupo 889198" transform="translate(32.84 36.329)">
    <g id="Grupo_889194" data-name="Grupo 889194" transform="translate(5.058 0.119)">
      <g id="Grupo_889193" data-name="Grupo 889193">
        <g id="Grupo_889192" data-name="Grupo 889192">
          <path id="Trazado_624386" data-name="Trazado 624386" d="M76.943,86.429,55.451,69.554a.882.882,0,0,1-.144-1.243L67.169,53.475a.881.881,0,0,1,1.377,1.1L57.239,68.717,78.031,85.043a.881.881,0,0,1-1.088,1.386Z" transform="translate(-55.115 -53.144)" fill="#13181e"/>
        </g>
      </g>
    </g>
    <g id="Grupo_889197" data-name="Grupo 889197">
      <g id="Grupo_889196" data-name="Grupo 889196">
        <g id="Grupo_889195" data-name="Grupo 889195">
          <path id="Trazado_624387" data-name="Trazado 624387" d="M49.108,86.574A.881.881,0,0,1,48.558,85L69.3,68.507,57.957,54.415a.881.881,0,1,1,1.372-1.1l11.9,14.782a.881.881,0,0,1-.138,1.242L49.655,86.382A.877.877,0,0,1,49.108,86.574Z" transform="translate(-48.226 -52.982)" fill="#13181e"/>
        </g>
      </g>
    </g>
  </g>
  <g id="Grupo_889213" data-name="Grupo 889213" transform="translate(9.152 74.844)">
    <g id="Grupo_889205" data-name="Grupo 889205">
      <g id="Grupo_889200" data-name="Grupo 889200" transform="translate(4.835 5.579)">
        <g id="Grupo_889199" data-name="Grupo 889199">
          <path id="Trazado_624388" data-name="Trazado 624388" d="M22.549,113.035a46.967,46.967,0,0,0,66.014,0Z" transform="translate(-22.549 -113.035)" fill="#c68142"/>
        </g>
      </g>
      <g id="Grupo_889202" data-name="Grupo 889202" transform="translate(4.835 5.582)">
        <g id="Grupo_889201" data-name="Grupo 889201">
          <path id="Trazado_624389" data-name="Trazado 624389" d="M86.445,115.008H42.187a4.718,4.718,0,0,0-1.956,9.017A46.886,46.886,0,0,1,22.55,113.04H88.567C87.884,113.716,87.172,114.376,86.445,115.008Z" transform="translate(-22.55 -113.04)" fill="#af6223"/>
        </g>
      </g>
      <g id="Grupo_889204" data-name="Grupo 889204">
        <g id="Grupo_889203" data-name="Grupo 889203">
          <path id="Trazado_624390" data-name="Trazado 624390" d="M91.645,105.437a46.039,46.039,0,0,1-4.831,5.58H20.8a46.048,46.048,0,0,1-4.831-5.58Z" transform="translate(-15.965 -105.437)" fill="#4fe88d"/>
        </g>
      </g>
    </g>
    <g id="Grupo_889212" data-name="Grupo 889212" transform="translate(40.933 1.37)" opacity="0.3">
      <g id="Grupo_889208" data-name="Grupo 889208">
        <g id="Grupo_889207" data-name="Grupo 889207">
          <g id="Grupo_889206" data-name="Grupo 889206">
            <path id="Trazado_624391" data-name="Trazado 624391" d="M71.712,108.427a1.123,1.123,0,0,1,1.123-1.123H90.373a1.123,1.123,0,0,1,0,2.246H72.835A1.123,1.123,0,0,1,71.712,108.427Z" transform="translate(-71.712 -107.304)" fill="#fff"/>
          </g>
        </g>
      </g>
      <g id="Grupo_889211" data-name="Grupo 889211" transform="translate(21.587 0)">
        <g id="Grupo_889210" data-name="Grupo 889210">
          <g id="Grupo_889209" data-name="Grupo 889209">
            <path id="Trazado_624392" data-name="Trazado 624392" d="M101.113,108.427a1.123,1.123,0,0,1,1.123-1.123h3.787a1.123,1.123,0,0,1,0,2.246h-3.787A1.123,1.123,0,0,1,101.113,108.427Z" transform="translate(-101.113 -107.304)" fill="#fff"/>
          </g>
        </g>
      </g>
    </g>
  </g>
  <g id="Grupo_889216" data-name="Grupo 889216" transform="translate(31.206 23.939)">
    <g id="Grupo_889215" data-name="Grupo 889215">
      <g id="Grupo_889214" data-name="Grupo 889214">
        <path id="Trazado_624393" data-name="Trazado 624393" d="M74.565,84.386l-12.778-41.5L49.016,84.385a1.542,1.542,0,1,1-2.947-.907L60.313,37.2a1.542,1.542,0,0,1,2.947,0L77.512,83.478a1.542,1.542,0,1,1-2.947.908Z" transform="translate(-46 -36.108)" fill="#24272b"/>
      </g>
    </g>
  </g>
  <g id="Grupo_889219" data-name="Grupo 889219" transform="translate(28.333 71.086)">
    <g id="Grupo_889218" data-name="Grupo 889218">
      <g id="Grupo_889217" data-name="Grupo 889217">
        <path id="Trazado_624394" data-name="Trazado 624394" d="M50.917,104.077v-2.1a1.663,1.663,0,0,0-1.663-1.663h-5.5a1.663,1.663,0,0,0-1.663,1.663v2.1Z" transform="translate(-42.087 -100.319)" fill="#fc545d"/>
      </g>
    </g>
  </g>
  <g id="Grupo_889222" data-name="Grupo 889222" transform="translate(28.335 71.278)">
    <g id="Grupo_889221" data-name="Grupo 889221">
      <g id="Grupo_889220" data-name="Grupo 889220">
        <path id="Trazado_624395" data-name="Trazado 624395" d="M50.916,103.311v.837H42.09v-2.1a1.675,1.675,0,0,1,.874-1.469,1.678,1.678,0,0,0-.125.639,2.093,2.093,0,0,0,2.093,2.093Z" transform="translate(-42.09 -100.58)" fill="#f14448"/>
      </g>
    </g>
  </g>
  <g id="Grupo_889225" data-name="Grupo 889225" transform="translate(56.829 71.086)">
    <g id="Grupo_889224" data-name="Grupo 889224">
      <g id="Grupo_889223" data-name="Grupo 889223">
        <path id="Trazado_624396" data-name="Trazado 624396" d="M89.727,104.077v-2.1a1.663,1.663,0,0,0-1.663-1.663h-5.5a1.663,1.663,0,0,0-1.663,1.663v2.1Z" transform="translate(-80.897 -100.319)" fill="#fc545d"/>
      </g>
    </g>
  </g>
  <g id="Grupo_889228" data-name="Grupo 889228" transform="translate(56.831 71.278)">
    <g id="Grupo_889227" data-name="Grupo 889227">
      <g id="Grupo_889226" data-name="Grupo 889226">
        <path id="Trazado_624397" data-name="Trazado 624397" d="M89.726,103.311v.837H80.9v-2.1a1.676,1.676,0,0,1,.874-1.469,1.681,1.681,0,0,0-.125.639,2.093,2.093,0,0,0,2.093,2.093Z" transform="translate(-80.9 -100.58)" fill="#f14448"/>
      </g>
    </g>
  </g>
  <g id="Grupo_889231" data-name="Grupo 889231" transform="translate(22.896 18.72)">
    <g id="Grupo_889230" data-name="Grupo 889230" transform="translate(0 0)">
      <g id="Grupo_889229" data-name="Grupo 889229">
        <path id="Trazado_624398" data-name="Trazado 624398" d="M88.37,43.223h0a1.787,1.787,0,0,1-2.147,1.333L34.682,32.48,35.5,29l51.54,12.076A1.787,1.787,0,0,1,88.37,43.223Z" transform="translate(-34.682 -29)" fill="#fff"/>
      </g>
    </g>
  </g>
  <g id="Grupo_889234" data-name="Grupo 889234" transform="translate(22.894 18.72)">
    <g id="Grupo_889233" data-name="Grupo 889233" transform="translate(0 0)">
      <g id="Grupo_889232" data-name="Grupo 889232">
        <path id="Trazado_624399" data-name="Trazado 624399" d="M88.248,43.551a1.773,1.773,0,0,1-2.026,1.006L34.68,32.48,35.5,29l6,1.4a2.13,2.13,0,0,0,1.593,2.563Z" transform="translate(-34.68 -29)" fill="#e5f5f9"/>
      </g>
    </g>
  </g>
  <g id="Grupo_889236" data-name="Grupo 889236" transform="translate(41.919 20.864)">
    <g id="Grupo_889235" data-name="Grupo 889235">
      <path id="Trazado_624400" data-name="Trazado 624400" d="M70.745,36.994a5.077,5.077,0,1,1-5.074-5.074A5.075,5.075,0,0,1,70.745,36.994Z" transform="translate(-60.59 -31.92)" fill="#fc545d"/>
    </g>
  </g>
  <g id="Grupo_889238" data-name="Grupo 889238" transform="translate(41.919 21.774)">
    <g id="Grupo_889237" data-name="Grupo 889237" transform="translate(0 0)">
      <path id="Trazado_624401" data-name="Trazado 624401" d="M69.849,40.187a5.07,5.07,0,1,1-7.071-7.027,5.078,5.078,0,0,0,4.215,7.915A4.971,4.971,0,0,0,69.849,40.187Z" transform="translate(-60.59 -33.16)" fill="#f14448"/>
    </g>
  </g>
  <g id="Grupo_889240" data-name="Grupo 889240" transform="translate(44.996 23.939)">
    <g id="Grupo_889239" data-name="Grupo 889239">
      <path id="Trazado_624402" data-name="Trazado 624402" d="M68.781,38.107a2,2,0,1,1-2-2A2,2,0,0,1,68.781,38.107Z" transform="translate(-64.781 -36.108)" fill="#fff"/>
    </g>
  </g>
  <g id="Grupo_889242" data-name="Grupo 889242" transform="translate(44.995 24.212)">
    <g id="Grupo_889241" data-name="Grupo 889241">
      <path id="Trazado_624403" data-name="Trazado 624403" d="M68.5,39.219a1.977,1.977,0,0,1-1.711.984,2,2,0,0,1-1.013-3.723A2,2,0,0,0,68.5,39.219Z" transform="translate(-64.78 -36.48)" fill="#e5f5f9"/>
    </g>
  </g>
  <g id="Grupo_889245" data-name="Grupo 889245" transform="translate(20.667 27.935)">
    <g id="Grupo_889244" data-name="Grupo 889244">
      <g id="Grupo_889243" data-name="Grupo 889243">
        <path id="Trazado_624404" data-name="Trazado 624404" d="M31.647,41.55h2.225V77.176H31.647Z" transform="translate(-31.647 -41.55)" fill="#fff"/>
      </g>
    </g>
  </g>
  <g id="Grupo_889247" data-name="Grupo 889247" transform="translate(17.455 5.823)">
    <g id="Grupo_889246" data-name="Grupo 889246">
      <path id="Trazado_624405" data-name="Trazado 624405" d="M30.735,38.761a4.482,4.482,0,0,0,5.385-3.344l1.928-8.244a19.018,19.018,0,0,0-.214-9.372,22.106,22.106,0,0,0-2.349-5.494c-.752-1.251-2.9-1.124-3.209.181L27.392,33.376a4.482,4.482,0,0,0,3.343,5.385Z" transform="translate(-27.273 -11.436)" fill="#ffbc50"/>
    </g>
  </g>
  <g id="Grupo_889249" data-name="Grupo 889249" transform="translate(17.458 5.827)">
    <g id="Grupo_889248" data-name="Grupo 889248">
      <path id="Trazado_624406" data-name="Trazado 624406" d="M29.951,33.38a4.487,4.487,0,0,0,3.091,5.309A4.475,4.475,0,0,1,27.4,33.38l4.883-20.89c.272-1.145,1.96-1.38,2.878-.573a1.16,1.16,0,0,0-.316.573Z" transform="translate(-27.276 -11.44)" fill="#ffb32c"/>
    </g>
  </g>
  <g id="Grupo_889254" data-name="Grupo 889254" transform="translate(16.522 63.189)">
    <g id="Grupo_889251" data-name="Grupo 889251">
      <g id="Grupo_889250" data-name="Grupo 889250">
        <path id="Trazado_624407" data-name="Trazado 624407" d="M36.517,91.889v9.332H26V91.889a2.325,2.325,0,0,1,2.325-2.325h5.866A2.325,2.325,0,0,1,36.517,91.889Z" transform="translate(-26.001 -89.564)" fill="#b730aa"/>
      </g>
    </g>
    <g id="Grupo_889253" data-name="Grupo 889253" transform="translate(0.003 0.016)">
      <g id="Grupo_889252" data-name="Grupo 889252">
        <path id="Trazado_624408" data-name="Trazado 624408" d="M36.518,99.187v2.04H26V91.893a2.322,2.322,0,0,1,2.057-2.307,8.562,8.562,0,0,0,8.456,9.6Z" transform="translate(-26.005 -89.586)" fill="#a32391"/>
      </g>
    </g>
  </g>
  <g id="Grupo_889256" data-name="Grupo 889256" transform="translate(19.92 67.14)">
    <g id="Grupo_889255" data-name="Grupo 889255">
      <path id="Trazado_624409" data-name="Trazado 624409" d="M34.345,96.8a1.858,1.858,0,1,1-1.858-1.858A1.855,1.855,0,0,1,34.345,96.8Z" transform="translate(-30.63 -94.944)" fill="#fff"/>
    </g>
  </g>
  <g id="Grupo_889258" data-name="Grupo 889258" transform="translate(20.914 68.134)">
    <g id="Grupo_889257" data-name="Grupo 889257">
      <path id="Trazado_624410" data-name="Trazado 624410" d="M33.711,97.162a.864.864,0,1,1-.864-.864A.863.863,0,0,1,33.711,97.162Z" transform="translate(-31.983 -96.298)" fill="#b730aa"/>
    </g>
  </g>
  <g id="Grupo_889265" data-name="Grupo 889265" transform="translate(46.632 22.024)" opacity="0.3">
    <g id="Grupo_889261" data-name="Grupo 889261" transform="translate(1.997 0.617)">
      <g id="Grupo_889260" data-name="Grupo 889260">
        <g id="Grupo_889259" data-name="Grupo 889259">
          <path id="Trazado_624411" data-name="Trazado 624411" d="M71.645,38a.367.367,0,0,1-.367-.367,3.178,3.178,0,0,0-1.39-2.627A.367.367,0,0,1,70.3,34.4a3.913,3.913,0,0,1,1.709,3.234A.367.367,0,0,1,71.645,38Z" transform="translate(-69.729 -34.339)" fill="#fff"/>
        </g>
      </g>
    </g>
    <g id="Grupo_889264" data-name="Grupo 889264" transform="translate(0 0)">
      <g id="Grupo_889263" data-name="Grupo 889263">
        <g id="Grupo_889262" data-name="Grupo 889262">
          <path id="Trazado_624412" data-name="Trazado 624412" d="M68.254,34.344a.359.359,0,0,1-.09-.011,3.2,3.2,0,0,0-.787-.1.367.367,0,0,1,0-.734,3.926,3.926,0,0,1,.968.121.367.367,0,0,1-.09.723Z" transform="translate(-67.009 -33.5)" fill="#fff"/>
        </g>
      </g>
    </g>
  </g>
  <g id="Grupo_889267" data-name="Grupo 889267" transform="translate(70.401 61.072)">
    <g id="Grupo_889266" data-name="Grupo 889266">
      <path id="Trazado_624413" data-name="Trazado 624413" d="M107.957,88.149v12.306H99.381V88.149a1.469,1.469,0,0,1,1.469-1.469h5.639A1.469,1.469,0,0,1,107.957,88.149Z" transform="translate(-99.381 -86.68)" fill="#fc545d"/>
    </g>
  </g>
  <g id="Grupo_889269" data-name="Grupo 889269" transform="translate(70.4 61.072)">
    <g id="Grupo_889268" data-name="Grupo 889268">
      <path id="Trazado_624414" data-name="Trazado 624414" d="M107.956,98.3v2.159H99.38V88.149a1.473,1.473,0,0,1,1.469-1.469h.69v5.2a6.418,6.418,0,0,0,6.418,6.418Z" transform="translate(-99.38 -86.68)" fill="#f14448"/>
    </g>
  </g>
  <g id="Grupo_889271" data-name="Grupo 889271" transform="translate(71.531 43.831)">
    <g id="Grupo_889270" data-name="Grupo 889270">
      <circle id="Elipse_4904" data-name="Elipse 4904" cx="3.157" cy="3.157" r="3.157" fill="#ffbc50"/>
    </g>
  </g>
  <g id="Grupo_889273" data-name="Grupo 889273" transform="translate(71.531 44.191)">
    <g id="Grupo_889272" data-name="Grupo 889272">
      <path id="Trazado_624415" data-name="Trazado 624415" d="M106.875,67.941a3.154,3.154,0,1,1-4.251-4.251A3.156,3.156,0,0,0,106.875,67.941Z" transform="translate(-100.92 -63.69)" fill="#ffb32c"/>
    </g>
  </g>
  <g id="Grupo_889280" data-name="Grupo 889280" transform="translate(21.319 20.401)" opacity="0.3">
    <g id="Grupo_889276" data-name="Grupo 889276" transform="translate(0 3.833)">
      <g id="Grupo_889275" data-name="Grupo 889275">
        <g id="Grupo_889274" data-name="Grupo 889274">
          <path id="Trazado_624416" data-name="Trazado 624416" d="M33.158,43.818a.624.624,0,0,1,0-1.248c1.927,0,1.511-2.515,2.5-5.579a.624.624,0,0,1,1.216.285C36.017,39.577,36.45,43.818,33.158,43.818Z" transform="translate(-32.534 -36.51)" fill="#fff"/>
        </g>
      </g>
    </g>
    <g id="Grupo_889279" data-name="Grupo 889279" transform="translate(3.715)">
      <g id="Grupo_889278" data-name="Grupo 889278">
        <g id="Grupo_889277" data-name="Grupo 889277">
          <path id="Trazado_624417" data-name="Trazado 624417" d="M38.076,33.743a.624.624,0,0,1-.465-.75l.286-1.222a.624.624,0,1,1,1.215.285l-.286,1.222A.624.624,0,0,1,38.076,33.743Z" transform="translate(-37.594 -31.29)" fill="#fff"/>
        </g>
      </g>
    </g>
  </g>
  <g id="Grupo_889284" data-name="Grupo 889284" transform="translate(76.344 62.663)" opacity="0.3">
    <g id="Grupo_889283" data-name="Grupo 889283">
      <g id="Grupo_889282" data-name="Grupo 889282">
        <g id="Grupo_889281" data-name="Grupo 889281">
          <path id="Trazado_624418" data-name="Trazado 624418" d="M108.234,99.439a.758.758,0,0,1-.759-.759V89.606a.759.759,0,0,1,1.517,0v9.075A.758.758,0,0,1,108.234,99.439Z" transform="translate(-107.475 -88.847)" fill="#fff"/>
        </g>
      </g>
    </g>
  </g>
</svg>
