<svg xmlns="http://www.w3.org/2000/svg" width="63" height="63" viewBox="0 0 63 63">
  <g id="Grupo_970040" data-name="Grupo 970040" transform="translate(-262 -5116)">
    <circle id="Elipse_4894" data-name="Elipse 4894" cx="31.5" cy="31.5" r="31.5" transform="translate(262 5116)" fill="#25ffff"/>
    <g id="centro-de-control" transform="translate(271.084 5126.481)">
      <path id="Trazado_624023" data-name="Trazado 624023" d="M32.928,19.987a5.459,5.459,0,0,0-.055-.769.649.649,0,0,1,.346-.653l.407-.224a.655.655,0,0,0,.256-.917l-1.126-1.863a.719.719,0,0,0-.959-.246l-.411.227a.746.746,0,0,1-.8-.066,5.963,5.963,0,0,0-1.313-.73.69.69,0,0,1-.458-.629v-.447a.687.687,0,0,0-.7-.671H25.863a.687.687,0,0,0-.7.671v.447a.69.69,0,0,1-.458.629,5.962,5.962,0,0,0-1.313.729.746.746,0,0,1-.8.066l-.411-.227a.719.719,0,0,0-.959.246L20.1,17.423a.655.655,0,0,0,.256.917l.407.224a.649.649,0,0,1,.349.653,5.369,5.369,0,0,0,0,1.537.649.649,0,0,1-.349.653l-.407.224a.655.655,0,0,0-.256.917l1.126,1.863a.719.719,0,0,0,.959.246l.411-.227a.746.746,0,0,1,.8.066,5.962,5.962,0,0,0,1.31.732.69.69,0,0,1,.458.629v.45a.687.687,0,0,0,.7.671h2.251a.687.687,0,0,0,.7-.671v-.45a.69.69,0,0,1,.458-.629,5.962,5.962,0,0,0,1.313-.729.746.746,0,0,1,.8-.066l.411.227a.719.719,0,0,0,.959-.246l1.126-1.863a.655.655,0,0,0-.256-.917l-.407-.224a.649.649,0,0,1-.346-.653,5.458,5.458,0,0,0,.061-.77Z" transform="translate(-6.725 -4.615)" fill="#7083a6"/>
      <circle id="Elipse_4889" data-name="Elipse 4889" cx="3.144" cy="3.144" r="3.144" transform="translate(17.119 12.228)" fill="#e4ecf2"/>
      <circle id="Elipse_4890" data-name="Elipse 4890" cx="3.5" cy="3.5" r="3.5" transform="translate(35.916 -0.481)" fill="#6f9fde"/>
      <circle id="Elipse_4891" data-name="Elipse 4891" cx="3.5" cy="3.5" r="3.5" transform="translate(-0.084 21.519)" fill="#6f9fde"/>
      <circle id="Elipse_4892" data-name="Elipse 4892" cx="3" cy="3" r="3" transform="translate(34.916 19.519)" fill="#d9777b"/>
      <circle id="Elipse_4893" data-name="Elipse 4893" cx="3" cy="3" r="3" transform="translate(3.916 -0.481)" fill="#d9777b"/>
      <g id="Grupo_888983" data-name="Grupo 888983" transform="translate(7.335 4.668)">
        <path id="Trazado_624024" data-name="Trazado 624024" d="M0,0H5.633V1.4H0Z" transform="translate(0 17.082) rotate(-29.745)" fill="#90aacc"/>
        <path id="Trazado_624025" data-name="Trazado 624025" d="M0,0H1.4V5.524H0Z" transform="translate(3.095 1.149) rotate(-55.308)" fill="#90aacc"/>
        <path id="Trazado_624026" data-name="Trazado 624026" d="M0,0H9.11V1.4H0Z" transform="translate(20.252 5.927) rotate(-32.467)" fill="#90aacc"/>
        <path id="Trazado_624027" data-name="Trazado 624027" d="M0,0H1.4V5.815H0Z" transform="matrix(0.541, -0.841, 0.841, 0.541, 21.29, 13.049)" fill="#90aacc"/>
      </g>
      <path id="Trazado_624028" data-name="Trazado 624028" d="M20.584,37.867a2.054,2.054,0,0,0,.5,1.346L25.3,44.8a6,6,0,0,0,1.869,1.293l0,4.56h7.691l0-5.076a6.266,6.266,0,0,0,3.061-5.53l.015-7.275a1.537,1.537,0,1,0-3.075,0V31.23a1.525,1.525,0,0,0-.769-1.328,1.439,1.439,0,0,0-.769-.21,1.55,1.55,0,0,0-1.537,1.537V29.693a1.516,1.516,0,0,0-.769-1.328,1.444,1.444,0,0,0-.769-.21,1.537,1.537,0,0,0-1.537,1.53V23.537a1.527,1.527,0,0,0-.769-1.328,1.442,1.442,0,0,0-.769-.21,1.543,1.543,0,0,0-1.537,1.537V38.151l-1.685-1.907a2.065,2.065,0,0,0-3.022.469,2.017,2.017,0,0,0-.347,1.154Z" transform="translate(-6.9 -7.326)" fill="#ffc780"/>
      <path id="Trazado_624029" data-name="Trazado 624029" d="M42.972,43.313l.015-7.275a1.53,1.53,0,0,0-.14-.629,1.537,1.537,0,0,1,.908,1.4l-.015,7.275a6.266,6.266,0,0,1-3.061,5.53l0,5.076h-.769l0-5.845a6.266,6.266,0,0,0,3.061-5.53Z" transform="translate(-12.721 -11.366)" fill="#e6b374"/>
      <path id="Trazado_624030" data-name="Trazado 624030" d="M39.714,33.2a1.537,1.537,0,0,1,.908,1.4v3.843h-.769V33.829A1.529,1.529,0,0,0,39.714,33.2Z" transform="translate(-12.663 -10.7)" fill="#e6b374"/>
      <path id="Trazado_624031" data-name="Trazado 624031" d="M35.308,31a1.537,1.537,0,0,1,.908,1.4v5.384h-.769V31.633A1.521,1.521,0,0,0,35.308,31Z" transform="translate(-11.335 -10.037)" fill="#e6b374"/>
      <path id="Trazado_624032" data-name="Trazado 624032" d="M30.906,22.2a1.537,1.537,0,0,1,.908,1.4V35.135h-.773V22.829a1.529,1.529,0,0,0-.136-.629Z" transform="translate(-10.009 -7.386)" fill="#e6b374"/>
    </g>
  </g>
</svg>
