<svg xmlns="http://www.w3.org/2000/svg" width="295.164" height="279.842" viewBox="0 0 295.164 279.842">
  <g id="Grupo_894629" data-name="Grupo 894629" transform="translate(-355.454 -142.511)">
    <g id="Grupo_894602" data-name="Grupo 894602" transform="translate(616.441 284.127)">
      <path id="Trazado_636898" data-name="Trazado 636898" d="M645.746,381.038a17.006,17.006,0,1,1-25.75-14.6v-76.13a8.744,8.744,0,0,1,17.487,0v76.13A17.019,17.019,0,0,1,645.746,381.038Z" transform="translate(-611.733 -281.572)" fill="#d4d4d4"/>
      <g id="Grupo_894599" data-name="Grupo 894599" transform="translate(2.776 2.776)">
        <rect id="Rectángulo_327213" data-name="Rectángulo 327213" width="11.935" height="19.864" transform="translate(8.263 24.989)" fill="#ffae5a"/>
        <path id="Trazado_636899" data-name="Trazado 636899" d="M634.508,290.257a5.968,5.968,0,0,0-11.935,0v19.03h11.935Z" transform="translate(-614.31 -284.298)" fill="#fcd04e"/>
        <rect id="Rectángulo_327214" data-name="Rectángulo 327214" width="11.935" height="19.864" transform="translate(8.263 44.853)" fill="#f79025"/>
        <path id="Trazado_636900" data-name="Trazado 636900" d="M636,367.6l-1.344-.809V347.847H622.722V366.79l-1.345.809a14.231,14.231,0,1,0,14.625,0Z" transform="translate(-614.459 -283.13)" fill="#eb4847"/>
      </g>
      <path id="Trazado_636901" data-name="Trazado 636901" d="M624.416,380.081c.944,4.1.08,7.8-1.93,8.262s-4.405-2.486-5.349-6.587-.08-7.8,1.93-8.262S623.472,375.98,624.416,380.081Z" transform="translate(-611.641 -279.884)" fill="#fff"/>
      <g id="Grupo_894601" data-name="Grupo 894601" transform="translate(28.639 10.979)">
        <g id="Grupo_894600" data-name="Grupo 894600">
          <line id="Línea_196" data-name="Línea 196" x2="5.197" fill="none" stroke="#065f70" stroke-linecap="round" stroke-linejoin="round" stroke-width="0.681"/>
          <line id="Línea_197" data-name="Línea 197" x2="3.11" transform="translate(0 2.651)" fill="none" stroke="#065f70" stroke-linecap="round" stroke-linejoin="round" stroke-width="0.681"/>
          <line id="Línea_198" data-name="Línea 198" x2="5.197" transform="translate(0 5.303)" fill="none" stroke="#065f70" stroke-linecap="round" stroke-linejoin="round" stroke-width="0.681"/>
          <line id="Línea_199" data-name="Línea 199" x2="3.11" transform="translate(0 7.954)" fill="none" stroke="#065f70" stroke-linecap="round" stroke-linejoin="round" stroke-width="0.681"/>
          <line id="Línea_200" data-name="Línea 200" x2="5.197" transform="translate(0 10.605)" fill="none" stroke="#065f70" stroke-linecap="round" stroke-linejoin="round" stroke-width="0.681"/>
          <line id="Línea_201" data-name="Línea 201" x2="3.11" transform="translate(0 13.257)" fill="none" stroke="#065f70" stroke-linecap="round" stroke-linejoin="round" stroke-width="0.681"/>
          <line id="Línea_202" data-name="Línea 202" x2="5.197" transform="translate(0 15.908)" fill="none" stroke="#065f70" stroke-linecap="round" stroke-linejoin="round" stroke-width="0.681"/>
          <line id="Línea_203" data-name="Línea 203" x2="3.11" transform="translate(0 18.559)" fill="none" stroke="#065f70" stroke-linecap="round" stroke-linejoin="round" stroke-width="0.681"/>
          <line id="Línea_204" data-name="Línea 204" x2="5.197" transform="translate(0 21.211)" fill="none" stroke="#065f70" stroke-linecap="round" stroke-linejoin="round" stroke-width="0.681"/>
          <line id="Línea_205" data-name="Línea 205" x2="3.11" transform="translate(0 23.862)" fill="none" stroke="#065f70" stroke-linecap="round" stroke-linejoin="round" stroke-width="0.681"/>
          <line id="Línea_206" data-name="Línea 206" x2="5.197" transform="translate(0 26.513)" fill="none" stroke="#065f70" stroke-linecap="round" stroke-linejoin="round" stroke-width="0.681"/>
          <line id="Línea_207" data-name="Línea 207" x2="3.11" transform="translate(0 29.165)" fill="none" stroke="#065f70" stroke-linecap="round" stroke-linejoin="round" stroke-width="0.681"/>
          <line id="Línea_208" data-name="Línea 208" x2="5.197" transform="translate(0 31.816)" fill="none" stroke="#065f70" stroke-linecap="round" stroke-linejoin="round" stroke-width="0.681"/>
          <line id="Línea_209" data-name="Línea 209" x2="3.11" transform="translate(0 34.468)" fill="none" stroke="#065f70" stroke-linecap="round" stroke-linejoin="round" stroke-width="0.681"/>
          <line id="Línea_210" data-name="Línea 210" x2="5.197" transform="translate(0 37.119)" fill="none" stroke="#065f70" stroke-linecap="round" stroke-linejoin="round" stroke-width="0.681"/>
          <line id="Línea_211" data-name="Línea 211" x2="3.11" transform="translate(0 39.77)" fill="none" stroke="#065f70" stroke-linecap="round" stroke-linejoin="round" stroke-width="0.681"/>
          <line id="Línea_212" data-name="Línea 212" x2="5.197" transform="translate(0 42.422)" fill="none" stroke="#065f70" stroke-linecap="round" stroke-linejoin="round" stroke-width="0.681"/>
          <line id="Línea_213" data-name="Línea 213" x2="3.11" transform="translate(0 45.073)" fill="none" stroke="#065f70" stroke-linecap="round" stroke-linejoin="round" stroke-width="0.681"/>
          <line id="Línea_214" data-name="Línea 214" x2="5.197" transform="translate(0 47.724)" fill="none" stroke="#065f70" stroke-linecap="round" stroke-linejoin="round" stroke-width="0.681"/>
          <line id="Línea_215" data-name="Línea 215" x2="3.11" transform="translate(0 50.376)" fill="none" stroke="#065f70" stroke-linecap="round" stroke-linejoin="round" stroke-width="0.681"/>
          <line id="Línea_216" data-name="Línea 216" x2="5.197" transform="translate(0 53.027)" fill="none" stroke="#065f70" stroke-linecap="round" stroke-linejoin="round" stroke-width="0.681"/>
          <line id="Línea_217" data-name="Línea 217" x2="3.11" transform="translate(0 55.678)" fill="none" stroke="#065f70" stroke-linecap="round" stroke-linejoin="round" stroke-width="0.681"/>
          <line id="Línea_218" data-name="Línea 218" x2="5.197" transform="translate(0 58.33)" fill="none" stroke="#065f70" stroke-linecap="round" stroke-linejoin="round" stroke-width="0.681"/>
          <line id="Línea_219" data-name="Línea 219" x2="3.11" transform="translate(0 60.981)" fill="none" stroke="#065f70" stroke-linecap="round" stroke-linejoin="round" stroke-width="0.681"/>
          <line id="Línea_220" data-name="Línea 220" x2="5.197" transform="translate(0 63.632)" fill="none" stroke="#065f70" stroke-linecap="round" stroke-linejoin="round" stroke-width="0.681"/>
          <line id="Línea_221" data-name="Línea 221" x2="3.11" transform="translate(0 66.284)" fill="none" stroke="#065f70" stroke-linecap="round" stroke-linejoin="round" stroke-width="0.681"/>
        </g>
      </g>
    </g>
    <g id="Grupo_894607" data-name="Grupo 894607" transform="translate(424.456 332.074)">
      <g id="Grupo_894603" data-name="Grupo 894603" transform="translate(78.503 42.254)">
        <path id="Trazado_636902" data-name="Trazado 636902" d="M521.581,370.146H501.206c2.162,2.505,3.607,7.412,1.912,16.939-1.271,7.145-4.087,15.653-2.173,22.905,1.95,7.391,11.458,11.034,17.656,5.517C530.5,404.908,513.915,382.557,521.581,370.146Z" transform="translate(-500.298 -370.146)" fill="#0bb2d4"/>
        <path id="Trazado_636903" data-name="Trazado 636903" d="M521.5,370.146h-1.989c-6.36,12.568,9.14,34.092-2.474,44.433a10.513,10.513,0,0,1-12.062,1.363,10.639,10.639,0,0,0,13.544-.435C530.419,404.908,513.829,382.557,521.5,370.146Z" transform="translate(-500.213 -370.146)" fill="#0992ad"/>
        <path id="Trazado_636904" data-name="Trazado 636904" d="M505.84,400.661s-3.692,10.664,5.332,13.126" transform="translate(-500.21 -369.585)" fill="none" stroke="#fff" stroke-miterlimit="10" stroke-width="2.366"/>
      </g>
      <g id="Grupo_894604" data-name="Grupo 894604">
        <path id="Trazado_636905" data-name="Trazado 636905" d="M444.494,328.654H424.119c2.162,2.505,3.607,7.412,1.912,16.939-1.271,7.146-4.087,15.653-2.173,22.906,1.95,7.39,11.458,11.034,17.656,5.516C453.418,363.416,436.828,341.065,444.494,328.654Z" transform="translate(-423.211 -328.654)" fill="#0bb2d4"/>
        <path id="Trazado_636906" data-name="Trazado 636906" d="M444.408,328.654h-1.989c-6.359,12.569,9.14,34.092-2.474,44.433a10.514,10.514,0,0,1-12.061,1.364,10.638,10.638,0,0,0,13.543-.436C453.332,363.416,436.742,341.065,444.408,328.654Z" transform="translate(-423.126 -328.654)" fill="#0992ad"/>
        <path id="Trazado_636907" data-name="Trazado 636907" d="M428.753,359.169s-3.692,10.665,5.333,13.126" transform="translate(-423.123 -328.093)" fill="none" stroke="#fff" stroke-miterlimit="10" stroke-width="2.366"/>
      </g>
      <g id="Grupo_894605" data-name="Grupo 894605" transform="translate(53.366 38.109)">
        <path id="Trazado_636908" data-name="Trazado 636908" d="M490.942,366.075H476.269c1.557,1.8,2.6,5.337,1.378,12.2-.915,5.146-2.944,11.273-1.566,16.5,1.4,5.323,8.252,7.946,12.716,3.973C497.369,391.111,485.421,375.013,490.942,366.075Z" transform="translate(-475.615 -366.075)" fill="#0bb2d4"/>
        <path id="Trazado_636909" data-name="Trazado 636909" d="M490.88,366.075h-1.432c-4.58,9.051,6.583,24.553-1.781,32a7.572,7.572,0,0,1-8.687.983,7.664,7.664,0,0,0,9.755-.315C497.308,391.111,485.359,375.013,490.88,366.075Z" transform="translate(-475.553 -366.075)" fill="#0992ad"/>
        <path id="Trazado_636910" data-name="Trazado 636910" d="M479.606,388.052s-2.659,7.681,3.84,9.453" transform="translate(-475.551 -365.671)" fill="none" stroke="#fff" stroke-miterlimit="10" stroke-width="1.704"/>
      </g>
      <g id="Grupo_894606" data-name="Grupo 894606" transform="translate(148.739 14.221)">
        <path id="Trazado_636911" data-name="Trazado 636911" d="M581.461,342.618H569.787c1.238,1.436,2.067,4.247,1.1,9.706-.728,4.094-2.341,8.969-1.245,13.125a6.269,6.269,0,0,0,10.117,3.16C586.575,362.536,577.069,349.729,581.461,342.618Z" transform="translate(-569.267 -342.618)" fill="#0bb2d4"/>
        <path id="Trazado_636912" data-name="Trazado 636912" d="M581.412,342.618h-1.14c-3.643,7.2,5.237,19.534-1.417,25.459a6.023,6.023,0,0,1-6.911.781,6.094,6.094,0,0,0,7.76-.25C586.526,362.536,577.02,349.729,581.412,342.618Z" transform="translate(-569.218 -342.618)" fill="#0992ad"/>
        <path id="Trazado_636913" data-name="Trazado 636913" d="M572.442,360.1s-2.115,6.111,3.056,7.521" transform="translate(-569.217 -342.297)" fill="none" stroke="#fff" stroke-miterlimit="10" stroke-width="1.356"/>
      </g>
    </g>
    <g id="Grupo_894608" data-name="Grupo 894608" transform="translate(370.973 142.511)">
      <path id="Trazado_636914" data-name="Trazado 636914" d="M413.24,180.892l20.783,20.783a109.739,109.739,0,0,1,75.312-29.8V142.511A139.017,139.017,0,0,0,413.24,180.892Z" transform="translate(-369.911 -142.511)" fill="#ffae5a"/>
      <path id="Trazado_636915" data-name="Trazado 636915" d="M370.693,276.295h29.385A109.831,109.831,0,0,1,434.8,200.983L414.022,180.2A139.11,139.11,0,0,0,370.693,276.295Z" transform="translate(-370.693 -141.819)" fill="#fcd04e"/>
      <path id="Trazado_636916" data-name="Trazado 636916" d="M602.337,180.2l-20.783,20.784a109.829,109.829,0,0,1,34.726,75.312h29.385A139.114,139.114,0,0,0,602.337,180.2Z" transform="translate(-366.819 -141.819)" fill="#eb4847"/>
      <path id="Trazado_636917" data-name="Trazado 636917" d="M507.6,142.511v29.366a109.741,109.741,0,0,1,75.312,29.8L603.7,180.891A139.02,139.02,0,0,0,507.6,142.511Z" transform="translate(-368.178 -142.511)" fill="#f79025"/>
    </g>
    <g id="Grupo_894621" data-name="Grupo 894621" transform="translate(410.806 181.361)">
      <g id="Grupo_894618" data-name="Grupo 894618">
        <path id="Trazado_636918" data-name="Trazado 636918" d="M604.9,286.674c-.02-.229-.042-.448-.073-.677-.02-.188-.052-.366-.083-.543-.02-.146-.052-.3-.082-.448-.021-.115-.042-.219-.073-.334-.032-.157-.073-.313-.115-.459-.042-.166-.084-.333-.135-.49,0-.01,0-.02-.01-.02-.157-.511-.334-1.033-.533-1.554a.053.053,0,0,0-.02-.042c-.125-.314-.25-.616-.386-.929s-.281-.615-.428-.928H575.812c.1.876.219,1.793.334,2.722.135,1.137.271,2.294.344,3.431.052.573.084,1.137.094,1.7.021.647.021,1.283-.01,1.9a9.535,9.535,0,0,1-.073.959,6.961,6.961,0,0,1-.125.949,8.072,8.072,0,0,1-.177.907,7.018,7.018,0,0,1-1.471,3.056c-4.62,5.329-5.329,3.192-10.179,5.685s-11.129,1.063-15.384,3.9-2.493,11.712-11.368,11.733-1.773-8.9-7.812-13.506-4.255.354-9.584-7.812c-4.193-6.445-7.072-10.9-7.061-15.623h-5.976V180.681A98.942,98.942,0,0,0,463.227,192c4.131,5.038,8.948,11.692,8.531,14.894-.709,5.548-6.028,9.448-3.9,18.679s3.9,15.268-.354,18.47-1.419,2.837-9.939,4.61-11.014,0-14.56,6.748-2.482,7.144-13.141,7.124-7.811-.688-15.977,0a8.586,8.586,0,0,1-2.472-.167,99.859,99.859,0,0,0,11.347,67.029c2.316-1.095,5.788-1.741,12.088-1.554,12.411.354,7.446,10.648,14.9,16.333s7.812-3.912,12.422,6.028c.74,1.6,1.407,3.066,1.982,4.433.291.678.563,1.335.813,1.96.491,1.262.9,2.43,1.2,3.5.157.543.282,1.064.386,1.554a13.067,13.067,0,0,1,.323,2.785,7.746,7.746,0,0,1-1.741,5.058A99.118,99.118,0,0,0,509.4,379.84a99.837,99.837,0,0,0,23.112-2.7c.177-1.064.4-2.232.677-3.515,2.837-13.13,8.876-9.584,17.4-11s4.609-2.127,11.712-5.685c4.078-2.034,8.718-1.731,11.952-1.1a98.764,98.764,0,0,0,8.855-8.614c-1.5-7.77,2.836-14.675,5.11-17.136,2.847-3.066,2.493-8.291,2.493-18.585s1.063-9.229,9.229-15.268a15.578,15.578,0,0,0,1.794-1.533,12.736,12.736,0,0,0,.959-1.043c.1-.136.219-.272.313-.4a13.194,13.194,0,0,0,.782-1.221c.1-.187.2-.375.282-.553a10.415,10.415,0,0,0,.595-1.678,9.653,9.653,0,0,0,.271-2.316Q604.931,287.082,604.9,286.674Zm-120.71,37.6c-4.975,3.556-20.6-3.17-24.5-7.082s-5.329-25.938-3.192-31.966c0,0,2.837-4.62,11.358-4.975s6.393,3.9,9.585,9.938,5.287,2.128,13.652,15.269S489.165,320.727,484.19,324.273Z" transform="translate(-409.807 -180.66)" fill="#0992ad"/>
        <g id="Grupo_894609" data-name="Grupo 894609" transform="translate(1.608 0.324)">
          <path id="Trazado_636919" data-name="Trazado 636919" d="M461.943,347.539c-4.616-9.941-4.971-.354-12.427-6.036s-2.485-15.976-14.9-16.332c-6.306-.18-9.778.464-12.091,1.561a100.028,100.028,0,0,0,42.38,40.094h0C468.221,362.681,466.558,357.48,461.943,347.539Z" transform="translate(-411.181 -178.329)" fill="#bcd16f"/>
          <path id="Trazado_636920" data-name="Trazado 636920" d="M560.084,353.787c-7.1,3.551-3.195,4.261-11.716,5.681s-14.557-2.13-17.4,11.006c-.277,1.28-.5,2.445-.674,3.511a99.292,99.292,0,0,0,41.736-21.308C568.8,352.052,564.156,351.753,560.084,353.787Z" transform="translate(-409.201 -177.832)" fill="#bcd16f"/>
          <path id="Trazado_636921" data-name="Trazado 636921" d="M413.862,262.316c8.165-.688,5.325-.022,15.977,0s9.586-.378,13.136-7.124,6.036-4.971,14.557-6.746,5.68-1.421,9.941-4.616,2.486-9.231.355-18.462,3.195-13.136,3.905-18.681c.41-3.208-4.406-9.858-8.541-14.895a99.71,99.71,0,0,0-51.807,70.354A8.6,8.6,0,0,0,413.862,262.316Z" transform="translate(-411.386 -180.779)" fill="#bcd16f"/>
          <path id="Trazado_636922" data-name="Trazado 636922" d="M607.121,280.245h-6.029c-.323-.688-.688-1.387-1.074-2.087-.146-.261-.3-.532-.458-.8-.469-.8-.97-1.617-1.492-2.441-4.975-7.811-11.014-12.067-12.787-6.382s-8.521,1.419-11,4.609c-.573.741-.709,2.055-.636,3.724a5.479,5.479,0,0,0,.032.584c.052.855.157,1.8.271,2.8H511.472a12.492,12.492,0,0,1,.668-3.9c2.138-6.392,2.847-7.457,9.949-11.013s9.939-4.256,11.358-10.294-10.649-8.522,0-25.563,12.067-5.329,12.067-13.5-2.128-9.939-14.9-12.775-14.914-8.521-14.205-16.99a11.1,11.1,0,0,0-.866-5.235A99.591,99.591,0,0,1,607.121,280.245Z" transform="translate(-409.547 -180.978)" fill="#f79025"/>
          <path id="Trazado_636923" data-name="Trazado 636923" d="M574.716,286.307a17.9,17.9,0,0,1-.386,4.714,7.018,7.018,0,0,1-1.471,3.056c-4.62,5.329-5.329,3.192-10.179,5.685s-11.129,1.063-15.384,3.9-2.493,11.712-11.368,11.733-1.773-8.9-7.812-13.506-4.255.354-9.584-7.812c-4.193-6.445-7.072-10.9-7.061-15.623h62.472c.1.876.219,1.793.334,2.722.135,1.126.261,2.283.344,3.431C574.664,285.18,574.7,285.743,574.716,286.307Z" transform="translate(-409.547 -179.187)" fill="#bcd16f"/>
          <path id="Trazado_636924" data-name="Trazado 636924" d="M605.868,278.454a99.183,99.183,0,0,1-25.886,66.967c-1.5-7.77,2.836-14.675,5.11-17.136,2.847-3.066,2.493-8.291,2.493-18.585s1.063-9.229,9.229-15.268a15.578,15.578,0,0,0,1.794-1.533,11.351,11.351,0,0,0,2.054-2.66c.1-.187.2-.375.282-.553a9.519,9.519,0,0,0,.595-1.678,9.653,9.653,0,0,0,.271-2.316q0-.406-.032-.814c-.02-.229-.042-.448-.073-.677-.02-.188-.052-.366-.083-.543-.02-.146-.052-.3-.082-.448-.021-.115-.042-.219-.073-.334-.032-.157-.073-.313-.115-.459-.042-.166-.084-.333-.135-.49,0-.01,0-.02-.01-.02a15.242,15.242,0,0,0-.533-1.554.053.053,0,0,0-.02-.042c-.115-.314-.24-.616-.386-.929-.125-.3-.271-.615-.428-.928Z" transform="translate(-408.294 -179.187)" fill="#bcd16f"/>
          <path id="Trazado_636925" data-name="Trazado 636925" d="M476.619,288.4c-3.2-6.036-1.065-10.3-9.586-9.941s-11.362,4.971-11.362,4.971c-2.13,6.035-.71,28.048,3.2,31.966s19.527,10.639,24.5,7.089,15.267-5.682,6.907-18.817S479.814,294.431,476.619,288.4Z" transform="translate(-410.591 -179.188)" fill="#bcd16f"/>
        </g>
        <g id="Grupo_894610" data-name="Grupo 894610" transform="translate(97.557)">
          <path id="Trazado_636926" data-name="Trazado 636926" d="M545.622,215.984c0,8.166-1.419-3.546-12.067,13.5s1.418,19.524,0,25.563-4.256,6.748-11.358,10.294-7.812,4.62-9.949,11.013a12.493,12.493,0,0,0-.668,3.9H505.6V180.681c.678-.011,1.355-.021,2.034-.021,2.7,0,5.371.115,8.009.324a11.1,11.1,0,0,1,.866,5.235c-.709,8.469,1.419,14.142,14.205,16.99S545.622,207.818,545.622,215.984Z" transform="translate(-505.604 -180.66)" fill="#fcd04e"/>
          <path id="Trazado_636927" data-name="Trazado 636927" d="M599.971,278.712H572.823c-.114-.991-.219-1.94-.271-2.8a5.479,5.479,0,0,1-.032-.584c-.072-1.669.063-2.983.636-3.724,2.482-3.191,9.23,1.064,11-4.609s7.812-1.429,12.787,6.382c.521.824,1.022,1.638,1.492,2.441.156.271.313.542.458.8C599.282,277.325,599.648,278.024,599.971,278.712Z" transform="translate(-504.375 -179.122)" fill="#fcd04e"/>
        </g>
        <path id="Trazado_636928" data-name="Trazado 636928" d="M520.972,272.959s18.107-4.022,18.906-12.543-6.611-19.7,3.085-26.894,15.289-6.125,11.561-17.042-16.35-17.841-24.018-20.5-3.515-7.722,0-8.255,53.213,30.622,63.379,56.984,9.1,28.759,5.108,24.232-1.977-9.587-11.772-9.054-.743,4.527-11.395,4.793-13.516,1.119-13.282,8.282S507.94,278.071,520.972,272.959Z" transform="translate(-407.801 -180.53)" fill="#f79d40"/>
        <path id="Trazado_636929" data-name="Trazado 636929" d="M509.966,263.668s-2.233-63.375,1.546-64.441,17.269,11.241,25.348,11.184-17.042,11.384-15.445,21,7.608,17.341,2.473,22.133S509.966,263.668,509.966,263.668Z" transform="translate(-407.979 -180.32)" fill="#fdd86c"/>
        <path id="Trazado_636930" data-name="Trazado 636930" d="M595.435,275.254s-5.325-6.214-6.923-6.214-3.2,3.551-6.923,4.084-4.261,2.976-4.261,2.976Z" transform="translate(-406.729 -179.036)" fill="#fdd86c"/>
        <path id="Trazado_636931" data-name="Trazado 636931" d="M566.581,218.676s21.835,21.481,19.349,24.676-10.361-2.663-12.9,4.971,1.009,8.165-8.222,9.231-8.521,10.3-14.378,5.77-8.7-10.208-4.616-15.179,13.559-1.242,14.146-11.716S559.835,214.771,566.581,218.676Z" transform="translate(-407.344 -179.976)" fill="#ffae5a"/>
        <path id="Trazado_636932" data-name="Trazado 636932" d="M584.126,332.683s5.326-3.551,5.5-13.137-.71-19.172,4.793-20.593,4.513-6.5,7.306-5.68S592.825,332.5,584.126,332.683Z" transform="translate(-406.604 -178.593)" fill="#d2e68a"/>
        <path id="Trazado_636933" data-name="Trazado 636933" d="M517.734,280.734s49.883-1.775,52.192,0,2.308,11.715-5.859,12.692-19.35,4.528-22.723,10.031-2.84,8.7-5.68,5.148-1.775-7.278-6.923-9.586S512.763,281.977,517.734,280.734Z" transform="translate(-407.848 -178.836)" fill="#d2e68a"/>
        <path id="Trazado_636934" data-name="Trazado 636934" d="M565.189,354.108a17.356,17.356,0,0,0-8.369,4.438c-3.905,3.728-10.75,4-17.042,4.518s-5.681,7.376-5.681,7.376S565.392,358.013,565.189,354.108Z" transform="translate(-407.524 -177.473)" fill="#d2e68a"/>
        <path id="Trazado_636935" data-name="Trazado 636935" d="M476.925,317.248s-11.895-1.447-15.8-7.2-6.39-26.17,1.065-27.058,6.569,9.76,13.847,11.981,13.137,13.137,10.474,18.152S476.925,317.248,476.925,317.248Z" transform="translate(-408.933 -178.781)" fill="#d2e68a"/>
        <path id="Trazado_636936" data-name="Trazado 636936" d="M428.111,329.383s7.1-4.261,11.361,1.242,6.036,15,11.716,15.309,13.137,8.656,9.764,11.142S438.464,341.408,428.111,329.383Z" transform="translate(-409.471 -177.956)" fill="#d2e68a"/>
        <path id="Trazado_636937" data-name="Trazado 636937" d="M532.636,293.377s-8.344-6.834-5.326-8.787,30.179-3.2,34.085,0-13.087.177-17.728,6.39-1.961,11.37-5.52,9.147S532.636,293.377,532.636,293.377Z" transform="translate(-407.66 -178.787)" fill="#e5fa96"/>
        <path id="Trazado_636938" data-name="Trazado 636938" d="M461.209,302.036s-3.151-12.249.932-12.426,5.431,7.278,10.083,9.232,10.865,10.474,5.894,12.071A13.769,13.769,0,0,1,461.209,302.036Z" transform="translate(-408.884 -178.658)" fill="#e5fa96"/>
        <path id="Trazado_636939" data-name="Trazado 636939" d="M414.165,257.953s15.343-43.848,46.727-61.778c0,0,7.062,3.645,5.643,10.432s-4.793,11.048-2.841,19.214.178,13.847-6.923,16.687-13.137-1.065-18.108,6.391S414.165,257.953,414.165,257.953Z" transform="translate(-409.727 -180.375)" fill="#d2e68a"/>
        <path id="Trazado_636940" data-name="Trazado 636940" d="M457.1,204.717s-31.066,27.871-31.776,38.877,10.662-4.438,14.917-4.971,17.569-2.663,16.859-14.379A143.009,143.009,0,0,1,457.1,204.717Z" transform="translate(-409.523 -180.218)" fill="#e5fa96"/>
        <path id="Trazado_636941" data-name="Trazado 636941" d="M471.753,192.849s26.781-10.829,33.171-8.522c0,0-3.55,94.461-1.6,97.381s5.435,1.676,7.776,4.516,2.164,11.547,9.088,15.716,5.772,3.074,7.147,9.923,2.692,16.967-14.033,16.79-10.866-13.847-17.79-23.078S480.782,292.793,480.072,288s-.711-13.137-14.557-12.96-13.137,14.021-13.492,21.745,6.036,18.851,2.309,22.341-25.919,6.507-30.179,3.49-17.043-38-10.828-57.43c0,0,28.127,4.883,31.461-.619s1.025-7.457,6.529-9.409,21.685,1.6,23.536-11.716-6.033-17.4-1.736-27.338S471.753,192.849,471.753,192.849Z" transform="translate(-409.773 -180.599)" fill="#0aa1bf"/>
        <path id="Trazado_636942" data-name="Trazado 636942" d="M478.355,194.536s14.557-7.634,19.883-5.326-1.953,53.08,0,70.121-16.414,10.474-27.469,10.12-18.333,2.129-21.527,13.491,3.373,22.723-2.13,27.161-15.089,10.119-20.592,0-11.007-36.037-6.924-38.7,13.67,2.84,22.723-.888,5.934-9.586,18.5-11.538,15.939-6.924,18.956-14.2-2.84-10.828-2.84-20.237S478.355,194.536,478.355,194.536Z" transform="translate(-409.653 -180.511)" fill="#0bb2d4"/>
        <path id="Trazado_636943" data-name="Trazado 636943" d="M479.592,274.8s11.126,1.952,14.676,0,.888,6.39,7.1,9.232,4.513,11.184,10.689,18.107,14.28,13.137,5.08,18.108-15.165-11.185-18.04-17.93-9.8-5.331-13.882-12.429A55.406,55.406,0,0,1,479.592,274.8Z" transform="translate(-408.525 -178.936)" fill="#0bb2d4"/>
        <path id="Trazado_636944" data-name="Trazado 636944" d="M460.236,323.432s18.423,11.958,26.057,7.164,4.615-6.095,9.941-4.645,7.572,8.511,21.449,5.779,13.168-9.029,21.157-10.674,7.9-6.97,13.8-11.763,16.925-3.186,23.219-9.138-.274-18.733,3.809-18.733,19.35-1.253,20.237,1.237S596,291.541,590.144,295.8s-2.308,11.3-4.971,21.541-7.811,16.8-7.989,24.26-4.97,8.7-12.6,9.232-6.3,4.971-11.938,5.325-15.507.514-20.867,8.246-6.781,10.039-22.759,10.039-34.794-5.5-37.812-8.521c-2.656-2.656-2.982-8.926-3.834-12.37-1.087-4.391-2.341-12.68-7.383-14.27-2.586-.816-5.31.069-7.419-2.054-2.735-2.756-3.61-6.474-1.6-9.907C452.389,324.895,457.265,321.5,460.236,323.432Z" transform="translate(-409.071 -178.815)" fill="#0aa1bf"/>
        <path id="Trazado_636945" data-name="Trazado 636945" d="M460.252,333.935c1.637,1.035,3.8,1.224,5.264,2.525,1.792,1.591,2.061,4.388,2.5,6.6,2.308,11.677,3.118,17.628,19.116,24.219s27.816,2.9,34.528-.826,10.619-14.734,19.139-15.8,26.259-1.826,31.5-7.594,1.48-18.452,8.439-31.8-.064-11.732-6.157-6.938-16.566,4.438-24.377,15.622-5.787,11.539-18.6,12.6-15.125,3.017-24,7.455-9.764-5.68-15.267-5.326-6.213,4.084-10.651,3.373c-3.291-.526-5.882-2.433-8.752-3.964-2.852-1.521-7.088-4.231-10.37-4.405C460.493,329.566,457.776,332.371,460.252,333.935Z" transform="translate(-408.898 -178.452)" fill="#0bb2d4"/>
        <g id="Grupo_894611" data-name="Grupo 894611" transform="translate(36.215 32.154)">
          <path id="Trazado_636946" data-name="Trazado 636946" d="M456.552,253.837s16.11,2,17.472-10.913-4.795-16.65-2.963-22.81,2.292-7.88,2.292-7.88" transform="translate(-445.164 -212.234)" fill="none" stroke="#0dc9f0" stroke-miterlimit="10" stroke-width="2.048"/>
          <path id="Trazado_636947" data-name="Trazado 636947" d="M478.2,230.833s8.661,18.051-8.384,26.483" transform="translate(-444.92 -211.892)" fill="none" stroke="#0dc9f0" stroke-miterlimit="10" stroke-width="2.048"/>
          <path id="Trazado_636948" data-name="Trazado 636948" d="M458.462,276.006s11.9-5.195,16.859,1.6.313,7.856,7.353,12.29,17.308,13.538,13.98,23.391" transform="translate(-445.128 -211.097)" fill="none" stroke="#0dc9f0" stroke-miterlimit="10" stroke-width="2.048"/>
          <path id="Trazado_636949" data-name="Trazado 636949" d="M516.46,298.552c.641.524,2.668,1.957,7.3,5.053s.616,8.188,6.795,13.453,12.736,2.335,14.871-4.189,9.514-8.5,15.8-8.831,14.78-1.4,15.53-7.447" transform="translate(-444.063 -210.684)" fill="none" stroke="#0dc9f0" stroke-miterlimit="10" stroke-width="2.048"/>
          <path id="Trazado_636950" data-name="Trazado 636950" d="M522.417,316.805a16.87,16.87,0,0,0,16.687,7.75c11.362-1.6,13.847-14.2,13.847-14.2" transform="translate(-443.953 -210.431)" fill="none" stroke="#0dc9f0" stroke-miterlimit="10" stroke-width="2.048"/>
          <path id="Trazado_636951" data-name="Trazado 636951" d="M568.87,348.835s-9.835-.8-14.452,3.439-4.971,5.233-13.136,4.648-10.222,5.232-11.766,7.384" transform="translate(-443.823 -209.725)" fill="none" stroke="#0dc9f0" stroke-miterlimit="10" stroke-width="2.048"/>
          <path id="Trazado_636952" data-name="Trazado 636952" d="M445.369,326.934s2.308,9.211,6.568,10.809,13.847.733,15.977,6.787,3.22,17.178,3.22,17.178" transform="translate(-445.369 -210.127)" fill="none" stroke="#0dc9f0" stroke-miterlimit="10" stroke-width="2.048"/>
          <path id="Trazado_636953" data-name="Trazado 636953" d="M459.265,331.97s15.386,2.308,14.908,15.444" transform="translate(-445.114 -210.034)" fill="none" stroke="#0dc9f0" stroke-miterlimit="10" stroke-width="2.048"/>
        </g>
        <g id="Grupo_894617" data-name="Grupo 894617" transform="translate(14.709 28.759)">
          <g id="Grupo_894612" data-name="Grupo 894612" transform="translate(59.106)">
            <path id="Trazado_636954" data-name="Trazado 636954" d="M482.291,209.629s5.424-2.276,3.747,7.152c-.551,3.1-1.77,6.78-.941,9.921a4.738,4.738,0,0,0,7.647,2.389c5.334-4.749-2.547-14.95,1.672-20.191" transform="translate(-482.291 -208.9)" fill="none" stroke="#0992ad" stroke-miterlimit="10" stroke-width="1.367"/>
            <path id="Trazado_636955" data-name="Trazado 636955" d="M487.171,222.652s-1.6,4.619,2.309,5.686" transform="translate(-482.207 -208.647)" fill="none" stroke="#fff" stroke-miterlimit="10" stroke-width="1.025"/>
          </g>
          <g id="Grupo_894613" data-name="Grupo 894613" transform="translate(63.552 137.203)">
            <path id="Trazado_636956" data-name="Trazado 636956" d="M486.656,344.356s5.425-2.276,3.748,7.153c-.551,3.095-1.77,6.78-.942,9.921a4.739,4.739,0,0,0,7.647,2.389c5.335-4.75-2.546-14.951,1.673-20.191" transform="translate(-486.656 -343.628)" fill="none" stroke="#0992ad" stroke-miterlimit="10" stroke-width="1.367"/>
            <path id="Trazado_636957" data-name="Trazado 636957" d="M491.536,357.38s-1.6,4.618,2.31,5.685" transform="translate(-486.572 -343.375)" fill="none" stroke="#fff" stroke-miterlimit="10" stroke-width="1.025"/>
          </g>
          <g id="Grupo_894614" data-name="Grupo 894614" transform="translate(116.197 128.394)">
            <path id="Trazado_636958" data-name="Trazado 636958" d="M538.352,335.39s3.072-1.289,2.122,4.053c-.312,1.754-1,3.841-.533,5.621a2.685,2.685,0,0,0,4.332,1.353c3.023-2.692-1.443-8.471.948-11.44" transform="translate(-538.352 -334.978)" fill="none" stroke="#0992ad" stroke-miterlimit="10" stroke-width="0.774"/>
            <path id="Trazado_636959" data-name="Trazado 636959" d="M541.116,342.77s-.905,2.617,1.309,3.221" transform="translate(-538.305 -334.835)" fill="none" stroke="#fff" stroke-miterlimit="10" stroke-width="0.581"/>
          </g>
          <g id="Grupo_894615" data-name="Grupo 894615" transform="translate(0 67.046)">
            <path id="Trazado_636960" data-name="Trazado 636960" d="M424.251,275.77s7.7-3.23,5.317,10.149c-.781,4.392-2.511,9.621-1.335,14.078,1.2,4.542,7.041,6.781,10.851,3.39,7.57-6.74-3.613-21.214,2.374-28.651" transform="translate(-424.251 -274.736)" fill="none" stroke="#0992ad" stroke-miterlimit="10" stroke-width="1.939"/>
            <path id="Trazado_636961" data-name="Trazado 636961" d="M431.175,294.249s-2.268,6.554,3.277,8.068" transform="translate(-424.132 -274.378)" fill="none" stroke="#fff" stroke-miterlimit="10" stroke-width="1.454"/>
          </g>
          <g id="Grupo_894616" data-name="Grupo 894616" transform="translate(132.298 107.772)">
            <path id="Trazado_636962" data-name="Trazado 636962" d="M554.162,315.638s6.777-2.844,4.682,8.936c-.688,3.867-2.212,8.471-1.176,12.4a5.921,5.921,0,0,0,9.554,2.985c6.664-5.934-3.181-18.679,2.09-25.227" transform="translate(-554.162 -314.728)" fill="none" stroke="#0992ad" stroke-miterlimit="10" stroke-width="1.707"/>
            <path id="Trazado_636963" data-name="Trazado 636963" d="M560.259,331.91s-2,5.771,2.886,7.1" transform="translate(-554.057 -314.412)" fill="none" stroke="#fff" stroke-miterlimit="10" stroke-width="1.281"/>
          </g>
        </g>
      </g>
      <g id="Grupo_894620" data-name="Grupo 894620" transform="translate(88.371 89.624)">
        <path id="Trazado_636964" data-name="Trazado 636964" d="M514.559,284.461l64.252-5.849-64.252-5.849a9.946,9.946,0,1,0,0,11.7Zm-12.242-5.849a4.213,4.213,0,1,1,4.213,4.213A4.209,4.209,0,0,1,502.317,278.612Z" transform="translate(-496.584 -268.667)" fill="#fff"/>
        <g id="Grupo_894619" data-name="Grupo 894619" transform="translate(0 9.162)">
          <path id="Trazado_636965" data-name="Trazado 636965" d="M514.576,283.054a9.927,9.927,0,0,1-17.952-5.39c-.02.259-.04.518-.04.783a9.936,9.936,0,0,0,17.975,5.849l64.252-5.849-6.816-.62Z" transform="translate(-496.584 -277.664)" fill="#d4d4d4"/>
        </g>
        <circle id="Elipse_5234" data-name="Elipse 5234" cx="2.117" cy="2.117" r="2.117" transform="translate(7.773 7.851)" fill="#fff"/>
      </g>
    </g>
    <g id="Grupo_894623" data-name="Grupo 894623" transform="translate(357.334 235.56)">
      <path id="Trazado_636966" data-name="Trazado 636966" d="M436.266,260.773a9.638,9.638,0,0,0-1.22.087,14.565,14.565,0,0,0-14.1-10.934c-.485,0-.963.026-1.436.072a19.01,19.01,0,0,0-37.59.084,14.4,14.4,0,0,0-14.992,7.8c-.038,0-.074-.006-.112-.006a9.518,9.518,0,1,0,4.113,18.09,14.544,14.544,0,0,0,18.258-.235,18.942,18.942,0,0,0,24.069,1.13,14.526,14.526,0,0,0,15.863-.3,9.514,9.514,0,1,0,7.144-15.792Z" transform="translate(-357.3 -233.881)" fill="#e8e8e8"/>
      <g id="Grupo_894622" data-name="Grupo 894622" transform="translate(1.446 27.675)">
        <path id="Trazado_636967" data-name="Trazado 636967" d="M440.017,261.057a9.507,9.507,0,0,1-15.215,11.3,14.532,14.532,0,0,1-15.863.3,18.942,18.942,0,0,1-24.069-1.13,14.548,14.548,0,0,1-18.258.235,9.46,9.46,0,0,1-7.89.162,9.476,9.476,0,0,0,12.185,3.547,14.544,14.544,0,0,0,18.258-.235,18.942,18.942,0,0,0,24.069,1.13,14.526,14.526,0,0,0,15.863-.3,9.513,9.513,0,1,0,10.921-15.009Z" transform="translate(-358.72 -261.057)" fill="#d4d4d4"/>
      </g>
    </g>
    <g id="Grupo_894625" data-name="Grupo 894625" transform="translate(428.926 304.833)">
      <path id="Trazado_636968" data-name="Trazado 636968" d="M478.272,319.161a6.007,6.007,0,0,0-.783.056,9.348,9.348,0,0,0-9.046-7.017,9.186,9.186,0,0,0-.922.047,12.2,12.2,0,0,0-24.121.053,9.242,9.242,0,0,0-9.621,5.006c-.024,0-.048,0-.072,0a6.108,6.108,0,1,0,2.64,11.608,9.334,9.334,0,0,0,11.716-.151,12.153,12.153,0,0,0,15.445.725,9.324,9.324,0,0,0,10.18-.19,6.105,6.105,0,1,0,4.585-10.134Z" transform="translate(-427.6 -301.905)" fill="#e8e8e8"/>
      <g id="Grupo_894624" data-name="Grupo 894624" transform="translate(0.928 17.758)">
        <path id="Trazado_636969" data-name="Trazado 636969" d="M480.679,319.343a6.1,6.1,0,0,1-9.764,7.252,9.324,9.324,0,0,1-10.18.19,12.153,12.153,0,0,1-15.445-.725,9.334,9.334,0,0,1-11.716.151,6.071,6.071,0,0,1-5.063.1,6.08,6.08,0,0,0,7.819,2.275,9.334,9.334,0,0,0,11.716-.151,12.153,12.153,0,0,0,15.445.725,9.324,9.324,0,0,0,10.18-.19,6.1,6.1,0,1,0,7.008-9.632Z" transform="translate(-428.511 -319.343)" fill="#d4d4d4"/>
      </g>
    </g>
    <g id="Grupo_894627" data-name="Grupo 894627" transform="translate(355.454 295.295)">
      <path id="Trazado_636970" data-name="Trazado 636970" d="M417.5,313.669a7.42,7.42,0,0,0-.958.068,11.446,11.446,0,0,0-11.077-8.592c-.381,0-.758.02-1.129.057a14.936,14.936,0,0,0-29.535.065,11.645,11.645,0,0,0-1.587-.122,11.441,11.441,0,0,0-10.194,6.253c-.03,0-.058,0-.089,0a7.478,7.478,0,1,0,3.232,14.213,11.428,11.428,0,0,0,14.346-.185,14.884,14.884,0,0,0,18.912.889,11.418,11.418,0,0,0,12.465-.234,7.475,7.475,0,1,0,5.613-12.408Z" transform="translate(-355.454 -292.539)" fill="#e8e8e8"/>
      <g id="Grupo_894626" data-name="Grupo 894626" transform="translate(1.135 21.745)">
        <path id="Trazado_636971" data-name="Trazado 636971" d="M420.447,313.892a7.47,7.47,0,0,1-11.955,8.879,11.415,11.415,0,0,1-12.465.233,14.882,14.882,0,0,1-18.912-.888,11.426,11.426,0,0,1-14.346.184,7.433,7.433,0,0,1-6.2.128,7.448,7.448,0,0,0,9.575,2.786,11.428,11.428,0,0,0,14.346-.185,14.884,14.884,0,0,0,18.912.889,11.418,11.418,0,0,0,12.465-.234,7.474,7.474,0,1,0,8.581-11.793Z" transform="translate(-356.569 -313.892)" fill="#d4d4d4"/>
      </g>
    </g>
    <g id="Grupo_894628" data-name="Grupo 894628" transform="translate(376.029 270.995)">
      <path id="Trazado_636972" data-name="Trazado 636972" d="M381.075,343.411h70.29a5.41,5.41,0,0,0,4.74-8.016l-35.145-63.915a5.408,5.408,0,0,0-9.479,0L376.335,335.4A5.409,5.409,0,0,0,381.075,343.411Z" transform="translate(-375.658 -268.678)" fill="#fcd04e"/>
      <path id="Trazado_636973" data-name="Trazado 636973" d="M456.093,335.4,420.948,271.48a5.409,5.409,0,0,0-7.749-1.886l34.58,62.89a5.409,5.409,0,0,1-4.74,8.015H376.276a5.358,5.358,0,0,0,4.787,2.913h70.29A5.41,5.41,0,0,0,456.093,335.4Z" transform="translate(-375.647 -268.677)" fill="#ffae5a"/>
      <text id="_" data-name="!" transform="translate(40.072 59.719)" fill="#065f70" font-size="47" font-family="BebasNeue-Regular, Bebas Neue" letter-spacing="0.015em"><tspan x="-4.935" y="0">!</tspan></text>
      <line id="Línea_222" data-name="Línea 222" x1="19.207" y2="35.783" transform="translate(14.187 15.419)" fill="none" stroke="#fff" stroke-linecap="round" stroke-linejoin="round" stroke-width="2.481" opacity="0.57"/>
    </g>
  </g>
</svg>
