<svg xmlns="http://www.w3.org/2000/svg" width="180.469" height="178.402" viewBox="0 0 180.469 178.402">
  <g id="Hero_Image" data-name="Hero Image" transform="translate(0 0)">
    <g id="Group" transform="translate(0 0)">
      <path id="Path" d="M45.143,0C6.54,0-12.674,13.355,9.182,16.973c29.335,4.856,41.712,3.131,30.583,9.856s-1.149,9.787,25.019,6.665,18.374-8.788,37.348-10.448,51.616-19.6-24.6-21.286C53.657,1.3,45.143,0,45.143,0Z" transform="translate(0 143.681)" fill="#f0f3fc"/>
      <ellipse id="Oval" cx="2.957" cy="0.397" rx="2.957" ry="0.397" transform="translate(174.554 157.161)" opacity="0.1"/>
      <path id="Shape" d="M0,64.413C0,24.927,42.517-3.727,81.8.394c42.789,4.49,107.065,56.483,67.406,76.832-75.686,38.809-31.123,57.639-69.779,60.4q-2.149.153-4.295.152C37.184,137.774,0,102.476,0,64.413Z" transform="translate(10.143 0)" fill="#f0f3fc"/>
    </g>
    <g id="Group-2" data-name="Group" transform="translate(14.568 25.106)">
      <g id="Group-3" data-name="Group" transform="translate(116.351 125.225)">
        <path id="Path-2" data-name="Path" d="M30.211,7.3a.53.53,0,0,1-.22.337,2.517,2.517,0,0,1-1.237.482,11.742,11.742,0,0,1-2.254,0c-3.216-.241-6.4-.578-9.647-.578A26.427,26.427,0,0,0,7.674,8.889a9.083,9.083,0,0,1-2.281.7,8.6,8.6,0,0,1-3.051-.361A5.352,5.352,0,0,1,.2,8.335.454.454,0,0,1,.007,7.9c.137-.747,1.979-.988,3.408-1.156A20.284,20.284,0,0,0,9.708,5.107a1.786,1.786,0,0,0,.522-.313.464.464,0,0,0,.247-.265c.22-.626-1.429-.94-2.638-.988a6.428,6.428,0,0,1-2.418-.53c-.192-.145-.3-.289-.22-.482.11-.313.66-.53,1.182-.674A44.958,44.958,0,0,1,18.86,0l3.958.313a23.164,23.164,0,0,1,6.4,2.433c.522.265,1.072.578,1.017.964a.59.59,0,0,1-.192.361c-.495.458-1.649.8-1.7,1.325a.456.456,0,0,0,.192.41C28.974,6.311,30.266,6.72,30.211,7.3Z" transform="translate(0 0)" fill="#92c1cc"/>
        <path id="Path-3" data-name="Path" d="M29.791,6.865a2.517,2.517,0,0,1-1.237.482,11.742,11.742,0,0,1-2.254,0c-3.216-.241-6.4-.578-9.647-.578A26.427,26.427,0,0,0,7.475,8.118a9.083,9.083,0,0,1-2.281.7,8.6,8.6,0,0,1-3.051-.361A5.352,5.352,0,0,1,0,7.564c.522-.506,2.006-.7,3.215-.819A20.979,20.979,0,0,0,9.509,5.083c.33-.145.687-.337.77-.554a.441.441,0,0,0-.247-.506.464.464,0,0,0,.247-.265c.22-.626-1.429-.94-2.638-.988a6.428,6.428,0,0,1-2.418-.53,3.712,3.712,0,0,1,.962-.41A44.083,44.083,0,0,1,18.661,0l3.958.313a22.408,22.408,0,0,1,6.4,2.409,2.527,2.527,0,0,1,.824.578c-.495.458-1.649.8-1.7,1.325a.456.456,0,0,0,.192.41.589.589,0,0,0-.192.361C28.087,5.974,29.324,6.359,29.791,6.865Z" transform="translate(0.199 0.771)" fill="#cce9f1"/>
      </g>
      <g id="Group-4" data-name="Group" transform="translate(0 18.16)">
        <path id="Path-4" data-name="Path" d="M64.267,0V95.9c0,3.535-14.38,6.407-32.134,6.407S0,99.434,0,95.9V0Z" transform="translate(0 10.507)" fill="#cce9f1"/>
        <ellipse id="Oval-2" data-name="Oval" cx="32.134" cy="6.409" rx="32.134" ry="6.409" transform="translate(0 3.913)" fill="#8dc5ce"/>
        <path id="Path-5" data-name="Path" d="M14.7,0C6.66,0,.14,1.3.14,2.9-.175,2.9.14,5,.14,5,.14,6.6,6.66,7.9,14.7,7.9S29.265,6.6,29.265,5V2.9C29.265,1.3,22.745,0,14.7,0Z" transform="translate(17.431 0)" fill="#cce9f1"/>
        <g id="Group-5" data-name="Group" transform="translate(23.876 22.575)">
          <ellipse id="Oval-3" data-name="Oval" cx="1.321" cy="1.387" rx="1.321" ry="1.387" transform="translate(13.873 0)" fill="#7676c4"/>
          <ellipse id="Oval-4" data-name="Oval" cx="1.321" cy="1.387" rx="1.321" ry="1.387" transform="translate(0 0)" fill="#7676c4"/>
          <path id="Path-6" data-name="Path" d="M7.622,3.375C4.792,3.375,0,2.812,0,.7A.685.685,0,0,1,1.371.7C1.509,1.052,3.576,2,7.622,2s6.113-.952,6.255-1.332A.673.673,0,0,1,14.56,0a.694.694,0,0,1,.684.7C15.244,2.811,10.453,3.375,7.622,3.375Z" transform="translate(0.635 0.69)" fill="#adadea"/>
        </g>
        <g id="Group-6" data-name="Group" transform="translate(23.876 33.848)">
          <ellipse id="Oval-5" data-name="Oval" cx="1.321" cy="1.387" rx="1.321" ry="1.387" transform="translate(13.873 0)" fill="#7676c4"/>
          <ellipse id="Oval-6" data-name="Oval" cx="1.321" cy="1.387" rx="1.321" ry="1.387" transform="translate(0 0)" fill="#7676c4"/>
          <path id="Path-7" data-name="Path" d="M7.622,3.375C4.792,3.375,0,2.812,0,.7A.685.685,0,0,1,1.371.7C1.509,1.052,3.576,2,7.622,2s6.113-.952,6.255-1.332A.673.673,0,0,1,14.56,0a.694.694,0,0,1,.684.7C15.244,2.812,10.453,3.375,7.622,3.375Z" transform="translate(0.635 0.689)" fill="#adadea"/>
        </g>
        <g id="Group-7" data-name="Group" transform="translate(23.876 45.121)">
          <ellipse id="Oval-7" data-name="Oval" cx="1.321" cy="1.387" rx="1.321" ry="1.387" transform="translate(13.873 0)" fill="#7676c4"/>
          <ellipse id="Oval-8" data-name="Oval" cx="1.321" cy="1.387" rx="1.321" ry="1.387" transform="translate(0 0)" fill="#7676c4"/>
          <path id="Path-8" data-name="Path" d="M7.622,3.375C4.792,3.375,0,2.812,0,.7A.685.685,0,0,1,1.371.7C1.509,1.052,3.576,2,7.622,2s6.113-.952,6.255-1.332A.673.673,0,0,1,14.56,0a.694.694,0,0,1,.684.7C15.244,2.812,10.453,3.375,7.622,3.375Z" transform="translate(0.635 0.689)" fill="#adadea"/>
        </g>
        <g id="Group-8" data-name="Group" transform="translate(23.876 56.394)">
          <ellipse id="Oval-9" data-name="Oval" cx="1.321" cy="1.387" rx="1.321" ry="1.387" transform="translate(13.873 0)" fill="#7676c4"/>
          <ellipse id="Oval-10" data-name="Oval" cx="1.321" cy="1.387" rx="1.321" ry="1.387" transform="translate(0 0)" fill="#7676c4"/>
          <path id="Path-9" data-name="Path" d="M7.622,3.375C4.792,3.375,0,2.812,0,.7A.685.685,0,0,1,1.371.7C1.509,1.052,3.576,2,7.622,2s6.113-.952,6.255-1.332A.673.673,0,0,1,14.56,0a.694.694,0,0,1,.684.7C15.244,2.811,10.453,3.375,7.622,3.375Z" transform="translate(0.635 0.69)" fill="#adadea"/>
        </g>
        <g id="Group-9" data-name="Group" transform="translate(23.876 67.667)">
          <ellipse id="Oval-11" data-name="Oval" cx="1.321" cy="1.387" rx="1.321" ry="1.387" transform="translate(13.873 0)" fill="#7676c4"/>
          <ellipse id="Oval-12" data-name="Oval" cx="1.321" cy="1.387" rx="1.321" ry="1.387" transform="translate(0 0)" fill="#7676c4"/>
          <path id="Path-10" data-name="Path" d="M7.622,3.375C4.792,3.375,0,2.812,0,.7A.685.685,0,0,1,1.371.7C1.509,1.052,3.576,2,7.622,2s6.113-.952,6.255-1.332A.673.673,0,0,1,14.56,0a.694.694,0,0,1,.684.7C15.244,2.812,10.453,3.375,7.622,3.375Z" transform="translate(0.635 0.689)" fill="#adadea"/>
        </g>
        <g id="Group-10" data-name="Group" transform="translate(23.876 78.939)">
          <ellipse id="Oval-13" data-name="Oval" cx="1.321" cy="1.387" rx="1.321" ry="1.387" transform="translate(13.873 0)" fill="#7676c4"/>
          <ellipse id="Oval-14" data-name="Oval" cx="1.321" cy="1.387" rx="1.321" ry="1.387" transform="translate(0 0)" fill="#7676c4"/>
          <path id="Path-11" data-name="Path" d="M7.622,3.375C4.792,3.375,0,2.811,0,.7A.685.685,0,0,1,1.371.7C1.509,1.052,3.576,2,7.622,2s6.113-.952,6.255-1.332A.673.673,0,0,1,14.56,0a.694.694,0,0,1,.684.7C15.244,2.811,10.453,3.375,7.622,3.375Z" transform="translate(0.635 0.69)" fill="#adadea"/>
        </g>
        <g id="Group-11" data-name="Group" transform="translate(23.876 90.212)">
          <ellipse id="Oval-15" data-name="Oval" cx="1.321" cy="1.387" rx="1.321" ry="1.387" transform="translate(13.873 0)" fill="#7676c4"/>
          <ellipse id="Oval-16" data-name="Oval" cx="1.321" cy="1.387" rx="1.321" ry="1.387" transform="translate(0 0)" fill="#7676c4"/>
          <path id="Path-12" data-name="Path" d="M7.622,3.375C4.792,3.375,0,2.812,0,.7A.685.685,0,0,1,1.371.7C1.509,1.052,3.576,2,7.622,2s6.113-.952,6.255-1.332A.673.673,0,0,1,14.56,0a.694.694,0,0,1,.684.7C15.244,2.812,10.453,3.375,7.622,3.375Z" transform="translate(0.635 0.689)" fill="#adadea"/>
        </g>
        <g id="Group-12" data-name="Group" transform="translate(23.876 101.485)">
          <ellipse id="Oval-17" data-name="Oval" cx="1.321" cy="1.387" rx="1.321" ry="1.387" transform="translate(13.873 0)" fill="#7676c4"/>
          <ellipse id="Oval-18" data-name="Oval" cx="1.321" cy="1.387" rx="1.321" ry="1.387" transform="translate(0 0)" fill="#7676c4"/>
          <path id="Path-13" data-name="Path" d="M7.622,3.375C4.792,3.375,0,2.812,0,.7A.685.685,0,0,1,1.371.7C1.509,1.052,3.576,2,7.622,2s6.113-.952,6.255-1.332A.673.673,0,0,1,14.56,0a.694.694,0,0,1,.684.7C15.244,2.812,10.453,3.375,7.622,3.375Z" transform="translate(0.635 0.689)" fill="#adadea"/>
        </g>
      </g>
      <g id="Group-13" data-name="Group" transform="translate(29.704 0)">
        <path id="Path-14" data-name="Path" d="M101.535,54.8H82.456V46.53H80.027V54.8H76.1a9.462,9.462,0,0,0-9.452,9.452v17.43a9.414,9.414,0,1,1-18.827,0V9.452A9.462,9.462,0,0,0,38.372,0H9.452A9.462,9.462,0,0,0,0,9.452v4.7a2.429,2.429,0,0,0,4.858,0v-4.7A4.6,4.6,0,0,1,9.451,4.859H38.372a4.6,4.6,0,0,1,4.593,4.593V81.686a14.272,14.272,0,1,0,28.544,0V64.256A4.6,4.6,0,0,1,76.1,59.663h25.432a4.6,4.6,0,0,1,4.593,4.593v59.513a2.429,2.429,0,0,0,4.859,0V64.256A9.461,9.461,0,0,0,101.535,54.8Z" transform="translate(0 4.368)" fill="#393768"/>
        <g id="Group-14" data-name="Group" transform="translate(98.159 84.506)">
          <path id="Path-15" data-name="Path" d="M20.8,10.4a1.2,1.2,0,0,1-1.215,1.215H11.612V19.58a1.215,1.215,0,0,1-2.429,0V11.612H1.215a1.215,1.215,0,1,1,0-2.429H9.183V1.215A1.2,1.2,0,0,1,10.4,0a.824.824,0,0,1,.243.024,1.222,1.222,0,0,1,.972,1.19V9.183H19.58a1.222,1.222,0,0,1,1.19.972A.825.825,0,0,1,20.8,10.4Z" transform="translate(0 0)" fill="#8c8cd3"/>
          <path id="Path-16" data-name="Path" d="M8.357,4.178a1.847,1.847,0,0,1-.024.364,3.311,3.311,0,0,1-.17.85A4.024,4.024,0,0,1,5.879,7.968a1.692,1.692,0,0,1-.486.194,4.1,4.1,0,0,1-1.215.194,4.1,4.1,0,0,1-1.215-.194A4.067,4.067,0,0,1,.194,5.393,4.1,4.1,0,0,1,0,4.178,4.1,4.1,0,0,1,.194,2.964,4,4,0,0,1,1.482,1a3.664,3.664,0,0,1,1.482-.8A1.979,1.979,0,0,1,3.717.049,1.492,1.492,0,0,1,4.178,0,4.1,4.1,0,0,1,5.393.194a4.067,4.067,0,0,1,2.77,2.77A4.1,4.1,0,0,1,8.357,4.178Z" transform="translate(6.219 6.219)" fill="#b1b1f2"/>
          <path id="Shape-2" data-name="Shape" d="M0,10.4A10.409,10.409,0,0,1,10.4,0a.822.822,0,0,1,.243.024,9.754,9.754,0,0,1,4.421,1.093,10.347,10.347,0,0,1,5.1,5.758c.024,0,.024.024.024.049a9.418,9.418,0,0,1,.583,3.231.816.816,0,0,1,.024.243,10.174,10.174,0,0,1-3.207,7.458A10.218,10.218,0,0,1,10.4,20.795,10.409,10.409,0,0,1,0,10.4Z" transform="translate(0 0)" fill="#adadea"/>
        </g>
        <g id="Group-15" data-name="Group" transform="translate(5.006)">
          <path id="Path-17" data-name="Path" d="M11.311,5.3h-4.6V.7A.7.7,0,0,0,5.3.7V5.3H.7a.7.7,0,0,0,0,1.4H5.3v4.6a.7.7,0,0,0,1.4,0v-4.6h4.6a.7.7,0,0,0,0-1.4Z" fill="#8c8cd3"/>
          <ellipse id="Oval-19" data-name="Oval" cx="2.417" cy="2.417" rx="2.417" ry="2.417" transform="translate(3.589 3.589)" fill="#b1b1f2"/>
          <path id="Shape-3" data-name="Shape" d="M0,6.005a6.006,6.006,0,1,1,6.006,6.006A6.013,6.013,0,0,1,0,6.005Z" fill="#adadea"/>
        </g>
        <g id="Group-16" data-name="Group" transform="translate(71.981 27.689)">
          <g id="Group-17" data-name="Group" transform="translate(17.297 0)">
            <path id="Path-18" data-name="Path" d="M2.36,21.5H.644A.644.644,0,0,1,0,20.853H0a.644.644,0,0,1,.644-.644H2.36a2.01,2.01,0,0,0,2.01-2.01V0H5.657V18.2A3.3,3.3,0,0,1,2.36,21.5Z" transform="translate(0 2.934)" fill="#adadea"/>
            <g id="Group-18" data-name="Group" transform="translate(2.182)">
              <ellipse id="Oval-20" data-name="Oval" cx="2.581" cy="2.581" rx="2.581" ry="2.581" transform="translate(0.339)" fill="#9accd8"/>
              <ellipse id="Oval-21" data-name="Oval" cx="2.581" cy="2.581" rx="2.581" ry="2.581" transform="translate(0 0.102)" fill="#cce9f1"/>
              <path id="Path-19" data-name="Path" d="M.151.845,1.3.023a.122.122,0,0,1,.17.17L.652,1.346A.359.359,0,0,1,.067.929.365.365,0,0,1,.151.845Z" transform="translate(2.179 1.588)" fill="#393768"/>
              <g id="Group-19" data-name="Group" transform="translate(0.424 0.526)">
                <ellipse id="Oval-22" data-name="Oval" cx="0.182" cy="0.182" rx="0.182" ry="0.182" transform="translate(1.975 0)" fill="#9accd8"/>
                <ellipse id="Oval-23" data-name="Oval" cx="0.182" cy="0.182" rx="0.182" ry="0.182" transform="translate(0.988 0.265)" fill="#9accd8"/>
                <ellipse id="Oval-24" data-name="Oval" cx="0.182" cy="0.182" rx="0.182" ry="0.182" transform="translate(0.265 0.988)" fill="#9accd8"/>
                <ellipse id="Oval-25" data-name="Oval" cx="0.182" cy="0.182" rx="0.182" ry="0.182" transform="translate(0 1.975)" fill="#9accd8"/>
                <ellipse id="Oval-26" data-name="Oval" cx="0.182" cy="0.182" rx="0.182" ry="0.182" transform="translate(0.265 2.963)" fill="#9accd8"/>
                <ellipse id="Oval-27" data-name="Oval" cx="0.182" cy="0.182" rx="0.182" ry="0.182" transform="translate(0.988 3.686)" fill="#9accd8"/>
                <ellipse id="Oval-28" data-name="Oval" cx="0.182" cy="0.182" rx="0.182" ry="0.182" transform="translate(3.951 1.975)" fill="#9accd8"/>
                <ellipse id="Oval-29" data-name="Oval" cx="0.182" cy="0.182" rx="0.182" ry="0.182" transform="translate(3.686 0.988)" fill="#9accd8"/>
                <ellipse id="Oval-30" data-name="Oval" cx="0.182" cy="0.182" rx="0.182" ry="0.182" transform="translate(2.963 0.265)" fill="#9accd8"/>
              </g>
            </g>
            <g id="Group-20" data-name="Group" transform="translate(2.182 7.406)">
              <ellipse id="Oval-31" data-name="Oval" cx="2.581" cy="2.581" rx="2.581" ry="2.581" transform="translate(0.339 0)" fill="#9accd8"/>
              <ellipse id="Oval-32" data-name="Oval" cx="2.581" cy="2.581" rx="2.581" ry="2.581" transform="translate(0 0.102)" fill="#cce9f1"/>
              <path id="Path-20" data-name="Path" d="M.479,1.5.007.163A.122.122,0,0,1,.217.046L1.1,1.154a.359.359,0,1,1-.62.344Z" transform="translate(1.736 1.411)" fill="#393768"/>
              <g id="Group-21" data-name="Group" transform="translate(0.424 0.526)">
                <ellipse id="Oval-33" data-name="Oval" cx="0.182" cy="0.182" rx="0.182" ry="0.182" transform="translate(1.975 0)" fill="#9accd8"/>
                <ellipse id="Oval-34" data-name="Oval" cx="0.182" cy="0.182" rx="0.182" ry="0.182" transform="translate(0.988 0.265)" fill="#9accd8"/>
                <ellipse id="Oval-35" data-name="Oval" cx="0.182" cy="0.182" rx="0.182" ry="0.182" transform="translate(0.265 0.988)" fill="#9accd8"/>
                <ellipse id="Oval-36" data-name="Oval" cx="0.182" cy="0.182" rx="0.182" ry="0.182" transform="translate(0 1.975)" fill="#9accd8"/>
                <ellipse id="Oval-37" data-name="Oval" cx="0.182" cy="0.182" rx="0.182" ry="0.182" transform="translate(0.265 2.963)" fill="#9accd8"/>
                <ellipse id="Oval-38" data-name="Oval" cx="0.182" cy="0.182" rx="0.182" ry="0.182" transform="translate(0.988 3.686)" fill="#9accd8"/>
                <ellipse id="Oval-39" data-name="Oval" cx="0.182" cy="0.182" rx="0.182" ry="0.182" transform="translate(3.951 1.975)" fill="#9accd8"/>
                <ellipse id="Oval-40" data-name="Oval" cx="0.182" cy="0.182" rx="0.182" ry="0.182" transform="translate(3.686 0.988)" fill="#9accd8"/>
                <ellipse id="Oval-41" data-name="Oval" cx="0.182" cy="0.182" rx="0.182" ry="0.182" transform="translate(2.963 0.265)" fill="#9accd8"/>
              </g>
            </g>
            <g id="Group-22" data-name="Group" transform="translate(2.182 14.811)">
              <ellipse id="Oval-42" data-name="Oval" cx="2.581" cy="2.581" rx="2.581" ry="2.581" transform="translate(0.339 0)" fill="#9accd8"/>
              <ellipse id="Oval-43" data-name="Oval" cx="2.581" cy="2.581" rx="2.581" ry="2.581" transform="translate(0 0.102)" fill="#cce9f1"/>
              <path id="Path-21" data-name="Path" d="M1.524.718.112.606A.122.122,0,0,1,.091.367L1.462.012a.36.36,0,0,1,.18.7A.378.378,0,0,1,1.524.718Z" transform="translate(1.122 2.324)" fill="#393768"/>
              <g id="Group-23" data-name="Group" transform="translate(0.424 0.525)">
                <ellipse id="Oval-44" data-name="Oval" cx="0.182" cy="0.182" rx="0.182" ry="0.182" transform="translate(1.975 0)" fill="#9accd8"/>
                <ellipse id="Oval-45" data-name="Oval" cx="0.182" cy="0.182" rx="0.182" ry="0.182" transform="translate(0.988 0.265)" fill="#9accd8"/>
                <ellipse id="Oval-46" data-name="Oval" cx="0.182" cy="0.182" rx="0.182" ry="0.182" transform="translate(0.265 0.988)" fill="#9accd8"/>
                <ellipse id="Oval-47" data-name="Oval" cx="0.182" cy="0.182" rx="0.182" ry="0.182" transform="translate(0 1.975)" fill="#9accd8"/>
                <ellipse id="Oval-48" data-name="Oval" cx="0.182" cy="0.182" rx="0.182" ry="0.182" transform="translate(0.265 2.963)" fill="#9accd8"/>
                <ellipse id="Oval-49" data-name="Oval" cx="0.182" cy="0.182" rx="0.182" ry="0.182" transform="translate(0.988 3.686)" fill="#9accd8"/>
                <ellipse id="Oval-50" data-name="Oval" cx="0.182" cy="0.182" rx="0.182" ry="0.182" transform="translate(3.951 1.975)" fill="#9accd8"/>
                <ellipse id="Oval-51" data-name="Oval" cx="0.182" cy="0.182" rx="0.182" ry="0.182" transform="translate(3.686 0.988)" fill="#9accd8"/>
                <ellipse id="Oval-52" data-name="Oval" cx="0.182" cy="0.182" rx="0.182" ry="0.182" transform="translate(2.963 0.265)" fill="#9accd8"/>
              </g>
            </g>
          </g>
          <g id="Group-24" data-name="Group" transform="translate(0 10.371)">
            <ellipse id="Oval-53" data-name="Oval" cx="8.385" cy="8.385" rx="8.385" ry="8.385" transform="matrix(0.973, -0.23, 0.23, 0.973, 0, 3.854)" fill="#8383ba"/>
            <g id="Group-25" data-name="Group" transform="translate(0.85 2.02)">
              <ellipse id="Oval-54" data-name="Oval" cx="8.385" cy="8.385" rx="8.385" ry="8.385" transform="translate(0 0)" fill="#adadea"/>
              <ellipse id="Oval-55" data-name="Oval" cx="6.891" cy="6.891" rx="6.891" ry="6.891" transform="translate(1.494 1.494)" fill="#e6e9f8"/>
              <rect id="Rectangle" width="0.616" height="1.165" transform="translate(8.077 2.335)" fill="#7c7cc1"/>
              <rect id="Rectangle-2" data-name="Rectangle" width="0.616" height="1.165" transform="translate(5.09 3.298) rotate(-30.001)" fill="#9494ed"/>
              <rect id="Rectangle-3" data-name="Rectangle" width="0.616" height="1.165" transform="translate(2.99 5.63) rotate(-59.999)" fill="#7c7cc1"/>
              <rect id="Rectangle-4" data-name="Rectangle" width="0.616" height="1.165" transform="translate(2.335 8.693) rotate(-90)" fill="#9494ed"/>
              <rect id="Rectangle-5" data-name="Rectangle" width="0.616" height="1.165" transform="translate(3.298 11.68) rotate(-120.001)" fill="#7c7cc1"/>
              <rect id="Rectangle-6" data-name="Rectangle" width="0.616" height="1.165" transform="translate(13.78 11.14) rotate(120.001)" fill="#7c7cc1"/>
              <rect id="Rectangle-7" data-name="Rectangle" width="0.616" height="1.165" transform="translate(14.435 8.077) rotate(90)" fill="#9494ed"/>
              <rect id="Rectangle-8" data-name="Rectangle" width="0.616" height="1.165" transform="translate(13.472 5.09) rotate(59.999)" fill="#7c7cc1"/>
              <rect id="Rectangle-9" data-name="Rectangle" width="0.616" height="1.165" transform="translate(11.14 2.99) rotate(30.001)" fill="#9494ed"/>
              <path id="Path-22" data-name="Path" d="M.288,2.464,3.352.06a.282.282,0,0,1,.4.4L1.345,3.52A.753.753,0,0,1,.161,2.591.8.8,0,0,1,.288,2.464Z" transform="translate(7.568 5.393)" fill="#9494ed"/>
              <path id="Path-23" data-name="Path" d="M3.8,1.505H0V.72A.72.72,0,0,1,.72,0H3.081A.72.72,0,0,1,3.8.72v.785Z" transform="translate(6.484 12.591)" fill="#bac2e0"/>
            </g>
          </g>
        </g>
        <path id="Path-24" data-name="Path" d="M4.15,16.964h0A4.15,4.15,0,0,1,0,12.814V4.15A4.15,4.15,0,0,1,4.15,0h0A4.15,4.15,0,0,1,8.3,4.15v8.664A4.15,4.15,0,0,1,4.15,16.964Z" transform="translate(41.143 44.799)" fill="#393768"/>
      </g>
      <g id="Group-26" data-name="Group" transform="translate(23.22 1.276)">
        <path id="Shape-4" data-name="Shape" d="M.224,38.432c-.267-.1-.267-.51-.146-.923a2.657,2.657,0,0,1,.656-1.215l.073-.024.316-.146.195-.583c-.243-.1-.51-.17-.753-.292l1.385-8.721.219-1.36.486-3.061A37.05,37.05,0,0,1,1.39,16.714a17.354,17.354,0,0,1,.024-5.49c-.146-.146-.292-.292-.413-.437a.912.912,0,0,1-.024-.291c0-.486.049-1.433.17-2.648.121-1.117.291-2.478.534-3.911.194-1.288.437-2.624.729-3.911C3.018,0,3.673,0,4.305,0A52.906,52.906,0,0,1,15.286,1c-.7.267-1.458.559-2.211.9-.024.1-.024.194-.049.291,0,0-.073.8-.219,1.943-.1.947-.267,2.138-.486,3.3a19.618,19.618,0,0,1-.729,3.061,3.078,3.078,0,0,1-.656,1.215v.024a.089.089,0,0,1-.073.024c.389,1.579.777,3.182,1.093,4.81a42.113,42.113,0,0,1,.729,6.462L11.593,33.889l-.073.7-.049.413a3.63,3.63,0,0,1-.729.437l.389.462.073.024v-.024a1.482,1.482,0,0,0,.437.121,6.556,6.556,0,0,0,.68.024,1.852,1.852,0,0,1,1.263.194.883.883,0,0,1,.34,1.214A10.4,10.4,0,0,1,8.508,38.6c-.316-.049-.389-.51-.34-1.02a2.312,2.312,0,0,1,.34-1.191l.316-.243v-.1l.024-.219c-.17,0-.34.024-.51.024l-.194-9.523-.049-1.409L8.07,23.491c-.267-.68-.559-1.409-.85-2.162l.146,1.142a2.485,2.485,0,0,1-.024.413.747.747,0,0,0-.024.243.457.457,0,0,0-.049.194,3.9,3.9,0,0,1-.1.462c-.049.243-.1.486-.146.777-.049.17-.1.364-.146.559,0,.049-.024.1-.024.146-.048.17-.073.291-.121.486l-.219.8c-.777,2.964-1.871,6.778-2.526,9.4a4.982,4.982,0,0,1-.85-.049l.291.534.049.049a.024.024,0,0,1,.024-.024.184.184,0,0,0,.1.049c.777.486,1.628.267,2.113.85a1.022,1.022,0,0,1,.243.486.755.755,0,0,1-.194.777,10.336,10.336,0,0,1-2.55.286A8.349,8.349,0,0,1,.224,38.432Z" transform="translate(4.599 16.886)" opacity="0.1"/>
        <g id="Group-27" data-name="Group" transform="translate(0 0)">
          <g id="Group-28" data-name="Group" transform="translate(0 25.821)">
            <path id="Path-25" data-name="Path" d="M1.054,0,.786.815C.531.9.5,1,.336,1.242A1.814,1.814,0,0,0,0,2.074l4.372-.086L3.118,1.047l-.3-.584Z" transform="translate(0.296 25.074)" fill="#edb6a4"/>
            <path id="Path-26" data-name="Path" d="M3.485.358c.806.548,1.722.3,2.229.9a.877.877,0,0,1,.031,1.251A10.362,10.362,0,0,1,.216,2.334C-.347,2.107.321.46.734.187L1.168,0C.916.214.7.4,1.037.72A2.907,2.907,0,0,0,3.369.888C3.42.685,3.264.51,3.485.358Z" transform="translate(0 25.788)" fill="#393768"/>
            <path id="Path-27" data-name="Path" d="M0,24.926a5.928,5.928,0,0,0,3.425.716C4.461,21.369,6.8,13.908,6.793,12.164L5.715,3.73,5.095,0,.924.414C0,4.876,1.24,8.958,2.084,11.79Z" transform="translate(0.562 0)" fill="#393768"/>
            <path id="Path-28" data-name="Path" d="M1.249,9.449a9.082,9.082,0,0,1,.28,4.083c-.025.194-.058.382-.09.576.275-1.1.491-2.038.587-2.7.013-.09.02-.171.027-.246a2.247,2.247,0,0,0,.027-.393L1,2.341.615,0C.513.017.465.125.5.372.764,2.247-.481,4.4.214,6.361.663,7.628.807,8.181,1.249,9.449Z" transform="translate(5.274 1.388)" opacity="0.1"/>
            <path id="Path-29" data-name="Path" d="M.545,0,.478.856C.25,1,.245,1.1.143,1.378a1.815,1.815,0,0,0-.127.888L4.24,1.138,2.8.524l-.43-.5Z" transform="translate(8.334 25.052)" fill="#edb6a4"/>
            <path id="Path-30" data-name="Path" d="M.008,0c-.164,3.845,2.28,8.91,3.728,12.749L4,25.121a5.133,5.133,0,0,0,3.154-.845L8.347,12.283A54.312,54.312,0,0,0,6.322.149Z" transform="translate(4.319 0.416)" fill="#393768"/>
            <path id="Path-31" data-name="Path" d="M3.064,0c.913.339,1.743-.121,2.379.341a.877.877,0,0,1,.329,1.207A10.36,10.36,0,0,1,.362,2.7C-.239,2.613.017.854.352.491L.729.205c-.194.268-.363.5.044.73A2.907,2.907,0,0,0,3.079.542C3.08.333,2.886.2,3.064,0Z" transform="translate(8.142 25.584)" fill="#393768"/>
          </g>
          <path id="Path-32" data-name="Path" d="M0,17.837c1.986,2.209,5.123,1.737,8.692,1.295l0-.007c.267-.027.94-.277,1.219-.324,1.064-2.132,1.452-5.4,2.1-9.548l0-.022c.283-1.753.539-3.628.778-5.567A18.044,18.044,0,0,0,6.67.15,2.5,2.5,0,0,0,3.919.832C1.4,3.983.4,12.3,0,17.837Z" transform="translate(1.004 8.445)" fill="#b1dbe5"/>
          <path id="Path-33" data-name="Path" d="M2.764,3.895A3.866,3.866,0,0,1,0,2.608,13.406,13.406,0,0,0,1.7,0L3.547.8A10.568,10.568,0,0,0,2.764,3.895Z" transform="translate(8.326 6.228)" fill="#ed9b80"/>
          <path id="Path-34" data-name="Path" d="M5.473,6.716c-.453.855-2.282.812-3.953-.025C1.043,6.449.567,5.136,0,3.877L2.1,0,5.3.5A6.567,6.567,0,0,1,5.473,6.716Z" transform="translate(7.465 1.386)" fill="#edb6a4"/>
          <path id="Path-35" data-name="Path" d="M6.684,1.888c.336,1.3-1.321,2.032-2.008,2.084A.941.941,0,0,0,3.827,5.23l-.23.129s-.06-.954-.41-.744-.626.254-.407.952.205,1.764-.894,1.818S.776,6.349.406,5.993A1.328,1.328,0,0,1,.217,4.331,2,2,0,0,0,.609,2.653C.494,2.112.979.808,1.488.722A4.236,4.236,0,0,0,2.826.457c.648-.263.82-.721,1.738-.26C5.61.722,6.767.78,6.684,1.888Z" transform="translate(7.098 0.692)" fill="#393768"/>
          <path id="Path-36" data-name="Path" d="M.061,3.031l1.626.478.123-.433c.258-.176.584-.2.713-.378.278-.2.329-.311.256-.724C2.6.85,1.7-.128.963.014.6.215.921.175.715.817A1.381,1.381,0,0,0,.346.248.353.353,0,0,0,0,.52,8.193,8.193,0,0,0,.24,2.6Z" transform="translate(21.048 1.163)" fill="#edb6a4"/>
          <path id="Path-37" data-name="Path" d="M0,7.727l4.828-.217L9.055,0a5.333,5.333,0,0,0,1.9.578C9.968,4.239,8.825,8.4,7.341,10.209c-1.427,1.507-3.9,2.041-6.323,3.128Z" transform="translate(12.02 4.057)" fill="#b1dbe5"/>
          <path id="Path-38" data-name="Path" d="M11.16.03c-1.472,1.315-3.718,1.8-6,2.845l-.043,0a.546.546,0,0,1-.017.262l0,.043C4.48,7.315,4.07,10.6,3.022,12.7c-.3.073-.965.312-1.222.338-.6.059-1.239.166-1.8.221a.26.26,0,0,1,.026-.176,2.228,2.228,0,0,1,.7-.848,8.908,8.908,0,0,0,1.417-2.3c1.048-2.1,1.95-4.349,1.634-6.655a3.132,3.132,0,0,0-.423-1.213,1.538,1.538,0,0,0-.981-.725A5.032,5.032,0,0,0,4.356,1.7a2.461,2.461,0,0,0,.553-.1,1.761,1.761,0,0,0,.467-.09,1.764,1.764,0,0,0,.467-.09c.763-.162,1.565-.372,2.328-.534C8.763.743,9.312.6,9.9.414,10.2.342,10.929-.12,11.16.03Z" transform="translate(7.902 14.526)" opacity="0.1"/>
          <path id="Path-39" data-name="Path" d="M6.453,3.181c-2.148.89-4.7,1.81-5.871,1.481S-.138.285,3.209.016A3.68,3.68,0,0,1,6.671,1.4C8.989,1.106,7.8,2.679,6.453,3.181Z" transform="translate(6.844)" fill="#6a6ae5"/>
          <path id="Path-40" data-name="Path" d="M11.653,2.743a8.72,8.72,0,0,0,.386,6.534S11.3,17.49,9.943,18.8c0,0-7.45,2.308-9.92-.942C-.218,16.8,1.424-.267,5.468,0c.884.078,1.654.068,1.588.3s-.459.672.069.951,2.713,1.371,3.278.65C10.609,1.653,11.87,2.3,11.653,2.743Z" transform="translate(0.981 8.42)" fill="#6a6ae5"/>
          <path id="Path-41" data-name="Path" d="M.416,0,3.437.89s-.211.8-.409.769S0,.82,0,.82Z" transform="translate(5.79 11.008)" fill="#e6e9f8"/>
        </g>
      </g>
      <g id="Group-29" data-name="Group" transform="translate(133.723 81.429)">
        <path id="Shape-5" data-name="Shape" d="M11.345,15.038l-.024-.024c-.024-.073-.024-.17-.049-.243-.267-.1-.51-.17-.777-.267a7.823,7.823,0,0,0,1.846-4.008H8.478A4.023,4.023,0,0,1,6.194,13.07a.185.185,0,0,1-.1-.049,1.943,1.943,0,0,1-.389-.194,2.119,2.119,0,0,1-.243-.146h.049c-.1-.1-.243-.146-.364-.243A14.494,14.494,0,0,1,2.623,8.065C2.332,7.433,2.065,6.777,1.8,6.1a3.664,3.664,0,0,1,1.482-.8V4.057L4.033,5.15,5.709,7.531l.364.534L7.239,9.717l1.409-.073,1.919-.121c.17-.17.389-.316.559-.486a.106.106,0,0,0-.024-.073c-.17-.291.364-.753.753-.9h.316c.024,0,.024.024.049.024l.024-.024a.338.338,0,0,1,.1-.073,1.572,1.572,0,0,1,.149-.155.18.18,0,0,1-.076.009,4.059,4.059,0,0,0-.34-1.288h-.1A7.831,7.831,0,0,0,9.644,3.207a4.331,4.331,0,0,1,0-.972,1.2,1.2,0,0,1-.389-.777C8.235,1,7.555.049,9.158,0a10.347,10.347,0,0,1,5.1,5.758h-.024l.049.049a9.414,9.414,0,0,1,.583,3.231.823.823,0,0,1,.024.243,10.173,10.173,0,0,1-3.207,7.458C11.466,15.742,11.345,15.038,11.345,15.038ZM.024,2.575C.073,1.506.826.51,1.506.583c.364.146.049.146.316.729A1.132,1.132,0,0,1,2.113.753a.305.305,0,0,1,.34.219,5.566,5.566,0,0,1,.049.607A7.75,7.75,0,0,0,0,2.7,1.068,1.068,0,0,0,.024,2.575Z" transform="translate(0.044 4.195)" opacity="0.1"/>
        <g id="Group-30" data-name="Group" transform="translate(0 0)">
          <path id="Path-42" data-name="Path" d="M2.451,0,2.9.695c.248.007.3.1.512.28a1.766,1.766,0,0,1,.513.692L0,2.769.877,1.544.995.913Z" transform="translate(26.962 46.8)" fill="#edb6a4"/>
          <path id="Path-43" data-name="Path" d="M1.864.964C1.285,1.7.4,1.711.1,2.414A.884.884,0,0,0,.4,3.6a9.274,9.274,0,0,0,4.89-1.66C5.733,1.574,4.714.2,4.276.059L3.84,0c.28.133.525.251.3.642a2.62,2.62,0,0,1-2.039.79C2,1.254,2.1,1.048,1.864.964Z" transform="translate(25.92 47.423)" fill="#393768"/>
          <path id="Path-44" data-name="Path" d="M10.944,22.825a5.424,5.424,0,0,1-2.873,1.6C6.05,20.684,2.045,14.294,1.606,12.649.608,9.308.119,6.477.4,4.419L0,.74,3.83,0C5.8,3.95,5.7,8.5,5.672,11.393Z" transform="translate(19.135 23.622)" fill="#393768"/>
          <path id="Path-45" data-name="Path" d="M3.312,0l.14.828c.224.114.238.22.358.477a1.856,1.856,0,0,1,.2.853L0,1.467,1.276.728,1.628.2Z" transform="translate(14.887 48.17)" fill="#edb6a4"/>
          <path id="Path-46" data-name="Path" d="M6.215,0c.5,3.732-.277,10.253-1.908,13.157l.521,11.715c-1.177.1-2.226.443-2.992-.085L.042,12.6A105.015,105.015,0,0,1,.393.755Z" transform="translate(13.932 23.717)" fill="#393768"/>
          <path id="Path-47" data-name="Path" d="M2.523.026C1.71.445.9.076.355.588A.889.889,0,0,0,.162,1.8a9.167,9.167,0,0,0,5.106.6c.547-.142.15-1.832-.193-2.154L4.7,0c.2.242.382.456.026.716A2.575,2.575,0,0,1,2.559.556C2.539.352,2.706.2,2.523.026Z" transform="translate(13.572 48.887)" fill="#393768"/>
          <path id="Path-48" data-name="Path" d="M13.128,15.971c-1.634,2.224-4.576,2.075-7.916,1.993l0-.007c-.25,0-.894-.17-1.157-.188C2.875,15.9,2.217,12.912,1.235,9.137l-.006-.02C.806,7.522.4,5.813,0,4.042A16.758,16.758,0,0,1,5.342.233,2.326,2.326,0,0,1,7.947.611C10.566,3.293,12.254,10.885,13.128,15.971Z" transform="translate(10.096 7.479)" fill="#b1dbe5"/>
          <path id="Path-49" data-name="Path" d="M1.007,3.7A3.591,3.591,0,0,0,3.444,2.256,12.444,12.444,0,0,1,1.638,0L0,.908A9.81,9.81,0,0,1,1.007,3.7Z" transform="translate(11.413 5.74)" fill="#ed9b80"/>
          <path id="Path-50" data-name="Path" d="M.953,6.517c.5.749,2.184.541,3.652-.386.418-.266.738-1.523,1.147-2.739L3.459,0,.545.756A6.1,6.1,0,0,0,.953,6.517Z" transform="translate(9.574 1.222)" fill="#edb6a4"/>
          <path id="Path-51" data-name="Path" d="M.02,2C-.172,3.237,1.427,3.762,2.067,3.747a.874.874,0,0,1,.9,1.085l.224.1S3.159,4.043,3.5,4.2s.6.178.463.843-.028,1.65.993,1.6S5.888,5.587,6.2,5.224A1.234,1.234,0,0,0,6.22,3.67,1.859,1.859,0,0,1,5.7,2.155c.057-.511-.512-1.671-.99-1.7A3.941,3.941,0,0,1,3.454.328C2.83.145,2.63-.263,1.824.247.905.829-.158.988.02,2Z" transform="translate(9.221 0.707)" fill="#393768"/>
          <path id="Path-52" data-name="Path" d="M2.616,2.709,1.157,3.3,1,2.911C.749,2.772.446,2.778.31,2.627c-.275-.162-.333-.257-.3-.645C.07.926.809-.06,1.506,0c.351.153.054.146.3.72A1.284,1.284,0,0,1,2.1.162a.327.327,0,0,1,.344.22,7.6,7.6,0,0,1-.031,1.94Z" transform="translate(0 2.167)" fill="#edb6a4"/>
          <path id="Path-53" data-name="Path" d="M10.777,6.312,6.3,6.554,1.7,0A4.953,4.953,0,0,1,0,.708C1.244,4,2.682,7.743,4.219,9.279c1.457,1.262,3.789,1.53,6.131,2.312Z" transform="translate(0.935 4.745)" fill="#b1dbe5"/>
          <path id="Path-54" data-name="Path" d="M0,.041c1.481,1.08,3.6,1.321,5.8,2.081h.04a.508.508,0,0,0,.04.24V2.4c.96,3.761,1.64,6.762,2.8,8.6.28.04.92.2,1.16.2.56,0,1.16.04,1.68.04a.241.241,0,0,0-.04-.16,2.07,2.07,0,0,0-.72-.72,8.277,8.277,0,0,1-1.52-2,10.821,10.821,0,0,1-2.121-6A2.912,2.912,0,0,1,7.4,1.2a1.428,1.428,0,0,1,.84-.76,4.676,4.676,0,0,1-1.8.52,2.283,2.283,0,0,1-.52-.04,1.641,1.641,0,0,1-.44-.04,1.643,1.643,0,0,1-.44-.04c-.72-.08-1.481-.2-2.2-.28C2.281.481,1.76.4,1.2.281.92.241.2-.119,0,.041Z" transform="translate(5.458 14.224)" opacity="0.1"/>
          <path id="Path-55" data-name="Path" d="M1.544,3.224c2.067.626,4.514,1.242,5.562.831S7.371-.057,4.253,0A3.418,3.418,0,0,0,1.18,1.6C-.99,1.538.257,2.883,1.544,3.224Z" transform="translate(8.2 0)" fill="#6a6ae5"/>
          <path id="Path-56" data-name="Path" d="M.034,3.117A8.1,8.1,0,0,1,.276,9.192s1.431,7.524,2.81,8.613c0,0,7.1,1.45,9.083-1.779C12.294,15.018,9.213-.6,5.5.018,4.69.171,3.977.232,4.06.442s.486.579.023.885-2.382,1.516-2.971.9C.9,2.014-.208,2.724.034,3.117Z" transform="translate(11.055 7.424)" fill="#6a6ae5"/>
          <path id="Path-57" data-name="Path" d="M2.711,0,0,1.1s.268.718.448.673S3.171.72,3.171.72Z" transform="translate(14.305 9.808)" fill="#e6e9f8"/>
        </g>
      </g>
    </g>
  </g>
</svg>
