<svg id="paneles-solares" xmlns="http://www.w3.org/2000/svg" width="93.789" height="93.789" viewBox="0 0 93.789 93.789">
  <path id="Trazado_624260" data-name="Trazado 624260" d="M215.381,372.042H199.209a7.793,7.793,0,0,1-3.942-1.3,9.843,9.843,0,0,1-3.242-3.224l-4.347-7.408a2.342,2.342,0,0,1-.98,1.023v13.685h36.437v-2.773Z" transform="translate(-152.498 -294.143)" fill="#22bce0"/>
  <path id="Trazado_624261" data-name="Trazado 624261" d="M76.047,428.032v-2.773H63.958q1.27,1.44,2.653,2.773Z" transform="translate(-52.242 -347.359)" fill="#22bce0"/>
  <path id="Trazado_624262" data-name="Trazado 624262" d="M9.568,47.809h.919a7.793,7.793,0,0,1,3.942,1.3,9.843,9.843,0,0,1,3.242,3.224l6.224,10.605a2.318,2.318,0,0,1,1.021-.238,2.358,2.358,0,0,1,.347.029,2.329,2.329,0,0,1,.984,4.218l3.828,6.523a3.674,3.674,0,0,1,.542,3.224A2.4,2.4,0,0,1,28.2,78H26.026v2.773h5.953V67.087a2.333,2.333,0,0,1,1.11-4.384c.041,0,.081,0,.121.006L27.123,52.336a3.674,3.674,0,0,1-.542-3.224,2.4,2.4,0,0,1,2.412-1.3H53.417A4,4,0,0,1,55.065,45.4c.622-.512.78-.683.78-1.066s-.158-.554-.78-1.066a3.526,3.526,0,0,1,0-6.035c.622-.512.78-.683.78-1.066a1.264,1.264,0,1,1,2.528,0,3.757,3.757,0,0,1-1.7,3.018c-.622.512-.78.683-.78,1.066s.158.554.78,1.066a3.527,3.527,0,0,1,0,6.035,6.117,6.117,0,0,0-.516.457h1.163a7.793,7.793,0,0,1,3.942,1.3A9.843,9.843,0,0,1,64.5,52.336l6.224,10.605a2.318,2.318,0,0,1,1.021-.238,2.358,2.358,0,0,1,.347.029,2.329,2.329,0,0,1,.984,4.218l3.828,6.523a3.674,3.674,0,0,1,.542,3.224A2.4,2.4,0,0,1,75.036,78H72.857v2.773H79.42a46.891,46.891,0,0,0-1.769-69.178,3.439,3.439,0,0,1-1.665,2.447,3.757,3.757,0,0,1-3.464.035c-.754-.283-.982-.334-1.313-.143a1.264,1.264,0,0,1-1.264-2.189,3.757,3.757,0,0,1,3.464-.035c.754.283.982.334,1.313.143s.4-.414.533-1.208a8.539,8.539,0,0,1,.177-.86,46.963,46.963,0,0,0-5.669-3.736,4.055,4.055,0,0,1-2.575,1.2c-.795.132-1.017.2-1.208.533A1.264,1.264,0,1,1,63.79,6.515a3.757,3.757,0,0,1,2.983-1.762c.141-.023.263-.045.371-.066a46.578,46.578,0,0,0-6.5-2.535A4.455,4.455,0,0,1,59.152,4c-.622.512-.78.683-.78,1.066a1.264,1.264,0,1,1-2.528,0,3.757,3.757,0,0,1,1.7-3.018,4.07,4.07,0,0,0,.621-.578A46.915,46.915,0,0,0,48.3.122a3.355,3.355,0,0,1,2.235,1.615A3.757,3.757,0,0,1,50.57,5.2c-.283.754-.334.982-.143,1.313a1.264,1.264,0,1,1-2.189,1.264A3.757,3.757,0,0,1,48.2,4.314c.283-.754.334-.982.143-1.313s-.414-.4-1.208-.533A3.757,3.757,0,0,1,44.155.705,3.534,3.534,0,0,1,43.912.2,46.9,46.9,0,0,0,0,46.994c0,.272.006.544.01.815ZM29.306,16.87a3.758,3.758,0,0,1,3.018,1.7c.512.622.683.78,1.066.78s.554-.158,1.066-.78a3.526,3.526,0,0,1,6.035,0c.512.622.683.78,1.066.78a1.264,1.264,0,0,1,0,2.528,3.757,3.757,0,0,1-3.018-1.7c-.512-.622-.683-.78-1.066-.78s-.554.158-1.066.78a3.527,3.527,0,0,1-6.035,0c-.512-.622-.683-.78-1.066-.78h0a1.264,1.264,0,0,1,0-2.527h0Zm9.656,13.717A3.526,3.526,0,0,1,33.735,33.6c-.754-.283-.982-.334-1.313-.143h0a1.264,1.264,0,0,1-1.266-2.188h0a3.758,3.758,0,0,1,3.464-.035c.754.283.982.334,1.313.143s.4-.414.533-1.208A3.526,3.526,0,0,1,41.7,27.155c.754.283.982.334,1.313.143a1.264,1.264,0,0,1,1.264,2.189,3.757,3.757,0,0,1-3.464.035c-.754-.283-.982-.334-1.313-.143S39.094,29.792,38.962,30.587Zm11.465,4.129a3.757,3.757,0,0,1-2.983,1.762c-.795.132-1.017.2-1.208.533s-.14.559.143,1.313a3.527,3.527,0,0,1-3.018,5.227c-.794.132-1.017.2-1.208.533h0a1.264,1.264,0,0,1-2.19-1.261v0h0a3.758,3.758,0,0,1,2.983-1.762c.795-.132,1.017-.2,1.208-.533s.14-.559-.143-1.313a3.526,3.526,0,0,1,3.018-5.227c.795-.132,1.017-.2,1.208-.533a1.264,1.264,0,1,1,2.188,1.264Zm13.363,0a1.264,1.264,0,1,1,2.189-1.264,3.757,3.757,0,0,1,.035,3.464c-.283.754-.334.982-.143,1.313s.414.4,1.208.533A3.526,3.526,0,0,1,70.1,43.989c-.283.754-.334.982-.143,1.313h0a1.264,1.264,0,0,1-2.188,1.265h0a3.757,3.757,0,0,1-.035-3.464c.283-.754.334-.982.143-1.313s-.414-.4-1.208-.533a3.526,3.526,0,0,1-3.018-5.227c.283-.755.334-.982.143-1.313Zm8.871-15.364a3.757,3.757,0,0,1,3.018,1.7c.512.622.683.78,1.066.78s.554-.158,1.066-.78a3.527,3.527,0,0,1,6.035,0c.512.622.683.78,1.066.78h0a1.264,1.264,0,0,1,0,2.527h0a3.758,3.758,0,0,1-3.018-1.7c-.512-.622-.683-.78-1.066-.78s-.554.158-1.066.78a3.526,3.526,0,0,1-6.035,0c-.512-.622-.683-.78-1.066-.78a1.264,1.264,0,0,1,0-2.528ZM69.483,27.76a1.264,1.264,0,0,1,1.726-.463,3.757,3.757,0,0,1,1.762,2.983c.132.795.2,1.017.533,1.208s.559.14,1.313-.143a3.527,3.527,0,0,1,5.227,3.018c.132.794.2,1.017.533,1.208h0a1.264,1.264,0,0,1-1.263,2.189h0a3.758,3.758,0,0,1-1.763-2.983c-.132-.795-.2-1.017-.533-1.208s-.559-.14-1.313.143a3.526,3.526,0,0,1-5.227-3.018c-.132-.795-.2-1.017-.533-1.208a1.264,1.264,0,0,1-.463-1.726ZM57.109,8.9A11.712,11.712,0,1,1,45.4,20.616,11.712,11.712,0,0,1,57.109,8.9ZM34.9,3.47a3.758,3.758,0,0,1,1.762,2.983c.132.795.2,1.017.533,1.208s.559.14,1.313-.143a3.757,3.757,0,0,1,3.464.035,3.757,3.757,0,0,1,1.762,2.983c.132.795.2,1.017.533,1.208a1.264,1.264,0,0,1-1.264,2.189,3.757,3.757,0,0,1-1.762-2.983c-.132-.795-.2-1.017-.533-1.208s-.559-.14-1.313.143a3.757,3.757,0,0,1-3.464-.035,3.757,3.757,0,0,1-1.763-2.983c-.132-.795-.2-1.017-.533-1.208h0A1.264,1.264,0,0,1,34.9,3.469h0Z" transform="translate(0 -0.1)" fill="#22bce0"/>
  <path id="Trazado_624263" data-name="Trazado 624263" d="M136.93,440.4v3.208a1.11,1.11,0,0,1-2.163.351.89.89,0,0,1-.705.35H121.321a.894.894,0,1,1,0-1.789h12.741a.89.89,0,0,1,.648.28v-2.4H98.272v2.12h9.181a.894.894,0,0,1,0,1.789h-9.43a1.11,1.11,0,0,1-1.722,0H94.713a.894.894,0,0,1,0-1.789h1.34V440.4H90.1v3.208a1.11,1.11,0,1,1-2.221,0V440.4H78.442a47.129,47.129,0,0,0,5.571,4.6h3.278a.894.894,0,1,1,0,1.789h-.54q1.375.831,2.809,1.569h10.628a.894.894,0,0,1,0,1.789H93.48a47.027,47.027,0,0,0,34.975,0h-2.118a.894.894,0,1,1,0-1.789h6.038a47.027,47.027,0,0,0,11.118-7.955H136.93Zm-17.4,7.281H106.791a.894.894,0,1,1,0-1.789h12.741a.894.894,0,1,1,0,1.789Z" transform="translate(-64.073 -359.726)" fill="#528f66"/>
  <g id="Grupo_889182" data-name="Grupo 889182" transform="translate(19.94 82.793)">
    <path id="Trazado_624264" data-name="Trazado 624264" d="M164.616,451.974h-1.34a.894.894,0,0,0,0,1.789h1.589a1.1,1.1,0,0,1-.25-.7Z" transform="translate(-152.577 -451.974)" fill="#53b976"/>
    <path id="Trazado_624265" data-name="Trazado 624265" d="M185.585,453.063a1.105,1.105,0,0,1-.249.7h9.43a.894.894,0,1,0,0-1.789h-9.181v1.088Z" transform="translate(-171.326 -451.975)" fill="#53b976"/>
    <path id="Trazado_624266" data-name="Trazado 624266" d="M241.956,470.38H229.215a.894.894,0,1,0,0,1.789h12.741a.894.894,0,0,0,0-1.789Z" transform="translate(-206.437 -467.008)" fill="#53b976"/>
    <path id="Trazado_624267" data-name="Trazado 624267" d="M321.921,452.254a.89.89,0,0,0-.648-.28H308.532a.894.894,0,0,0,0,1.789h12.741a.889.889,0,0,0,.705-.35,1.106,1.106,0,0,1-.058-.351v-.807Z" transform="translate(-271.225 -451.974)" fill="#53b976"/>
    <path id="Trazado_624268" data-name="Trazado 624268" d="M335.019,484.719a.894.894,0,0,0,.894.894h2.118q2.007-.807,3.92-1.789h-6.038A.9.9,0,0,0,335.019,484.719Z" transform="translate(-293.59 -477.99)" fill="#53b976"/>
    <path id="Trazado_624269" data-name="Trazado 624269" d="M150.66,484.72a.894.894,0,0,0-.894-.894H139.137q1.91.982,3.92,1.789h6.709a.9.9,0,0,0,.894-.894Z" transform="translate(-133.59 -477.991)" fill="#53b976"/>
    <path id="Trazado_624270" data-name="Trazado 624270" d="M113.028,466.392a.894.894,0,0,0-.894-.894h-3.278q1.336.94,2.738,1.789h.54a.9.9,0,0,0,.894-.894Z" transform="translate(-108.856 -463.021)" fill="#53b976"/>
  </g>
  <path id="Trazado_624271" data-name="Trazado 624271" d="M259.533,71.483A11.712,11.712,0,1,0,247.821,59.77,11.712,11.712,0,0,0,259.533,71.483Zm0-20.849A9.136,9.136,0,1,1,250.4,59.77a9.136,9.136,0,0,1,9.136-9.136Z" transform="translate(-202.425 -39.255)" fill="#f9c744"/>
  <circle id="Elipse_4896" data-name="Elipse 4896" cx="9.136" cy="9.136" r="9.136" transform="translate(47.973 11.38)" fill="#fad98f"/>
  <path id="Trazado_624272" data-name="Trazado 624272" d="M183.54,95.3a1.264,1.264,0,0,1-1.264,1.264,3.757,3.757,0,0,0,3.018-1.7c.512-.622.683-.78,1.066-.78s.554.158,1.066.78a3.756,3.756,0,0,0,3.018,1.7,1.264,1.264,0,0,0,0-2.528c-.382,0-.554-.158-1.066-.78a3.526,3.526,0,0,0-6.035,0c-.512.622-.683.78-1.066.78A1.264,1.264,0,0,1,183.54,95.3Z" transform="translate(-148.886 -74.78)" fill="#f39e22"/>
  <path id="Trazado_624273" data-name="Trazado 624273" d="M159.973,91.55h0Z" transform="translate(-130.666 -74.78)" fill="#f39e22"/>
  <path id="Trazado_624274" data-name="Trazado 624274" d="M161.05,106.127c-.512-.622-.683-.78-1.066-.78h0c.382,0,.554.158,1.066.78a3.756,3.756,0,0,0,3.018,1.7A3.757,3.757,0,0,1,161.05,106.127Z" transform="translate(-130.678 -86.049)" fill="#f39e22"/>
  <path id="Trazado_624275" data-name="Trazado 624275" d="M153.084,92.814a1.264,1.264,0,0,0,1.264,1.264h0c.382,0,.554.158,1.066.78a3.756,3.756,0,0,0,3.018,1.7,1.264,1.264,0,1,0,0-2.528c-.382,0-.554-.158-1.066-.78a3.758,3.758,0,0,0-3.018-1.7h0A1.263,1.263,0,0,0,153.084,92.814Z" transform="translate(-125.042 -74.78)" fill="#f9c744"/>
  <path id="Trazado_624276" data-name="Trazado 624276" d="M444.262,106.8c.512.622.683.78,1.066.78h0c-.382,0-.554-.158-1.066-.78a3.756,3.756,0,0,0-3.018-1.7A3.757,3.757,0,0,1,444.262,106.8Z" transform="translate(-360.416 -85.845)" fill="#f39e22"/>
  <path id="Trazado_624277" data-name="Trazado 624277" d="M391.027,107.626c.382,0,.554.158,1.066.78a3.526,3.526,0,0,0,6.035,0c.512-.622.683-.78,1.066-.78a1.264,1.264,0,1,1,0-2.528,3.757,3.757,0,0,0-3.018,1.7c-.512.622-.683.78-1.066.78s-.554-.158-1.066-.78a3.756,3.756,0,0,0-3.018-1.7,1.264,1.264,0,0,0,0,2.528Z" transform="translate(-318.365 -85.846)" fill="#f39e22"/>
  <path id="Trazado_624278" data-name="Trazado 624278" d="M463.537,132.443h0Z" transform="translate(-378.625 -108.182)" fill="#f39e22"/>
  <path id="Trazado_624279" data-name="Trazado 624279" d="M434.346,106.361a1.264,1.264,0,0,0,1.264,1.264c.383,0,.554.158,1.066.78a3.758,3.758,0,0,0,3.018,1.7h0a1.264,1.264,0,0,0,0-2.527h0c-.382,0-.554-.158-1.066-.78a3.756,3.756,0,0,0-3.018-1.7,1.264,1.264,0,0,0-1.264,1.264Z" transform="translate(-354.782 -85.845)" fill="#f9c744"/>
  <path id="Trazado_624280" data-name="Trazado 624280" d="M184.177,31.558c-.132-.795-.2-1.017-.533-1.208h0c.331.191.4.414.533,1.208a3.757,3.757,0,0,0,1.763,2.983A3.756,3.756,0,0,1,184.177,31.558Z" transform="translate(-150.004 -24.79)" fill="#f39e22"/>
  <path id="Trazado_624281" data-name="Trazado 624281" d="M190.53,18.394h0Z" transform="translate(-155.626 -15.024)" fill="#f39e22"/>
  <path id="Trazado_624282" data-name="Trazado 624282" d="M197.9,40.516a1.264,1.264,0,0,1-1.726.463,3.757,3.757,0,0,0,3.464.035c.754-.283.982-.334,1.313-.143s.4.414.533,1.208a3.756,3.756,0,0,0,1.762,2.983,1.264,1.264,0,0,0,1.264-2.189c-.331-.191-.4-.414-.533-1.208a3.526,3.526,0,0,0-5.227-3.018c-.754.283-.982.334-1.313.143A1.264,1.264,0,0,1,197.9,40.516Z" transform="translate(-160.238 -31.228)" fill="#f39e22"/>
  <path id="Trazado_624283" data-name="Trazado 624283" d="M180.361,18.107a1.264,1.264,0,0,0,.463,1.726h0c.331.191.4.414.533,1.208a3.756,3.756,0,0,0,1.762,2.983,1.264,1.264,0,1,0,1.264-2.189c-.331-.191-.4-.414-.533-1.208a3.757,3.757,0,0,0-1.762-2.983h0A1.264,1.264,0,0,0,180.361,18.107Z" transform="translate(-147.184 -14.274)" fill="#f9c744"/>
  <path id="Trazado_624284" data-name="Trazado 624284" d="M429.108,173.748c.132.795.2,1.017.533,1.208h0c-.331-.191-.4-.414-.533-1.208a3.756,3.756,0,0,0-1.762-2.983A3.756,3.756,0,0,1,429.108,173.748Z" transform="translate(-349.064 -139.484)" fill="#f39e22"/>
  <path id="Trazado_624285" data-name="Trazado 624285" d="M379.019,149.907c.331.191.4.414.533,1.208a3.526,3.526,0,0,0,5.227,3.018c.754-.283.982-.334,1.313-.143a1.264,1.264,0,1,1,1.264-2.189,3.757,3.757,0,0,0-3.464-.035c-.754.283-.982.334-1.313.143s-.4-.414-.533-1.208a3.756,3.756,0,0,0-1.762-2.983,1.264,1.264,0,1,0-1.264,2.189Z" transform="translate(-309.073 -120.52)" fill="#f39e22"/>
  <path id="Trazado_624286" data-name="Trazado 624286" d="M432.979,205.593h0Z" transform="translate(-353.665 -167.932)" fill="#f39e22"/>
  <path id="Trazado_624287" data-name="Trazado 624287" d="M417.166,170.471a1.264,1.264,0,0,0,.463,1.726c.331.191.4.414.533,1.208a3.757,3.757,0,0,0,1.763,2.983h0a1.264,1.264,0,0,0,1.263-2.189h0c-.331-.191-.4-.414-.533-1.208a3.756,3.756,0,0,0-1.762-2.983,1.263,1.263,0,0,0-1.726.462Z" transform="translate(-340.61 -138.728)" fill="#f9c744"/>
  <path id="Trazado_624288" data-name="Trazado 624288" d="M218.158,233.215v0h0Z" transform="translate(-178.195 -190.494)" fill="#f39e22"/>
  <path id="Trazado_624289" data-name="Trazado 624289" d="M244.363,178.793a1.264,1.264,0,0,0-1.726.463c-.191.331-.414.4-1.208.533a3.526,3.526,0,0,0-3.018,5.227c.283.754.334.982.143,1.313a1.264,1.264,0,0,1,2.189,1.264,3.757,3.757,0,0,0,.035-3.464c-.283-.754-.334-.982-.143-1.313s.414-.4,1.208-.533a3.756,3.756,0,0,0,2.983-1.762A1.263,1.263,0,0,0,244.363,178.793Z" transform="translate(-194.399 -145.903)" fill="#f39e22"/>
  <path id="Trazado_624290" data-name="Trazado 624290" d="M231.322,229.344c-.795.132-1.017.2-1.208.533h0c.191-.331.414-.4,1.208-.533a3.756,3.756,0,0,0,2.983-1.762A3.756,3.756,0,0,1,231.322,229.344Z" transform="translate(-187.961 -185.893)" fill="#f39e22"/>
  <path id="Trazado_624291" data-name="Trazado 624291" d="M223.326,217.4a1.264,1.264,0,0,0-1.726.463c-.191.331-.414.4-1.208.533a3.758,3.758,0,0,0-2.983,1.762v0a1.264,1.264,0,0,0,2.19,1.261h0c.191-.331.414-.4,1.208-.533a3.756,3.756,0,0,0,2.983-1.762A1.263,1.263,0,0,0,223.326,217.4Z" transform="translate(-177.444 -177.44)" fill="#f9c744"/>
  <path id="Trazado_624292" data-name="Trazado 624292" d="M347.48,26.868a1.264,1.264,0,1,0,2.189,1.264c.191-.331.414-.4,1.208-.533a4.057,4.057,0,0,0,2.575-1.2q-1.286-.72-2.619-1.362c-.108.021-.23.043-.371.066A3.756,3.756,0,0,0,347.48,26.868Z" transform="translate(-283.69 -20.452)" fill="#f39e22"/>
  <path id="Trazado_624293" data-name="Trazado 624293" d="M295.059,198.166a1.264,1.264,0,0,1,1.264,1.264,3.757,3.757,0,0,0-1.7-3.018c-.622-.512-.78-.683-.78-1.066s.158-.554.78-1.066a3.756,3.756,0,0,0,1.7-3.018,1.264,1.264,0,1,0-2.527,0c0,.382-.158.554-.78,1.066a3.526,3.526,0,0,0,0,6.035c.622.512.78.683.78,1.066A1.264,1.264,0,0,1,295.059,198.166Z" transform="translate(-237.95 -155.195)" fill="#f39e22"/>
  <path id="Trazado_624294" data-name="Trazado 624294" d="M307.068,244.5a6.134,6.134,0,0,0-.516.457h0a6.111,6.111,0,0,1,.516-.457,3.756,3.756,0,0,0,1.7-3.018,3.758,3.758,0,0,1-1.7,3.018Z" transform="translate(-250.397 -197.246)" fill="#f39e22"/>
  <path id="Trazado_624295" data-name="Trazado 624295" d="M294.858,238.863a3.756,3.756,0,0,0,1.7-3.018,1.264,1.264,0,1,0-2.528,0c0,.382-.158.554-.78,1.066a4,4,0,0,0-1.649,2.409h2.738A6.084,6.084,0,0,1,294.858,238.863Z" transform="translate(-238.187 -191.611)" fill="#f9c744"/>
  <path id="Trazado_624296" data-name="Trazado 624296" d="M306.563,8.044a3.756,3.756,0,0,0-1.7,3.018,1.264,1.264,0,0,0,2.528,0c0-.382.158-.554.78-1.066a4.456,4.456,0,0,0,1.495-1.847q-1.225-.375-2.479-.684a4.091,4.091,0,0,1-.621.578Z" transform="translate(-249.016 -6.098)" fill="#f39e22"/>
  <path id="Trazado_624297" data-name="Trazado 624297" d="M369.941,253.663h0Z" transform="translate(-302.174 -207.197)" fill="#f39e22"/>
  <path id="Trazado_624298" data-name="Trazado 624298" d="M345.638,185.3a3.757,3.757,0,0,0,2.983,1.763c.795.132,1.017.2,1.208.533a1.264,1.264,0,0,1,2.189-1.264,3.757,3.757,0,0,0-2.983-1.763c-.795-.132-1.017-.2-1.208-.533s-.14-.559.143-1.313a3.756,3.756,0,0,0-.035-3.464,1.264,1.264,0,0,0-2.189,1.264c.191.331.14.559-.143,1.313A3.757,3.757,0,0,0,345.638,185.3Z" transform="translate(-281.955 -145.903)" fill="#f39e22"/>
  <path id="Trazado_624299" data-name="Trazado 624299" d="M381.524,224.148c-.283.754-.334.982-.143,1.313h0c-.191-.331-.14-.559.143-1.313a3.756,3.756,0,0,0-.035-3.464A3.757,3.757,0,0,1,381.524,224.148Z" transform="translate(-311.427 -180.259)" fill="#f39e22"/>
  <path id="Trazado_624300" data-name="Trazado 624300" d="M368.5,217.4a1.264,1.264,0,0,0-.463,1.726c.191.331.14.559-.143,1.313a3.758,3.758,0,0,0,.035,3.464h0a1.264,1.264,0,0,0,2.188-1.265h0c-.191-.331-.14-.559.143-1.313a3.757,3.757,0,0,0-.035-3.464A1.263,1.263,0,0,0,368.5,217.4Z" transform="translate(-300.164 -177.44)" fill="#f9c744"/>
  <path id="Trazado_624301" data-name="Trazado 624301" d="M239.718.53a3.514,3.514,0,0,0,.243.509A3.494,3.494,0,0,1,239.718.53Z" transform="translate(-195.806 -0.433)" fill="#f39e22"/>
  <path id="Trazado_624302" data-name="Trazado 624302" d="M242.77,1.069a1.264,1.264,0,0,1-1.726-.463,3.757,3.757,0,0,0,2.983,1.763c.795.132,1.017.2,1.208.533s.14.559-.143,1.313a3.756,3.756,0,0,0,.035,3.464,1.264,1.264,0,0,0,2.189-1.264c-.191-.331-.14-.559.143-1.313a3.756,3.756,0,0,0-.035-3.464A3.355,3.355,0,0,0,245.189.023C244.722.009,244.254,0,243.784,0c-.128,0-.255,0-.383,0a1.262,1.262,0,0,1-.63,1.064Z" transform="translate(-196.889 0)" fill="#f39e22"/>
  <path id="Trazado_624303" data-name="Trazado 624303" d="M241.687,1.091a1.261,1.261,0,0,0,.63-1.064q-1.309.01-2.6.092a3.514,3.514,0,0,0,.243.509A1.264,1.264,0,0,0,241.687,1.091Z" transform="translate(-195.806 -0.022)" fill="#f9c744"/>
  <path id="Trazado_624304" data-name="Trazado 624304" d="M170.084,170.177h0Z" transform="translate(-138.926 -139.004)" fill="#f39e22"/>
  <path id="Trazado_624305" data-name="Trazado 624305" d="M178.307,181.76c-.754-.283-.982-.334-1.313-.143h0c.331-.191.559-.14,1.313.143a3.756,3.756,0,0,0,3.464-.035A3.756,3.756,0,0,1,178.307,181.76Z" transform="translate(-144.572 -148.256)" fill="#f39e22"/>
  <path id="Trazado_624306" data-name="Trazado 624306" d="M201.046,148.206a3.757,3.757,0,0,0,3.464-.035,1.264,1.264,0,0,0-1.264-2.189c-.331.191-.559.14-1.313-.143a3.526,3.526,0,0,0-5.227,3.018c-.132.795-.2,1.017-.533,1.208a1.264,1.264,0,0,1,1.264,2.189,3.757,3.757,0,0,0,1.763-2.983c.132-.795.2-1.017.533-1.208S200.292,147.923,201.046,148.206Z" transform="translate(-160.238 -118.785)" fill="#f39e22"/>
  <path id="Trazado_624307" data-name="Trazado 624307" d="M173.778,168.736a1.264,1.264,0,0,0-1.726-.463c-.331.191-.559.14-1.313-.143a3.758,3.758,0,0,0-3.464.035h0a1.264,1.264,0,0,0,1.266,2.188h0c.331-.191.559-.14,1.313.143a3.756,3.756,0,0,0,3.464-.035,1.263,1.263,0,0,0,.463-1.726Z" transform="translate(-136.117 -136.993)" fill="#f9c744"/>
  <path id="Trazado_624308" data-name="Trazado 624308" d="M383.8,54.936c-.331.191-.559.14-1.313-.143a3.756,3.756,0,0,0-3.464.035,1.264,1.264,0,0,0,1.264,2.189c.331-.191.559-.14,1.313.143a3.756,3.756,0,0,0,3.464-.035,3.439,3.439,0,0,0,1.665-2.447q-1.08-.939-2.219-1.811a8.547,8.547,0,0,0-.177.86C384.2,54.523,384.128,54.745,383.8,54.936Z" transform="translate(-309.074 -43.184)" fill="#f39e22"/>
  <path id="Trazado_624309" data-name="Trazado 624309" d="M389.217,430.822a2.33,2.33,0,0,0,.918,0v-5.56h-.918Z" transform="translate(-317.919 -347.358)" fill="#334353"/>
  <path id="Trazado_624310" data-name="Trazado 624310" d="M394.231,430.819a2.317,2.317,0,0,0,.641-.234v-5.327h-.641Z" transform="translate(-322.015 -347.359)" fill="#3e4e60"/>
  <path id="Trazado_624311" data-name="Trazado 624311" d="M386.719,430.868a2.343,2.343,0,0,1-.449-.044V425.26h-.661v5.982a1.11,1.11,0,0,0,2.22,0v-.655a2.316,2.316,0,0,1-.641.234A2.357,2.357,0,0,1,386.719,430.868Z" transform="translate(-314.972 -347.36)" fill="#2e3140"/>
  <path id="Trazado_624312" data-name="Trazado 624312" d="M386.3,342.345a2.332,2.332,0,0,1,.8-.467l-.01,0h0a2.348,2.348,0,0,1,.369-.089,2.262,2.262,0,0,0-1.369.209Z" transform="translate(-315.369 -279.153)" fill="#2d2c33"/>
  <path id="Trazado_624313" data-name="Trazado 624313" d="M389.611,344.63a1.489,1.489,0,0,0-2.4-1.744l1.881,3.2A2.319,2.319,0,0,0,389.611,344.63Z" transform="translate(-316.283 -279.694)" fill="#2e3140"/>
  <path id="Trazado_624314" data-name="Trazado 624314" d="M391.547,342.4h0Z" transform="translate(-319.823 -279.675)" fill="#3e4e60"/>
  <path id="Trazado_624315" data-name="Trazado 624315" d="M391.563,342.007a2.329,2.329,0,0,1,1.076,3.671l.267.454a2.329,2.329,0,0,0-.984-4.218,2.354,2.354,0,0,0-.369.089Z" transform="translate(-319.828 -279.282)" fill="#3e4e60"/>
  <path id="Trazado_624316" data-name="Trazado 624316" d="M148.348,264.977l12.4,21.136a3.674,3.674,0,0,1,.542,3.224,7.793,7.793,0,0,0,3.942,1.3h28.325a2.4,2.4,0,0,0,2.412-1.3,9.843,9.843,0,0,1-3.242-3.224l.9,1.528c.261.445.235.83-.02,1.023a.745.745,0,0,1-.457.131h-7.222a1.675,1.675,0,0,1-.611-.131,2.587,2.587,0,0,1-1.221-1.023l-3.163-5.389c-.261-.445-.235-.83.02-1.023a.745.745,0,0,1,.457-.131h7.222a1.674,1.674,0,0,1,.611.131,2.587,2.587,0,0,1,1.221,1.023l-2.355-4.012c.261.445.235.83-.02,1.023a.745.745,0,0,1-.457.131h-7.222a1.675,1.675,0,0,1-.611-.131,2.587,2.587,0,0,1-1.221-1.023l-3.163-5.389c-.261-.445-.235-.83.02-1.023a.745.745,0,0,1,.457-.131h7.222a1.675,1.675,0,0,1,.611.131,2.587,2.587,0,0,1,1.221,1.023l1.581,2.695-3.936-6.707c.261.445.235.83-.02,1.023a.745.745,0,0,1-.457.131h-7.222a1.675,1.675,0,0,1-.611-.131,2.587,2.587,0,0,1-1.221-1.023l-3.163-5.389c-.261-.445-.235-.83.02-1.023a.745.745,0,0,1,.457-.131h-4a1.675,1.675,0,0,1,.611.131,2.587,2.587,0,0,1,1.221,1.023l3.163,5.389c.261.445.235.83-.02,1.023a.745.745,0,0,1-.457.131h-7.222a1.675,1.675,0,0,1-.611-.131,2.587,2.587,0,0,1-1.221-1.023l-3.163-5.389c-.261-.445-.235-.83.02-1.023a.745.745,0,0,1,.457-.131h3.718a1.936,1.936,0,0,1-1.463-.922c-.3-.509-.128-.922.381-.922H147.518a2.4,2.4,0,0,0-2.412,1.3A9.838,9.838,0,0,1,148.348,264.977Zm7.784,13.263-3.163-5.389c-.261-.445-.235-.83.02-1.023a.745.745,0,0,1,.457-.131h7.222a1.675,1.675,0,0,1,.611.131,2.587,2.587,0,0,1,1.221,1.023l3.163,5.389c.261.445.235.83-.02,1.023a.745.745,0,0,1-.457.131h-7.222a1.675,1.675,0,0,1-.611-.131A2.588,2.588,0,0,1,156.132,278.24ZM166.415,288.8h-2.934a1.674,1.674,0,0,1-.611-.131,2.587,2.587,0,0,1-1.221-1.023l-3.163-5.389c-.261-.445-.235-.83.02-1.023a.745.745,0,0,1,.457-.131h7.222a1.674,1.674,0,0,1,.611.131,2.587,2.587,0,0,1,1.221,1.023l3.163,5.389c.261.445.235.83-.02,1.023a.745.745,0,0,1-.457.131Zm15.989-1.154c.261.445.235.83-.02,1.023a.745.745,0,0,1-.457.131h-7.222a1.675,1.675,0,0,1-.611-.131,2.587,2.587,0,0,1-1.221-1.023l-3.163-5.389c-.261-.445-.235-.83.02-1.023a.745.745,0,0,1,.457-.131h7.222a1.675,1.675,0,0,1,.611.131,2.587,2.587,0,0,1,1.221,1.023ZM167.6,271.7h4.288a1.675,1.675,0,0,1,.611.131,2.587,2.587,0,0,1,1.221,1.023l3.163,5.389c.261.445.235.83-.02,1.023a.745.745,0,0,1-.457.131h-7.222a1.675,1.675,0,0,1-.611-.131,2.588,2.588,0,0,1-1.221-1.023l-3.163-5.389c-.261-.445-.235-.83.02-1.023a.745.745,0,0,1,.457-.131Zm-19.675-9.4h7.222a1.675,1.675,0,0,1,.611.131,2.587,2.587,0,0,1,1.221,1.023l3.163,5.389c.261.445.235.83-.02,1.023a.745.745,0,0,1-.457.131h-7.222a1.674,1.674,0,0,1-.611-.131,2.587,2.587,0,0,1-1.221-1.023l-3.163-5.389c-.261-.445-.235-.83.02-1.023A.745.745,0,0,1,147.928,262.294Z" transform="translate(-118.525 -212.74)" fill="#c1b7d3"/>
  <path id="Trazado_624317" data-name="Trazado 624317" d="M309.349,261.37c.3.509.128.922-.381.922h1.591a1.675,1.675,0,0,1,.611.131,2.587,2.587,0,0,1,1.221,1.023l.9,1.528a3.675,3.675,0,0,1-.542-3.224,7.793,7.793,0,0,0-3.941-1.3h-.919A1.936,1.936,0,0,1,309.349,261.37Z" transform="translate(-251.487 -212.739)" fill="#c1b7d3"/>
  <path id="Trazado_624318" data-name="Trazado 624318" d="M153.145,283.485a2.321,2.321,0,0,1-.242,1.029l4.347,7.407a9.841,9.841,0,0,0,3.242,3.224,3.674,3.674,0,0,0-.542-3.224l-12.4-21.136a9.842,9.842,0,0,0-3.242-3.224,3.674,3.674,0,0,0,.542,3.224l6.088,10.374c.076,0,.151.011.226.023a2.331,2.331,0,0,1,1.985,2.3Z" transform="translate(-117.723 -218.549)" fill="#a583bb"/>
  <path id="Trazado_624319" data-name="Trazado 624319" d="M334.156,270.784l2.266,3.861,3.936,6.707,1.581,2.695,2.355,4.012h0l2.266,3.861a9.843,9.843,0,0,0,3.242,3.224,3.674,3.674,0,0,0-.542-3.224l-3.828-6.523-.267-.454-1.881-3.2-.205-.35-6.224-10.605a9.842,9.842,0,0,0-3.242-3.224A3.675,3.675,0,0,0,334.156,270.784Z" transform="translate(-272.354 -218.548)" fill="#ebd9ea"/>
  <path id="Trazado_624320" data-name="Trazado 624320" d="M233.433,261.371a1.936,1.936,0,0,0,1.463.922h13.137c.509,0,.68-.413.381-.922a1.935,1.935,0,0,0-1.463-.922H233.814c-.509,0-.68.413-.381.922Z" transform="translate(-190.552 -212.739)" fill="#fff"/>
  <path id="Trazado_624321" data-name="Trazado 624321" d="M159.241,271.671l3.163,5.389c.261.445.235.83-.02,1.023a1.675,1.675,0,0,0,.611.131h7.222a.745.745,0,0,0,.457-.131,2.587,2.587,0,0,1-1.221-1.023l-3.163-5.389c-.261-.445-.235-.83.02-1.023a1.675,1.675,0,0,0-.611-.131h-7.222a.745.745,0,0,0-.457.131A2.587,2.587,0,0,1,159.241,271.671Z" transform="translate(-129.074 -220.963)" fill="#2e3140"/>
  <path id="Trazado_624322" data-name="Trazado 624322" d="M161.493,277.647l-3.163-5.389a2.587,2.587,0,0,0-1.221-1.023c-.256.193-.281.578-.02,1.023l3.163,5.389a2.588,2.588,0,0,0,1.221,1.023C161.729,278.477,161.754,278.092,161.493,277.647Z" transform="translate(-128.163 -221.55)" fill="#3e4e60"/>
  <path id="Trazado_624323" data-name="Trazado 624323" d="M202.343,272.257l3.163,5.389a2.587,2.587,0,0,0,1.221,1.023c.256-.193.281-.578.02-1.023l-3.163-5.389a2.587,2.587,0,0,0-1.221-1.023C202.108,271.427,202.082,271.812,202.343,272.257Z" transform="translate(-165.127 -221.549)" fill="#151516"/>
  <path id="Trazado_624324" data-name="Trazado 624324" d="M223.464,270.517h-3.718a.745.745,0,0,0-.457.131,2.587,2.587,0,0,1,1.221,1.023l3.163,5.389c.261.445.235.83-.02,1.023a1.675,1.675,0,0,0,.611.131h7.222a.745.745,0,0,0,.457-.131,2.587,2.587,0,0,1-1.221-1.023l-3.163-5.389c-.261-.445-.235-.83.02-1.023a1.675,1.675,0,0,0-.611-.131h-3.5Z" transform="translate(-179.12 -220.963)" fill="#2e3140"/>
  <path id="Trazado_624325" data-name="Trazado 624325" d="M222.764,277.647l-3.163-5.389a2.587,2.587,0,0,0-1.221-1.023c-.256.193-.281.578-.02,1.023l3.163,5.389a2.588,2.588,0,0,0,1.221,1.023C223,278.477,223.025,278.092,222.764,277.647Z" transform="translate(-178.21 -221.55)" fill="#3e4e60"/>
  <path id="Trazado_624326" data-name="Trazado 624326" d="M263.614,272.257l3.163,5.389A2.587,2.587,0,0,0,268,278.669c.256-.193.281-.578.02-1.023l-3.163-5.389a2.587,2.587,0,0,0-1.221-1.023C263.379,271.427,263.353,271.812,263.614,272.257Z" transform="translate(-215.175 -221.549)" fill="#151516"/>
  <path id="Trazado_624327" data-name="Trazado 624327" d="M291.993,277.062l-3.163-5.389c-.261-.445-.235-.83.02-1.023a1.675,1.675,0,0,0-.611-.131h-7.222a.745.745,0,0,0-.457.131,2.588,2.588,0,0,1,1.221,1.023l3.163,5.389c.261.445.235.83-.02,1.023a1.674,1.674,0,0,0,.611.131h7.222a.745.745,0,0,0,.457-.131A2.588,2.588,0,0,1,291.993,277.062Z" transform="translate(-229.166 -220.964)" fill="#2e3140"/>
  <path id="Trazado_624328" data-name="Trazado 624328" d="M284.034,277.647l-3.163-5.389a2.587,2.587,0,0,0-1.221-1.023c-.256.193-.281.578-.02,1.023l3.163,5.389a2.588,2.588,0,0,0,1.221,1.023C284.27,278.477,284.3,278.092,284.034,277.647Z" transform="translate(-228.257 -221.55)" fill="#3e4e60"/>
  <path id="Trazado_624329" data-name="Trazado 624329" d="M327.022,273.785l-.9-1.528a2.587,2.587,0,0,0-1.221-1.023c-.256.193-.281.578-.02,1.023l3.163,5.389a2.588,2.588,0,0,0,1.221,1.023c.256-.193.281-.578.02-1.023Z" transform="translate(-265.221 -221.549)" fill="#151516"/>
  <path id="Trazado_624330" data-name="Trazado 624330" d="M189.362,323l3.163,5.389c.261.445.235.83-.02,1.023a1.675,1.675,0,0,0,.611.131h7.222a.745.745,0,0,0,.457-.131,2.588,2.588,0,0,1-1.221-1.023L196.411,323c-.261-.445-.235-.83.02-1.023a1.674,1.674,0,0,0-.611-.131H188.6a.745.745,0,0,0-.457.131A2.588,2.588,0,0,1,189.362,323Z" transform="translate(-153.677 -262.886)" fill="#2e3140"/>
  <path id="Trazado_624331" data-name="Trazado 624331" d="M191.614,328.972l-3.163-5.389a2.587,2.587,0,0,0-1.221-1.023c-.256.193-.281.578-.02,1.023l3.163,5.389A2.587,2.587,0,0,0,191.593,330C191.849,329.8,191.875,329.417,191.614,328.972Z" transform="translate(-152.766 -263.473)" fill="#3e4e60"/>
  <path id="Trazado_624332" data-name="Trazado 624332" d="M232.465,323.582l3.163,5.389a2.587,2.587,0,0,0,1.221,1.023c.256-.193.281-.578.02-1.023l-3.163-5.389a2.587,2.587,0,0,0-1.221-1.023C232.23,322.752,232.2,323.137,232.465,323.582Z" transform="translate(-189.731 -263.472)" fill="#151516"/>
  <path id="Trazado_624333" data-name="Trazado 624333" d="M250.633,323l3.163,5.389c.261.445.235.83-.02,1.023a1.675,1.675,0,0,0,.611.131h7.222a.745.745,0,0,0,.457-.131,2.588,2.588,0,0,1-1.221-1.023L257.682,323c-.261-.445-.235-.83.02-1.023a1.674,1.674,0,0,0-.611-.131h-7.222a.745.745,0,0,0-.457.131A2.588,2.588,0,0,1,250.633,323Z" transform="translate(-203.724 -262.886)" fill="#2e3140"/>
  <path id="Trazado_624334" data-name="Trazado 624334" d="M252.885,328.972l-3.163-5.389a2.588,2.588,0,0,0-1.221-1.023c-.256.193-.281.578-.02,1.023l3.163,5.389A2.587,2.587,0,0,0,252.865,330C253.121,329.8,253.146,329.417,252.885,328.972Z" transform="translate(-202.814 -263.473)" fill="#3e4e60"/>
  <path id="Trazado_624335" data-name="Trazado 624335" d="M293.735,323.582l3.163,5.389a2.587,2.587,0,0,0,1.221,1.023c.255-.193.281-.578.02-1.023l-3.163-5.389a2.587,2.587,0,0,0-1.221-1.023C293.5,322.752,293.474,323.137,293.735,323.582Z" transform="translate(-239.778 -263.472)" fill="#151516"/>
  <path id="Trazado_624336" data-name="Trazado 624336" d="M322.114,328.387,318.951,323c-.261-.445-.235-.83.02-1.023a1.675,1.675,0,0,0-.611-.131h-7.222a.745.745,0,0,0-.457.131A2.587,2.587,0,0,1,311.9,323l3.163,5.389c.261.445.235.83-.02,1.023a1.675,1.675,0,0,0,.611.131h7.222a.745.745,0,0,0,.457-.131A2.588,2.588,0,0,1,322.114,328.387Z" transform="translate(-253.77 -262.887)" fill="#2e3140"/>
  <path id="Trazado_624337" data-name="Trazado 624337" d="M314.155,328.972l-3.163-5.389a2.587,2.587,0,0,0-1.221-1.023c-.256.193-.281.578-.02,1.023l3.163,5.389A2.587,2.587,0,0,0,314.135,330C314.391,329.8,314.417,329.417,314.155,328.972Z" transform="translate(-252.86 -263.473)" fill="#3e4e60"/>
  <path id="Trazado_624338" data-name="Trazado 624338" d="M357.829,326.277l-1.581-2.695a2.587,2.587,0,0,0-1.221-1.023c-.256.193-.281.578-.02,1.023l3.163,5.389a2.588,2.588,0,0,0,1.221,1.023c.256-.193.281-.578.02-1.023Z" transform="translate(-289.825 -263.472)" fill="#151516"/>
  <path id="Trazado_624339" data-name="Trazado 624339" d="M229.694,379.712l-3.163-5.389c-.261-.445-.235-.83.02-1.023a1.675,1.675,0,0,0-.611-.131h-7.222a.745.745,0,0,0-.457.131,2.587,2.587,0,0,1,1.221,1.023l3.163,5.389c.261.445.235.83-.02,1.023a1.674,1.674,0,0,0,.611.131h7.222a.745.745,0,0,0,.457-.131A2.588,2.588,0,0,1,229.694,379.712Z" transform="translate(-178.28 -304.81)" fill="#2e3140"/>
  <path id="Trazado_624340" data-name="Trazado 624340" d="M221.735,380.3l-3.163-5.389a2.587,2.587,0,0,0-1.221-1.023c-.256.193-.281.578-.02,1.023l3.163,5.389a2.587,2.587,0,0,0,1.221,1.023C221.971,381.127,222,380.742,221.735,380.3Z" transform="translate(-177.37 -305.396)" fill="#3e4e60"/>
  <path id="Trazado_624341" data-name="Trazado 624341" d="M262.586,374.907l3.163,5.389a2.587,2.587,0,0,0,1.221,1.023c.256-.193.281-.578.02-1.023l-3.163-5.389a2.587,2.587,0,0,0-1.221-1.023C262.35,374.077,262.325,374.462,262.586,374.907Z" transform="translate(-214.335 -305.395)" fill="#151516"/>
  <path id="Trazado_624342" data-name="Trazado 624342" d="M290.965,379.712l-3.163-5.389c-.261-.445-.235-.83.02-1.023a1.675,1.675,0,0,0-.611-.131h-7.222a.745.745,0,0,0-.457.131,2.587,2.587,0,0,1,1.221,1.023l3.163,5.389c.261.445.235.83-.02,1.023a1.675,1.675,0,0,0,.611.131h7.222a.745.745,0,0,0,.457-.131A2.588,2.588,0,0,1,290.965,379.712Z" transform="translate(-228.327 -304.81)" fill="#2e3140"/>
  <path id="Trazado_624343" data-name="Trazado 624343" d="M283.006,380.3l-3.163-5.389a2.587,2.587,0,0,0-1.221-1.023c-.256.193-.281.578-.02,1.023l3.163,5.389a2.587,2.587,0,0,0,1.221,1.023C283.242,381.127,283.267,380.742,283.006,380.3Z" transform="translate(-227.417 -305.396)" fill="#3e4e60"/>
  <path id="Trazado_624344" data-name="Trazado 624344" d="M323.878,373.884c-.256.193-.281.578-.02,1.023l3.163,5.389a2.587,2.587,0,0,0,1.221,1.023c.256-.193.281-.578.02-1.023l-3.163-5.389A2.59,2.59,0,0,0,323.878,373.884Z" transform="translate(-264.382 -305.395)" fill="#151516"/>
  <path id="Trazado_624345" data-name="Trazado 624345" d="M352.236,379.712l-3.163-5.389c-.261-.445-.235-.83.02-1.023a1.675,1.675,0,0,0-.611-.131H341.26a.745.745,0,0,0-.457.131,2.587,2.587,0,0,1,1.221,1.023l3.163,5.389c.261.445.235.83-.02,1.023a1.675,1.675,0,0,0,.611.131H353a.745.745,0,0,0,.457-.131A2.588,2.588,0,0,1,352.236,379.712Z" transform="translate(-278.374 -304.81)" fill="#2e3140"/>
  <path id="Trazado_624346" data-name="Trazado 624346" d="M344.277,380.3l-3.163-5.389a2.587,2.587,0,0,0-1.221-1.023c-.256.193-.281.578-.02,1.023l3.163,5.389a2.587,2.587,0,0,0,1.221,1.023C344.513,381.127,344.538,380.742,344.277,380.3Z" transform="translate(-277.464 -305.396)" fill="#3e4e60"/>
  <path id="Trazado_624347" data-name="Trazado 624347" d="M386.368,374.907a2.587,2.587,0,0,0-1.221-1.023c-.256.193-.281.578-.02,1.023l3.163,5.389a2.587,2.587,0,0,0,1.221,1.023c.256-.193.281-.578.02-1.023l-.9-1.528Z" transform="translate(-314.429 -305.395)" fill="#151516"/>
  <path id="Trazado_624348" data-name="Trazado 624348" d="M179.1,384.791a2.332,2.332,0,0,1-.918,0v12.973a2.33,2.33,0,0,0,.918,0Z" transform="translate(-145.544 -314.304)" fill="#334353"/>
  <path id="Trazado_624349" data-name="Trazado 624349" d="M183.839,383.516a2.317,2.317,0,0,1-.641.234v12.973a2.317,2.317,0,0,0,.641-.234V383.516Z" transform="translate(-149.639 -313.263)" fill="#3e4e60"/>
  <path id="Trazado_624350" data-name="Trazado 624350" d="M174.577,382.583a1.11,1.11,0,0,0,2.221,0v-.655a2.324,2.324,0,0,1-1.11.281,2.343,2.343,0,0,1-.449-.044V369.191a2.33,2.33,0,0,0,.918,0,2.317,2.317,0,0,0,.641-.234v-3.265a2.336,2.336,0,0,1-2.221,0v16.894Z" transform="translate(-142.598 -298.701)" fill="#2e3140"/>
  <path id="Trazado_624351" data-name="Trazado 624351" d="M170.238,346.42a2.364,2.364,0,0,0,.347-.029,2.358,2.358,0,0,1-.369-.089l.01,0a2.332,2.332,0,0,1,0-4.422l-.01,0h0a2.349,2.349,0,0,1,.369-.089c-.074-.011-.149-.019-.226-.023-.04,0-.08-.006-.121-.006a2.333,2.333,0,0,0,0,4.665Z" transform="translate(-137.149 -279.152)" fill="#2d2c33"/>
  <path id="Trazado_624352" data-name="Trazado 624352" d="M175.071,344.63a1.678,1.678,0,1,0-1.591,2.211A2.333,2.333,0,0,0,175.071,344.63Z" transform="translate(-140.401 -279.694)" fill="#2e3140"/>
  <path id="Trazado_624353" data-name="Trazado 624353" d="M180.515,342.4h0Z" transform="translate(-147.448 -279.675)" fill="#3e4e60"/>
  <path id="Trazado_624354" data-name="Trazado 624354" d="M182.631,345.247a2.326,2.326,0,0,0-1.744-3.333,2.353,2.353,0,0,0-.369.089l.01,0a2.332,2.332,0,0,1,0,4.422l-.01,0a2.346,2.346,0,0,0,.369.089,2.318,2.318,0,0,0,.763-.252A2.344,2.344,0,0,0,182.631,345.247Z" transform="translate(-147.451 -279.282)" fill="#3e4e60"/>
  <path id="Trazado_624355" data-name="Trazado 624355" d="M133.563,430.822a2.33,2.33,0,0,0,.918,0v-5.56h-.918Z" transform="translate(-109.097 -347.358)" fill="#334353"/>
  <path id="Trazado_624356" data-name="Trazado 624356" d="M138.577,430.819a2.318,2.318,0,0,0,.641-.234v-5.327h-.641Z" transform="translate(-113.192 -347.359)" fill="#3e4e60"/>
  <path id="Trazado_624357" data-name="Trazado 624357" d="M131.065,430.868a2.343,2.343,0,0,1-.449-.044V425.26h-.661v5.982a1.11,1.11,0,0,0,2.221,0v-.655a2.316,2.316,0,0,1-.641.234A2.356,2.356,0,0,1,131.065,430.868Z" transform="translate(-106.15 -347.36)" fill="#2e3140"/>
  <path id="Trazado_624358" data-name="Trazado 624358" d="M130.646,342.345a2.332,2.332,0,0,1,.8-.467l-.01,0h0a2.349,2.349,0,0,1,.369-.089,2.262,2.262,0,0,0-1.369.209Z" transform="translate(-106.547 -279.153)" fill="#2d2c33"/>
  <path id="Trazado_624359" data-name="Trazado 624359" d="M133.957,344.63a2.333,2.333,0,0,0-1.592-2.211,2.328,2.328,0,0,0-.8.467l1.881,3.2A2.319,2.319,0,0,0,133.957,344.63Z" transform="translate(-107.461 -279.694)" fill="#2e3140"/>
  <path id="Trazado_624360" data-name="Trazado 624360" d="M135.893,342.4h0Z" transform="translate(-111 -279.675)" fill="#3e4e60"/>
  <path id="Trazado_624361" data-name="Trazado 624361" d="M135.909,342.007a2.329,2.329,0,0,1,1.076,3.671l.267.454a2.329,2.329,0,0,0-.984-4.218,2.353,2.353,0,0,0-.369.089Z" transform="translate(-111.005 -279.282)" fill="#3e4e60"/>
  <path id="Trazado_624362" data-name="Trazado 624362" d="M53.7,261.37c.3.509.128.922-.381.922h1.591a1.675,1.675,0,0,1,.611.131,2.587,2.587,0,0,1,1.221,1.023l.9,1.528a3.675,3.675,0,0,1-.542-3.224,7.793,7.793,0,0,0-3.942-1.3h-.919A1.936,1.936,0,0,1,53.7,261.37Z" transform="translate(-42.664 -212.739)" fill="#c1b7d3"/>
  <path id="Trazado_624363" data-name="Trazado 624363" d="M28.344,298.864h4.4a2.4,2.4,0,0,0,2.412-1.3,9.843,9.843,0,0,1-3.242-3.224l.9,1.528c.261.445.235.83-.02,1.023a.745.745,0,0,1-.457.131H25.11a1.674,1.674,0,0,1-.611-.131,2.587,2.587,0,0,1-1.221-1.023l-3.163-5.389c-.261-.445-.235-.83.02-1.023a.745.745,0,0,1,.457-.131h7.222a1.674,1.674,0,0,1,.611.131,2.587,2.587,0,0,1,1.221,1.023l-2.355-4.012c.261.445.235.83-.02,1.023a.745.745,0,0,1-.457.131H19.593a1.675,1.675,0,0,1-.611-.131,2.587,2.587,0,0,1-1.221-1.023L14.6,281.074c-.261-.445-.235-.83.02-1.023a.745.745,0,0,1,.457-.131H22.3a1.675,1.675,0,0,1,.611.131,2.587,2.587,0,0,1,1.221,1.023l1.581,2.695-3.936-6.707c.261.445.235.83-.02,1.023a.745.745,0,0,1-.457.131H14.075a1.674,1.674,0,0,1-.611-.131,2.587,2.587,0,0,1-1.221-1.023L9.08,271.672c-.261-.445-.235-.83.02-1.023a.745.745,0,0,1,.457-.131h-4a1.675,1.675,0,0,1,.611.131,2.588,2.588,0,0,1,1.221,1.023l3.163,5.389c.261.445.235.83-.02,1.023a.745.745,0,0,1-.457.131H5.688q.193.858.419,1.7h4.967a1.674,1.674,0,0,1,.611.131,2.587,2.587,0,0,1,1.221,1.023l3.163,5.389c.261.445.235.83-.02,1.023a.745.745,0,0,1-.457.131H8.9q.4.861.833,1.7h6.863a1.674,1.674,0,0,1,.611.131,2.588,2.588,0,0,1,1.221,1.023l3.163,5.389c.261.445.235.83-.02,1.023a.745.745,0,0,1-.457.131h-6.4q.749.942,1.546,1.844H28.344Z" transform="translate(-4.538 -220.964)" fill="#c1b7d3"/>
  <path id="Trazado_624364" data-name="Trazado 624364" d="M78.5,270.784l2.266,3.861,3.936,6.707,1.581,2.695,2.355,4.012h0l2.266,3.861a9.843,9.843,0,0,0,3.242,3.224,3.674,3.674,0,0,0-.542-3.224L89.778,285.4l-.267-.454-1.881-3.2-.205-.35L81.2,270.784a9.842,9.842,0,0,0-3.242-3.224,3.675,3.675,0,0,0,.542,3.224Z" transform="translate(-63.532 -218.548)" fill="#ebd9ea"/>
  <path id="Trazado_624365" data-name="Trazado 624365" d="M2.131,262.293H10.7c.509,0,.68-.413.381-.922a1.935,1.935,0,0,0-1.463-.922H.056q.016.927.066,1.844H2.131Z" transform="translate(-0.046 -212.739)" fill="#fff"/>
  <path id="Trazado_624366" data-name="Trazado 624366" d="M2.943,278.215H5.877a.745.745,0,0,0,.457-.131,2.587,2.587,0,0,1-1.221-1.023l-3.163-5.39c-.261-.445-.235-.83.02-1.023a1.675,1.675,0,0,0-.611-.131H.418a46.885,46.885,0,0,0,1.073,7.7H2.943Z" transform="translate(-0.341 -220.963)" fill="#2e3140"/>
  <path id="Trazado_624367" data-name="Trazado 624367" d="M7.96,272.257l3.163,5.389a2.587,2.587,0,0,0,1.221,1.023c.256-.193.281-.578.02-1.023L9.2,272.257a2.587,2.587,0,0,0-1.221-1.023c-.255.193-.281.578-.02,1.023Z" transform="translate(-6.352 -221.549)" fill="#151516"/>
  <path id="Trazado_624368" data-name="Trazado 624368" d="M36.34,277.062l-3.163-5.389c-.261-.445-.235-.83.02-1.023a1.674,1.674,0,0,0-.611-.131H25.364a.745.745,0,0,0-.457.131,2.588,2.588,0,0,1,1.221,1.023l3.163,5.389c.261.445.235.83-.02,1.023a1.674,1.674,0,0,0,.611.131H37.1a.745.745,0,0,0,.457-.131A2.588,2.588,0,0,1,36.34,277.062Z" transform="translate(-20.344 -220.964)" fill="#2e3140"/>
  <path id="Trazado_624369" data-name="Trazado 624369" d="M28.381,277.647l-3.163-5.389A2.587,2.587,0,0,0,24,271.235c-.256.193-.281.578-.02,1.023l3.163,5.389a2.588,2.588,0,0,0,1.221,1.023C28.616,278.477,28.642,278.092,28.381,277.647Z" transform="translate(-19.434 -221.55)" fill="#3e4e60"/>
  <path id="Trazado_624370" data-name="Trazado 624370" d="M71.368,273.785l-.9-1.528a2.587,2.587,0,0,0-1.221-1.023c-.256.193-.281.578-.02,1.023l3.163,5.389a2.587,2.587,0,0,0,1.221,1.023c.256-.193.281-.578.02-1.023Z" transform="translate(-56.398 -221.549)" fill="#151516"/>
  <path id="Trazado_624371" data-name="Trazado 624371" d="M15.114,329.541h2.934a.745.745,0,0,0,.457-.131,2.587,2.587,0,0,1-1.221-1.023L14.121,323c-.261-.445-.235-.83.02-1.023a1.676,1.676,0,0,0-.611-.131H8.564a46.552,46.552,0,0,0,2.789,7.7h3.762Z" transform="translate(-6.995 -262.887)" fill="#2e3140"/>
  <path id="Trazado_624372" data-name="Trazado 624372" d="M38.081,323.582l3.163,5.389a2.587,2.587,0,0,0,1.221,1.023c.256-.193.281-.578.02-1.023l-3.163-5.389a2.587,2.587,0,0,0-1.221-1.023C37.846,322.752,37.82,323.137,38.081,323.582Z" transform="translate(-30.955 -263.472)" fill="#151516"/>
  <path id="Trazado_624373" data-name="Trazado 624373" d="M66.461,328.387,63.3,323c-.261-.445-.235-.83.02-1.023a1.675,1.675,0,0,0-.611-.131H55.486a.745.745,0,0,0-.457.131A2.587,2.587,0,0,1,56.25,323l3.163,5.389c.261.445.235.83-.02,1.023a1.675,1.675,0,0,0,.611.131h7.222a.745.745,0,0,0,.457-.131A2.588,2.588,0,0,1,66.461,328.387Z" transform="translate(-44.949 -262.887)" fill="#2e3140"/>
  <path id="Trazado_624374" data-name="Trazado 624374" d="M58.5,328.972l-3.163-5.389a2.587,2.587,0,0,0-1.221-1.023c-.256.193-.281.578-.02,1.023l3.163,5.389A2.587,2.587,0,0,0,58.481,330C58.737,329.8,58.763,329.417,58.5,328.972Z" transform="translate(-44.037 -263.473)" fill="#3e4e60"/>
  <path id="Trazado_624375" data-name="Trazado 624375" d="M102.175,326.277l-1.581-2.695a2.587,2.587,0,0,0-1.221-1.023c-.256.193-.281.578-.02,1.023l3.163,5.389a2.587,2.587,0,0,0,1.221,1.023c.256-.193.281-.578.02-1.023Z" transform="translate(-81.003 -263.472)" fill="#151516"/>
  <path id="Trazado_624376" data-name="Trazado 624376" d="M36.782,380.866h2.934a.745.745,0,0,0,.457-.131,2.588,2.588,0,0,1-1.221-1.023l-3.163-5.389c-.261-.445-.235-.83.02-1.023a1.676,1.676,0,0,0-.611-.131H28.335a46.959,46.959,0,0,0,4.98,7.7h3.467Z" transform="translate(-23.145 -304.81)" fill="#2e3140"/>
  <path id="Trazado_624377" data-name="Trazado 624377" d="M68.2,374.908l3.163,5.39a2.587,2.587,0,0,0,1.221,1.023c.256-.193.281-.578.02-1.023l-3.163-5.389a2.587,2.587,0,0,0-1.221-1.023C67.968,374.078,67.942,374.463,68.2,374.908Z" transform="translate(-55.559 -305.396)" fill="#151516"/>
  <path id="Trazado_624378" data-name="Trazado 624378" d="M96.582,379.712l-3.163-5.389c-.261-.445-.235-.83.02-1.023a1.675,1.675,0,0,0-.611-.131H85.606a.745.745,0,0,0-.457.131,2.587,2.587,0,0,1,1.221,1.023l3.163,5.389c.261.445.235.83-.02,1.023a1.675,1.675,0,0,0,.611.131h7.222a.745.745,0,0,0,.457-.131A2.588,2.588,0,0,1,96.582,379.712Z" transform="translate(-69.551 -304.81)" fill="#2e3140"/>
  <path id="Trazado_624379" data-name="Trazado 624379" d="M88.623,380.3l-3.163-5.389a2.587,2.587,0,0,0-1.221-1.023c-.256.193-.281.578-.02,1.023l3.163,5.389A2.587,2.587,0,0,0,88.6,381.32C88.859,381.127,88.884,380.742,88.623,380.3Z" transform="translate(-68.642 -305.396)" fill="#3e4e60"/>
  <path id="Trazado_624380" data-name="Trazado 624380" d="M130.715,374.907a2.587,2.587,0,0,0-1.221-1.023c-.256.193-.281.578-.02,1.023l3.163,5.389a2.587,2.587,0,0,0,1.221,1.023c.256-.193.281-.578.02-1.023l-.9-1.528Z" transform="translate(-105.606 -305.395)" fill="#151516"/>
</svg>
