<svg id="Grupo_873848" data-name="Grupo 873848" xmlns="http://www.w3.org/2000/svg" xmlns:xlink="http://www.w3.org/1999/xlink" width="144.325" height="136.092" viewBox="0 0 144.325 136.092">
  <defs>
    <clipPath id="clip-path">
      <rect id="Rectángulo_45164" data-name="Rectángulo 45164" width="144.325" height="77.5" fill="none"/>
    </clipPath>
    <clipPath id="clip-path-2">
      <rect id="Rectángulo_45148" data-name="Rectángulo 45148" width="125.854" height="90.962" fill="none"/>
    </clipPath>
    <clipPath id="clip-path-3">
      <rect id="Rectángulo_45147" data-name="Rectángulo 45147" width="139.338" height="90.962" fill="none"/>
    </clipPath>
    <clipPath id="clip-path-4">
      <rect id="Rectángulo_45142" data-name="Rectángulo 45142" width="64.371" height="1.838" fill="none"/>
    </clipPath>
  </defs>
  <g id="Grupo_873791" data-name="Grupo 873791" transform="translate(0 48.327)">
    <path id="Trazado_256462" data-name="Trazado 256462" d="M123.029,84.5C94.76,68.179,49.069,68.1,20.977,84.316s-27.95,42.6.319,58.92,73.959,16.4,102.052.184,27.95-42.6-.319-58.92" transform="translate(0 -67.767)" fill="#b77250"/>
    <path id="Trazado_256463" data-name="Trazado 256463" d="M123.029,78.426c-28.269-16.321-73.96-16.4-102.052-.184s-27.95,42.6.319,58.92,73.959,16.4,102.052.184,27.95-42.6-.319-58.92" transform="translate(0 -66.131)" fill="#efbc73"/>
  </g>
  <rect id="Rectángulo_44666" data-name="Rectángulo 44666" width="144.325" height="136.092" fill="none"/>
  <g id="Grupo_873790" data-name="Grupo 873790" transform="translate(0 0.595)">
    <g id="Grupo_873789" data-name="Grupo 873789">
      <g id="Grupo_873788" data-name="Grupo 873788">
        <rect id="Rectángulo_45161" data-name="Rectángulo 45161" width="62.681" height="50.975" transform="translate(0 2.765)" fill="#fff"/>
        <g id="Grupo_873787" data-name="Grupo 873787">
          <g id="Grupo_873786" data-name="Grupo 873786" clip-path="url(#clip-path)">
            <path id="Trazado_258399" data-name="Trazado 258399" d="M82.707,60.55H20.026a.182.182,0,0,1-.182-.182V9.393a.182.182,0,0,1,.182-.182H82.707a.182.182,0,0,1,.182.182V60.368a.182.182,0,0,1-.182.182m-62.5-.364H82.525V9.575H20.208Z" transform="translate(-18.204 -8.45)" fill="#d3bba3"/>
            <path id="Trazado_258400" data-name="Trazado 258400" d="M132.594,102.072c4.595-.678,6.541,2.4,11.5.556,4.119-1.528,4.836-4.635,8.348-7.606.747-.632,7.014-4.909,12.623-2.256a7.174,7.174,0,0,1,3.612,9.491c-2.022,4.593-6.225,4.659-6.032,10.388.113,3.345,2.05,5.2,1.67,10.2a10.513,10.513,0,0,1-7.194,9.543c-3.777,1.37-8.866.645-18.221-4.72-5.263-3.018-7.507-4.877-9.275-6.864-7.441-8.358-3.154-17.833,2.968-18.736" transform="translate(-115.295 -84.312)" fill="#8b865c"/>
            <path id="Trazado_258401" data-name="Trazado 258401" d="M183.972,149.694c3.677-.542,5.235,1.918,9.2.445,3.3-1.223,3.87-3.71,6.68-6.087.6-.506,5.613-3.929,10.1-1.806a5.741,5.741,0,0,1,2.89,7.6c-1.618,3.676-4.982,3.729-4.827,8.313.09,2.677,1.64,4.164,1.336,8.165a8.413,8.413,0,0,1-5.757,7.637c-3.022,1.1-7.1.516-14.582-3.777-4.211-2.415-6.007-3.9-7.423-5.493-5.955-6.688-2.524-14.271,2.375-14.994" transform="translate(-163.694 -129.861)" fill="#efbc73"/>
            <path id="Trazado_258402" data-name="Trazado 258402" d="M209.886,206.3c3.1-.457,4.408,1.615,7.75.375,2.776-1.03,3.259-3.123,5.625-5.125.5-.426,4.726-3.308,8.506-1.52a4.834,4.834,0,0,1,2.434,6.4c-1.362,3.1-4.195,3.139-4.065,7,.076,2.254,1.381,3.506,1.125,6.875a7.084,7.084,0,0,1-4.847,6.43c-2.545.923-5.974.435-12.277-3.181-3.546-2.034-5.058-3.286-6.25-4.625-5.014-5.632-2.125-12.016,2-12.625" transform="translate(-188.268 -182.971)" fill="#e0aa63"/>
            <path id="Trazado_258403" data-name="Trazado 258403" d="M239.695,276.416c2.17-.32,3.089,1.132,5.431.263,1.945-.722,2.284-2.189,3.942-3.592.353-.3,3.312-2.318,5.961-1.065a3.388,3.388,0,0,1,1.706,4.482c-.955,2.169-2.94,2.2-2.849,4.906.053,1.58.968,2.457.788,4.818a4.964,4.964,0,0,1-3.4,4.507c-1.783.647-4.187.3-8.6-2.229a16.069,16.069,0,0,1-4.38-3.241c-3.514-3.947-1.489-8.421,1.4-8.848" transform="translate(-216.892 -249.171)" fill="#d87355"/>
            <path id="Trazado_258404" data-name="Trazado 258404" d="M23.81,53.62H20.026a.182.182,0,0,1,0-.364H23.81a.182.182,0,0,1,0,.364" transform="translate(-18.204 -48.855)" fill="#d3bba3"/>
            <path id="Trazado_258405" data-name="Trazado 258405" d="M21.988,97.716H20.026a.182.182,0,1,1,0-.364h1.962a.182.182,0,1,1,0,.364" transform="translate(-18.204 -89.307)" fill="#d3bba3"/>
            <path id="Trazado_258406" data-name="Trazado 258406" d="M23.81,141.812H20.026a.182.182,0,0,1,0-.364H23.81a.182.182,0,0,1,0,.364" transform="translate(-18.204 -129.759)" fill="#d3bba3"/>
            <path id="Trazado_258407" data-name="Trazado 258407" d="M21.988,185.909H20.026a.182.182,0,0,1,0-.364h1.962a.182.182,0,0,1,0,.364" transform="translate(-18.204 -170.212)" fill="#d3bba3"/>
            <path id="Trazado_258408" data-name="Trazado 258408" d="M23.81,230.005H20.026a.182.182,0,0,1,0-.364H23.81a.182.182,0,0,1,0,.364" transform="translate(-18.204 -210.664)" fill="#d3bba3"/>
            <path id="Trazado_258409" data-name="Trazado 258409" d="M21.988,274.1H20.026a.182.182,0,0,1,0-.364h1.962a.182.182,0,0,1,0,.364" transform="translate(-18.204 -251.116)" fill="#d3bba3"/>
            <path id="Trazado_258410" data-name="Trazado 258410" d="M23.81,318.2H20.026a.182.182,0,0,1,0-.364H23.81a.182.182,0,0,1,0,.364" transform="translate(-18.204 -291.569)" fill="#d3bba3"/>
            <path id="Trazado_258411" data-name="Trazado 258411" d="M21.988,362.294H20.026a.182.182,0,0,1,0-.364h1.962a.182.182,0,0,1,0,.364" transform="translate(-18.204 -332.021)" fill="#d3bba3"/>
            <path id="Trazado_258412" data-name="Trazado 258412" d="M23.81,406.391H20.026a.182.182,0,1,1,0-.364H23.81a.182.182,0,1,1,0,.364" transform="translate(-18.204 -372.474)" fill="#d3bba3"/>
            <path id="Trazado_258413" data-name="Trazado 258413" d="M21.988,450.487H20.026a.182.182,0,1,1,0-.364h1.962a.182.182,0,1,1,0,.364" transform="translate(-18.204 -412.926)" fill="#d3bba3"/>
            <path id="Trazado_258414" data-name="Trazado 258414" d="M23.81,494.583H20.026a.182.182,0,0,1,0-.364H23.81a.182.182,0,0,1,0,.364" transform="translate(-18.204 -453.378)" fill="#d3bba3"/>
            <path id="Trazado_258415" data-name="Trazado 258415" d="M21.988,538.68H20.026a.182.182,0,0,1,0-.364h1.962a.182.182,0,0,1,0,.364" transform="translate(-18.204 -493.831)" fill="#d3bba3"/>
            <path id="Trazado_258416" data-name="Trazado 258416" d="M23.81,582.776H20.026a.182.182,0,0,1,0-.364H23.81a.182.182,0,0,1,0,.364" transform="translate(-18.204 -534.283)" fill="#d3bba3"/>
            <path id="Trazado_258417" data-name="Trazado 258417" d="M638.224,14.665a.182.182,0,0,1-.182-.182V10.7a.182.182,0,1,1,.364,0v3.784a.182.182,0,0,1-.182.182" transform="translate(-585.316 -9.647)" fill="#d3bba3"/>
            <path id="Trazado_258418" data-name="Trazado 258418" d="M594.127,12.843a.182.182,0,0,1-.182-.182V10.7a.182.182,0,0,1,.364,0V12.66a.182.182,0,0,1-.182.182" transform="translate(-544.863 -9.647)" fill="#d3bba3"/>
            <path id="Trazado_258419" data-name="Trazado 258419" d="M726.417,14.665a.182.182,0,0,1-.182-.182V10.7a.182.182,0,0,1,.364,0v3.784a.182.182,0,0,1-.182.182" transform="translate(-666.221 -9.647)" fill="#d3bba3"/>
            <path id="Trazado_258420" data-name="Trazado 258420" d="M682.32,12.843a.182.182,0,0,1-.182-.182V10.7a.182.182,0,1,1,.364,0V12.66a.182.182,0,0,1-.182.182" transform="translate(-625.768 -9.647)" fill="#d3bba3"/>
            <path id="Trazado_258421" data-name="Trazado 258421" d="M550.031,14.665a.182.182,0,0,1-.182-.182V10.7a.182.182,0,0,1,.364,0v3.784a.182.182,0,0,1-.182.182" transform="translate(-504.411 -9.647)" fill="#d3bba3"/>
            <path id="Trazado_258422" data-name="Trazado 258422" d="M505.935,12.843a.182.182,0,0,1-.182-.182V10.7a.182.182,0,0,1,.364,0V12.66a.182.182,0,0,1-.182.182" transform="translate(-463.959 -9.647)" fill="#d3bba3"/>
            <path id="Trazado_258423" data-name="Trazado 258423" d="M461.838,14.665a.182.182,0,0,1-.182-.182V10.7a.182.182,0,0,1,.364,0v3.784a.182.182,0,0,1-.182.182" transform="translate(-423.506 -9.647)" fill="#d3bba3"/>
            <path id="Trazado_258424" data-name="Trazado 258424" d="M417.742,12.843a.182.182,0,0,1-.182-.182V10.7a.182.182,0,1,1,.364,0V12.66a.182.182,0,0,1-.182.182" transform="translate(-383.054 -9.647)" fill="#d3bba3"/>
            <path id="Trazado_258425" data-name="Trazado 258425" d="M373.645,14.665a.182.182,0,0,1-.182-.182V10.7a.182.182,0,0,1,.364,0v3.784a.182.182,0,0,1-.182.182" transform="translate(-342.601 -9.647)" fill="#d3bba3"/>
            <path id="Trazado_258426" data-name="Trazado 258426" d="M329.549,12.843a.182.182,0,0,1-.182-.182V10.7a.182.182,0,0,1,.364,0V12.66a.182.182,0,0,1-.182.182" transform="translate(-302.149 -9.647)" fill="#d3bba3"/>
            <path id="Trazado_258427" data-name="Trazado 258427" d="M285.453,14.665a.182.182,0,0,1-.182-.182V10.7a.182.182,0,1,1,.364,0v3.784a.182.182,0,0,1-.182.182" transform="translate(-261.697 -9.647)" fill="#d3bba3"/>
            <path id="Trazado_258428" data-name="Trazado 258428" d="M241.356,12.843a.182.182,0,0,1-.182-.182V10.7a.182.182,0,1,1,.364,0V12.66a.182.182,0,0,1-.182.182" transform="translate(-221.244 -9.647)" fill="#d3bba3"/>
            <path id="Trazado_258429" data-name="Trazado 258429" d="M197.26,14.665a.182.182,0,0,1-.182-.182V10.7a.182.182,0,1,1,.364,0v3.784a.182.182,0,0,1-.182.182" transform="translate(-180.792 -9.647)" fill="#d3bba3"/>
            <path id="Trazado_258430" data-name="Trazado 258430" d="M153.164,12.843a.182.182,0,0,1-.182-.182V10.7a.182.182,0,1,1,.364,0V12.66a.182.182,0,0,1-.182.182" transform="translate(-140.34 -9.647)" fill="#d3bba3"/>
            <path id="Trazado_258431" data-name="Trazado 258431" d="M109.067,14.665a.182.182,0,0,1-.182-.182V10.7a.182.182,0,0,1,.364,0v3.784a.182.182,0,0,1-.182.182" transform="translate(-99.887 -9.647)" fill="#d3bba3"/>
            <path id="Trazado_258432" data-name="Trazado 258432" d="M886.349,40.995A38.568,38.568,0,1,1,848,2.206a38.568,38.568,0,0,1,38.345,38.789" transform="translate(-742.343 -2.023)" fill="#b77250"/>
            <path id="Trazado_258433" data-name="Trazado 258433" d="M930.846,89.872a34.162,34.162,0,1,1-33.965-34.359,34.162,34.162,0,0,1,33.965,34.359" transform="translate(-791.246 -50.926)" fill="#efbc73"/>
            <path id="Trazado_258434" data-name="Trazado 258434" d="M966.869,129.439a30.6,30.6,0,1,1-30.42-30.772,30.6,30.6,0,0,1,30.42,30.772" transform="translate(-830.834 -90.513)" fill="#fff"/>
            <path id="Trazado_258435" data-name="Trazado 258435" d="M986.937,151.483a28.61,28.61,0,1,1-28.444-28.774,28.61,28.61,0,0,1,28.444,28.774" transform="translate(-852.889 -112.569)" fill="#efbc73"/>
            <path id="Trazado_258436" data-name="Trazado 258436" d="M1037.147,206.637a23.639,23.639,0,1,1-23.5-23.774,23.639,23.639,0,0,1,23.5,23.774" transform="translate(-908.07 -167.751)" fill="#e0aa63"/>
            <path id="Trazado_258437" data-name="Trazado 258437" d="M1139.486,319.047a13.507,13.507,0,1,1-13.429-13.585,13.507,13.507,0,0,1,13.429,13.585" transform="translate(-1020.54 -280.22)" fill="#d87355"/>
            <path id="Trazado_258438" data-name="Trazado 258438" d="M878.567,13.614a38.413,38.413,0,1,0-54.587,54.061c.087.088.177.174.264.261Z" transform="translate(-745.67 -1.928)" fill="#8b865c"/>
            <path id="Trazado_258439" data-name="Trazado 258439" d="M847.409,77.5h-.23A38.75,38.75,0,0,1,847.4,0h.227a38.75,38.75,0,0,1-.217,77.5M847.4.364a38.386,38.386,0,0,0-.217,76.77h.228A38.385,38.385,0,0,0,874.7,11.764,38.134,38.134,0,0,0,847.623.365H847.4" transform="translate(-741.827)" fill="#fff"/>
            <path id="Trazado_258440" data-name="Trazado 258440" d="M940.287,183.022a88.606,88.606,0,0,1-30.456-5.217l.127-.342a91.176,91.176,0,0,0,60.457.075l.126.342a88.719,88.719,0,0,1-30.253,5.142" transform="translate(-834.645 -162.798)" fill="#fff"/>
            <path id="Trazado_258441" data-name="Trazado 258441" d="M905.676,690.734l-.128-.341a91.425,91.425,0,0,1,61.476-.054l-.128.341a91.062,91.062,0,0,0-61.22.054" transform="translate(-830.716 -628.434)" fill="#fff"/>
            <path id="Trazado_258442" data-name="Trazado 258442" d="M1053.259,77.5c-5.42,0-10.506-4.047-14.321-11.394-3.8-7.31-5.885-17.025-5.885-27.356s2.09-20.046,5.885-27.355C1042.753,4.047,1047.839,0,1053.259,0s10.506,4.047,14.321,11.395c3.8,7.31,5.885,17.025,5.885,27.355s-2.09,20.045-5.885,27.356c-3.815,7.348-8.9,11.394-14.321,11.394m0-77.135c-10.941,0-19.842,17.22-19.842,38.386s8.9,38.386,19.842,38.386S1073.1,59.916,1073.1,38.75,1064.2.364,1053.259.364" transform="translate(-947.684)" fill="#fff"/>
            <rect id="Rectángulo_45162" data-name="Rectángulo 45162" width="0.364" height="77.002" transform="translate(105.393 0.264)" fill="#fff"/>
            <rect id="Rectángulo_45163" data-name="Rectángulo 45163" width="0.364" height="77.169" transform="translate(66.983 38.397) rotate(-89.553)" fill="#fff"/>
          </g>
        </g>
      </g>
    </g>
  </g>
  <g id="Grupo_873783" data-name="Grupo 873783" transform="translate(8.043 32.615)">
    <g id="Grupo_873782" data-name="Grupo 873782" clip-path="url(#clip-path-2)">
      <g id="Grupo_873781" data-name="Grupo 873781" transform="translate(-13.484)">
        <g id="Grupo_873780" data-name="Grupo 873780" clip-path="url(#clip-path-3)">
          <g id="Grupo_873773" data-name="Grupo 873773" transform="translate(74.967 82.977)" opacity="0.5">
            <g id="Grupo_873772" data-name="Grupo 873772">
              <g id="Grupo_873771" data-name="Grupo 873771" clip-path="url(#clip-path-4)">
                <path id="Trazado_258211" data-name="Trazado 258211" d="M718.02,724.408c0,.508-14.41.919-32.185.919s-32.185-.411-32.185-.919,14.41-.919,32.185-.919,32.185.411,32.185.919" transform="translate(-653.649 -723.489)" fill="#7da1b7"/>
              </g>
            </g>
          </g>
          <path id="Trazado_258212" data-name="Trazado 258212" d="M861.391,610.73H891.4a3.855,3.855,0,0,0-.1-3.521,3.917,3.917,0,0,0-3.97-1.883,4.02,4.02,0,0,0,.108-3.808,4.138,4.138,0,0,0-3.08-2.314,3.97,3.97,0,0,0-3.556,1.322,7.3,7.3,0,0,0-3.385-4.918,5.047,5.047,0,0,0-2.441-.517c-1.2.049-2.145,1.4-2.888,2.322-1.1,1.368-.839,3.182-.607,4.941a3.847,3.847,0,0,0-4.594.78c-1.193,1.224-.972,2.838-.087,4.334a5.2,5.2,0,0,0-3.814,1.647c-.388.537-1.482.962-1.6,1.616" transform="translate(-762.598 -526.835)" fill="#64a53a"/>
          <path id="Trazado_258213" data-name="Trazado 258213" d="M860.625,611.132h18.529a7.009,7.009,0,0,1-1.617-.936,3.938,3.938,0,0,1-1.428-2.221,4.825,4.825,0,0,1-5.009,2.937,2.909,2.909,0,0,1-2.155-1.267,1.769,1.769,0,0,1,.476-2.345,2.153,2.153,0,0,1-.231-3.757,2.9,2.9,0,0,1,1.639-.4,8.939,8.939,0,0,1,1.723.245,5.062,5.062,0,0,1,1.915-7.851,4.21,4.21,0,0,0-3.111,1.441c-1.122,1.364-1.166,3.305-.967,5.059a4.139,4.139,0,0,0-4.79.694,4.079,4.079,0,0,0-.628,4.762,4.84,4.84,0,0,0-3.548,1.822,4.579,4.579,0,0,0-.8,1.814" transform="translate(-761.92 -527.237)" fill="#3a6d19"/>
          <path id="Trazado_258216" data-name="Trazado 258216" d="M736.589,328.523a7.385,7.385,0,0,0-7.025,2.625,6.767,6.767,0,0,0-1.5,3.408c-.284,2.172.232,4.155-1.315,5.986-1.994,2.359-4.366,3.745-4.613,7.122-.26,3.556,1.745,6.624,3.911,9.249.4.485,1.087-.209.69-.69-2.112-2.558-4.156-5.7-3.552-9.183.5-2.89,3-4.095,4.616-6.255,1.7-2.277.605-4.818,1.513-7.3a6.431,6.431,0,0,1,7.011-4.025c.614.109.878-.831.259-.941" transform="translate(-639.298 -290.743)" fill="#3e3e63"/>
          <path id="Trazado_258217" data-name="Trazado 258217" d="M842.1,422.016c-1.527-1.962-2.675-3.867-2.749-6.42a9.227,9.227,0,0,1,2.161-6.189c.4-.479-.287-1.173-.69-.69a10.337,10.337,0,0,0-2.3,8.42c.674,3.854,4.215,6.068,5.122,9.789a11.1,11.1,0,0,1-3.59,10.761,14.7,14.7,0,0,1-11.186,3.168c-.624-.064-.62.912,0,.976,7.093.732,14.656-3.164,15.866-10.676a11.367,11.367,0,0,0-2.639-9.138" transform="translate(-733.397 -361.695)" fill="#fbc96a"/>
          <path id="Trazado_258218" data-name="Trazado 258218" d="M720.247,218.172c-1.229-1.705-2.751-3.7-5-3.974a4.733,4.733,0,0,0-4.506,2.531,5.576,5.576,0,0,0-.015,6.067,14.051,14.051,0,0,0,2.547,2.2,3.977,3.977,0,0,1,1.339,4.619c-1.311,4.03-8.227,7.453-5.57,12.48,1.087,2.056,3.847,2.347,5.315,4.128a7.918,7.918,0,0,1,1.354,7.664c-.209.593.733.849.941.259a8.871,8.871,0,0,0-2.845-9.809c-1.809-1.407-4.33-1.631-4.277-4.508.052-2.82,2.407-4.692,4.075-6.68a8.268,8.268,0,0,0,2.26-5.093c.019-1.84-.991-3.03-2.368-4.115-1.315-1.036-2.572-1.866-2.685-3.71a5.382,5.382,0,0,1,1.508-3.975c2.7-2.673,5.455.148,7.082,2.406.364.5,1.211.018.843-.493" transform="translate(-627.19 -189.607)" fill="#fbc96a"/>
          <path id="Trazado_258219" data-name="Trazado 258219" d="M691.088,308.77v40.038H662.616l18.651-49.576,3.5,3.4Z" transform="translate(-586.62 -264.912)" fill="#7893c1"/>
          <path id="Trazado_258220" data-name="Trazado 258220" d="M727.978,335.012v40.037H704.285l17.372-46.176Z" transform="translate(-623.51 -291.155)" fill="#9cbfe2"/>
          <path id="Trazado_258221" data-name="Trazado 258221" d="M817.763,188.341l-9.466,9.466c-.84.84-5.733-2.689-10.926-7.882s-8.721-10.084-7.88-10.924l9.466-9.466c.84-.84,5.731,2.687,10.924,7.88s8.723,10.086,7.882,10.926" transform="translate(-698.834 -149.981)" fill="#7893c1"/>
          <path id="Trazado_258222" data-name="Trazado 258222" d="M840.241,142.289l-10.576,10.573a.728.728,0,0,1-.663.114c-1.6-.29-5.407-3.074-9.652-7.082-.625-.589-1.256-1.2-1.89-1.838-5.8-5.8-9.74-11.263-8.8-12.2l6.734-6.734,3.842-3.839c.391-.39,1.568.065,3.227,1.148a62.591,62.591,0,0,1,8.976,7.655c5.8,5.8,9.743,11.266,8.807,12.206" transform="translate(-715.788 -107.248)" fill="#b3cbe8"/>
          <path id="Trazado_258223" data-name="Trazado 258223" d="M789.766,557.781H777.44a.646.646,0,0,0-.646.646v9.5a.646.646,0,0,0,.646.646h12.327a.646.646,0,0,0,.646-.646v-9.5a.646.646,0,0,0-.646-.646" transform="translate(-687.703 -493.809)" fill="#7893c1"/>
          <path id="Trazado_258224" data-name="Trazado 258224" d="M797.542,565.663H787.281a.538.538,0,0,0-.538.538v7.9a.538.538,0,0,0,.538.538h10.261a.538.538,0,0,0,.538-.538v-7.9a.538.538,0,0,0-.538-.538" transform="translate(-696.511 -500.787)" fill="#3e3e63"/>
          <path id="Trazado_258225" data-name="Trazado 258225" d="M801.434,575.005h-3.522a.3.3,0,0,0,0,.591h3.522a.3.3,0,0,0,0-.591" transform="translate(-706.146 -509.058)" fill="#fff"/>
          <path id="Trazado_258226" data-name="Trazado 258226" d="M839.308,575.595h3.522a.3.3,0,0,0,0-.591h-3.522a.3.3,0,0,0,0,.591" transform="translate(-742.795 -509.057)" fill="#fff"/>
          <path id="Trazado_258227" data-name="Trazado 258227" d="M801.434,612.395h-3.522a.3.3,0,0,0,0,.591h3.522a.3.3,0,0,0,0-.591" transform="translate(-706.146 -542.159)" fill="#fff"/>
          <path id="Trazado_258228" data-name="Trazado 258228" d="M842.831,612.395h-3.522a.3.3,0,0,0,0,.591h3.522a.3.3,0,0,0,0-.591" transform="translate(-742.795 -542.159)" fill="#fff"/>
          <path id="Trazado_258229" data-name="Trazado 258229" d="M801.434,623.459h-3.522a.3.3,0,0,0,0,.591h3.522a.3.3,0,0,0,0-.591" transform="translate(-706.146 -551.954)" fill="#fff"/>
          <path id="Trazado_258230" data-name="Trazado 258230" d="M842.831,623.459h-3.522a.3.3,0,0,0,0,.591h3.522a.3.3,0,0,0,0-.591" transform="translate(-742.795 -551.954)" fill="#fff"/>
          <path id="Trazado_258231" data-name="Trazado 258231" d="M814.026,587.837h-6.013a.252.252,0,0,0-.252.252v1.159a.252.252,0,0,0,.252.252h6.013a.252.252,0,0,0,.252-.252v-1.159a.252.252,0,0,0-.252-.252" transform="translate(-715.12 -520.418)" fill="#ffce45"/>
          <path id="Trazado_258232" data-name="Trazado 258232" d="M921.853,142.278c-.939.939-6.4-3-12.206-8.8s-9.744-11.266-8.8-12.206,6.4,3,12.206,8.8,9.744,11.266,8.8,12.206" transform="translate(-797.402 -107.237)" fill="#7893c1"/>
          <path id="Trazado_258233" data-name="Trazado 258233" d="M954.393,33.21S920.271,35.741,921.728.545Z" transform="translate(-815.974 -0.482)" fill="#d3b8bd"/>
          <path id="Trazado_258234" data-name="Trazado 258234" d="M954.256,32.728c-.771.771-8.449-5.657-17.265-14.428l-.973-.973C927.248,8.508,920.819.833,921.59.062s8.488,5.69,17.333,14.493l.42.42.42.42c8.8,8.845,15.264,16.562,14.493,17.333" transform="translate(-815.837 0)" fill="#f2dfe2"/>
          <path id="Trazado_258235" data-name="Trazado 258235" d="M1059.661,55.862a1.1,1.1,0,0,1-1.249.208l-6.792,7.131-2.772,2.905-.973-.973,2.905-2.772,7.131-6.793a1.091,1.091,0,0,1,1.568-1.4,1.115,1.115,0,0,1,.182.146,1.127,1.127,0,0,1,.146.182,1.087,1.087,0,0,1-.146,1.36" transform="translate(-927.693 -47.807)" fill="#d3b8bd"/>
          <path id="Trazado_258236" data-name="Trazado 258236" d="M986.317,308.461q-3.685,3.389-7.182,6.97c-.439.45.25,1.14.69.69q3.5-3.581,7.181-6.97c.463-.426-.228-1.115-.69-.69" transform="translate(-866.713 -272.966)" fill="#c5e5ff"/>
          <path id="Trazado_258237" data-name="Trazado 258237" d="M893.513,424.371l0,12.118a.488.488,0,0,0,.976,0l0-12.118a.488.488,0,0,0-.976,0" transform="translate(-791.034 -375.282)" fill="#c5e5ff"/>
          <path id="Trazado_258239" data-name="Trazado 258239" d="M833.017,505.988v3.086h-.974a1.544,1.544,0,0,1,.079-3.086Z" transform="translate(-735.32 -447.956)" fill="#5578aa"/>
          <path id="Trazado_258240" data-name="Trazado 258240" d="M841.1,507.542A1.544,1.544,0,1,1,839.553,506a1.544,1.544,0,0,1,1.544,1.544" transform="translate(-741.897 -447.965)" fill="#7893c1"/>
          <rect id="Rectángulo_45145" data-name="Rectángulo 45145" width="29.488" height="9.961" transform="translate(34.236 70.976)" fill="#292942"/>
          <path id="Trazado_258241" data-name="Trazado 258241" d="M399.052,295.967v1.872h-7.9v-1.872a6.147,6.147,0,0,1,7.891,0,.017.017,0,0,1,.01,0" transform="translate(-346.29 -260.757)" fill="#ccb0b6"/>
          <path id="Trazado_258242" data-name="Trazado 258242" d="M263.883,347.463a11.9,11.9,0,0,1-.281,2,2.947,2.947,0,0,1-2.883,2.275c-.969-.035-2.848-.046-5.095-.046-1.421,0-3,.006-4.579.011h-.218l-4.883.035c-.453,0-.888.006-1.312.006-2.791.023-4.8.046-4.8.046l-3.249-.029c-.848-.006-1.822-.017-2.866-.023-2.51-.017-5.439-.04-8.069-.046-2.94,0-5.507.006-6.705.046a2.941,2.941,0,0,1-1.834-.636,2.874,2.874,0,0,1-1.043-1.639,12.572,12.572,0,0,1-.286-2,9.176,9.176,0,0,1-.006-.969,54.749,54.749,0,0,1,1.57-6.837c.516-1.874,1.077-4.631,1.61-7.164a44.575,44.575,0,0,1,1.479-6.212c.332-.59.676-1.175,1.043-1.754a12.665,12.665,0,0,1,1.077-1.4,21.312,21.312,0,0,1,14.35-7.187c.957-.074,1.937-.115,2.929-.115s1.966.04,2.929.115c.424.04.848.086,1.267.143a21.3,21.3,0,0,1,13.078,7.038,12.817,12.817,0,0,1,1.083,1.4c.367.579.711,1.163,1.037,1.759.132.235.946,4.029,1.725,7.6.539,2.453,1.06,4.8,1.341,5.823.671,2.436,1.209,4.5,1.341,5.061a10.17,10.17,0,0,1,.258,1.725,7.923,7.923,0,0,1-.011.969" transform="translate(-191.02 -279.606)" fill="#f2dfe2"/>
          <path id="Trazado_258243" data-name="Trazado 258243" d="M424.1,557.241a2.95,2.95,0,0,1-2.882,2.276c-.972-.033-2.849-.044-5.095-.044-2.994,0-6.643.021-9.68.044-3.453.027-6.112.055-6.112.055s-1.294-.014-3.25-.031c-.011-1.241-.026-2.486-.026-3.7l8.859-2.942a37.573,37.573,0,0,1,10.182-2.356,13.651,13.651,0,0,1,8.035,2.009,9.594,9.594,0,0,1,.26,1.729,11.618,11.618,0,0,1-.29,2.965" transform="translate(-351.518 -487.385)" fill="#f9eff1"/>
          <path id="Trazado_258244" data-name="Trazado 258244" d="M216.067,557.241a2.95,2.95,0,0,0,2.882,2.276c.972-.033,2.849-.044,5.095-.044,2.994,0,6.643.021,9.68.044,3.453.027,6.112.055,6.112.055s1.294-.014,3.25-.031c.011-1.241.026-2.486.026-3.7l-8.859-2.942a37.572,37.572,0,0,0-10.182-2.356,13.651,13.651,0,0,0-8.035,2.009,9.606,9.606,0,0,0-.26,1.729,11.614,11.614,0,0,0,.29,2.965" transform="translate(-191.022 -487.385)" fill="#f9eff1"/>
          <path id="Trazado_258245" data-name="Trazado 258245" d="M401.207,264.755q.062.949.214,1.887a10.262,10.262,0,0,1-7.182,0,20.981,20.981,0,0,0,.251-3.953,20.742,20.742,0,0,0-.266-2.746c1.206.251,2.4.421,3.606.618,1.2-.2,2.4-.367,3.606-.618a20.976,20.976,0,0,0-.229,4.813" transform="translate(-349.01 -230.129)" fill="#ffa39b"/>
          <path id="Trazado_258246" data-name="Trazado 258246" d="M401.208,264.756a6.905,6.905,0,0,1-2.652.118,7.007,7.007,0,0,1-4.065-2.185,20.682,20.682,0,0,0-.265-2.745c1.2.251,2.4.422,3.606.617,1.2-.195,2.4-.366,3.606-.617a20.984,20.984,0,0,0-.229,4.812" transform="translate(-349.011 -230.131)" fill="#f07784"/>
          <path id="Trazado_258247" data-name="Trazado 258247" d="M389.848,178.86a11.394,11.394,0,0,1-.229,4.954,7.623,7.623,0,0,0,.315,4.9,4.113,4.113,0,0,0,7.605-.868c.4-1.477-.052-3.028-.249-4.544a13.751,13.751,0,0,1,.266-4.963,7.118,7.118,0,0,0-7.709.524" transform="translate(-344.715 -157.09)" fill="#ffa39b"/>
          <path id="Trazado_258248" data-name="Trazado 258248" d="M390.771,156.041a8.89,8.89,0,0,1-.8-6.2,8.569,8.569,0,0,1-6.892.359h0a6.593,6.593,0,0,1-.712,5.389s-2.151-4.962-.2-7.536c0,0,2.177-5.106,8.411-2.051a1.633,1.633,0,0,1,.6,2.474l-.021.025s2.082,2.128-.391,7.534" transform="translate(-337.614 -128.4)" fill="#86472f"/>
          <path id="Trazado_258249" data-name="Trazado 258249" d="M456.884,221.923a1.925,1.925,0,0,1,.272-.7.716.716,0,0,1,.645-.323.837.837,0,0,1,.567.459,1.813,1.813,0,0,1-1.476,2.705,8.246,8.246,0,0,1-.008-2.139" transform="translate(-404.417 -195.559)" fill="#ffa39b"/>
          <path id="Trazado_258250" data-name="Trazado 258250" d="M380.622,221.923a1.93,1.93,0,0,0-.272-.7.716.716,0,0,0-.645-.323.837.837,0,0,0-.567.459,1.813,1.813,0,0,0,1.477,2.705,8.243,8.243,0,0,0,.008-2.139" transform="translate(-335.45 -195.559)" fill="#ffa39b"/>
          <path id="Trazado_258251" data-name="Trazado 258251" d="M429.559,307.012a4.879,4.879,0,0,1-3.947,1.871l1.771,3.181a7.618,7.618,0,0,0,3.465-3.8Z" transform="translate(-376.798 -271.801)" fill="#fff"/>
          <path id="Trazado_258252" data-name="Trazado 258252" d="M534.525,495.574a11.912,11.912,0,0,1-.281,2,2.947,2.947,0,0,1-2.883,2.275c-.969-.035-2.848-.046-5.095-.046-1.421,0-3,.006-4.579.011h-.218c0-.109.006-.223.006-.338.051-4.55.16-9.1.218-13.646a54.946,54.946,0,0,0,10.15-2.7c.447,2.023.86,3.834,1.095,4.694.671,2.436,1.209,4.5,1.341,5.06a10.189,10.189,0,0,1,.258,1.725,7.961,7.961,0,0,1-.012.969" transform="translate(-461.662 -427.716)" fill="#ffa39b"/>
          <path id="Trazado_258253" data-name="Trazado 258253" d="M227.841,485.229c-.676,4.894-1.547,9.1-2.189,14.133-2.94,0-5.507.006-6.705.046a2.941,2.941,0,0,1-1.834-.636,2.874,2.874,0,0,1-1.043-1.639,12.558,12.558,0,0,1-.287-2,9.177,9.177,0,0,1-.006-.969,54.752,54.752,0,0,1,1.57-6.837c.35-1.272.722-2.957,1.095-4.7a54.613,54.613,0,0,0,9.4,2.6" transform="translate(-191.02 -427.274)" fill="#ffa39b"/>
          <path id="Trazado_258254" data-name="Trazado 258254" d="M381.212,307.012a4.879,4.879,0,0,0,3.947,1.871l-1.771,3.181a7.617,7.617,0,0,1-3.465-3.8Z" transform="translate(-336.35 -271.801)" fill="#fff"/>
          <path id="Trazado_258255" data-name="Trazado 258255" d="M515.2,546.477a21.218,21.218,0,0,0-7.675.495.345.345,0,0,0,.183.665,20.7,20.7,0,0,1,7.492-.47c.44.052.436-.638,0-.69" transform="translate(-449.102 -483.671)" fill="#f07784"/>
          <path id="Trazado_258256" data-name="Trazado 258256" d="M269.893,546.477a21.218,21.218,0,0,1,7.675.495.345.345,0,0,1-.183.665,20.7,20.7,0,0,0-7.492-.47c-.44.052-.436-.638,0-.69" transform="translate(-238.648 -483.671)" fill="#f07784"/>
          <path id="Trazado_258257" data-name="Trazado 258257" d="M516.117,439.448c-.079-.444-.755-.256-.677.186l.606,3.387c.079.444.755.256.676-.186l-.605-3.387" transform="translate(-456.319 -388.823)" fill="#ccb0b6"/>
          <path id="Trazado_258258" data-name="Trazado 258258" d="M325.774,441.157a21.6,21.6,0,0,0-1.061,3.136.351.351,0,0,0,.677.186,20.433,20.433,0,0,1,.991-2.969c.174-.411-.43-.769-.606-.354" transform="translate(-287.461 -390.398)" fill="#ccb0b6"/>
          <path id="Trazado_258259" data-name="Trazado 258259" d="M462.937,721.3c2.712.051,5.17,1.486,7.644,2.6a6.465,6.465,0,0,0,3.281.766,3.54,3.54,0,0,0,2.819-5.029c-.7-1.486-2.32-2.294-3.882-2.8a20.651,20.651,0,0,0-7.922-.952,32.381,32.381,0,0,1-1.94,5.419" transform="translate(-409.843 -633.726)" fill="#17172b"/>
          <path id="Trazado_258260" data-name="Trazado 258260" d="M555.236,526.864a5.979,5.979,0,0,1-4.636-2.4,14.229,14.229,0,0,1-1.331-2.248,15.79,15.79,0,0,0-1.259-2.165,5.191,5.191,0,0,0-4.33-2.335,9.007,9.007,0,0,0-5.092,1.953,11.518,11.518,0,0,1-7,2.457,12.92,12.92,0,0,1-2.08-.176.41.41,0,0,1-.38-.475.663.663,0,0,1,.631-.627.729.729,0,0,1,.114.009,10.464,10.464,0,0,0,1.688.143,11.677,11.677,0,0,0,6.955-2.707,8.365,8.365,0,0,1,3.631-1.662,7.673,7.673,0,0,1,1.255-.105,6.754,6.754,0,0,1,5.632,2.99,14.152,14.152,0,0,1,1.046,1.92c.747,1.545,1.52,3.142,2.964,3.78a4.722,4.722,0,0,0,1.909.437c2.027,0,3.728-1.545,5.2-4.724.121-.261.24-.525.359-.788,1.222-2.713,2.377-5.275,5.644-5.275a.544.544,0,0,1,.568.577.524.524,0,0,1-.54.569c-2.811,0-4.051,2.766-5.249,5.442-.814,1.816-1.654,3.693-2.951,4.566a4.826,4.826,0,0,1-2.742.849" transform="translate(-468.438 -455.812)" fill="#3e3e63"/>
          <path id="Trazado_258261" data-name="Trazado 258261" d="M319.856,455.143H292.613a1.9,1.9,0,0,0-1.845,1.945v17.184a1.9,1.9,0,0,0,1.845,1.945h27.242a1.9,1.9,0,0,0,1.845-1.945V457.088a1.9,1.9,0,0,0-1.845-1.945" transform="translate(-257.42 -402.942)" fill="#17172b"/>
          <rect id="Rectángulo_45146" data-name="Rectángulo 45146" width="5.129" height="2.151" transform="translate(46.25 61.122)" fill="#fff"/>
          <path id="Trazado_258262" data-name="Trazado 258262" d="M140.5,587.3c.8,2.887,3.5,5.324,6.636,7.163a45.346,45.346,0,0,0,16.189,5.2,101.281,101.281,0,0,0,14.917.874,24.879,24.879,0,0,0,2.639-6.032l-3.79-2.06q-6.283-3.407-12.56-6.814c-1.378-.745-2.755-1.494-4.168-2.2a49.977,49.977,0,0,0-5.087-2.248c-2.851-1.053-8.488-3.016-11.289-1.214-2.881,1.848-4.254,4.547-3.487,7.338" transform="translate(-124.197 -512.802)" fill="#3e3e63"/>
          <path id="Trazado_258263" data-name="Trazado 258263" d="M282.592,721.3c-2.712.051-5.17,1.486-7.644,2.6a6.464,6.464,0,0,1-3.281.766,3.541,3.541,0,0,1-2.819-5.029c.7-1.486,2.32-2.294,3.882-2.8a20.651,20.651,0,0,1,7.922-.952,32.389,32.389,0,0,0,1.94,5.419" transform="translate(-237.721 -633.726)" fill="#17172b"/>
          <path id="Trazado_258264" data-name="Trazado 258264" d="M397.423,587.3c-.8,2.887-3.5,5.324-6.636,7.163a45.347,45.347,0,0,1-16.189,5.2,101.285,101.285,0,0,1-14.917.874,24.884,24.884,0,0,1-2.639-6.032l3.79-2.06,12.56-6.814c1.378-.745,2.755-1.494,4.168-2.2a49.982,49.982,0,0,1,5.087-2.248c2.851-1.053,8.488-3.016,11.289-1.214,2.882,1.848,4.254,4.547,3.487,7.338" transform="translate(-316.093 -512.802)" fill="#3e3e63"/>
          <path id="Trazado_258265" data-name="Trazado 258265" d="M419.609,250.493a1.554,1.554,0,0,1-1.238.035c-.207-.111-.391.2-.184.315a1.884,1.884,0,0,0,1.52,0c.222-.072.127-.424-.1-.352" transform="translate(-370.144 -221.755)" fill="#f07784"/>
          <path id="Trazado_258266" data-name="Trazado 258266" d="M326.673,588.958a.426.426,0,0,1-.19-.771c1.866-1.243,3.8-2.469,5.755-3.642l.173-.1-.178-.1c-3.444-1.849-6.961-3.563-10.453-5.093a.292.292,0,0,1-.194-.348.483.483,0,0,1,.446-.374.442.442,0,0,1,.178.039c3.7,1.621,7.385,3.424,10.955,5.36l.057.031.056-.033c3.321-1.958,6.695-3.767,10.028-5.377q.7-.34,1.422-.692c4.611-2.25,9.837-4.8,15.041-5.047h0a.351.351,0,0,1,.377.366.4.4,0,0,1-.389.439c-5.448.258-10.944,3.033-15.792,5.483-.582.294-1.157.584-1.723.866a141.822,141.822,0,0,0-15.365,8.925.371.371,0,0,1-.2.069" transform="translate(-284.696 -507.115)" fill="#17172b"/>
        </g>
      </g>
    </g>
  </g>
</svg>
