<svg xmlns="http://www.w3.org/2000/svg" width="507.001" height="488.556" viewBox="0 0 507.001 488.556">
  <g id="Grupo_894651" data-name="Grupo 894651" transform="translate(-648.401 -57.316)">
    <g id="Grupo_894637" data-name="Grupo 894637" transform="translate(648.401 58.463)">
      <g id="Grupo_894632" data-name="Grupo 894632" transform="translate(86.709 141.074)">
        <path id="Trazado_636974" data-name="Trazado 636974" d="M753.142,404.768V362.891l29.314-32.9,9.572-50.253,65.209-30.511,46.332-20.351,56.268,32.316,2.393,51.748,15.854,54.141,48.458,13.378h97.514l17.554,17.554,21.332,1.4,8.063,8.063Z" transform="translate(-753.142 -228.873)" fill="#fff" stroke="#fff" stroke-miterlimit="10" stroke-width="2"/>
        <g id="Grupo_894630" data-name="Grupo 894630" transform="translate(0 48.476)">
          <path id="Trazado_636975" data-name="Trazado 636975" d="M792.028,290.311l22.135,34.556-4.188,25.269-56.833,23.332,29.314-32.9Z" transform="translate(-753.142 -287.925)" fill="#76c7ca" stroke="#76c7ca" stroke-linecap="round" stroke-linejoin="round" stroke-width="2"/>
          <path id="Trazado_636976" data-name="Trazado 636976" d="M999.149,287.429l-21.985,26.914s27.634,22.349,27.2,20.858l-3.568-12.183Z" transform="translate(-791.707 -287.429)" fill="#76c7ca" stroke="#76c7ca" stroke-linecap="round" stroke-linejoin="round" stroke-width="2"/>
          <path id="Trazado_636977" data-name="Trazado 636977" d="M753.142,420.948l56.833-15.936,37.092,7.968,39.484-18.354L903.3,407.787h32.9l35.986-36.272,5.892,20.119v23.332l29.912,9,45.467-6.608,45.466,3.59,29.505-11.558,13.175,13.175,21.332,1.4s10.74,8.081,8.063,8.063-417.862,0-417.862,0Z" transform="translate(-753.142 -301.904)" fill="#76c7ca" stroke="#76c7ca" stroke-linecap="round" stroke-linejoin="round" stroke-width="2"/>
        </g>
        <g id="Grupo_894631" data-name="Grupo 894631" transform="translate(15.732 32.386)">
          <path id="Trazado_636978" data-name="Trazado 636978" d="M772.145,391.584l5.8-8.093" transform="translate(-772.145 -287.876)" fill="none" stroke="#000" stroke-linecap="round" stroke-linejoin="round" stroke-width="2"/>
          <path id="Trazado_636979" data-name="Trazado 636979" d="M781.118,392.132l5.787-8.1" transform="translate(-773.69 -287.969)" fill="none" stroke="#000" stroke-linecap="round" stroke-linejoin="round" stroke-width="2"/>
          <path id="Trazado_636980" data-name="Trazado 636980" d="M989.894,267.993l3.858,5.015" transform="translate(-809.631 -267.993)" fill="none" stroke="#000" stroke-linecap="round" stroke-linejoin="round" stroke-width="2"/>
          <path id="Trazado_636981" data-name="Trazado 636981" d="M985.234,271.721a11.126,11.126,0,0,1,2.315,5.4" transform="translate(-808.828 -268.635)" fill="none" stroke="#000" stroke-linecap="round" stroke-linejoin="round" stroke-width="2"/>
          <path id="Trazado_636982" data-name="Trazado 636982" d="M1007.713,399.875q.019,3.664.038,7.33" transform="translate(-812.698 -290.697)" fill="none" stroke="#000" stroke-linecap="round" stroke-linejoin="round" stroke-width="2"/>
          <path id="Trazado_636983" data-name="Trazado 636983" d="M998.883,405.471a11.572,11.572,0,0,1-1.508,8.112" transform="translate(-810.918 -291.66)" fill="none" stroke="#000" stroke-linecap="round" stroke-linejoin="round" stroke-width="2"/>
          <path id="Trazado_636984" data-name="Trazado 636984" d="M916.281,424.57a14.522,14.522,0,0,0,4.6,7.355" transform="translate(-796.958 -294.948)" fill="none" stroke="#000" stroke-linecap="round" stroke-linejoin="round" stroke-width="2"/>
          <path id="Trazado_636985" data-name="Trazado 636985" d="M923.79,426.886a8.456,8.456,0,0,0,4.9,5.551" transform="translate(-798.251 -295.347)" fill="none" stroke="#000" stroke-linecap="round" stroke-linejoin="round" stroke-width="2"/>
          <path id="Trazado_636986" data-name="Trazado 636986" d="M848.225,302.031l6.944-8.874" transform="translate(-785.242 -272.325)" fill="none" stroke="#000" stroke-linecap="round" stroke-linejoin="round" stroke-width="2"/>
          <path id="Trazado_636987" data-name="Trazado 636987" d="M866.685,419.5q3.121,11.178,6.24,22.357" transform="translate(-788.42 -294.075)" fill="none" stroke="#000" stroke-linecap="round" stroke-linejoin="round" stroke-width="2"/>
          <path id="Trazado_636988" data-name="Trazado 636988" d="M934.481,414.616l19.11,24.612q7.148-12.3,13.063-25.269" transform="translate(-800.091 -293.121)" fill="none" stroke="#000" stroke-linecap="round" stroke-linejoin="round" stroke-width="2"/>
          <path id="Trazado_636989" data-name="Trazado 636989" d="M821.607,412.005a177.3,177.3,0,0,0,8.976,27.742" transform="translate(-780.66 -292.785)" fill="none" stroke="#000" stroke-linecap="round" stroke-linejoin="round" stroke-width="2"/>
          <path id="Trazado_636990" data-name="Trazado 636990" d="M815.384,358.223a68.013,68.013,0,0,1-27.725-11.065,67.776,67.776,0,0,0,32.212-13.6" transform="translate(-774.816 -279.28)" fill="none" stroke="#000" stroke-linecap="round" stroke-linejoin="round" stroke-width="2"/>
          <path id="Trazado_636991" data-name="Trazado 636991" d="M1025.954,422.733l1.366,17.73" transform="translate(-815.838 -294.632)" fill="none" stroke="#000" stroke-linecap="round" stroke-linejoin="round" stroke-width="2"/>
          <path id="Trazado_636992" data-name="Trazado 636992" d="M1059.827,434.846l-2.327,5.783" transform="translate(-821.269 -296.717)" fill="none" stroke="#000" stroke-linecap="round" stroke-linejoin="round" stroke-width="2"/>
          <path id="Trazado_636993" data-name="Trazado 636993" d="M1076.989,417.687l4.629,2.314" transform="translate(-824.624 -293.763)" fill="none" stroke="#000" stroke-linecap="round" stroke-linejoin="round" stroke-width="2"/>
          <path id="Trazado_636994" data-name="Trazado 636994" d="M1168.59,430.116l-7.7,7.726" transform="translate(-839.067 -295.903)" fill="none" stroke="#000" stroke-linecap="round" stroke-linejoin="round" stroke-width="2"/>
          <path id="Trazado_636995" data-name="Trazado 636995" d="M1220.981,432.57l6.856,5.511" transform="translate(-849.412 -296.325)" fill="none" stroke="#000" stroke-linecap="round" stroke-linejoin="round" stroke-width="2"/>
        </g>
      </g>
      <g id="Grupo_894634" data-name="Grupo 894634" transform="translate(179.489)">
        <circle id="Elipse_5235" data-name="Elipse 5235" cx="28.969" cy="28.969" r="28.969" transform="translate(23.346 82.762) rotate(-80.68)" fill="#fff"/>
        <g id="Grupo_894633" data-name="Grupo 894633">
          <path id="Trazado_636996" data-name="Trazado 636996" d="M928.407,83.554q-.264-5.826-.527-11.652" transform="translate(-876.003 -60.777)" fill="none" stroke="#fff" stroke-linecap="round" stroke-linejoin="round" stroke-width="2"/>
          <path id="Trazado_636997" data-name="Trazado 636997" d="M948.889,82.746a69.494,69.494,0,0,1,7.025-18.491" transform="translate(-879.62 -59.46)" fill="none" stroke="#fff" stroke-linecap="round" stroke-linejoin="round" stroke-width="2"/>
          <path id="Trazado_636998" data-name="Trazado 636998" d="M964.357,94.429,972.3,82.778" transform="translate(-882.282 -62.649)" fill="none" stroke="#fff" stroke-linecap="round" stroke-linejoin="round" stroke-width="2"/>
          <path id="Trazado_636999" data-name="Trazado 636999" d="M974.648,110.85l18.523-10.088" transform="translate(-884.054 -65.745)" fill="none" stroke="#fff" stroke-linecap="round" stroke-linejoin="round" stroke-width="2"/>
          <path id="Trazado_637000" data-name="Trazado 637000" d="M975.888,130.147l13.25-.928" transform="translate(-884.268 -70.644)" fill="none" stroke="#fff" stroke-linecap="round" stroke-linejoin="round" stroke-width="2"/>
          <path id="Trazado_637001" data-name="Trazado 637001" d="M971.313,148.806l22.148,13.4" transform="translate(-883.48 -74.016)" fill="none" stroke="#fff" stroke-linecap="round" stroke-linejoin="round" stroke-width="2"/>
          <path id="Trazado_637002" data-name="Trazado 637002" d="M959.878,165.307l8.475,9.533" transform="translate(-881.511 -76.856)" fill="none" stroke="#fff" stroke-linecap="round" stroke-linejoin="round" stroke-width="2"/>
          <path id="Trazado_637003" data-name="Trazado 637003" d="M941.247,171.709q.792,12.711,1.584,25.422" transform="translate(-878.304 -77.958)" fill="none" stroke="#fff" stroke-linecap="round" stroke-linejoin="round" stroke-width="2"/>
          <path id="Trazado_637004" data-name="Trazado 637004" d="M919.571,171.069q-.231,4.5-.461,9.007" transform="translate(-874.493 -77.848)" fill="none" stroke="#fff" stroke-linecap="round" stroke-linejoin="round" stroke-width="2"/>
          <path id="Trazado_637005" data-name="Trazado 637005" d="M898.964,163.286a201.983,201.983,0,0,1-18.352,24.493" transform="translate(-867.866 -76.508)" fill="none" stroke="#fff" stroke-linecap="round" stroke-linejoin="round" stroke-width="2"/>
          <path id="Trazado_637006" data-name="Trazado 637006" d="M889.882,149.313l-7.415,7.414" transform="translate(-868.185 -74.103)" fill="none" stroke="#fff" stroke-linecap="round" stroke-linejoin="round" stroke-width="2"/>
          <path id="Trazado_637007" data-name="Trazado 637007" d="M885.871,132.8,865.215,136.5" transform="translate(-865.215 -71.26)" fill="none" stroke="#fff" stroke-linecap="round" stroke-linejoin="round" stroke-width="2"/>
          <path id="Trazado_637008" data-name="Trazado 637008" d="M888.707,116.169l-10.056,1.121" transform="translate(-867.528 -68.397)" fill="none" stroke="#fff" stroke-linecap="round" stroke-linejoin="round" stroke-width="2"/>
          <path id="Trazado_637009" data-name="Trazado 637009" d="M894.911,99.822a51.665,51.665,0,0,1-18.021-17.158" transform="translate(-867.225 -62.629)" fill="none" stroke="#fff" stroke-linecap="round" stroke-linejoin="round" stroke-width="2"/>
          <path id="Trazado_637010" data-name="Trazado 637010" d="M908.266,92.112l-6.756-8.577" transform="translate(-871.463 -62.779)" fill="none" stroke="#fff" stroke-linecap="round" stroke-linejoin="round" stroke-width="2"/>
          <path id="Trazado_637011" data-name="Trazado 637011" d="M915.091,82.333a65.108,65.108,0,0,1-8.932-23.87" transform="translate(-872.264 -58.463)" fill="none" stroke="#fff" stroke-linecap="round" stroke-linejoin="round" stroke-width="2"/>
        </g>
      </g>
      <g id="Grupo_894635" data-name="Grupo 894635" transform="translate(322.337 85.517)">
        <path id="Trazado_637012" data-name="Trazado 637012" d="M1203.525,215.46a4.888,4.888,0,0,0,4.919-4.819v-.05A26.718,26.718,0,0,0,1165,189.74a44.063,44.063,0,0,0-82.475,1.146,26.7,26.7,0,0,0-44.757,19.705v.05a4.888,4.888,0,0,0,4.919,4.819Z" transform="translate(-1037.768 -161.763)" fill="#e56490"/>
        <path id="Trazado_637013" data-name="Trazado 637013" d="M1078.889,185.949a20.392,20.392,0,0,1,13.774,10.406c1.114,2.141,1.018,5.795-1.394,5.863-1.692.047-2.649-1.928-2.928-3.6-1.24-7.411,2.276-14.915,7.2-20.588a43.764,43.764,0,0,1,75.792,19.363c.5,2.272.07,5.561-2.253,5.649a2.813,2.813,0,0,1-2.6-2.682,6.683,6.683,0,0,1,1.2-3.873,24.49,24.49,0,0,1,23.831-11.467" transform="translate(-1044.847 -161.984)" fill="none" stroke="#000" stroke-linecap="round" stroke-linejoin="round" stroke-width="2"/>
      </g>
      <g id="Grupo_894636" data-name="Grupo 894636" transform="translate(0 40.14)">
        <path id="Trazado_637014" data-name="Trazado 637014" d="M772.344,168.98a3.141,3.141,0,0,0,3.166-3.087v-.036a19.283,19.283,0,0,0-23.2-18.871c0-.079.012-.156.012-.235a38.371,38.371,0,0,0-76.7-1.79,21.576,21.576,0,0,0-27.222,20.9v.031a3.142,3.142,0,0,0,3.165,3.092Z" transform="translate(-648.401 -107.192)" fill="#e56490"/>
        <path id="Trazado_637015" data-name="Trazado 637015" d="M675.738,143.962a18.22,18.22,0,0,1,6.251,1.961,6.186,6.186,0,0,1,3.229,5.371c-.142,2.192-2.42,4.186-4.512,3.515-2.184-.7-2.825-3.453-2.914-5.744a40.705,40.705,0,1,1,80.9,4.689,5.958,5.958,0,0,1-1.624,3.761c-2.129,1.812-5.828-.327-6.031-3.116s2.147-5.248,4.8-6.131,5.537-.559,8.313-.225" transform="translate(-653.107 -106.95)" fill="none" stroke="#000" stroke-linecap="round" stroke-linejoin="round" stroke-width="2"/>
      </g>
    </g>
    <g id="Grupo_894650" data-name="Grupo 894650" transform="translate(678.803 358.037)">
      <g id="Grupo_894642" data-name="Grupo 894642" transform="translate(96.617 0)">
        <path id="Trazado_637016" data-name="Trazado 637016" d="M802.272,579.707l7.827,29.175h204.938l-6.4-14.588,6.4-9.606Z" transform="translate(-801.909 -447.77)" fill="#424f8b" stroke="#424f8b" stroke-linecap="round" stroke-linejoin="round" stroke-width="0.75"/>
        <g id="Grupo_894638" data-name="Grupo 894638" transform="translate(27.404 136.207)">
          <line id="Línea_223" data-name="Línea 223" x2="4.27" y2="18.501" transform="translate(0 6.404)" fill="none" stroke="#76c7ca" stroke-linecap="round" stroke-linejoin="round" stroke-width="2"/>
          <line id="Línea_224" data-name="Línea 224" y2="10.674" transform="translate(56.575 14.232)" fill="none" stroke="#76c7ca" stroke-linecap="round" stroke-linejoin="round" stroke-width="2"/>
          <path id="Trazado_637017" data-name="Trazado 637017" d="M1006.791,584.864l-8.539,24.906,18.5-17.078" transform="translate(-863.05 -584.864)" fill="none" stroke="#76c7ca" stroke-linecap="round" stroke-linejoin="round" stroke-width="2"/>
          <line id="Línea_225" data-name="Línea 225" x1="5.693" y2="14.588" transform="translate(173.628 10.318)" fill="none" stroke="#76c7ca" stroke-linecap="round" stroke-linejoin="round" stroke-width="2"/>
        </g>
        <path id="Trazado_637018" data-name="Trazado 637018" d="M912.026,528.993l103.011,35.579v11.385l-32.022,7.116-9.962-7.827-87.166,14.232-56.575-7.828-27.04-10.674V554.343Z" transform="translate(-801.909 -439.039)" fill="#fff" stroke="#fff" stroke-linecap="round" stroke-linejoin="round" stroke-width="0.75"/>
        <ellipse id="Elipse_5236" data-name="Elipse 5236" cx="54.437" cy="7.862" rx="54.437" ry="7.862" transform="translate(50.175 116.212)" fill="#76c7ca"/>
        <g id="Grupo_894641" data-name="Grupo 894641" transform="translate(65.019)">
          <path id="Trazado_637019" data-name="Trazado 637019" d="M935.12,558.623s13.971,5.408,15.324,6.084,2.253,5.183,2.253,5.183-15.54-.922-21.516-5.644c0,0,4.39,7.447-1.243,7.447s-22.308-9.013-22.308-9.013Z" transform="translate(-885.065 -444.14)" stroke="#000" stroke-linecap="round" stroke-linejoin="round" stroke-width="0.75"/>
          <path id="Trazado_637020" data-name="Trazado 637020" d="M944.707,455.224S955.1,495.339,955.1,506.606c0,8.313-7.606,22.026-11.594,28.643a21.123,21.123,0,0,1-13.076,9.879,20.454,20.454,0,0,1-6.427.461,88.482,88.482,0,0,1-20.73-4.732l4.507-93.289Z" transform="translate(-884.316 -425.022)" fill="#fff" stroke="#fff" stroke-linecap="round" stroke-linejoin="round" stroke-width="0.75"/>
          <path id="Trazado_637021" data-name="Trazado 637021" d="M953.864,447.837l-11.717-14.421s-2.253-12.619-18.478-13.07-18.027,11.718-18.027,11.718-19.379,13.069-20.28,44.166,6.309,50.475,6.309,50.475-10.365,9.464-11.267,12.169,18.478,2.7,22.534,0,10.366-11.267,9.014-28.393-2.253-53.63-.451-57.686c0,0,16.674,9.915,24.787,4.507s3.155-15.323,3.155-15.323Z" transform="translate(-880.373 -420.333)" stroke="#000" stroke-linecap="round" stroke-linejoin="round" stroke-width="0.75"/>
          <g id="Grupo_894640" data-name="Grupo 894640" transform="translate(41.286 11.613)">
            <path id="Trazado_637022" data-name="Trazado 637022" d="M937.8,435.972a1.611,1.611,0,1,1-1.611-1.611A1.611,1.611,0,0,1,937.8,435.972Z" transform="translate(-930.99 -434.361)" fill="#fff" stroke="#fff" stroke-linecap="round" stroke-linejoin="round" stroke-width="0.75"/>
            <g id="Grupo_894639" data-name="Grupo 894639" transform="translate(0 33.564)">
              <path id="Trazado_637023" data-name="Trazado 637023" d="M930.244,488.419q.771,3.666,1.543,7.331" transform="translate(-930.244 -477.231)" fill="none" stroke="#76c7ca" stroke-linecap="round" stroke-linejoin="round" stroke-width="2"/>
              <path id="Trazado_637024" data-name="Trazado 637024" d="M944.224,489.351a16.225,16.225,0,0,1,1.158,8.488" transform="translate(-932.651 -477.392)" fill="none" stroke="#76c7ca" stroke-linecap="round" stroke-linejoin="round" stroke-width="2"/>
              <path id="Trazado_637025" data-name="Trazado 637025" d="M954.943,497.274a11.083,11.083,0,0,1,0,5.787" transform="translate(-934.496 -478.756)" fill="none" stroke="#76c7ca" stroke-linecap="round" stroke-linejoin="round" stroke-width="2"/>
              <path id="Trazado_637026" data-name="Trazado 637026" d="M942.094,510.332a8.127,8.127,0,0,1-1.084,6.19" transform="translate(-932.097 -481.004)" fill="none" stroke="#76c7ca" stroke-linecap="round" stroke-linejoin="round" stroke-width="2"/>
              <path id="Trazado_637027" data-name="Trazado 637027" d="M932.88,513.118a8.021,8.021,0,0,1-.772,5.015" transform="translate(-930.565 -481.483)" fill="none" stroke="#76c7ca" stroke-linecap="round" stroke-linejoin="round" stroke-width="2"/>
              <path id="Trazado_637028" data-name="Trazado 637028" d="M952.453,514.982a11.007,11.007,0,0,1-.771,6.173" transform="translate(-933.934 -481.804)" fill="none" stroke="#76c7ca" stroke-linecap="round" stroke-linejoin="round" stroke-width="2"/>
              <path id="Trazado_637029" data-name="Trazado 637029" d="M941.41,528.963a9.02,9.02,0,0,1-2.3,6.183" transform="translate(-931.771 -484.211)" fill="none" stroke="#76c7ca" stroke-linecap="round" stroke-linejoin="round" stroke-width="2"/>
              <path id="Trazado_637030" data-name="Trazado 637030" d="M932.537,533.158a6.449,6.449,0,0,1-2.267,5.04" transform="translate(-930.248 -484.933)" fill="none" stroke="#76c7ca" stroke-linecap="round" stroke-linejoin="round" stroke-width="2"/>
              <path id="Trazado_637031" data-name="Trazado 637031" d="M946.219,537.817a18.126,18.126,0,0,1-3.859,6.945" transform="translate(-932.33 -485.735)" fill="none" stroke="#76c7ca" stroke-linecap="round" stroke-linejoin="round" stroke-width="2"/>
              <path id="Trazado_637032" data-name="Trazado 637032" d="M947.487,474.9q1.35,3.664,2.7,7.33" transform="translate(-933.212 -474.905)" fill="none" stroke="#76c7ca" stroke-linecap="round" stroke-linejoin="round" stroke-width="2"/>
            </g>
          </g>
          <path id="Trazado_637033" data-name="Trazado 637033" d="M895.495,533.751c.07,2.339,2.7,4.027,5.011,3.646a7,7,0,0,0,4.99-4.491,20.675,20.675,0,0,0,1.092-6.9l1.12-25.739q.817-18.758,1.633-37.516" transform="translate(-882.976 -427.636)" fill="none" stroke="#76c7ca" stroke-linecap="round" stroke-linejoin="round" stroke-width="2"/>
          <path id="Trazado_637034" data-name="Trazado 637034" d="M893.175,483.288q-.151,5.209-.3,10.418" transform="translate(-882.525 -431.171)" fill="none" stroke="#76c7ca" stroke-linecap="round" stroke-linejoin="round" stroke-width="2"/>
          <path id="Trazado_637035" data-name="Trazado 637035" d="M899.021,484.691v12.346" transform="translate(-883.583 -431.412)" fill="none" stroke="#76c7ca" stroke-linecap="round" stroke-linejoin="round" stroke-width="2"/>
        </g>
        <path id="Trazado_637036" data-name="Trazado 637036" d="M1022.076,600.95c-8.108,10.227-25.168,11.582-34.789,2.764a39.508,39.508,0,0,1-32.74-.645,26.192,26.192,0,0,1-29.01.249,40.917,40.917,0,0,1-37.813,1.311,38.716,38.716,0,0,1-30.337-1.853,34.375,34.375,0,0,1-27.275-.544,27.136,27.136,0,0,1-28.279,3.193c1.006,4.249.411,9.6,1.417,13.848,70.168,6.165,139.9,4.7,209.582-5.624,3.252-.482,6.769-1.118,8.984-3.549S1025.238,601.85,1022.076,600.95Z" transform="translate(-801.833 -451.427)" fill="#b7e1e3"/>
      </g>
      <g id="Grupo_894649" data-name="Grupo 894649" transform="translate(0 55.292)">
        <g id="Grupo_894648" data-name="Grupo 894648">
          <g id="Grupo_894644" data-name="Grupo 894644" transform="translate(344.458 100.484)">
            <path id="Trazado_637039" data-name="Trazado 637039" d="M1142.16,627.109c.371.482.762.945,1.161,1.4l9.227-20.007-39.571,11.522-11.764,14.6A45.15,45.15,0,0,0,1142.16,627.109Z" transform="translate(-1101.213 -608.502)" fill="#fff" stroke="#fff" stroke-miterlimit="10" stroke-width="2"/>
            <path id="Trazado_637040" data-name="Trazado 637040" d="M1185.209,638.584l.067-.654L1161.3,608.5l-9.227,20.007C1160.072,637.632,1173.483,641.479,1185.209,638.584Z" transform="translate(-1109.969 -608.502)" fill="#76c7ca" stroke="#76c7ca" stroke-linecap="round" stroke-linejoin="round" stroke-width="2"/>
          </g>
          <g id="Grupo_894646" data-name="Grupo 894646" transform="translate(0 19.472)">
            <path id="Trazado_637043" data-name="Trazado 637043" d="M647.994,524.635a17.531,17.531,0,0,0,1.416,1.142l6.56-19.133-26.329,10.674-7.588,11.673A32.12,32.12,0,0,0,647.994,524.635Z" transform="translate(-622.053 -506.644)" fill="#fff" stroke="#fff" stroke-linecap="round" stroke-linejoin="round" stroke-width="2"/>
            <path id="Trazado_637044" data-name="Trazado 637044" d="M667.824,529.223a18.585,18.585,0,0,0,11.085-5.329l-17.25-17.25-6.56,19.133A18.588,18.588,0,0,0,667.824,529.223Z" transform="translate(-650.045 -506.644)" fill="#76c7ca" stroke="#76c7ca" stroke-linecap="round" stroke-linejoin="round" stroke-width="2"/>
          </g>
          <g id="Grupo_894647" data-name="Grupo 894647" transform="translate(415.695)">
            <path id="Trazado_637045" data-name="Trazado 637045" d="M1207.992,497.619a21.037,21.037,0,0,0,3.253,1.984l7.2-12.48h-14.232l-16.949,16.322A23.207,23.207,0,0,0,1207.992,497.619Z" transform="translate(-1187.263 -487.123)" fill="#fff" stroke="#fff" stroke-miterlimit="10" stroke-width="2"/>
            <path id="Trazado_637046" data-name="Trazado 637046" d="M1232.664,501.244l-9.233-14.121-7.2,12.48A24.241,24.241,0,0,0,1232.664,501.244Z" transform="translate(-1192.25 -487.123)" fill="#76c7ca" stroke="#76c7ca" stroke-linecap="round" stroke-linejoin="round" stroke-width="2"/>
          </g>
        </g>
      </g>
    </g>
  </g>
</svg>
