<svg xmlns="http://www.w3.org/2000/svg" width="85" height="85" viewBox="0 0 85 85">
  <g id="Grupo_974100" data-name="Grupo 974100" transform="translate(-810 -1899)">
    <circle id="Elipse_4858" data-name="Elipse 4858" cx="42.5" cy="42.5" r="42.5" transform="translate(810 1899)" fill="#ece3ff"/>
    <g id="oxido-nitroso" transform="translate(771.472 1897.21)">
      <path id="Trazado_592591" data-name="Trazado 592591" d="M77.843,25.783s.892,3.313,3.46,3.466c0,0-3.428,1.184-3.486,3.716,0,0-.675-3.551-3.382-3.679,0,0,3.153-.478,3.408-3.5Z" transform="translate(-14.314 -8.253)" fill="#d5de58"/>
      <path id="Trazado_592592" data-name="Trazado 592592" d="M76.709,32.251a.392.392,0,0,1-.385-.318c-.006-.033-.653-3.249-3.015-3.361a.393.393,0,0,1-.04-.78,3.632,3.632,0,0,0,3.076-3.148.393.393,0,0,1,.77-.069c.008.03.853,3.042,3.1,3.177a.392.392,0,0,1,.105.763c-.032.011-3.171,1.128-3.222,3.355a.392.392,0,0,1-.36.382h-.034Zm-2.026-4.116a4.572,4.572,0,0,1,1.985,2.323,5.578,5.578,0,0,1,2.342-2.205A4.793,4.793,0,0,1,76.83,25.97,4.213,4.213,0,0,1,74.684,28.135Z" transform="translate(-13.207 -7.146)" fill="#3a312a"/>
      <path id="Trazado_592593" data-name="Trazado 592593" d="M58.959,42.764s.631,2.343,2.447,2.452c0,0-2.425.838-2.465,2.628,0,0-.477-2.512-2.392-2.6A2.868,2.868,0,0,0,58.959,42.764Z" transform="translate(-1.108 -20.79)" fill="#d5de58"/>
      <path id="Trazado_592594" data-name="Trazado 592594" d="M57.832,47.129a.393.393,0,0,1-.385-.319c0-.021-.446-2.209-2.025-2.284a.393.393,0,0,1-.04-.78,2.458,2.458,0,0,0,2.078-2.123.392.392,0,0,1,.77-.07c.005.021.583,2.072,2.092,2.163a.393.393,0,0,1,.1.763c-.021.007-2.167.773-2.2,2.267a.392.392,0,0,1-.36.382h-.032ZM56.65,44.112a3.351,3.351,0,0,1,1.164,1.381,4.1,4.1,0,0,1,1.4-1.3,3.5,3.5,0,0,1-1.293-1.367A3.129,3.129,0,0,1,56.65,44.112Z" transform="translate(0 -19.682)" fill="#3a312a"/>
      <path id="Trazado_592595" data-name="Trazado 592595" d="M58.959,16.106s.631,2.343,2.447,2.452c0,0-2.425.838-2.465,2.628,0,0-.477-2.512-2.392-2.6a2.867,2.867,0,0,0,2.411-2.478Z" transform="translate(-1.108 -1.108)" fill="#d5de58"/>
      <path id="Trazado_592596" data-name="Trazado 592596" d="M57.832,20.471a.393.393,0,0,1-.385-.319c0-.021-.446-2.209-2.025-2.284a.393.393,0,0,1-.04-.78,2.459,2.459,0,0,0,2.078-2.123.392.392,0,0,1,.77-.07c.005.021.583,2.072,2.092,2.163a.393.393,0,0,1,.1.763c-.021.007-2.167.773-2.2,2.267a.393.393,0,0,1-.36.382h-.032ZM56.65,17.455a3.353,3.353,0,0,1,1.164,1.381,4.1,4.1,0,0,1,1.4-1.3,3.5,3.5,0,0,1-1.293-1.367A3.134,3.134,0,0,1,56.65,17.455Z" fill="#3a312a"/>
      <path id="Trazado_592597" data-name="Trazado 592597" d="M127.337,232.242H101.778v-.2a2.514,2.514,0,0,1,2.514-2.514h20.53a2.514,2.514,0,0,1,2.514,2.514Z" transform="translate(-34.502 -158.685)" fill="#87796f"/>
      <path id="Trazado_592598" data-name="Trazado 592598" d="M126.228,231.527H100.67a.392.392,0,0,1-.393-.393v-.2a2.91,2.91,0,0,1,2.907-2.907h20.53a2.91,2.91,0,0,1,2.907,2.907v.2A.392.392,0,0,1,126.228,231.527Zm-25.157-.785h24.756a2.125,2.125,0,0,0-2.113-1.927h-20.53A2.125,2.125,0,0,0,101.071,230.742Z" transform="translate(-33.394 -157.578)" fill="#3a312a"/>
      <path id="Trazado_592599" data-name="Trazado 592599" d="M110.756,101.889l.335,7.3,20.426-.936L130.024,75.7a10.224,10.224,0,0,0-20.426.936l.989,21.583Z" transform="translate(-40.268 -37.902)" fill="#ea6d7a"/>
      <path id="Trazado_592600" data-name="Trazado 592600" d="M130.885,108H110.438a.392.392,0,0,1-.393-.393V100.3a.393.393,0,0,1,.785,0v6.917h19.662v-32.2a9.831,9.831,0,1,0-19.662,0V96.617a.393.393,0,1,1-.785,0V75.011a10.616,10.616,0,1,1,21.232,0V107.6a.393.393,0,0,1-.393.392Z" transform="translate(-40.606 -36.761)" fill="#3a312a"/>
      <path id="Trazado_592601" data-name="Trazado 592601" d="M118.423,128.9h-6.878V141.46h20.447V128.9H118.423Z" transform="translate(-41.713 -84.391)" fill="#f8e4c8"/>
      <path id="Trazado_592602" data-name="Trazado 592602" d="M130.885,140.746H110.438a.392.392,0,0,1-.393-.393V127.8a.392.392,0,0,1,.393-.393h6.878a.393.393,0,0,1,0,.785H110.83v11.77h19.662v-11.77h-9.637a.393.393,0,1,1,0-.785h10.03a.393.393,0,0,1,.393.393v12.555A.393.393,0,0,1,130.885,140.746Z" transform="translate(-40.606 -83.284)" fill="#3a312a"/>
      <path id="Trazado_592603" data-name="Trazado 592603" d="M142.444,32.455h4.278V44.238h-4.278Z" transform="translate(-64.527 -13.179)" fill="#87796f"/>
      <path id="Trazado_592604" data-name="Trazado 592604" d="M145.615,43.523h-4.278a.393.393,0,0,1-.393-.393V31.348a.393.393,0,0,1,.393-.393h4.278a.393.393,0,0,1,.393.393V43.13A.392.392,0,0,1,145.615,43.523Zm-3.886-.785h3.493v-11h-3.493Z" transform="translate(-63.419 -12.071)" fill="#3a312a"/>
      <path id="Trazado_592605" data-name="Trazado 592605" d="M125.416,18.908V17.582a1.476,1.476,0,0,1,1.476-1.476h10.235a1.476,1.476,0,0,1,1.476,1.476v1.326a1.476,1.476,0,0,1-1.476,1.476H126.892A1.477,1.477,0,0,1,125.416,18.908Z" transform="translate(-51.955 -1.108)" fill="#87796f"/>
      <path id="Trazado_592606" data-name="Trazado 592606" d="M136.02,19.67H125.786a1.871,1.871,0,0,1-1.869-1.869V16.475a1.871,1.871,0,0,1,1.869-1.869H136.02a1.871,1.871,0,0,1,1.869,1.869V17.8A1.871,1.871,0,0,1,136.02,19.67Zm-10.234-4.279a1.085,1.085,0,0,0-1.084,1.084V17.8a1.085,1.085,0,0,0,1.084,1.084H136.02A1.085,1.085,0,0,0,137.1,17.8V16.475a1.085,1.085,0,0,0-1.084-1.084Z" transform="translate(-50.848 -0.001)" fill="#3a312a"/>
      <path id="Trazado_592607" data-name="Trazado 592607" d="M166.26,41.678v2.083a.925.925,0,0,1-.926.926h-6.539V40.752h6.539A.925.925,0,0,1,166.26,41.678Z" transform="translate(-76.599 -19.305)" fill="#d5dc57"/>
      <path id="Trazado_592608" data-name="Trazado 592608" d="M164.225,43.973h-6.539a.393.393,0,0,1-.393-.393V39.645a.393.393,0,0,1,.393-.393h6.539a1.32,1.32,0,0,1,1.319,1.319v2.083A1.32,1.32,0,0,1,164.225,43.973Zm-6.146-.785h6.146a.534.534,0,0,0,.534-.534V40.571a.534.534,0,0,0-.534-.534h-6.146Z" transform="translate(-75.491 -18.197)" fill="#3a312a"/>
      <circle id="Elipse_4861" data-name="Elipse 4861" cx="5.332" cy="5.332" r="5.332" transform="translate(73.66 32.157) rotate(-76.825)" fill="#8ac5dc"/>
      <path id="Trazado_592609" data-name="Trazado 592609" d="M134.463,56.081a5.724,5.724,0,1,1,5.724-5.724A5.731,5.731,0,0,1,134.463,56.081Zm0-10.664a4.939,4.939,0,1,0,4.939,4.939A4.945,4.945,0,0,0,134.463,45.417Z" transform="translate(-54.408 -22.17)" fill="#3a312a"/>
      <circle id="Elipse_4862" data-name="Elipse 4862" cx="3.999" cy="3.999" r="3.999" transform="translate(75.245 31.15) rotate(-76.825)" fill="#fae6ca"/>
      <path id="Trazado_592610" data-name="Trazado 592610" d="M138.223,58.508a4.392,4.392,0,1,1,4.392-4.392A4.4,4.4,0,0,1,138.223,58.508Zm0-8a3.607,3.607,0,1,0,3.607,3.607A3.611,3.611,0,0,0,138.223,50.51Z" transform="translate(-58.168 -25.93)" fill="#3a312a"/>
      <path id="Trazado_592611" data-name="Trazado 592611" d="M149.727,60.047a.392.392,0,0,1-.278-.67l1.829-1.829a.392.392,0,1,1,.555.555L150,59.932A.392.392,0,0,1,149.727,60.047Z" transform="translate(-69.614 -31.621)" fill="#3a312a"/>
      <path id="Trazado_592612" data-name="Trazado 592612" d="M148.429,64.454a.6.6,0,1,1,.132.842A.6.6,0,0,1,148.429,64.454Z" transform="translate(-68.86 -36.622)" fill="#87796f" fill-rule="evenodd"/>
      <path id="Trazado_592613" data-name="Trazado 592613" d="M147.807,64.7a.995.995,0,0,1-.8-1.581h0a.995.995,0,1,1,.958,1.569A1.019,1.019,0,0,1,147.807,64.7Zm-.167-1.119a.21.21,0,0,0,.046.293.21.21,0,1,0,.248-.338.213.213,0,0,0-.156-.038A.207.207,0,0,0,147.64,63.576Z" transform="translate(-67.754 -35.513)" fill="#3a312a"/>
      <path id="Trazado_592614" data-name="Trazado 592614" d="M173.184,178.385h3.925v12.989h-3.925Z" transform="translate(-87.223 -120.923)" fill="#d24e5c"/>
      <path id="Trazado_592615" data-name="Trazado 592615" d="M171.527,81.826V87.7H167.6V81.826a9.754,9.754,0,0,0-1.978-5.9,5.736,5.736,0,0,0,1.484-2.3A9.825,9.825,0,0,1,171.527,81.826Z" transform="translate(-81.641 -43.576)" fill="#d24e5c"/>
      <path id="Trazado_592616" data-name="Trazado 592616" d="M173.184,130.408h3.925v11.77h-3.925Z" transform="translate(-87.223 -85.5)" fill="#ddc9ac"/>
      <g id="Grupo_879821" data-name="Grupo 879821" transform="translate(72.698 47.078)">
        <path id="Trazado_592617" data-name="Trazado 592617" d="M126.5,146.185a.392.392,0,0,1-.345-.206l-2.868-5.326v5.14a.393.393,0,0,1-.785,0v-6.7a.393.393,0,0,1,.738-.186l2.868,5.326V139.1a.393.393,0,1,1,.785,0v6.7a.393.393,0,0,1-.393.393Z" transform="translate(-122.5 -138.703)" fill="#3a312a"/>
        <path id="Trazado_592618" data-name="Trazado 592618" d="M145.944,146.186h-1.07a1.663,1.663,0,0,1-1.661-1.661v-4.161a1.663,1.663,0,0,1,1.661-1.661h1.07a1.663,1.663,0,0,1,1.661,1.661v4.161A1.663,1.663,0,0,1,145.944,146.186Zm-1.07-6.7a.877.877,0,0,0-.876.876v4.161a.877.877,0,0,0,.876.876h1.07a.877.877,0,0,0,.876-.876v-4.161a.877.877,0,0,0-.876-.876Z" transform="translate(-137.793 -138.704)" fill="#3a312a"/>
        <path id="Trazado_592619" data-name="Trazado 592619" d="M165.206,146.186h-1.03a1.682,1.682,0,0,1-1.68-1.68.393.393,0,1,1,.785,0,.9.9,0,0,0,.9.9h1.03a.9.9,0,0,0,.9-.9V142.96a.9.9,0,0,0-.9-.9h-1.03a1.68,1.68,0,1,1,0-3.361h1.03a1.682,1.682,0,0,1,1.68,1.68.393.393,0,1,1-.785,0,.9.9,0,0,0-.9-.9h-1.03a.9.9,0,1,0,0,1.791h1.03a1.682,1.682,0,0,1,1.68,1.68v1.545A1.682,1.682,0,0,1,165.206,146.186Z" transform="translate(-152.029 -138.704)" fill="#3a312a"/>
      </g>
    </g>
  </g>
</svg>
