<svg xmlns="http://www.w3.org/2000/svg" width="85" height="85" viewBox="0 0 85 85">
  <g id="Grupo_974101" data-name="Grupo 974101" transform="translate(-285 -2105)">
    <circle id="Elipse_4859" data-name="Elipse 4859" cx="42.5" cy="42.5" r="42.5" transform="translate(285 2105)" fill="#ece3ff"/>
    <g id="metano" transform="translate(211.621 2117.594)">
      <path id="Trazado_592620" data-name="Trazado 592620" d="M244.459,77.032v4.106H240.94V77.032a1.76,1.76,0,1,1,3.519,0Z" transform="translate(-126.334 -66.477)" fill="#5c576e"/>
      <path id="Trazado_592621" data-name="Trazado 592621" d="M319.874,9.5c-1.95,0-2.126,1.1-2.126,1.966V23.048h3.343V11.464A2.2,2.2,0,0,0,319.874,9.5Z" transform="translate(-194.168 -8.388)" fill="#5c576e"/>
      <path id="Trazado_592622" data-name="Trazado 592622" d="M311.893,7.733A2.2,2.2,0,0,0,308.711,9.7V21.284h1.965V9.7A2.2,2.2,0,0,1,311.893,7.733Z" transform="translate(-186.187 -6.624)" fill="#474556"/>
      <path id="Trazado_592623" data-name="Trazado 592623" d="M176.8,9.5c-1.95,0-2.126,1.1-2.126,1.966V23.048h3.343V11.464A2.2,2.2,0,0,0,176.8,9.5Z" transform="translate(-67.809 -8.388)" fill="#5c576e"/>
      <path id="Trazado_592624" data-name="Trazado 592624" d="M168.818,7.733A2.2,2.2,0,0,0,165.636,9.7V21.284H167.6V9.7A2.2,2.2,0,0,1,168.818,7.733Z" transform="translate(-59.828 -6.624)" fill="#474556"/>
      <path id="Trazado_592625" data-name="Trazado 592625" d="M169.519,141.29V111.729a6.335,6.335,0,0,0-6.335-6.335H152.961c-17.784,4.78-17.168,38.2,2.539,42.231h7.685A6.335,6.335,0,0,0,169.519,141.29Z" transform="translate(-37.317 -93.08)" fill="#84eafd"/>
      <path id="Trazado_592626" data-name="Trazado 592626" d="M128.728,125.336c0-8.112,2.68-15.329,6.843-19.942h-8.78a6.335,6.335,0,0,0-6.335,6.335V141.29a6.335,6.335,0,0,0,6.335,6.335h11.319C132.529,143.389,128.728,135,128.728,125.336Z" transform="translate(-19.926 -93.08)" fill="#74ccfc"/>
      <path id="Trazado_592627" data-name="Trazado 592627" d="M178.744,469.048a2.2,2.2,0,0,0-2.2-2.2H156.426c-2.918,0-3.842.984-3.842,2.2s.557,2.2,3.842,2.2h20.118A2.2,2.2,0,0,0,178.744,469.048Z" transform="translate(-48.301 -412.303)" fill="#74ccfc"/>
      <path id="Trazado_592628" data-name="Trazado 592628" d="M139.152,469.048a2.2,2.2,0,0,1,2.2-2.2h-3.637a2.2,2.2,0,1,0,0,4.4h3.637A2.2,2.2,0,0,1,139.152,469.048Z" transform="translate(-33.226 -412.303)" fill="#70affb"/>
      <path id="Trazado_592629" data-name="Trazado 592629" d="M162.533,356.533a2.64,2.64,0,0,0-2.639-2.639H135.22c-3.51,0-4.976,1.17-4.976,2.639s1.036,2.639,4.976,2.639h24.674A2.639,2.639,0,0,0,162.533,356.533Z" transform="translate(-28.571 -312.546)" fill="#f2e959"/>
      <path id="Trazado_592630" data-name="Trazado 592630" d="M110.634,356.533a2.639,2.639,0,0,1,2.639-2.639h-5.24a2.639,2.639,0,1,0,0,5.279h5.24A2.64,2.64,0,0,1,110.634,356.533Z" transform="translate(-6.625 -312.546)" fill="#f1cd5e"/>
      <path id="Trazado_592631" data-name="Trazado 592631" d="M309.846,164.11c1.9,0,3.443,1.228,3.443,2.743s-1.541,2.743-3.443,2.743-3.444-1.228-3.444-2.743S307.944,164.11,309.846,164.11Z" transform="translate(-184.148 -144.936)" fill="#fff"/>
      <path id="Trazado_592632" data-name="Trazado 592632" d="M150.093,164.11c1.9,0,3.444,1.228,3.444,2.743S152,169.6,150.093,169.6s-3.443-1.228-3.443-2.743S148.191,164.11,150.093,164.11Z" transform="translate(-43.06 -144.936)" fill="#fff"/>
      <path id="Trazado_592633" data-name="Trazado 592633" d="M134.838,43.987a3.517,3.517,0,0,0-1.76-3.044V27.309a.876.876,0,0,0-1.753,0V40.472H101.405V18.649a5.465,5.465,0,0,1,5.458-5.458h19a5.465,5.465,0,0,1,5.458,5.458V23.2a.876.876,0,0,0,1.753,0V18.649A7.223,7.223,0,0,0,127.8,11.7V3.076a3.076,3.076,0,0,0-6.12-.436H111.052a3.076,3.076,0,0,0-6.12.436V11.7a7.222,7.222,0,0,0-5.279,6.946V40.943a3.512,3.512,0,0,0,0,6.088V48.21a7.209,7.209,0,0,0,3.156,5.959,3.075,3.075,0,0,0,1.679,5.651h4.986a.876.876,0,0,0,0-1.753h-4.986a1.323,1.323,0,0,1,0-2.646h23.755a1.323,1.323,0,0,1,0,2.647H113.58a.876.876,0,1,0,0,1.753h14.664a3.075,3.075,0,0,0,1.679-5.651,7.209,7.209,0,0,0,3.156-5.959V47.031A3.517,3.517,0,0,0,134.838,43.987Zm-13.19-32.55H119v-.883a2.64,2.64,0,0,0-1.76-2.485V7.035a.876.876,0,1,0-1.753,0V8.069a2.64,2.64,0,0,0-1.76,2.485v.883h-2.646V4.392h10.565Zm-6.166-.883a.883.883,0,1,1,1.767,0v.883h-1.767v-.883ZM123.4,3.076a1.323,1.323,0,1,1,2.646,0v8.362H123.4Zm-16.716,8.362V3.076a1.323,1.323,0,1,1,2.646,0v8.362h-2.646ZM131.326,48.21a5.465,5.465,0,0,1-5.459,5.458h-19a5.465,5.465,0,0,1-5.458-5.458V47.5h29.921Zm0-2.46H101.409a1.763,1.763,0,0,1,0-3.526h29.914a1.763,1.763,0,0,1,0,3.526Z" transform="translate(0 0)"/>
      <path id="Trazado_592634" data-name="Trazado 592634" d="M247.125,243.99a.876.876,0,0,0,.876-.876v-8.8a.876.876,0,1,0-1.753,0v3.523h-3.526v-3.523a.876.876,0,1,0-1.753,0v8.8a.876.876,0,0,0,1.753,0v-3.523h3.526v3.523A.876.876,0,0,0,247.125,243.99Z" transform="translate(-126.36 -206.165)"/>
      <path id="Trazado_592635" data-name="Trazado 592635" d="M158.017,235.949a.876.876,0,1,0,1.053-1.4,5.276,5.276,0,1,0,0,8.439.876.876,0,1,0-1.053-1.4,3.523,3.523,0,1,1,0-5.638Z" transform="translate(-46.577 -206.219)"/>
      <path id="Trazado_592636" data-name="Trazado 592636" d="M320.669,263.941a.876.876,0,0,0,.876-.876v-4.4a.876.876,0,0,0-1.753,0v.883h-1.767v-2.643a.876.876,0,1,0-1.753,0v3.519a.876.876,0,0,0,.876.876h2.643v1.763A.876.876,0,0,0,320.669,263.941Z" transform="translate(-192.865 -226.116)"/>
      <path id="Trazado_592637" data-name="Trazado 592637" d="M187.551,147.729v-1.408a.876.876,0,0,0-1.753,0v1.408a.876.876,0,1,0,1.753,0Z" transform="translate(-77.634 -128.452)"/>
      <path id="Trazado_592638" data-name="Trazado 592638" d="M312.955,147.729v-1.408a.876.876,0,1,0-1.753,0v1.408a.876.876,0,1,0,1.753,0Z" transform="translate(-188.387 -128.452)"/>
      <path id="Trazado_592639" data-name="Trazado 592639" d="M237.372,158.584a.876.876,0,1,0-1.321-1.151,1.681,1.681,0,0,1-2.54,0,.876.876,0,1,0-1.321,1.151,3.435,3.435,0,0,0,5.183,0Z" transform="translate(-118.415 -138.773)"/>
    </g>
  </g>
</svg>
