<svg xmlns="http://www.w3.org/2000/svg" width="62.888" height="62.884" viewBox="0 0 62.888 62.884">
  <g id="ojo" transform="translate(0 -0.016)">
    <path id="Trazado_624011" data-name="Trazado 624011" d="M130.162,174.53a20.437,20.437,0,0,0-5.1-5.435,25,25,0,0,0-15.262-4.9,24.319,24.319,0,0,0-14.935,4.845,20.525,20.525,0,0,0-5.089,5.5,1.842,1.842,0,0,0,.005,1.872,20.434,20.434,0,0,0,5.1,5.436,25.007,25.007,0,0,0,15.263,4.9,24.316,24.316,0,0,0,14.934-4.845,20.524,20.524,0,0,0,5.088-5.5,1.842,1.842,0,0,0-.005-1.872Z" transform="translate(-78.53 -144.012)" fill="#fff5f5"/>
    <path id="Trazado_624012" data-name="Trazado 624012" d="M271.123,169.093a24.97,24.97,0,0,0-15.091-4.9v22.558l.173,0a24.316,24.316,0,0,0,14.934-4.845,20.524,20.524,0,0,0,5.088-5.5,1.842,1.842,0,0,0-.005-1.872A20.438,20.438,0,0,0,271.123,169.093Z" transform="translate(-224.59 -144.012)" fill="#e5e9f3"/>
    <g id="Grupo_888975" data-name="Grupo 888975" transform="translate(29.6 0.016)">
      <path id="Trazado_624013" data-name="Trazado 624013" d="M242.874,12.731a1.842,1.842,0,0,1-1.842-1.842V1.858a1.842,1.842,0,1,1,3.684,0v9.031A1.842,1.842,0,0,1,242.874,12.731Z" transform="translate(-241.032 -0.016)" fill="#f9007b"/>
    </g>
    <g id="Grupo_888976" data-name="Grupo 888976" transform="translate(29.6 50.906)">
      <path id="Trazado_624014" data-name="Trazado 624014" d="M242.874,426.406a1.842,1.842,0,0,1-1.842-1.842v-8.309a1.842,1.842,0,1,1,3.684,0v8.309A1.842,1.842,0,0,1,242.874,426.406Z" transform="translate(-241.032 -414.413)" fill="#f9007b"/>
    </g>
    <path id="Trazado_624015" data-name="Trazado 624015" d="M257.874,424.564v-8.309a1.842,1.842,0,0,0-1.842-1.842v11.993A1.842,1.842,0,0,0,257.874,424.564Z" transform="translate(-224.59 -363.507)" fill="#950049"/>
    <path id="Trazado_624016" data-name="Trazado 624016" d="M257.874,10.889V1.858A1.842,1.842,0,0,0,256.032.016V12.731A1.842,1.842,0,0,0,257.874,10.889Z" transform="translate(-224.59)" fill="#950049"/>
    <ellipse id="Elipse_4887" data-name="Elipse 4887" cx="11.282" cy="11.281" rx="11.282" ry="11.281" transform="translate(20.161 20.177)" fill="#00ffe7"/>
    <ellipse id="Elipse_4888" data-name="Elipse 4888" cx="3.902" cy="3.902" rx="3.902" ry="3.902" transform="translate(27.541 27.556)" fill="#273863"/>
    <g id="Grupo_888979" data-name="Grupo 888979" transform="translate(0 29.616)">
      <g id="Grupo_888977" data-name="Grupo 888977" transform="translate(55.057)">
        <path id="Trazado_624017" data-name="Trazado 624017" d="M454.315,244.73h-4.147a1.842,1.842,0,0,1,0-3.684h4.147a1.842,1.842,0,1,1,0,3.684Z" transform="translate(-448.326 -241.046)" fill="#950049"/>
      </g>
      <g id="Grupo_888978" data-name="Grupo 888978">
        <path id="Trazado_624018" data-name="Trazado 624018" d="M5.985,244.73H1.842a1.842,1.842,0,0,1,0-3.684H5.985a1.842,1.842,0,0,1,0,3.684Z" transform="translate(0 -241.046)" fill="#f9007b"/>
      </g>
    </g>
    <g id="Grupo_888980" data-name="Grupo 888980" transform="translate(4.143 4.159)">
      <path id="Trazado_624019" data-name="Trazado 624019" d="M61.036,88.349a27.3,27.3,0,1,1,19.3-8A27.12,27.12,0,0,1,61.036,88.349Zm0-50.914A23.615,23.615,0,1,0,84.651,61.05,23.642,23.642,0,0,0,61.036,37.435Z" transform="translate(-33.737 -33.751)" fill="#ff6689"/>
    </g>
    <path id="Trazado_624020" data-name="Trazado 624020" d="M279.647,61.05a23.642,23.642,0,0,1-23.615,23.615v3.684a27.3,27.3,0,0,0,0-54.6v3.684A23.642,23.642,0,0,1,279.647,61.05Z" transform="translate(-224.59 -29.592)" fill="#f9007b"/>
    <path id="Trazado_624021" data-name="Trazado 624021" d="M256.033,164.184h0v22.561h0a11.281,11.281,0,1,0,0-22.561Z" transform="translate(-224.59 -144.007)" fill="#00ddc1"/>
    <path id="Trazado_624022" data-name="Trazado 624022" d="M256.033,224.273h0v7.8h0a3.9,3.9,0,1,0,0-7.8Z" transform="translate(-224.59 -196.717)" fill="#0a0a33"/>
  </g>
</svg>
