<svg id="parque-eolico" xmlns="http://www.w3.org/2000/svg" width="93.979" height="93.979" viewBox="0 0 93.979 93.979">
  <path id="Trazado_624246" data-name="Trazado 624246" d="M91.915,56.958A45.958,45.958,0,1,1,45.958,11,45.958,45.958,0,0,1,91.915,56.958Z" transform="translate(0 -8.937)" fill="#62dafa"/>
  <path id="Trazado_624247" data-name="Trazado 624247" d="M96.967,23.943h-22.4a46.154,46.154,0,0,1,7.083-5.627H96.967a2.814,2.814,0,0,1,0,5.627Zm16.882,1.876H98.843a2.814,2.814,0,0,0,0,5.627H113.85a2.814,2.814,0,0,0,0-5.627ZM106.534,11q-1.687,0-3.343.12a2.814,2.814,0,0,0,1.28,5.32h18.758a2.811,2.811,0,0,0,2.377-1.308A45.789,45.789,0,0,0,106.534,11Z" transform="translate(-60.576 -8.937)" fill="#98e5fb"/>
  <path id="Trazado_624248" data-name="Trazado 624248" d="M91.908,219.461q.007.4.007.8A45.958,45.958,0,1,1,.739,212l7.868,3.376a57.216,57.216,0,0,0,28.567,4.32l29.8-3.145A57.166,57.166,0,0,1,91.908,219.461Z" transform="translate(0 -172.236)" fill="#7ac9a5"/>
  <path id="Trazado_624249" data-name="Trazado 624249" d="M54.546,51.817a11.51,11.51,0,0,1-11.305,3.878L33.221,53.505q-.4-.086-.778-.2V77.153h.188a1.876,1.876,0,0,1,1.876,1.876V95.911a1.876,1.876,0,0,1-1.876,1.876h-6a1.876,1.876,0,0,1-1.876-1.876V79.029a1.876,1.876,0,0,1,1.876-1.876h.188V55.741l-12.1,13.286a.937.937,0,0,1-1.571-.3A11.51,11.51,0,0,1,15.438,57l9.529-10.345L21.724,36.477a46.216,46.216,0,0,1,5.955-5.6,11.581,11.581,0,0,1,.816,1.935l4.082,12.811,21.442,4.686A.937.937,0,0,1,54.546,51.817Zm24.3,4.1h-.188V32.073q.383.112.778.2l8.787,1.92a45.949,45.949,0,0,0-17.689-10.8l.647,2.031L61.649,35.766a11.509,11.509,0,0,0-2.294,11.729.937.937,0,0,0,1.571.3l12.1-13.286V55.919h-.188a1.876,1.876,0,0,0-1.876,1.876V74.677a1.876,1.876,0,0,0,1.876,1.876h6a1.876,1.876,0,0,0,1.876-1.876V57.794a1.876,1.876,0,0,0-1.876-1.876Z" transform="translate(-10.104 -19.003)" fill="#01988c"/>
  <path id="Trazado_624250" data-name="Trazado 624250" d="M28.083,282.471H46.07A39.56,39.56,0,0,0,65.4,277.427l18.076-10.122a39.562,39.562,0,0,1,31.16-3.234,46,46,0,0,1-55.617,41.936c-1.661-.359-3.289-2.684-4.878-3.217-1.67-.56-3.3.661-4.876-.08A46.151,46.151,0,0,1,28.083,282.471Z" transform="translate(-22.815 -213.066)" fill="#008a80"/>
  <path id="Trazado_624251" data-name="Trazado 624251" d="M174.254,299.5H160.306a1.918,1.918,0,0,1-1.936-1.751,1.876,1.876,0,0,1,1.872-2H176.7a45.674,45.674,0,0,0,6.084-19.306,48.951,48.951,0,0,0-20.905,9.087l-18.149,13.65a.339.339,0,0,0,.1.593,1.82,1.82,0,0,1,1.412,1.7,1.918,1.918,0,0,1-1.923,1.9h-3.375a7.67,7.67,0,0,0-3.791,1.009,48.987,48.987,0,0,1-17.659,5.964l-6.446.871a45.888,45.888,0,0,0,5.431,3.015c1.355.636,2.746-.48,4.169.023,1.813.642,3.677,2.861,5.586,3.274a46.037,46.037,0,0,0,46.977-17.96l.05-.068Zm-.881-14.886h1.876a1.876,1.876,0,1,1,0,3.752h-1.876a1.876,1.876,0,1,1,0-3.752Zm-33.765,30.013h-3.752a1.876,1.876,0,0,1,0-3.752h3.752a1.876,1.876,0,1,1,0,3.752Zm20.634-7.5h-9.379a1.876,1.876,0,1,1,0-3.752h9.379a1.876,1.876,0,1,1,0,3.752Z" transform="translate(-91.024 -224.582)" fill="#059b7e"/>
  <path id="Trazado_624252" data-name="Trazado 624252" d="M157.627,209.757H152V168.489h5.627Zm39.392-62.4h-5.627v41.268h5.627Z" transform="translate(-123.488 -119.718)" fill="#c7eefd"/>
  <path id="Trazado_624253" data-name="Trazado 624253" d="M150.754,312.365v15.657a45.62,45.62,0,0,1-9.754-3.3V312.365a1.876,1.876,0,0,1,1.876-1.876h6A1.876,1.876,0,0,1,150.754,312.365Zm39.392-4.247V291.236a1.876,1.876,0,0,0-1.876-1.876h-6a1.876,1.876,0,0,0-1.876,1.876v16.882a1.876,1.876,0,0,0,1.876,1.876h6A1.876,1.876,0,0,0,190.146,308.118Z" transform="translate(-114.551 -235.081)" fill="#98e5fb"/>
  <path id="Trazado_624254" data-name="Trazado 624254" d="M173.453,58.219a11.51,11.51,0,0,1-11.949.263l-8.882-5.128c-1.122-.648-5.785-1.57-5.785-2.269V22.072a.937.937,0,0,1,1.362-.837,11.51,11.51,0,0,1,6.2,10.216V41.706a11.5,11.5,0,0,1-.577,3.608l19.584,11.307a.937.937,0,0,1,.044,1.6ZM212.8,35.492,193.217,24.185a11.5,11.5,0,0,0,.577-3.608V10.322a11.51,11.51,0,0,0-6.2-10.216.937.937,0,0,0-1.362.837V29.956c0,.7,4.663,1.621,5.785,2.269l8.882,5.128a11.51,11.51,0,0,0,11.949-.263.937.937,0,0,0-.044-1.6Z" transform="translate(-119.293 0)" fill="#98e5fb"/>
  <path id="Trazado_624255" data-name="Trazado 624255" d="M93.259,66.1a11.486,11.486,0,0,1-9.615-.876L74.763,60.1a11.487,11.487,0,0,1-3.145-2.664l-19.2,11.085a.937.937,0,0,1-1.406-.761,11.51,11.51,0,0,1,5.747-10.479l8.882-5.128a11.459,11.459,0,0,1,6.854-1.491V29.429a11.485,11.485,0,0,1,4.048,8.765V48.449a11.516,11.516,0,0,1-.44,3.164c.512.229-1.17,3.907-1.17,3.907Zm21.065-31.711a71.1,71.1,0,0,0,1.611-7.071V17.065A11.486,11.486,0,0,0,111.886,8.3V29.53a11.459,11.459,0,0,0-6.854,1.491L96.15,36.149A11.51,11.51,0,0,0,90.4,46.628a.937.937,0,0,0,1.406.761L111.01,36.3a11.484,11.484,0,0,0,3.145,2.664l8.882,5.128a11.485,11.485,0,0,0,9.614.876Z" transform="translate(-41.433 -6.743)" fill="#c7eefd"/>
  <path id="Trazado_624256" data-name="Trazado 624256" d="M57.586,148.995l8.882-5.128a11.485,11.485,0,0,1,9.615-.876L52.02,156.883A11.485,11.485,0,0,1,57.586,148.995Zm33.826-13.241,24.062-13.892a11.486,11.486,0,0,0-9.615.876l-8.882,5.128A11.485,11.485,0,0,0,91.412,135.754Z" transform="translate(-42.262 -98.46)" fill="#98e5fb"/>
  <path id="Trazado_624257" data-name="Trazado 624257" d="M145.131,136.055a6.565,6.565,0,1,1-6.565-6.565A6.565,6.565,0,0,1,145.131,136.055Zm32.827-27.695a6.565,6.565,0,1,0,6.565,6.565A6.565,6.565,0,0,0,177.958,108.36Z" transform="translate(-107.239 -88.034)" fill="#fff5f5"/>
  <path id="Trazado_624258" data-name="Trazado 624258" d="M157.627,152.3a2.814,2.814,0,1,1-2.814-2.814A2.814,2.814,0,0,1,157.627,152.3Zm36.578-23.943a2.814,2.814,0,1,0,2.814,2.814A2.814,2.814,0,0,0,194.206,128.36Z" transform="translate(-123.488 -104.282)" fill="#c7eefd"/>
  <path id="Trazado_624259" data-name="Trazado 624259" d="M356.581,368.256a7.867,7.867,0,0,1,.055-4.373A7.053,7.053,0,0,1,359.5,366.1c.169-2.657.885-4.838,1.9-5.872,1.4,1.18,2.488,4.216,2.657,7.819q0,.1.009.212h-7.49Z" transform="translate(-289.47 -292.653)" fill="#059b7e"/>
</svg>
