<svg xmlns="http://www.w3.org/2000/svg" width="818.469" height="482" viewBox="0 0 818.469 482">
  <g id="Grupo_873920" data-name="Grupo 873920" transform="translate(-601.531 -8870)">
    <path id="Trazado_705035" data-name="Trazado 705035" d="M8.3,15H6.414V5.862l-2.789.951V5.219L8.063,3.586H8.3Zm11.367-4.789a6.2,6.2,0,0,1-.918,3.7,3.242,3.242,0,0,1-2.793,1.246,3.285,3.285,0,0,1-2.777-1.215,5.94,5.94,0,0,1-.957-3.6V8.375a6.11,6.11,0,0,1,.918-3.68,3.272,3.272,0,0,1,2.8-1.227,3.291,3.291,0,0,1,2.785,1.2,5.924,5.924,0,0,1,.941,3.578Zm-1.9-2.125a4.813,4.813,0,0,0-.437-2.348,1.493,1.493,0,0,0-1.391-.746,1.492,1.492,0,0,0-1.367.707,4.448,4.448,0,0,0-.461,2.207v2.578a4.937,4.937,0,0,0,.445,2.375,1.5,1.5,0,0,0,1.4.781,1.469,1.469,0,0,0,1.352-.723,4.645,4.645,0,0,0,.461-2.262ZM22.656,13a1.084,1.084,0,0,1,.82.3,1.045,1.045,0,0,1,.289.754,1.008,1.008,0,0,1-.289.738,1.28,1.28,0,0,1-1.625,0,.991.991,0,0,1-.3-.742,1.045,1.045,0,0,1,.289-.754A1.074,1.074,0,0,1,22.656,13Zm10.578-2.789a6.2,6.2,0,0,1-.918,3.7,3.242,3.242,0,0,1-2.793,1.246,3.285,3.285,0,0,1-2.777-1.215,5.94,5.94,0,0,1-.957-3.6V8.375a6.11,6.11,0,0,1,.918-3.68,3.272,3.272,0,0,1,2.8-1.227,3.291,3.291,0,0,1,2.785,1.2,5.923,5.923,0,0,1,.941,3.578Zm-1.9-2.125A4.813,4.813,0,0,0,30.9,5.738,1.672,1.672,0,0,0,28.141,5.7a4.448,4.448,0,0,0-.461,2.207v2.578a4.937,4.937,0,0,0,.445,2.375,1.5,1.5,0,0,0,1.4.781,1.469,1.469,0,0,0,1.352-.723,4.645,4.645,0,0,0,.461-2.262Zm10.992,2.125a6.2,6.2,0,0,1-.918,3.7,3.242,3.242,0,0,1-2.793,1.246,3.285,3.285,0,0,1-2.777-1.215,5.94,5.94,0,0,1-.957-3.6V8.375A6.11,6.11,0,0,1,35.8,4.7a3.272,3.272,0,0,1,2.8-1.227,3.291,3.291,0,0,1,2.785,1.2,5.923,5.923,0,0,1,.941,3.578Zm-1.9-2.125a4.813,4.813,0,0,0-.437-2.348A1.672,1.672,0,0,0,37.234,5.7a4.448,4.448,0,0,0-.461,2.207v2.578a4.937,4.937,0,0,0,.445,2.375,1.5,1.5,0,0,0,1.4.781,1.469,1.469,0,0,0,1.352-.723,4.645,4.645,0,0,0,.461-2.262Zm10.992,2.125a6.2,6.2,0,0,1-.918,3.7,3.242,3.242,0,0,1-2.793,1.246,3.285,3.285,0,0,1-2.777-1.215,5.94,5.94,0,0,1-.957-3.6V8.375a6.11,6.11,0,0,1,.918-3.68,3.272,3.272,0,0,1,2.8-1.227,3.291,3.291,0,0,1,2.785,1.2,5.923,5.923,0,0,1,.941,3.578Zm-1.9-2.125a4.813,4.813,0,0,0-.437-2.348A1.672,1.672,0,0,0,46.328,5.7a4.448,4.448,0,0,0-.461,2.207v2.578a4.937,4.937,0,0,0,.445,2.375,1.5,1.5,0,0,0,1.4.781,1.469,1.469,0,0,0,1.352-.723,4.645,4.645,0,0,0,.461-2.262ZM54.406,13a1.084,1.084,0,0,1,.82.3,1.045,1.045,0,0,1,.289.754,1.008,1.008,0,0,1-.289.738,1.28,1.28,0,0,1-1.625,0,.991.991,0,0,1-.3-.742,1.045,1.045,0,0,1,.289-.754A1.074,1.074,0,0,1,54.406,13Zm10.578-2.789a6.2,6.2,0,0,1-.918,3.7,3.242,3.242,0,0,1-2.793,1.246A3.285,3.285,0,0,1,58.5,13.941a5.94,5.94,0,0,1-.957-3.6V8.375a6.11,6.11,0,0,1,.918-3.68,3.827,3.827,0,0,1,5.586-.031,5.924,5.924,0,0,1,.941,3.578Zm-1.9-2.125a4.813,4.813,0,0,0-.437-2.348A1.672,1.672,0,0,0,59.891,5.7a4.448,4.448,0,0,0-.461,2.207v2.578a4.937,4.937,0,0,0,.445,2.375,1.5,1.5,0,0,0,1.4.781,1.469,1.469,0,0,0,1.352-.723,4.645,4.645,0,0,0,.461-2.262Zm10.992,2.125a6.2,6.2,0,0,1-.918,3.7,3.242,3.242,0,0,1-2.793,1.246,3.285,3.285,0,0,1-2.777-1.215,5.94,5.94,0,0,1-.957-3.6V8.375a6.11,6.11,0,0,1,.918-3.68,3.827,3.827,0,0,1,5.586-.031,5.924,5.924,0,0,1,.941,3.578Zm-1.9-2.125a4.813,4.813,0,0,0-.437-2.348A1.672,1.672,0,0,0,68.984,5.7a4.448,4.448,0,0,0-.461,2.207v2.578a4.937,4.937,0,0,0,.445,2.375,1.5,1.5,0,0,0,1.4.781,1.469,1.469,0,0,0,1.352-.723,4.645,4.645,0,0,0,.461-2.262Zm10.992,2.125a6.2,6.2,0,0,1-.918,3.7,3.242,3.242,0,0,1-2.793,1.246,3.285,3.285,0,0,1-2.777-1.215,5.94,5.94,0,0,1-.957-3.6V8.375a6.11,6.11,0,0,1,.918-3.68,3.827,3.827,0,0,1,5.586-.031,5.924,5.924,0,0,1,.941,3.578Zm-1.9-2.125a4.813,4.813,0,0,0-.437-2.348A1.672,1.672,0,0,0,78.078,5.7a4.448,4.448,0,0,0-.461,2.207v2.578a4.937,4.937,0,0,0,.445,2.375,1.5,1.5,0,0,0,1.4.781,1.469,1.469,0,0,0,1.352-.723,4.645,4.645,0,0,0,.461-2.262Z" transform="translate(607 9236)" fill="#12263f"/>
    <path id="Trazado_705036" data-name="Trazado 705036" d="M11.313,15H3.664V13.7L7.453,9.563A9.436,9.436,0,0,0,8.621,8.035,2.475,2.475,0,0,0,8.969,6.8a1.87,1.87,0,0,0-.457-1.312,1.585,1.585,0,0,0-1.23-.5,1.827,1.827,0,0,0-1.43.563,2.212,2.212,0,0,0-.508,1.539h-1.9a3.721,3.721,0,0,1,.473-1.871A3.255,3.255,0,0,1,5.27,3.93,4.3,4.3,0,0,1,7.3,3.469,3.848,3.848,0,0,1,9.91,4.3a2.888,2.888,0,0,1,.957,2.3,3.9,3.9,0,0,1-.48,1.785,10.151,10.151,0,0,1-1.574,2.121L6.031,13.484h5.281Zm8.859-4.789a6.2,6.2,0,0,1-.918,3.7,3.242,3.242,0,0,1-2.793,1.246,3.285,3.285,0,0,1-2.777-1.215,5.94,5.94,0,0,1-.957-3.6V8.375a6.11,6.11,0,0,1,.918-3.68,3.272,3.272,0,0,1,2.8-1.227,3.291,3.291,0,0,1,2.785,1.2,5.924,5.924,0,0,1,.941,3.578Zm-1.9-2.125a4.813,4.813,0,0,0-.437-2.348,1.493,1.493,0,0,0-1.391-.746,1.492,1.492,0,0,0-1.367.707,4.448,4.448,0,0,0-.461,2.207v2.578a4.937,4.937,0,0,0,.445,2.375,1.5,1.5,0,0,0,1.4.781,1.469,1.469,0,0,0,1.352-.723,4.645,4.645,0,0,0,.461-2.262ZM26.992,15H25.1V5.862l-2.789.951V5.219L26.75,3.586h.242Zm11.6,0H30.945V13.7l3.789-4.133A9.435,9.435,0,0,0,35.9,8.035,2.475,2.475,0,0,0,36.25,6.8a1.87,1.87,0,0,0-.457-1.312,1.585,1.585,0,0,0-1.23-.5,1.827,1.827,0,0,0-1.43.563,2.212,2.212,0,0,0-.508,1.539h-1.9A3.721,3.721,0,0,1,31.2,5.223,3.255,3.255,0,0,1,32.551,3.93a4.3,4.3,0,0,1,2.027-.461,3.848,3.848,0,0,1,2.613.832,2.888,2.888,0,0,1,.957,2.3,3.9,3.9,0,0,1-.48,1.785,10.151,10.151,0,0,1-1.574,2.121l-2.781,2.977h5.281Z" transform="translate(737 9294)" fill="#12263f"/>
    <path id="Trazado_705037" data-name="Trazado 705037" d="M3.133,10.781V15H1.156V3.625H5.508a4.4,4.4,0,0,1,3.027.993A3.34,3.34,0,0,1,9.656,7.246a3.229,3.229,0,0,1-1.1,2.6,4.613,4.613,0,0,1-3.074.931Zm0-1.594H5.508a2.339,2.339,0,0,0,1.609-.5,1.823,1.823,0,0,0,.555-1.434,1.967,1.967,0,0,0-.562-1.473,2.168,2.168,0,0,0-1.547-.566H3.133Zm12.492-.906a4.7,4.7,0,0,0-.773-.062,1.741,1.741,0,0,0-1.758,1V15H11.2V6.547h1.813l.047.945a2.139,2.139,0,0,1,1.906-1.1,1.777,1.777,0,0,1,.672.109Zm.563,2.414a4.984,4.984,0,0,1,.492-2.238,3.6,3.6,0,0,1,1.383-1.531,3.9,3.9,0,0,1,2.047-.535,3.692,3.692,0,0,1,2.777,1.1,4.333,4.333,0,0,1,1.152,2.922l.008.445a5.029,5.029,0,0,1-.48,2.234,3.551,3.551,0,0,1-1.375,1.523,3.925,3.925,0,0,1-2.066.539,3.667,3.667,0,0,1-2.863-1.191,4.563,4.563,0,0,1-1.074-3.176Zm1.9.164a3.406,3.406,0,0,0,.539,2.043,1.752,1.752,0,0,0,1.5.738,1.733,1.733,0,0,0,1.5-.75,3.762,3.762,0,0,0,.535-2.2,3.362,3.362,0,0,0-.551-2.031,1.856,1.856,0,0,0-2.973-.012A3.691,3.691,0,0,0,18.086,10.859Zm7.211-.148A5.026,5.026,0,0,1,26.2,7.574a2.9,2.9,0,0,1,2.43-1.184,2.759,2.759,0,0,1,2.172.938V3h1.9V15H30.984l-.094-.875a2.8,2.8,0,0,1-2.273,1.031,2.887,2.887,0,0,1-2.4-1.2A5.21,5.21,0,0,1,25.3,10.711Zm1.9.164a3.519,3.519,0,0,0,.5,2.012,1.61,1.61,0,0,0,1.41.723,1.793,1.793,0,0,0,1.7-1.039V8.961a1.766,1.766,0,0,0-1.687-1.016,1.622,1.622,0,0,0-1.422.73A3.918,3.918,0,0,0,27.2,10.875Zm12.609,3.3a2.944,2.944,0,0,1-2.375.984,2.624,2.624,0,0,1-2.082-.8,3.423,3.423,0,0,1-.707-2.328V6.547h1.9V12q0,1.609,1.336,1.609a1.876,1.876,0,0,0,1.867-.992V6.547h1.9V15H39.852Zm7.242-.531a1.716,1.716,0,0,0,1.18-.414,1.415,1.415,0,0,0,.5-1.023h1.789a2.789,2.789,0,0,1-.492,1.473,3.228,3.228,0,0,1-1.25,1.082,3.725,3.725,0,0,1-1.7.4,3.6,3.6,0,0,1-2.812-1.148,4.555,4.555,0,0,1-1.039-3.172v-.2a4.479,4.479,0,0,1,1.031-3.09,3.571,3.571,0,0,1,2.813-1.16,3.473,3.473,0,0,1,2.457.879,3.148,3.148,0,0,1,1,2.309H48.727a1.738,1.738,0,0,0-.5-1.2,1.6,1.6,0,0,0-1.184-.469,1.671,1.671,0,0,0-1.422.668,3.408,3.408,0,0,0-.508,2.027v.3a3.465,3.465,0,0,0,.5,2.051A1.669,1.669,0,0,0,47.047,13.641Zm8.375,0a1.716,1.716,0,0,0,1.18-.414,1.415,1.415,0,0,0,.5-1.023h1.789a2.789,2.789,0,0,1-.492,1.473,3.228,3.228,0,0,1-1.25,1.082,3.725,3.725,0,0,1-1.7.4,3.6,3.6,0,0,1-2.812-1.148,4.555,4.555,0,0,1-1.039-3.172v-.2a4.479,4.479,0,0,1,1.031-3.09,3.571,3.571,0,0,1,2.813-1.16,3.473,3.473,0,0,1,2.457.879,3.148,3.148,0,0,1,1,2.309H57.1a1.738,1.738,0,0,0-.5-1.2,1.6,1.6,0,0,0-1.184-.469A1.671,1.671,0,0,0,54,8.582a3.408,3.408,0,0,0-.508,2.027v.3a3.465,3.465,0,0,0,.5,2.051A1.669,1.669,0,0,0,55.422,13.641ZM62.344,15h-1.9V6.547h1.9ZM60.328,4.352a1.008,1.008,0,0,1,.277-.727,1.048,1.048,0,0,1,.793-.289,1.061,1.061,0,0,1,.8.289,1,1,0,0,1,.281.727.977.977,0,0,1-.281.715,1.069,1.069,0,0,1-.8.285,1.056,1.056,0,0,1-.793-.285A.984.984,0,0,1,60.328,4.352ZM64.055,10.7a4.984,4.984,0,0,1,.492-2.238A3.6,3.6,0,0,1,65.93,6.926a3.9,3.9,0,0,1,2.047-.535,3.692,3.692,0,0,1,2.777,1.1,4.333,4.333,0,0,1,1.152,2.922l.008.445a5.029,5.029,0,0,1-.48,2.234,3.551,3.551,0,0,1-1.375,1.523,3.925,3.925,0,0,1-2.066.539,3.667,3.667,0,0,1-2.863-1.191,4.563,4.563,0,0,1-1.074-3.176Zm1.9.164a3.406,3.406,0,0,0,.539,2.043,1.752,1.752,0,0,0,1.5.738,1.733,1.733,0,0,0,1.5-.75,3.762,3.762,0,0,0,.535-2.2,3.362,3.362,0,0,0-.551-2.031A1.856,1.856,0,0,0,66.5,8.652,3.691,3.691,0,0,0,65.953,10.859ZM68.5,3h2.164L68.5,5.367l-1.523,0Zm6.781,3.547.055.977A3.039,3.039,0,0,1,77.8,6.391q2.641,0,2.688,3.023V15h-1.9V9.523a1.741,1.741,0,0,0-.348-1.191A1.462,1.462,0,0,0,77.1,7.945a1.829,1.829,0,0,0-1.711,1.039V15h-1.9V6.547ZM86.43,10.375a11.9,11.9,0,0,1,.484-3.426,9.4,9.4,0,0,1,1.422-2.9A5.646,5.646,0,0,1,90.32,2.258L90.7,3.367A5.8,5.8,0,0,0,88.91,5.918a11.424,11.424,0,0,0-.746,3.926l-.008.672a12.42,12.42,0,0,0,.668,4.223A6.224,6.224,0,0,0,90.7,17.563l-.375,1.055a5.655,5.655,0,0,1-1.988-1.8,9.4,9.4,0,0,1-1.422-2.9A12.374,12.374,0,0,1,86.43,10.375Zm7.336-3.828.055.883a3.042,3.042,0,0,1,2.438-1.039,2.337,2.337,0,0,1,2.32,1.3,3,3,0,0,1,2.594-1.3,2.636,2.636,0,0,1,2.082.773,3.405,3.405,0,0,1,.7,2.281V15h-1.9V9.5a1.681,1.681,0,0,0-.352-1.18,1.539,1.539,0,0,0-1.164-.375,1.581,1.581,0,0,0-1.059.348,1.833,1.833,0,0,0-.574.91l.008,5.8h-1.9V9.438a1.354,1.354,0,0,0-1.523-1.492,1.671,1.671,0,0,0-1.617.93V15h-1.9V6.547ZM107.922,15h-1.9V6.547h1.9ZM105.906,4.352a1.008,1.008,0,0,1,.277-.727,1.048,1.048,0,0,1,.793-.289,1.061,1.061,0,0,1,.8.289,1,1,0,0,1,.281.727.977.977,0,0,1-.281.715,1.069,1.069,0,0,1-.8.285,1.056,1.056,0,0,1-.793-.285A.984.984,0,0,1,105.906,4.352ZM112.008,15h-1.9V3h1.9Zm4.086,0h-1.9V3h1.9Zm1.711-4.3a4.984,4.984,0,0,1,.492-2.238,3.6,3.6,0,0,1,1.383-1.531,3.9,3.9,0,0,1,2.047-.535,3.692,3.692,0,0,1,2.777,1.1,4.333,4.333,0,0,1,1.152,2.922l.008.445a5.029,5.029,0,0,1-.48,2.234,3.551,3.551,0,0,1-1.375,1.523,3.925,3.925,0,0,1-2.066.539,3.667,3.667,0,0,1-2.863-1.191,4.563,4.563,0,0,1-1.074-3.176Zm1.9.164a3.406,3.406,0,0,0,.539,2.043,1.752,1.752,0,0,0,1.5.738,1.733,1.733,0,0,0,1.5-.75,3.762,3.762,0,0,0,.535-2.2,3.362,3.362,0,0,0-.551-2.031,1.856,1.856,0,0,0-2.973-.012A3.691,3.691,0,0,0,119.7,10.859Zm9.328-4.312.055.977a3.039,3.039,0,0,1,2.461-1.133q2.641,0,2.688,3.023V15h-1.9V9.523a1.741,1.741,0,0,0-.348-1.191,1.462,1.462,0,0,0-1.137-.387,1.829,1.829,0,0,0-1.711,1.039V15h-1.9V6.547Zm10.859,8.609a3.928,3.928,0,0,1-2.926-1.137,4.124,4.124,0,0,1-1.121-3.027v-.234a5.072,5.072,0,0,1,.488-2.262A3.716,3.716,0,0,1,137.7,6.945a3.625,3.625,0,0,1,1.969-.555,3.318,3.318,0,0,1,2.668,1.1,4.658,4.658,0,0,1,.941,3.117v.766h-5.523a2.539,2.539,0,0,0,.7,1.656,2.1,2.1,0,0,0,1.543.609,2.571,2.571,0,0,0,2.125-1.055l1.023.977a3.418,3.418,0,0,1-1.355,1.176A4.244,4.244,0,0,1,139.891,15.156Zm-.227-7.242a1.6,1.6,0,0,0-1.262.547,2.835,2.835,0,0,0-.613,1.523h3.617V9.844A2.308,2.308,0,0,0,140.9,8.4,1.586,1.586,0,0,0,139.664,7.914Zm9.828,4.789a.861.861,0,0,0-.418-.773,4.445,4.445,0,0,0-1.387-.469,7.129,7.129,0,0,1-1.617-.516,2.158,2.158,0,0,1-1.422-1.992,2.25,2.25,0,0,1,.922-1.828,3.644,3.644,0,0,1,2.344-.734,3.792,3.792,0,0,1,2.449.75,2.38,2.38,0,0,1,.934,1.945h-1.9a1.17,1.17,0,0,0-.406-.91,1.557,1.557,0,0,0-1.078-.363,1.682,1.682,0,0,0-1.02.289.911.911,0,0,0-.395.773.769.769,0,0,0,.367.68,5.049,5.049,0,0,0,1.484.488,7.027,7.027,0,0,1,1.754.586,2.484,2.484,0,0,1,.945.816,2.082,2.082,0,0,1,.309,1.156,2.2,2.2,0,0,1-.945,1.848,4.031,4.031,0,0,1-2.477.707,4.371,4.371,0,0,1-1.852-.375,3.047,3.047,0,0,1-1.266-1.031,2.441,2.441,0,0,1-.453-1.414h1.844a1.338,1.338,0,0,0,.508,1.035,1.973,1.973,0,0,0,1.242.363,1.92,1.92,0,0,0,1.141-.285A.883.883,0,0,0,149.492,12.7Zm7.148-1.992a5.026,5.026,0,0,1,.906-3.137,2.9,2.9,0,0,1,2.43-1.184,2.759,2.759,0,0,1,2.172.938V3h1.9V15h-1.719l-.094-.875a2.8,2.8,0,0,1-2.273,1.031,2.887,2.887,0,0,1-2.4-1.2A5.21,5.21,0,0,1,156.641,10.711Zm1.9.164a3.519,3.519,0,0,0,.5,2.012,1.61,1.61,0,0,0,1.41.723,1.793,1.793,0,0,0,1.7-1.039V8.961a1.766,1.766,0,0,0-1.687-1.016,1.622,1.622,0,0,0-1.422.73A3.919,3.919,0,0,0,158.539,10.875Zm11.211,4.281a3.928,3.928,0,0,1-2.926-1.137,4.124,4.124,0,0,1-1.121-3.027v-.234a5.072,5.072,0,0,1,.488-2.262,3.716,3.716,0,0,1,1.371-1.551,3.625,3.625,0,0,1,1.969-.555,3.318,3.318,0,0,1,2.668,1.1,4.658,4.658,0,0,1,.941,3.117v.766h-5.523a2.539,2.539,0,0,0,.7,1.656,2.1,2.1,0,0,0,1.543.609,2.571,2.571,0,0,0,2.125-1.055l1.023.977a3.418,3.418,0,0,1-1.355,1.176A4.244,4.244,0,0,1,169.75,15.156Zm-.227-7.242a1.6,1.6,0,0,0-1.262.547,2.835,2.835,0,0,0-.613,1.523h3.617V9.844a2.308,2.308,0,0,0-.508-1.441A1.586,1.586,0,0,0,169.523,7.914Zm11.453-3.422V6.547h1.492V7.953h-1.492v4.719a1.039,1.039,0,0,0,.191.7.888.888,0,0,0,.684.215,2.924,2.924,0,0,0,.664-.078v1.469a4.676,4.676,0,0,1-1.25.18q-2.187,0-2.187-2.414V7.953h-1.391V6.547h1.391V4.492Zm2.352,6.2a4.984,4.984,0,0,1,.492-2.238A3.6,3.6,0,0,1,185.2,6.926a3.9,3.9,0,0,1,2.047-.535,3.692,3.692,0,0,1,2.777,1.1,4.333,4.333,0,0,1,1.152,2.922l.008.445a5.029,5.029,0,0,1-.48,2.234,3.551,3.551,0,0,1-1.375,1.523,3.925,3.925,0,0,1-2.066.539,3.667,3.667,0,0,1-2.863-1.191,4.563,4.563,0,0,1-1.074-3.176Zm1.9.164a3.406,3.406,0,0,0,.539,2.043,1.752,1.752,0,0,0,1.5.738,1.733,1.733,0,0,0,1.5-.75,3.762,3.762,0,0,0,.535-2.2,3.362,3.362,0,0,0-.551-2.031,1.856,1.856,0,0,0-2.973-.012A3.691,3.691,0,0,0,185.227,10.859Zm9.328-4.312.055.977a3.039,3.039,0,0,1,2.461-1.133q2.641,0,2.688,3.023V15h-1.9V9.523a1.741,1.741,0,0,0-.348-1.191,1.462,1.462,0,0,0-1.137-.387,1.829,1.829,0,0,0-1.711,1.039V15h-1.9V6.547Zm10.859,8.609a3.928,3.928,0,0,1-2.926-1.137,4.124,4.124,0,0,1-1.121-3.027v-.234a5.072,5.072,0,0,1,.488-2.262,3.716,3.716,0,0,1,1.371-1.551,3.625,3.625,0,0,1,1.969-.555,3.318,3.318,0,0,1,2.668,1.1,4.658,4.658,0,0,1,.941,3.117v.766h-5.523a2.539,2.539,0,0,0,.7,1.656,2.1,2.1,0,0,0,1.543.609,2.571,2.571,0,0,0,2.125-1.055l1.023.977a3.418,3.418,0,0,1-1.355,1.176A4.244,4.244,0,0,1,205.414,15.156Zm-.227-7.242a1.6,1.6,0,0,0-1.262.547,2.835,2.835,0,0,0-.613,1.523h3.617V9.844a2.308,2.308,0,0,0-.508-1.441A1.586,1.586,0,0,0,205.188,7.914ZM212.3,15h-1.9V3h1.9Zm7.117,0a2.93,2.93,0,0,1-.219-.789,3.193,3.193,0,0,1-4.3.219,2.325,2.325,0,0,1-.8-1.8,2.4,2.4,0,0,1,1-2.074,4.865,4.865,0,0,1,2.871-.723h1.164V9.281a1.481,1.481,0,0,0-.367-1.051,1.456,1.456,0,0,0-1.117-.395,1.672,1.672,0,0,0-1.062.324,1,1,0,0,0-.414.824h-1.9a2.107,2.107,0,0,1,.461-1.3,3.071,3.071,0,0,1,1.254-.949,4.4,4.4,0,0,1,1.77-.344,3.547,3.547,0,0,1,2.367.746,2.661,2.661,0,0,1,.906,2.1v3.813a4.321,4.321,0,0,0,.32,1.82V15Zm-2.086-1.367a2.16,2.16,0,0,0,1.059-.273,1.827,1.827,0,0,0,.746-.734V11.031h-1.023a2.8,2.8,0,0,0-1.586.367,1.189,1.189,0,0,0-.531,1.039,1.109,1.109,0,0,0,.363.871A1.407,1.407,0,0,0,217.328,13.633Zm5.336-2.922a5.026,5.026,0,0,1,.906-3.137A2.9,2.9,0,0,1,226,6.391a2.759,2.759,0,0,1,2.172.938V3h1.9V15h-1.719l-.094-.875a2.8,2.8,0,0,1-2.273,1.031,2.887,2.887,0,0,1-2.4-1.2A5.21,5.21,0,0,1,222.664,10.711Zm1.9.164a3.519,3.519,0,0,0,.5,2.012,1.61,1.61,0,0,0,1.41.723,1.793,1.793,0,0,0,1.7-1.039V8.961a1.766,1.766,0,0,0-1.687-1.016,1.622,1.622,0,0,0-1.422.73A3.919,3.919,0,0,0,224.563,10.875ZM237.1,15a2.93,2.93,0,0,1-.219-.789,3.193,3.193,0,0,1-4.3.219,2.325,2.325,0,0,1-.8-1.8,2.4,2.4,0,0,1,1-2.074,4.865,4.865,0,0,1,2.871-.723h1.164V9.281a1.481,1.481,0,0,0-.367-1.051,1.456,1.456,0,0,0-1.117-.395,1.672,1.672,0,0,0-1.062.324,1,1,0,0,0-.414.824h-1.9a2.107,2.107,0,0,1,.461-1.3,3.071,3.071,0,0,1,1.254-.949,4.4,4.4,0,0,1,1.77-.344,3.547,3.547,0,0,1,2.367.746,2.661,2.661,0,0,1,.906,2.1v3.813a4.321,4.321,0,0,0,.32,1.82V15Zm-2.086-1.367a2.16,2.16,0,0,0,1.059-.273,1.827,1.827,0,0,0,.746-.734V11.031H235.8a2.8,2.8,0,0,0-1.586.367,1.189,1.189,0,0,0-.531,1.039,1.109,1.109,0,0,0,.363.871A1.407,1.407,0,0,0,235.016,13.633Zm10.43-.93a.861.861,0,0,0-.418-.773,4.445,4.445,0,0,0-1.387-.469,7.129,7.129,0,0,1-1.617-.516A2.158,2.158,0,0,1,240.6,8.953a2.25,2.25,0,0,1,.922-1.828,3.644,3.644,0,0,1,2.344-.734,3.792,3.792,0,0,1,2.449.75,2.38,2.38,0,0,1,.934,1.945h-1.9a1.17,1.17,0,0,0-.406-.91,1.557,1.557,0,0,0-1.078-.363,1.682,1.682,0,0,0-1.02.289.911.911,0,0,0-.395.773.769.769,0,0,0,.367.68,5.049,5.049,0,0,0,1.484.488,7.027,7.027,0,0,1,1.754.586,2.484,2.484,0,0,1,.945.816,2.082,2.082,0,0,1,.309,1.156,2.2,2.2,0,0,1-.945,1.848,4.031,4.031,0,0,1-2.477.707,4.371,4.371,0,0,1-1.852-.375,3.047,3.047,0,0,1-1.266-1.031,2.441,2.441,0,0,1-.453-1.414h1.844a1.338,1.338,0,0,0,.508,1.035,1.973,1.973,0,0,0,1.242.363,1.92,1.92,0,0,0,1.141-.285A.883.883,0,0,0,245.445,12.7Zm7.18-2.2a11.755,11.755,0,0,1-.477,3.348,9.485,9.485,0,0,1-1.445,2.938,5.66,5.66,0,0,1-2.023,1.832l-.375-1.055a6,6,0,0,0,1.855-2.77,12.3,12.3,0,0,0,.684-4.254v-.18A12.484,12.484,0,0,0,250.25,6.4a6.98,6.98,0,0,0-1.7-2.863L248.3,3.32l.375-1.062a5.6,5.6,0,0,1,1.938,1.719,9.326,9.326,0,0,1,1.438,2.762,11.5,11.5,0,0,1,.563,3.152Z" transform="translate(886 9333)" fill="#12263f"/>
    <path id="Trazado_705038" data-name="Trazado 705038" d="M11.313,15H3.664V13.7L7.453,9.563A9.436,9.436,0,0,0,8.621,8.035,2.475,2.475,0,0,0,8.969,6.8a1.87,1.87,0,0,0-.457-1.312,1.585,1.585,0,0,0-1.23-.5,1.827,1.827,0,0,0-1.43.563,2.212,2.212,0,0,0-.508,1.539h-1.9a3.721,3.721,0,0,1,.473-1.871A3.255,3.255,0,0,1,5.27,3.93,4.3,4.3,0,0,1,7.3,3.469,3.848,3.848,0,0,1,9.91,4.3a2.888,2.888,0,0,1,.957,2.3,3.9,3.9,0,0,1-.48,1.785,10.151,10.151,0,0,1-1.574,2.121L6.031,13.484h5.281Zm8.859-4.789a6.2,6.2,0,0,1-.918,3.7,3.242,3.242,0,0,1-2.793,1.246,3.285,3.285,0,0,1-2.777-1.215,5.94,5.94,0,0,1-.957-3.6V8.375a6.11,6.11,0,0,1,.918-3.68,3.272,3.272,0,0,1,2.8-1.227,3.291,3.291,0,0,1,2.785,1.2,5.924,5.924,0,0,1,.941,3.578Zm-1.9-2.125a4.813,4.813,0,0,0-.437-2.348,1.493,1.493,0,0,0-1.391-.746,1.492,1.492,0,0,0-1.367.707,4.448,4.448,0,0,0-.461,2.207v2.578a4.937,4.937,0,0,0,.445,2.375,1.5,1.5,0,0,0,1.4.781,1.469,1.469,0,0,0,1.352-.723,4.645,4.645,0,0,0,.461-2.262ZM26.992,15H25.1V5.862l-2.789.951V5.219L26.75,3.586h.242Zm6.148-6.555H34.3a2.069,2.069,0,0,0,1.387-.453A1.617,1.617,0,0,0,36.2,6.7a1.762,1.762,0,0,0-.426-1.262,1.714,1.714,0,0,0-1.3-.449,1.813,1.813,0,0,0-1.258.441,1.475,1.475,0,0,0-.492,1.152h-1.9a2.874,2.874,0,0,1,.465-1.594,3.123,3.123,0,0,1,1.3-1.121,4.225,4.225,0,0,1,1.863-.4,3.912,3.912,0,0,1,2.676.855A3,3,0,0,1,38.094,6.7a2.417,2.417,0,0,1-.488,1.441,3.062,3.062,0,0,1-1.262,1.02,2.791,2.791,0,0,1,1.426,1.008,2.759,2.759,0,0,1,.488,1.641,3.055,3.055,0,0,1-1.051,2.438,4.08,4.08,0,0,1-2.762.906,4.049,4.049,0,0,1-2.687-.875,2.882,2.882,0,0,1-1.047-2.328h1.9a1.588,1.588,0,0,0,.5,1.219,1.911,1.911,0,0,0,1.355.469,1.971,1.971,0,0,0,1.391-.469,1.758,1.758,0,0,0,.508-1.359,1.776,1.776,0,0,0-.531-1.383,2.271,2.271,0,0,0-1.578-.484H33.141Z" transform="translate(816 9294)" fill="#12263f"/>
    <path id="Trazado_705039" data-name="Trazado 705039" d="M11.313,15H3.664V13.7L7.453,9.563A9.436,9.436,0,0,0,8.621,8.035,2.475,2.475,0,0,0,8.969,6.8a1.87,1.87,0,0,0-.457-1.312,1.585,1.585,0,0,0-1.23-.5,1.827,1.827,0,0,0-1.43.563,2.212,2.212,0,0,0-.508,1.539h-1.9a3.721,3.721,0,0,1,.473-1.871A3.255,3.255,0,0,1,5.27,3.93,4.3,4.3,0,0,1,7.3,3.469,3.848,3.848,0,0,1,9.91,4.3a2.888,2.888,0,0,1,.957,2.3,3.9,3.9,0,0,1-.48,1.785,10.151,10.151,0,0,1-1.574,2.121L6.031,13.484h5.281Zm8.859-4.789a6.2,6.2,0,0,1-.918,3.7,3.242,3.242,0,0,1-2.793,1.246,3.285,3.285,0,0,1-2.777-1.215,5.94,5.94,0,0,1-.957-3.6V8.375a6.11,6.11,0,0,1,.918-3.68,3.272,3.272,0,0,1,2.8-1.227,3.291,3.291,0,0,1,2.785,1.2,5.924,5.924,0,0,1,.941,3.578Zm-1.9-2.125a4.813,4.813,0,0,0-.437-2.348,1.493,1.493,0,0,0-1.391-.746,1.492,1.492,0,0,0-1.367.707,4.448,4.448,0,0,0-.461,2.207v2.578a4.937,4.937,0,0,0,.445,2.375,1.5,1.5,0,0,0,1.4.781,1.469,1.469,0,0,0,1.352-.723,4.645,4.645,0,0,0,.461-2.262ZM26.992,15H25.1V5.862l-2.789.951V5.219L26.75,3.586h.242Zm10.375-4.055h1.414v1.523H37.367V15h-1.9V12.469H30.555L30.5,11.313l4.906-7.687h1.961Zm-4.875,0h2.977V6.2l-.141.25Z" transform="translate(892 9294)" fill="#12263f"/>
    <path id="Trazado_705040" data-name="Trazado 705040" d="M11.313,15H3.664V13.7L7.453,9.563A9.436,9.436,0,0,0,8.621,8.035,2.475,2.475,0,0,0,8.969,6.8a1.87,1.87,0,0,0-.457-1.312,1.585,1.585,0,0,0-1.23-.5,1.827,1.827,0,0,0-1.43.563,2.212,2.212,0,0,0-.508,1.539h-1.9a3.721,3.721,0,0,1,.473-1.871A3.255,3.255,0,0,1,5.27,3.93,4.3,4.3,0,0,1,7.3,3.469,3.848,3.848,0,0,1,9.91,4.3a2.888,2.888,0,0,1,.957,2.3,3.9,3.9,0,0,1-.48,1.785,10.151,10.151,0,0,1-1.574,2.121L6.031,13.484h5.281Zm8.859-4.789a6.2,6.2,0,0,1-.918,3.7,3.242,3.242,0,0,1-2.793,1.246,3.285,3.285,0,0,1-2.777-1.215,5.94,5.94,0,0,1-.957-3.6V8.375a6.11,6.11,0,0,1,.918-3.68,3.272,3.272,0,0,1,2.8-1.227,3.291,3.291,0,0,1,2.785,1.2,5.924,5.924,0,0,1,.941,3.578Zm-1.9-2.125a4.813,4.813,0,0,0-.437-2.348,1.493,1.493,0,0,0-1.391-.746,1.492,1.492,0,0,0-1.367.707,4.448,4.448,0,0,0-.461,2.207v2.578a4.937,4.937,0,0,0,.445,2.375,1.5,1.5,0,0,0,1.4.781,1.469,1.469,0,0,0,1.352-.723,4.645,4.645,0,0,0,.461-2.262ZM26.992,15H25.1V5.862l-2.789.951V5.219L26.75,3.586h.242Zm4.461-5.641.617-5.734H38.18V5.266H33.648l-.312,2.719a3.512,3.512,0,0,1,1.781-.453A3.169,3.169,0,0,1,37.645,8.57a4.118,4.118,0,0,1,.9,2.8,3.79,3.79,0,0,1-1,2.762A3.65,3.65,0,0,1,34.8,15.156a3.822,3.822,0,0,1-2.59-.887A3.206,3.206,0,0,1,31.1,11.93h1.836a2,2,0,0,0,.594,1.27,1.806,1.806,0,0,0,1.266.441,1.632,1.632,0,0,0,1.363-.625,2.7,2.7,0,0,0,.488-1.7,2.384,2.384,0,0,0-.539-1.645,1.885,1.885,0,0,0-1.484-.605,2.074,2.074,0,0,0-1.656.672Z" transform="translate(972 9294)" fill="#12263f"/>
    <path id="Trazado_705041" data-name="Trazado 705041" d="M11.313,15H3.664V13.7L7.453,9.563A9.436,9.436,0,0,0,8.621,8.035,2.475,2.475,0,0,0,8.969,6.8a1.87,1.87,0,0,0-.457-1.312,1.585,1.585,0,0,0-1.23-.5,1.827,1.827,0,0,0-1.43.563,2.212,2.212,0,0,0-.508,1.539h-1.9a3.721,3.721,0,0,1,.473-1.871A3.255,3.255,0,0,1,5.27,3.93,4.3,4.3,0,0,1,7.3,3.469,3.848,3.848,0,0,1,9.91,4.3a2.888,2.888,0,0,1,.957,2.3,3.9,3.9,0,0,1-.48,1.785,10.151,10.151,0,0,1-1.574,2.121L6.031,13.484h5.281Zm8.859-4.789a6.2,6.2,0,0,1-.918,3.7,3.242,3.242,0,0,1-2.793,1.246,3.285,3.285,0,0,1-2.777-1.215,5.94,5.94,0,0,1-.957-3.6V8.375a6.11,6.11,0,0,1,.918-3.68,3.272,3.272,0,0,1,2.8-1.227,3.291,3.291,0,0,1,2.785,1.2,5.924,5.924,0,0,1,.941,3.578Zm-1.9-2.125a4.813,4.813,0,0,0-.437-2.348,1.493,1.493,0,0,0-1.391-.746,1.492,1.492,0,0,0-1.367.707,4.448,4.448,0,0,0-.461,2.207v2.578a4.937,4.937,0,0,0,.445,2.375,1.5,1.5,0,0,0,1.4.781,1.469,1.469,0,0,0,1.352-.723,4.645,4.645,0,0,0,.461-2.262ZM26.992,15H25.1V5.862l-2.789.951V5.219L26.75,3.586h.242ZM36.852,3.57v1.57h-.234a3.768,3.768,0,0,0-2.547.875A3.661,3.661,0,0,0,32.938,8.43a3.083,3.083,0,0,1,2.336-.961,2.912,2.912,0,0,1,2.379,1.063,4.185,4.185,0,0,1,.871,2.742,3.912,3.912,0,0,1-1.02,2.809,3.519,3.519,0,0,1-2.676,1.074A3.438,3.438,0,0,1,32.066,13.9a4.948,4.948,0,0,1-1.059-3.3V9.953a6.962,6.962,0,0,1,1.457-4.687,5.224,5.224,0,0,1,4.191-1.7ZM34.813,9a2,2,0,0,0-1.145.352,2.055,2.055,0,0,0-.762.938v.578a3.405,3.405,0,0,0,.531,2.012,1.62,1.62,0,0,0,1.375.746,1.6,1.6,0,0,0,1.336-.633,2.635,2.635,0,0,0,.492-1.664,2.673,2.673,0,0,0-.5-1.68A1.594,1.594,0,0,0,34.813,9Z" transform="translate(1050 9294)" fill="#12263f"/>
    <path id="Trazado_705042" data-name="Trazado 705042" d="M11.313,15H3.664V13.7L7.453,9.563A9.436,9.436,0,0,0,8.621,8.035,2.475,2.475,0,0,0,8.969,6.8a1.87,1.87,0,0,0-.457-1.312,1.585,1.585,0,0,0-1.23-.5,1.827,1.827,0,0,0-1.43.563,2.212,2.212,0,0,0-.508,1.539h-1.9a3.721,3.721,0,0,1,.473-1.871A3.255,3.255,0,0,1,5.27,3.93,4.3,4.3,0,0,1,7.3,3.469,3.848,3.848,0,0,1,9.91,4.3a2.888,2.888,0,0,1,.957,2.3,3.9,3.9,0,0,1-.48,1.785,10.151,10.151,0,0,1-1.574,2.121L6.031,13.484h5.281Zm8.859-4.789a6.2,6.2,0,0,1-.918,3.7,3.242,3.242,0,0,1-2.793,1.246,3.285,3.285,0,0,1-2.777-1.215,5.94,5.94,0,0,1-.957-3.6V8.375a6.11,6.11,0,0,1,.918-3.68,3.272,3.272,0,0,1,2.8-1.227,3.291,3.291,0,0,1,2.785,1.2,5.924,5.924,0,0,1,.941,3.578Zm-1.9-2.125a4.813,4.813,0,0,0-.437-2.348,1.493,1.493,0,0,0-1.391-.746,1.492,1.492,0,0,0-1.367.707,4.448,4.448,0,0,0-.461,2.207v2.578a4.937,4.937,0,0,0,.445,2.375,1.5,1.5,0,0,0,1.4.781,1.469,1.469,0,0,0,1.352-.723,4.645,4.645,0,0,0,.461-2.262ZM26.992,15H25.1V5.862l-2.789.951V5.219L26.75,3.586h.242ZM38.516,4.68,33.969,15H31.977l4.539-9.852H30.633V3.625h7.883Z" transform="translate(1127 9294)" fill="#12263f"/>
    <path id="Trazado_705043" data-name="Trazado 705043" d="M11.313,15H3.664V13.7L7.453,9.563A9.436,9.436,0,0,0,8.621,8.035,2.475,2.475,0,0,0,8.969,6.8a1.87,1.87,0,0,0-.457-1.312,1.585,1.585,0,0,0-1.23-.5,1.827,1.827,0,0,0-1.43.563,2.212,2.212,0,0,0-.508,1.539h-1.9a3.721,3.721,0,0,1,.473-1.871A3.255,3.255,0,0,1,5.27,3.93,4.3,4.3,0,0,1,7.3,3.469,3.848,3.848,0,0,1,9.91,4.3a2.888,2.888,0,0,1,.957,2.3,3.9,3.9,0,0,1-.48,1.785,10.151,10.151,0,0,1-1.574,2.121L6.031,13.484h5.281Zm8.859-4.789a6.2,6.2,0,0,1-.918,3.7,3.242,3.242,0,0,1-2.793,1.246,3.285,3.285,0,0,1-2.777-1.215,5.94,5.94,0,0,1-.957-3.6V8.375a6.11,6.11,0,0,1,.918-3.68,3.272,3.272,0,0,1,2.8-1.227,3.291,3.291,0,0,1,2.785,1.2,5.924,5.924,0,0,1,.941,3.578Zm-1.9-2.125a4.813,4.813,0,0,0-.437-2.348,1.493,1.493,0,0,0-1.391-.746,1.492,1.492,0,0,0-1.367.707,4.448,4.448,0,0,0-.461,2.207v2.578a4.937,4.937,0,0,0,.445,2.375,1.5,1.5,0,0,0,1.4.781,1.469,1.469,0,0,0,1.352-.723,4.645,4.645,0,0,0,.461-2.262ZM26.992,15H25.1V5.862l-2.789.951V5.219L26.75,3.586h.242ZM38.109,6.625a2.644,2.644,0,0,1-.43,1.488,2.98,2.98,0,0,1-1.172,1.027,3.246,3.246,0,0,1,1.371,1.133,2.858,2.858,0,0,1,.48,1.625,2.984,2.984,0,0,1-1.016,2.379,3.986,3.986,0,0,1-2.7.879,4,4,0,0,1-2.715-.883,2.982,2.982,0,0,1-1.02-2.375,2.891,2.891,0,0,1,.484-1.641A3.112,3.112,0,0,1,32.75,9.141a2.964,2.964,0,0,1-1.16-1.027,2.662,2.662,0,0,1-.426-1.488,2.959,2.959,0,0,1,.938-2.3,3.622,3.622,0,0,1,2.531-.852,3.633,3.633,0,0,1,2.539.852A2.959,2.959,0,0,1,38.109,6.625ZM36.461,11.8a1.875,1.875,0,0,0-.5-1.363,1.771,1.771,0,0,0-1.332-.52,1.752,1.752,0,0,0-1.324.516,1.889,1.889,0,0,0-.5,1.367,1.83,1.83,0,0,0,.488,1.336,2.081,2.081,0,0,0,2.688.016A1.836,1.836,0,0,0,36.461,11.8ZM36.219,6.7a1.765,1.765,0,0,0-.43-1.223,1.651,1.651,0,0,0-2.3-.023A1.766,1.766,0,0,0,33.063,6.7a1.759,1.759,0,0,0,.426,1.242,1.671,1.671,0,0,0,2.3,0A1.759,1.759,0,0,0,36.219,6.7Z" transform="translate(1204 9294)" fill="#12263f"/>
    <path id="Trazado_705044" data-name="Trazado 705044" d="M11.313,15H3.664V13.7L7.453,9.563A9.436,9.436,0,0,0,8.621,8.035,2.475,2.475,0,0,0,8.969,6.8a1.87,1.87,0,0,0-.457-1.312,1.585,1.585,0,0,0-1.23-.5,1.827,1.827,0,0,0-1.43.563,2.212,2.212,0,0,0-.508,1.539h-1.9a3.721,3.721,0,0,1,.473-1.871A3.255,3.255,0,0,1,5.27,3.93,4.3,4.3,0,0,1,7.3,3.469,3.848,3.848,0,0,1,9.91,4.3a2.888,2.888,0,0,1,.957,2.3,3.9,3.9,0,0,1-.48,1.785,10.151,10.151,0,0,1-1.574,2.121L6.031,13.484h5.281Zm8.859-4.789a6.2,6.2,0,0,1-.918,3.7,3.242,3.242,0,0,1-2.793,1.246,3.285,3.285,0,0,1-2.777-1.215,5.94,5.94,0,0,1-.957-3.6V8.375a6.11,6.11,0,0,1,.918-3.68,3.272,3.272,0,0,1,2.8-1.227,3.291,3.291,0,0,1,2.785,1.2,5.924,5.924,0,0,1,.941,3.578Zm-1.9-2.125a4.813,4.813,0,0,0-.437-2.348,1.493,1.493,0,0,0-1.391-.746,1.492,1.492,0,0,0-1.367.707,4.448,4.448,0,0,0-.461,2.207v2.578a4.937,4.937,0,0,0,.445,2.375,1.5,1.5,0,0,0,1.4.781,1.469,1.469,0,0,0,1.352-.723,4.645,4.645,0,0,0,.461-2.262ZM26.992,15H25.1V5.862l-2.789.951V5.219L26.75,3.586h.242Zm9.336-4.758a3.1,3.1,0,0,1-4.617-.043,4.126,4.126,0,0,1-.891-2.762A4.528,4.528,0,0,1,31.273,5.4a3.379,3.379,0,0,1,1.289-1.422A3.657,3.657,0,0,1,34.5,3.469,3.286,3.286,0,0,1,37.227,4.75a5.4,5.4,0,0,1,1.008,3.43v.531a7.009,7.009,0,0,1-1.391,4.7A5.235,5.235,0,0,1,32.7,15.047h-.227v-1.57h.273a3.887,3.887,0,0,0,2.578-.809A3.371,3.371,0,0,0,36.328,10.242ZM34.5,9.766a1.916,1.916,0,0,0,1.07-.328,2.162,2.162,0,0,0,.773-.906V7.789a3.564,3.564,0,0,0-.516-2.023A1.553,1.553,0,0,0,34.492,5a1.535,1.535,0,0,0-1.309.676A2.841,2.841,0,0,0,32.7,7.383a2.806,2.806,0,0,0,.492,1.727A1.559,1.559,0,0,0,34.5,9.766Z" transform="translate(1283 9294)" fill="#12263f"/>
    <path id="Trazado_705045" data-name="Trazado 705045" d="M11.313,15H3.664V13.7L7.453,9.563A9.436,9.436,0,0,0,8.621,8.035,2.475,2.475,0,0,0,8.969,6.8a1.87,1.87,0,0,0-.457-1.312,1.585,1.585,0,0,0-1.23-.5,1.827,1.827,0,0,0-1.43.563,2.212,2.212,0,0,0-.508,1.539h-1.9a3.721,3.721,0,0,1,.473-1.871A3.255,3.255,0,0,1,5.27,3.93,4.3,4.3,0,0,1,7.3,3.469,3.848,3.848,0,0,1,9.91,4.3a2.888,2.888,0,0,1,.957,2.3,3.9,3.9,0,0,1-.48,1.785,10.151,10.151,0,0,1-1.574,2.121L6.031,13.484h5.281Zm8.859-4.789a6.2,6.2,0,0,1-.918,3.7,3.242,3.242,0,0,1-2.793,1.246,3.285,3.285,0,0,1-2.777-1.215,5.94,5.94,0,0,1-.957-3.6V8.375a6.11,6.11,0,0,1,.918-3.68,3.272,3.272,0,0,1,2.8-1.227,3.291,3.291,0,0,1,2.785,1.2,5.924,5.924,0,0,1,.941,3.578Zm-1.9-2.125a4.813,4.813,0,0,0-.437-2.348,1.493,1.493,0,0,0-1.391-.746,1.492,1.492,0,0,0-1.367.707,4.448,4.448,0,0,0-.461,2.207v2.578a4.937,4.937,0,0,0,.445,2.375,1.5,1.5,0,0,0,1.4.781,1.469,1.469,0,0,0,1.352-.723,4.645,4.645,0,0,0,.461-2.262ZM29.5,15H21.852V13.7l3.789-4.133a9.436,9.436,0,0,0,1.168-1.527,2.475,2.475,0,0,0,.348-1.23A1.87,1.87,0,0,0,26.7,5.492a1.585,1.585,0,0,0-1.23-.5,1.827,1.827,0,0,0-1.43.563,2.212,2.212,0,0,0-.508,1.539h-1.9a3.721,3.721,0,0,1,.473-1.871A3.255,3.255,0,0,1,23.457,3.93a4.3,4.3,0,0,1,2.027-.461A3.848,3.848,0,0,1,28.1,4.3a2.888,2.888,0,0,1,.957,2.3,3.9,3.9,0,0,1-.48,1.785A10.151,10.151,0,0,1,27,10.508l-2.781,2.977H29.5Zm8.859-4.789a6.2,6.2,0,0,1-.918,3.7,3.242,3.242,0,0,1-2.793,1.246,3.285,3.285,0,0,1-2.777-1.215,5.94,5.94,0,0,1-.957-3.6V8.375a6.11,6.11,0,0,1,.918-3.68,3.272,3.272,0,0,1,2.8-1.227,3.291,3.291,0,0,1,2.785,1.2,5.923,5.923,0,0,1,.941,3.578Zm-1.9-2.125a4.813,4.813,0,0,0-.437-2.348A1.672,1.672,0,0,0,33.266,5.7,4.448,4.448,0,0,0,32.8,7.906v2.578a4.937,4.937,0,0,0,.445,2.375,1.5,1.5,0,0,0,1.4.781A1.469,1.469,0,0,0,36,12.918a4.645,4.645,0,0,0,.461-2.262Z" transform="translate(1360 9294)" fill="#12263f"/>
    <path id="Trazado_705046" data-name="Trazado 705046" d="M83.172,10.211a6.2,6.2,0,0,1-.918,3.7,3.242,3.242,0,0,1-2.793,1.246,3.285,3.285,0,0,1-2.777-1.215,5.94,5.94,0,0,1-.957-3.6V8.375a6.11,6.11,0,0,1,.918-3.68,3.827,3.827,0,0,1,5.586-.031,5.924,5.924,0,0,1,.941,3.578Zm-1.9-2.125a4.813,4.813,0,0,0-.437-2.348A1.672,1.672,0,0,0,78.078,5.7a4.448,4.448,0,0,0-.461,2.207v2.578a4.937,4.937,0,0,0,.445,2.375,1.5,1.5,0,0,0,1.4.781,1.469,1.469,0,0,0,1.352-.723,4.645,4.645,0,0,0,.461-2.262Z" transform="translate(607 9274)" fill="#12263f"/>
    <path id="Trazado_705047" data-name="Trazado 705047" d="M10.813,15H3.164V13.7L6.953,9.563A9.436,9.436,0,0,0,8.121,8.035,2.475,2.475,0,0,0,8.469,6.8a1.87,1.87,0,0,0-.457-1.312,1.585,1.585,0,0,0-1.23-.5,1.827,1.827,0,0,0-1.43.563,2.212,2.212,0,0,0-.508,1.539h-1.9a3.721,3.721,0,0,1,.473-1.871A3.255,3.255,0,0,1,4.77,3.93,4.3,4.3,0,0,1,6.8,3.469,3.848,3.848,0,0,1,9.41,4.3a2.888,2.888,0,0,1,.957,2.3,3.9,3.9,0,0,1-.48,1.785,10.151,10.151,0,0,1-1.574,2.121L5.531,13.484h5.281Zm8.859-4.789a6.2,6.2,0,0,1-.918,3.7,3.242,3.242,0,0,1-2.793,1.246,3.285,3.285,0,0,1-2.777-1.215,5.94,5.94,0,0,1-.957-3.6V8.375a6.11,6.11,0,0,1,.918-3.68,3.272,3.272,0,0,1,2.8-1.227,3.291,3.291,0,0,1,2.785,1.2,5.924,5.924,0,0,1,.941,3.578Zm-1.9-2.125a4.813,4.813,0,0,0-.437-2.348,1.493,1.493,0,0,0-1.391-.746,1.492,1.492,0,0,0-1.367.707,4.448,4.448,0,0,0-.461,2.207v2.578a4.937,4.937,0,0,0,.445,2.375,1.5,1.5,0,0,0,1.4.781,1.469,1.469,0,0,0,1.352-.723,4.645,4.645,0,0,0,.461-2.262ZM22.656,13a1.084,1.084,0,0,1,.82.3,1.045,1.045,0,0,1,.289.754,1.008,1.008,0,0,1-.289.738,1.28,1.28,0,0,1-1.625,0,.991.991,0,0,1-.3-.742,1.045,1.045,0,0,1,.289-.754A1.074,1.074,0,0,1,22.656,13Zm10.578-2.789a6.2,6.2,0,0,1-.918,3.7,3.242,3.242,0,0,1-2.793,1.246,3.285,3.285,0,0,1-2.777-1.215,5.94,5.94,0,0,1-.957-3.6V8.375a6.11,6.11,0,0,1,.918-3.68,3.272,3.272,0,0,1,2.8-1.227,3.291,3.291,0,0,1,2.785,1.2,5.923,5.923,0,0,1,.941,3.578Zm-1.9-2.125A4.813,4.813,0,0,0,30.9,5.738,1.672,1.672,0,0,0,28.141,5.7a4.448,4.448,0,0,0-.461,2.207v2.578a4.937,4.937,0,0,0,.445,2.375,1.5,1.5,0,0,0,1.4.781,1.469,1.469,0,0,0,1.352-.723,4.645,4.645,0,0,0,.461-2.262Zm10.992,2.125a6.2,6.2,0,0,1-.918,3.7,3.242,3.242,0,0,1-2.793,1.246,3.285,3.285,0,0,1-2.777-1.215,5.94,5.94,0,0,1-.957-3.6V8.375A6.11,6.11,0,0,1,35.8,4.7a3.272,3.272,0,0,1,2.8-1.227,3.291,3.291,0,0,1,2.785,1.2,5.923,5.923,0,0,1,.941,3.578Zm-1.9-2.125a4.813,4.813,0,0,0-.437-2.348A1.672,1.672,0,0,0,37.234,5.7a4.448,4.448,0,0,0-.461,2.207v2.578a4.937,4.937,0,0,0,.445,2.375,1.5,1.5,0,0,0,1.4.781,1.469,1.469,0,0,0,1.352-.723,4.645,4.645,0,0,0,.461-2.262Zm10.992,2.125a6.2,6.2,0,0,1-.918,3.7,3.242,3.242,0,0,1-2.793,1.246,3.285,3.285,0,0,1-2.777-1.215,5.94,5.94,0,0,1-.957-3.6V8.375a6.11,6.11,0,0,1,.918-3.68,3.272,3.272,0,0,1,2.8-1.227,3.291,3.291,0,0,1,2.785,1.2,5.923,5.923,0,0,1,.941,3.578Zm-1.9-2.125a4.813,4.813,0,0,0-.437-2.348A1.672,1.672,0,0,0,46.328,5.7a4.448,4.448,0,0,0-.461,2.207v2.578a4.937,4.937,0,0,0,.445,2.375,1.5,1.5,0,0,0,1.4.781,1.469,1.469,0,0,0,1.352-.723,4.645,4.645,0,0,0,.461-2.262ZM54.406,13a1.084,1.084,0,0,1,.82.3,1.045,1.045,0,0,1,.289.754,1.008,1.008,0,0,1-.289.738,1.28,1.28,0,0,1-1.625,0,.991.991,0,0,1-.3-.742,1.045,1.045,0,0,1,.289-.754A1.074,1.074,0,0,1,54.406,13Zm10.578-2.789a6.2,6.2,0,0,1-.918,3.7,3.242,3.242,0,0,1-2.793,1.246A3.285,3.285,0,0,1,58.5,13.941a5.94,5.94,0,0,1-.957-3.6V8.375a6.11,6.11,0,0,1,.918-3.68,3.827,3.827,0,0,1,5.586-.031,5.924,5.924,0,0,1,.941,3.578Zm-1.9-2.125a4.813,4.813,0,0,0-.437-2.348A1.672,1.672,0,0,0,59.891,5.7a4.448,4.448,0,0,0-.461,2.207v2.578a4.937,4.937,0,0,0,.445,2.375,1.5,1.5,0,0,0,1.4.781,1.469,1.469,0,0,0,1.352-.723,4.645,4.645,0,0,0,.461-2.262Zm10.992,2.125a6.2,6.2,0,0,1-.918,3.7,3.242,3.242,0,0,1-2.793,1.246,3.285,3.285,0,0,1-2.777-1.215,5.94,5.94,0,0,1-.957-3.6V8.375a6.11,6.11,0,0,1,.918-3.68,3.827,3.827,0,0,1,5.586-.031,5.924,5.924,0,0,1,.941,3.578Zm-1.9-2.125a4.813,4.813,0,0,0-.437-2.348A1.672,1.672,0,0,0,68.984,5.7a4.448,4.448,0,0,0-.461,2.207v2.578a4.937,4.937,0,0,0,.445,2.375,1.5,1.5,0,0,0,1.4.781,1.469,1.469,0,0,0,1.352-.723,4.645,4.645,0,0,0,.461-2.262Zm10.992,2.125a6.2,6.2,0,0,1-.918,3.7,3.242,3.242,0,0,1-2.793,1.246,3.285,3.285,0,0,1-2.777-1.215,5.94,5.94,0,0,1-.957-3.6V8.375a6.11,6.11,0,0,1,.918-3.68,3.827,3.827,0,0,1,5.586-.031,5.924,5.924,0,0,1,.941,3.578Zm-1.9-2.125a4.813,4.813,0,0,0-.437-2.348A1.672,1.672,0,0,0,78.078,5.7a4.448,4.448,0,0,0-.461,2.207v2.578a4.937,4.937,0,0,0,.445,2.375,1.5,1.5,0,0,0,1.4.781,1.469,1.469,0,0,0,1.352-.723,4.645,4.645,0,0,0,.461-2.262Z" transform="translate(607 9198)" fill="#12263f"/>
    <path id="Trazado_705048" data-name="Trazado 705048" d="M5.359,8.445H6.516A2.069,2.069,0,0,0,7.9,7.992,1.617,1.617,0,0,0,8.414,6.7a1.762,1.762,0,0,0-.426-1.262,1.714,1.714,0,0,0-1.3-.449,1.813,1.813,0,0,0-1.258.441,1.475,1.475,0,0,0-.492,1.152h-1.9A2.874,2.874,0,0,1,3.5,4.992,3.123,3.123,0,0,1,4.8,3.871a4.225,4.225,0,0,1,1.863-.4,3.912,3.912,0,0,1,2.676.855A3,3,0,0,1,10.313,6.7a2.417,2.417,0,0,1-.488,1.441,3.062,3.062,0,0,1-1.262,1.02,2.791,2.791,0,0,1,1.426,1.008,2.759,2.759,0,0,1,.488,1.641A3.055,3.055,0,0,1,9.426,14.25a4.08,4.08,0,0,1-2.762.906,4.049,4.049,0,0,1-2.687-.875A2.882,2.882,0,0,1,2.93,11.953h1.9a1.588,1.588,0,0,0,.5,1.219,1.911,1.911,0,0,0,1.355.469,1.971,1.971,0,0,0,1.391-.469,1.758,1.758,0,0,0,.508-1.359,1.776,1.776,0,0,0-.531-1.383,2.271,2.271,0,0,0-1.578-.484H5.359Zm14.313,1.766a6.2,6.2,0,0,1-.918,3.7,3.242,3.242,0,0,1-2.793,1.246,3.285,3.285,0,0,1-2.777-1.215,5.94,5.94,0,0,1-.957-3.6V8.375a6.11,6.11,0,0,1,.918-3.68,3.272,3.272,0,0,1,2.8-1.227,3.291,3.291,0,0,1,2.785,1.2,5.924,5.924,0,0,1,.941,3.578Zm-1.9-2.125a4.813,4.813,0,0,0-.437-2.348,1.493,1.493,0,0,0-1.391-.746,1.492,1.492,0,0,0-1.367.707,4.448,4.448,0,0,0-.461,2.207v2.578a4.937,4.937,0,0,0,.445,2.375,1.5,1.5,0,0,0,1.4.781,1.469,1.469,0,0,0,1.352-.723,4.645,4.645,0,0,0,.461-2.262ZM22.656,13a1.084,1.084,0,0,1,.82.3,1.045,1.045,0,0,1,.289.754,1.008,1.008,0,0,1-.289.738,1.28,1.28,0,0,1-1.625,0,.991.991,0,0,1-.3-.742,1.045,1.045,0,0,1,.289-.754A1.074,1.074,0,0,1,22.656,13Zm10.578-2.789a6.2,6.2,0,0,1-.918,3.7,3.242,3.242,0,0,1-2.793,1.246,3.285,3.285,0,0,1-2.777-1.215,5.94,5.94,0,0,1-.957-3.6V8.375a6.11,6.11,0,0,1,.918-3.68,3.272,3.272,0,0,1,2.8-1.227,3.291,3.291,0,0,1,2.785,1.2,5.923,5.923,0,0,1,.941,3.578Zm-1.9-2.125A4.813,4.813,0,0,0,30.9,5.738,1.672,1.672,0,0,0,28.141,5.7a4.448,4.448,0,0,0-.461,2.207v2.578a4.937,4.937,0,0,0,.445,2.375,1.5,1.5,0,0,0,1.4.781,1.469,1.469,0,0,0,1.352-.723,4.645,4.645,0,0,0,.461-2.262Zm10.992,2.125a6.2,6.2,0,0,1-.918,3.7,3.242,3.242,0,0,1-2.793,1.246,3.285,3.285,0,0,1-2.777-1.215,5.94,5.94,0,0,1-.957-3.6V8.375A6.11,6.11,0,0,1,35.8,4.7a3.272,3.272,0,0,1,2.8-1.227,3.291,3.291,0,0,1,2.785,1.2,5.923,5.923,0,0,1,.941,3.578Zm-1.9-2.125a4.813,4.813,0,0,0-.437-2.348A1.672,1.672,0,0,0,37.234,5.7a4.448,4.448,0,0,0-.461,2.207v2.578a4.937,4.937,0,0,0,.445,2.375,1.5,1.5,0,0,0,1.4.781,1.469,1.469,0,0,0,1.352-.723,4.645,4.645,0,0,0,.461-2.262Zm10.992,2.125a6.2,6.2,0,0,1-.918,3.7,3.242,3.242,0,0,1-2.793,1.246,3.285,3.285,0,0,1-2.777-1.215,5.94,5.94,0,0,1-.957-3.6V8.375a6.11,6.11,0,0,1,.918-3.68,3.272,3.272,0,0,1,2.8-1.227,3.291,3.291,0,0,1,2.785,1.2,5.923,5.923,0,0,1,.941,3.578Zm-1.9-2.125a4.813,4.813,0,0,0-.437-2.348A1.672,1.672,0,0,0,46.328,5.7a4.448,4.448,0,0,0-.461,2.207v2.578a4.937,4.937,0,0,0,.445,2.375,1.5,1.5,0,0,0,1.4.781,1.469,1.469,0,0,0,1.352-.723,4.645,4.645,0,0,0,.461-2.262ZM54.406,13a1.084,1.084,0,0,1,.82.3,1.045,1.045,0,0,1,.289.754,1.008,1.008,0,0,1-.289.738,1.28,1.28,0,0,1-1.625,0,.991.991,0,0,1-.3-.742,1.045,1.045,0,0,1,.289-.754A1.074,1.074,0,0,1,54.406,13Zm10.578-2.789a6.2,6.2,0,0,1-.918,3.7,3.242,3.242,0,0,1-2.793,1.246A3.285,3.285,0,0,1,58.5,13.941a5.94,5.94,0,0,1-.957-3.6V8.375a6.11,6.11,0,0,1,.918-3.68,3.827,3.827,0,0,1,5.586-.031,5.924,5.924,0,0,1,.941,3.578Zm-1.9-2.125a4.813,4.813,0,0,0-.437-2.348A1.672,1.672,0,0,0,59.891,5.7a4.448,4.448,0,0,0-.461,2.207v2.578a4.937,4.937,0,0,0,.445,2.375,1.5,1.5,0,0,0,1.4.781,1.469,1.469,0,0,0,1.352-.723,4.645,4.645,0,0,0,.461-2.262Zm10.992,2.125a6.2,6.2,0,0,1-.918,3.7,3.242,3.242,0,0,1-2.793,1.246,3.285,3.285,0,0,1-2.777-1.215,5.94,5.94,0,0,1-.957-3.6V8.375a6.11,6.11,0,0,1,.918-3.68,3.827,3.827,0,0,1,5.586-.031,5.924,5.924,0,0,1,.941,3.578Zm-1.9-2.125a4.813,4.813,0,0,0-.437-2.348A1.672,1.672,0,0,0,68.984,5.7a4.448,4.448,0,0,0-.461,2.207v2.578a4.937,4.937,0,0,0,.445,2.375,1.5,1.5,0,0,0,1.4.781,1.469,1.469,0,0,0,1.352-.723,4.645,4.645,0,0,0,.461-2.262Zm10.992,2.125a6.2,6.2,0,0,1-.918,3.7,3.242,3.242,0,0,1-2.793,1.246,3.285,3.285,0,0,1-2.777-1.215,5.94,5.94,0,0,1-.957-3.6V8.375a6.11,6.11,0,0,1,.918-3.68,3.827,3.827,0,0,1,5.586-.031,5.924,5.924,0,0,1,.941,3.578Zm-1.9-2.125a4.813,4.813,0,0,0-.437-2.348A1.672,1.672,0,0,0,78.078,5.7a4.448,4.448,0,0,0-.461,2.207v2.578a4.937,4.937,0,0,0,.445,2.375,1.5,1.5,0,0,0,1.4.781,1.469,1.469,0,0,0,1.352-.723,4.645,4.645,0,0,0,.461-2.262Z" transform="translate(607 9163)" fill="#12263f"/>
    <path id="Trazado_705049" data-name="Trazado 705049" d="M9.586,10.945H11v1.523H9.586V15h-1.9V12.469H2.773l-.055-1.156L7.625,3.625H9.586Zm-4.875,0H7.688V6.2l-.141.25Zm14.961-.734a6.2,6.2,0,0,1-.918,3.7,3.242,3.242,0,0,1-2.793,1.246,3.285,3.285,0,0,1-2.777-1.215,5.94,5.94,0,0,1-.957-3.6V8.375a6.11,6.11,0,0,1,.918-3.68,3.272,3.272,0,0,1,2.8-1.227,3.291,3.291,0,0,1,2.785,1.2,5.924,5.924,0,0,1,.941,3.578Zm-1.9-2.125a4.813,4.813,0,0,0-.437-2.348,1.493,1.493,0,0,0-1.391-.746,1.492,1.492,0,0,0-1.367.707,4.448,4.448,0,0,0-.461,2.207v2.578a4.937,4.937,0,0,0,.445,2.375,1.5,1.5,0,0,0,1.4.781,1.469,1.469,0,0,0,1.352-.723,4.645,4.645,0,0,0,.461-2.262ZM22.656,13a1.084,1.084,0,0,1,.82.3,1.045,1.045,0,0,1,.289.754,1.008,1.008,0,0,1-.289.738,1.28,1.28,0,0,1-1.625,0,.991.991,0,0,1-.3-.742,1.045,1.045,0,0,1,.289-.754A1.074,1.074,0,0,1,22.656,13Zm10.578-2.789a6.2,6.2,0,0,1-.918,3.7,3.242,3.242,0,0,1-2.793,1.246,3.285,3.285,0,0,1-2.777-1.215,5.94,5.94,0,0,1-.957-3.6V8.375a6.11,6.11,0,0,1,.918-3.68,3.272,3.272,0,0,1,2.8-1.227,3.291,3.291,0,0,1,2.785,1.2,5.923,5.923,0,0,1,.941,3.578Zm-1.9-2.125A4.813,4.813,0,0,0,30.9,5.738,1.672,1.672,0,0,0,28.141,5.7a4.448,4.448,0,0,0-.461,2.207v2.578a4.937,4.937,0,0,0,.445,2.375,1.5,1.5,0,0,0,1.4.781,1.469,1.469,0,0,0,1.352-.723,4.645,4.645,0,0,0,.461-2.262Zm10.992,2.125a6.2,6.2,0,0,1-.918,3.7,3.242,3.242,0,0,1-2.793,1.246,3.285,3.285,0,0,1-2.777-1.215,5.94,5.94,0,0,1-.957-3.6V8.375A6.11,6.11,0,0,1,35.8,4.7a3.272,3.272,0,0,1,2.8-1.227,3.291,3.291,0,0,1,2.785,1.2,5.923,5.923,0,0,1,.941,3.578Zm-1.9-2.125a4.813,4.813,0,0,0-.437-2.348A1.672,1.672,0,0,0,37.234,5.7a4.448,4.448,0,0,0-.461,2.207v2.578a4.937,4.937,0,0,0,.445,2.375,1.5,1.5,0,0,0,1.4.781,1.469,1.469,0,0,0,1.352-.723,4.645,4.645,0,0,0,.461-2.262Zm10.992,2.125a6.2,6.2,0,0,1-.918,3.7,3.242,3.242,0,0,1-2.793,1.246,3.285,3.285,0,0,1-2.777-1.215,5.94,5.94,0,0,1-.957-3.6V8.375a6.11,6.11,0,0,1,.918-3.68,3.272,3.272,0,0,1,2.8-1.227,3.291,3.291,0,0,1,2.785,1.2,5.923,5.923,0,0,1,.941,3.578Zm-1.9-2.125a4.813,4.813,0,0,0-.437-2.348A1.672,1.672,0,0,0,46.328,5.7a4.448,4.448,0,0,0-.461,2.207v2.578a4.937,4.937,0,0,0,.445,2.375,1.5,1.5,0,0,0,1.4.781,1.469,1.469,0,0,0,1.352-.723,4.645,4.645,0,0,0,.461-2.262ZM54.406,13a1.084,1.084,0,0,1,.82.3,1.045,1.045,0,0,1,.289.754,1.008,1.008,0,0,1-.289.738,1.28,1.28,0,0,1-1.625,0,.991.991,0,0,1-.3-.742,1.045,1.045,0,0,1,.289-.754A1.074,1.074,0,0,1,54.406,13Zm10.578-2.789a6.2,6.2,0,0,1-.918,3.7,3.242,3.242,0,0,1-2.793,1.246A3.285,3.285,0,0,1,58.5,13.941a5.94,5.94,0,0,1-.957-3.6V8.375a6.11,6.11,0,0,1,.918-3.68,3.827,3.827,0,0,1,5.586-.031,5.924,5.924,0,0,1,.941,3.578Zm-1.9-2.125a4.813,4.813,0,0,0-.437-2.348A1.672,1.672,0,0,0,59.891,5.7a4.448,4.448,0,0,0-.461,2.207v2.578a4.937,4.937,0,0,0,.445,2.375,1.5,1.5,0,0,0,1.4.781,1.469,1.469,0,0,0,1.352-.723,4.645,4.645,0,0,0,.461-2.262Zm10.992,2.125a6.2,6.2,0,0,1-.918,3.7,3.242,3.242,0,0,1-2.793,1.246,3.285,3.285,0,0,1-2.777-1.215,5.94,5.94,0,0,1-.957-3.6V8.375a6.11,6.11,0,0,1,.918-3.68,3.827,3.827,0,0,1,5.586-.031,5.924,5.924,0,0,1,.941,3.578Zm-1.9-2.125a4.813,4.813,0,0,0-.437-2.348A1.672,1.672,0,0,0,68.984,5.7a4.448,4.448,0,0,0-.461,2.207v2.578a4.937,4.937,0,0,0,.445,2.375,1.5,1.5,0,0,0,1.4.781,1.469,1.469,0,0,0,1.352-.723,4.645,4.645,0,0,0,.461-2.262Zm10.992,2.125a6.2,6.2,0,0,1-.918,3.7,3.242,3.242,0,0,1-2.793,1.246,3.285,3.285,0,0,1-2.777-1.215,5.94,5.94,0,0,1-.957-3.6V8.375a6.11,6.11,0,0,1,.918-3.68,3.827,3.827,0,0,1,5.586-.031,5.924,5.924,0,0,1,.941,3.578Zm-1.9-2.125a4.813,4.813,0,0,0-.437-2.348A1.672,1.672,0,0,0,78.078,5.7a4.448,4.448,0,0,0-.461,2.207v2.578a4.937,4.937,0,0,0,.445,2.375,1.5,1.5,0,0,0,1.4.781,1.469,1.469,0,0,0,1.352-.723,4.645,4.645,0,0,0,.461-2.262Z" transform="translate(607 9127)" fill="#12263f"/>
    <path id="Trazado_705050" data-name="Trazado 705050" d="M3.672,9.359l.617-5.734H10.4V5.266H5.867L5.555,7.984a3.512,3.512,0,0,1,1.781-.453A3.169,3.169,0,0,1,9.863,8.57a4.118,4.118,0,0,1,.9,2.8,3.79,3.79,0,0,1-1,2.762,3.65,3.65,0,0,1-2.742,1.027,3.822,3.822,0,0,1-2.59-.887A3.206,3.206,0,0,1,3.32,11.93H5.156A2,2,0,0,0,5.75,13.2a1.806,1.806,0,0,0,1.266.441,1.632,1.632,0,0,0,1.363-.625,2.7,2.7,0,0,0,.488-1.7,2.384,2.384,0,0,0-.539-1.645,1.885,1.885,0,0,0-1.484-.605,2.469,2.469,0,0,0-.875.137,2.478,2.478,0,0,0-.781.535Zm16,.852a6.2,6.2,0,0,1-.918,3.7,3.242,3.242,0,0,1-2.793,1.246,3.285,3.285,0,0,1-2.777-1.215,5.94,5.94,0,0,1-.957-3.6V8.375a6.11,6.11,0,0,1,.918-3.68,3.272,3.272,0,0,1,2.8-1.227,3.291,3.291,0,0,1,2.785,1.2,5.924,5.924,0,0,1,.941,3.578Zm-1.9-2.125a4.813,4.813,0,0,0-.437-2.348,1.493,1.493,0,0,0-1.391-.746,1.492,1.492,0,0,0-1.367.707,4.448,4.448,0,0,0-.461,2.207v2.578a4.937,4.937,0,0,0,.445,2.375,1.5,1.5,0,0,0,1.4.781,1.469,1.469,0,0,0,1.352-.723,4.645,4.645,0,0,0,.461-2.262ZM22.656,13a1.084,1.084,0,0,1,.82.3,1.045,1.045,0,0,1,.289.754,1.008,1.008,0,0,1-.289.738,1.28,1.28,0,0,1-1.625,0,.991.991,0,0,1-.3-.742,1.045,1.045,0,0,1,.289-.754A1.074,1.074,0,0,1,22.656,13Zm10.578-2.789a6.2,6.2,0,0,1-.918,3.7,3.242,3.242,0,0,1-2.793,1.246,3.285,3.285,0,0,1-2.777-1.215,5.94,5.94,0,0,1-.957-3.6V8.375a6.11,6.11,0,0,1,.918-3.68,3.272,3.272,0,0,1,2.8-1.227,3.291,3.291,0,0,1,2.785,1.2,5.923,5.923,0,0,1,.941,3.578Zm-1.9-2.125A4.813,4.813,0,0,0,30.9,5.738,1.672,1.672,0,0,0,28.141,5.7a4.448,4.448,0,0,0-.461,2.207v2.578a4.937,4.937,0,0,0,.445,2.375,1.5,1.5,0,0,0,1.4.781,1.469,1.469,0,0,0,1.352-.723,4.645,4.645,0,0,0,.461-2.262Zm10.992,2.125a6.2,6.2,0,0,1-.918,3.7,3.242,3.242,0,0,1-2.793,1.246,3.285,3.285,0,0,1-2.777-1.215,5.94,5.94,0,0,1-.957-3.6V8.375A6.11,6.11,0,0,1,35.8,4.7a3.272,3.272,0,0,1,2.8-1.227,3.291,3.291,0,0,1,2.785,1.2,5.923,5.923,0,0,1,.941,3.578Zm-1.9-2.125a4.813,4.813,0,0,0-.437-2.348A1.672,1.672,0,0,0,37.234,5.7a4.448,4.448,0,0,0-.461,2.207v2.578a4.937,4.937,0,0,0,.445,2.375,1.5,1.5,0,0,0,1.4.781,1.469,1.469,0,0,0,1.352-.723,4.645,4.645,0,0,0,.461-2.262Zm10.992,2.125a6.2,6.2,0,0,1-.918,3.7,3.242,3.242,0,0,1-2.793,1.246,3.285,3.285,0,0,1-2.777-1.215,5.94,5.94,0,0,1-.957-3.6V8.375a6.11,6.11,0,0,1,.918-3.68,3.272,3.272,0,0,1,2.8-1.227,3.291,3.291,0,0,1,2.785,1.2,5.923,5.923,0,0,1,.941,3.578Zm-1.9-2.125a4.813,4.813,0,0,0-.437-2.348A1.672,1.672,0,0,0,46.328,5.7a4.448,4.448,0,0,0-.461,2.207v2.578a4.937,4.937,0,0,0,.445,2.375,1.5,1.5,0,0,0,1.4.781,1.469,1.469,0,0,0,1.352-.723,4.645,4.645,0,0,0,.461-2.262ZM54.406,13a1.084,1.084,0,0,1,.82.3,1.045,1.045,0,0,1,.289.754,1.008,1.008,0,0,1-.289.738,1.28,1.28,0,0,1-1.625,0,.991.991,0,0,1-.3-.742,1.045,1.045,0,0,1,.289-.754A1.074,1.074,0,0,1,54.406,13Zm10.578-2.789a6.2,6.2,0,0,1-.918,3.7,3.242,3.242,0,0,1-2.793,1.246A3.285,3.285,0,0,1,58.5,13.941a5.94,5.94,0,0,1-.957-3.6V8.375a6.11,6.11,0,0,1,.918-3.68,3.827,3.827,0,0,1,5.586-.031,5.924,5.924,0,0,1,.941,3.578Zm-1.9-2.125a4.813,4.813,0,0,0-.437-2.348A1.672,1.672,0,0,0,59.891,5.7a4.448,4.448,0,0,0-.461,2.207v2.578a4.937,4.937,0,0,0,.445,2.375,1.5,1.5,0,0,0,1.4.781,1.469,1.469,0,0,0,1.352-.723,4.645,4.645,0,0,0,.461-2.262Zm10.992,2.125a6.2,6.2,0,0,1-.918,3.7,3.242,3.242,0,0,1-2.793,1.246,3.285,3.285,0,0,1-2.777-1.215,5.94,5.94,0,0,1-.957-3.6V8.375a6.11,6.11,0,0,1,.918-3.68,3.827,3.827,0,0,1,5.586-.031,5.924,5.924,0,0,1,.941,3.578Zm-1.9-2.125a4.813,4.813,0,0,0-.437-2.348A1.672,1.672,0,0,0,68.984,5.7a4.448,4.448,0,0,0-.461,2.207v2.578a4.937,4.937,0,0,0,.445,2.375,1.5,1.5,0,0,0,1.4.781,1.469,1.469,0,0,0,1.352-.723,4.645,4.645,0,0,0,.461-2.262Zm10.992,2.125a6.2,6.2,0,0,1-.918,3.7,3.242,3.242,0,0,1-2.793,1.246,3.285,3.285,0,0,1-2.777-1.215,5.94,5.94,0,0,1-.957-3.6V8.375a6.11,6.11,0,0,1,.918-3.68,3.827,3.827,0,0,1,5.586-.031,5.924,5.924,0,0,1,.941,3.578Zm-1.9-2.125a4.813,4.813,0,0,0-.437-2.348A1.672,1.672,0,0,0,78.078,5.7a4.448,4.448,0,0,0-.461,2.207v2.578a4.937,4.937,0,0,0,.445,2.375,1.5,1.5,0,0,0,1.4.781,1.469,1.469,0,0,0,1.352-.723,4.645,4.645,0,0,0,.461-2.262Z" transform="translate(607 9089)" fill="#12263f"/>
    <path id="Trazado_705051" data-name="Trazado 705051" d="M9.07,3.57v1.57H8.836a3.768,3.768,0,0,0-2.547.875A3.661,3.661,0,0,0,5.156,8.43a3.083,3.083,0,0,1,2.336-.961A2.912,2.912,0,0,1,9.871,8.531a4.185,4.185,0,0,1,.871,2.742,3.912,3.912,0,0,1-1.02,2.809,3.519,3.519,0,0,1-2.676,1.074A3.438,3.438,0,0,1,4.285,13.9a4.948,4.948,0,0,1-1.059-3.3V9.953A6.962,6.962,0,0,1,4.684,5.266a5.224,5.224,0,0,1,4.191-1.7ZM7.031,9a2,2,0,0,0-1.145.352,2.055,2.055,0,0,0-.762.938v.578a3.405,3.405,0,0,0,.531,2.012,1.62,1.62,0,0,0,1.375.746,1.6,1.6,0,0,0,1.336-.633,2.635,2.635,0,0,0,.492-1.664,2.673,2.673,0,0,0-.5-1.68A1.594,1.594,0,0,0,7.031,9Zm12.641,1.211a6.2,6.2,0,0,1-.918,3.7,3.242,3.242,0,0,1-2.793,1.246,3.285,3.285,0,0,1-2.777-1.215,5.94,5.94,0,0,1-.957-3.6V8.375a6.11,6.11,0,0,1,.918-3.68,3.272,3.272,0,0,1,2.8-1.227,3.291,3.291,0,0,1,2.785,1.2,5.924,5.924,0,0,1,.941,3.578Zm-1.9-2.125a4.813,4.813,0,0,0-.437-2.348,1.493,1.493,0,0,0-1.391-.746,1.492,1.492,0,0,0-1.367.707,4.448,4.448,0,0,0-.461,2.207v2.578a4.937,4.937,0,0,0,.445,2.375,1.5,1.5,0,0,0,1.4.781,1.469,1.469,0,0,0,1.352-.723,4.645,4.645,0,0,0,.461-2.262ZM22.656,13a1.084,1.084,0,0,1,.82.3,1.045,1.045,0,0,1,.289.754,1.008,1.008,0,0,1-.289.738,1.28,1.28,0,0,1-1.625,0,.991.991,0,0,1-.3-.742,1.045,1.045,0,0,1,.289-.754A1.074,1.074,0,0,1,22.656,13Zm10.578-2.789a6.2,6.2,0,0,1-.918,3.7,3.242,3.242,0,0,1-2.793,1.246,3.285,3.285,0,0,1-2.777-1.215,5.94,5.94,0,0,1-.957-3.6V8.375a6.11,6.11,0,0,1,.918-3.68,3.272,3.272,0,0,1,2.8-1.227,3.291,3.291,0,0,1,2.785,1.2,5.923,5.923,0,0,1,.941,3.578Zm-1.9-2.125A4.813,4.813,0,0,0,30.9,5.738,1.672,1.672,0,0,0,28.141,5.7a4.448,4.448,0,0,0-.461,2.207v2.578a4.937,4.937,0,0,0,.445,2.375,1.5,1.5,0,0,0,1.4.781,1.469,1.469,0,0,0,1.352-.723,4.645,4.645,0,0,0,.461-2.262Zm10.992,2.125a6.2,6.2,0,0,1-.918,3.7,3.242,3.242,0,0,1-2.793,1.246,3.285,3.285,0,0,1-2.777-1.215,5.94,5.94,0,0,1-.957-3.6V8.375A6.11,6.11,0,0,1,35.8,4.7a3.272,3.272,0,0,1,2.8-1.227,3.291,3.291,0,0,1,2.785,1.2,5.923,5.923,0,0,1,.941,3.578Zm-1.9-2.125a4.813,4.813,0,0,0-.437-2.348A1.672,1.672,0,0,0,37.234,5.7a4.448,4.448,0,0,0-.461,2.207v2.578a4.937,4.937,0,0,0,.445,2.375,1.5,1.5,0,0,0,1.4.781,1.469,1.469,0,0,0,1.352-.723,4.645,4.645,0,0,0,.461-2.262Zm10.992,2.125a6.2,6.2,0,0,1-.918,3.7,3.242,3.242,0,0,1-2.793,1.246,3.285,3.285,0,0,1-2.777-1.215,5.94,5.94,0,0,1-.957-3.6V8.375a6.11,6.11,0,0,1,.918-3.68,3.272,3.272,0,0,1,2.8-1.227,3.291,3.291,0,0,1,2.785,1.2,5.923,5.923,0,0,1,.941,3.578Zm-1.9-2.125a4.813,4.813,0,0,0-.437-2.348A1.672,1.672,0,0,0,46.328,5.7a4.448,4.448,0,0,0-.461,2.207v2.578a4.937,4.937,0,0,0,.445,2.375,1.5,1.5,0,0,0,1.4.781,1.469,1.469,0,0,0,1.352-.723,4.645,4.645,0,0,0,.461-2.262ZM54.406,13a1.084,1.084,0,0,1,.82.3,1.045,1.045,0,0,1,.289.754,1.008,1.008,0,0,1-.289.738,1.28,1.28,0,0,1-1.625,0,.991.991,0,0,1-.3-.742,1.045,1.045,0,0,1,.289-.754A1.074,1.074,0,0,1,54.406,13Zm10.578-2.789a6.2,6.2,0,0,1-.918,3.7,3.242,3.242,0,0,1-2.793,1.246A3.285,3.285,0,0,1,58.5,13.941a5.94,5.94,0,0,1-.957-3.6V8.375a6.11,6.11,0,0,1,.918-3.68,3.827,3.827,0,0,1,5.586-.031,5.924,5.924,0,0,1,.941,3.578Zm-1.9-2.125a4.813,4.813,0,0,0-.437-2.348A1.672,1.672,0,0,0,59.891,5.7a4.448,4.448,0,0,0-.461,2.207v2.578a4.937,4.937,0,0,0,.445,2.375,1.5,1.5,0,0,0,1.4.781,1.469,1.469,0,0,0,1.352-.723,4.645,4.645,0,0,0,.461-2.262Zm10.992,2.125a6.2,6.2,0,0,1-.918,3.7,3.242,3.242,0,0,1-2.793,1.246,3.285,3.285,0,0,1-2.777-1.215,5.94,5.94,0,0,1-.957-3.6V8.375a6.11,6.11,0,0,1,.918-3.68,3.827,3.827,0,0,1,5.586-.031,5.924,5.924,0,0,1,.941,3.578Zm-1.9-2.125a4.813,4.813,0,0,0-.437-2.348A1.672,1.672,0,0,0,68.984,5.7a4.448,4.448,0,0,0-.461,2.207v2.578a4.937,4.937,0,0,0,.445,2.375,1.5,1.5,0,0,0,1.4.781,1.469,1.469,0,0,0,1.352-.723,4.645,4.645,0,0,0,.461-2.262Zm10.992,2.125a6.2,6.2,0,0,1-.918,3.7,3.242,3.242,0,0,1-2.793,1.246,3.285,3.285,0,0,1-2.777-1.215,5.94,5.94,0,0,1-.957-3.6V8.375a6.11,6.11,0,0,1,.918-3.68,3.827,3.827,0,0,1,5.586-.031,5.924,5.924,0,0,1,.941,3.578Zm-1.9-2.125a4.813,4.813,0,0,0-.437-2.348A1.672,1.672,0,0,0,78.078,5.7a4.448,4.448,0,0,0-.461,2.207v2.578a4.937,4.937,0,0,0,.445,2.375,1.5,1.5,0,0,0,1.4.781,1.469,1.469,0,0,0,1.352-.723,4.645,4.645,0,0,0,.461-2.262Z" transform="translate(607 9054)" fill="#12263f"/>
    <path id="Trazado_705052" data-name="Trazado 705052" d="M10.734,4.68,6.188,15H4.2L8.734,5.148H2.852V3.625h7.883Zm8.938,5.531a6.2,6.2,0,0,1-.918,3.7,3.242,3.242,0,0,1-2.793,1.246,3.285,3.285,0,0,1-2.777-1.215,5.94,5.94,0,0,1-.957-3.6V8.375a6.11,6.11,0,0,1,.918-3.68,3.272,3.272,0,0,1,2.8-1.227,3.291,3.291,0,0,1,2.785,1.2,5.924,5.924,0,0,1,.941,3.578Zm-1.9-2.125a4.813,4.813,0,0,0-.437-2.348,1.493,1.493,0,0,0-1.391-.746,1.492,1.492,0,0,0-1.367.707,4.448,4.448,0,0,0-.461,2.207v2.578a4.937,4.937,0,0,0,.445,2.375,1.5,1.5,0,0,0,1.4.781,1.469,1.469,0,0,0,1.352-.723,4.645,4.645,0,0,0,.461-2.262ZM22.656,13a1.084,1.084,0,0,1,.82.3,1.045,1.045,0,0,1,.289.754,1.008,1.008,0,0,1-.289.738,1.28,1.28,0,0,1-1.625,0,.991.991,0,0,1-.3-.742,1.045,1.045,0,0,1,.289-.754A1.074,1.074,0,0,1,22.656,13Zm10.578-2.789a6.2,6.2,0,0,1-.918,3.7,3.242,3.242,0,0,1-2.793,1.246,3.285,3.285,0,0,1-2.777-1.215,5.94,5.94,0,0,1-.957-3.6V8.375a6.11,6.11,0,0,1,.918-3.68,3.272,3.272,0,0,1,2.8-1.227,3.291,3.291,0,0,1,2.785,1.2,5.923,5.923,0,0,1,.941,3.578Zm-1.9-2.125A4.813,4.813,0,0,0,30.9,5.738,1.672,1.672,0,0,0,28.141,5.7a4.448,4.448,0,0,0-.461,2.207v2.578a4.937,4.937,0,0,0,.445,2.375,1.5,1.5,0,0,0,1.4.781,1.469,1.469,0,0,0,1.352-.723,4.645,4.645,0,0,0,.461-2.262Zm10.992,2.125a6.2,6.2,0,0,1-.918,3.7,3.242,3.242,0,0,1-2.793,1.246,3.285,3.285,0,0,1-2.777-1.215,5.94,5.94,0,0,1-.957-3.6V8.375A6.11,6.11,0,0,1,35.8,4.7a3.272,3.272,0,0,1,2.8-1.227,3.291,3.291,0,0,1,2.785,1.2,5.923,5.923,0,0,1,.941,3.578Zm-1.9-2.125a4.813,4.813,0,0,0-.437-2.348A1.672,1.672,0,0,0,37.234,5.7a4.448,4.448,0,0,0-.461,2.207v2.578a4.937,4.937,0,0,0,.445,2.375,1.5,1.5,0,0,0,1.4.781,1.469,1.469,0,0,0,1.352-.723,4.645,4.645,0,0,0,.461-2.262Zm10.992,2.125a6.2,6.2,0,0,1-.918,3.7,3.242,3.242,0,0,1-2.793,1.246,3.285,3.285,0,0,1-2.777-1.215,5.94,5.94,0,0,1-.957-3.6V8.375a6.11,6.11,0,0,1,.918-3.68,3.272,3.272,0,0,1,2.8-1.227,3.291,3.291,0,0,1,2.785,1.2,5.923,5.923,0,0,1,.941,3.578Zm-1.9-2.125a4.813,4.813,0,0,0-.437-2.348A1.672,1.672,0,0,0,46.328,5.7a4.448,4.448,0,0,0-.461,2.207v2.578a4.937,4.937,0,0,0,.445,2.375,1.5,1.5,0,0,0,1.4.781,1.469,1.469,0,0,0,1.352-.723,4.645,4.645,0,0,0,.461-2.262ZM54.406,13a1.084,1.084,0,0,1,.82.3,1.045,1.045,0,0,1,.289.754,1.008,1.008,0,0,1-.289.738,1.28,1.28,0,0,1-1.625,0,.991.991,0,0,1-.3-.742,1.045,1.045,0,0,1,.289-.754A1.074,1.074,0,0,1,54.406,13Zm10.578-2.789a6.2,6.2,0,0,1-.918,3.7,3.242,3.242,0,0,1-2.793,1.246A3.285,3.285,0,0,1,58.5,13.941a5.94,5.94,0,0,1-.957-3.6V8.375a6.11,6.11,0,0,1,.918-3.68,3.827,3.827,0,0,1,5.586-.031,5.924,5.924,0,0,1,.941,3.578Zm-1.9-2.125a4.813,4.813,0,0,0-.437-2.348A1.672,1.672,0,0,0,59.891,5.7a4.448,4.448,0,0,0-.461,2.207v2.578a4.937,4.937,0,0,0,.445,2.375,1.5,1.5,0,0,0,1.4.781,1.469,1.469,0,0,0,1.352-.723,4.645,4.645,0,0,0,.461-2.262Zm10.992,2.125a6.2,6.2,0,0,1-.918,3.7,3.242,3.242,0,0,1-2.793,1.246,3.285,3.285,0,0,1-2.777-1.215,5.94,5.94,0,0,1-.957-3.6V8.375a6.11,6.11,0,0,1,.918-3.68,3.827,3.827,0,0,1,5.586-.031,5.924,5.924,0,0,1,.941,3.578Zm-1.9-2.125a4.813,4.813,0,0,0-.437-2.348A1.672,1.672,0,0,0,68.984,5.7a4.448,4.448,0,0,0-.461,2.207v2.578a4.937,4.937,0,0,0,.445,2.375,1.5,1.5,0,0,0,1.4.781,1.469,1.469,0,0,0,1.352-.723,4.645,4.645,0,0,0,.461-2.262Zm10.992,2.125a6.2,6.2,0,0,1-.918,3.7,3.242,3.242,0,0,1-2.793,1.246,3.285,3.285,0,0,1-2.777-1.215,5.94,5.94,0,0,1-.957-3.6V8.375a6.11,6.11,0,0,1,.918-3.68,3.827,3.827,0,0,1,5.586-.031,5.924,5.924,0,0,1,.941,3.578Zm-1.9-2.125a4.813,4.813,0,0,0-.437-2.348A1.672,1.672,0,0,0,78.078,5.7a4.448,4.448,0,0,0-.461,2.207v2.578a4.937,4.937,0,0,0,.445,2.375,1.5,1.5,0,0,0,1.4.781,1.469,1.469,0,0,0,1.352-.723,4.645,4.645,0,0,0,.461-2.262Z" transform="translate(607 9017)" fill="#12263f"/>
    <path id="Trazado_705053" data-name="Trazado 705053" d="M10.328,6.625A2.644,2.644,0,0,1,9.9,8.113,2.98,2.98,0,0,1,8.727,9.141,3.246,3.246,0,0,1,10.1,10.273a2.858,2.858,0,0,1,.48,1.625,2.984,2.984,0,0,1-1.016,2.379,3.986,3.986,0,0,1-2.7.879,4,4,0,0,1-2.715-.883A2.982,2.982,0,0,1,3.125,11.9a2.891,2.891,0,0,1,.484-1.641A3.112,3.112,0,0,1,4.969,9.141a2.964,2.964,0,0,1-1.16-1.027,2.662,2.662,0,0,1-.426-1.488,2.959,2.959,0,0,1,.938-2.3,3.622,3.622,0,0,1,2.531-.852,3.633,3.633,0,0,1,2.539.852A2.959,2.959,0,0,1,10.328,6.625ZM8.68,11.8a1.875,1.875,0,0,0-.5-1.363,1.771,1.771,0,0,0-1.332-.52,1.752,1.752,0,0,0-1.324.516,1.889,1.889,0,0,0-.5,1.367,1.83,1.83,0,0,0,.488,1.336,1.8,1.8,0,0,0,1.348.5,1.8,1.8,0,0,0,1.34-.484A1.836,1.836,0,0,0,8.68,11.8ZM8.438,6.7a1.765,1.765,0,0,0-.43-1.223,1.474,1.474,0,0,0-1.156-.48A1.486,1.486,0,0,0,5.7,5.449,1.766,1.766,0,0,0,5.281,6.7a1.759,1.759,0,0,0,.426,1.242A1.492,1.492,0,0,0,6.859,8.4a1.492,1.492,0,0,0,1.152-.461A1.759,1.759,0,0,0,8.438,6.7Zm11.234,3.516a6.2,6.2,0,0,1-.918,3.7,3.242,3.242,0,0,1-2.793,1.246,3.285,3.285,0,0,1-2.777-1.215,5.94,5.94,0,0,1-.957-3.6V8.375a6.11,6.11,0,0,1,.918-3.68,3.272,3.272,0,0,1,2.8-1.227,3.291,3.291,0,0,1,2.785,1.2,5.924,5.924,0,0,1,.941,3.578Zm-1.9-2.125a4.813,4.813,0,0,0-.437-2.348,1.493,1.493,0,0,0-1.391-.746,1.492,1.492,0,0,0-1.367.707,4.448,4.448,0,0,0-.461,2.207v2.578a4.937,4.937,0,0,0,.445,2.375,1.5,1.5,0,0,0,1.4.781,1.469,1.469,0,0,0,1.352-.723,4.645,4.645,0,0,0,.461-2.262ZM22.656,13a1.084,1.084,0,0,1,.82.3,1.045,1.045,0,0,1,.289.754,1.008,1.008,0,0,1-.289.738,1.28,1.28,0,0,1-1.625,0,.991.991,0,0,1-.3-.742,1.045,1.045,0,0,1,.289-.754A1.074,1.074,0,0,1,22.656,13Zm10.578-2.789a6.2,6.2,0,0,1-.918,3.7,3.242,3.242,0,0,1-2.793,1.246,3.285,3.285,0,0,1-2.777-1.215,5.94,5.94,0,0,1-.957-3.6V8.375a6.11,6.11,0,0,1,.918-3.68,3.272,3.272,0,0,1,2.8-1.227,3.291,3.291,0,0,1,2.785,1.2,5.923,5.923,0,0,1,.941,3.578Zm-1.9-2.125A4.813,4.813,0,0,0,30.9,5.738,1.672,1.672,0,0,0,28.141,5.7a4.448,4.448,0,0,0-.461,2.207v2.578a4.937,4.937,0,0,0,.445,2.375,1.5,1.5,0,0,0,1.4.781,1.469,1.469,0,0,0,1.352-.723,4.645,4.645,0,0,0,.461-2.262Zm10.992,2.125a6.2,6.2,0,0,1-.918,3.7,3.242,3.242,0,0,1-2.793,1.246,3.285,3.285,0,0,1-2.777-1.215,5.94,5.94,0,0,1-.957-3.6V8.375A6.11,6.11,0,0,1,35.8,4.7a3.272,3.272,0,0,1,2.8-1.227,3.291,3.291,0,0,1,2.785,1.2,5.923,5.923,0,0,1,.941,3.578Zm-1.9-2.125a4.813,4.813,0,0,0-.437-2.348A1.672,1.672,0,0,0,37.234,5.7a4.448,4.448,0,0,0-.461,2.207v2.578a4.937,4.937,0,0,0,.445,2.375,1.5,1.5,0,0,0,1.4.781,1.469,1.469,0,0,0,1.352-.723,4.645,4.645,0,0,0,.461-2.262Zm10.992,2.125a6.2,6.2,0,0,1-.918,3.7,3.242,3.242,0,0,1-2.793,1.246,3.285,3.285,0,0,1-2.777-1.215,5.94,5.94,0,0,1-.957-3.6V8.375a6.11,6.11,0,0,1,.918-3.68,3.272,3.272,0,0,1,2.8-1.227,3.291,3.291,0,0,1,2.785,1.2,5.923,5.923,0,0,1,.941,3.578Zm-1.9-2.125a4.813,4.813,0,0,0-.437-2.348A1.672,1.672,0,0,0,46.328,5.7a4.448,4.448,0,0,0-.461,2.207v2.578a4.937,4.937,0,0,0,.445,2.375,1.5,1.5,0,0,0,1.4.781,1.469,1.469,0,0,0,1.352-.723,4.645,4.645,0,0,0,.461-2.262ZM54.406,13a1.084,1.084,0,0,1,.82.3,1.045,1.045,0,0,1,.289.754,1.008,1.008,0,0,1-.289.738,1.28,1.28,0,0,1-1.625,0,.991.991,0,0,1-.3-.742,1.045,1.045,0,0,1,.289-.754A1.074,1.074,0,0,1,54.406,13Zm10.578-2.789a6.2,6.2,0,0,1-.918,3.7,3.242,3.242,0,0,1-2.793,1.246A3.285,3.285,0,0,1,58.5,13.941a5.94,5.94,0,0,1-.957-3.6V8.375a6.11,6.11,0,0,1,.918-3.68,3.827,3.827,0,0,1,5.586-.031,5.924,5.924,0,0,1,.941,3.578Zm-1.9-2.125a4.813,4.813,0,0,0-.437-2.348A1.672,1.672,0,0,0,59.891,5.7a4.448,4.448,0,0,0-.461,2.207v2.578a4.937,4.937,0,0,0,.445,2.375,1.5,1.5,0,0,0,1.4.781,1.469,1.469,0,0,0,1.352-.723,4.645,4.645,0,0,0,.461-2.262Zm10.992,2.125a6.2,6.2,0,0,1-.918,3.7,3.242,3.242,0,0,1-2.793,1.246,3.285,3.285,0,0,1-2.777-1.215,5.94,5.94,0,0,1-.957-3.6V8.375a6.11,6.11,0,0,1,.918-3.68,3.827,3.827,0,0,1,5.586-.031,5.924,5.924,0,0,1,.941,3.578Zm-1.9-2.125a4.813,4.813,0,0,0-.437-2.348A1.672,1.672,0,0,0,68.984,5.7a4.448,4.448,0,0,0-.461,2.207v2.578a4.937,4.937,0,0,0,.445,2.375,1.5,1.5,0,0,0,1.4.781,1.469,1.469,0,0,0,1.352-.723,4.645,4.645,0,0,0,.461-2.262Zm10.992,2.125a6.2,6.2,0,0,1-.918,3.7,3.242,3.242,0,0,1-2.793,1.246,3.285,3.285,0,0,1-2.777-1.215,5.94,5.94,0,0,1-.957-3.6V8.375a6.11,6.11,0,0,1,.918-3.68,3.827,3.827,0,0,1,5.586-.031,5.924,5.924,0,0,1,.941,3.578Zm-1.9-2.125a4.813,4.813,0,0,0-.437-2.348A1.672,1.672,0,0,0,78.078,5.7a4.448,4.448,0,0,0-.461,2.207v2.578a4.937,4.937,0,0,0,.445,2.375,1.5,1.5,0,0,0,1.4.781,1.469,1.469,0,0,0,1.352-.723,4.645,4.645,0,0,0,.461-2.262Z" transform="translate(607 8980)" fill="#12263f"/>
    <path id="Trazado_705054" data-name="Trazado 705054" d="M8.547,10.242A2.973,2.973,0,0,1,6.32,11.25,2.974,2.974,0,0,1,3.93,10.2a4.126,4.126,0,0,1-.891-2.762A4.528,4.528,0,0,1,3.492,5.4,3.379,3.379,0,0,1,4.781,3.977a3.657,3.657,0,0,1,1.938-.508A3.286,3.286,0,0,1,9.445,4.75a5.4,5.4,0,0,1,1.008,3.43v.531a7.009,7.009,0,0,1-1.391,4.7,5.235,5.235,0,0,1-4.148,1.641H4.688v-1.57h.273a3.887,3.887,0,0,0,2.578-.809A3.371,3.371,0,0,0,8.547,10.242ZM6.719,9.766a1.916,1.916,0,0,0,1.07-.328,2.162,2.162,0,0,0,.773-.906V7.789a3.564,3.564,0,0,0-.516-2.023A1.553,1.553,0,0,0,6.711,5,1.535,1.535,0,0,0,5.4,5.676a2.841,2.841,0,0,0-.488,1.707,2.806,2.806,0,0,0,.492,1.727A1.559,1.559,0,0,0,6.719,9.766Zm12.953.445a6.2,6.2,0,0,1-.918,3.7,3.242,3.242,0,0,1-2.793,1.246,3.285,3.285,0,0,1-2.777-1.215,5.94,5.94,0,0,1-.957-3.6V8.375a6.11,6.11,0,0,1,.918-3.68,3.272,3.272,0,0,1,2.8-1.227,3.291,3.291,0,0,1,2.785,1.2,5.924,5.924,0,0,1,.941,3.578Zm-1.9-2.125a4.813,4.813,0,0,0-.437-2.348,1.493,1.493,0,0,0-1.391-.746,1.492,1.492,0,0,0-1.367.707,4.448,4.448,0,0,0-.461,2.207v2.578a4.937,4.937,0,0,0,.445,2.375,1.5,1.5,0,0,0,1.4.781,1.469,1.469,0,0,0,1.352-.723,4.645,4.645,0,0,0,.461-2.262ZM22.656,13a1.084,1.084,0,0,1,.82.3,1.045,1.045,0,0,1,.289.754,1.008,1.008,0,0,1-.289.738,1.28,1.28,0,0,1-1.625,0,.991.991,0,0,1-.3-.742,1.045,1.045,0,0,1,.289-.754A1.074,1.074,0,0,1,22.656,13Zm10.578-2.789a6.2,6.2,0,0,1-.918,3.7,3.242,3.242,0,0,1-2.793,1.246,3.285,3.285,0,0,1-2.777-1.215,5.94,5.94,0,0,1-.957-3.6V8.375a6.11,6.11,0,0,1,.918-3.68,3.272,3.272,0,0,1,2.8-1.227,3.291,3.291,0,0,1,2.785,1.2,5.923,5.923,0,0,1,.941,3.578Zm-1.9-2.125A4.813,4.813,0,0,0,30.9,5.738,1.672,1.672,0,0,0,28.141,5.7a4.448,4.448,0,0,0-.461,2.207v2.578a4.937,4.937,0,0,0,.445,2.375,1.5,1.5,0,0,0,1.4.781,1.469,1.469,0,0,0,1.352-.723,4.645,4.645,0,0,0,.461-2.262Zm10.992,2.125a6.2,6.2,0,0,1-.918,3.7,3.242,3.242,0,0,1-2.793,1.246,3.285,3.285,0,0,1-2.777-1.215,5.94,5.94,0,0,1-.957-3.6V8.375A6.11,6.11,0,0,1,35.8,4.7a3.272,3.272,0,0,1,2.8-1.227,3.291,3.291,0,0,1,2.785,1.2,5.923,5.923,0,0,1,.941,3.578Zm-1.9-2.125a4.813,4.813,0,0,0-.437-2.348A1.672,1.672,0,0,0,37.234,5.7a4.448,4.448,0,0,0-.461,2.207v2.578a4.937,4.937,0,0,0,.445,2.375,1.5,1.5,0,0,0,1.4.781,1.469,1.469,0,0,0,1.352-.723,4.645,4.645,0,0,0,.461-2.262Zm10.992,2.125a6.2,6.2,0,0,1-.918,3.7,3.242,3.242,0,0,1-2.793,1.246,3.285,3.285,0,0,1-2.777-1.215,5.94,5.94,0,0,1-.957-3.6V8.375a6.11,6.11,0,0,1,.918-3.68,3.272,3.272,0,0,1,2.8-1.227,3.291,3.291,0,0,1,2.785,1.2,5.923,5.923,0,0,1,.941,3.578Zm-1.9-2.125a4.813,4.813,0,0,0-.437-2.348A1.672,1.672,0,0,0,46.328,5.7a4.448,4.448,0,0,0-.461,2.207v2.578a4.937,4.937,0,0,0,.445,2.375,1.5,1.5,0,0,0,1.4.781,1.469,1.469,0,0,0,1.352-.723,4.645,4.645,0,0,0,.461-2.262ZM54.406,13a1.084,1.084,0,0,1,.82.3,1.045,1.045,0,0,1,.289.754,1.008,1.008,0,0,1-.289.738,1.28,1.28,0,0,1-1.625,0,.991.991,0,0,1-.3-.742,1.045,1.045,0,0,1,.289-.754A1.074,1.074,0,0,1,54.406,13Zm10.578-2.789a6.2,6.2,0,0,1-.918,3.7,3.242,3.242,0,0,1-2.793,1.246A3.285,3.285,0,0,1,58.5,13.941a5.94,5.94,0,0,1-.957-3.6V8.375a6.11,6.11,0,0,1,.918-3.68,3.827,3.827,0,0,1,5.586-.031,5.924,5.924,0,0,1,.941,3.578Zm-1.9-2.125a4.813,4.813,0,0,0-.437-2.348A1.672,1.672,0,0,0,59.891,5.7a4.448,4.448,0,0,0-.461,2.207v2.578a4.937,4.937,0,0,0,.445,2.375,1.5,1.5,0,0,0,1.4.781,1.469,1.469,0,0,0,1.352-.723,4.645,4.645,0,0,0,.461-2.262Zm10.992,2.125a6.2,6.2,0,0,1-.918,3.7,3.242,3.242,0,0,1-2.793,1.246,3.285,3.285,0,0,1-2.777-1.215,5.94,5.94,0,0,1-.957-3.6V8.375a6.11,6.11,0,0,1,.918-3.68,3.827,3.827,0,0,1,5.586-.031,5.924,5.924,0,0,1,.941,3.578Zm-1.9-2.125a4.813,4.813,0,0,0-.437-2.348A1.672,1.672,0,0,0,68.984,5.7a4.448,4.448,0,0,0-.461,2.207v2.578a4.937,4.937,0,0,0,.445,2.375,1.5,1.5,0,0,0,1.4.781,1.469,1.469,0,0,0,1.352-.723,4.645,4.645,0,0,0,.461-2.262Zm10.992,2.125a6.2,6.2,0,0,1-.918,3.7,3.242,3.242,0,0,1-2.793,1.246,3.285,3.285,0,0,1-2.777-1.215,5.94,5.94,0,0,1-.957-3.6V8.375a6.11,6.11,0,0,1,.918-3.68,3.827,3.827,0,0,1,5.586-.031,5.924,5.924,0,0,1,.941,3.578Zm-1.9-2.125a4.813,4.813,0,0,0-.437-2.348A1.672,1.672,0,0,0,78.078,5.7a4.448,4.448,0,0,0-.461,2.207v2.578a4.937,4.937,0,0,0,.445,2.375,1.5,1.5,0,0,0,1.4.781,1.469,1.469,0,0,0,1.352-.723,4.645,4.645,0,0,0,.461-2.262Z" transform="translate(607 8945)" fill="#12263f"/>
    <path id="Trazado_705055" data-name="Trazado 705055" d="M6.211,15H4.32V5.862l-2.789.951V5.219L5.969,3.586h.242Zm11.367-4.789a6.2,6.2,0,0,1-.918,3.7,3.242,3.242,0,0,1-2.793,1.246,3.285,3.285,0,0,1-2.777-1.215,5.94,5.94,0,0,1-.957-3.6V8.375a6.11,6.11,0,0,1,.918-3.68,3.272,3.272,0,0,1,2.8-1.227,3.291,3.291,0,0,1,2.785,1.2,5.924,5.924,0,0,1,.941,3.578Zm-1.9-2.125a4.813,4.813,0,0,0-.437-2.348,1.493,1.493,0,0,0-1.391-.746,1.492,1.492,0,0,0-1.367.707,4.448,4.448,0,0,0-.461,2.207v2.578a4.937,4.937,0,0,0,.445,2.375,1.5,1.5,0,0,0,1.4.781,1.469,1.469,0,0,0,1.352-.723,4.645,4.645,0,0,0,.461-2.262Zm10.992,2.125a6.2,6.2,0,0,1-.918,3.7,3.242,3.242,0,0,1-2.793,1.246,3.285,3.285,0,0,1-2.777-1.215,5.94,5.94,0,0,1-.957-3.6V8.375a6.11,6.11,0,0,1,.918-3.68,3.272,3.272,0,0,1,2.8-1.227,3.291,3.291,0,0,1,2.785,1.2,5.924,5.924,0,0,1,.941,3.578Zm-1.9-2.125a4.813,4.813,0,0,0-.437-2.348A1.672,1.672,0,0,0,21.578,5.7a4.448,4.448,0,0,0-.461,2.207v2.578a4.937,4.937,0,0,0,.445,2.375,1.5,1.5,0,0,0,1.4.781,1.469,1.469,0,0,0,1.352-.723,4.645,4.645,0,0,0,.461-2.262ZM29.656,13a1.084,1.084,0,0,1,.82.3,1.045,1.045,0,0,1,.289.754,1.008,1.008,0,0,1-.289.738,1.28,1.28,0,0,1-1.625,0,.991.991,0,0,1-.3-.742,1.045,1.045,0,0,1,.289-.754A1.074,1.074,0,0,1,29.656,13Zm10.578-2.789a6.2,6.2,0,0,1-.918,3.7,3.242,3.242,0,0,1-2.793,1.246,3.285,3.285,0,0,1-2.777-1.215,5.94,5.94,0,0,1-.957-3.6V8.375a6.11,6.11,0,0,1,.918-3.68,3.272,3.272,0,0,1,2.8-1.227,3.291,3.291,0,0,1,2.785,1.2,5.923,5.923,0,0,1,.941,3.578Zm-1.9-2.125A4.813,4.813,0,0,0,37.9,5.738,1.672,1.672,0,0,0,35.141,5.7a4.448,4.448,0,0,0-.461,2.207v2.578a4.937,4.937,0,0,0,.445,2.375,1.5,1.5,0,0,0,1.4.781,1.469,1.469,0,0,0,1.352-.723,4.645,4.645,0,0,0,.461-2.262Zm10.992,2.125a6.2,6.2,0,0,1-.918,3.7,3.242,3.242,0,0,1-2.793,1.246,3.285,3.285,0,0,1-2.777-1.215,5.94,5.94,0,0,1-.957-3.6V8.375A6.11,6.11,0,0,1,42.8,4.7a3.272,3.272,0,0,1,2.8-1.227,3.291,3.291,0,0,1,2.785,1.2,5.923,5.923,0,0,1,.941,3.578Zm-1.9-2.125a4.813,4.813,0,0,0-.437-2.348A1.672,1.672,0,0,0,44.234,5.7a4.448,4.448,0,0,0-.461,2.207v2.578a4.937,4.937,0,0,0,.445,2.375,1.5,1.5,0,0,0,1.4.781,1.469,1.469,0,0,0,1.352-.723,4.645,4.645,0,0,0,.461-2.262Zm10.992,2.125a6.2,6.2,0,0,1-.918,3.7,3.242,3.242,0,0,1-2.793,1.246,3.285,3.285,0,0,1-2.777-1.215,5.94,5.94,0,0,1-.957-3.6V8.375a6.11,6.11,0,0,1,.918-3.68,3.827,3.827,0,0,1,5.586-.031,5.923,5.923,0,0,1,.941,3.578Zm-1.9-2.125a4.813,4.813,0,0,0-.437-2.348A1.672,1.672,0,0,0,53.328,5.7a4.448,4.448,0,0,0-.461,2.207v2.578a4.937,4.937,0,0,0,.445,2.375,1.5,1.5,0,0,0,1.4.781,1.469,1.469,0,0,0,1.352-.723,4.645,4.645,0,0,0,.461-2.262ZM61.406,13a1.084,1.084,0,0,1,.82.3,1.045,1.045,0,0,1,.289.754,1.008,1.008,0,0,1-.289.738,1.28,1.28,0,0,1-1.625,0,.991.991,0,0,1-.3-.742,1.045,1.045,0,0,1,.289-.754A1.074,1.074,0,0,1,61.406,13Zm10.578-2.789a6.2,6.2,0,0,1-.918,3.7,3.242,3.242,0,0,1-2.793,1.246A3.285,3.285,0,0,1,65.5,13.941a5.94,5.94,0,0,1-.957-3.6V8.375a6.11,6.11,0,0,1,.918-3.68,3.827,3.827,0,0,1,5.586-.031,5.924,5.924,0,0,1,.941,3.578Zm-1.9-2.125a4.813,4.813,0,0,0-.437-2.348A1.672,1.672,0,0,0,66.891,5.7a4.448,4.448,0,0,0-.461,2.207v2.578a4.937,4.937,0,0,0,.445,2.375,1.5,1.5,0,0,0,1.4.781,1.469,1.469,0,0,0,1.352-.723,4.645,4.645,0,0,0,.461-2.262Zm10.992,2.125a6.2,6.2,0,0,1-.918,3.7,3.242,3.242,0,0,1-2.793,1.246,3.285,3.285,0,0,1-2.777-1.215,5.94,5.94,0,0,1-.957-3.6V8.375a6.11,6.11,0,0,1,.918-3.68,3.827,3.827,0,0,1,5.586-.031,5.924,5.924,0,0,1,.941,3.578Zm-1.9-2.125a4.813,4.813,0,0,0-.437-2.348A1.672,1.672,0,0,0,75.984,5.7a4.448,4.448,0,0,0-.461,2.207v2.578a4.937,4.937,0,0,0,.445,2.375,1.5,1.5,0,0,0,1.4.781,1.469,1.469,0,0,0,1.352-.723,4.645,4.645,0,0,0,.461-2.262Zm10.992,2.125a6.2,6.2,0,0,1-.918,3.7,3.242,3.242,0,0,1-2.793,1.246,3.285,3.285,0,0,1-2.777-1.215,5.94,5.94,0,0,1-.957-3.6V8.375a6.11,6.11,0,0,1,.918-3.68,3.827,3.827,0,0,1,5.586-.031,5.924,5.924,0,0,1,.941,3.578Zm-1.9-2.125a4.813,4.813,0,0,0-.437-2.348A1.672,1.672,0,0,0,85.078,5.7a4.448,4.448,0,0,0-.461,2.207v2.578a4.937,4.937,0,0,0,.445,2.375,1.5,1.5,0,0,0,1.4.781,1.469,1.469,0,0,0,1.352-.723,4.645,4.645,0,0,0,.461-2.262Z" transform="translate(600 8909)" fill="#12263f"/>
    <path id="Trazado_258620" data-name="Trazado 258620" d="M-4995.869-5981.525h-721.773" transform="translate(6415.869 14899.525)" fill="none" stroke="#d8d8d8" stroke-width="2"/>
    <path id="Trazado_258648" data-name="Trazado 258648" d="M-4995.869-5981.525h-721.773" transform="translate(6415.869 14936.025)" fill="none" stroke="#d8d8d8" stroke-width="2"/>
    <path id="Trazado_258649" data-name="Trazado 258649" d="M-4995.869-5981.525h-721.773" transform="translate(6415.869 14972.525)" fill="none" stroke="#d8d8d8" stroke-width="2"/>
    <path id="Trazado_258650" data-name="Trazado 258650" d="M-4995.869-5981.525h-721.773" transform="translate(6415.869 15009.025)" fill="none" stroke="#d8d8d8" stroke-width="2"/>
    <path id="Trazado_258651" data-name="Trazado 258651" d="M-4995.869-5981.525h-721.773" transform="translate(6415.869 15045.525)" fill="none" stroke="#d8d8d8" stroke-width="2"/>
    <path id="Trazado_258652" data-name="Trazado 258652" d="M-4995.869-5981.525h-721.773" transform="translate(6415.869 15081.525)" fill="none" stroke="#d8d8d8" stroke-width="2"/>
    <path id="Trazado_258653" data-name="Trazado 258653" d="M-4995.869-5981.525h-721.773" transform="translate(6415.869 15117.525)" fill="none" stroke="#d8d8d8" stroke-width="2"/>
    <path id="Trazado_258654" data-name="Trazado 258654" d="M-4995.869-5981.525h-721.773" transform="translate(6415.869 15154.525)" fill="none" stroke="#d8d8d8" stroke-width="2"/>
    <path id="Trazado_258655" data-name="Trazado 258655" d="M-4995.869-5981.525h-721.773" transform="translate(6415.869 15191.525)" fill="none" stroke="#d8d8d8" stroke-width="2"/>
    <path id="Trazado_258656" data-name="Trazado 258656" d="M-4995.869-5981.525h-721.773" transform="translate(6415.869 15228.525)" fill="none" stroke="#d8d8d8" stroke-width="2"/>
    <path id="Trazado_258657" data-name="Trazado 258657" d="M-4995.869-5981.525h-721.773" transform="translate(6415.869 15264.525)" fill="none" stroke="#d8d8d8" stroke-width="2"/>
    <path id="Trazado_705056" data-name="Trazado 705056" d="M0,0H44V327.873H0Z" transform="translate(737 8954.5)" fill="#2e0877"/>
    <path id="Trazado_705057" data-name="Trazado 705057" d="M0,0H44V312.873H0Z" transform="translate(815 8969.5)" fill="#2e0877"/>
    <path id="Trazado_705058" data-name="Trazado 705058" d="M0,0H44V324.873H0Z" transform="translate(892 8957.5)" fill="#2e0877"/>
    <path id="Trazado_705059" data-name="Trazado 705059" d="M0,0H44V314.873H0Z" transform="translate(970 8967.5)" fill="#2e0877"/>
    <path id="Trazado_705060" data-name="Trazado 705060" d="M0,0H44V331.873H0Z" transform="translate(1048 8950.5)" fill="#2e0877"/>
    <path id="Trazado_705061" data-name="Trazado 705061" d="M0,0H44V331.873H0Z" transform="translate(1125 8950.5)" fill="#2e0877"/>
    <path id="Trazado_705062" data-name="Trazado 705062" d="M0,0H44V313.873H0Z" transform="translate(1203 8968.5)" fill="#2e0877"/>
    <path id="Trazado_705063" data-name="Trazado 705063" d="M0,0H44V308.873H0Z" transform="translate(1281 8973.5)" fill="#2e0877"/>
    <path id="Trazado_705064" data-name="Trazado 705064" d="M0,0H44V179.873H0Z" transform="translate(1359 9102.5)" fill="#2e0877"/>
    <path id="Trazado_705065" data-name="Trazado 705065" d="M0,0H18V19H0Z" transform="translate(864 9333)" fill="#2e0977"/>
    <path id="Trazado_705066" data-name="Trazado 705066" d="M262.854,17.211V23H258.74V5.938h6.809a7.93,7.93,0,0,1,3.463.721,5.431,5.431,0,0,1,2.332,2.051,5.6,5.6,0,0,1,.826,3.018,4.937,4.937,0,0,1-1.787,3.99,7.415,7.415,0,0,1-4.9,1.494Zm0-3.176h2.7a2.542,2.542,0,0,0,1.822-.6A2.221,2.221,0,0,0,268,11.75a2.745,2.745,0,0,0-.645-1.91,2.282,2.282,0,0,0-1.758-.727h-2.742Zm19-.141-1.3-.094a2.336,2.336,0,0,0-2.391,1.172V23h-3.949V10.32h3.7l.129,1.629a3.058,3.058,0,0,1,2.777-1.863,3.851,3.851,0,0,1,1.1.141Zm.5,2.648a7.484,7.484,0,0,1,.738-3.381,5.28,5.28,0,0,1,2.121-2.279,6.388,6.388,0,0,1,3.246-.8,5.83,5.83,0,0,1,4.488,1.764,6.768,6.768,0,0,1,1.641,4.8v.141a6.566,6.566,0,0,1-1.646,4.705,5.846,5.846,0,0,1-4.459,1.74,5.912,5.912,0,0,1-4.348-1.623,6.348,6.348,0,0,1-1.77-4.4Zm3.949.246a4.718,4.718,0,0,0,.551,2.578,1.835,1.835,0,0,0,1.629.82q2.109,0,2.156-3.246v-.4q0-3.41-2.18-3.41-1.98,0-2.145,2.941Zm9.527-.223a7.746,7.746,0,0,1,1.3-4.746,4.282,4.282,0,0,1,3.633-1.734,3.641,3.641,0,0,1,2.859,1.336V5h3.961V23h-3.551l-.2-1.359a3.739,3.739,0,0,1-3.094,1.594,4.274,4.274,0,0,1-3.586-1.734A7.991,7.991,0,0,1,295.83,16.566Zm3.949.246q0,3.375,1.969,3.375a1.944,1.944,0,0,0,1.875-1.1V14.258a1.892,1.892,0,0,0-1.852-1.125q-1.828,0-1.98,2.953Zm17.6,4.816a4.072,4.072,0,0,1-3.387,1.605,3.993,3.993,0,0,1-3.158-1.213,5.1,5.1,0,0,1-1.072-3.486V10.32h3.949v8.238a1.419,1.419,0,0,0,1.582,1.629,2.064,2.064,0,0,0,1.934-.973V10.32H321.2V23h-3.7Zm11.344-1.441a1.756,1.756,0,0,0,1.289-.451,1.654,1.654,0,0,0,.445-1.26h3.7a4.384,4.384,0,0,1-1.494,3.422,5.558,5.558,0,0,1-3.85,1.336,5.627,5.627,0,0,1-4.359-1.734,6.834,6.834,0,0,1-1.594-4.8v-.164a7.723,7.723,0,0,1,.709-3.393,5.162,5.162,0,0,1,2.045-2.262,6.1,6.1,0,0,1,3.164-.791,5.488,5.488,0,0,1,3.926,1.371,4.863,4.863,0,0,1,1.453,3.715h-3.7a2.168,2.168,0,0,0-.48-1.512,1.658,1.658,0,0,0-1.289-.527q-1.535,0-1.793,1.957a13.809,13.809,0,0,0-.082,1.711,5.424,5.424,0,0,0,.457,2.648A1.582,1.582,0,0,0,328.725,20.188Zm12.469,0a1.756,1.756,0,0,0,1.289-.451,1.654,1.654,0,0,0,.445-1.26h3.7a4.384,4.384,0,0,1-1.494,3.422,5.558,5.558,0,0,1-3.85,1.336,5.627,5.627,0,0,1-4.359-1.734,6.834,6.834,0,0,1-1.594-4.8v-.164a7.723,7.723,0,0,1,.709-3.393,5.162,5.162,0,0,1,2.045-2.262,6.1,6.1,0,0,1,3.164-.791,5.488,5.488,0,0,1,3.926,1.371,4.863,4.863,0,0,1,1.453,3.715h-3.7a2.168,2.168,0,0,0-.48-1.512,1.658,1.658,0,0,0-1.289-.527q-1.535,0-1.793,1.957a13.809,13.809,0,0,0-.082,1.711,5.424,5.424,0,0,0,.457,2.648A1.582,1.582,0,0,0,341.193,20.188ZM352.467,23h-3.961V10.32h3.961Zm-4.2-15.949a1.763,1.763,0,0,1,.609-1.383,2.591,2.591,0,0,1,3.164,0,1.763,1.763,0,0,1,.609,1.383,1.763,1.763,0,0,1-.609,1.383,2.591,2.591,0,0,1-3.164,0A1.763,1.763,0,0,1,348.271,7.051Zm6.129,9.492a7.484,7.484,0,0,1,.738-3.381,5.28,5.28,0,0,1,2.121-2.279,6.388,6.388,0,0,1,3.246-.8,5.83,5.83,0,0,1,4.488,1.764,6.768,6.768,0,0,1,1.641,4.8v.141a6.566,6.566,0,0,1-1.646,4.705,5.846,5.846,0,0,1-4.459,1.74,5.912,5.912,0,0,1-4.348-1.623,6.348,6.348,0,0,1-1.77-4.4Zm3.949.246a4.718,4.718,0,0,0,.551,2.578,1.835,1.835,0,0,0,1.629.82q2.109,0,2.156-3.246v-.4q0-3.41-2.18-3.41-1.98,0-2.145,2.941ZM361.045,5h4.172l-3.258,3.68-3.223-.006ZM372,10.32l.129,1.488a4.3,4.3,0,0,1,3.621-1.723,3.618,3.618,0,0,1,2.959,1.184,5.635,5.635,0,0,1,1.014,3.563V23h-3.961V15a2.14,2.14,0,0,0-.387-1.412,1.789,1.789,0,0,0-1.406-.451,1.883,1.883,0,0,0-1.723.914V23H368.3V10.32ZM395.029,23a4.459,4.459,0,0,1-.375-1.137,3.672,3.672,0,0,1-3.047,1.371,4.5,4.5,0,0,1-3.047-1.084,3.45,3.45,0,0,1-1.254-2.725,3.546,3.546,0,0,1,1.523-3.117,7.761,7.761,0,0,1,4.43-1.055h1.219v-.671q0-1.755-1.512-1.755a1.236,1.236,0,0,0-1.406,1.39h-3.949a3.54,3.54,0,0,1,1.564-2.985,6.575,6.575,0,0,1,3.99-1.147A5.764,5.764,0,0,1,397,11.27a4.115,4.115,0,0,1,1.441,3.246v5.613a5.748,5.748,0,0,0,.539,2.672V23Zm-2.473-2.578a2.2,2.2,0,0,0,1.225-.316,1.983,1.983,0,0,0,.7-.715V17.363H393.33q-2.062,0-2.062,1.852a1.131,1.131,0,0,0,.363.873A1.315,1.315,0,0,0,392.557,20.422Zm11.7-10.1.129,1.488A4.3,4.3,0,0,1,408,10.086a3.618,3.618,0,0,1,2.959,1.184,5.635,5.635,0,0,1,1.014,3.563V23h-3.961V15a2.14,2.14,0,0,0-.387-1.412,1.789,1.789,0,0,0-1.406-.451,1.883,1.883,0,0,0-1.723.914V23h-3.949V10.32Zm17.461,11.309a4.072,4.072,0,0,1-3.387,1.605,3.993,3.993,0,0,1-3.158-1.213,5.1,5.1,0,0,1-1.072-3.486V10.32h3.949v8.238a1.419,1.419,0,0,0,1.582,1.629,2.064,2.064,0,0,0,1.934-.973V10.32h3.973V23h-3.7ZM434.838,23a4.459,4.459,0,0,1-.375-1.137,3.672,3.672,0,0,1-3.047,1.371,4.5,4.5,0,0,1-3.047-1.084,3.45,3.45,0,0,1-1.254-2.725,3.546,3.546,0,0,1,1.523-3.117,7.761,7.761,0,0,1,4.43-1.055h1.219v-.671q0-1.755-1.512-1.755a1.236,1.236,0,0,0-1.406,1.39H427.42a3.54,3.54,0,0,1,1.564-2.985,6.575,6.575,0,0,1,3.99-1.147,5.764,5.764,0,0,1,3.832,1.184,4.115,4.115,0,0,1,1.441,3.246v5.613a5.748,5.748,0,0,0,.539,2.672V23Zm-2.473-2.578a2.2,2.2,0,0,0,1.225-.316,1.983,1.983,0,0,0,.7-.715V17.363h-1.148q-2.062,0-2.062,1.852a1.131,1.131,0,0,0,.363.873A1.315,1.315,0,0,0,432.365,20.422ZM444.6,23h-3.961V5H444.6Zm7.91-6.434a7.746,7.746,0,0,1,1.3-4.746,4.282,4.282,0,0,1,3.633-1.734,3.641,3.641,0,0,1,2.859,1.336V5h3.961V23h-3.551l-.2-1.359a3.739,3.739,0,0,1-3.094,1.594,4.274,4.274,0,0,1-3.586-1.734A7.991,7.991,0,0,1,452.51,16.566Zm3.949.246q0,3.375,1.969,3.375a1.944,1.944,0,0,0,1.875-1.1V14.258a1.892,1.892,0,0,0-1.852-1.125q-1.828,0-1.98,2.953Zm16.184,6.422a6.518,6.518,0,0,1-4.723-1.74,6.009,6.009,0,0,1-1.8-4.529v-.328a7.787,7.787,0,0,1,.721-3.434,5.274,5.274,0,0,1,2.1-2.3,6.35,6.35,0,0,1,3.281-.814,5.489,5.489,0,0,1,4.219,1.658,6.516,6.516,0,0,1,1.547,4.623V17.9h-7.852a2.846,2.846,0,0,0,.926,1.676,2.755,2.755,0,0,0,1.852.609,3.549,3.549,0,0,0,2.93-1.312l1.8,2.133a5.045,5.045,0,0,1-2.092,1.623A7.069,7.069,0,0,1,472.643,23.234Zm-.445-10.1q-1.734,0-2.062,2.3h3.984v-.3a1.956,1.956,0,0,0-.48-1.471A1.912,1.912,0,0,0,472.2,13.133Zm27.34,4.09a6.231,6.231,0,0,1-.961,3.146,5.8,5.8,0,0,1-2.467,2.115,8.4,8.4,0,0,1-3.627.75,6.7,6.7,0,0,1-5.3-2.191,9.048,9.048,0,0,1-1.934-6.187v-.844a10.328,10.328,0,0,1,.873-4.389,6.615,6.615,0,0,1,2.514-2.906,7.013,7.013,0,0,1,3.8-1.025,7.354,7.354,0,0,1,4.992,1.635,6.459,6.459,0,0,1,2.145,4.506h-4.1a3.056,3.056,0,0,0-.785-2.238,3.229,3.229,0,0,0-2.25-.68,2.457,2.457,0,0,0-2.25,1.148,7.381,7.381,0,0,0-.75,3.668v1.207a8.167,8.167,0,0,0,.686,3.9,2.509,2.509,0,0,0,2.361,1.172,3.159,3.159,0,0,0,2.168-.668,2.835,2.835,0,0,0,.8-2.121ZM508.443,23a4.459,4.459,0,0,1-.375-1.137,3.672,3.672,0,0,1-3.047,1.371,4.5,4.5,0,0,1-3.047-1.084,3.45,3.45,0,0,1-1.254-2.725,3.546,3.546,0,0,1,1.523-3.117,7.761,7.761,0,0,1,4.43-1.055h1.219v-.671q0-1.755-1.512-1.755a1.236,1.236,0,0,0-1.406,1.39h-3.949a3.54,3.54,0,0,1,1.564-2.985,6.575,6.575,0,0,1,3.99-1.147,5.764,5.764,0,0,1,3.832,1.184,4.115,4.115,0,0,1,1.441,3.246v5.613a5.748,5.748,0,0,0,.539,2.672V23Zm-2.473-2.578a2.2,2.2,0,0,0,1.225-.316,1.983,1.983,0,0,0,.7-.715V17.363h-1.148q-2.062,0-2.062,1.852a1.131,1.131,0,0,0,.363.873A1.315,1.315,0,0,0,505.971,20.422Zm15.738-6.527-1.3-.094a2.336,2.336,0,0,0-2.391,1.172V23h-3.949V10.32h3.7l.129,1.629a3.058,3.058,0,0,1,2.777-1.863,3.851,3.851,0,0,1,1.1.141Zm13.2,2.871a7.728,7.728,0,0,1-1.289,4.793,4.318,4.318,0,0,1-3.633,1.676,3.747,3.747,0,0,1-3.117-1.535L526.7,23h-3.539V5h3.949v6.34a3.615,3.615,0,0,1,2.848-1.254,4.319,4.319,0,0,1,3.656,1.7,7.768,7.768,0,0,1,1.289,4.781Zm-3.961-.252a5.155,5.155,0,0,0-.486-2.6,1.639,1.639,0,0,0-1.494-.778,1.891,1.891,0,0,0-1.852,1.018v5.031a1.9,1.9,0,0,0,1.875,1.006,1.677,1.677,0,0,0,1.77-1.357A9.745,9.745,0,0,0,530.943,16.514Zm5.2.029a7.484,7.484,0,0,1,.738-3.381,5.28,5.28,0,0,1,2.121-2.279,6.388,6.388,0,0,1,3.246-.8,5.83,5.83,0,0,1,4.488,1.764,6.768,6.768,0,0,1,1.641,4.8v.141a6.566,6.566,0,0,1-1.646,4.705,5.846,5.846,0,0,1-4.459,1.74,5.912,5.912,0,0,1-4.348-1.623,6.348,6.348,0,0,1-1.77-4.4Zm3.949.246a4.718,4.718,0,0,0,.551,2.578,1.835,1.835,0,0,0,1.629.82q2.109,0,2.156-3.246v-.4q0-3.41-2.18-3.41-1.98,0-2.145,2.941ZM542.791,5h4.172l-3.258,3.68-3.223-.006Zm10.957,5.32.129,1.488a4.3,4.3,0,0,1,3.621-1.723,3.618,3.618,0,0,1,2.959,1.184,5.635,5.635,0,0,1,1.014,3.563V23H557.51V15a2.14,2.14,0,0,0-.387-1.412,1.789,1.789,0,0,0-1.406-.451,1.883,1.883,0,0,0-1.723.914V23h-3.949V10.32Z" transform="translate(600 8865)" fill="#12263f"/>
  </g>
</svg>
