<svg id="Grupo_888330" data-name="Grupo 888330" xmlns="http://www.w3.org/2000/svg" xmlns:xlink="http://www.w3.org/1999/xlink" width="295" height="230.09" viewBox="0 0 295 230.09">
  <defs>
    <clipPath id="clip-path">
      <rect id="Rectángulo_325966" data-name="Rectángulo 325966" width="295" height="230.09" fill="none"/>
    </clipPath>
    <clipPath id="clip-path-2">
      <rect id="Rectángulo_325965" data-name="Rectángulo 325965" width="294.999" height="230.09" fill="none"/>
    </clipPath>
    <clipPath id="clip-path-3">
      <rect id="Rectángulo_325963" data-name="Rectángulo 325963" width="26.56" height="14.574" fill="none"/>
    </clipPath>
    <clipPath id="clip-path-4">
      <rect id="Rectángulo_325964" data-name="Rectángulo 325964" width="28.241" height="35.99" fill="none"/>
    </clipPath>
  </defs>
  <g id="Grupo_888329" data-name="Grupo 888329" clip-path="url(#clip-path)">
    <g id="Grupo_888328" data-name="Grupo 888328" transform="translate(0 0)">
      <g id="Grupo_888327" data-name="Grupo 888327" clip-path="url(#clip-path-2)">
        <path id="Trazado_623160" data-name="Trazado 623160" d="M147.889,217.823c38.46,0,73.852.576,101.94,1.54,68.736-39.289,44.935-115.87,20.255-159.187C235.736-.112,154.574-21.779,121,26.321,75.434,91.611,31.477,68.827,7.741,118.412s12.311,97.12,38.208,100.951c28.086-.964,63.48-1.54,101.94-1.54" transform="translate(0 0.001)" fill="#eaeff8" fill-rule="evenodd"/>
        <path id="Trazado_623161" data-name="Trazado 623161" d="M221.316,1457.563c74.637,0,135.141,3.242,135.141,7.241s-60.5,7.241-135.141,7.241-135.14-3.241-135.14-7.241,60.5-7.241,135.14-7.241" transform="translate(-73.429 -1241.956)" fill="#d2dfee" fill-rule="evenodd"/>
        <path id="Trazado_623162" data-name="Trazado 623162" d="M1135.658,107.96c41.293,9.2,67.572,47.176,70.147,65.511,1.055,7.523-.9-10.083-21.967-26.115-18.827-14.328-33.484-16.983-55.881-18.713-15.828-1.224-32.4-3.169-31.225-12.61.931-7.455,12.266-14.013,38.926-8.073" transform="translate(-934.45 -90.025)" fill="#fff" fill-rule="evenodd"/>
        <path id="Trazado_623163" data-name="Trazado 623163" d="M863.695,231.319c-.591,8.122-1.789,9.242-9.533,9.868,7.743.625,8.942,1.746,9.533,9.867.591-8.122,1.79-9.243,9.533-9.867-7.743-.626-8.942-1.746-9.533-9.868m31.477,21.42c-.315,4.337-.956,4.935-5.089,5.269,4.133.334,4.774.932,5.089,5.268.316-4.336.956-4.934,5.09-5.268-4.135-.334-4.774-.932-5.09-5.269m-13.785-33.373c-.32,4.392-.969,5-5.155,5.336,4.186.338,4.834.944,5.155,5.335.321-4.391.967-5,5.155-5.335-4.188-.338-4.834-.944-5.155-5.336" transform="translate(-727.812 -186.917)" fill="#fff" fill-rule="evenodd"/>
        <path id="Trazado_623164" data-name="Trazado 623164" d="M670.8,1144.591c.479,6.58,1.449,7.488,7.723,7.994-6.273.507-7.244,1.414-7.723,7.994-.48-6.579-1.45-7.487-7.723-7.994,6.273-.507,7.244-1.414,7.723-7.994m-25.5,17.353c.256,3.513.775,4,4.124,4.269-3.349.27-3.867.756-4.124,4.268-.255-3.512-.773-4-4.123-4.268,3.349-.271,3.868-.756,4.123-4.269m11.168-27.036c.259,3.558.784,4.049,4.176,4.323-3.392.274-3.917.765-4.176,4.322-.259-3.557-.784-4.047-4.176-4.322,3.392-.274,3.917-.765,4.176-4.323" transform="translate(-546.334 -967.029)" fill="#fff" fill-rule="evenodd"/>
        <path id="Trazado_623165" data-name="Trazado 623165" d="M1484.875,1048.014c-.368,5.038-1.111,5.732-5.914,6.121,4.8.387,5.546,1.083,5.914,6.121.366-5.038,1.109-5.735,5.913-6.121-4.8-.389-5.547-1.083-5.913-6.121M1504.4,1061.3c-.2,2.691-.592,3.062-3.157,3.268,2.564.208,2.961.578,3.157,3.268.2-2.689.592-3.06,3.158-3.268-2.565-.206-2.961-.577-3.158-3.268m-8.55-20.7c-.2,2.724-.6,3.1-3.2,3.309,2.6.21,3,.587,3.2,3.311.2-2.724.6-3.1,3.2-3.311-2.6-.209-3-.585-3.2-3.309" transform="translate(-1260.189 -886.671)" fill="#fff" fill-rule="evenodd"/>
        <path id="Trazado_623166" data-name="Trazado 623166" d="M1321.768,867.183h41.7a2.873,2.873,0,0,0-2.8-2.209c-.065,0-.13,0-.194.007a4.418,4.418,0,0,0-6.311-2.151,6.389,6.389,0,0,0-7.8-4.3,8.885,8.885,0,0,0-16.785,1.81c-.072,0-.144,0-.215,0a5.371,5.371,0,0,0-5.328,4.69,2.873,2.873,0,0,0-2.263,2.16" transform="translate(-1126.248 -727.082)" fill="#fff" fill-rule="evenodd"/>
        <path id="Trazado_623167" data-name="Trazado 623167" d="M416.274,861.565h41.7a2.873,2.873,0,0,0-2.8-2.21c-.065,0-.131,0-.2.008a4.42,4.42,0,0,0-6.31-2.151,6.39,6.39,0,0,0-7.805-4.3,8.885,8.885,0,0,0-16.784,1.81c-.073,0-.144,0-.216,0a5.37,5.37,0,0,0-5.326,4.69,2.878,2.878,0,0,0-2.264,2.16" transform="translate(-354.698 -722.296)" fill="#fff" fill-rule="evenodd"/>
        <path id="Trazado_623168" data-name="Trazado 623168" d="M436.431,165.85c-.639-2.551-2.191-3.512-3.585-3.246s-2.258,1.19-2.213,3.362a1.653,1.653,0,0,0-1.326-.8c-1.018-.218-2.937,1.325-3.375,3.851-.643-1.747-2.336-3.124-3.944-1.66s-.614,2.594-1.983,3.067c-2.869-3.01-7.015.7-7.34,3.036.286,1.629-.927,1.88-3.135,3.074-2.546,1.378-4.186,6-3.745,5.691,2.35-1.648,4.494-1.406,7.308-1.942a10.9,10.9,0,0,0,4.653-1.668,3.117,3.117,0,0,0,2.871,1.451,2.867,2.867,0,0,0,2.038-2.106c.885,1.043,2.313,2.11,3.364,1.9.145,3.2,5.251,4.771,7.052,1.109,1.543-3.566,2.452.57,4.271.47s1.961-3.322,2.292-5.072c.316.139.141.283.964.126s1.92-2.962,1.628-4.493a4.087,4.087,0,0,0-.836-2.173c.06-.5.194-.247-.058-1.574s-2.473-3.488-3.519-3.288-1.022.421-1.382.881m-50.788,22.1a8.356,8.356,0,0,1,1.415,4.549H377.69a8.36,8.36,0,0,1,1.414-4.549Zm-17.951,45.431h7.834l1.868-37.159h9.959l1.868,37.159h9.15l1.867-37.159H410.2l1.868,37.159h6.7v4.343H367.692Zm40.795-45.431A8.356,8.356,0,0,1,409.9,192.5h-9.367a8.36,8.36,0,0,1,1.415-4.549Zm5.443-21.027a2.056,2.056,0,0,1,1.382-.882,2.8,2.8,0,0,1,2.337.892,6.915,6.915,0,0,0-4.214,1.463,7.727,7.727,0,0,0-3.111,4.739l-.051.365c-.552.325-1.483.746-1.867.954-2.642,1.43-3.578,3.976-4.887,6.481-1.052.208-2.479-.86-3.364-1.9a2.867,2.867,0,0,1-2.038,2.105,3.114,3.114,0,0,1-2.87-1.452,10.894,10.894,0,0,1-4.654,1.669c-2.813.537-4.958.295-7.307,1.942-.442.31,1.2-4.314,3.744-5.691,2.208-1.194,3.422-1.445,3.136-3.074.325-2.333,4.47-6.046,7.339-3.036,1.368-.473.375-1.6,1.983-3.068s3.3-.087,3.943,1.66c.437-2.526,2.356-4.069,3.374-3.852a1.654,1.654,0,0,1,1.325.8c-.045-2.172.819-3.1,2.213-3.361s2.947.695,3.585,3.246" transform="translate(-313.302 -138.514)" fill="#f57a44" fill-rule="evenodd"/>
        <path id="Trazado_623169" data-name="Trazado 623169" d="M418.158,237.111H366.827v-4.6h7.841l1.868-37.159h10.2l.006.121,1.861,37.038h8.907l1.867-37.159h10.2l.006.121,1.861,37.038h6.709Zm-51.075-.256H417.9v-4.087h-6.7l-.007-.122-1.861-37.038h-9.716l-1.867,37.159h-9.393l-.006-.122-1.861-37.038h-9.716l-1.868,37.159h-7.828Zm42.224-44.969h-9.651l.014-.141a8.532,8.532,0,0,1,1.445-4.619l.038-.045h6.656l.038.045a8.526,8.526,0,0,1,1.445,4.619Zm-9.367-.256h9.083a8.233,8.233,0,0,0-1.332-4.294h-6.419a8.235,8.235,0,0,0-1.332,4.294m-13.478.256h-9.65l.014-.141a8.53,8.53,0,0,1,1.444-4.619l.038-.045h6.656l.038.045a8.521,8.521,0,0,1,1.445,4.619Zm-9.367-.256h9.084a8.228,8.228,0,0,0-1.333-4.294h-6.419a8.237,8.237,0,0,0-1.332,4.294m5.417-8.931a.161.161,0,0,1-.155-.13c-.114-.451,1.488-4.526,3.875-5.818.377-.2.725-.38,1.041-.54,1.545-.783,2.25-1.14,2.029-2.4l0-.02,0-.02c.234-1.681,2.484-4.273,4.994-4.273a3.439,3.439,0,0,1,2.506,1.107c.548-.215.626-.548.742-1.041a3.384,3.384,0,0,1,1.121-1.973,2.225,2.225,0,0,1,1.505-.65,3.05,3.05,0,0,1,2.483,1.977c.583-2.4,2.441-3.766,3.442-3.548.783.167.95.311,1.172.582.049-1.826.809-2.855,2.317-3.142a2.517,2.517,0,0,1,.474-.045c1.452,0,2.634,1.169,3.194,3.143a2.1,2.1,0,0,1,1.3-.734,1.847,1.847,0,0,1,.341-.031A3.1,3.1,0,0,1,417,166.1l.212.222-.408-.006a6.794,6.794,0,0,0-4.034,1.439,7.62,7.62,0,0,0-3.061,4.653l-.06.427-.053.031c-.348.2-.832.441-1.258.649-.248.121-.469.229-.613.307-2.216,1.2-3.213,3.2-4.27,5.315-.185.369-.37.742-.564,1.113l-.028.054-.06.012a1.546,1.546,0,0,1-.3.028,4.884,4.884,0,0,1-3.043-1.81,2.879,2.879,0,0,1-2.06,1.985,3.19,3.19,0,0,1-2.924-1.409,10.98,10.98,0,0,1-4.6,1.626c-.769.147-1.483.235-2.172.32a10.1,10.1,0,0,0-5.085,1.6.19.19,0,0,1-.11.038m7.046-8.91c.242,1.43-.617,1.865-2.169,2.652-.315.159-.661.334-1.036.538-2.107,1.14-3.555,4.551-3.731,5.373a10.477,10.477,0,0,1,5.053-1.545c.686-.085,1.4-.172,2.157-.318a10.764,10.764,0,0,0,4.6-1.648l.1-.06.077.087a2.991,2.991,0,0,0,2.744,1.4,2.808,2.808,0,0,0,1.942-2.022l.074-.21.145.17c.849,1,2.213,2.007,3.182,1.87.182-.352.358-.7.532-1.053,1.075-2.153,2.09-4.188,4.377-5.426.146-.079.37-.188.622-.311.381-.186.851-.416,1.188-.609l.043-.3a7.884,7.884,0,0,1,3.161-4.824,7.122,7.122,0,0,1,3.969-1.485,2.783,2.783,0,0,0-1.7-.667,1.577,1.577,0,0,0-.293.026,1.94,1.94,0,0,0-1.305.835l-.161.206-.064-.254c-.5-2-1.626-3.192-3.01-3.192a2.313,2.313,0,0,0-.427.041c-1.478.282-2.148,1.309-2.109,3.233l.007.33-.227-.24c-.087-.091-.151-.17-.208-.241-.195-.241-.292-.362-1.051-.524-.919-.2-2.8,1.305-3.221,3.749l-.082.47-.165-.448c-.4-1.092-1.3-2.194-2.4-2.194a1.979,1.979,0,0,0-1.333.584,3.156,3.156,0,0,0-1.044,1.842,1.4,1.4,0,0,1-.984,1.252l-.077.027-.057-.06a3.215,3.215,0,0,0-2.379-1.088c-2.3,0-4.5,2.433-4.738,4.034m39.494,8.684a3.81,3.81,0,0,1-3.888-3.2c-1.065.1-2.378-.889-3.2-1.8a2.879,2.879,0,0,1-2.058,1.985,3.193,3.193,0,0,1-2.925-1.408,10.978,10.978,0,0,1-4.6,1.625c-.768.147-1.481.235-2.171.32a10.11,10.11,0,0,0-5.087,1.6.189.189,0,0,1-.11.038.16.16,0,0,1-.155-.129c-.114-.451,1.488-4.527,3.875-5.818.377-.2.724-.38,1.041-.54,1.545-.783,2.25-1.14,2.029-2.4l0-.02,0-.02c.234-1.681,2.484-4.274,4.995-4.274a3.439,3.439,0,0,1,2.506,1.107c.547-.215.626-.548.742-1.041a3.375,3.375,0,0,1,1.12-1.973,2.225,2.225,0,0,1,1.505-.65,3.048,3.048,0,0,1,2.483,1.976c.583-2.394,2.439-3.762,3.443-3.547.782.166.949.31,1.172.581.048-1.826.808-2.855,2.317-3.142a2.519,2.519,0,0,1,.474-.045c1.447,0,2.626,1.163,3.19,3.126.258-.365.426-.549,1.3-.716,1.09-.222,3.394,1.952,3.668,3.39.187.98.168,1.125.109,1.36a1.833,1.833,0,0,0-.043.208c.046.072.09.135.13.195a4.148,4.148,0,0,1,.7,1.984c.3,1.556-.787,4.463-1.73,4.643-.66.128-.768.048-.89-.044l0,0c-.041.233-.079.487-.119.753-.28,1.85-.628,4.152-2.259,4.242-.75.045-1.349-.574-1.873-1.115-.4-.415-.781-.808-1.137-.808-.374,0-.75.45-1.151,1.375a3.707,3.707,0,0,1-3.4,2.19m-3.649-3.5.007.149a3.526,3.526,0,0,0,3.642,3.1,3.457,3.457,0,0,0,3.168-2.042c.448-1.037.889-1.523,1.383-1.523.465,0,.881.43,1.321.885.494.511,1.006,1.039,1.617,1.039l.058,0c1.422-.078,1.754-2.266,2.019-4.025.051-.34.1-.661.154-.943l.029-.159.147.065a.906.906,0,0,1,.2.12.244.244,0,0,0,.191.064,2.965,2.965,0,0,0,.5-.066c.742-.142,1.811-2.849,1.526-4.344a3.915,3.915,0,0,0-.66-1.888c-.049-.072-.1-.149-.159-.24l-.025-.039.005-.046a2.083,2.083,0,0,1,.055-.285c.047-.182.072-.283-.112-1.249-.244-1.274-2.389-3.357-3.37-3.186-.82.157-.93.311-1.147.619-.046.066-.1.137-.158.215l-.161.206-.064-.254c-.5-2-1.626-3.192-3.011-3.192a2.3,2.3,0,0,0-.426.041c-1.479.282-2.149,1.309-2.109,3.233l.007.33-.227-.239c-.087-.091-.151-.17-.208-.241-.195-.241-.293-.362-1.051-.524a.849.849,0,0,0-.175-.017c-.977,0-2.649,1.467-3.047,3.766l-.082.47-.165-.448c-.4-1.092-1.3-2.193-2.4-2.193a1.979,1.979,0,0,0-1.333.584,3.155,3.155,0,0,0-1.044,1.842,1.4,1.4,0,0,1-.984,1.252l-.077.027-.057-.06a3.215,3.215,0,0,0-2.379-1.088c-2.3,0-4.5,2.433-4.738,4.034.242,1.429-.616,1.864-2.169,2.651-.314.16-.66.335-1.035.538-2.106,1.139-3.554,4.55-3.732,5.373a10.489,10.489,0,0,1,5.056-1.545c.685-.085,1.394-.172,2.155-.317a10.766,10.766,0,0,0,4.6-1.647l.1-.06.077.087a3,3,0,0,0,2.746,1.4,2.809,2.809,0,0,0,1.94-2.022l.074-.211.145.17a4.859,4.859,0,0,0,2.99,1.883,1.315,1.315,0,0,0,.251-.024Z" transform="translate(-312.565 -137.776)" fill="#f57a44"/>
        <path id="Trazado_623170" data-name="Trazado 623170" d="M1085.716,604.613a2.4,2.4,0,0,1,1.273-.926,2.329,2.329,0,0,1,1.106-.044,1.971,1.971,0,0,1,2.378-.9,1.432,1.432,0,0,1,.755-.567,1.781,1.781,0,0,1,.7-.028,2.311,2.311,0,0,1,.576.145,1.576,1.576,0,0,1,.478-.658,1.381,1.381,0,0,1,1.129-.315,1.318,1.318,0,0,1,.76.507,1.55,1.55,0,0,1,.423-1.126,1.571,1.571,0,0,1,1.6-.3c.974.351,1.238,1.65,1.238,2.368a3.1,3.1,0,0,1-.377,1.46l-.016-.034-12.029.423" transform="translate(-925.114 -511.501)" fill="#61a0e0" fill-rule="evenodd"/>
        <path id="Trazado_623171" data-name="Trazado 623171" d="M1085.669,605.928a3.453,3.453,0,0,1,1.508-.7,3.412,3.412,0,0,1,1.061-.034,1.973,1.973,0,0,1,2.377-.905,1.441,1.441,0,0,1,.755-.566,1.771,1.771,0,0,1,.7-.028,2.269,2.269,0,0,1,.576.145,1.556,1.556,0,0,1,.477-.658,1.385,1.385,0,0,1,1.13-.315,1.306,1.306,0,0,1,.759.507,1.45,1.45,0,0,1,2.026-1.426c.974.351,1.238,1.649,1.238,2.369a3.116,3.116,0,0,1-.377,1.46.109.109,0,0,0-.008-.017c0-.006,0-.011-.008-.016l-12.219.19" transform="translate(-925.073 -512.819)" fill="#8bbae9" fill-rule="evenodd"/>
        <path id="Trazado_623172" data-name="Trazado 623172" d="M1125.938,478.151a1.619,1.619,0,0,0,.756-1.791,1.6,1.6,0,0,0-.945-.938,2.382,2.382,0,0,0-.035-1.081,4.766,4.766,0,0,0-1.473-2.612,2.487,2.487,0,0,0-3.5.381,1.8,1.8,0,0,0-1.211-.214,1.951,1.951,0,0,0-1.228.877,3.184,3.184,0,0,0-3.448.065,3.808,3.808,0,0,0-1.753,3.544c-1.9.853-2.741,4.246-2.271,5.99a3.786,3.786,0,0,0,3.927,2.817,3.722,3.722,0,0,0,3.844,3.256,3.919,3.919,0,0,0,4.129-3.838,3.54,3.54,0,0,0,1.65-.429,4.568,4.568,0,0,0,2.289-2.525,4.785,4.785,0,0,0-.728-3.5" transform="translate(-946.401 -401.48)" fill="#bbdbfa" fill-rule="evenodd"/>
        <path id="Trazado_623173" data-name="Trazado 623173" d="M1114.753,491.642a3.722,3.722,0,0,0,3.844,3.256,3.919,3.919,0,0,0,4.128-3.838,3.542,3.542,0,0,0,1.65-.429,4.568,4.568,0,0,0,2.289-2.525,2.715,2.715,0,0,0,.074-.4c-1.428.829-2.772-1.079-2.772-1.079s-.494,2.432-2.636,2.185-2.391-3.708-2.391-3.708-1.9.577-2-3.049a6.1,6.1,0,0,1,.722-3.148,3.3,3.3,0,0,0-2.81.378,3.809,3.809,0,0,0-1.753,3.544c-1.9.853-2.742,4.245-2.272,5.99a3.786,3.786,0,0,0,3.927,2.816" transform="translate(-946.401 -407.934)" fill="#a4d0fc" fill-rule="evenodd"/>
        <path id="Trazado_623174" data-name="Trazado 623174" d="M1070.129,430.787a5.605,5.605,0,0,0-3.432-1.717,3.249,3.249,0,0,0-.667-.008c-.951-1.912-4.18-3.6-5.617-1.1a1.7,1.7,0,0,0-1.048-.1c-.832.2-.989.985-.833,1.7a3.934,3.934,0,0,0-2.675,2.124,4.1,4.1,0,0,0,1.284,4.564,3.628,3.628,0,0,0,1.388,4.387,2.952,2.952,0,0,0,3.356.184,1.848,1.848,0,0,0,.96.773,1.809,1.809,0,0,0,1.3-.119,3.018,3.018,0,0,0,1.319.717,4.377,4.377,0,0,0,4.116-1.483,4.325,4.325,0,0,0,.746-4.892,3.745,3.745,0,0,0-.2-5.021" transform="translate(-899.466 -363.585)" fill="#bbdbfa" fill-rule="evenodd"/>
        <path id="Trazado_623175" data-name="Trazado 623175" d="M1069.58,460.177a4.44,4.44,0,0,0,1.155-2.42c-2.836,1.639-4.06-2.046-4.06-2.046a2.651,2.651,0,0,1-3.268,2.385c-3.062-.417-2.114-4.125-2.114-4.125s-1.237.993-3.543-.848a2.357,2.357,0,0,1-.5-3.561,3.951,3.951,0,0,0-1.4,1.592,4.1,4.1,0,0,0,1.284,4.564,3.629,3.629,0,0,0,1.389,4.387,2.953,2.953,0,0,0,3.356.184,1.847,1.847,0,0,0,.96.773,1.809,1.809,0,0,0,1.3-.119,3.016,3.016,0,0,0,1.319.717,2.832,2.832,0,0,0,.282.059c.332-.013.691-.014,1.078,0a4.948,4.948,0,0,0,2.755-1.54" transform="translate(-899.465 -383.062)" fill="#a4d0fc" fill-rule="evenodd"/>
        <path id="Trazado_623176" data-name="Trazado 623176" d="M1099.956,310.571a4.662,4.662,0,0,0-2.418-2.444,4.537,4.537,0,0,0-4-4.354,4.462,4.462,0,0,0-3.3,1.077,1.61,1.61,0,0,0-2.336-.728,2.244,2.244,0,0,0-1.016,1.6c-1.9-.7-4.729,1.338-5.611,2.782a6.326,6.326,0,0,0-.123,6.148,2.718,2.718,0,0,0,.075,2.565,2.562,2.562,0,0,0,1.658,1.489,2.049,2.049,0,0,0,.992-.111,3.027,3.027,0,0,0,1.3,1.776,3.226,3.226,0,0,0,2.814.23,2.763,2.763,0,0,0,1.9.952,2.192,2.192,0,0,0,1.815-.725,3.252,3.252,0,0,0,1.8,1.184c1.467.366,2.934-.548,3.974-1.5a3.93,3.93,0,0,0,1.071-4.365l-.076-.25a4.389,4.389,0,0,0,1.472-5.32" transform="translate(-920.594 -258.82)" fill="#bbdbfa" fill-rule="evenodd"/>
        <path id="Trazado_623177" data-name="Trazado 623177" d="M1091.715,333.136a3.252,3.252,0,0,0,1.8,1.184c1.467.366,2.934-.548,3.974-1.5a3.725,3.725,0,0,0,1.3-2.549,2.921,2.921,0,0,1-2.275.653c-2.555-.248-2.8-4.45-2.8-4.45s-.95,2.717-4.162,1.514-2.1-3.821-2.1-3.821-2.389,1.319-4.037-1.514c-.951-1.633.1-3.316,1.157-4.45a7.378,7.378,0,0,0-3.292,2.612,6.326,6.326,0,0,0-.123,6.148,2.718,2.718,0,0,0,.075,2.565,2.561,2.561,0,0,0,1.658,1.489,2.045,2.045,0,0,0,.992-.11,3.029,3.029,0,0,0,1.3,1.776,3.227,3.227,0,0,0,2.814.23,2.763,2.763,0,0,0,1.9.952,2.191,2.191,0,0,0,1.815-.725" transform="translate(-920.594 -271.131)" fill="#a4d0fc" fill-rule="evenodd"/>
        <path id="Trazado_623178" data-name="Trazado 623178" d="M1096.884,362.639a17.549,17.549,0,0,0-2.841,1.868l-.132-.082c.611-1.649,1.187-3.309,1.813-4.957.044-.116-.147-.2-.2-.085-1.209,2.447-2.487,4.827-3.553,7.345-.307.73-.648,1.469-.988,2.215-.09-.764-.185-1.529-.306-2.286q-.274-4.083-.458-8.173-.049-1.177-.09-2.355a8.872,8.872,0,0,1,.514-3.323,17.486,17.486,0,0,1,.87-2.022c1.328-2.608,3.1-4.9,3.825-7.784a.075.075,0,0,0-.145-.04,14.383,14.383,0,0,1-1.878,3.532,18.446,18.446,0,0,0-.575-3.574c-.014-.072-.124-.053-.125.017-.008.878.013,1.757.054,2.634v.02a5.143,5.143,0,0,1-.932,3.135,18.1,18.1,0,0,0-1.5,2.518q-.127.268-.242.542-.042-1.4-.084-2.8c.009-.8.015-1.6.006-2.4,0-.222,0-.444,0-.666a29.433,29.433,0,0,1,.331-3.941c.4-2.139,1.488-4.059,1.846-6.193a.081.081,0,0,0-.156-.043,36.511,36.511,0,0,1-1.731,3.483,10.8,10.8,0,0,0-.476,1.335c-.108-1.3-.265-2.605-.5-3.9-.012-.065-.106-.044-.11.015-.163,2.211-.207,4.432-.216,6.656a14.517,14.517,0,0,0-.814-1.219,45.709,45.709,0,0,0-3.636-4.088.027.027,0,0,0-.042.034c.706,1.091,1.463,2.149,2.189,3.226a7.47,7.47,0,0,0-3.175-.336.048.048,0,0,0-.011.094c1.321.311,2.709.342,3.661,1.392a10.905,10.905,0,0,1,.987,1.316c.145.315.283.634.413.956.059.148.108.279.155.4a28.466,28.466,0,0,1,.27,3.731c-.36,4.388-.869,8.785-1.177,13.176-.271-.535-.551-1.065-.854-1.586-.289-.5-.609-.974-.944-1.439a.244.244,0,0,0-.055-.075,56.643,56.643,0,0,1-4.2-5.668c-.022-.039-.091-.012-.074.031a29.106,29.106,0,0,0,2.17,3.735c.167.278.329.558.5.837a4.689,4.689,0,0,0-.665-.331,31.929,31.929,0,0,0-3.3-.963c-.044-.012-.074.054-.032.075,1.027.491,2.072.944,3.1,1.435a3.273,3.273,0,0,1,.523.324,7.322,7.322,0,0,1,2.028,2.317c.078.135.154.272.23.408q.344.617.67,1.242a6.322,6.322,0,0,1,.712,3.169c-.044,1.094-.069,2.186-.071,3.278a62.31,62.31,0,0,0-.082,10.148h5.362c-.019-.043-.037-.089-.054-.13-.4-2.373-.948-4.725-1.334-7.1v0a1.716,1.716,0,0,1,.1-.9c.483-1.242.927-2.5,1.421-3.693l.008-.019a6.567,6.567,0,0,1,2.114-2.723l.246-.188c.6-.462,1.088-1.035,1.681-1.5.024-.018-.008-.06-.032-.043" transform="translate(-920.453 -286.022)" fill="#8bbae9" fill-rule="evenodd"/>
        <path id="Trazado_623179" data-name="Trazado 623179" d="M1096.884,369.676a17.55,17.55,0,0,0-2.841,1.868l-.07-.043.007,0-.069-.043c.611-1.649,1.187-3.309,1.813-4.957a.089.089,0,0,0-.006-.078c-.477,1.1-1.682,3.878-2.107,5.023-.536,1.442-1.9,4.532-1.9,4.532a12.522,12.522,0,0,0-.386,2.41.043.043,0,0,1,0,.012,1.77,1.77,0,0,1,.115-.569c.483-1.242.927-2.5,1.421-3.693l.008-.019a6.57,6.57,0,0,1,2.114-2.723l.246-.188c.6-.462,1.088-1.035,1.681-1.5.024-.018-.008-.06-.032-.043m-2.91,1.826h0m-2.092-15.088a5.4,5.4,0,0,0,1.091-2.926,24.042,24.042,0,0,0-.306-3.574.063.063,0,0,0-.052.06c-.008.878.013,1.757.054,2.634v.02a5.143,5.143,0,0,1-.932,3.135,18.109,18.109,0,0,0-1.5,2.518c-.084.179-.165.36-.242.542l.118.991a21.054,21.054,0,0,1,1.773-3.4m-1.891,2.408s0,0,0-.007Zm1,27.215h-3.615a62.317,62.317,0,0,1,.082-10.149c0-1.091.027-2.184.071-3.278a6.32,6.32,0,0,0-.712-3.169q-.326-.626-.67-1.242c-.077-.137-.153-.273-.23-.408a7.329,7.329,0,0,0-2.028-2.317,3.3,3.3,0,0,0-.523-.323c-1.026-.492-2.071-.944-3.1-1.436-.042-.02-.011-.086.032-.074a31.635,31.635,0,0,1,3.3.963,4.629,4.629,0,0,1,.665.331c-.167-.279-.329-.559-.5-.838a29.062,29.062,0,0,1-2.17-3.735c-.017-.043.052-.07.074-.031.177.319.369.627.568.931a14.228,14.228,0,0,0,1.546,2.506,23.914,23.914,0,0,1,2.658,3.79c.536,1.01,1.4,3.028,1.4,3.028a10.675,10.675,0,0,1-.118-1.489h0c.308-4.39.817-8.787,1.177-13.175a28.458,28.458,0,0,0-.27-3.73c-.047-.12-.1-.251-.155-.4-.13-.322-.268-.641-.413-.956a10.911,10.911,0,0,0-.987-1.316c-.952-1.05-2.34-1.08-3.661-1.391a.048.048,0,0,1,.011-.095,7.489,7.489,0,0,1,3.175.337c-.727-1.077-1.483-2.136-2.189-3.227a.027.027,0,0,1,.042-.033l.34.359c.778.992,1.912,2.415,2.2,2.826a17.8,17.8,0,0,1,1.978,3.172l-.071-1.1c.01-2.148.053-4.293.206-6.43.09,1.4.208,3.313.256,4.443.082,1.937.124,9.023-.124,10.918a84.7,84.7,0,0,0-.247,15.574c.4,3.662,1.36,8.315,1.994,11.166" transform="translate(-920.453 -293.06)" fill="#61a0e0" fill-rule="evenodd"/>
        <path id="Trazado_623180" data-name="Trazado 623180" d="M1315.385,596.228a2.387,2.387,0,0,1,1.273-.925,2.333,2.333,0,0,1,1.106-.045,1.97,1.97,0,0,1,2.377-.9,1.432,1.432,0,0,1,.754-.566,1.769,1.769,0,0,1,.706-.029,2.336,2.336,0,0,1,.576.145,1.568,1.568,0,0,1,.477-.658,1.381,1.381,0,0,1,1.129-.315,1.317,1.317,0,0,1,.761.507,1.548,1.548,0,0,1,.423-1.125,1.57,1.57,0,0,1,1.6-.3c.974.351,1.238,1.65,1.238,2.368a3.109,3.109,0,0,1-.377,1.46c0-.011-.012-.022-.016-.033l-12.029.422" transform="translate(-1120.809 -504.355)" fill="#61a0e0" fill-rule="evenodd"/>
        <path id="Trazado_623181" data-name="Trazado 623181" d="M1315.338,597.543a3.453,3.453,0,0,1,1.508-.7,3.412,3.412,0,0,1,1.061-.034,1.972,1.972,0,0,1,2.377-.9,1.44,1.44,0,0,1,.754-.566,1.783,1.783,0,0,1,.706-.028,2.264,2.264,0,0,1,.576.145,1.556,1.556,0,0,1,.477-.658,1.383,1.383,0,0,1,1.129-.315,1.3,1.3,0,0,1,.76.507,1.449,1.449,0,0,1,2.025-1.426c.974.351,1.239,1.649,1.239,2.368a3.131,3.131,0,0,1-.377,1.46.135.135,0,0,1-.008-.017.093.093,0,0,1-.008-.017l-12.219.19" transform="translate(-1120.769 -505.674)" fill="#8bbae9" fill-rule="evenodd"/>
        <path id="Trazado_623182" data-name="Trazado 623182" d="M1355.6,469.767a1.619,1.619,0,0,0,.757-1.791,1.6,1.6,0,0,0-.946-.938,2.369,2.369,0,0,0-.035-1.081,4.764,4.764,0,0,0-1.472-2.612,2.487,2.487,0,0,0-3.5.381,1.8,1.8,0,0,0-1.212-.213,1.945,1.945,0,0,0-1.228.877,3.185,3.185,0,0,0-3.449.065,3.812,3.812,0,0,0-1.753,3.544c-1.9.853-2.74,4.245-2.27,5.99a3.784,3.784,0,0,0,3.927,2.816,3.721,3.721,0,0,0,3.844,3.256,3.92,3.92,0,0,0,4.129-3.838,3.546,3.546,0,0,0,1.65-.429,4.571,4.571,0,0,0,2.288-2.525,4.78,4.78,0,0,0-.728-3.5" transform="translate(-1142.096 -394.337)" fill="#bbdbfa" fill-rule="evenodd"/>
        <path id="Trazado_623183" data-name="Trazado 623183" d="M1344.421,483.257a3.721,3.721,0,0,0,3.844,3.256,3.92,3.92,0,0,0,4.129-3.838,3.544,3.544,0,0,0,1.65-.429,4.57,4.57,0,0,0,2.288-2.525,2.773,2.773,0,0,0,.075-.395c-1.428.829-2.772-1.078-2.772-1.078s-.493,2.432-2.636,2.184-2.391-3.708-2.391-3.708-1.9.577-2-3.048a6.1,6.1,0,0,1,.722-3.147,3.3,3.3,0,0,0-2.811.378,3.812,3.812,0,0,0-1.753,3.544c-1.9.853-2.74,4.246-2.271,5.99a3.784,3.784,0,0,0,3.927,2.816" transform="translate(-1142.095 -400.789)" fill="#a4d0fc" fill-rule="evenodd"/>
        <path id="Trazado_623184" data-name="Trazado 623184" d="M1299.79,422.4a5.606,5.606,0,0,0-3.431-1.717,3.276,3.276,0,0,0-.667-.008c-.951-1.912-4.18-3.6-5.617-1.1a1.7,1.7,0,0,0-1.048-.1c-.833.2-.99.985-.833,1.7a3.94,3.94,0,0,0-2.676,2.124,4.1,4.1,0,0,0,1.286,4.564,3.628,3.628,0,0,0,1.387,4.387,2.955,2.955,0,0,0,3.357.185,1.846,1.846,0,0,0,.96.772,1.807,1.807,0,0,0,1.3-.119,3.022,3.022,0,0,0,1.319.717,4.376,4.376,0,0,0,4.117-1.483,4.325,4.325,0,0,0,.746-4.892,3.744,3.744,0,0,0-.2-5.021" transform="translate(-1095.156 -356.44)" fill="#bbdbfa" fill-rule="evenodd"/>
        <path id="Trazado_623185" data-name="Trazado 623185" d="M1299.243,451.795a4.446,4.446,0,0,0,1.155-2.42c-2.836,1.639-4.06-2.046-4.06-2.046a2.651,2.651,0,0,1-3.269,2.385c-3.061-.417-2.114-4.124-2.114-4.124s-1.236.993-3.543-.848a2.356,2.356,0,0,1-.5-3.56,3.958,3.958,0,0,0-1.4,1.591,4.1,4.1,0,0,0,1.286,4.564,3.628,3.628,0,0,0,1.387,4.387,2.956,2.956,0,0,0,3.357.185,1.844,1.844,0,0,0,.96.772,1.806,1.806,0,0,0,1.3-.119,3.026,3.026,0,0,0,1.319.717,2.851,2.851,0,0,0,.282.059c.332-.013.692-.014,1.078,0a4.948,4.948,0,0,0,2.756-1.54" transform="translate(-1095.155 -375.92)" fill="#a4d0fc" fill-rule="evenodd"/>
        <path id="Trazado_623186" data-name="Trazado 623186" d="M1329.62,302.186a4.657,4.657,0,0,0-2.417-2.444,4.537,4.537,0,0,0-4-4.354,4.468,4.468,0,0,0-3.3,1.077,1.609,1.609,0,0,0-2.335-.729,2.243,2.243,0,0,0-1.016,1.6c-1.9-.7-4.73,1.338-5.612,2.782a6.326,6.326,0,0,0-.121,6.148,2.713,2.713,0,0,0,.075,2.565,2.559,2.559,0,0,0,1.658,1.489,2.045,2.045,0,0,0,.992-.111,3.029,3.029,0,0,0,1.3,1.776,3.222,3.222,0,0,0,2.814.229,2.762,2.762,0,0,0,1.9.953,2.19,2.19,0,0,0,1.814-.725,3.251,3.251,0,0,0,1.8,1.184c1.467.366,2.934-.548,3.974-1.5a3.93,3.93,0,0,0,1.07-4.365q-.037-.125-.077-.25a4.386,4.386,0,0,0,1.472-5.321" transform="translate(-1116.286 -251.676)" fill="#bbdbfa" fill-rule="evenodd"/>
        <path id="Trazado_623187" data-name="Trazado 623187" d="M1321.379,324.75a3.251,3.251,0,0,0,1.8,1.184c1.467.366,2.934-.548,3.974-1.5a3.727,3.727,0,0,0,1.3-2.549,2.918,2.918,0,0,1-2.274.653c-2.555-.248-2.8-4.45-2.8-4.45s-.949,2.717-4.161,1.514-2.1-3.821-2.1-3.821-2.388,1.319-4.037-1.514c-.95-1.633.1-3.316,1.158-4.45a7.384,7.384,0,0,0-3.293,2.612,6.327,6.327,0,0,0-.122,6.148,2.714,2.714,0,0,0,.075,2.565,2.558,2.558,0,0,0,1.658,1.489,2.044,2.044,0,0,0,.992-.111,3.03,3.03,0,0,0,1.3,1.776,3.222,3.222,0,0,0,2.814.229,2.762,2.762,0,0,0,1.9.953,2.19,2.19,0,0,0,1.814-.725" transform="translate(-1116.286 -263.985)" fill="#a4d0fc" fill-rule="evenodd"/>
        <path id="Trazado_623188" data-name="Trazado 623188" d="M1326.551,354.253a17.552,17.552,0,0,0-2.84,1.868l-.132-.082c.611-1.649,1.187-3.309,1.812-4.956.045-.116-.146-.2-.2-.085-1.21,2.447-2.487,4.827-3.552,7.345-.309.729-.648,1.468-.988,2.215-.091-.764-.185-1.529-.305-2.286q-.274-4.083-.458-8.173-.049-1.177-.09-2.355a8.893,8.893,0,0,1,.513-3.323,17.638,17.638,0,0,1,.871-2.022c1.328-2.608,3.1-4.9,3.826-7.785a.076.076,0,0,0-.146-.04,14.346,14.346,0,0,1-1.877,3.532,18.472,18.472,0,0,0-.575-3.574c-.014-.072-.124-.053-.126.017-.007.879.014,1.758.054,2.635a.113.113,0,0,1,0,.02,5.14,5.14,0,0,1-.931,3.135,17.94,17.94,0,0,0-1.5,2.518q-.127.268-.243.542-.04-1.4-.083-2.8c.009-.8.015-1.6.006-2.4,0-.222,0-.444,0-.666a29.373,29.373,0,0,1,.331-3.941c.4-2.139,1.487-4.059,1.844-6.193a.081.081,0,0,0-.156-.043,36.6,36.6,0,0,1-1.73,3.483,11.068,11.068,0,0,0-.477,1.335c-.106-1.3-.264-2.6-.5-3.9-.012-.065-.107-.044-.11.015-.163,2.211-.207,4.432-.216,6.656a14.49,14.49,0,0,0-.815-1.22,45.53,45.53,0,0,0-3.637-4.088.027.027,0,0,0-.042.034c.706,1.09,1.463,2.149,2.191,3.226a7.48,7.48,0,0,0-3.175-.336.048.048,0,0,0-.011.095c1.321.311,2.709.341,3.661,1.391a10.915,10.915,0,0,1,.986,1.316q.218.473.413.956c.059.148.108.279.156.4a28.486,28.486,0,0,1,.268,3.731c-.359,4.388-.868,8.785-1.176,13.176-.271-.534-.551-1.065-.854-1.585-.289-.5-.609-.975-.944-1.44a.291.291,0,0,0-.056-.075,56.678,56.678,0,0,1-4.2-5.668c-.022-.039-.093-.012-.075.031a29.347,29.347,0,0,0,2.17,3.735c.168.278.33.558.5.838a4.639,4.639,0,0,0-.665-.332,31.8,31.8,0,0,0-3.3-.963c-.043-.012-.073.054-.031.075,1.028.491,2.073.944,3.1,1.435a3.3,3.3,0,0,1,.523.324,7.318,7.318,0,0,1,2.027,2.317l.232.408q.344.616.669,1.242a6.313,6.313,0,0,1,.713,3.169c-.044,1.093-.07,2.186-.071,3.278a62.365,62.365,0,0,0-.082,10.148h5.362c-.019-.043-.037-.088-.056-.13-.4-2.372-.946-4.725-1.333-7.1v-.005a1.725,1.725,0,0,1,.1-.9c.483-1.242.928-2.5,1.421-3.693l.009-.019a6.58,6.58,0,0,1,2.113-2.723l.248-.188c.6-.462,1.087-1.035,1.68-1.495.026-.018-.007-.06-.032-.042" transform="translate(-1116.148 -278.877)" fill="#8bbae9" fill-rule="evenodd"/>
        <path id="Trazado_623189" data-name="Trazado 623189" d="M1326.551,361.294a17.552,17.552,0,0,0-2.84,1.868l-.069-.043.007,0-.069-.043c.611-1.649,1.187-3.309,1.812-4.957a.089.089,0,0,0,0-.078c-.477,1.1-1.682,3.878-2.108,5.023-.535,1.442-1.9,4.532-1.9,4.532a12.642,12.642,0,0,0-.385,2.41.04.04,0,0,1,0,.012,1.779,1.779,0,0,1,.113-.569c.483-1.242.928-2.5,1.421-3.693l.009-.019a6.581,6.581,0,0,1,2.113-2.723l.248-.188c.6-.462,1.087-1.035,1.68-1.5.026-.018-.007-.06-.032-.042m-2.909,1.825h0m-2.093-15.088a5.388,5.388,0,0,0,1.091-2.926,24.014,24.014,0,0,0-.306-3.574.063.063,0,0,0-.053.058c-.007.879.014,1.758.054,2.635a.115.115,0,0,1,0,.02,5.14,5.14,0,0,1-.931,3.134,17.95,17.95,0,0,0-1.5,2.518q-.127.268-.243.542l.119.991a21.138,21.138,0,0,1,1.771-3.4m-1.891,2.408s0,0,0-.007Zm1,27.215h-3.615a62.359,62.359,0,0,1,.082-10.149c0-1.091.027-2.184.071-3.277a6.312,6.312,0,0,0-.713-3.169q-.324-.626-.669-1.242l-.232-.408a7.324,7.324,0,0,0-2.027-2.317,3.351,3.351,0,0,0-.523-.324c-1.026-.492-2.071-.944-3.1-1.435-.042-.021-.011-.086.031-.075a31.619,31.619,0,0,1,3.3.963,4.627,4.627,0,0,1,.665.332c-.166-.279-.328-.56-.5-.838a29.4,29.4,0,0,1-2.17-3.735c-.017-.043.053-.07.075-.031.177.319.369.627.568.932a14.225,14.225,0,0,0,1.546,2.506,23.87,23.87,0,0,1,2.658,3.791c.536,1.009,1.4,3.028,1.4,3.028a10.45,10.45,0,0,1-.118-1.489h0c.308-4.39.817-8.787,1.176-13.175a28.475,28.475,0,0,0-.268-3.73c-.049-.12-.1-.251-.156-.4q-.194-.483-.413-.956a10.914,10.914,0,0,0-.986-1.316c-.952-1.049-2.34-1.08-3.661-1.391a.048.048,0,0,1,.011-.095,7.482,7.482,0,0,1,3.175.336c-.728-1.077-1.485-2.135-2.191-3.226a.027.027,0,0,1,.042-.034c.112.12.227.24.341.359.778.992,1.912,2.415,2.2,2.826a17.887,17.887,0,0,1,1.978,3.172l-.071-1.1c.01-2.148.053-4.293.206-6.429.089,1.4.208,3.313.255,4.443.082,1.936.124,9.023-.124,10.917a84.771,84.771,0,0,0-.247,15.574c.4,3.662,1.361,8.315,1.995,11.165" transform="translate(-1116.148 -285.918)" fill="#61a0e0" fill-rule="evenodd"/>
        <path id="Trazado_623190" data-name="Trazado 623190" d="M1537.976,689.269a3.923,3.923,0,0,0-2.1-1.581,3.883,3.883,0,0,0-1.842-.075,3.28,3.28,0,0,0-3.957-1.507,2.381,2.381,0,0,0-1.257-.943,2.95,2.95,0,0,0-1.172-.047,3.88,3.88,0,0,0-.959.24,2.6,2.6,0,0,0-.8-1.095,2.3,2.3,0,0,0-1.88-.524,2.183,2.183,0,0,0-1.265.843,2.412,2.412,0,0,0-3.371-2.374c-1.622.584-2.062,2.747-2.062,3.943a5.2,5.2,0,0,0,.627,2.43c.009-.019.019-.036.027-.054,6.675.234,13.248.5,19.922.729Z" transform="translate(-1292.868 -581.156)" fill="#61a0e0" fill-rule="evenodd"/>
        <path id="Trazado_623191" data-name="Trazado 623191" d="M1536.843,692.871a5.806,5.806,0,0,0-2.3-.955,6.012,6.012,0,0,0-1.843-.075,3.281,3.281,0,0,0-3.957-1.506,2.382,2.382,0,0,0-1.255-.943,2.947,2.947,0,0,0-1.173-.047,3.854,3.854,0,0,0-.96.24,2.585,2.585,0,0,0-.794-1.094,2.3,2.3,0,0,0-1.881-.524,2.176,2.176,0,0,0-1.264.843,2.587,2.587,0,0,0-.706-1.874,2.617,2.617,0,0,0-2.665-.5c-1.621.584-2.062,2.747-2.061,3.943a5.176,5.176,0,0,0,.627,2.43c0-.008,13.473,0,20.231.062" transform="translate(-1291.735 -584.759)" fill="#8bbae9" fill-rule="evenodd"/>
        <path id="Trazado_623192" data-name="Trazado 623192" d="M1492.31,388.233a2.475,2.475,0,0,0-1.206-2.931,4.466,4.466,0,0,0-4.508.053,3.9,3.9,0,0,0-1.435-1.417,1.719,1.719,0,0,0-.981-.267,3.558,3.558,0,0,0-.995-2.8,3.308,3.308,0,0,0-1.96-.912,3.22,3.22,0,0,0-1.046-1.842,2.452,2.452,0,0,0-1.932-.5c-.963-1.169-2.926-1.349-4.349-1.167a3.66,3.66,0,0,0-3.343,3.079,1.891,1.891,0,0,0-2.223.223,2.33,2.33,0,0,0-.729,2.171,3.031,3.031,0,0,0-2.637.4,3.277,3.277,0,0,0-1.175,1.443,5.378,5.378,0,0,0-4.508-.689,4.261,4.261,0,0,0-2.872,4.655,1.255,1.255,0,0,0-1.189.254,1.374,1.374,0,0,0-.426,1.121,4.729,4.729,0,0,0-3.9,5.364,3.616,3.616,0,0,0,2.274,2.775,4.083,4.083,0,0,0,.494.146,4.385,4.385,0,0,0,.859,2.253c1.086,1.407,2.943.911,4.168-.018a1,1,0,0,0,.767.493,1.811,1.811,0,0,0,1.649-.858,3.848,3.848,0,0,0,1.671,2.393,3.3,3.3,0,0,0,2.922.1,4.221,4.221,0,0,0,2.812,2.606c1.864.375,3.465-.816,4.5-2.316a6.612,6.612,0,0,0,4.6,1.913,4.67,4.67,0,0,0,3.842-1.872,3,3,0,0,0,2.292-.645,3.23,3.23,0,0,0,.776-1.9,5.9,5.9,0,0,0,2.7-.25,5.109,5.109,0,0,0,3.275-3.747,4.761,4.761,0,0,0,3.159-2.607c.569-1.453.119-4-1.342-4.7" transform="translate(-1236.217 -320.707)" fill="#bbdbfa" fill-rule="evenodd"/>
        <path id="Trazado_623193" data-name="Trazado 623193" d="M1485.575,434.157c-2.286,3.109-5.943-.275-5.943-.275s-.914,1.189-3.978,2.515-5.165-3.313-5.165-3.313-1.629,3.135-4.458,2.27-1.67-5.128-1.67-5.128-1.589,2.035-4.014,0,2.095-5.212,2.095-5.212a2.659,2.659,0,0,1-2.8-2.926,2.313,2.313,0,0,1,1.062-2.046,4.364,4.364,0,0,0-1.422.229,4.261,4.261,0,0,0-2.872,4.655,1.255,1.255,0,0,0-1.189.254,1.374,1.374,0,0,0-.426,1.121,4.728,4.728,0,0,0-3.9,5.364,3.617,3.617,0,0,0,2.274,2.775,4.194,4.194,0,0,0,.494.146,4.385,4.385,0,0,0,.858,2.253c1.087,1.407,2.943.911,4.168-.018a1,1,0,0,0,.767.493,1.811,1.811,0,0,0,1.649-.858,3.851,3.851,0,0,0,1.671,2.393,3.3,3.3,0,0,0,2.921.1,4.222,4.222,0,0,0,2.812,2.606c1.864.375,3.466-.816,4.5-2.316a6.612,6.612,0,0,0,4.6,1.913,4.67,4.67,0,0,0,3.842-1.872,3,3,0,0,0,2.292-.645,3.23,3.23,0,0,0,.776-1.9,5.9,5.9,0,0,0,2.7-.25,5.328,5.328,0,0,0,2.584-2.046,3.562,3.562,0,0,1-4.227-.279" transform="translate(-1236.217 -357.907)" fill="#a4d0fc" fill-rule="evenodd"/>
        <path id="Trazado_623194" data-name="Trazado 623194" d="M1505.254,439.871c.537-1.266,1.069-2.534,1.566-3.817,1.32-3.416,1.832-7.216,3.764-10.358.035-.031.068-.062.1-.093.428-.361.865-.7,1.287-1.057,1.55-.525,3.209-.233,4.833-.616a4.919,4.919,0,0,0,3.318-2.34.041.041,0,0,0-.065-.049,7.307,7.307,0,0,1-5.3,1.872c-.525,0-1.075-.015-1.614.024.086-.1.171-.195.255-.3a12.024,12.024,0,0,0,1.81-3.438c.072-.2-.234-.272-.31-.086a9.305,9.305,0,0,1-2.745,3.633,22.8,22.8,0,0,0-3.092,2.465,5.488,5.488,0,0,0-.927,1.589,31.224,31.224,0,0,0-.933-3.515c-.031-.108-.059-.214-.086-.32a12.924,12.924,0,0,1-.25-1.918v0c0-.17.006-.338.018-.506.4-1.638.673-3.456,2.168-4.373,1.152-.706,2.333-1,2.9-2.336.053-.123-.111-.23-.185-.108-.963,1.583-3.208,1.4-4.309,2.853a5.83,5.83,0,0,0-.782,1.491,10.947,10.947,0,0,0-.263-1.443c-.5-1.939-1.663-3.743-1.359-5.818.014-.1-.127-.141-.148-.041a8.055,8.055,0,0,0,.208,3.745,24.39,24.39,0,0,1,.865,5.327,19.433,19.433,0,0,0,.5,4.42c.165.6.366,1.187.535,1.766.028.138.053.277.079.415a11.288,11.288,0,0,1,.164,1.538,15.177,15.177,0,0,1-1.46,4.453.592.592,0,0,1-.2.179c-.03.014-.055.021-.083.032-1.121-.721-1.951-2.091-2.886-3.006a13.178,13.178,0,0,1-2.512-3,5.593,5.593,0,0,1,.02-3.753c.753-2.172,3.645-3.558,3.513-5.991-.006-.108-.175-.144-.2-.026-.368,1.855-2.09,2.554-3.125,3.963a6.254,6.254,0,0,0-.348.533,5.778,5.778,0,0,0-.7-3.356c-.046-.08-.162-.01-.123.071,1.32,2.723-.893,5.659-.385,8.435a20.058,20.058,0,0,1-2.5-1.993,12.609,12.609,0,0,1-1.734-2.207,17.556,17.556,0,0,1-1.1-2.589,3.183,3.183,0,0,0-1.337-1.974c-.035-.018-.086.022-.059.059a11.049,11.049,0,0,1,1.211,3.187,7.2,7.2,0,0,0,.664,1.394,10.043,10.043,0,0,0,1.23,1.842c-.891-.343-1.839-.41-2.752-.669a6.054,6.054,0,0,1-3.417-2.429.083.083,0,0,0-.143.084,6.709,6.709,0,0,0,4.515,3.348,13.957,13.957,0,0,1,5.056,2.76c2.457,2.319,4.84,4.644,5.013,8.237.212,4.41-2.475,8.034-4.593,11.648a14.931,14.931,0,0,0-1.814,10.74h8.318c-3.842-5.646-2.4-12.448-.069-18.583" transform="translate(-1268.587 -350.382)" fill="#8bbae9" fill-rule="evenodd"/>
        <path id="Trazado_623195" data-name="Trazado 623195" d="M1506.562,423.024a15.366,15.366,0,0,1-.093-3.155,12.8,12.8,0,0,0-.982-3.978,15,15,0,0,1-.582-4.3,8.053,8.053,0,0,0,.208,3.745,24.4,24.4,0,0,1,.865,5.327,19.441,19.441,0,0,0,.5,4.42c.165.6.366,1.186.535,1.766.028.138.053.277.079.415a11.289,11.289,0,0,1,.164,1.538,15.174,15.174,0,0,1-1.46,4.453l-.586,1.485s-3.189-4.08-4.012-4.8a6.528,6.528,0,0,1-1.612-2.606,10.009,10.009,0,0,1,.309-4.286c.377-1.2,2.744-3.155,3.222-3.841a4.715,4.715,0,0,0,.5-1.553.1.1,0,0,0-.164.041c-.368,1.855-2.09,2.554-3.125,3.963a6.277,6.277,0,0,0-.348.533,5.778,5.778,0,0,0-.7-3.356c-.046-.08-.162-.01-.123.071,1.32,2.723-.893,5.659-.385,8.435l.274.709a12.786,12.786,0,0,1-2.4-1.881c-.451-.652-1.68-1.886-2.127-2.606a27.93,27.93,0,0,1-1.715-3.943,2.3,2.3,0,0,0-.766-1.014.04.04,0,0,0,0,.032,11.049,11.049,0,0,1,1.21,3.187,7.2,7.2,0,0,0,.664,1.394,10.055,10.055,0,0,0,1.23,1.842l.469.525s-1.4-.343-2.674-.72a6.405,6.405,0,0,1-3.229-2.019,9.069,9.069,0,0,1-.857-.905.075.075,0,0,0-.021.1,6.709,6.709,0,0,0,4.515,3.348,13.954,13.954,0,0,1,5.056,2.76c2.457,2.32,4.84,4.644,5.013,8.237.212,4.41-2.475,8.034-4.593,11.648a14.932,14.932,0,0,0-1.814,10.741h4.181c-.734-2.783-1.608-7.085-.661-9.1,1.463-3.109,3.292-9.739,4.39-11.842a55.351,55.351,0,0,0,3.108-8.641c.137-.915-1.235-4.892-1.463-6.172" transform="translate(-1268.587 -350.705)" fill="#61a0e0" fill-rule="evenodd"/>
        <path id="Trazado_623196" data-name="Trazado 623196" d="M1528.109,518.843a1.294,1.294,0,0,1,.1-.469,1.74,1.74,0,0,0,.03.367c.035.124-.134.1-.134.1" transform="translate(-1302.067 -441.694)" fill="#2c3a64" fill-rule="evenodd"/>
        <path id="Trazado_623197" data-name="Trazado 623197" d="M952.088,501.192a61.775,61.775,0,1,0,61.775,61.774,61.774,61.774,0,0,0-61.775-61.774m-28.712,61.774a28.712,28.712,0,1,1,28.712,28.712,28.712,28.712,0,0,1-28.712-28.712" transform="translate(-758.615 -427.054)" fill="#fbbfa8" fill-rule="evenodd"/>
        <path id="Trazado_623198" data-name="Trazado 623198" d="M343.039,542.691a64.763,64.763,0,0,1,18.3-27.93,61.776,61.776,0,1,0,0,96.41,64.753,64.753,0,0,1-18.3-27.93,28.712,28.712,0,1,1,0-40.55" transform="translate(-222.337 -427.054)" fill="#61a0e0" fill-rule="evenodd"/>
        <path id="Trazado_623199" data-name="Trazado 623199" d="M931.5,495.309a61.775,61.775,0,1,0,61.776,61.776A61.775,61.775,0,0,0,931.5,495.309m-28.712,61.776A28.712,28.712,0,1,1,931.5,585.8a28.713,28.713,0,0,1-28.712-28.712" transform="translate(-741.075 -422.041)" fill="#61a0e0" fill-rule="evenodd"/>
        <path id="Trazado_623200" data-name="Trazado 623200" d="M954.388,681.685a57.558,57.558,0,0,1-26.142-5.708l.854-1.773a55.806,55.806,0,0,0,25.258,5.516Zm-30.648-8.13a58.306,58.306,0,0,1-20.795-21.226,57.983,57.983,0,0,1,5.828-65.635l1.51,1.256a56.007,56.007,0,0,0,14.466,83.917Zm-11.347-90.84a58.028,58.028,0,0,1,12-9.2l.987,1.7a55.722,55.722,0,0,0-11.588,8.891Z" transform="translate(-762.951 -488.679)" fill="#fff" fill-rule="evenodd"/>
        <path id="Trazado_623201" data-name="Trazado 623201" d="M322.451,536.809a64.741,64.741,0,0,1,18.3-27.93,61.775,61.775,0,1,0,0,96.411,64.734,64.734,0,0,1-18.3-27.93,28.712,28.712,0,1,1,0-40.552" transform="translate(-204.793 -422.042)" fill="#fc9774" fill-rule="evenodd"/>
        <path id="Trazado_623202" data-name="Trazado 623202" d="M286.1,620.868a57.716,57.716,0,0,1-8.128-25.493l1.965-.147a55.6,55.6,0,0,0,7.851,24.631Zm-8.282-30.6a58.312,58.312,0,0,1,6.909-26.7,57.632,57.632,0,0,1,18.362-20.419l1.11,1.626a55.653,55.653,0,0,0-17.738,19.719,56.334,56.334,0,0,0-6.678,25.8Zm72.995-55.249a57.837,57.837,0,0,1,7.173,2.437l.048.021a58.089,58.089,0,0,1,6.744,3.331l-.979,1.7a55.958,55.958,0,0,0-6.515-3.217l-.053-.02a55.958,55.958,0,0,0-6.927-2.352Z" transform="translate(-236.723 -455.875)" fill="#fff" fill-rule="evenodd"/>
        <path id="Trazado_623203" data-name="Trazado 623203" d="M366.89,1343.1H546.561a3.49,3.49,0,0,1,3.479,3.479V1369.2a3.489,3.489,0,0,1-3.479,3.478H366.89a3.49,3.49,0,0,1-3.48-3.478v-22.624a3.49,3.49,0,0,1,3.48-3.479" transform="translate(-309.653 -1144.422)" fill="#eff9fc" fill-rule="evenodd"/>
        <path id="Trazado_623204" data-name="Trazado 623204" d="M364.386,1340.156H544.057a3.9,3.9,0,0,1,2.763,1.149l0,0a3.9,3.9,0,0,1,1.148,2.763v22.624a3.921,3.921,0,0,1-3.913,3.913h-13.3a.5.5,0,0,1-.465,0H515.964a.486.486,0,0,1-.231.058.494.494,0,0,1-.234-.058H501.174a.5.5,0,0,1-.234.058.487.487,0,0,1-.232-.058H486.381a.5.5,0,0,1-.234.058.489.489,0,0,1-.232-.058H471.588a.5.5,0,0,1-.465,0H456.8a.494.494,0,0,1-.233.058.488.488,0,0,1-.233-.058H442a.5.5,0,0,1-.465,0H427.213a.5.5,0,0,1-.465,0H412.42a.5.5,0,0,1-.465,0H397.628a.5.5,0,0,1-.465,0H382.836a.5.5,0,0,1-.465,0H368.044a.5.5,0,0,1-.465,0h-3.193a3.9,3.9,0,0,1-2.763-1.149h0a3.906,3.906,0,0,1-1.149-2.763V1344.07a3.923,3.923,0,0,1,3.915-3.914m168.683,9.487h9.683a.491.491,0,1,0,0-.982h-9.683a.491.491,0,0,0,0,.982m0,1.442h9.683a.491.491,0,1,0,0-.982h-9.683a.491.491,0,0,0,0,.982m0,1.442h9.683a.491.491,0,1,0,0-.981h-9.683a.491.491,0,0,0,0,.982m-3.039,12.589a.494.494,0,1,1,.988,0v4.623h13.038a3.054,3.054,0,0,0,3.044-3.043V1344.07a3.054,3.054,0,0,0-3.044-3.044H364.386a3.054,3.054,0,0,0-3.044,3.044v22.624a3.035,3.035,0,0,0,.893,2.149h0a3.035,3.035,0,0,0,2.15.893h2.932v-4.623a.493.493,0,1,1,.987,0v4.623H382.11v-4.623a.493.493,0,1,1,.986,0v4.623H396.9v-4.623a.493.493,0,1,1,.986,0v4.623h13.806v-4.623a.493.493,0,1,1,.986,0v4.623h13.806v-4.623a.493.493,0,1,1,.987,0v4.623h13.806v-4.623a.493.493,0,1,1,.987,0v4.623h13.806v-4.623a.493.493,0,1,1,.986,0v4.623h13.806v-4.623a.494.494,0,1,1,.987,0v4.623h13.8v-4.623a.494.494,0,1,1,.987,0v4.623h13.806v-4.623a.493.493,0,1,1,.986,0v4.623h13.806v-4.623a.494.494,0,1,1,.987,0v4.623h13.8Z" transform="translate(-307.149 -1141.916)" fill="#4f8ecc" fill-rule="evenodd"/>
        <path id="Trazado_623205" data-name="Trazado 623205" d="M604.375,1237.3l5.056-2.18a.738.738,0,0,1,1.03.64l.646,4.866-1.462.19-.359-2.714c-5.937,10.754-7.313,9.808-8.977,8.665-.514-.353-1.077-.74-2.3.146-.974.706-2.6,4.367-4.191,7.954-1.739,3.919-3.443,7.761-4.726,8.25-.708.27-1.254.02-1.6-.886-1.475-3.863-2.816-4.846-3.967-4.408-2.157.823-4.149,5.673-5.1,8.005l-.011.031c-.13.314-.245.595-.311.752-1.45,3.393-2.88,3.964-4.306,3.356a7.6,7.6,0,0,1-2.421-2.144,7.313,7.313,0,0,0-1.841-1.737c-.6-.287-1.29.076-2.211,1.99-1.412,2.934-2.752,3.659-4.008,3.054h0c-1.849-.891-2.976-5.309-3.925-9.028a33.7,33.7,0,0,0-1.307-4.612,39.872,39.872,0,0,0-.922,5.348c-.876,5.908-2.244,7.584-3.7,7.366-1.357-.2-2.481-2.113-3.4-3.684-.271-.462-.521-.889-.715-1.184-2.317,3.838-4.818,4.065-7.047,2.841-2.391-1.312-4.35-4.452-5.312-6.19-1.166,2.02-3.7,6-6.326,7.058-1.963.789-3.9.167-5.325-3.391-1.075-2.679-1.943-3.378-2.685-3.081-1.029.414-2.146,2.281-3.2,4.035-1.034,1.729-2.013,3.362-3.093,3.837-1.04.458-1.976.069-2.764-1.722-2.486-5.651-4.342-6.74-5.828-6.085-1.158.509-2.255,2-3.237,3.337a9.519,9.519,0,0,1-2.407,2.629c-1,.559-1.9.388-2.706-1.055-.544-.97-1.072-1.946-1.557-2.844-1.479-2.734-2.538-4.692-3.3-5.069-.2-.1-.458.168-.834.924-5.1,10.272-7.759,8.762-9.119,7.99a.282.282,0,0,1,.034-.06l.075-.131c-2.373,3.448-4.328,3.776-5.967,2.664-1.6-1.086-2.691-3.65-3.593-5.776h0v0c-.289-.684-.56-1.323-.81-1.82-1.066-2.129-1.879-2.65-2.544-2.318-1.064.533-2.147,2.666-3.177,4.694-1.041,2.049-2.034,4.006-3.215,4.6-1.074.538-2.094.159-3.046-1.73a.883.883,0,0,1-.043-.1c-.33-.887-.5-1.2-.579-1.176-.411.153-1.049,1.354-1.77,2.712-.95,1.789-2.027,3.818-3.452,4.744-1.636,1.062-3.508.759-5.676-2.581-.683-1.054-1.356-2.329-2.036-3.62-1.462-2.776-2.972-5.638-4.367-5.992-1.413-.36-3.061,2.041-5.149,10.263a.739.739,0,1,1-1.433-.364c2.363-9.306,4.684-11.906,6.946-11.332,2.028.515,3.695,3.674,5.31,6.738.667,1.267,1.327,2.518,1.966,3.505,1.56,2.4,2.719,2.743,3.636,2.146,1.1-.713,2.082-2.568,2.949-4.2.859-1.618,1.618-3.048,2.562-3.4s1.758.146,2.459,2c.467.923.8,1.192,1.064,1.062.742-.371,1.628-2.117,2.556-3.944,1.137-2.24,2.333-4.595,3.836-5.348,1.457-.729,2.966-.13,4.521,2.976.272.545.552,1.2.85,1.9h0c.826,1.949,1.823,4.3,3.061,5.137.947.642,2.211.251,3.992-2.377.571-.839,1.064-.56,1.767-.161.9.511,2.667,1.511,7.068-7.359.839-1.692,1.739-2.127,2.811-1.6,1.184.587,2.336,2.717,3.945,5.694.461.853.962,1.782,1.545,2.821.276.492.5.6.695.488a9.093,9.093,0,0,0,1.939-2.212c1.092-1.488,2.315-3.151,3.832-3.819,2.248-.988,4.826.137,7.776,6.843.355.806.614,1.054.816.965.654-.287,1.513-1.723,2.422-3.242,1.174-1.961,2.422-4.048,3.913-4.647,1.556-.625,3.116.2,4.6,3.9,1.018,2.534,2.231,3.043,3.405,2.571,2.683-1.078,5.5-6.227,6.118-7.355l0,0h0a1.134,1.134,0,0,1,.357-.477.735.735,0,0,1,.631-.1h0c.344.1.391.261.545.562.473.926,2.63,5.142,5.248,6.58,1.619.89,3.5.567,5.367-2.82a.885.885,0,0,1,1.361-.416,6.276,6.276,0,0,1,1.6,2.129c.759,1.294,1.685,2.87,2.344,2.968.625.092,1.316-1.327,2.027-6.12.74-4.992,1.6-6.743,2.6-6.6,1.112.165,1.766,2.725,2.527,5.71.871,3.418,1.908,7.476,3.13,8.064h0c.444.214,1.09-.395,2.039-2.365,1.414-2.941,2.8-3.342,4.181-2.68a8.169,8.169,0,0,1,2.315,2.1,6.83,6.83,0,0,0,1.884,1.752c.629.27,1.368-.232,2.369-2.576.1-.245.2-.471.3-.735l.014-.03c1.032-2.526,3.193-7.777,5.941-8.827,1.925-.735,3.959.345,5.812,5.109.791-.822,2.211-4.02,3.658-7.28,1.673-3.772,3.382-7.619,4.671-8.556,2.06-1.5,3.075-.8,4-.162.948.651,1.732,1.188,6.88-8.217l-3.066,1.324Zm-119.588,30.951-.072.1-.075.131c.087-.14.3-.464.146-.235" transform="translate(-373.068 -1052.363)" fill="#f57a44" fill-rule="evenodd"/>
        <path id="Trazado_623206" data-name="Trazado 623206" d="M1721.541,1084.479h-40.173a25.134,25.134,0,0,1,4.195-11.181q3.5-5.248,13.122-12.381,5.888-4.374,7.548-6.64a7.431,7.431,0,0,0,1.648-4.307,5.022,5.022,0,0,0-1.626-3.768,6.217,6.217,0,0,0-8.3.056c-1.088,1.088-1.817,2.984-2.187,5.721l-13.391-1.089a21.432,21.432,0,0,1,2.894-8.837,13.41,13.41,0,0,1,5.922-4.867q3.834-1.7,10.6-1.694,7.064,0,10.99,1.615a13.267,13.267,0,0,1,6.168,4.934,13.077,13.077,0,0,1,2.254,7.48,15.381,15.381,0,0,1-2.578,8.412q-2.574,4-9.386,8.8c-2.693,1.863-4.5,3.175-5.406,3.915s-1.974,1.716-3.208,2.927h20.916Z" transform="translate(-1432.655 -882.319)" fill="#61a0e0" fill-rule="evenodd"/>
        <g id="Grupo_888323" data-name="Grupo 888323" transform="translate(251.04 154.093)" opacity="0.38">
          <g id="Grupo_888322" data-name="Grupo 888322">
            <g id="Grupo_888321" data-name="Grupo 888321" clip-path="url(#clip-path-3)">
              <path id="Trazado_623207" data-name="Trazado 623207" d="M1699.514,1056.286a19.669,19.669,0,0,1,2.659-7.956,12.544,12.544,0,0,1,5.53-4.545q3.581-1.586,9.895-1.58a39.989,39.989,0,0,1,6.061.407,33.157,33.157,0,0,0-8.433-.9q-6.315,0-9.9,1.582a12.529,12.529,0,0,0-5.529,4.544,19.962,19.962,0,0,0-2.7,8.251Z" transform="translate(-1697.099 -1041.712)" fill="#bbdbfa" fill-rule="evenodd"/>
            </g>
          </g>
        </g>
        <g id="Grupo_888326" data-name="Grupo 888326" transform="translate(251.988 163.27)" opacity="0.38">
          <g id="Grupo_888325" data-name="Grupo 888325">
            <g id="Grupo_888324" data-name="Grupo 888324" clip-path="url(#clip-path-4)">
              <path id="Trazado_623208" data-name="Trazado 623208" d="M1707.792,1129.361a23.46,23.46,0,0,0-4.286,10.294l2.434.087a23.528,23.528,0,0,1,4.2-9.805q3.44-4.782,12.654-11.118,5.641-3.884,7.264-5.944a6.945,6.945,0,0,0,1.681-3.964,4.693,4.693,0,0,0-1.392-3.569,5.3,5.3,0,0,0-3.731-1.59,5.094,5.094,0,0,1,1.376,1.014,4.691,4.691,0,0,1,1.393,3.571,6.949,6.949,0,0,1-1.682,3.963q-1.628,2.064-7.262,5.944-9.217,6.337-12.654,11.118" transform="translate(-1703.507 -1103.751)" fill="#bbdbfa" fill-rule="evenodd"/>
            </g>
          </g>
        </g>
        <path id="Trazado_623209" data-name="Trazado 623209" d="M264.962,1305.624l-2.65-5.043-2.65,5.043-2.65,5.043h3.162v20.347h4.277v-20.347h3.162Z" transform="translate(-218.994 -1108.195)" fill="#569de3" fill-rule="evenodd"/>
        <path id="Trazado_623210" data-name="Trazado 623210" d="M270.987,1311.357l-2.127-4.048-2.243,4.268-2.534,4.823H266.2l.93.221v20.126h3.346V1316.4h3.162Z" transform="translate(-225.019 -1113.928)" fill="#4f8ecc" fill-rule="evenodd"/>
        <path id="Trazado_623211" data-name="Trazado 623211" d="M115.211,748.646H95.684a1.345,1.345,0,0,1,1.309-1.034c.031,0,.061,0,.092,0a2.069,2.069,0,0,1,2.955-1.007,2.989,2.989,0,0,1,3.655-2.015,4.161,4.161,0,0,1,7.86.847l.1,0a2.516,2.516,0,0,1,2.495,2.2,1.346,1.346,0,0,1,1.06,1.011" transform="translate(-81.53 -632.367)" fill="#fff" fill-rule="evenodd"/>
        <path id="Trazado_623212" data-name="Trazado 623212" d="M4.563,1022.154h36.69a2.529,2.529,0,0,0-2.46-1.944c-.057,0-.115,0-.172.007a3.889,3.889,0,0,0-5.552-1.893,5.619,5.619,0,0,0-6.868-3.785,7.818,7.818,0,0,0-14.769,1.592c-.064,0-.127,0-.19,0a4.725,4.725,0,0,0-4.687,4.128,2.529,2.529,0,0,0-1.992,1.9" transform="translate(-3.888 -860.55)" fill="#fff" fill-rule="evenodd"/>
        <path id="Trazado_623213" data-name="Trazado 623213" d="M939.667,87.286H920.14a1.346,1.346,0,0,1,1.309-1.035c.03,0,.061,0,.092,0a2.069,2.069,0,0,1,2.955-1.007,2.991,2.991,0,0,1,3.655-2.014,4.162,4.162,0,0,1,7.861.848l.1,0a2.514,2.514,0,0,1,2.494,2.2,1.349,1.349,0,0,1,1.061,1.012" transform="translate(-784.03 -68.837)" fill="#fff" fill-rule="evenodd"/>
        <path id="Trazado_623214" data-name="Trazado 623214" d="M1732.151,679.753h30.714a2.117,2.117,0,0,0-2.058-1.627c-.049,0-.1,0-.145.006a3.256,3.256,0,0,0-4.648-1.584,4.7,4.7,0,0,0-5.748-3.169,6.545,6.545,0,0,0-12.364,1.333c-.053,0-.105,0-.158,0a3.957,3.957,0,0,0-3.925,3.455,2.114,2.114,0,0,0-1.666,1.59" transform="translate(-1475.926 -570.493)" fill="#fff" fill-rule="evenodd"/>
        <path id="Trazado_623215" data-name="Trazado 623215" d="M1775.051,902.193h22.6a1.558,1.558,0,0,0-1.516-1.2,1.014,1.014,0,0,0-.105,0,2.4,2.4,0,0,0-3.42-1.165,3.464,3.464,0,0,0-3.314-2.457,3.428,3.428,0,0,0-.917.124,4.817,4.817,0,0,0-9.1.981c-.04,0-.078,0-.116,0a2.911,2.911,0,0,0-2.888,2.541,1.559,1.559,0,0,0-1.226,1.171" transform="translate(-1512.48 -762.328)" fill="#fff" fill-rule="evenodd"/>
        <path id="Trazado_623216" data-name="Trazado 623216" d="M569.071,799.675l2.243,9.941,4.786-5.183-1.867,6,8.463-4.122-6.465,8.2,7.006.493-5.469,2.181,8.292,4.04h-10.74l4.1,6.063-4.73-2.731,1.946,8.625-6.8-8.618-2.324,7.472-.793-5.463-5.21,6.61,2.359-10.452-7.377,2.943,4.107-4.448H552.08l9.13-4.448-6.56-3.787,6.416.452-5.621-7.129,8.969,4.368-1.037-7.143,3.614,5.352Z" transform="translate(-470.415 -681.385)" fill="#f57a44" fill-rule="evenodd"/>
        <path id="Trazado_623217" data-name="Trazado 623217" d="M1192.547,776.223l9.744,12.784c.008.01.015.02.022.03,3.229,4.357,6.519,8.615,9.519,13.139a3.882,3.882,0,0,1-2.7,5.94l-15.911,2.062-.037,0c-5.377.624-10.7,1.348-16.107,1.688a3.889,3.889,0,0,1-3.8-5.3l6.165-14.846.015-.035c2.146-4.979,4.178-9.962,6.588-14.827a3.879,3.879,0,0,1,6.494-.635" transform="translate(-999.468 -660.141)" fill="#fff" fill-rule="evenodd"/>
        <path id="Trazado_623218" data-name="Trazado 623218" d="M1175.844,807.686l6.186-14.893c2.093-4.853,3.691-8.826,5.9-13.409q.305-.635.628-1.286a1.091,1.091,0,0,1,1.736-.221l9.777,12.825c3.438,4.636,6.264,8.237,9.434,13.019a1.1,1.1,0,0,1-.676,1.619l-15.961,2.069-1.666.2c-4.964.594-9.144,1.155-14.294,1.479a1.1,1.1,0,0,1-1.061-1.4m14.221-11.326a6.378,6.378,0,0,0,.625,1.847,1.036,1.036,0,0,0,1.095.5,1.072,1.072,0,0,0,.96-.759,5.357,5.357,0,0,0,.2-1.893l-.192-6.8q-.017-.941-.12-1.845a5.492,5.492,0,0,0-.668-2.294,1.577,1.577,0,0,0-1.661-.631,2.047,2.047,0,0,0-1.484.815,2.5,2.5,0,0,0-.388,1.838c.065.554.213,1.468.44,2.733Zm2.553,8.817a2.107,2.107,0,0,0,1.37-.712,2.1,2.1,0,0,0-.338-2.948,2.028,2.028,0,0,0-1.533-.422,2.035,2.035,0,0,0-1.806,2.27,1.9,1.9,0,0,0,.8,1.438,2.15,2.15,0,0,0,1.512.374m-5.16-29.843a3.694,3.694,0,0,0-1.406,1.525c-2.409,4.866-4.441,9.848-6.588,14.827l-.015.035-6.165,14.846a3.888,3.888,0,0,0,3.8,5.3c4.849-.306,9.63-.919,14.441-1.493l1.665-.2.038,0,15.911-2.062a3.882,3.882,0,0,0,2.7-5.94c-3-4.524-6.289-8.782-9.518-13.139l-.022-.03-9.745-12.784a3.825,3.825,0,0,0-5.087-.89" transform="translate(-999.468 -660.142)" fill="#f57a44" fill-rule="evenodd"/>
      </g>
    </g>
  </g>
</svg>
