<svg xmlns="http://www.w3.org/2000/svg" width="85" height="85" viewBox="0 0 85 85">
  <g id="Grupo_974102" data-name="Grupo 974102" transform="translate(-810 -2105)">
    <circle id="Elipse_4860" data-name="Elipse 4860" cx="42.5" cy="42.5" r="42.5" transform="translate(810 2105)" fill="#ece3ff"/>
    <g id="buceo" transform="translate(777.053 2101.882)">
      <g id="Grupo_879830" data-name="Grupo 879830" transform="translate(64.533 20.24)">
        <g id="Grupo_879829" data-name="Grupo 879829" transform="translate(0)">
          <path id="Trazado_592648" data-name="Trazado 592648" d="M118.882,34.139H109.55a4.132,4.132,0,0,0-4.127,4.127V56.423a.4.4,0,1,0,.808,0V38.266a3.323,3.323,0,0,1,3.319-3.319h9.332a.4.4,0,1,0,0-.808Z" transform="translate(-105.423 -34.139)" fill="#3a312a"/>
        </g>
      </g>
      <g id="Grupo_879832" data-name="Grupo 879832" transform="translate(54.687 18.128)">
        <g id="Grupo_879831" data-name="Grupo 879831">
          <path id="Trazado_592649" data-name="Trazado 592649" d="M72.361,26.3C72.1,29.41,68.854,29.9,68.854,29.9c2.786.131,3.48,3.785,3.48,3.785.06-2.606,3.587-3.824,3.587-3.824-2.642-.158-3.56-3.566-3.56-3.566Z" transform="translate(-68.854 -26.296)" fill="#d7e057"/>
        </g>
      </g>
      <g id="Grupo_879834" data-name="Grupo 879834" transform="translate(54.283 17.724)">
        <g id="Grupo_879833" data-name="Grupo 879833" transform="translate(0 0)">
          <path id="Trazado_592650" data-name="Trazado 592650" d="M74.848,28.364c-2.317-.139-3.186-3.237-3.194-3.269a.4.4,0,0,0-.792.071,3.737,3.737,0,0,1-3.165,3.24.4.4,0,0,0,.041.8c2.431.115,3.1,3.424,3.1,3.458a.4.4,0,0,0,.4.328h.034a.4.4,0,0,0,.37-.393c.052-2.291,3.282-3.44,3.315-3.452a.4.4,0,0,0-.108-.785ZM71.2,31.149a4.706,4.706,0,0,0-2.043-2.39,4.335,4.335,0,0,0,2.208-2.228A4.933,4.933,0,0,0,73.6,28.881,5.735,5.735,0,0,0,71.2,31.149Z" transform="translate(-67.353 -24.797)" fill="#3a312a"/>
        </g>
      </g>
      <g id="Grupo_879836" data-name="Grupo 879836" transform="translate(49.871 22.7)">
        <g id="Grupo_879835" data-name="Grupo 879835" transform="translate(0 0)">
          <path id="Trazado_592651" data-name="Trazado 592651" d="M53.447,43.276a2.951,2.951,0,0,1-2.48,2.55c1.97.093,2.461,2.677,2.461,2.677.042-1.843,2.537-2.7,2.537-2.7C54.1,45.687,53.447,43.276,53.447,43.276Z" transform="translate(-50.967 -43.276)" fill="#d7e057"/>
        </g>
      </g>
      <g id="Grupo_879838" data-name="Grupo 879838" transform="translate(49.467 22.296)">
        <g id="Grupo_879837" data-name="Grupo 879837" transform="translate(0 0)">
          <path id="Trazado_592652" data-name="Trazado 592652" d="M54.893,44.3c-1.552-.093-2.146-2.2-2.152-2.225a.4.4,0,0,0-.792.072,2.529,2.529,0,0,1-2.138,2.184.4.4,0,0,0,.041.8c1.625.076,2.08,2.328,2.084,2.35a.4.4,0,0,0,.4.328h.034a.4.4,0,0,0,.37-.393c.035-1.537,2.243-2.325,2.265-2.332a.4.4,0,0,0-.108-.785Zm-2.58,1.83a3.45,3.45,0,0,0-1.2-1.421,3.222,3.222,0,0,0,1.312-1.324,3.6,3.6,0,0,0,1.33,1.407A4.217,4.217,0,0,0,52.313,46.128Z" transform="translate(-49.467 -41.774)" fill="#3a312a"/>
        </g>
      </g>
      <g id="Grupo_879840" data-name="Grupo 879840" transform="translate(49.871 15.522)">
        <g id="Grupo_879839" data-name="Grupo 879839" transform="translate(0 0)">
          <path id="Trazado_592653" data-name="Trazado 592653" d="M53.447,16.619a2.951,2.951,0,0,1-2.48,2.55c1.97.093,2.461,2.677,2.461,2.677.042-1.843,2.537-2.7,2.537-2.7C54.1,19.03,53.447,16.619,53.447,16.619Z" transform="translate(-50.967 -16.619)" fill="#d7e057"/>
        </g>
      </g>
      <g id="Grupo_879842" data-name="Grupo 879842" transform="translate(49.467 15.118)">
        <g id="Grupo_879841" data-name="Grupo 879841" transform="translate(0)">
          <path id="Trazado_592654" data-name="Trazado 592654" d="M54.893,17.642c-1.552-.093-2.146-2.2-2.152-2.225a.4.4,0,0,0-.792.072,2.53,2.53,0,0,1-2.138,2.184.4.4,0,0,0,.042.8c1.625.076,2.079,2.327,2.084,2.349a.4.4,0,0,0,.4.328h.034a.4.4,0,0,0,.37-.393c.035-1.537,2.243-2.324,2.265-2.332a.4.4,0,0,0-.108-.785Zm-2.58,1.83a3.449,3.449,0,0,0-1.2-1.422,3.22,3.22,0,0,0,1.311-1.324,3.6,3.6,0,0,0,1.33,1.407A4.219,4.219,0,0,0,52.313,19.472Z" transform="translate(-49.467 -15.118)" fill="#3a312a"/>
        </g>
      </g>
      <g id="Grupo_879844" data-name="Grupo 879844" transform="translate(74.975 17.132)">
        <g id="Grupo_879843" data-name="Grupo 879843" transform="translate(0 0)">
          <path id="Trazado_592655" data-name="Trazado 592655" d="M145.191,22.6a.973.973,0,0,0-.936.645.957.957,0,0,0,.9,1.26h7.954V22.6Z" transform="translate(-144.205 -22.597)" fill="#f8e4c8"/>
        </g>
      </g>
      <g id="Grupo_879846" data-name="Grupo 879846" transform="translate(74.571 16.728)">
        <g id="Grupo_879845" data-name="Grupo 879845" transform="translate(0 0)">
          <path id="Trazado_592656" data-name="Trazado 592656" d="M152.016,21.1h-7.921a1.366,1.366,0,0,0-1.32.925,1.36,1.36,0,0,0,1.287,1.788h7.954a.4.4,0,0,0,.4-.4V21.5A.4.4,0,0,0,152.016,21.1Zm-.4,1.9h-7.55a.552.552,0,0,1-.519-.732.57.57,0,0,1,.552-.365h7.517V23Z" transform="translate(-142.706 -21.098)" fill="#3a312a"/>
        </g>
      </g>
      <g id="Grupo_879848" data-name="Grupo 879848" transform="translate(83.882 15.683)">
        <g id="Grupo_879847" data-name="Grupo 879847" transform="translate(0 0)">
          <path id="Trazado_592657" data-name="Trazado 592657" d="M182.355,17.216h-5.07v4.8h5.07a2.4,2.4,0,1,0,0-4.8Z" transform="translate(-177.285 -17.216)" fill="#87796f"/>
        </g>
      </g>
      <g id="Grupo_879850" data-name="Grupo 879850" transform="translate(83.478 15.279)">
        <g id="Grupo_879849" data-name="Grupo 879849" transform="translate(0 0)">
          <path id="Trazado_592658" data-name="Trazado 592658" d="M181.259,15.716h-5.07a.4.4,0,0,0-.4.4v4.8a.4.4,0,0,0,.4.4h5.07a2.805,2.805,0,0,0,0-5.611Zm0,4.8h-4.666v-4h4.666a2,2,0,0,1,0,4Z" transform="translate(-175.785 -15.716)" fill="#3a312a"/>
        </g>
      </g>
      <g id="Grupo_879852" data-name="Grupo 879852" transform="translate(71.178 40.593)">
        <g id="Grupo_879851" data-name="Grupo 879851" transform="translate(0 0)">
          <path id="Trazado_592659" data-name="Trazado 592659" d="M130.1,109.733h16.885v18.791H130.1Z" transform="translate(-130.103 -109.733)" fill="#d5de58"/>
        </g>
      </g>
      <g id="Grupo_879854" data-name="Grupo 879854" transform="translate(70.774 40.19)">
        <g id="Grupo_879853" data-name="Grupo 879853" transform="translate(0 0)">
          <path id="Trazado_592660" data-name="Trazado 592660" d="M145.892,108.233H129.007a.4.4,0,0,0-.4.4v18.791a.4.4,0,0,0,.4.4h16.885a.4.4,0,0,0,.4-.4V108.637A.4.4,0,0,0,145.892,108.233Zm-.4,18.791H129.411V109.041h16.077Z" transform="translate(-128.603 -108.233)" fill="#3a312a"/>
        </g>
      </g>
      <g id="Grupo_879856" data-name="Grupo 879856" transform="translate(76.914 21.952)">
        <g id="Grupo_879855" data-name="Grupo 879855">
          <path id="Trazado_592661" data-name="Trazado 592661" d="M155.775,40.5h-3.328a1.045,1.045,0,0,0-1.043,1.043v1.6a8.474,8.474,0,0,1,5.414,0v-1.6A1.045,1.045,0,0,0,155.775,40.5Z" transform="translate(-151.404 -40.499)" fill="#f8e4c8"/>
        </g>
      </g>
      <g id="Grupo_879858" data-name="Grupo 879858" transform="translate(76.51 21.548)">
        <g id="Grupo_879857" data-name="Grupo 879857" transform="translate(0 0)">
          <path id="Trazado_592662" data-name="Trazado 592662" d="M154.68,39h-3.328a1.449,1.449,0,0,0-1.447,1.447v1.6a.4.4,0,0,0,.534.382,8.106,8.106,0,0,1,5.155,0,.4.4,0,0,0,.13.022.4.4,0,0,0,.4-.4v-1.6A1.449,1.449,0,0,0,154.68,39Zm.639,2.506a8.931,8.931,0,0,0-4.606,0V40.446a.64.64,0,0,1,.639-.639h3.328a.64.64,0,0,1,.639.639Z" transform="translate(-149.905 -38.999)" fill="#3a312a"/>
        </g>
      </g>
      <g id="Grupo_879860" data-name="Grupo 879860" transform="translate(71.178 24.155)">
        <g id="Grupo_879859" data-name="Grupo 879859" transform="translate(0 0)">
          <path id="Trazado_592663" data-name="Trazado 592663" d="M138.743,48.684a8.442,8.442,0,0,0-8.64,8.44V97.016a3.011,3.011,0,0,0,3.011,3.011h10.863a3.011,3.011,0,0,0,3.011-3.011V57.293A8.553,8.553,0,0,0,138.743,48.684Z" transform="translate(-130.103 -48.682)" fill="#89c4db"/>
        </g>
      </g>
      <g id="Grupo_879862" data-name="Grupo 879862" transform="translate(70.774 23.751)">
        <g id="Grupo_879861" data-name="Grupo 879861">
          <path id="Trazado_592664" data-name="Trazado 592664" d="M137.656,47.184a8.846,8.846,0,0,0-9.053,8.844V86.236a.4.4,0,0,0,.808,0V56.028a8.038,8.038,0,0,1,8.227-8.036,8.172,8.172,0,0,1,7.85,8.206V95.921a2.61,2.61,0,0,1-2.607,2.607H132.018a2.61,2.61,0,0,1-2.607-2.607V90.178a.4.4,0,0,0-.808,0v5.743a3.419,3.419,0,0,0,3.415,3.415h10.863a3.419,3.419,0,0,0,3.415-3.415V56.2A8.985,8.985,0,0,0,137.656,47.184Z" transform="translate(-128.603 -47.182)" fill="#3a312a"/>
        </g>
      </g>
      <g id="Grupo_879864" data-name="Grupo 879864" transform="translate(71.178 40.593)">
        <g id="Grupo_879863" data-name="Grupo 879863" transform="translate(0 0)">
          <path id="Trazado_592665" data-name="Trazado 592665" d="M137.25,109.733H130.1v18.791h16.885V109.733Z" transform="translate(-130.103 -109.733)" fill="#f16c7a"/>
        </g>
      </g>
      <g id="Grupo_879866" data-name="Grupo 879866" transform="translate(70.774 40.19)">
        <g id="Grupo_879865" data-name="Grupo 879865" transform="translate(0 0)">
          <path id="Trazado_592666" data-name="Trazado 592666" d="M145.892,108.233h-9.738a.4.4,0,0,0,0,.808h9.334v17.983H129.411V109.041h2.936a.4.4,0,0,0,0-.808h-3.34a.4.4,0,0,0-.4.4v18.791a.4.4,0,0,0,.4.4h16.885a.4.4,0,0,0,.4-.4V108.637A.4.4,0,0,0,145.892,108.233Z" transform="translate(-128.603 -108.233)" fill="#3a312a"/>
        </g>
      </g>
      <g id="Grupo_879868" data-name="Grupo 879868" transform="translate(60.121 37.693)">
        <g id="Grupo_879867" data-name="Grupo 879867" transform="translate(0 0)">
          <ellipse id="Elipse_4869" data-name="Elipse 4869" cx="4.067" cy="4.066" rx="4.067" ry="4.066" transform="translate(0 7.955) rotate(-77.881)" fill="#f16c7a"/>
        </g>
      </g>
      <g id="Grupo_879870" data-name="Grupo 879870" transform="translate(60.466 38.053)">
        <g id="Grupo_879869" data-name="Grupo 879869" transform="translate(0 0)">
          <path id="Trazado_592667" data-name="Trazado 592667" d="M94.79,100.3a4.47,4.47,0,1,0,4.471,4.471A4.476,4.476,0,0,0,94.79,100.3Zm0,8.133a3.663,3.663,0,1,1,3.663-3.663A3.667,3.667,0,0,1,94.79,108.432Z" transform="translate(-90.319 -100.299)" fill="#3a312a"/>
        </g>
      </g>
      <g id="Grupo_879872" data-name="Grupo 879872" transform="translate(62.049 39.612)">
        <g id="Grupo_879871" data-name="Grupo 879871">
          <ellipse id="Elipse_4870" data-name="Elipse 4870" cx="2.451" cy="2.451" rx="2.451" ry="2.451" transform="matrix(0.211, -0.978, 0.978, 0.211, 0, 4.795)" fill="#fce8cb"/>
        </g>
      </g>
      <g id="Grupo_879874" data-name="Grupo 879874" transform="translate(62.082 39.669)">
        <g id="Grupo_879873" data-name="Grupo 879873" transform="translate(0 0)">
          <path id="Trazado_592668" data-name="Trazado 592668" d="M99.174,106.3a2.855,2.855,0,1,0,2.855,2.855A2.858,2.858,0,0,0,99.174,106.3Zm0,4.9a2.047,2.047,0,1,1,2.047-2.047A2.05,2.05,0,0,1,99.174,111.2Z" transform="translate(-96.319 -106.299)" fill="#3a312a"/>
        </g>
      </g>
      <g id="Grupo_879876" data-name="Grupo 879876" transform="translate(77.868 15.683)">
        <g id="Grupo_879875" data-name="Grupo 879875" transform="translate(0 0)">
          <path id="Trazado_592669" data-name="Trazado 592669" d="M156.7,17.216a1.753,1.753,0,0,0-1.753,1.753v4.523a.287.287,0,0,1,.092-.01h3.326a.268.268,0,0,1,.088.01V18.969A1.753,1.753,0,0,0,156.7,17.216Z" transform="translate(-154.948 -17.216)" fill="#f8e4c8"/>
        </g>
      </g>
      <g id="Grupo_879878" data-name="Grupo 879878" transform="translate(77.464 15.279)">
        <g id="Grupo_879877" data-name="Grupo 879877">
          <path id="Trazado_592670" data-name="Trazado 592670" d="M155.6,15.716a2.159,2.159,0,0,0-2.157,2.157V22.4a.4.4,0,0,0,.492.394h3.33a.4.4,0,0,0,.492-.394V17.873A2.159,2.159,0,0,0,155.6,15.716Zm1.349,6.266h-2.7V17.873a1.349,1.349,0,1,1,2.7,0Z" transform="translate(-153.448 -15.716)" fill="#3a312a"/>
        </g>
      </g>
      <g id="Grupo_879880" data-name="Grupo 879880" transform="translate(81.013 59.787)">
        <g id="Grupo_879879" data-name="Grupo 879879" transform="translate(0)">
          <path id="Trazado_592671" data-name="Trazado 592671" d="M169.236,181.018v12.7a2.608,2.608,0,0,1-2.606,2.606h4.039a2.608,2.608,0,0,0,2.606-2.606v-12.7Z" transform="translate(-166.63 -181.018)" fill="#6ca8bf"/>
        </g>
      </g>
      <g id="Grupo_879882" data-name="Grupo 879882" transform="translate(77.567 24.558)">
        <g id="Grupo_879881" data-name="Grupo 879881" transform="translate(0 0)">
          <path id="Trazado_592672" data-name="Trazado 592672" d="M156.073,50.179a7.96,7.96,0,0,0-2.243.256,8.233,8.233,0,0,1,6.053,7.951v7.421h4.039V58.386A8.173,8.173,0,0,0,156.073,50.179Z" transform="translate(-153.83 -50.176)" fill="#6ca8bf"/>
        </g>
      </g>
      <g id="Grupo_879884" data-name="Grupo 879884" transform="translate(83.619 40.996)">
        <g id="Grupo_879883" data-name="Grupo 879883" transform="translate(0)">
          <path id="Trazado_592673" data-name="Trazado 592673" d="M176.31,111.229h4.039v17.983H176.31Z" transform="translate(-176.31 -111.229)" fill="#d34e5c"/>
        </g>
      </g>
    </g>
  </g>
</svg>
