<svg xmlns="http://www.w3.org/2000/svg" width="383.254" height="244.376" viewBox="0 0 383.254 244.376">
  <g id="Grupo_894591" data-name="Grupo 894591" transform="translate(-372.325 -222.612)">
    <ellipse id="Elipse_5224" data-name="Elipse 5224" cx="187.68" cy="23.927" rx="187.68" ry="23.927" transform="translate(380.22 419.134)" fill="#b8d5dc" opacity="0.5"/>
    <g id="Grupo_894522" data-name="Grupo 894522" transform="translate(372.325 351.416)">
      <path id="Trazado_636745" data-name="Trazado 636745" d="M605.1,1254.056h-5.943l5.322-48.227h5.943Z" transform="translate(-556.292 -1169.834)" fill="#99c4cc"/>
      <g id="Grupo_894521" data-name="Grupo 894521" transform="translate(0 0)">
        <path id="Trazado_636746" data-name="Trazado 636746" d="M471.551,1066.847H385.484l-13.159-51.009h86.067Z" transform="translate(-372.325 -1015.747)" fill="#99c4cc"/>
        <path id="Trazado_636747" data-name="Trazado 636747" d="M488.944,1066.847H402.876l-13.159-51.009h86.067Z" transform="translate(-386.43 -1015.747)" fill="#b8d5dc"/>
        <g id="Grupo_894514" data-name="Grupo 894514" transform="translate(6.579 12.489)">
          <rect id="Rectángulo_327194" data-name="Rectángulo 327194" width="86.068" height="0.731" fill="#99c4cc"/>
        </g>
        <g id="Grupo_894515" data-name="Grupo 894515" transform="translate(9.866 25.23)">
          <rect id="Rectángulo_327195" data-name="Rectángulo 327195" width="86.068" height="0.731" fill="#99c4cc"/>
        </g>
        <g id="Grupo_894516" data-name="Grupo 894516" transform="translate(13.154 37.969)">
          <rect id="Rectángulo_327196" data-name="Rectángulo 327196" width="86.067" height="0.731" fill="#99c4cc"/>
        </g>
        <g id="Grupo_894517" data-name="Grupo 894517" transform="translate(18.338 0)">
          <rect id="Rectángulo_327197" data-name="Rectángulo 327197" width="0.73" height="52.679" transform="translate(0 0.182) rotate(-14.467)" fill="#99c4cc"/>
        </g>
        <g id="Grupo_894518" data-name="Grupo 894518" transform="translate(36.535 0)">
          <rect id="Rectángulo_327198" data-name="Rectángulo 327198" width="0.73" height="52.679" transform="translate(0 0.182) rotate(-14.465)" fill="#99c4cc"/>
        </g>
        <g id="Grupo_894519" data-name="Grupo 894519" transform="translate(54.73)">
          <rect id="Rectángulo_327199" data-name="Rectángulo 327199" width="0.73" height="52.679" transform="translate(0 0.182) rotate(-14.467)" fill="#99c4cc"/>
        </g>
        <g id="Grupo_894520" data-name="Grupo 894520" transform="translate(72.926 0)">
          <rect id="Rectángulo_327200" data-name="Rectángulo 327200" width="0.73" height="52.679" transform="translate(0 0.182) rotate(-14.465)" fill="#99c4cc"/>
        </g>
      </g>
      <path id="Trazado_636748" data-name="Trazado 636748" d="M607.9,1437.8h10.074a4.389,4.389,0,0,1,4.389,4.389H607.9Z" transform="translate(-563.376 -1357.963)" fill="#99c4cc"/>
    </g>
    <g id="Grupo_894530" data-name="Grupo 894530" transform="translate(478.738 382.611)">
      <path id="Trazado_636749" data-name="Trazado 636749" d="M1088.561,1301.266h-3.91l3.5-31.73h3.911Z" transform="translate(-1056.446 -1252.695)" fill="#99c4cc"/>
      <path id="Trazado_636750" data-name="Trazado 636750" d="M1000.693,1214.305H944.067l-8.658-33.56h56.626Z" transform="translate(-935.409 -1180.684)" fill="#99c4cc"/>
      <path id="Trazado_636751" data-name="Trazado 636751" d="M1012.136,1214.305H955.509l-8.658-33.56h56.626Z" transform="translate(-944.689 -1180.684)" fill="#b8d5dc"/>
      <g id="Grupo_894523" data-name="Grupo 894523" transform="translate(4.329 8.217)">
        <rect id="Rectángulo_327201" data-name="Rectángulo 327201" width="56.627" height="0.483" fill="#99c4cc"/>
      </g>
      <g id="Grupo_894524" data-name="Grupo 894524" transform="translate(6.491 16.598)">
        <rect id="Rectángulo_327202" data-name="Rectángulo 327202" width="56.627" height="0.483" fill="#99c4cc"/>
      </g>
      <g id="Grupo_894525" data-name="Grupo 894525" transform="translate(8.654 24.981)">
        <rect id="Rectángulo_327203" data-name="Rectángulo 327203" width="56.626" height="0.483" fill="#99c4cc"/>
      </g>
      <g id="Grupo_894526" data-name="Grupo 894526" transform="translate(12.066 0)">
        <rect id="Rectángulo_327204" data-name="Rectángulo 327204" width="0.481" height="34.66" transform="translate(0 0.12) rotate(-14.464)" fill="#99c4cc"/>
      </g>
      <g id="Grupo_894527" data-name="Grupo 894527" transform="translate(24.037 0)">
        <rect id="Rectángulo_327205" data-name="Rectángulo 327205" width="0.481" height="34.661" transform="matrix(0.968, -0.25, 0.25, 0.968, 0, 0.12)" fill="#99c4cc"/>
      </g>
      <g id="Grupo_894528" data-name="Grupo 894528" transform="translate(36.009 0)">
        <rect id="Rectángulo_327206" data-name="Rectángulo 327206" width="0.481" height="34.661" transform="translate(0 0.12) rotate(-14.465)" fill="#99c4cc"/>
      </g>
      <g id="Grupo_894529" data-name="Grupo 894529" transform="translate(47.979 0)">
        <rect id="Rectángulo_327207" data-name="Rectángulo 327207" width="0.481" height="34.661" transform="matrix(0.968, -0.25, 0.25, 0.968, 0, 0.12)" fill="#99c4cc"/>
      </g>
      <path id="Trazado_636752" data-name="Trazado 636752" d="M1090.4,1422.154h6.628a2.888,2.888,0,0,1,2.888,2.887H1090.4Z" transform="translate(-1061.107 -1376.471)" fill="#99c4cc"/>
    </g>
    <g id="Grupo_894531" data-name="Grupo 894531" transform="translate(642.913 237.882)" opacity="0.8">
      <path id="Trazado_636753" data-name="Trazado 636753" d="M1852.351,421.292s-3.931-7.56-13.877-6.613-8.762,8.525-13.5,7.815-11.367,0-12.788,4.736-7.815,2.131-8.051,6.157,7.341,6.867,16.1,3.315,13.025,2.76,25.339,1.617,13.84-2.564,21.129-1.853,7.116-4.28,3.8-7.6S1853.772,425.871,1852.351,421.292Z" transform="translate(-1804.132 -414.597)" fill="#fff"/>
    </g>
    <g id="Grupo_894533" data-name="Grupo 894533" transform="translate(396.791 247.111)" opacity="0.6">
      <path id="Trazado_636755" data-name="Trazado 636755" d="M539.86,469.314A10.9,10.9,0,0,0,528.9,463.5c-7.853.832-6.918,7.49-10.658,6.866s-8.975,0-10.1,4.161-6.17,1.873-6.357,5.41,5.8,6.034,12.714,2.913,10.284,2.425,20.007,1.42,10.927-2.253,16.682-1.628,5.618-3.761,3-6.674S540.982,473.337,539.86,469.314Z" transform="translate(-501.787 -463.432)" fill="#fff"/>
    </g>
    <g id="Grupo_894535" data-name="Grupo 894535" transform="translate(682.694 308.345)">
      <path id="Trazado_636756" data-name="Trazado 636756" d="M2211.342,1060.914h-4.825l.4-35.527.617-54.417h2.187l.865,48.073Z" transform="translate(-2170.254 -936.288)" fill="#fff"/>
      <path id="Trazado_636757" data-name="Trazado 636757" d="M2212.319,1019.043a55.463,55.463,0,0,0-3.669,6.344l.617-54.417h2.187Z" transform="translate(-2171.984 -936.288)" fill="#b8d5dc"/>
      <g id="Grupo_894534" data-name="Grupo 894534" transform="translate(0)">
        <path id="Trazado_636758" data-name="Trazado 636758" d="M2210.018,823.137l-.985-2.981a9.889,9.889,0,0,1,1.7-9.322l18.789-23.217a.435.435,0,0,1,.725.472L2212.173,823.3A1.171,1.171,0,0,1,2210.018,823.137Z" transform="translate(-2171.89 -787.45)" fill="#fff"/>
        <path id="Trazado_636759" data-name="Trazado 636759" d="M2216.39,965.924l3.136-.141a9.889,9.889,0,0,1,8.513,4.163l17.266,24.372a.435.435,0,0,1-.651.57l-29.009-26.935A1.171,1.171,0,0,1,2216.39,965.924Z" transform="translate(-2177.352 -932.073)" fill="#fff"/>
        <path id="Trazado_636760" data-name="Trazado 636760" d="M2054.666,962.75l-1.6,2.7a9.889,9.889,0,0,1-8.139,4.853l-29.846,1.137a.435.435,0,0,1-.122-.857l38.411-9.57A1.172,1.172,0,0,1,2054.666,962.75Z" transform="translate(-2014.633 -928.186)" fill="#fff"/>
        <circle id="Elipse_5225" data-name="Elipse 5225" cx="2.552" cy="2.552" r="2.552" transform="translate(35.304 35.92) rotate(-61.83)" fill="#366f90"/>
      </g>
      <path id="Trazado_636761" data-name="Trazado 636761" d="M2191.118,1432.726H2174a5.089,5.089,0,0,1,5.089-5.089h6.936a5.089,5.089,0,0,1,5.089,5.089Z" transform="translate(-2143.886 -1306.652)" fill="#fff"/>
    </g>
    <g id="Grupo_894537" data-name="Grupo 894537" transform="translate(645.524 277.719)">
      <path id="Trazado_636762" data-name="Trazado 636762" d="M2063.939,948.156h-7.93l.663-48.95,1.014-74.978h3.594l1.422,66.237Z" transform="translate(-2011.02 -786.65)" fill="#fff"/>
      <path id="Trazado_636763" data-name="Trazado 636763" d="M2065.544,890.464a74.528,74.528,0,0,0-6.03,8.741l1.014-74.978h3.594Z" transform="translate(-2013.863 -786.65)" fill="#b8d5dc"/>
      <g id="Grupo_894536" data-name="Grupo 894536">
        <path id="Trazado_636764" data-name="Trazado 636764" d="M1969.341,812.56l1.928,4.305a14.86,14.86,0,0,1-1.117,14.195l-24.525,37.583a.653.653,0,0,1-1.156-.595l21.623-55.409A1.76,1.76,0,0,1,1969.341,812.56Z" transform="translate(-1920.521 -776.344)" fill="#fff"/>
        <path id="Trazado_636765" data-name="Trazado 636765" d="M1865.692,664.49l-4.667.691a14.86,14.86,0,0,1-13.363-4.917l-29.542-33.782a.654.654,0,0,1,.886-.952l47.488,35.813A1.76,1.76,0,0,1,1865.692,664.49Z" transform="translate(-1817.951 -625.391)" fill="#fff"/>
        <path id="Trazado_636766" data-name="Trazado 636766" d="M2061.4,745.615l1.972-4.286a14.859,14.859,0,0,1,11.421-8.5l44.436-6.274a.653.653,0,0,1,.313,1.262L2063.6,748.007A1.76,1.76,0,0,1,2061.4,745.615Z" transform="translate(-2015.259 -707.429)" fill="#fff"/>
        <path id="Trazado_636767" data-name="Trazado 636767" d="M2058.7,805.413a3.835,3.835,0,1,1-5.3-1.139A3.835,3.835,0,0,1,2058.7,805.413Z" transform="translate(-2007.483 -769.969)" fill="#366f90"/>
      </g>
      <path id="Trazado_636768" data-name="Trazado 636768" d="M2030.7,1456.686h-28.125a8.363,8.363,0,0,1,8.363-8.363h11.4a8.363,8.363,0,0,1,8.363,8.363Z" transform="translate(-1967.686 -1292.802)" fill="#fff"/>
    </g>
    <g id="Grupo_894538" data-name="Grupo 894538" transform="translate(452.949 358.484)">
      <path id="Trazado_636769" data-name="Trazado 636769" d="M846.479,1054.193c.3,8.942,1.021,17.865,1.51,26.8.2,3.595.427,7.172-.591,10.674a14.859,14.859,0,0,1-4.7,7.26c-6.206,5.255-14.955,4.826-22.562,5.551-6.57.626-13.964,2.458-18.243,7.908-4.69,5.974-3.381,14.086,1.184,19.724,4.986,6.157,13.254,8.413,20.8,9.231a61.488,61.488,0,0,0,26.256-2.895,35.776,35.776,0,0,0,5.965-2.574,54.423,54.423,0,0,0,5.374-3.66,39.5,39.5,0,0,1,10.528-5.6c16.1-5.488,33.2-.687,48.088,6.116,1.977.9,3.935,1.845,5.884,2.807,1.709.844,3.217-1.719,1.5-2.566-14.971-7.391-31.3-13.615-48.281-11.13A44.787,44.787,0,0,0,867.952,1125a56.76,56.76,0,0,0-10.321,6.345c-7.045,5-16.2,6.948-24.714,7.311-7.843.334-16.664-.47-23.428-4.816-5.5-3.534-9.783-11.061-6.61-17.511,2.9-5.9,10.146-8.11,16.216-8.78,7.968-.88,16.551-.381,23.561-4.933,5.534-3.594,8.243-9.467,8.483-15.949.159-4.314-.345-8.705-.615-13.009-.278-4.43-.571-8.859-.8-13.292q-.162-3.087-.271-6.176c-.065-1.907-3.037-1.916-2.972,0Z" transform="translate(-798.947 -1052.76)" fill="#acab58"/>
    </g>
    <g id="Grupo_894539" data-name="Grupo 894539" transform="translate(453.99 358.484)">
      <path id="Trazado_636770" data-name="Trazado 636770" d="M851.985,1054.193c.3,8.942,1.021,17.865,1.51,26.8.2,3.595.427,7.172-.591,10.674a14.859,14.859,0,0,1-4.7,7.26c-6.206,5.255-14.955,4.826-22.563,5.551-6.57.626-13.963,2.458-18.243,7.908-4.69,5.974-3.381,14.086,1.184,19.724,4.986,6.157,13.254,8.413,20.8,9.231a61.488,61.488,0,0,0,26.256-2.895,35.778,35.778,0,0,0,5.965-2.574,54.425,54.425,0,0,0,5.374-3.66,39.495,39.495,0,0,1,10.528-5.6c16.1-5.488,33.2-.687,48.088,6.116,1.977.9,3.935,1.845,5.884,2.807,1.709.844,3.217-1.719,1.5-2.566-14.971-7.391-31.3-13.615-48.281-11.13A44.784,44.784,0,0,0,873.458,1125a56.753,56.753,0,0,0-10.321,6.345c-7.045,5-16.2,6.948-24.714,7.311-7.843.334-16.664-.47-23.428-4.816-5.5-3.534-9.783-11.061-6.61-17.511,2.9-5.9,10.146-8.11,16.216-8.78,7.969-.88,16.551-.381,23.561-4.933,5.534-3.594,8.243-9.467,8.483-15.949.159-4.314-.346-8.705-.615-13.009-.278-4.43-.571-8.859-.8-13.292q-.162-3.087-.27-6.176c-.065-1.907-3.037-1.916-2.972,0Z" transform="translate(-804.453 -1052.76)" fill="#c4c66d"/>
    </g>
    <rect id="Rectángulo_327208" data-name="Rectángulo 327208" width="14.979" height="19.677" rx="7.489" transform="translate(496.687 359.827)" fill="#acab58"/>
    <g id="Grupo_894540" data-name="Grupo 894540" transform="translate(440.143 228.919)">
      <path id="Trazado_636771" data-name="Trazado 636771" d="M852.3,375v73.1a7.862,7.862,0,0,1-5.553,7.491,7.734,7.734,0,0,1-2.278.341,7.855,7.855,0,0,1-7.832-7.832V375a7.855,7.855,0,0,1,7.832-7.832,7.734,7.734,0,0,1,2.278.341A7.864,7.864,0,0,1,852.3,375Z" transform="translate(-816.708 -367.168)" fill="#b8d5dc"/>
      <path id="Trazado_636772" data-name="Trazado 636772" d="M871.856,376.462v73.1a5.8,5.8,0,1,1-11.107,0v-73.1a5.632,5.632,0,1,1,11.107,0Z" transform="translate(-836.263 -368.63)" fill="#fff"/>
      <path id="Trazado_636773" data-name="Trazado 636773" d="M1208.35,375v73.1a7.862,7.862,0,0,1-5.553,7.491,7.734,7.734,0,0,1-2.278.341,7.855,7.855,0,0,1-7.832-7.832V375a7.855,7.855,0,0,1,7.832-7.832,7.734,7.734,0,0,1,2.278.341A7.865,7.865,0,0,1,1208.35,375Z" transform="translate(-1105.469 -367.168)" fill="#b8d5dc"/>
      <path id="Trazado_636774" data-name="Trazado 636774" d="M1227.906,376.462v73.1a5.8,5.8,0,1,1-11.107,0v-73.1a5.631,5.631,0,1,1,11.107,0Z" transform="translate(-1125.025 -368.63)" fill="#fff"/>
      <path id="Rectángulo_327209" data-name="Rectángulo 327209" d="M47.181,0H62.837a47.181,47.181,0,0,1,47.181,47.181v0A47.181,47.181,0,0,1,62.837,94.362H47.181A47.181,47.181,0,0,1,0,47.181v0A47.181,47.181,0,0,1,47.181,0Z" transform="translate(0 46.89)" fill="#acab58"/>
      <rect id="Rectángulo_327210" data-name="Rectángulo 327210" width="102.714" height="94.362" rx="47.181" transform="translate(14.733 46.89)" fill="#c4c66d"/>
    </g>
    <g id="Grupo_894541" data-name="Grupo 894541" transform="translate(486.819 298.672)">
      <path id="Trazado_636775" data-name="Trazado 636775" d="M994.667,788.862l14.119-20.847H993.015l19.91-31.752H1026l-16.493,25.017H1026Z" transform="translate(-990.21 -736.263)" fill="#acab58"/>
      <path id="Trazado_636776" data-name="Trazado 636776" d="M982.626,788.862l11.313-20.847H978.169l19.91-31.752h13.076l-16.493,25.017h16.493Z" transform="translate(-978.169 -736.263)" fill="#fff"/>
    </g>
    <g id="Grupo_894552" data-name="Grupo 894552" transform="translate(620.217 362.765)">
      <path id="Trazado_636777" data-name="Trazado 636777" d="M1967.353,1280.874c-.127.749-.052,2.316-.165,3.069-.049.326-.14,1.443.169,1.567.269.108.748-.7.929-1.123,1.128,2.578,3.5,5.535,1.481.281l.007,0c.207.439,1.619,3.71,2.212,3.235.434-.348-.805-3.008-1.138-3.734l.018-.01c.4.713,1.486,2.924,1.918,2.614.568-.408-.923-3.218-.923-3.218s1.182,2.359,1.6,1.651c.238-.4-.5-1.775-.977-2.626h0c-.1-.178-.187-.334-.251-.452a1.429,1.429,0,0,0-.17-.25,12.871,12.871,0,0,0-1.643-2.131,1.644,1.644,0,0,0-1.948-.524A2.372,2.372,0,0,0,1967.353,1280.874Z" transform="translate(-1913.636 -1240.588)" fill="#ffb27d"/>
      <path id="Trazado_636778" data-name="Trazado 636778" d="M1691.1,1086.372c-.081-.755-.579-2.238-.675-2.993-.042-.327-.258-1.425-.588-1.455-.287-.027-.527.89-.587,1.345-1.784-2.15-4.87-4.305-1.5.156l-.006,0c-.318-.362-2.563-3.1-3-2.47-.322.459,1.591,2.656,2.108,3.257l-.014.015c-.575-.57-2.222-2.38-2.552-1.958-.435.555,1.76,2.824,1.76,2.824s-1.777-1.925-1.99-1.123c-.12.452.966,1.559,1.652,2.239h0c.144.143.27.267.364.362a1.4,1.4,0,0,0,.231.191,12.576,12.576,0,0,0,2.157,1.573,1.634,1.634,0,0,0,2.013-.057A2.411,2.411,0,0,0,1691.1,1086.372Z" transform="translate(-1684.04 -1079.793)" fill="#ffb27d"/>
      <path id="Trazado_636779" data-name="Trazado 636779" d="M1832.653,1523.926s.062,1.723-1.113,2.276-4.635,1.187-3.263,2.22c.787.593,4.287-.016,5.282-.072s1.955.311,2.655-.375c.77-.754-.261-4.236-.261-4.236a4.066,4.066,0,0,1-1.606.505A3.262,3.262,0,0,1,1832.653,1523.926Z" transform="translate(-1800.762 -1439.013)" fill="#331832"/>
      <path id="Trazado_636780" data-name="Trazado 636780" d="M1944.355,1479.328s2.555,6.787,2.037,8-2.691,4.061-1,3.891c.972-.1,3.19-2.95,3.9-3.673s1.661-1.109,1.74-2.1c.086-1.09-3.3-4.565-3.3-4.565s-.328-4.949-.89-4.4C1946.027,1477.273,1944.355,1479.328,1944.355,1479.328Z" transform="translate(-1895.16 -1400.653)" fill="#331832"/>
      <path id="Trazado_636781" data-name="Trazado 636781" d="M1856.682,1078.149s.2-2.971,2.906-2.724,1.745,2.079,2.134,2.667-1.1,1.821-2.419,1.772S1856.682,1078.149,1856.682,1078.149Z" transform="translate(-1824.056 -1075.41)" fill="#ef8062"/>
      <path id="Trazado_636782" data-name="Trazado 636782" d="M1804.027,1289.391c.486-5.462,11.706.86,11.706.86s3.927,37.642,1.626,42.86c-.454,1.03-2.309.97-3.175.853-6.127-.83-7.224-19.623-8.639-27.9C1804.835,1301.9,1803.733,1292.694,1804.027,1289.391Z" transform="translate(-1781.312 -1247.149)" fill="#ef8062"/>
      <path id="Trazado_636783" data-name="Trazado 636783" d="M1824.61,1280.778c-.353,1.336-5.533,2.628-11.662,1.063s-10.9-3.187-10.549-4.523,5.7-1.879,11.829-.315S1824.964,1279.442,1824.61,1280.778Z" transform="translate(-1780.016 -1238.133)" fill="#331832"/>
      <path id="Trazado_636784" data-name="Trazado 636784" d="M1805.34,1159.789a19.393,19.393,0,0,1-2.862-1.716,11.365,11.365,0,0,1,10.194-5.01c.944.073,5.2.922,6.107,1.1,11.7,2.348,5.965,26.317,5.91,26.837a39.908,39.908,0,0,0-22.211-3.46A64.486,64.486,0,0,1,1805.34,1159.789Z" transform="translate(-1780.095 -1138.359)" fill="#71a99e"/>
      <path id="Trazado_636785" data-name="Trazado 636785" d="M1823.816,1288.73s-10.28-3.467-18.857-3.138a.768.768,0,0,0-.747.69s-.239,3.073-.186,4.1c.116,2.266,20.452,1.9,20.452,1.9Z" transform="translate(-1781.344 -1245.853)" fill="#ef8062"/>
      <path id="Trazado_636786" data-name="Trazado 636786" d="M1860.183,1120.867a4.538,4.538,0,0,1-3.768,1.461c-2.307-.053-1.179-2.325-1.179-2.325a.836.836,0,0,0,.943-.816l.072-.67.035-.332.115-1.061.1-.953.422-3.908.973,4.011.166.681.57,2.351a2.168,2.168,0,0,0,1.537,1.557Z" transform="translate(-1822.659 -1105.299)" fill="#ffb27d"/>
      <path id="Trazado_636787" data-name="Trazado 636787" d="M1863.751,1137.093a2.723,2.723,0,0,1-1.779,1.229l.115-1.061C1862.757,1137.149,1863.751,1137.093,1863.751,1137.093Z" transform="translate(-1828.346 -1125.436)" fill="#331832"/>
      <path id="Trazado_636788" data-name="Trazado 636788" d="M1877.555,1118.721a4.241,4.241,0,0,0-.619,1.875c-.3,1.982-2.717,1.778-3.017,1.038-.037-.092,1.429-3.033,1.429-3.033l.84-.081Z" transform="translate(-1838.035 -1110.373)" fill="#ef8062"/>
      <ellipse id="Elipse_5226" data-name="Elipse 5226" cx="4.548" cy="3.805" rx="4.548" ry="3.805" transform="translate(29.222 9.95) rotate(-63.811)" fill="#ffb27d"/>
      <path id="Trazado_636789" data-name="Trazado 636789" d="M1853.821,1089.227c.038.17-1.491,2.047,2.355,4.392s3.6-3.532.642-5c-4.275-2.114-6.211.419-6.263,1.621S1853.821,1089.227,1853.821,1089.227Z" transform="translate(-1819.086 -1085.466)" fill="#ef8062"/>
      <path id="Trazado_636790" data-name="Trazado 636790" d="M1877.443,1113.9s.883,2.446-.5,3.918c0,0,1.438-.583,1.636-.954a15.626,15.626,0,0,0,.576-1.859Z" transform="translate(-1840.49 -1106.627)" fill="#ef8062"/>
      <path id="Trazado_636791" data-name="Trazado 636791" d="M1876.173,1118.613a.958.958,0,0,1-1.266-.47,1,1,0,0,1,.764-1.139.958.958,0,0,1,1.266.47A1,1,0,0,1,1876.173,1118.613Z" transform="translate(-1838.811 -1109.089)" fill="#ffb27d"/>
      <g id="Grupo_894542" data-name="Grupo 894542" transform="translate(34.258 7.288)">
        <path id="Trazado_636792" data-name="Trazado 636792" d="M1865.347,1114.123a.083.083,0,0,1,.058-.148.956.956,0,0,1,.92.68.082.082,0,0,1-.053.106.1.1,0,0,1-.11-.053,1.514,1.514,0,0,0-.764-.565A.089.089,0,0,1,1865.347,1114.123Z" transform="translate(-1865.315 -1113.975)" fill="#080435"/>
      </g>
      <path id="Trazado_636793" data-name="Trazado 636793" d="M1864.427,1118.728a.33.33,0,0,1-.392.229.324.324,0,0,1-.11-.437.33.33,0,0,1,.392-.23A.324.324,0,0,1,1864.427,1118.728Z" transform="translate(-1829.9 -1110.174)" fill="#080435"/>
      <g id="Grupo_894543" data-name="Grupo 894543" transform="translate(31.227 6.335)">
        <path id="Trazado_636794" data-name="Trazado 636794" d="M1849.34,1109.162a.087.087,0,0,1-.056-.052.082.082,0,0,1,.051-.107.962.962,0,0,1,1.111.293.083.083,0,0,1-.006.118.1.1,0,0,1-.122-.008,1.531,1.531,0,0,0-.923-.244A.088.088,0,0,1,1849.34,1109.162Z" transform="translate(-1849.279 -1108.933)" fill="#080435"/>
      </g>
      <path id="Trazado_636795" data-name="Trazado 636795" d="M1850.75,1113.611c0,.2-.12.361-.27.359s-.271-.166-.272-.367.12-.361.27-.359S1850.75,1113.41,1850.75,1113.611Z" transform="translate(-1818.805 -1106.094)" fill="#080435"/>
      <path id="Trazado_636796" data-name="Trazado 636796" d="M1862.972,1110.308a2.366,2.366,0,0,1-1.782,2.164c-.848.073-1.425-.777-1.289-1.9a2.367,2.367,0,0,1,1.782-2.164C1862.531,1108.336,1863.108,1109.186,1862.972,1110.308Z" transform="translate(-1826.651 -1102.169)" fill="#fff" opacity="0.3"/>
      <ellipse id="Elipse_5227" data-name="Elipse 5227" cx="2.07" cy="1.275" rx="2.07" ry="1.275" transform="translate(29.18 8.599) rotate(-65.118)" fill="#fff" opacity="0.3"/>
      <g id="Grupo_894544" data-name="Grupo 894544" transform="translate(33.025 5.926)">
        <path id="Trazado_636797" data-name="Trazado 636797" d="M1862.085,1109.431a2.933,2.933,0,0,0,.106-.435c.009-.051.017-.1.023-.154.01-.087.017-.172.019-.258a1.95,1.95,0,0,0-.5-1.45,1.212,1.212,0,0,0-.982-.365,1.458,1.458,0,0,0-.229.038,2.664,2.664,0,0,0-1.574,1.658,2.918,2.918,0,0,0-.139.615,2.788,2.788,0,0,0-.005.589,1.81,1.81,0,0,0,.485,1.119,1.287,1.287,0,0,0,.368.259,1.213,1.213,0,0,0,.615.106,1.5,1.5,0,0,0,.528-.144,2.465,2.465,0,0,0,1.075-1.086c.028-.05.054-.1.079-.155A3.062,3.062,0,0,0,1862.085,1109.431Zm-2.967.866a1.96,1.96,0,0,1-.171-.639,2.489,2.489,0,0,1,0-.56,2.931,2.931,0,0,1,.122-.559,2.484,2.484,0,0,1,.094-.25,2.211,2.211,0,0,1,1.427-1.354,1.089,1.089,0,0,1,.172-.026,1.073,1.073,0,0,1,.866.321,1.534,1.534,0,0,1,.378.686,2.026,2.026,0,0,1,.063.345c0,.007,0,.013,0,.02a.033.033,0,0,1,0,.011,1.45,1.45,0,0,1,.01.188,2.439,2.439,0,0,1-.016.345,2.677,2.677,0,0,1-.07.375c-.02.083-.045.163-.073.242s-.062.166-.1.245h0a2.4,2.4,0,0,1-1.031,1.163,1.382,1.382,0,0,1-.543.163,1.1,1.1,0,0,1-.551-.1,1.08,1.08,0,0,1-.315-.225,1.371,1.371,0,0,1-.268-.389A.025.025,0,0,0,1859.117,1110.3Z" transform="translate(-1858.79 -1106.766)" fill="#331832"/>
      </g>
      <g id="Grupo_894545" data-name="Grupo 894545" transform="translate(29.665 5.026)">
        <path id="Trazado_636798" data-name="Trazado 636798" d="M1843.781,1104.612c.022-.056.042-.111.061-.168a.436.436,0,0,0-.055.006,3.23,3.23,0,0,1-.375.839.005.005,0,0,1,0,0c.02-.027.038-.054.056-.082,0,0,.006-.009.008-.014.022-.032.043-.067.063-.1.03-.05.062-.1.09-.155s.055-.107.081-.162S1843.76,1104.666,1843.781,1104.612Zm0,0c.022-.056.042-.111.061-.168a.436.436,0,0,0-.055.006,3.23,3.23,0,0,1-.375.839.005.005,0,0,1,0,0c.02-.027.038-.054.056-.082,0,0,.006-.009.008-.014.022-.032.043-.067.063-.1.03-.05.062-.1.09-.155s.055-.107.081-.162S1843.76,1104.666,1843.781,1104.612Zm0,0c.022-.056.042-.111.061-.168a.436.436,0,0,0-.055.006,3.23,3.23,0,0,1-.375.839.005.005,0,0,1,0,0c.02-.027.038-.054.056-.082,0,0,.006-.009.008-.014.022-.032.043-.067.063-.1.03-.05.062-.1.09-.155s.055-.107.081-.162S1843.76,1104.666,1843.781,1104.612Zm0,0c.022-.056.042-.111.061-.168a.436.436,0,0,0-.055.006,3.23,3.23,0,0,1-.375.839.005.005,0,0,1,0,0c.02-.027.038-.054.056-.082,0,0,.006-.009.008-.014.022-.032.043-.067.063-.1.03-.05.062-.1.09-.155s.055-.107.081-.162S1843.76,1104.666,1843.781,1104.612Zm0,0c.022-.056.042-.111.061-.168a.436.436,0,0,0-.055.006,3.23,3.23,0,0,1-.375.839.005.005,0,0,1,0,0c.02-.027.038-.054.056-.082,0,0,.006-.009.008-.014.022-.032.043-.067.063-.1.03-.05.062-.1.09-.155s.055-.107.081-.162S1843.76,1104.666,1843.781,1104.612Zm0,0c.022-.056.042-.111.061-.168a.436.436,0,0,0-.055.006,3.23,3.23,0,0,1-.375.839.005.005,0,0,1,0,0c.02-.027.038-.054.056-.082,0,0,.006-.009.008-.014.022-.032.043-.067.063-.1.03-.05.062-.1.09-.155s.055-.107.081-.162S1843.76,1104.666,1843.781,1104.612Zm0,0c.022-.056.042-.111.061-.168a.436.436,0,0,0-.055.006,3.23,3.23,0,0,1-.375.839.005.005,0,0,1,0,0c.02-.027.038-.054.056-.082,0,0,.006-.009.008-.014.022-.032.043-.067.063-.1.03-.05.062-.1.09-.155s.055-.107.081-.162S1843.76,1104.666,1843.781,1104.612Zm0,0c.022-.056.042-.111.061-.168a.436.436,0,0,0-.055.006,3.23,3.23,0,0,1-.375.839.005.005,0,0,1,0,0c.02-.027.038-.054.056-.082,0,0,.006-.009.008-.014.022-.032.043-.067.063-.1.03-.05.062-.1.09-.155s.055-.107.081-.162S1843.76,1104.666,1843.781,1104.612Zm.156-.172c.025-.084.045-.17.061-.256.009-.046.016-.093.023-.14a2.08,2.08,0,0,0-.4-1.74,1.043,1.043,0,0,0-.279-.2.924.924,0,0,0-.259-.084.969.969,0,0,0-.2-.01h0c-.016,0-.035,0-.052,0-.811.072-1.614,1.085-1.785,2.261a2.081,2.081,0,0,0,.405,1.74.979.979,0,0,0,.3.217.942.942,0,0,0,.423.082h.006l.055,0a1.48,1.48,0,0,0,.849-.411v0h0a2.869,2.869,0,0,0,.657-.921A3.2,3.2,0,0,0,1843.938,1104.44Zm-.548.882a2.282,2.282,0,0,1-.55.592,1.242,1.242,0,0,1-.526.237s0,0,0,0a0,0,0,0,1,0,0,.054.054,0,0,1-.02,0,.452.452,0,0,1-.067.01.581.581,0,0,1-.078,0,.8.8,0,0,1-.591-.254,1.93,1.93,0,0,1-.371-1.593s0,0,0-.005,0-.005,0-.006v-.018c.164-1.117.908-2.079,1.66-2.145a.833.833,0,0,1,.142,0,.771.771,0,0,1,.267.067.855.855,0,0,1,.261.185.181.181,0,0,1,.018.02,1.431,1.431,0,0,1,.326.662,2.6,2.6,0,0,1,.022.94c-.009.053-.017.106-.027.159-.019.09-.04.181-.066.27a3.23,3.23,0,0,1-.375.839A.378.378,0,0,0,1843.39,1105.322Zm.392-.711c.022-.056.042-.111.061-.168a.436.436,0,0,0-.055.006,3.23,3.23,0,0,1-.375.839.005.005,0,0,1,0,0c.02-.027.038-.054.056-.082,0,0,.006-.009.008-.014.022-.032.043-.067.063-.1.03-.05.062-.1.09-.155s.055-.107.081-.162S1843.76,1104.666,1843.781,1104.612Zm0,0c.022-.056.042-.111.061-.168a.436.436,0,0,0-.055.006,3.23,3.23,0,0,1-.375.839.005.005,0,0,1,0,0c.02-.027.038-.054.056-.082,0,0,.006-.009.008-.014.022-.032.043-.067.063-.1.03-.05.062-.1.09-.155s.055-.107.081-.162S1843.76,1104.666,1843.781,1104.612Zm0,0c.022-.056.042-.111.061-.168a.436.436,0,0,0-.055.006,3.23,3.23,0,0,1-.375.839.005.005,0,0,1,0,0c.02-.027.038-.054.056-.082,0,0,.006-.009.008-.014.022-.032.043-.067.063-.1.03-.05.062-.1.09-.155s.055-.107.081-.162S1843.76,1104.666,1843.781,1104.612Zm0,0c.022-.056.042-.111.061-.168a.436.436,0,0,0-.055.006,3.23,3.23,0,0,1-.375.839.005.005,0,0,1,0,0c.02-.027.038-.054.056-.082,0,0,.006-.009.008-.014.022-.032.043-.067.063-.1.03-.05.062-.1.09-.155s.055-.107.081-.162S1843.76,1104.666,1843.781,1104.612Zm0,0c.022-.056.042-.111.061-.168a.436.436,0,0,0-.055.006,3.23,3.23,0,0,1-.375.839.005.005,0,0,1,0,0c.02-.027.038-.054.056-.082,0,0,.006-.009.008-.014.022-.032.043-.067.063-.1.03-.05.062-.1.09-.155s.055-.107.081-.162S1843.76,1104.666,1843.781,1104.612Zm0,0c.022-.056.042-.111.061-.168a.436.436,0,0,0-.055.006,3.23,3.23,0,0,1-.375.839.005.005,0,0,1,0,0c.02-.027.038-.054.056-.082,0,0,.006-.009.008-.014.022-.032.043-.067.063-.1.03-.05.062-.1.09-.155s.055-.107.081-.162S1843.76,1104.666,1843.781,1104.612Zm0,0c.022-.056.042-.111.061-.168a.436.436,0,0,0-.055.006,3.23,3.23,0,0,1-.375.839.005.005,0,0,1,0,0c.02-.027.038-.054.056-.082,0,0,.006-.009.008-.014.022-.032.043-.067.063-.1.03-.05.062-.1.09-.155s.055-.107.081-.162S1843.76,1104.666,1843.781,1104.612Z" transform="translate(-1841.01 -1102.006)" fill="#331832"/>
      </g>
      <g id="Grupo_894546" data-name="Grupo 894546" transform="translate(32.266 7.201)">
        <path id="Trazado_636799" data-name="Trazado 636799" d="M1854.853,1113.775a.133.133,0,0,1-.075-.089.127.127,0,0,1,.1-.156,1.508,1.508,0,0,1,1.164.322.128.128,0,0,1,.027.183.136.136,0,0,1-.187.023,1.238,1.238,0,0,0-.938-.274A.138.138,0,0,1,1854.853,1113.775Z" transform="translate(-1854.774 -1113.513)" fill="#331832"/>
      </g>
      <path id="Trazado_636800" data-name="Trazado 636800" d="M1886.929,1091.721s1.568-2.535,3.886-1.121,1.2,2.526.671,3.3a2.571,2.571,0,0,1-3,.5C1887.323,1093.769,1886.929,1091.721,1886.929,1091.721Z" transform="translate(-1848.586 -1087.381)" fill="#ef8062"/>
      <g id="Grupo_894547" data-name="Grupo 894547" transform="translate(35.786 11.901)">
        <path id="Trazado_636801" data-name="Trazado 636801" d="M1875.01,1139.768a.081.081,0,0,1-.069-.038,3.64,3.64,0,0,0-1.493-1.188.082.082,0,0,1-.043-.106.077.077,0,0,1,.108-.044,3.733,3.733,0,0,1,1.566,1.25.082.082,0,0,1-.023.113A.087.087,0,0,1,1875.01,1139.768Z" transform="translate(-1873.399 -1138.384)" fill="#ef8062"/>
      </g>
      <g id="Grupo_894548" data-name="Grupo 894548" transform="translate(31.742 9.764)">
        <path id="Trazado_636802" data-name="Trazado 636802" d="M1853.233,1127.687c-.393,0-1-.08-1.229-.547a.046.046,0,0,1,.021-.06.048.048,0,0,1,.059.02c.307.643,1.479.485,1.487.479a.052.052,0,0,1,.05.038.045.045,0,0,1-.036.051A2.861,2.861,0,0,1,1853.233,1127.687Z" transform="translate(-1852 -1127.077)" fill="#020202"/>
      </g>
      <path id="Trazado_636803" data-name="Trazado 636803" d="M1849.374,1152.744s-1.01,2.221,1.179,2.325c0,0-1.176,1.089-1.971.623s-.015-.846-.351-1.152-.708-.53-.357-.87.022-.959.022-.959A3.214,3.214,0,0,1,1849.374,1152.744Z" transform="translate(-1816.797 -1138.04)" fill="#daebe8"/>
      <path id="Trazado_636804" data-name="Trazado 636804" d="M1848.74,1181.137a.345.345,0,1,0-.352.325A.339.339,0,0,0,1848.74,1181.137Z" transform="translate(-1817.055 -1160.88)" fill="#daebe8"/>
      <path id="Trazado_636805" data-name="Trazado 636805" d="M1839.8,1237.553a.345.345,0,1,0-.352.325A.339.339,0,0,0,1839.8,1237.553Z" transform="translate(-1809.807 -1206.635)" fill="#daebe8"/>
      <path id="Trazado_636806" data-name="Trazado 636806" d="M1840.386,1211.912a.345.345,0,1,0-.352.325A.339.339,0,0,0,1840.386,1211.912Z" transform="translate(-1810.281 -1185.839)" fill="#daebe8"/>
      <path id="Trazado_636807" data-name="Trazado 636807" d="M1725.569,1124.138a61.3,61.3,0,0,0-1.554,13.586l8.652-22.545a46.06,46.06,0,0,1-11.616-1.4c-3.95-.983-11-6.953-11.734-7.381-.8-.462-3.635,2.954-3.635,2.954C1705.049,1110.466,1715,1121.611,1725.569,1124.138Z" transform="translate(-1701.57 -1100.509)" fill="#71a99e"/>
      <path id="Trazado_636808" data-name="Trazado 636808" d="M1882.388,1159.532s7.542.172,18.016,22.039a1.321,1.321,0,0,1-.553,1.732l-2.434,1.3a2.275,2.275,0,0,1-2.991-.792c-2.208-3.412-7.261-10.706-11.4-12.863C1877.57,1168.1,1882.388,1159.532,1882.388,1159.532Z" transform="translate(-1843.312 -1143.634)" fill="#71a99e"/>
      <path id="Trazado_636809" data-name="Trazado 636809" d="M1866.1,1157.787l1.552.33a.784.784,0,0,1-.511,1.022c-.769.231-.922.228-1.18.794s-1.209.569-1.539.363-.933.526-1.475.514-.841-.949-.616-1.561A10.107,10.107,0,0,0,1866.1,1157.787Z" transform="translate(-1828.578 -1142.219)" fill="#daebe8"/>
      <g id="Grupo_894549" data-name="Grupo 894549" transform="translate(41.826 28.417)">
        <path id="Trazado_636810" data-name="Trazado 636810" d="M1909.523,1230.5a.053.053,0,0,1-.049-.031,14,14,0,0,0-4.093-4.6.054.054,0,0,1,.062-.089,14.181,14.181,0,0,1,4.128,4.642.054.054,0,0,1-.026.071A.075.075,0,0,1,1909.523,1230.5Z" transform="translate(-1905.359 -1225.778)" fill="#331832"/>
      </g>
      <g id="Grupo_894550" data-name="Grupo 894550" transform="translate(23.946 21.859)">
        <path id="Trazado_636811" data-name="Trazado 636811" d="M1810.8,1192.9a.033.033,0,0,1-.015,0,.053.053,0,0,1-.036-.067l.534-1.718a.06.06,0,0,1,.067-.036.052.052,0,0,1,.036.067l-.534,1.718A.054.054,0,0,1,1810.8,1192.9Z" transform="translate(-1810.751 -1191.078)" fill="#331832"/>
      </g>
      <path id="Trazado_636812" data-name="Trazado 636812" d="M1837.7,1301.075s6.639,29.463,18.307,40a3.637,3.637,0,0,0,4.1.537l2.136-1.089a3.049,3.049,0,0,0,1.313-4.056c-3.022-6.132-10.192-21.658-12.427-35.162Z" transform="translate(-1808.66 -1258.428)" fill="#ef8062"/>
      <g id="Grupo_894551" data-name="Grupo 894551" transform="translate(27.737 46.598)">
        <path id="Trazado_636813" data-name="Trazado 636813" d="M1839.262,1340.434a124.2,124.2,0,0,1-3.98-12.318,8.89,8.89,0,0,0-4.472-6l.061-.137a9.06,9.06,0,0,1,4.555,6.1,124.089,124.089,0,0,0,3.975,12.3Z" transform="translate(-1830.81 -1321.983)" fill="#331832"/>
      </g>
    </g>
    <g id="Grupo_894561" data-name="Grupo 894561" transform="translate(467.692 236.498)">
      <g id="Grupo_894553" data-name="Grupo 894553" transform="translate(17.266 2.099)">
        <path id="Trazado_636814" data-name="Trazado 636814" d="M1001.221,420.887a5.459,5.459,0,0,0-5.723-2.425c-4.075.619-6.894,5.1-10.06,2.408s-6.508-2.568-8.455-.125.527,5.445-4.561,4.594-5.24,3.64-1.572,8,14.333,6.49,19.046,4.344,10.055-5.118,11.882-7.212S1004.327,422.732,1001.221,420.887Z" transform="translate(-968.321 -418.379)" fill="#331832"/>
      </g>
      <g id="Grupo_894554" data-name="Grupo 894554" transform="translate(28.256 1.282)">
        <path id="Trazado_636815" data-name="Trazado 636815" d="M1047.8,417.882c-.007-.035-.766-3.5-3.915-3.6-2.186-.068-4.055,1.027-5.7,2-1.575.93-2.935,1.734-4.055,1.056-2.792-1.691-4.824-2.348-7.56-.978l-.1-.2c3.107-1.555,5.45-.42,7.774.987,1.006.61,2.252-.126,3.828-1.057,1.667-.985,3.555-2.1,5.816-2.027,3.325.109,4.116,3.743,4.124,3.78Z" transform="translate(-1026.474 -414.054)" fill="#331832"/>
      </g>
      <g id="Grupo_894555" data-name="Grupo 894555" transform="translate(31.033 5.173)">
        <path id="Trazado_636816" data-name="Trazado 636816" d="M1045.465,437.994a7.041,7.041,0,0,1-4.283-1.926.038.038,0,0,1,0-.053.044.044,0,0,1,.051,0c2.619,2.186,5.081,2.514,6.591.88a5.354,5.354,0,0,1,5.772-1.7,2.878,2.878,0,0,0,3.131-.537.037.037,0,0,1,.052,0,.035.035,0,0,1,0,.051,2.9,2.9,0,0,1-2,.8,3.207,3.207,0,0,1-1.215-.248,5.285,5.285,0,0,0-5.692,1.678A3.168,3.168,0,0,1,1045.465,437.994Z" transform="translate(-1041.169 -434.646)" fill="#331832"/>
      </g>
      <g id="Grupo_894556" data-name="Grupo 894556" transform="translate(23.515 5.072)">
        <path id="Trazado_636817" data-name="Trazado 636817" d="M1005.508,442.651a29.114,29.114,0,0,1-4.12-7.833l3.938-.71c2.16,5.581,8.416,9.815,13.833,9.238l4.4,6.275C1020.441,450.791,1010.62,449.029,1005.508,442.651Z" transform="translate(-1001.388 -434.108)" fill="#ffb27d"/>
      </g>
      <path id="Trazado_636818" data-name="Trazado 636818" d="M998.842,413.593c.152-.635.168-1.984.308-2.623.061-.277.2-1.23-.068-1.353-.233-.108-.7.562-.885.911-.867-2.274-2.825-4.944-1.3-.324h-.006c-.161-.389-1.244-3.274-1.8-2.9-.4.274.558,2.625.815,3.267l-.016.008c-.315-.634-1.167-2.592-1.568-2.35-.526.318.651,2.812.651,2.812s-.927-2.09-1.34-1.506c-.233.329.355,1.551.731,2.307h0c.079.159.149.3.2.4a1.224,1.224,0,0,0,.138.224,11.173,11.173,0,0,0,1.348,1.92,1.5,1.5,0,0,0,1.7.558A2.031,2.031,0,0,0,998.842,413.593Z" transform="translate(-971.543 -407.272)" fill="#ffb27d"/>
      <path id="Trazado_636819" data-name="Trazado 636819" d="M1004.272,740.707s.091,3.425-.4,4.39-2.435,3.129-1.007,3.149c.819.011,2.8-2.154,3.429-2.69s1.512-.759,1.551-1.584c.018-.391-.645-.943-.9-1.63a11.753,11.753,0,0,1-.569-2.511s-1.033-1.157-1.528-.754A1.956,1.956,0,0,0,1004.272,740.707Z" transform="translate(-978.656 -676.302)" fill="#331832"/>
      <path id="Trazado_636820" data-name="Trazado 636820" d="M1076.331,582.5c-.374,1.255-5.163.935-10.7-.715s-9.716-4-9.342-5.26,5.164-.935,10.7.715S1076.705,581.242,1076.331,582.5Z" transform="translate(-1022.382 -543.915)" fill="#331832"/>
      <path id="Trazado_636821" data-name="Trazado 636821" d="M884.423,654.4s-3.166,1.159-4.2,1-3.61-1.329-3.222.031c.223.781,2.807,1.985,3.485,2.41s1.139,1.2,1.918.975c.37-.105.695-.907,1.262-1.364a11.715,11.715,0,0,1,2.178-1.326s.784-1.342.267-1.686A1.866,1.866,0,0,0,884.423,654.4Z" transform="translate(-876.957 -607.544)" fill="#331832"/>
      <path id="Trazado_636822" data-name="Trazado 636822" d="M1073.089,488.2a6.667,6.667,0,0,0-6.5-4.357c-2.489-.067-4.836-.167-6.325,4.1a84.066,84.066,0,0,0-3.873,14.023,26.375,26.375,0,0,1,20.039,5.975c1.163-3.948,1.092-12.8.3-18.857C1076.484,487.2,1073.518,489.556,1073.089,488.2Z" transform="translate(-1022.482 -469.361)" fill="#ef8062"/>
      <path id="Trazado_636823" data-name="Trazado 636823" d="M1090.79,483.888l-1.2,4.889s-15.272,1.9-16.516-.348c-1.854-3.354-.866-7.69-.866-7.69a64.242,64.242,0,0,0,6.664.128c2.045-.115,2.588-.349,4.97.378C1089.309,482.914,1090.79,483.888,1090.79,483.888Z" transform="translate(-1035.092 -466.854)" fill="#ef8062"/>
      <path id="Trazado_636824" data-name="Trazado 636824" d="M1150.519,496.517c.385.562-.155,2.536-1.321,3.906-1.217,1.43-2.431,2.491-3.219,1.987-1.11-.711.378-3.417,1.571-4.638C1149.106,496.178,1150.244,496.116,1150.519,496.517Z" transform="translate(-1094.821 -479.483)" fill="#331832"/>
      <path id="Trazado_636825" data-name="Trazado 636825" d="M1107.455,455.9c-.691-.339-.043-1.785-.043-1.785.6-.055.992-.13,1.094-.585l.123-.559.061-.277.2-.885.176-.8.72-3.261.417,3.479.071.591s.084,2.157,1.4,2.48C1111.713,454.282,1108.958,456.639,1107.455,455.9Z" transform="translate(-1063.636 -440.104)" fill="#ffb27d"/>
      <path id="Trazado_636826" data-name="Trazado 636826" d="M1116.935,469.183a2.258,2.258,0,0,1-1.581.871l.2-.885C1116.112,469.137,1116.935,469.183,1116.935,469.183Z" transform="translate(-1070.301 -457.462)" fill="#f09962"/>
      <path id="Trazado_636827" data-name="Trazado 636827" d="M1129.8,450.687a3.7,3.7,0,0,0-.3,1.651c-.025,1.7-2.03,1.819-2.359,1.233-.041-.073.832-2.722.832-2.722l.68-.168Z" transform="translate(-1079.859 -442.477)" fill="#331832"/>
      <ellipse id="Elipse_5228" data-name="Elipse 5228" cx="3.862" cy="3.154" rx="3.862" ry="3.154" transform="translate(41.721 10.917) rotate(-73.397)" fill="#ffb27d"/>
      <g id="Grupo_894557" data-name="Grupo 894557" transform="translate(45.51 7.926)">
        <path id="Trazado_636828" data-name="Trazado 636828" d="M1117.807,449.354a.071.071,0,0,1,.031-.132.781.781,0,0,1,.831.463.071.071,0,0,1-.031.1.08.08,0,0,1-.1-.032,1.238,1.238,0,0,0-.69-.385A.07.07,0,0,1,1117.807,449.354Z" transform="translate(-1117.772 -449.215)" fill="#080435"/>
      </g>
      <path id="Trazado_636829" data-name="Trazado 636829" d="M1118.709,453.387c-.043.164-.176.272-.3.24a.277.277,0,0,1-.139-.355c.043-.164.176-.272.3-.24A.276.276,0,0,1,1118.709,453.387Z" transform="translate(-1072.658 -444.38)" fill="#080435"/>
      <g id="Grupo_894558" data-name="Grupo 894558" transform="translate(42.924 7.446)">
        <path id="Trazado_636830" data-name="Trazado 636830" d="M1104.148,446.915a.071.071,0,0,1-.052-.037.071.071,0,0,1,.03-.1.781.781,0,0,1,.945.114.072.072,0,0,1,.008.1.079.079,0,0,1-.1.008,1.237,1.237,0,0,0-.784-.1A.072.072,0,0,1,1104.148,446.915Z" transform="translate(-1104.088 -446.672)" fill="#080435"/>
      </g>
      <path id="Trazado_636831" data-name="Trazado 636831" d="M1107.194,450.339c.023.169-.058.318-.181.334s-.241-.108-.264-.276.058-.318.181-.334S1107.171,450.171,1107.194,450.339Z" transform="translate(-1063.319 -441.975)" fill="#080435"/>
      <path id="Trazado_636832" data-name="Trazado 636832" d="M1107.81,459.544a1.123,1.123,0,0,0,.688.892.963.963,0,0,0,1.1-.494A4.07,4.07,0,0,1,1107.81,459.544Z" transform="translate(-1064.183 -449.665)" fill="#fff"/>
      <path id="Trazado_636833" data-name="Trazado 636833" d="M1013.522,588.9s-11.932,7.24-14.237,12.506-2.492,15.751-.182,17.128,4.613,1.462,5.886-3.138,1.4-10.82,5.64-12.556,16.445-7.774,14.942-10.433S1015.356,587.731,1013.522,588.9Z" transform="translate(-974.687 -554.3)" fill="#73b3ce"/>
      <path id="Trazado_636834" data-name="Trazado 636834" d="M940.27,581.573s-13.279,2.06-16.912,4.181-10.781,7.024-10.643,9.422a3.753,3.753,0,0,0,4.635,3.245c2.108-.411,10.571-5.779,13.585-6.5a125.84,125.84,0,0,1,17.12-2.579l1.756-6.061A26.086,26.086,0,0,0,940.27,581.573Z" transform="translate(-905.956 -548.631)" fill="#73b3ce"/>
      <g id="Grupo_894559" data-name="Grupo 894559" transform="translate(27.617 37.557)">
        <path id="Trazado_636835" data-name="Trazado 636835" d="M1023.2,611.569l-.106-.1c1.375-1.461,6.593-5.426,6.647-5.466l.089.115C1029.777,606.156,1024.568,610.115,1023.2,611.569Z" transform="translate(-1023.094 -606.001)" fill="#331832"/>
      </g>
      <path id="Trazado_636836" data-name="Trazado 636836" d="M1102.814,427.812a1.769,1.769,0,0,1-2.05,1.221,3.458,3.458,0,0,0-2.835,1.415l.861-4.432,4.056-.322,2.26,1,.306,3.854-.347,1.741-.369-1.471S1103.909,428.125,1102.814,427.812Z" transform="translate(-1056.169 -422.212)" fill="#331832"/>
      <path id="Trazado_636837" data-name="Trazado 636837" d="M1129.911,452.584a.779.779,0,0,1-1.091-.245.856.856,0,0,1,.5-1.05.779.779,0,0,1,1.091.245A.856.856,0,0,1,1129.911,452.584Z" transform="translate(-1081.178 -442.878)" fill="#ffb27d"/>
      <g id="Grupo_894560" data-name="Grupo 894560" transform="translate(51.525 17.374)">
        <path id="Trazado_636838" data-name="Trazado 636838" d="M1159.337,514.339a29.118,29.118,0,0,1-2.245,8.561l-3.385-2.134c2.059-5.288.138-13.094-3.807-16.641a1.141,1.141,0,0,1-.176-1.31c.781-2.111,3.2-4.522,4.218-3.265C1156.623,502.868,1159.692,508.882,1159.337,514.339Z" transform="translate(-1149.601 -499.204)" fill="#ffb27d"/>
      </g>
      <path id="Trazado_636839" data-name="Trazado 636839" d="M1164.055,607.387c-.541.366-1.463,1.351-2,1.728-.232.164-.978.772-.863,1.045.1.237.9.059,1.268-.075-.895,2.264-1.252,5.555.742,1.118l.006,0c-.144.395-1.291,3.256-.631,3.351.483.07,1.36-2.314,1.6-2.961l.017.005c-.195.681-.887,2.7-.429,2.792.6.121,1.418-2.515,1.418-2.515s-.726,2.168-.028,2.015c.394-.086.785-1.384,1.018-2.2h0c.049-.17.091-.32.124-.431a1.249,1.249,0,0,0,.049-.258,11.182,11.182,0,0,0,.3-2.327,1.494,1.494,0,0,0-.881-1.562A2.03,2.03,0,0,0,1164.055,607.387Z" transform="translate(-1107.469 -569.269)" fill="#ffb27d"/>
    </g>
    <g id="Grupo_894570" data-name="Grupo 894570" transform="translate(535.009 303.96)">
      <g id="Grupo_894565" data-name="Grupo 894565" transform="translate(0)">
        <g id="Grupo_894564" data-name="Grupo 894564">
          <path id="Trazado_636840" data-name="Trazado 636840" d="M1291.319,764.282c-30.743-1.155-56.942,26.764-58.114,53.22-.737,16.628,8.589,28.721,23.252,35.7,19.918,10.36,19.052,30.138,19.052,30.138l26.823,1.008c.8-17.969,19.131-29.622,21.475-31.041,11.2-6.563,18.745-18.559,21.054-39.028C1347.831,787.951,1322.062,765.437,1291.319,764.282Z" transform="translate(-1233.165 -764.248)" fill="#fff" opacity="0.6"/>
          <path id="Trazado_636841" data-name="Trazado 636841" d="M1461.509,1346.575s3.774,5.722-.347,10.982c-1.151,1.47-4.218,2.253-8.089,2.55-9.982.773-25.3-1.676-26.84-3.861-2.134-3.035-.848-6.431,1.613-7.16,0,0-3.3-2.805-2.252-6.1s2.857-3.885,2.857-3.885-2.526-1.571-2.57-6c-.018-1.753.792-3.673,3.368-5.072,3.933-2.138,11.982-3.059,27.48-.309,0,0,6.994,1.306,4.949,9.106C1461.677,1336.819,1466.416,1342.329,1461.509,1346.575Z" transform="translate(-1388.87 -1219.843)" fill="#c4c66d"/>
          <path id="Trazado_636842" data-name="Trazado 636842" d="M1360.016,840.533s-12.752,3.047-20.469,12.976-17.885,2.489-15.616-8.04,15.656-19.313,23.4-17.443S1367.012,833.786,1360.016,840.533Z" transform="translate(-1306.516 -815.767)" fill="#fff" opacity="0.9"/>
          <g id="Grupo_894562" data-name="Grupo 894562" transform="translate(50.135 124.127)">
            <path id="Trazado_636843" data-name="Trazado 636843" d="M1521.005,1424.151a.486.486,0,0,1-.229-.033,33.029,33.029,0,0,0-6.561-1.64,35.945,35.945,0,0,0-15.137.829.489.489,0,0,1-.269-.94,36.937,36.937,0,0,1,15.584-.851,33.246,33.246,0,0,1,6.747,1.694.489.489,0,0,1-.135.94Z" transform="translate(-1498.455 -1421.059)" fill="#acab58"/>
          </g>
          <g id="Grupo_894563" data-name="Grupo 894563" transform="translate(48.627 114.392)">
            <path id="Trazado_636844" data-name="Trazado 636844" d="M1514.7,1372.618a.485.485,0,0,1-.182-.017,63.018,63.018,0,0,0-8.213-1.621c-4.261-.556-10.355-.882-15.188.725a.489.489,0,1,1-.308-.927c5.013-1.667,11.271-1.336,15.638-.764a63.908,63.908,0,0,1,8.341,1.648.489.489,0,0,1-.088.956Z" transform="translate(-1490.471 -1369.548)" fill="#acab58"/>
          </g>
          <path id="Trazado_636845" data-name="Trazado 636845" d="M1453.073,1368.749c-9.982.773-25.3-1.676-26.84-3.861-2.134-3.035-.848-6.431,1.613-7.16,0,0-3.3-2.806-2.252-6.1s2.857-3.885,2.857-3.885-2.526-1.571-2.57-6c-.018-1.753.792-3.673,3.368-5.072l.006,0s-3.354,8.579,4.571,11.222a1.02,1.02,0,0,1,.265,1.716c-.991,1.058.2,6.869,2.707,8.058s-.595,5.745,2.575,8.058C1441.811,1367.493,1449.607,1368.418,1453.073,1368.749Z" transform="translate(-1388.87 -1228.486)" fill="#acab58"/>
        </g>
      </g>
      <g id="Grupo_894569" data-name="Grupo 894569" transform="translate(34.3 20.954)">
        <path id="Trazado_636846" data-name="Trazado 636846" d="M1417.093,928.8c-5.486-7.592-2.774-23.93,19.409-32.51,19.557-7.564,25.854-16.917,25.854-16.917s7.379,23.22-3.2,41.149C1446.245,942.4,1424.193,938.621,1417.093,928.8Z" transform="translate(-1414.661 -878.568)" fill="#c4c66d"/>
        <g id="Grupo_894566" data-name="Grupo 894566" transform="translate(2.95)">
          <path id="Trazado_636847" data-name="Trazado 636847" d="M1431.253,941.9a.8.8,0,0,1-.784-.645c-.038-.193-3.513-19.382,20.361-34.074a52.505,52.505,0,0,0,23.4-31.405.8.8,0,0,1,1.572.3,54.149,54.149,0,0,1-24.135,32.462c-22.937,14.118-19.665,32.221-19.629,32.4a.8.8,0,0,1-.63.94A.741.741,0,0,1,1431.253,941.9Z" transform="translate(-1430.272 -875.125)" fill="#acab58"/>
        </g>
        <g id="Grupo_894567" data-name="Grupo 894567" transform="translate(11.668 25.61)">
          <path id="Trazado_636848" data-name="Trazado 636848" d="M1478.291,1025.949a.8.8,0,0,1-.766-.57c-2.5-8.261-.073-14.022.031-14.262a.8.8,0,0,1,1.47.634c-.023.053-2.284,5.5.031,13.167a.8.8,0,0,1-.534,1A.835.835,0,0,1,1478.291,1025.949Z" transform="translate(-1476.401 -1010.637)" fill="#acab58"/>
        </g>
        <g id="Grupo_894568" data-name="Grupo 894568" transform="translate(24.91 28.619)">
          <path id="Trazado_636849" data-name="Trazado 636849" d="M1551.27,1030.448c-2.29,0-3.875-.1-4.052-.118a.8.8,0,0,1-.742-.854.784.784,0,0,1,.853-.742c.118,0,12.122.8,18.871-2.106a.8.8,0,0,1,.632,1.472C1562.212,1030.086,1555.525,1030.448,1551.27,1030.448Z" transform="translate(-1546.473 -1026.562)" fill="#acab58"/>
        </g>
      </g>
    </g>
    <g id="Grupo_894589" data-name="Grupo 894589" transform="translate(516.443 360.975)">
      <g id="Grupo_894586" data-name="Grupo 894586" transform="translate(0)">
        <g id="Grupo_894571" data-name="Grupo 894571" transform="translate(28.683 13.738)">
          <path id="Trazado_636850" data-name="Trazado 636850" d="M1295.816,1160.811a5.474,5.474,0,0,1-2.2-.781c-2.236-1.374-3.736-4.278-4.863-9.415a25.048,25.048,0,0,0-2.05-5.245l5.04-2.7a30.622,30.622,0,0,1,2.6,6.722c.391,1.785.6-9.479,1.564-10.544.591-.653,2.974.421,2.974.421a56.913,56.913,0,0,1,1.89,8.936,43.864,43.864,0,0,1,.419,6.65,10.929,10.929,0,0,1-.434,2.923,4.01,4.01,0,0,1-2.8,2.887A5.7,5.7,0,0,1,1295.816,1160.811Z" transform="translate(-1286.699 -1138.634)" fill="#ffb27d"/>
        </g>
        <g id="Grupo_894572" data-name="Grupo 894572" transform="translate(37.446 34.257)">
          <path id="Trazado_636851" data-name="Trazado 636851" d="M1334.172,1248.309c-.62,0-1.1-.239-1.106-.547a.354.354,0,0,1,.114-.25,1.49,1.49,0,0,1,1-.3h.009c.62,0,1.1.24,1.106.548s-.489.552-1.112.552Zm.006-.949a1.354,1.354,0,0,0-.892.257.209.209,0,0,0-.071.144c0,.188.394.4.958.4h.009c.567,0,.963-.211.963-.4s-.393-.4-.958-.4Z" transform="translate(-1333.066 -1247.21)" fill="#e9845c"/>
        </g>
        <g id="Grupo_894573" data-name="Grupo 894573" transform="translate(35.606 24.518)">
          <path id="Trazado_636852" data-name="Trazado 636852" d="M1323.469,1201.426a.077.077,0,0,1-.074-.067,11.763,11.763,0,0,1,.781-5.639.068.068,0,0,1,.1-.036.075.075,0,0,1,.036.1,11.6,11.6,0,0,0-.768,5.559.075.075,0,0,1-.065.082Z" transform="translate(-1323.332 -1195.675)" fill="#e9845c"/>
        </g>
        <g id="Grupo_894577" data-name="Grupo 894577" transform="translate(37.527 11.564)">
          <path id="Trazado_636853" data-name="Trazado 636853" d="M1337.365,1133.621s3.063.26,4.262-.934,1.827-3.627.926-3.045a11.166,11.166,0,0,0-1.845,1.646s1.912-2.365,1.165-2.573-2.389,1.865-2.389,1.865,2.051-3,1.282-2.963-2.311,2.319-2.311,2.319,1.8-2.863.9-2.8-1.469,2.376-2.216,2.168-3.647-.92-3.647,1.174Z" transform="translate(-1333.495 -1127.13)" fill="#ffb27d"/>
          <g id="Grupo_894574" data-name="Grupo 894574" transform="translate(6.178 4.095)">
            <path id="Trazado_636854" data-name="Trazado 636854" d="M1366.25,1149.709a.062.062,0,0,1,0-.124c.491-.031.919-.749.922-.756a.061.061,0,0,1,.087-.022.063.063,0,0,1,.022.084c-.019.033-.465.783-1.022.818Z" transform="translate(-1366.188 -1148.797)" fill="#e9845c"/>
          </g>
          <g id="Grupo_894575" data-name="Grupo 894575" transform="translate(4.765 3.388)">
            <path id="Trazado_636855" data-name="Trazado 636855" d="M1358.772,1146.123a.061.061,0,0,1-.06-.047.06.06,0,0,1,.043-.075,2.11,2.11,0,0,0,1.123-.911.063.063,0,1,1,.109.062,2.193,2.193,0,0,1-1.2.969A.042.042,0,0,1,1358.772,1146.123Z" transform="translate(-1358.71 -1145.059)" fill="#e9845c"/>
          </g>
          <g id="Grupo_894576" data-name="Grupo 894576" transform="translate(3.808 2.742)">
            <path id="Trazado_636856" data-name="Trazado 636856" d="M1353.717,1142.652h-.011a.062.062,0,0,1-.061-.064.061.061,0,0,1,.062-.06h.011c.519,0,1.02-.845,1.024-.854a.06.06,0,0,1,.085-.022.062.062,0,0,1,.023.084C1354.829,1141.774,1354.308,1142.652,1353.717,1142.652Z" transform="translate(-1353.645 -1141.642)" fill="#e9845c"/>
          </g>
        </g>
        <path id="Trazado_636857" data-name="Trazado 636857" d="M1254.484,1527.855s.089,1.708,1.258,2.159,4.531.8,3.309,1.928c-.7.65-4.1.334-5.053.36s-1.842.466-2.569-.154c-.8-.683-.113-4.206-.113-4.206a3.822,3.822,0,0,0,1.577.368A3.045,3.045,0,0,0,1254.484,1527.855Z" transform="translate(-1229.096 -1440.56)" fill="#331832"/>
        <path id="Trazado_636858" data-name="Trazado 636858" d="M1254.483,1253.553s.439,7.705-1.624,22.566c-1.489,10.728-3.3,21.547-4.186,26.734a4.027,4.027,0,0,1-3.672,3.37l-.988.066a3.38,3.38,0,0,1-3.557-3.567l1.555-34.974.305-11.506Z" transform="translate(-1220.51 -1218.097)" fill="#71a99e"/>
        <path id="Trazado_636859" data-name="Trazado 636859" d="M1196.537,1529.418s.089,1.708,1.258,2.159,4.531.8,3.309,1.928c-.7.65-4.1.334-5.053.359s-1.842.467-2.569-.154c-.8-.683-.113-4.206-.113-4.206a3.818,3.818,0,0,0,1.578.368A3.043,3.043,0,0,0,1196.537,1529.418Z" transform="translate(-1182.1 -1441.828)" fill="#331832"/>
        <path id="Trazado_636860" data-name="Trazado 636860" d="M1196.536,1255.115s.439,7.706-1.624,22.566c-1.489,10.728-3.3,21.547-4.186,26.734a4.027,4.027,0,0,1-3.672,3.37l-.988.066a3.38,3.38,0,0,1-3.557-3.567l1.555-34.974.305-11.505Z" transform="translate(-1173.515 -1219.364)" fill="#71a99e"/>
        <path id="Trazado_636861" data-name="Trazado 636861" d="M1186.841,1289.814c.049.93,5.685,1.148,12.638.743s12.487-1.517,12.438-2.447-5.663-1.325-12.616-.92S1186.792,1288.884,1186.841,1289.814Z" transform="translate(-1177.029 -1245.249)" fill="#331832"/>
        <path id="Trazado_636862" data-name="Trazado 636862" d="M1185.631,1139.748s1.1-4.91,10.176-5.2c13.09-.425,12.2,11.638,13.907,29.887,0,0-12.945-1.476-25.089,1.475C1184.625,1165.906,1182.989,1147.276,1185.631,1139.748Z" transform="translate(-1174.826 -1121.569)" fill="#73b3ce"/>
        <path id="Trazado_636863" data-name="Trazado 636863" d="M1174.265,1138.969l6.018,3.121s13.015.829,16.446.168a5.522,5.522,0,0,0,4.309-3.217A19,19,0,0,0,1191,1134.5c-.589-.08-1.2-.134-1.83-.158a17.948,17.948,0,0,0-3.152.148C1178.132,1135.59,1174.265,1138.969,1174.265,1138.969Z" transform="translate(-1166.83 -1121.4)" fill="#73b3ce"/>
        <path id="Trazado_636864" data-name="Trazado 636864" d="M1232.043,1100.121l.626-2.23.182-.649,1.071-3.818.256,3.762.153,2.258.048.715c.033.485.332.579.7.991.151.167,1.113,1.179.065,1.676-1.305.619-3.8-.2-4.768-1.33C1230.387,1101.494,1231.841,1100.842,1232.043,1100.121Z" transform="translate(-1212.34 -1088.23)" fill="#ffb27d"/>
        <path id="Trazado_636865" data-name="Trazado 636865" d="M1214.312,1294.378s-7.6-2.015-23.133,1.451l-.06,2.25,22.912.192Z" transform="translate(-1180.5 -1250.734)" fill="#71a99e"/>
        <ellipse id="Elipse_5229" data-name="Elipse 5229" cx="1.578" cy="3.163" rx="1.578" ry="3.163" transform="matrix(0.566, -0.825, 0.825, 0.566, 6.428, 19.002)" fill="#331832"/>
        <g id="Grupo_894578" data-name="Grupo 894578" transform="translate(0.866 18.314)">
          <path id="Trazado_636866" data-name="Trazado 636866" d="M1145.163,1191.146c.384-6.024,1.336-15,4.019-21.884a20.587,20.587,0,0,1,1.377-3.069c.4-.7-.389-2.206-1.586-2.9-1.123-.651-2.84-.493-3.1-.149a18.182,18.182,0,0,0-1.633,3.464c-2.507,6.135-4.355,14.344-4.731,24.46Z" transform="translate(-1139.505 -1162.845)" fill="#ffb27d"/>
        </g>
        <g id="Grupo_894584" data-name="Grupo 894584" transform="translate(14.86)">
          <path id="Trazado_636867" data-name="Trazado 636867" d="M1255.247,1082.2a4.976,4.976,0,0,1,.416,2.024c0,1.174-1.717-1.358-1.717-1.358Z" transform="translate(-1246.312 -1079.129)" fill="#5c305d"/>
          <ellipse id="Elipse_5230" data-name="Elipse 5230" cx="3.366" cy="4.059" rx="3.366" ry="4.059" transform="translate(1.865 3.761) rotate(-19.09)" fill="#ffb27d"/>
          <path id="Trazado_636868" data-name="Trazado 636868" d="M1216.428,1072.413l1.562-.494a1.185,1.185,0,0,0,.754-.7c.222-.579.561-.923,2.061-1.172a3.2,3.2,0,0,0,2.914-2.725,1.149,1.149,0,0,0-1.952-.859c-.848.675-.684-.586-1.62-.524-1.749.116-1.8,1.493-3.2,1.737-1.838.319-4.824,2.379-2.612,5.276Z" transform="translate(-1213.552 -1065.938)" fill="#331832"/>
          <g id="Grupo_894579" data-name="Grupo 894579" transform="translate(5.774 6.176)">
            <path id="Trazado_636869" data-name="Trazado 636869" d="M1244.844,1098.733a.068.068,0,0,0-.055-.117.739.739,0,0,0-.68.6.069.069,0,0,0,.048.084.075.075,0,0,0,.083-.049,1.167,1.167,0,0,1,.565-.5A.067.067,0,0,0,1244.844,1098.733Z" transform="translate(-1244.107 -1098.615)" fill="#080435"/>
          </g>
          <path id="Trazado_636870" data-name="Trazado 636870" d="M1247.228,1102.471c.074.145.219.22.324.166a.264.264,0,0,0,.058-.36c-.073-.146-.219-.22-.324-.167A.264.264,0,0,0,1247.228,1102.471Z" transform="translate(-1240.83 -1095.261)" fill="#080435"/>
          <g id="Grupo_894580" data-name="Grupo 894580" transform="translate(8.255 5.401)">
            <path id="Trazado_636871" data-name="Trazado 636871" d="M1257.921,1094.7a.05.05,0,0,0,.029-.041.082.082,0,0,0-.045-.085.479.479,0,0,0-.665.217.081.081,0,0,0,.018.094.051.051,0,0,0,.076-.005.715.715,0,0,1,.552-.181A.045.045,0,0,0,1257.921,1094.7Z" transform="translate(-1257.232 -1094.519)" fill="#080435"/>
          </g>
          <path id="Trazado_636872" data-name="Trazado 636872" d="M1258.391,1098.451c.013.162.119.286.236.277s.2-.148.19-.311-.119-.286-.236-.277S1258.379,1098.289,1258.391,1098.451Z" transform="translate(-1249.917 -1092.055)" fill="#080435"/>
          <path id="Trazado_636873" data-name="Trazado 636873" d="M1217.7,1097.908s1.59,2.152,3.189,2.005c0,0-1.636-1.553.8-3.2A8.664,8.664,0,0,0,1217.7,1097.908Z" transform="translate(-1216.915 -1090.894)" fill="#5c305d"/>
          <path id="Trazado_636874" data-name="Trazado 636874" d="M1228.681,1102.128a.659.659,0,1,0-.451-.872A.7.7,0,0,0,1228.681,1102.128Z" transform="translate(-1225.424 -1094.253)" fill="#ffb27d"/>
          <path id="Trazado_636875" data-name="Trazado 636875" d="M1234.694,1097.365s.2,2.04.68,2.333,3.116-.2,4.269-.942l.008,0a2.74,2.74,0,0,1-1.515,3.163,3.86,3.86,0,0,1-1.3.266h0a2.663,2.663,0,0,1-2.362-.9,7.766,7.766,0,0,1-.154-1.812,1.758,1.758,0,0,0-.678-1.276A2.6,2.6,0,0,1,1234.694,1097.365Z" transform="translate(-1229.846 -1091.426)" fill="#5c305d"/>
          <g id="Grupo_894581" data-name="Grupo 894581" transform="translate(7.352 0.064)">
            <path id="Trazado_636876" data-name="Trazado 636876" d="M1252.938,1066.64a.5.5,0,0,1-.481-.337l.089-.027a.4.4,0,0,0,.393.27.653.653,0,0,0,.153-.018l.02.089A.72.72,0,0,1,1252.938,1066.64Z" transform="translate(-1252.457 -1066.276)" fill="#331832"/>
          </g>
          <g id="Grupo_894582" data-name="Grupo 894582" transform="translate(7.657 0.709)">
            <path id="Trazado_636877" data-name="Trazado 636877" d="M1254.092,1072.45l-.022-.04c.02-.011,1.9-1.015,1.773-2.068a.69.69,0,0,0-.27-.561c-.236-.128-.581.031-.882.169-.048.022-.093.044-.137.062l-.018-.04c.043-.02.089-.042.135-.062.316-.146.666-.308.926-.168a.735.735,0,0,1,.294.6C1256.023,1071.42,1254.171,1072.408,1254.092,1072.45Z" transform="translate(-1254.07 -1069.688)" fill="#fff"/>
          </g>
          <g id="Grupo_894583" data-name="Grupo 894583" transform="translate(2.685 0.78)">
            <path id="Trazado_636878" data-name="Trazado 636878" d="M1227.764,1071.554l0-.044a3.328,3.328,0,0,0,2.736-1.445l.04.022A3.366,3.366,0,0,1,1227.764,1071.554Z" transform="translate(-1227.762 -1070.065)" fill="#fff"/>
          </g>
        </g>
        <g id="Grupo_894585" data-name="Grupo 894585" transform="translate(3.878 30.381)">
          <path id="Trazado_636879" data-name="Trazado 636879" d="M1156.222,1229.086a.529.529,0,0,1-.083-.007.693.693,0,0,1-.461-.286,1.4,1.4,0,0,1-.218-1.015h0a1.5,1.5,0,0,1,.347-.791.732.732,0,0,1,.659-.279c.464.062.769.647.681,1.3C1157.06,1228.625,1156.655,1229.086,1156.222,1229.086Zm.157-2.159a.566.566,0,0,0-.408.211,1.26,1.26,0,0,0-.289.672h0a1.174,1.174,0,0,0,.176.849.488.488,0,0,0,.313.2.4.4,0,0,0,.052,0c.318,0,.632-.386.7-.88.072-.532-.147-1-.489-1.051A.42.42,0,0,0,1156.379,1226.927Z" transform="translate(-1155.443 -1226.699)" fill="#ec865c"/>
        </g>
        <path id="Trazado_636880" data-name="Trazado 636880" d="M1135.884,1301.538s4.852.145,5.017.5c.381.81.771,2.575,1.137,3.392.158.354.609,1.581.277,1.785-.288.177-1.111-.63-1.457-1.06-.48,2.511-1.857,5.977-1.688.624h-.009c-.113.533-.677,3.882-1.454,3.777-.592-.079-.16-3.23.016-4.11l-.024-.008c-.257.879-.689,3.514-1.362,3.359-.573-.132-.043-3.789-.043-3.789s-.724,2.979-1.211,2.409c-.446-.523.154-3.333.333-4.185C1135.6,1303.342,1135.884,1301.538,1135.884,1301.538Z" transform="translate(-1134.923 -1257.014)" fill="#ffb27d"/>
      </g>
      <g id="Grupo_894587" data-name="Grupo 894587" transform="translate(30.21 17.234)">
        <path id="Trazado_636881" data-name="Trazado 636881" d="M1296.51,1160.255a11.893,11.893,0,0,0-1.734-3.032l.117-.093a12.1,12.1,0,0,1,1.759,3.081Z" transform="translate(-1294.776 -1157.13)" fill="#331832"/>
      </g>
      <g id="Grupo_894588" data-name="Grupo 894588" transform="translate(20.916 48.391)">
        <path id="Trazado_636882" data-name="Trazado 636882" d="M1245.751,1334.945l-.149-.018c.009-.064.852-6.38,1.488-8.647.643-2.29,3.6-4.265,3.629-4.285l.082.124c-.029.02-2.939,1.964-3.567,4.2C1246.6,1328.578,1245.758,1334.882,1245.751,1334.945Z" transform="translate(-1245.602 -1321.995)" fill="#331832"/>
      </g>
    </g>
    <path id="Trazado_636883" data-name="Trazado 636883" d="M1249.84,1110.057a4.747,4.747,0,0,0,2.179-.4.976.976,0,0,1-.735.991A1.171,1.171,0,0,1,1249.84,1110.057Z" transform="translate(-711.679 -740.423)" fill="#fff"/>
    <g id="Grupo_894590" data-name="Grupo 894590" transform="translate(548.091 196.704)">
      <circle id="Elipse_5232" data-name="Elipse 5232" cx="25.9" cy="25.9" r="25.9" transform="translate(25.799 25.908)" fill="#ffe690" opacity="0.4"/>
      <circle id="Elipse_5233" data-name="Elipse 5233" cx="18.251" cy="18.251" r="18.251" transform="translate(33.448 33.557)" fill="#ffe690"/>
    </g>
  </g>
</svg>
