<svg xmlns="http://www.w3.org/2000/svg" width="63" height="63" viewBox="0 0 63 63">
  <path id="proteccion" d="M31.5,0A31.5,31.5,0,1,1,0,31.5,31.5,31.5,0,0,1,31.5,0Zm0,25.455a3.32,3.32,0,1,0,3.321,3.32,3.32,3.32,0,0,0-3.321-3.32Zm7.359,10.52a8.96,8.96,0,1,0-14.719,0,6.431,6.431,0,0,1,.22-.672.6.6,0,0,1,.249-.294l4.581-2.737a.6.6,0,0,1,.827.215L31.5,35.054l1.482-2.567a.6.6,0,0,1,.827-.215l4.581,2.737a.6.6,0,0,1,.25.294,6.261,6.261,0,0,1,.22.672ZM31.5,20.711A10.159,10.159,0,1,0,41.659,30.87,10.16,10.16,0,0,0,31.5,20.711Zm0,28.743C44.794,44.27,46.877,30.9,46.23,20.428L31.5,13.567,16.771,20.428C16.124,30.9,18.207,44.27,31.5,49.453ZM47.058,19.491l-15.3-7.13a.6.6,0,0,0-.507,0l-15.3,7.13a.6.6,0,0,0-.346.5c-.747,10.985,1.367,25.222,15.691,30.664a.608.608,0,0,0,.426,0C46.037,45.215,48.151,30.978,47.4,19.993a.6.6,0,0,0-.346-.5Z" fill="#0291f7" fill-rule="evenodd"/>
</svg>
