<svg xmlns="http://www.w3.org/2000/svg" xmlns:xlink="http://www.w3.org/1999/xlink" width="820" height="291.051" viewBox="0 0 820 291.051">
  <defs>
    <clipPath id="clip-path">
      <rect id="Rectángulo_42934" data-name="Rectángulo 42934" width="190" height="188.986" fill="none"/>
    </clipPath>
  </defs>
  <g id="Grupo_974085" data-name="Grupo 974085" transform="translate(-390 -6058)">
    <path id="Trazado_704881" data-name="Trazado 704881" d="M7.523,12.352H3.117L2.2,15H.141l4.3-11.375H6.211L10.516,15H8.453ZM3.672,10.758h3.3L5.32,6.039Zm15.656,4.4A3.928,3.928,0,0,1,16.4,14.02a4.124,4.124,0,0,1-1.121-3.027v-.234A5.072,5.072,0,0,1,15.77,8.5a3.716,3.716,0,0,1,1.371-1.551,3.625,3.625,0,0,1,1.969-.555,3.318,3.318,0,0,1,2.668,1.1,4.658,4.658,0,0,1,.941,3.117v.766H17.2a2.539,2.539,0,0,0,.7,1.656,2.1,2.1,0,0,0,1.543.609,2.571,2.571,0,0,0,2.125-1.055l1.023.977a3.418,3.418,0,0,1-1.355,1.176A4.244,4.244,0,0,1,19.328,15.156ZM19.1,7.914a1.6,1.6,0,0,0-1.262.547,2.835,2.835,0,0,0-.613,1.523h3.617V9.844A2.307,2.307,0,0,0,20.336,8.4,1.586,1.586,0,0,0,19.1,7.914Zm6.852-1.367.055.977a3.039,3.039,0,0,1,2.461-1.133q2.641,0,2.688,3.023V15h-1.9V9.523a1.741,1.741,0,0,0-.348-1.191,1.462,1.462,0,0,0-1.137-.387,1.829,1.829,0,0,0-1.711,1.039V15h-1.9V6.547ZM40.8,15.156a3.928,3.928,0,0,1-2.926-1.137,4.124,4.124,0,0,1-1.121-3.027v-.234A5.072,5.072,0,0,1,37.238,8.5a3.716,3.716,0,0,1,1.371-1.551,3.625,3.625,0,0,1,1.969-.555,3.318,3.318,0,0,1,2.668,1.1,4.658,4.658,0,0,1,.941,3.117v.766H38.664a2.539,2.539,0,0,0,.7,1.656,2.1,2.1,0,0,0,1.543.609,2.571,2.571,0,0,0,2.125-1.055l1.023.977A3.418,3.418,0,0,1,42.7,14.738,4.244,4.244,0,0,1,40.8,15.156ZM40.57,7.914a1.6,1.6,0,0,0-1.262.547A2.835,2.835,0,0,0,38.7,9.984h3.617V9.844A2.307,2.307,0,0,0,41.8,8.4,1.586,1.586,0,0,0,40.57,7.914ZM45.3,10.7a5,5,0,0,1,.906-3.148,2.945,2.945,0,0,1,2.453-1.164,2.768,2.768,0,0,1,2.242.992l.109-.836H52.7v11.7H50.8V14.281a2.834,2.834,0,0,1-2.156.875,2.917,2.917,0,0,1-2.43-1.184A5.23,5.23,0,0,1,45.3,10.7Zm1.9.164a3.528,3.528,0,0,0,.512,2.035,1.631,1.631,0,0,0,1.418.738A1.8,1.8,0,0,0,50.8,12.68V8.836a1.8,1.8,0,0,0-1.656-.922,1.659,1.659,0,0,0-1.426.727A3.849,3.849,0,0,0,47.2,10.867Zm12.664,3.3a2.944,2.944,0,0,1-2.375.984,2.624,2.624,0,0,1-2.082-.8,3.423,3.423,0,0,1-.707-2.328V6.547h1.9V12q0,1.609,1.336,1.609a1.876,1.876,0,0,0,1.867-.992V6.547h1.9V15H59.914ZM65.656,15h-1.9V6.547h1.9ZM63.641,4.352a1.008,1.008,0,0,1,.277-.727,1.048,1.048,0,0,1,.793-.289,1.061,1.061,0,0,1,.8.289,1,1,0,0,1,.281.727.977.977,0,0,1-.281.715,1.069,1.069,0,0,1-.8.285,1.056,1.056,0,0,1-.793-.285A.984.984,0,0,1,63.641,4.352ZM69.742,15h-1.9V3h1.9Zm4.086,0h-1.9V6.547h1.9ZM71.813,4.352a1.008,1.008,0,0,1,.277-.727,1.048,1.048,0,0,1,.793-.289,1.061,1.061,0,0,1,.8.289,1,1,0,0,1,.281.727.977.977,0,0,1-.281.715,1.069,1.069,0,0,1-.8.285,1.056,1.056,0,0,1-.793-.285A.984.984,0,0,1,71.813,4.352Zm11.5,6.508a5.078,5.078,0,0,1-.879,3.133,2.863,2.863,0,0,1-2.418,1.164,2.758,2.758,0,0,1-2.312-1.07L77.609,15H75.891V3h1.9V7.359A2.748,2.748,0,0,1,80,6.391a2.9,2.9,0,0,1,2.43,1.148,5.162,5.162,0,0,1,.883,3.211Zm-1.9-.164a3.589,3.589,0,0,0-.484-2.062,1.613,1.613,0,0,0-1.406-.687,1.763,1.763,0,0,0-1.734,1.078v3.484a1.781,1.781,0,0,0,1.75,1.1,1.6,1.6,0,0,0,1.375-.664,3.477,3.477,0,0,0,.5-2.008Zm7.914-2.414a4.7,4.7,0,0,0-.773-.062,1.741,1.741,0,0,0-1.758,1V15H84.9V6.547h1.813l.047.945a2.139,2.139,0,0,1,1.906-1.1,1.777,1.777,0,0,1,.672.109ZM92.547,15h-1.9V6.547h1.9ZM90.531,4.352a1.008,1.008,0,0,1,.277-.727,1.048,1.048,0,0,1,.793-.289,1.061,1.061,0,0,1,.8.289,1,1,0,0,1,.281.727.977.977,0,0,1-.281.715,1.069,1.069,0,0,1-.8.285,1.056,1.056,0,0,1-.793-.285A.984.984,0,0,1,90.531,4.352ZM94.258,10.7a4.984,4.984,0,0,1,.492-2.238,3.6,3.6,0,0,1,1.383-1.531,3.9,3.9,0,0,1,2.047-.535,3.692,3.692,0,0,1,2.777,1.1,4.333,4.333,0,0,1,1.152,2.922l.008.445a5.029,5.029,0,0,1-.48,2.234,3.551,3.551,0,0,1-1.375,1.523,3.925,3.925,0,0,1-2.066.539,3.667,3.667,0,0,1-2.863-1.191,4.563,4.563,0,0,1-1.074-3.176Zm1.9.164A3.406,3.406,0,0,0,96.7,12.9a1.752,1.752,0,0,0,1.5.738,1.733,1.733,0,0,0,1.5-.75,3.762,3.762,0,0,0,.535-2.2,3.362,3.362,0,0,0-.551-2.031A1.856,1.856,0,0,0,96.7,8.652,3.691,3.691,0,0,0,96.156,10.859Zm15.023,2.781a1.716,1.716,0,0,0,1.18-.414,1.415,1.415,0,0,0,.5-1.023h1.789a2.789,2.789,0,0,1-.492,1.473,3.228,3.228,0,0,1-1.25,1.082,3.725,3.725,0,0,1-1.7.4,3.6,3.6,0,0,1-2.812-1.148,4.555,4.555,0,0,1-1.039-3.172v-.2a4.479,4.479,0,0,1,1.031-3.09,3.571,3.571,0,0,1,2.813-1.16,3.473,3.473,0,0,1,2.457.879,3.148,3.148,0,0,1,1,2.309h-1.789a1.738,1.738,0,0,0-.5-1.2,1.6,1.6,0,0,0-1.184-.469,1.671,1.671,0,0,0-1.422.668,3.408,3.408,0,0,0-.508,2.027v.3a3.465,3.465,0,0,0,.5,2.051A1.669,1.669,0,0,0,111.18,13.641Zm4.547-2.945a4.984,4.984,0,0,1,.492-2.238A3.6,3.6,0,0,1,117.6,6.926a3.9,3.9,0,0,1,2.047-.535,3.692,3.692,0,0,1,2.777,1.1,4.333,4.333,0,0,1,1.152,2.922l.008.445a5.029,5.029,0,0,1-.48,2.234,3.551,3.551,0,0,1-1.375,1.523,3.925,3.925,0,0,1-2.066.539,3.667,3.667,0,0,1-2.863-1.191,4.563,4.563,0,0,1-1.074-3.176Zm1.9.164a3.406,3.406,0,0,0,.539,2.043,1.752,1.752,0,0,0,1.5.738,1.733,1.733,0,0,0,1.5-.75,3.762,3.762,0,0,0,.535-2.2,3.362,3.362,0,0,0-.551-2.031,1.856,1.856,0,0,0-2.973-.012A3.691,3.691,0,0,0,117.625,10.859Zm9.328-4.312.055.977a3.039,3.039,0,0,1,2.461-1.133q2.641,0,2.688,3.023V15h-1.9V9.523a1.741,1.741,0,0,0-.348-1.191,1.462,1.462,0,0,0-1.137-.387,1.829,1.829,0,0,0-1.711,1.039V15h-1.9V6.547ZM138.258,15V3.625h3.9a4.76,4.76,0,0,1,2.938.773A2.724,2.724,0,0,1,146.1,6.7a2.456,2.456,0,0,1-.422,1.406,2.715,2.715,0,0,1-1.234.969,2.511,2.511,0,0,1,1.426.941,2.742,2.742,0,0,1,.5,1.66,3.028,3.028,0,0,1-1.027,2.461,4.467,4.467,0,0,1-2.941.859Zm1.977-5.133v3.555h2.2a2.124,2.124,0,0,0,1.453-.461,1.618,1.618,0,0,0,.523-1.281,1.623,1.623,0,0,0-1.812-1.812Zm0-1.453h1.938A2.241,2.241,0,0,0,143.613,8a1.432,1.432,0,0,0,.52-1.184,1.452,1.452,0,0,0-.48-1.219,2.426,2.426,0,0,0-1.5-.375h-1.922Z" transform="translate(565 6055)" fill="#12263f"/>
    <path id="Trazado_704882" data-name="Trazado 704882" d="M7.523,12.352H3.117L2.2,15H.141l4.3-11.375H6.211L10.516,15H8.453ZM3.672,10.758h3.3L5.32,6.039Zm15.656,4.4A3.928,3.928,0,0,1,16.4,14.02a4.124,4.124,0,0,1-1.121-3.027v-.234A5.072,5.072,0,0,1,15.77,8.5a3.716,3.716,0,0,1,1.371-1.551,3.625,3.625,0,0,1,1.969-.555,3.318,3.318,0,0,1,2.668,1.1,4.658,4.658,0,0,1,.941,3.117v.766H17.2a2.539,2.539,0,0,0,.7,1.656,2.1,2.1,0,0,0,1.543.609,2.571,2.571,0,0,0,2.125-1.055l1.023.977a3.418,3.418,0,0,1-1.355,1.176A4.244,4.244,0,0,1,19.328,15.156ZM19.1,7.914a1.6,1.6,0,0,0-1.262.547,2.835,2.835,0,0,0-.613,1.523h3.617V9.844A2.307,2.307,0,0,0,20.336,8.4,1.586,1.586,0,0,0,19.1,7.914Zm6.852-1.367.055.977a3.039,3.039,0,0,1,2.461-1.133q2.641,0,2.688,3.023V15h-1.9V9.523a1.741,1.741,0,0,0-.348-1.191,1.462,1.462,0,0,0-1.137-.387,1.829,1.829,0,0,0-1.711,1.039V15h-1.9V6.547ZM40.8,15.156a3.928,3.928,0,0,1-2.926-1.137,4.124,4.124,0,0,1-1.121-3.027v-.234A5.072,5.072,0,0,1,37.238,8.5a3.716,3.716,0,0,1,1.371-1.551,3.625,3.625,0,0,1,1.969-.555,3.318,3.318,0,0,1,2.668,1.1,4.658,4.658,0,0,1,.941,3.117v.766H38.664a2.539,2.539,0,0,0,.7,1.656,2.1,2.1,0,0,0,1.543.609,2.571,2.571,0,0,0,2.125-1.055l1.023.977A3.418,3.418,0,0,1,42.7,14.738,4.244,4.244,0,0,1,40.8,15.156ZM40.57,7.914a1.6,1.6,0,0,0-1.262.547A2.835,2.835,0,0,0,38.7,9.984h3.617V9.844A2.307,2.307,0,0,0,41.8,8.4,1.586,1.586,0,0,0,40.57,7.914ZM45.3,10.7a5,5,0,0,1,.906-3.148,2.945,2.945,0,0,1,2.453-1.164,2.768,2.768,0,0,1,2.242.992l.109-.836H52.7v11.7H50.8V14.281a2.834,2.834,0,0,1-2.156.875,2.917,2.917,0,0,1-2.43-1.184A5.23,5.23,0,0,1,45.3,10.7Zm1.9.164a3.528,3.528,0,0,0,.512,2.035,1.631,1.631,0,0,0,1.418.738A1.8,1.8,0,0,0,50.8,12.68V8.836a1.8,1.8,0,0,0-1.656-.922,1.659,1.659,0,0,0-1.426.727A3.849,3.849,0,0,0,47.2,10.867Zm12.664,3.3a2.944,2.944,0,0,1-2.375.984,2.624,2.624,0,0,1-2.082-.8,3.423,3.423,0,0,1-.707-2.328V6.547h1.9V12q0,1.609,1.336,1.609a1.876,1.876,0,0,0,1.867-.992V6.547h1.9V15H59.914ZM65.656,15h-1.9V6.547h1.9ZM63.641,4.352a1.008,1.008,0,0,1,.277-.727,1.048,1.048,0,0,1,.793-.289,1.061,1.061,0,0,1,.8.289,1,1,0,0,1,.281.727.977.977,0,0,1-.281.715,1.069,1.069,0,0,1-.8.285,1.056,1.056,0,0,1-.793-.285A.984.984,0,0,1,63.641,4.352ZM69.742,15h-1.9V3h1.9Zm4.086,0h-1.9V6.547h1.9ZM71.813,4.352a1.008,1.008,0,0,1,.277-.727,1.048,1.048,0,0,1,.793-.289,1.061,1.061,0,0,1,.8.289,1,1,0,0,1,.281.727.977.977,0,0,1-.281.715,1.069,1.069,0,0,1-.8.285,1.056,1.056,0,0,1-.793-.285A.984.984,0,0,1,71.813,4.352Zm11.5,6.508a5.078,5.078,0,0,1-.879,3.133,2.863,2.863,0,0,1-2.418,1.164,2.758,2.758,0,0,1-2.312-1.07L77.609,15H75.891V3h1.9V7.359A2.748,2.748,0,0,1,80,6.391a2.9,2.9,0,0,1,2.43,1.148,5.162,5.162,0,0,1,.883,3.211Zm-1.9-.164a3.589,3.589,0,0,0-.484-2.062,1.613,1.613,0,0,0-1.406-.687,1.763,1.763,0,0,0-1.734,1.078v3.484a1.781,1.781,0,0,0,1.75,1.1,1.6,1.6,0,0,0,1.375-.664,3.477,3.477,0,0,0,.5-2.008Zm7.914-2.414a4.7,4.7,0,0,0-.773-.062,1.741,1.741,0,0,0-1.758,1V15H84.9V6.547h1.813l.047.945a2.139,2.139,0,0,1,1.906-1.1,1.777,1.777,0,0,1,.672.109ZM92.547,15h-1.9V6.547h1.9ZM90.531,4.352a1.008,1.008,0,0,1,.277-.727,1.048,1.048,0,0,1,.793-.289,1.061,1.061,0,0,1,.8.289,1,1,0,0,1,.281.727.977.977,0,0,1-.281.715,1.069,1.069,0,0,1-.8.285,1.056,1.056,0,0,1-.793-.285A.984.984,0,0,1,90.531,4.352ZM94.258,10.7a4.984,4.984,0,0,1,.492-2.238,3.6,3.6,0,0,1,1.383-1.531,3.9,3.9,0,0,1,2.047-.535,3.692,3.692,0,0,1,2.777,1.1,4.333,4.333,0,0,1,1.152,2.922l.008.445a5.029,5.029,0,0,1-.48,2.234,3.551,3.551,0,0,1-1.375,1.523,3.925,3.925,0,0,1-2.066.539,3.667,3.667,0,0,1-2.863-1.191,4.563,4.563,0,0,1-1.074-3.176Zm1.9.164A3.406,3.406,0,0,0,96.7,12.9a1.752,1.752,0,0,0,1.5.738,1.733,1.733,0,0,0,1.5-.75,3.762,3.762,0,0,0,.535-2.2,3.362,3.362,0,0,0-.551-2.031A1.856,1.856,0,0,0,96.7,8.652,3.691,3.691,0,0,0,96.156,10.859Zm15.023,2.781a1.716,1.716,0,0,0,1.18-.414,1.415,1.415,0,0,0,.5-1.023h1.789a2.789,2.789,0,0,1-.492,1.473,3.228,3.228,0,0,1-1.25,1.082,3.725,3.725,0,0,1-1.7.4,3.6,3.6,0,0,1-2.812-1.148,4.555,4.555,0,0,1-1.039-3.172v-.2a4.479,4.479,0,0,1,1.031-3.09,3.571,3.571,0,0,1,2.813-1.16,3.473,3.473,0,0,1,2.457.879,3.148,3.148,0,0,1,1,2.309h-1.789a1.738,1.738,0,0,0-.5-1.2,1.6,1.6,0,0,0-1.184-.469,1.671,1.671,0,0,0-1.422.668,3.408,3.408,0,0,0-.508,2.027v.3a3.465,3.465,0,0,0,.5,2.051A1.669,1.669,0,0,0,111.18,13.641Zm4.547-2.945a4.984,4.984,0,0,1,.492-2.238A3.6,3.6,0,0,1,117.6,6.926a3.9,3.9,0,0,1,2.047-.535,3.692,3.692,0,0,1,2.777,1.1,4.333,4.333,0,0,1,1.152,2.922l.008.445a5.029,5.029,0,0,1-.48,2.234,3.551,3.551,0,0,1-1.375,1.523,3.925,3.925,0,0,1-2.066.539,3.667,3.667,0,0,1-2.863-1.191,4.563,4.563,0,0,1-1.074-3.176Zm1.9.164a3.406,3.406,0,0,0,.539,2.043,1.752,1.752,0,0,0,1.5.738,1.733,1.733,0,0,0,1.5-.75,3.762,3.762,0,0,0,.535-2.2,3.362,3.362,0,0,0-.551-2.031,1.856,1.856,0,0,0-2.973-.012A3.691,3.691,0,0,0,117.625,10.859Zm9.328-4.312.055.977a3.039,3.039,0,0,1,2.461-1.133q2.641,0,2.688,3.023V15h-1.9V9.523a1.741,1.741,0,0,0-.348-1.191,1.462,1.462,0,0,0-1.137-.387,1.829,1.829,0,0,0-1.711,1.039V15h-1.9V6.547Zm19.984,4.75a4.107,4.107,0,0,1-1.344,2.84,4.581,4.581,0,0,1-3.117,1.02,4.436,4.436,0,0,1-2.395-.645,4.231,4.231,0,0,1-1.6-1.832,6.611,6.611,0,0,1-.586-2.758V8.859a6.659,6.659,0,0,1,.57-2.836,4.3,4.3,0,0,1,1.637-1.891,4.566,4.566,0,0,1,2.465-.664,4.4,4.4,0,0,1,3.031,1.02,4.26,4.26,0,0,1,1.336,2.887h-1.969a2.81,2.81,0,0,0-.715-1.77,2.363,2.363,0,0,0-1.684-.543A2.308,2.308,0,0,0,140.59,6a4.709,4.709,0,0,0-.707,2.764V9.778a5,5,0,0,0,.66,2.815,2.191,2.191,0,0,0,1.934.97,2.555,2.555,0,0,0,1.75-.523,2.729,2.729,0,0,0,.742-1.742Z" transform="translate(726 6323)" fill="#12263f"/>
    <path id="Trazado_704883" data-name="Trazado 704883" d="M1.156,15V3.625h3.9A4.76,4.76,0,0,1,7.992,4.4,2.724,2.724,0,0,1,9,6.7a2.456,2.456,0,0,1-.422,1.406,2.715,2.715,0,0,1-1.234.969,2.511,2.511,0,0,1,1.426.941,2.742,2.742,0,0,1,.5,1.66,3.028,3.028,0,0,1-1.027,2.461A4.467,4.467,0,0,1,5.3,15ZM3.133,9.867v3.555h2.2a2.124,2.124,0,0,0,1.453-.461A1.618,1.618,0,0,0,7.3,11.68,1.623,1.623,0,0,0,5.492,9.867Zm0-1.453H5.07A2.241,2.241,0,0,0,6.512,8a1.432,1.432,0,0,0,.52-1.184,1.452,1.452,0,0,0-.48-1.219,2.426,2.426,0,0,0-1.5-.375H3.133Zm15.641,6.742a3.928,3.928,0,0,1-2.926-1.137,4.124,4.124,0,0,1-1.121-3.027v-.234A5.072,5.072,0,0,1,15.215,8.5a3.716,3.716,0,0,1,1.371-1.551,3.625,3.625,0,0,1,1.969-.555,3.318,3.318,0,0,1,2.668,1.1,4.658,4.658,0,0,1,.941,3.117v.766H16.641a2.539,2.539,0,0,0,.7,1.656,2.1,2.1,0,0,0,1.543.609,2.571,2.571,0,0,0,2.125-1.055l1.023.977a3.418,3.418,0,0,1-1.355,1.176A4.244,4.244,0,0,1,18.773,15.156Zm-.227-7.242a1.6,1.6,0,0,0-1.262.547,2.835,2.835,0,0,0-.613,1.523h3.617V9.844A2.307,2.307,0,0,0,19.781,8.4,1.586,1.586,0,0,0,18.547,7.914ZM25.4,6.547l.055.977a3.039,3.039,0,0,1,2.461-1.133q2.641,0,2.688,3.023V15H28.7V9.523a1.741,1.741,0,0,0-.348-1.191,1.462,1.462,0,0,0-1.137-.387,1.829,1.829,0,0,0-1.711,1.039V15h-1.9V6.547Zm14.844,8.609a3.928,3.928,0,0,1-2.926-1.137A4.124,4.124,0,0,1,36.2,10.992v-.234A5.072,5.072,0,0,1,36.684,8.5a3.716,3.716,0,0,1,1.371-1.551,3.625,3.625,0,0,1,1.969-.555,3.318,3.318,0,0,1,2.668,1.1,4.658,4.658,0,0,1,.941,3.117v.766H38.109a2.539,2.539,0,0,0,.7,1.656,2.1,2.1,0,0,0,1.543.609,2.571,2.571,0,0,0,2.125-1.055l1.023.977a3.418,3.418,0,0,1-1.355,1.176A4.244,4.244,0,0,1,40.242,15.156Zm-.227-7.242a1.6,1.6,0,0,0-1.262.547,2.835,2.835,0,0,0-.613,1.523h3.617V9.844A2.307,2.307,0,0,0,41.25,8.4,1.586,1.586,0,0,0,40.016,7.914ZM44.75,10.7a5,5,0,0,1,.906-3.148,2.945,2.945,0,0,1,2.453-1.164,2.768,2.768,0,0,1,2.242.992l.109-.836h1.688v11.7h-1.9V14.281a2.834,2.834,0,0,1-2.156.875,2.917,2.917,0,0,1-2.43-1.184A5.23,5.23,0,0,1,44.75,10.7Zm1.9.164A3.528,3.528,0,0,0,47.16,12.9a1.631,1.631,0,0,0,1.418.738,1.8,1.8,0,0,0,1.672-.961V8.836a1.8,1.8,0,0,0-1.656-.922,1.659,1.659,0,0,0-1.426.727A3.849,3.849,0,0,0,46.648,10.867Zm12.664,3.3a2.944,2.944,0,0,1-2.375.984,2.624,2.624,0,0,1-2.082-.8,3.423,3.423,0,0,1-.707-2.328V6.547h1.9V12q0,1.609,1.336,1.609a1.876,1.876,0,0,0,1.867-.992V6.547h1.9V15H59.359ZM65.1,15H63.2V6.547h1.9ZM63.086,4.352a1.008,1.008,0,0,1,.277-.727,1.048,1.048,0,0,1,.793-.289,1.061,1.061,0,0,1,.8.289,1,1,0,0,1,.281.727.977.977,0,0,1-.281.715,1.069,1.069,0,0,1-.8.285,1.056,1.056,0,0,1-.793-.285A.984.984,0,0,1,63.086,4.352ZM69.188,15h-1.9V3h1.9Zm4.086,0h-1.9V6.547h1.9ZM71.258,4.352a1.008,1.008,0,0,1,.277-.727,1.048,1.048,0,0,1,.793-.289,1.061,1.061,0,0,1,.8.289,1,1,0,0,1,.281.727.977.977,0,0,1-.281.715,1.069,1.069,0,0,1-.8.285,1.056,1.056,0,0,1-.793-.285A.984.984,0,0,1,71.258,4.352Zm11.5,6.508a5.078,5.078,0,0,1-.879,3.133,2.863,2.863,0,0,1-2.418,1.164,2.758,2.758,0,0,1-2.312-1.07L77.055,15H75.336V3h1.9V7.359a2.748,2.748,0,0,1,2.211-.969,2.9,2.9,0,0,1,2.43,1.148,5.162,5.162,0,0,1,.883,3.211Zm-1.9-.164a3.589,3.589,0,0,0-.484-2.062,1.613,1.613,0,0,0-1.406-.687,1.763,1.763,0,0,0-1.734,1.078v3.484a1.781,1.781,0,0,0,1.75,1.1,1.6,1.6,0,0,0,1.375-.664,3.477,3.477,0,0,0,.5-2.008Zm7.914-2.414A4.7,4.7,0,0,0,88,8.219a1.741,1.741,0,0,0-1.758,1V15h-1.9V6.547h1.813l.047.945a2.139,2.139,0,0,1,1.906-1.1,1.777,1.777,0,0,1,.672.109ZM91.992,15h-1.9V6.547h1.9ZM89.977,4.352a1.008,1.008,0,0,1,.277-.727,1.048,1.048,0,0,1,.793-.289,1.061,1.061,0,0,1,.8.289,1,1,0,0,1,.281.727.977.977,0,0,1-.281.715,1.069,1.069,0,0,1-.8.285,1.056,1.056,0,0,1-.793-.285A.984.984,0,0,1,89.977,4.352ZM93.7,10.7A4.984,4.984,0,0,1,94.2,8.457a3.6,3.6,0,0,1,1.383-1.531,3.9,3.9,0,0,1,2.047-.535,3.692,3.692,0,0,1,2.777,1.1,4.333,4.333,0,0,1,1.152,2.922l.008.445a5.029,5.029,0,0,1-.48,2.234,3.551,3.551,0,0,1-1.375,1.523,3.925,3.925,0,0,1-2.066.539,3.667,3.667,0,0,1-2.863-1.191A4.563,4.563,0,0,1,93.7,10.789Zm1.9.164a3.406,3.406,0,0,0,.539,2.043,1.752,1.752,0,0,0,1.5.738,1.733,1.733,0,0,0,1.5-.75,3.762,3.762,0,0,0,.535-2.2,3.362,3.362,0,0,0-.551-2.031,1.856,1.856,0,0,0-2.973-.012A3.691,3.691,0,0,0,95.6,10.859Zm15.023,2.781a1.716,1.716,0,0,0,1.18-.414,1.415,1.415,0,0,0,.5-1.023h1.789a2.789,2.789,0,0,1-.492,1.473,3.228,3.228,0,0,1-1.25,1.082,3.725,3.725,0,0,1-1.7.4,3.6,3.6,0,0,1-2.812-1.148,4.555,4.555,0,0,1-1.039-3.172v-.2a4.479,4.479,0,0,1,1.031-3.09,3.571,3.571,0,0,1,2.813-1.16,3.473,3.473,0,0,1,2.457.879,3.148,3.148,0,0,1,1,2.309H112.3a1.738,1.738,0,0,0-.5-1.2,1.6,1.6,0,0,0-1.184-.469,1.671,1.671,0,0,0-1.422.668,3.408,3.408,0,0,0-.508,2.027v.3a3.465,3.465,0,0,0,.5,2.051A1.669,1.669,0,0,0,110.625,13.641Zm4.547-2.945a4.984,4.984,0,0,1,.492-2.238,3.6,3.6,0,0,1,1.383-1.531,3.9,3.9,0,0,1,2.047-.535,3.692,3.692,0,0,1,2.777,1.1,4.333,4.333,0,0,1,1.152,2.922l.008.445a5.029,5.029,0,0,1-.48,2.234,3.551,3.551,0,0,1-1.375,1.523,3.925,3.925,0,0,1-2.066.539,3.667,3.667,0,0,1-2.863-1.191,4.563,4.563,0,0,1-1.074-3.176Zm1.9.164a3.406,3.406,0,0,0,.539,2.043,1.752,1.752,0,0,0,1.5.738,1.733,1.733,0,0,0,1.5-.75,3.762,3.762,0,0,0,.535-2.2,3.362,3.362,0,0,0-.551-2.031,1.856,1.856,0,0,0-2.973-.012A3.691,3.691,0,0,0,117.07,10.859ZM126.4,6.547l.055.977a3.039,3.039,0,0,1,2.461-1.133q2.641,0,2.688,3.023V15h-1.9V9.523a1.741,1.741,0,0,0-.348-1.191,1.462,1.462,0,0,0-1.137-.387,1.829,1.829,0,0,0-1.711,1.039V15h-1.9V6.547Zm19.984,4.75a4.107,4.107,0,0,1-1.344,2.84,4.581,4.581,0,0,1-3.117,1.02,4.436,4.436,0,0,1-2.395-.645,4.231,4.231,0,0,1-1.6-1.832,6.611,6.611,0,0,1-.586-2.758V8.859a6.659,6.659,0,0,1,.57-2.836,4.3,4.3,0,0,1,1.637-1.891,4.566,4.566,0,0,1,2.465-.664,4.4,4.4,0,0,1,3.031,1.02,4.26,4.26,0,0,1,1.336,2.887h-1.969a2.81,2.81,0,0,0-.715-1.77,2.363,2.363,0,0,0-1.684-.543,2.308,2.308,0,0,0-1.98.942,4.709,4.709,0,0,0-.707,2.764V9.778a5,5,0,0,0,.66,2.815,2.191,2.191,0,0,0,1.934.97,2.555,2.555,0,0,0,1.75-.523,2.729,2.729,0,0,0,.742-1.742Z" transform="translate(885 6055)" fill="#12263f"/>
    <path id="Trazado_704884" data-name="Trazado 704884" d="M9.1,14.609H4.877L4.139,17H.843L5.537,4.2h2.9L13.166,17H9.852ZM5.616,12.228H8.367L6.987,7.789Z" transform="translate(478 6087)" fill="#12263f"/>
    <path id="Trazado_704885" data-name="Trazado 704885" d="M2.162,17V4.2h4.6a6.509,6.509,0,0,1,3.757.905A3.012,3.012,0,0,1,11.8,7.736a3.045,3.045,0,0,1-.457,1.7A2.663,2.663,0,0,1,10,10.47a2.7,2.7,0,0,1,1.538.984,2.862,2.862,0,0,1,.536,1.758,3.388,3.388,0,0,1-1.191,2.826A5.667,5.667,0,0,1,7.356,17Zm3.085-5.44v3.067H7.268a1.923,1.923,0,0,0,1.283-.382A1.338,1.338,0,0,0,9,13.168,1.419,1.419,0,0,0,7.409,11.56Zm0-2.021H6.855A2.285,2.285,0,0,0,8.3,9.168,1.314,1.314,0,0,0,8.727,8.1a1.379,1.379,0,0,0-.466-1.168,2.493,2.493,0,0,0-1.5-.357H5.247Z" transform="translate(793 6087)" fill="#12263f"/>
    <path id="Trazado_704886" data-name="Trazado 704886" d="M12.414,12.667a4.673,4.673,0,0,1-.721,2.36,4.35,4.35,0,0,1-1.85,1.586,6.3,6.3,0,0,1-2.72.563A5.025,5.025,0,0,1,3.15,15.532,6.786,6.786,0,0,1,1.7,10.892v-.633a7.746,7.746,0,0,1,.655-3.292A4.961,4.961,0,0,1,4.24,4.788a5.26,5.26,0,0,1,2.848-.769,5.516,5.516,0,0,1,3.744,1.226A4.844,4.844,0,0,1,12.44,8.624H9.364a2.292,2.292,0,0,0-.589-1.679,2.422,2.422,0,0,0-1.687-.51A1.843,1.843,0,0,0,5.4,7.3a5.536,5.536,0,0,0-.562,2.751v.905a6.125,6.125,0,0,0,.514,2.927,1.882,1.882,0,0,0,1.771.879,2.369,2.369,0,0,0,1.626-.5,2.126,2.126,0,0,0,.6-1.591Z" transform="translate(1108 6087)" fill="#12263f"/>
    <g id="Grupo_870354" data-name="Grupo 870354" transform="translate(390 6036.436)">
      <g id="Grupo_870272" data-name="Grupo 870272" transform="translate(0 82)" clip-path="url(#clip-path)">
        <path id="Trazado_255124" data-name="Trazado 255124" d="M185.092,18.665,174.545,34.676a10.24,10.24,0,0,0-1.691,5.624V151.21a34.577,34.577,0,0,1-34.575,34.575H51.327A34.579,34.579,0,0,1,16.742,151.21V40.3a10.238,10.238,0,0,0-1.681-5.624L4.5,18.665A10.236,10.236,0,0,1,13.049,2.8H176.556a10.229,10.229,0,0,1,8.537,15.862" transform="translate(0.2 0.2)" fill="#fff"/>
        <path id="Trazado_255125" data-name="Trazado 255125" d="M185.092,18.665,174.545,34.676a10.24,10.24,0,0,0-1.691,5.624V151.21a34.577,34.577,0,0,1-34.575,34.575H51.327A34.579,34.579,0,0,1,16.742,151.21V40.3a10.238,10.238,0,0,0-1.681-5.624L4.5,18.665A10.236,10.236,0,0,1,13.049,2.8H176.556A10.229,10.229,0,0,1,185.092,18.665Z" transform="translate(0.2 0.2)" fill="none" stroke="#ccc" stroke-miterlimit="10" stroke-width="5.605"/>
        <path id="Trazado_255126" data-name="Trazado 255126" d="M50.794,177.246a26.6,26.6,0,0,1-26.579-26.569V39.768a18.179,18.179,0,0,0-3-10.029L10.654,13.725a2.23,2.23,0,0,1,1.863-3.449H176.024a2.223,2.223,0,0,1,1.85,3.451L167.327,29.739a18.186,18.186,0,0,0-3.011,10.029V150.676a26.6,26.6,0,0,1-26.569,26.569Z" transform="translate(0.732 0.732)" fill="#d7f2ff"/>
        <path id="Trazado_255127" data-name="Trazado 255127" d="M136.819,172.748a26.569,26.569,0,0,0,26.569-26.569v-61.6a5.411,5.411,0,0,0-7.615-4.944l-.079.034c-8,3.577-17.062,7.63-34.275,7.63s-26.281-4.055-34.28-7.632c-7.484-3.345-13.947-6.237-27.745-6.237S39.133,76.316,31.652,79.66c-2.636,1.178-5.328,2.381-8.363,3.479v63.039a26.569,26.569,0,0,0,26.569,26.569Z" transform="translate(1.659 5.229)" fill="#8c1bab"/>
        <path id="Trazado_255128" data-name="Trazado 255128" d="M49.867,172.748a26.6,26.6,0,0,1-26.579-26.569V76.474c2.643.934,5.081,2.024,7.695,3.192,8,3.577,17.062,7.63,34.276,7.63s26.28-4.055,34.28-7.632c7.484-3.345,13.946-6.237,27.743-6.237s20.261,2.889,27.744,6.233c2.636,1.178,5.328,2.381,8.363,3.479v63.039a26.6,26.6,0,0,1-26.569,26.569Z" transform="translate(1.659 5.229)" fill="#f761a1"/>
        <path id="Trazado_255129" data-name="Trazado 255129" d="M48.181,103.587c5.8,0,5.8-9.007,0-9.007s-5.8,9.007,0,9.007" transform="translate(3.122 6.736)" fill="#fff"/>
        <path id="Trazado_255130" data-name="Trazado 255130" d="M57.523,148.428c5.8,0,5.8-9.007,0-9.007s-5.8,9.007,0,9.007" transform="translate(3.787 9.929)" fill="#fff"/>
        <path id="Trazado_255131" data-name="Trazado 255131" d="M119.179,153.722c5.8,0,5.8-9.007,0-9.007s-5.8,9.007,0,9.007" transform="translate(8.178 10.306)" fill="#fff"/>
        <path id="Trazado_255132" data-name="Trazado 255132" d="M136.305,107.324c5.8,0,5.8-9.007,0-9.007s-5.8,9.007,0,9.007" transform="translate(9.398 7.002)" fill="#fff"/>
        <path id="Trazado_255133" data-name="Trazado 255133" d="M117.246,111.239c4.508,0,4.515-7,0-7s-4.515,7,0,7" transform="translate(8.109 7.423)" fill="#fff"/>
        <path id="Trazado_255134" data-name="Trazado 255134" d="M138.292,128.1a1.5,1.5,0,0,0,0-3,1.5,1.5,0,0,0,0,3" transform="translate(9.746 8.909)" fill="#fff"/>
        <path id="Trazado_255135" data-name="Trazado 255135" d="M61.689,110.039a1.5,1.5,0,0,0,0-3,1.5,1.5,0,0,0,0,3" transform="translate(4.29 7.623)" fill="#fff"/>
        <path id="Trazado_255136" data-name="Trazado 255136" d="M37.089,126.231a1.5,1.5,0,0,0,0-3,1.5,1.5,0,0,0,0,3" transform="translate(2.538 8.776)" fill="#fff"/>
        <path id="Trazado_255137" data-name="Trazado 255137" d="M80.684,146.16a1.5,1.5,0,0,0,0-3,1.5,1.5,0,0,0,0,3" transform="translate(5.643 10.196)" fill="#fff"/>
      </g>
    </g>
    <g id="Grupo_870355" data-name="Grupo 870355" transform="translate(705 6036.436)">
      <g id="Grupo_870272-2" data-name="Grupo 870272" transform="translate(0 82)" clip-path="url(#clip-path)">
        <path id="Trazado_255124-2" data-name="Trazado 255124" d="M185.092,18.665,174.545,34.676a10.24,10.24,0,0,0-1.691,5.624V151.21a34.577,34.577,0,0,1-34.575,34.575H51.327A34.579,34.579,0,0,1,16.742,151.21V40.3a10.238,10.238,0,0,0-1.681-5.624L4.5,18.665A10.236,10.236,0,0,1,13.049,2.8H176.556a10.229,10.229,0,0,1,8.537,15.862" transform="translate(0.2 0.2)" fill="#fff"/>
        <path id="Trazado_255125-2" data-name="Trazado 255125" d="M185.092,18.665,174.545,34.676a10.24,10.24,0,0,0-1.691,5.624V151.21a34.577,34.577,0,0,1-34.575,34.575H51.327A34.579,34.579,0,0,1,16.742,151.21V40.3a10.238,10.238,0,0,0-1.681-5.624L4.5,18.665A10.236,10.236,0,0,1,13.049,2.8H176.556A10.229,10.229,0,0,1,185.092,18.665Z" transform="translate(0.2 0.2)" fill="none" stroke="#ccc" stroke-miterlimit="10" stroke-width="5.605"/>
        <path id="Trazado_255126-2" data-name="Trazado 255126" d="M50.794,177.246a26.6,26.6,0,0,1-26.579-26.569V39.768a18.179,18.179,0,0,0-3-10.029L10.654,13.725a2.23,2.23,0,0,1,1.863-3.449H176.024a2.223,2.223,0,0,1,1.85,3.451L167.327,29.739a18.186,18.186,0,0,0-3.011,10.029V150.676a26.6,26.6,0,0,1-26.569,26.569Z" transform="translate(0.732 0.732)" fill="#d7f2ff"/>
        <path id="Trazado_255127-2" data-name="Trazado 255127" d="M136.819,172.748a26.569,26.569,0,0,0,26.569-26.569v-61.6a5.411,5.411,0,0,0-7.615-4.944l-.079.034c-8,3.577-17.062,7.63-34.275,7.63s-26.281-4.055-34.28-7.632c-7.484-3.345-13.947-6.237-27.745-6.237S39.133,76.316,31.652,79.66c-2.636,1.178-5.328,2.381-8.363,3.479v63.039a26.569,26.569,0,0,0,26.569,26.569Z" transform="translate(1.659 5.229)" fill="#8c1bab"/>
        <path id="Trazado_255128-2" data-name="Trazado 255128" d="M49.867,172.748a26.6,26.6,0,0,1-26.579-26.569V76.474c2.643.934,5.081,2.024,7.695,3.192,8,3.577,17.062,7.63,34.276,7.63s26.28-4.055,34.28-7.632c7.484-3.345,13.946-6.237,27.743-6.237s20.261,2.889,27.744,6.233c2.636,1.178,5.328,2.381,8.363,3.479v63.039a26.6,26.6,0,0,1-26.569,26.569Z" transform="translate(1.659 5.229)" fill="#f761a1"/>
        <path id="Trazado_255129-2" data-name="Trazado 255129" d="M48.181,103.587c5.8,0,5.8-9.007,0-9.007s-5.8,9.007,0,9.007" transform="translate(3.122 6.736)" fill="#fff"/>
        <path id="Trazado_255130-2" data-name="Trazado 255130" d="M57.523,148.428c5.8,0,5.8-9.007,0-9.007s-5.8,9.007,0,9.007" transform="translate(3.787 9.929)" fill="#fff"/>
        <path id="Trazado_255131-2" data-name="Trazado 255131" d="M119.179,153.722c5.8,0,5.8-9.007,0-9.007s-5.8,9.007,0,9.007" transform="translate(8.178 10.306)" fill="#fff"/>
        <path id="Trazado_255132-2" data-name="Trazado 255132" d="M136.305,107.324c5.8,0,5.8-9.007,0-9.007s-5.8,9.007,0,9.007" transform="translate(9.398 7.002)" fill="#fff"/>
        <path id="Trazado_255133-2" data-name="Trazado 255133" d="M117.246,111.239c4.508,0,4.515-7,0-7s-4.515,7,0,7" transform="translate(8.109 7.423)" fill="#fff"/>
        <path id="Trazado_255134-2" data-name="Trazado 255134" d="M138.292,128.1a1.5,1.5,0,0,0,0-3,1.5,1.5,0,0,0,0,3" transform="translate(9.746 8.909)" fill="#fff"/>
        <path id="Trazado_255135-2" data-name="Trazado 255135" d="M61.689,110.039a1.5,1.5,0,0,0,0-3,1.5,1.5,0,0,0,0,3" transform="translate(4.29 7.623)" fill="#fff"/>
        <path id="Trazado_255136-2" data-name="Trazado 255136" d="M37.089,126.231a1.5,1.5,0,0,0,0-3,1.5,1.5,0,0,0,0,3" transform="translate(2.538 8.776)" fill="#fff"/>
        <path id="Trazado_255137-2" data-name="Trazado 255137" d="M80.684,146.16a1.5,1.5,0,0,0,0-3,1.5,1.5,0,0,0,0,3" transform="translate(5.643 10.196)" fill="#fff"/>
      </g>
    </g>
    <g id="Grupo_870352" data-name="Grupo 870352" transform="translate(1020 6036.436)">
      <g id="Grupo_870272-3" data-name="Grupo 870272" transform="translate(0 82)" clip-path="url(#clip-path)">
        <path id="Trazado_255124-3" data-name="Trazado 255124" d="M185.092,18.665,174.545,34.676a10.24,10.24,0,0,0-1.691,5.624V151.21a34.577,34.577,0,0,1-34.575,34.575H51.327A34.579,34.579,0,0,1,16.742,151.21V40.3a10.238,10.238,0,0,0-1.681-5.624L4.5,18.665A10.236,10.236,0,0,1,13.049,2.8H176.556a10.229,10.229,0,0,1,8.537,15.862" transform="translate(0.2 0.2)" fill="#fff"/>
        <path id="Trazado_255125-3" data-name="Trazado 255125" d="M185.092,18.665,174.545,34.676a10.24,10.24,0,0,0-1.691,5.624V151.21a34.577,34.577,0,0,1-34.575,34.575H51.327A34.579,34.579,0,0,1,16.742,151.21V40.3a10.238,10.238,0,0,0-1.681-5.624L4.5,18.665A10.236,10.236,0,0,1,13.049,2.8H176.556A10.229,10.229,0,0,1,185.092,18.665Z" transform="translate(0.2 0.2)" fill="none" stroke="#ccc" stroke-miterlimit="10" stroke-width="5.605"/>
        <path id="Trazado_255126-3" data-name="Trazado 255126" d="M50.794,177.246a26.6,26.6,0,0,1-26.579-26.569V39.768a18.179,18.179,0,0,0-3-10.029L10.654,13.725a2.23,2.23,0,0,1,1.863-3.449H176.024a2.223,2.223,0,0,1,1.85,3.451L167.327,29.739a18.186,18.186,0,0,0-3.011,10.029V150.676a26.6,26.6,0,0,1-26.569,26.569Z" transform="translate(0.732 0.732)" fill="#d7f2ff"/>
        <path id="Trazado_255127-3" data-name="Trazado 255127" d="M136.819,172.748a26.569,26.569,0,0,0,26.569-26.569v-61.6a5.411,5.411,0,0,0-7.615-4.944l-.079.034c-8,3.577-17.062,7.63-34.275,7.63s-26.281-4.055-34.28-7.632c-7.484-3.345-13.947-6.237-27.745-6.237S39.133,76.316,31.652,79.66c-2.636,1.178-5.328,2.381-8.363,3.479v63.039a26.569,26.569,0,0,0,26.569,26.569Z" transform="translate(1.659 5.229)" fill="#8c1bab"/>
        <path id="Trazado_255128-3" data-name="Trazado 255128" d="M49.867,172.748a26.6,26.6,0,0,1-26.579-26.569V76.474c2.643.934,5.081,2.024,7.695,3.192,8,3.577,17.062,7.63,34.276,7.63s26.28-4.055,34.28-7.632c7.484-3.345,13.946-6.237,27.743-6.237s20.261,2.889,27.744,6.233c2.636,1.178,5.328,2.381,8.363,3.479v63.039a26.6,26.6,0,0,1-26.569,26.569Z" transform="translate(1.659 5.229)" fill="#f761a1"/>
        <path id="Trazado_255129-3" data-name="Trazado 255129" d="M48.181,103.587c5.8,0,5.8-9.007,0-9.007s-5.8,9.007,0,9.007" transform="translate(3.122 6.736)" fill="#fff"/>
        <path id="Trazado_255130-3" data-name="Trazado 255130" d="M57.523,148.428c5.8,0,5.8-9.007,0-9.007s-5.8,9.007,0,9.007" transform="translate(3.787 9.929)" fill="#fff"/>
        <path id="Trazado_255131-3" data-name="Trazado 255131" d="M119.179,153.722c5.8,0,5.8-9.007,0-9.007s-5.8,9.007,0,9.007" transform="translate(8.178 10.306)" fill="#fff"/>
        <path id="Trazado_255132-3" data-name="Trazado 255132" d="M136.305,107.324c5.8,0,5.8-9.007,0-9.007s-5.8,9.007,0,9.007" transform="translate(9.398 7.002)" fill="#fff"/>
        <path id="Trazado_255133-3" data-name="Trazado 255133" d="M117.246,111.239c4.508,0,4.515-7,0-7s-4.515,7,0,7" transform="translate(8.109 7.423)" fill="#fff"/>
        <path id="Trazado_255134-3" data-name="Trazado 255134" d="M138.292,128.1a1.5,1.5,0,0,0,0-3,1.5,1.5,0,0,0,0,3" transform="translate(9.746 8.909)" fill="#fff"/>
        <path id="Trazado_255135-3" data-name="Trazado 255135" d="M61.689,110.039a1.5,1.5,0,0,0,0-3,1.5,1.5,0,0,0,0,3" transform="translate(4.29 7.623)" fill="#fff"/>
        <path id="Trazado_255136-3" data-name="Trazado 255136" d="M37.089,126.231a1.5,1.5,0,0,0,0-3,1.5,1.5,0,0,0,0,3" transform="translate(2.538 8.776)" fill="#fff"/>
        <path id="Trazado_255137-3" data-name="Trazado 255137" d="M80.684,146.16a1.5,1.5,0,0,0,0-3,1.5,1.5,0,0,0,0,3" transform="translate(5.643 10.196)" fill="#fff"/>
      </g>
    </g>
    <g id="Grupo_870356" data-name="Grupo 870356" transform="translate(0 2818)">
      <path id="Trazado_255138" data-name="Trazado 255138" d="M-8671.186-8420.5v-25.813" transform="translate(9208 11708.356)" fill="none" stroke="#ad84ff" stroke-width="2"/>
      <path id="Trazado_255139" data-name="Trazado 255139" d="M-8671.186-8420.5v-25.813" transform="translate(9413 11708.356)" fill="none" stroke="#ad84ff" stroke-width="2"/>
      <path id="Trazado_255140" data-name="Trazado 255140" d="M-8671.186-8241v-205.312" transform="translate(8982.813 -5408.236) rotate(-90)" fill="none" stroke="#ad84ff" stroke-width="2"/>
      <path id="Polígono_147" data-name="Polígono 147" d="M7.5,0,15,12H0Z" transform="translate(544 3294) rotate(180)" fill="#ad84ff"/>
      <path id="Polígono_148" data-name="Polígono 148" d="M7.5,0,15,12H0Z" transform="translate(749 3294) rotate(180)" fill="#ad84ff"/>
    </g>
    <path id="Trazado_255140-2" data-name="Trazado 255140" d="M-8671.186-7809.312v-637" transform="translate(-7324.313 15019.236) rotate(90)" fill="none" stroke="#ad84ff" stroke-width="2"/>
    <g id="Grupo_870359" data-name="Grupo 870359" transform="translate(380.5 1344)">
      <path id="Trazado_255138-2" data-name="Trazado 255138" d="M-8671.186-8420.5v-25.813" transform="translate(-7930 -3441.356) rotate(180)" fill="none" stroke="#ad84ff" stroke-width="2"/>
      <path id="Polígono_147-2" data-name="Polígono 147" d="M7.5,0,15,12H0Z" transform="translate(734 4973)" fill="#ad84ff"/>
    </g>
    <g id="Grupo_870360" data-name="Grupo 870360" transform="translate(-51.5 1344)">
      <path id="Trazado_255139-2" data-name="Trazado 255139" d="M-8671.186-8420.5v-25.813" transform="translate(-8135 -3441.356) rotate(180)" fill="none" stroke="#ad84ff" stroke-width="2"/>
      <path id="Polígono_148-2" data-name="Polígono 148" d="M7.5,0,15,12H0Z" transform="translate(529 4973)" fill="#ad84ff"/>
    </g>
    <g id="Grupo_870353" data-name="Grupo 870353" transform="translate(320 2818)">
      <path id="Trazado_255138-3" data-name="Trazado 255138" d="M-8671.186-8420.5v-25.813" transform="translate(9208 11708.356)" fill="none" stroke="#ad84ff" stroke-width="2"/>
      <path id="Trazado_255139-3" data-name="Trazado 255139" d="M-8671.186-8420.5v-25.813" transform="translate(9413 11708.356)" fill="none" stroke="#ad84ff" stroke-width="2"/>
      <path id="Trazado_255140-3" data-name="Trazado 255140" d="M-8671.186-8241v-205.312" transform="translate(8982.813 -5408.236) rotate(-90)" fill="none" stroke="#ad84ff" stroke-width="2"/>
      <path id="Polígono_147-3" data-name="Polígono 147" d="M7.5,0,15,12H0Z" transform="translate(544 3294) rotate(180)" fill="#ad84ff"/>
      <path id="Polígono_148-3" data-name="Polígono 148" d="M7.5,0,15,12H0Z" transform="translate(749 3294) rotate(180)" fill="#ad84ff"/>
    </g>
    <g id="Grupo_870357" data-name="Grupo 870357" transform="translate(0 2933)">
      <g id="Rectángulo_43902" data-name="Rectángulo 43902" transform="translate(562 3280)" fill="#f761a1" stroke="#ccc" stroke-width="5">
        <rect width="162" height="54" stroke="none"/>
        <rect x="2.5" y="2.5" width="157" height="49" fill="none"/>
      </g>
      <path id="Trazado_255183" data-name="Trazado 255183" d="M48.181,103.587c5.8,0,5.8-9.007,0-9.007s-5.8,9.007,0,9.007" transform="translate(538.619 3200.172)" fill="#fff"/>
      <path id="Trazado_255184" data-name="Trazado 255184" d="M119.179,153.722c5.8,0,5.8-9.007,0-9.007s-5.8,9.007,0,9.007" transform="translate(515.471 3167.383)" fill="#fff"/>
      <path id="Trazado_255185" data-name="Trazado 255185" d="M136.305,107.324c5.8,0,5.8-9.007,0-9.007s-5.8,9.007,0,9.007" transform="translate(568.695 3191.932)" fill="#fff"/>
      <path id="Trazado_255186" data-name="Trazado 255186" d="M117.246,111.239c4.508,0,4.515-7,0-7s-4.515,7,0,7" transform="translate(552.606 3198.357)" fill="#fff"/>
      <path id="Trazado_255187" data-name="Trazado 255187" d="M61.689,110.039a1.5,1.5,0,0,0,0-3,1.5,1.5,0,0,0,0,3" transform="translate(544.787 3208.063)" fill="#fff"/>
    </g>
    <g id="Grupo_870358" data-name="Grupo 870358" transform="translate(316 2933)">
      <g id="Rectángulo_43902-2" data-name="Rectángulo 43902" transform="translate(562 3280)" fill="#f761a1" stroke="#ccc" stroke-width="5">
        <rect width="162" height="54" stroke="none"/>
        <rect x="2.5" y="2.5" width="157" height="49" fill="none"/>
      </g>
      <path id="Trazado_255183-2" data-name="Trazado 255183" d="M48.181,103.587c5.8,0,5.8-9.007,0-9.007s-5.8,9.007,0,9.007" transform="translate(538.619 3200.172)" fill="#fff"/>
      <path id="Trazado_255184-2" data-name="Trazado 255184" d="M119.179,153.722c5.8,0,5.8-9.007,0-9.007s-5.8,9.007,0,9.007" transform="translate(515.471 3167.383)" fill="#fff"/>
      <path id="Trazado_255185-2" data-name="Trazado 255185" d="M136.305,107.324c5.8,0,5.8-9.007,0-9.007s-5.8,9.007,0,9.007" transform="translate(568.695 3191.932)" fill="#fff"/>
      <path id="Trazado_255186-2" data-name="Trazado 255186" d="M117.246,111.239c4.508,0,4.515-7,0-7s-4.515,7,0,7" transform="translate(552.606 3198.357)" fill="#fff"/>
      <path id="Trazado_255187-2" data-name="Trazado 255187" d="M61.689,110.039a1.5,1.5,0,0,0,0-3,1.5,1.5,0,0,0,0,3" transform="translate(544.787 3208.063)" fill="#fff"/>
    </g>
  </g>
</svg>
