<svg xmlns="http://www.w3.org/2000/svg" xmlns:xlink="http://www.w3.org/1999/xlink" width="151.387" height="147" viewBox="0 0 151.387 147">
  <defs>
    <clipPath id="clip-path">
      <rect id="Rectángulo_339741" data-name="Rectángulo 339741" width="148.387" height="124" transform="translate(-74 -21)" fill="none"/>
    </clipPath>
  </defs>
  <g id="Grupo_974082" data-name="Grupo 974082" transform="translate(-569 -2225)">
    <circle id="Elipse_5565" data-name="Elipse 5565" cx="73.5" cy="73.5" r="73.5" transform="translate(569 2225)" fill="#ad84ff"/>
    <g id="Grupo_973591" data-name="Grupo 973591" transform="translate(609 2193.749)">
      <g id="Grupo_973583" data-name="Grupo 973583" transform="translate(37 71.251)" clip-path="url(#clip-path)">
        <path id="Trazado_660810" data-name="Trazado 660810" d="M80.081,15.052V59.068S63.093,69.622,65.409,88.155c0,0,2.317,21.88,27.8,23.424,0,0,23.424-2.574,25.483-24.968,0,0,3.089-17.761-14.672-26l.258-45.818S104.02,4.5,91.922,2.954c0,0-9.781.258-11.84,12.1" transform="translate(-46.317 -9.602)" fill="aqua"/>
        <path id="Trazado_660811" data-name="Trazado 660811" d="M97.1,24.652v47.62s-15.444,7.722-14.013,24c0,0,1.688,15.945,20.26,17.07,0,0,17.071-1.875,18.571-18.2,0,0-.736-16.168-13.68-22.171L107.4,25.682s.257-6.178-5.406-6.178c0,0-3.6-.772-4.891,5.148" transform="translate(-56.385 -18.944)" fill="#cfb7ff"/>
        <path id="Trazado_660812" data-name="Trazado 660812" d="M104,12.363h1.55l6.222-.01a1.749,1.749,0,0,1,1.7.844,1.489,1.489,0,0,1-.722,2.164,3.482,3.482,0,0,1-1.209.222c-2.273.021-4.545.01-6.818.01h-.63v5.54h1.494c1.172,0,2.345-.009,3.517,0a1.781,1.781,0,0,1,1.494.622,1.524,1.524,0,0,1,.25,1.67,1.565,1.565,0,0,1-1.53.922c-1.064.007-2.128-.036-3.191-.05-.664-.008-1.328,0-2.029,0v5.594h.616q3.49,0,6.98,0a3.244,3.244,0,0,1,.592.035,1.663,1.663,0,0,1,1.446,1.688,1.6,1.6,0,0,1-1.7,1.536c-2.182.015-4.365.007-6.547.009h-1.409c0,1.342,0,2.6,0,3.859,0,.433.021.867,0,1.3-.017.339.11.432.44.425,1.37-.03,2.74-.04,4.111-.044a5.715,5.715,0,0,1,1.076.083,1.623,1.623,0,0,1,1.261,1.611,1.455,1.455,0,0,1-1.281,1.507c-.821.089-1.654.068-2.482.078-.883.01-1.768.016-2.651-.007-.356-.009-.467.108-.465.463q.014,2.355-.02,4.709c-.006.4.218.375.485.374q3.327-.011,6.655-.013a9.424,9.424,0,0,1,.973.035,1.674,1.674,0,0,1,1.532,1.671,1.51,1.51,0,0,1-1.489,1.49c-1.025.06-2.054.036-3.082.038-1.656,0-3.311,0-5.059,0,0,.379,0,.714,0,1.049.007,1.732,0,3.465.033,5.2a.817.817,0,0,0,.3.6,29.066,29.066,0,0,1,11.255,11.691,27.566,27.566,0,0,1,3.145,15.841,28.228,28.228,0,0,1-19.955,24.5,26.882,26.882,0,0,1-12.934.9A27.936,27.936,0,0,1,68.678,100.5a28.66,28.66,0,0,1-5.189-9.289A28.34,28.34,0,0,1,73.615,59.633c.919-.693,1.9-1.305,2.879-1.915a.887.887,0,0,0,.493-.858q-.011-12.127,0-24.253c0-1.118-.035-2.237-.012-3.355a1.576,1.576,0,0,1,2.846-.963,2.3,2.3,0,0,1,.33,1.162q.015,13.37-.01,26.74c0,.487.011.974.023,1.462a2.519,2.519,0,0,1-1.31,2.374,42.739,42.739,0,0,0-3.8,2.47,24.233,24.233,0,0,0-9.208,14.826,24.543,24.543,0,0,0,.808,13.28,24.968,24.968,0,0,0,10.466,13.161,24.048,24.048,0,0,0,10.5,3.732,25.47,25.47,0,0,0,13.341-2.123,25.186,25.186,0,0,0,14.7-24.908,24.16,24.16,0,0,0-9.2-17.529,40.721,40.721,0,0,0-4.1-2.8,2.83,2.83,0,0,1-1.5-2.607q.016-21.681.007-43.363a10.721,10.721,0,0,0-.943-4.944,10.358,10.358,0,0,0-19.437,1.9,16.308,16.308,0,0,0-.315,3.544c-.036,2.561,0,5.124.018,7.686a1.774,1.774,0,0,1-1,1.87,1.51,1.51,0,0,1-2.142-1.132,4.98,4.98,0,0,1-.08-.913c0-2.815.046-5.63,0-8.444A13.579,13.579,0,0,1,87.772.321c5.66-1.14,10.313.776,13.779,5.462a12.78,12.78,0,0,1,2.343,5.857c.031.213.064.426.109.722" transform="translate(-44.573 -7.931)"/>
        <path id="Trazado_660813" data-name="Trazado 660813" d="M96.038,45.358V66.524a9.289,9.289,0,0,1-5.208,8.793,17.516,17.516,0,0,0-9.242,12.42,18.117,18.117,0,0,0,12.627,21.187c6.638,1.983,12.592.467,17.7-4.162a17.339,17.339,0,0,0,5.732-15.1A17.674,17.674,0,0,0,108.643,75.6a13.429,13.429,0,0,1-3.438-2.491,9.563,9.563,0,0,1-2.307-6.2c-.055-1.676-.015-3.356-.009-5.034a1.638,1.638,0,0,1,1.48-1.752,1.542,1.542,0,0,1,1.716,1.6c.052,1.568.013,3.139.011,4.709a6.715,6.715,0,0,0,1.1,3.947,7.513,7.513,0,0,0,2.754,2.3,18.068,18.068,0,0,1,4.391,3.22c4.868,4.966,7.236,10.906,6.486,17.87a20.979,20.979,0,0,1-7.641,14.212,21.484,21.484,0,0,1-34.025-9.521,21.495,21.495,0,0,1,9.908-25.777,6.465,6.465,0,0,0,3.361-3.64,8.951,8.951,0,0,0,.442-2.648q.029-21.14,0-42.28a14.811,14.811,0,0,1,.178-3.065,6.591,6.591,0,0,1,12.965.716A12.738,12.738,0,0,1,106.1,23.6q.007,14.644,0,29.288c0,.685.023,1.371.021,2.057a1.658,1.658,0,0,1-1.653,1.863c-.976,0-1.582-.711-1.582-1.853q0-15.862-.019-31.724a5.243,5.243,0,0,0-.431-2.135,3.176,3.176,0,0,0-3.5-1.853A3.483,3.483,0,0,0,96.076,22.3a9.517,9.517,0,0,0-.066,1.134Q96,34.4,96.007,45.358h.03" transform="translate(-53.527 -16.95)"/>
        <path id="Trazado_660815" data-name="Trazado 660815" d="M128.251,196.128c-4.7-.04-8.225-3.2-8.646-7.478a8.324,8.324,0,0,1,12.694-7.869,1.608,1.608,0,0,1-.312,2.976,1.732,1.732,0,0,1-1.525-.322,5.1,5.1,0,0,0-7.3,6.337,5.071,5.071,0,0,0,5.943,2.958,9.484,9.484,0,0,0,2.253-1.231,1.544,1.544,0,0,1,1.726-.085,1.429,1.429,0,0,1,.787,1.533,2.248,2.248,0,0,1-.647,1.131,7.516,7.516,0,0,1-4.971,2.049" transform="translate(-77.067 -109.428)"/>
        <path id="Trazado_660816" data-name="Trazado 660816" d="M107.177,170.964a4.8,4.8,0,1,1,4.8-4.825,4.8,4.8,0,0,1-4.8,4.825m1.553-4.794a1.543,1.543,0,1,0-3.087-.026,1.572,1.572,0,0,0,1.534,1.563,1.554,1.554,0,0,0,1.553-1.537" transform="translate(-67.373 -99.201)"/>
        <path id="Trazado_660819" data-name="Trazado 660819" d="M112.929,170.4a1.554,1.554,0,0,1-1.553,1.537,1.572,1.572,0,0,1-1.534-1.563,1.543,1.543,0,1,1,3.087.026" transform="translate(-71.572 -103.433)" fill="#fff"/>
        <text id="_1" data-name="1" transform="translate(-5.087 73)" fill="#fff" font-size="120" font-family="Roboto-Black, Roboto" font-weight="800"><tspan x="-34.746" y="0">1</tspan></text>
      </g>
    </g>
  </g>
</svg>
