<svg xmlns="http://www.w3.org/2000/svg" width="94" height="94" viewBox="0 0 94 94">
  <g id="Grupo_974098" data-name="Grupo 974098" transform="translate(-326 -4300)">
    <circle id="Elipse_5549" data-name="Elipse 5549" cx="47" cy="47" r="47" transform="translate(326 4300)" fill="#fff"/>
    <g id="ciudad" transform="translate(339.905 4311.905)">
      <path id="Trazado_660590" data-name="Trazado 660590" d="M429.358,108.986v18.808a.97.97,0,0,1-.97.97H423.25a.97.97,0,0,1-.97-.97V108.986a.97.97,0,0,1,.97-.97h5.139A.97.97,0,0,1,429.358,108.986Z" transform="translate(-367.689 -94.052)" fill="#997ab8"/>
      <path id="Trazado_660591" data-name="Trazado 660591" d="M429.358,108.986v18.808a.97.97,0,0,1-.97.97H423.25a.97.97,0,0,1-.97-.97v-3.679h2.083a2.661,2.661,0,0,0,2.661-2.662V108.016h1.365A.97.97,0,0,1,429.358,108.986Z" transform="translate(-367.689 -94.052)" fill="#6957a1"/>
      <g id="Grupo_970025" data-name="Grupo 970025" transform="translate(43.592 8.699)">
        <path id="Trazado_660592" data-name="Trazado 660592" d="M350.138,68.264V92.3a.969.969,0,0,1-.97.97h-11a.969.969,0,0,1-.97-.97v-22.1a.97.97,0,0,1,.8-.955l11-1.943a.97.97,0,0,1,1.138.956Z" transform="translate(-337.2 -67.294)" fill="#c8d9e2"/>
        <g id="Grupo_970024" data-name="Grupo 970024" transform="translate(0 7.572)">
          <path id="Trazado_660593" data-name="Trazado 660593" d="M346.258,126.839a.969.969,0,0,1-.97.97H337.2v-1.94h8.093A.97.97,0,0,1,346.258,126.839Z" transform="translate(-337.196 -125.869)" fill="#e6f8fc"/>
          <path id="Trazado_660594" data-name="Trazado 660594" d="M346.258,161.062a.969.969,0,0,1-.97.97H337.2v-1.94h8.093A.97.97,0,0,1,346.258,161.062Z" transform="translate(-337.196 -155.668)" fill="#e6f8fc"/>
          <path id="Trazado_660595" data-name="Trazado 660595" d="M346.258,195.284a.969.969,0,0,1-.97.97H337.2v-1.94h8.093A.97.97,0,0,1,346.258,195.284Z" transform="translate(-337.196 -185.466)" fill="#e6f8fc"/>
        </g>
      </g>
      <path id="Trazado_660596" data-name="Trazado 660596" d="M350.138,232.547v3.648a.969.969,0,0,1-.97.97h-11a.969.969,0,0,1-.97-.97v-3.648Z" transform="translate(-293.608 -202.484)" fill="#a1adb4"/>
      <path id="Trazado_660597" data-name="Trazado 660597" d="M41.258,108.986v18.808a.97.97,0,0,1-.97.97H35.15a.97.97,0,0,1-.97-.97V108.986a.97.97,0,0,1,.97-.97h5.139A.97.97,0,0,1,41.258,108.986Z" transform="translate(-29.761 -94.052)" fill="#c8d9e2"/>
      <path id="Trazado_660598" data-name="Trazado 660598" d="M34.18,232.547h7.078v3.679a.97.97,0,0,1-.97.97H35.15a.97.97,0,0,1-.97-.97Z" transform="translate(-29.761 -202.484)" fill="#a1adb4"/>
      <path id="Trazado_660599" data-name="Trazado 660599" d="M129.614,36.3a.97.97,0,0,0-.97.97v3.4a.97.97,0,1,0,1.939,0v-3.4A.97.97,0,0,0,129.614,36.3Z" transform="translate(-112.013 -31.611)" fill="#ccc1e2"/>
      <path id="Trazado_660600" data-name="Trazado 660600" d="M87.386,63.556V88.237a.97.97,0,0,1-.97.97H74.9a.969.969,0,0,1-.97-.97V63.556a.969.969,0,0,1,.97-.97H86.417A.97.97,0,0,1,87.386,63.556Z" transform="translate(-64.373 -54.496)" fill="#997ab8"/>
      <path id="Trazado_660601" data-name="Trazado 660601" d="M73.93,232.547H87.386v3.679a.97.97,0,0,1-.97.97H74.9a.969.969,0,0,1-.97-.97Z" transform="translate(-64.373 -202.484)" fill="#6957a1"/>
      <path id="Trazado_660602" data-name="Trazado 660602" d="M314.79,36.3a.97.97,0,0,0-.97.97v3.4a.97.97,0,1,0,1.939,0v-3.4A.97.97,0,0,0,314.79,36.3Z" transform="translate(-273.25 -31.611)" fill="#ccc1e2"/>
      <path id="Trazado_660603" data-name="Trazado 660603" d="M261.556,63.556V88.237a.97.97,0,0,1-.97.97H249.07a.97.97,0,0,1-.97-.97V63.556a.97.97,0,0,1,.97-.97h11.517A.97.97,0,0,1,261.556,63.556Z" transform="translate(-216.026 -54.496)" fill="#f7775b"/>
      <path id="Trazado_660604" data-name="Trazado 660604" d="M261.556,232.547v3.679a.97.97,0,0,1-.97.97H249.07a.97.97,0,0,1-.97-.97v-3.679Z" transform="translate(-216.026 -202.484)" fill="#f25853"/>
      <g id="Grupo_970027" data-name="Grupo 970027" transform="translate(36.691 12.131)">
        <g id="Grupo_970026" data-name="Grupo 970026">
          <path id="Trazado_660605" data-name="Trazado 660605" d="M314.79,93.844a.97.97,0,0,0-.97.97v1.629a.97.97,0,1,0,1.939,0V94.814A.97.97,0,0,0,314.79,93.844Z" transform="translate(-309.942 -93.844)" fill="#ffe26f"/>
          <path id="Trazado_660606" data-name="Trazado 660606" d="M284.79,93.844a.97.97,0,0,0-.97.97v1.629a.97.97,0,1,0,1.939,0V94.814A.97.97,0,0,0,284.79,93.844Z" transform="translate(-283.82 -93.844)" fill="#ffe26f"/>
          <path id="Trazado_660607" data-name="Trazado 660607" d="M314.79,141.871a.97.97,0,0,0-.97.97v1.629a.97.97,0,1,0,1.939,0v-1.629A.97.97,0,0,0,314.79,141.871Z" transform="translate(-309.942 -135.662)" fill="#ffe26f"/>
          <path id="Trazado_660608" data-name="Trazado 660608" d="M284.79,141.871a.97.97,0,0,0-.97.97v1.629a.97.97,0,1,0,1.939,0v-1.629A.97.97,0,0,0,284.79,141.871Z" transform="translate(-283.82 -135.662)" fill="#ffe26f"/>
          <path id="Trazado_660609" data-name="Trazado 660609" d="M315.759,194.9v7.7a.97.97,0,1,1-1.939,0v-7.7a.97.97,0,1,1,1.939,0Z" transform="translate(-309.942 -180.99)" fill="#ffe26f"/>
          <path id="Trazado_660610" data-name="Trazado 660610" d="M285.759,194.9v7.7a.97.97,0,1,1-1.939,0v-7.7a.97.97,0,1,1,1.939,0Z" transform="translate(-283.82 -180.99)" fill="#ffe26f"/>
        </g>
      </g>
      <path id="Trazado_660611" data-name="Trazado 660611" d="M175.958.971V33.742a.969.969,0,0,1-.97.97h-11a.969.969,0,0,1-.97-.97V2.912a.97.97,0,0,1,.8-.955l11-1.943a.97.97,0,0,1,1.138.956Z" transform="translate(-141.945)" fill="#c8d9e2"/>
      <path id="Trazado_660612" data-name="Trazado 660612" d="M163.02,232.547h12.938v3.679a.969.969,0,0,1-.97.97h-11a.969.969,0,0,1-.97-.97Z" transform="translate(-141.945 -202.484)" fill="#a1adb4"/>
      <g id="Grupo_970029" data-name="Grupo 970029" transform="translate(12.752 12.131)">
        <g id="Grupo_970028" data-name="Grupo 970028">
          <path id="Trazado_660613" data-name="Trazado 660613" d="M129.614,93.844a.97.97,0,0,0-.97.97v1.629a.97.97,0,1,0,1.939,0V94.814A.97.97,0,0,0,129.614,93.844Z" transform="translate(-124.765 -93.844)" fill="#ffe26f"/>
          <path id="Trazado_660614" data-name="Trazado 660614" d="M99.614,93.844a.97.97,0,0,0-.97.97v1.629a.97.97,0,1,0,1.939,0V94.814A.97.97,0,0,0,99.614,93.844Z" transform="translate(-98.643 -93.844)" fill="#ffe26f"/>
          <path id="Trazado_660615" data-name="Trazado 660615" d="M129.614,141.871a.97.97,0,0,0-.97.97v1.629a.97.97,0,1,0,1.939,0v-1.629A.97.97,0,0,0,129.614,141.871Z" transform="translate(-124.765 -135.662)" fill="#ffe26f"/>
          <path id="Trazado_660616" data-name="Trazado 660616" d="M99.614,141.871a.97.97,0,0,0-.97.97v1.629a.97.97,0,1,0,1.939,0v-1.629A.97.97,0,0,0,99.614,141.871Z" transform="translate(-98.643 -135.662)" fill="#ffe26f"/>
          <path id="Trazado_660617" data-name="Trazado 660617" d="M130.579,194.9v7.7a.97.97,0,1,1-1.939,0v-7.7a.97.97,0,1,1,1.939,0Z" transform="translate(-124.762 -180.99)" fill="#ffe26f"/>
          <path id="Trazado_660618" data-name="Trazado 660618" d="M100.579,194.9v7.7a.97.97,0,1,1-1.939,0v-7.7a.97.97,0,1,1,1.939,0Z" transform="translate(-98.64 -180.99)" fill="#ffe26f"/>
        </g>
      </g>
      <g id="Grupo_970030" data-name="Grupo 970030" transform="translate(21.075 7.572)">
        <path id="Trazado_660619" data-name="Trazado 660619" d="M172.082,196.436a.969.969,0,0,1-.97.97H163.02v-1.94h8.093A.97.97,0,0,1,172.082,196.436Z" transform="translate(-163.02 -177.769)" fill="#e6f8fc"/>
        <path id="Trazado_660620" data-name="Trazado 660620" d="M172.082,59.546a.969.969,0,0,1-.97.97H163.02v-1.94h8.093A.97.97,0,0,1,172.082,59.546Z" transform="translate(-163.02 -58.576)" fill="#e6f8fc"/>
        <path id="Trazado_660621" data-name="Trazado 660621" d="M172.082,93.769a.969.969,0,0,1-.97.97H163.02V92.8h8.093A.97.97,0,0,1,172.082,93.769Z" transform="translate(-163.02 -88.375)" fill="#e6f8fc"/>
        <path id="Trazado_660622" data-name="Trazado 660622" d="M172.082,127.991a.969.969,0,0,1-.97.97H163.02v-1.94h8.093A.97.97,0,0,1,172.082,127.991Z" transform="translate(-163.02 -118.173)" fill="#e6f8fc"/>
        <path id="Trazado_660623" data-name="Trazado 660623" d="M172.082,162.214a.969.969,0,0,1-.97.97H163.02v-1.94h8.093A.97.97,0,0,1,172.082,162.214Z" transform="translate(-163.02 -147.971)" fill="#e6f8fc"/>
      </g>
      <g id="Grupo_970031" data-name="Grupo 970031" transform="translate(12.752 30.063)">
        <path id="Trazado_660624" data-name="Trazado 660624" d="M98.64,232.547h1.939v3.679a.97.97,0,1,1-1.939,0Z" transform="translate(-98.64 -232.547)" fill="#ffc54b"/>
        <path id="Trazado_660625" data-name="Trazado 660625" d="M128.64,232.547h1.939v3.679a.97.97,0,1,1-1.939,0Z" transform="translate(-124.762 -232.547)" fill="#ffc54b"/>
        <path id="Trazado_660626" data-name="Trazado 660626" d="M283.82,232.547h1.939v3.679a.97.97,0,1,1-1.939,0Z" transform="translate(-259.88 -232.547)" fill="#ffc54b"/>
        <path id="Trazado_660627" data-name="Trazado 660627" d="M315.759,232.547v3.679a.97.97,0,1,1-1.939,0v-3.679Z" transform="translate(-286.002 -232.547)" fill="#ffc54b"/>
      </g>
      <g id="Grupo_970035" data-name="Grupo 970035" transform="translate(0 32.74)">
        <g id="Grupo_970034" data-name="Grupo 970034" transform="translate(0 1.002)">
          <path id="Trazado_660628" data-name="Trazado 660628" d="M90.866,261.006a29.281,29.281,0,0,1-11.85,23.553L68.709,288.14,66.7,287.3,35.366,274.158a29.1,29.1,0,0,1-2.614-7.766l1.984-5.387h56.13Z" transform="translate(-28.518 -261.006)" fill="#7ac2ed"/>
          <path id="Trazado_660629" data-name="Trazado 660629" d="M319.509,261.006a29.281,29.281,0,0,1-11.85,23.553l-10.307,3.581-2.01-.843a27.519,27.519,0,0,0,19.383-26.29Z" transform="translate(-257.161 -261.006)" fill="#68a6dc"/>
          <path id="Trazado_660630" data-name="Trazado 660630" d="M36.279,261.006a8.689,8.689,0,0,1-6.853,5.387,29.469,29.469,0,0,1-.494-5.387Z" transform="translate(-25.192 -261.006)" fill="#d1e16f"/>
          <g id="Grupo_970032" data-name="Grupo 970032" transform="translate(0 26.368)">
            <path id="Trazado_660631" data-name="Trazado 660631" d="M5.217,496.99H.97a.97.97,0,0,0,0,1.94H5.217a.97.97,0,0,0,0-1.94Z" transform="translate(0 -492.85)" fill="#d0edf5"/>
            <path id="Trazado_660632" data-name="Trazado 660632" d="M77.756,496.99H68.983a.97.97,0,0,0,0,1.94h8.773a.97.97,0,0,0,0-1.94Z" transform="translate(-59.22 -492.85)" fill="#d0edf5"/>
            <path id="Trazado_660633" data-name="Trazado 660633" d="M20.974,466.908H29.1a.97.97,0,0,0,0-1.94H20.974a.97.97,0,0,0,0,1.94Z" transform="translate(-17.418 -464.968)" fill="#d0edf5"/>
            <path id="Trazado_660634" data-name="Trazado 660634" d="M353.687,496.99h-8.127a.97.97,0,0,0,0,1.94h8.127a.97.97,0,0,0,0-1.94Z" transform="translate(-300.043 -492.85)" fill="#d0edf5"/>
            <path id="Trazado_660635" data-name="Trazado 660635" d="M417.009,464.967H405a.97.97,0,0,0,0,1.94h12.006a.97.97,0,0,0,0-1.94Z" transform="translate(-351.802 -464.967)" fill="#d0edf5"/>
          </g>
          <path id="Trazado_660636" data-name="Trazado 660636" d="M224.515,268.865c-.923,2.113-7.591,1.63-9.221,0-1.262-1.263-1.846-5.566-1.059-7.859h5.356C222.519,263.122,225.359,266.932,224.515,268.865Z" transform="translate(-186.228 -261.006)" fill="#d1e16f"/>
          <path id="Trazado_660637" data-name="Trazado 660637" d="M96.624,320.841a29.315,29.315,0,0,1-43.65-10.4c11.545,0,4.409-7.766,9.762-7.766,7.153,0,6.23,11.618,10.137,13.637,3.86,1.995,6.743-2.184,12.231-2.184,4.169,0,4.214,3.635,7.057,5.556A7.676,7.676,0,0,0,96.624,320.841Z" transform="translate(-46.126 -297.288)" fill="#d1e16f"/>
          <path id="Trazado_660638" data-name="Trazado 660638" d="M142.316,434.246a7.676,7.676,0,0,0,4.462,1.157,29.3,29.3,0,0,1-36.2-1.021,27.493,27.493,0,0,0,31.741-.136Z" transform="translate(-96.28 -411.85)" fill="#9ccc4b"/>
          <g id="Grupo_970033" data-name="Grupo 970033" transform="translate(47.138 6.311)">
            <path id="Trazado_660639" data-name="Trazado 660639" d="M383.665,317.64a2.481,2.481,0,0,1-2.48,2.481h-13.18a3.383,3.383,0,1,1,2.066-6.06,5.145,5.145,0,0,1,10.208.913c0,.121,0,.241-.012.36a2.482,2.482,0,0,1,3.4,2.306Z" transform="translate(-364.625 -309.826)" fill="#e6f8fc"/>
            <path id="Trazado_660640" data-name="Trazado 660640" d="M383.665,324.5a2.481,2.481,0,0,1-2.48,2.481h-13.18a3.382,3.382,0,0,1-3.38-3.383,2.135,2.135,0,0,0,2.075,1.765h7.333a5,5,0,0,0,4.176-7.658,5.144,5.144,0,0,1,2.071,4.129c0,.121,0,.241-.012.36a2.482,2.482,0,0,1,3.4,2.306Z" transform="translate(-364.625 -316.687)" fill="#d0edf5"/>
          </g>
        </g>
        <path id="Trazado_660641" data-name="Trazado 660641" d="M65.22,253.259H.97a.97.97,0,0,0,0,1.94H65.22a.97.97,0,0,0,0-1.94Z" transform="translate(0 -253.259)" fill="#3a4b56"/>
      </g>
    </g>
  </g>
</svg>
