<svg xmlns="http://www.w3.org/2000/svg" width="222.708" height="177.147" viewBox="0 0 222.708 177.147">
  <g id="Hero_Image" data-name="Hero Image" transform="translate(0 0)">
    <g id="Group" transform="translate(0 9.59)">
      <path id="Path" d="M27.807,6.532C4.029,5.684-16.776,23.7,19.971,29.6,52.789,34.874,66.924,48.73,97.1,48.18c58.018-1.058,36.33-17.576,55.394-20.1s16.871,2.5,34.858,3.549c26.762,1.557,62.225-17.245,3.572-27.558C131.65-6.352,27.807,6.532,27.807,6.532Z" transform="translate(0 119.361)" fill="#f0f3fc"/>
      <path id="Shape" d="M43.313,127.012C14.327,108.547-21.939,60.138,16.969,34.247,40.177,18.809,50.55,26.2,62.24,33.6c8.8,5.564,18.344,11.129,34.67,6.959,38-9.711,39.346-41.843,65.82-40.514,24.221,1.216-6.533,24.188-6.225,52.624.292,28.436,38.665,9.824,30.446,31.305-5.852,15.272-33.591,18.919-59.141,34.985-12.8,8.05-33.949,10.06-51.89,10.059A270.038,270.038,0,0,1,43.313,127.012Z" transform="translate(7.055 0)" fill="#f0f3fc"/>
    </g>
    <g id="Group-2" data-name="Group" transform="translate(11.244 0)">
      <path id="Path-2" data-name="Path" d="M38.262,21.516H6.254A6.263,6.263,0,0,1,0,15.259V1.018a1.018,1.018,0,0,1,2.037,0v14.24a4.223,4.223,0,0,0,4.217,4.22H38.262a1.019,1.019,0,0,1,0,2.037Z" transform="translate(105.138 122.827)" fill="#393768"/>
      <path id="Path-3" data-name="Path" d="M40.33,13.325H1.018a1.018,1.018,0,0,1,0-2.037H40.329A3.889,3.889,0,0,0,44.215,7.4V1.018a1.018,1.018,0,0,1,2.037,0V7.4A5.93,5.93,0,0,1,40.33,13.325Z" transform="translate(85.775 122.827)" fill="#393768"/>
      <g id="Group-3" data-name="Group" transform="translate(123.373 73.014)">
        <g id="Group-4" data-name="Group" transform="translate(0 0)">
          <path id="Path-4" data-name="Path" d="M15.272,0V46.8h-.016c0,1.119-3.372,2.043-7.62,2.043S.016,47.922.016,46.8H0V0Z" transform="translate(0 1.986)" fill="#cce9f1"/>
          <path id="Path-5" data-name="Path" d="M15.262,1.991c.1,1.139-3.319,2.083-7.63,2.083S-.094,3.13,0,1.991C.1.881,3.511,0,7.632,0S15.169.881,15.262,1.991Z" transform="translate(0.005)" fill="#a1cad3"/>
        </g>
        <path id="Path-6" data-name="Path" d="M15.272,0V46.317h-.016c0,1.119-3.372,2.043-7.62,2.043s-7.62-.924-7.62-2.043H0V44.372A12.522,12.522,0,0,0,9.144,42.6a3.237,3.237,0,0,0,1.1-.989,4.088,4.088,0,0,0,.486-1.864A236.636,236.636,0,0,0,12.4,14.169a48.808,48.808,0,0,1,.276-7.847C12.921,4.7,13.569.989,15.142.065A.97.97,0,0,1,15.272,0Z" transform="translate(0 2.472)" opacity="0.1"/>
      </g>
      <g id="Group-5" data-name="Group" transform="translate(98.52 73.022)">
        <g id="Group-6" data-name="Group" transform="translate(0 0)">
          <path id="Path-7" data-name="Path" d="M15.255,0V46.8c0,1.119-3.372,2.043-7.62,2.043-4.264,0-7.62-.924-7.62-2.043H0V0Z" transform="translate(0 1.978)" fill="#cce9f1"/>
          <path id="Path-8" data-name="Path" d="M15.255,1.978v.049c0,.762-1.54,1.427-3.842,1.783a26.41,26.41,0,0,1-3.777.259C3.388,4.069,0,3.161,0,2.026V1.978C.1.875,3.518,0,7.636,0a19.443,19.443,0,0,1,5.95.778C14.607,1.1,15.223,1.524,15.255,1.978Z" fill="#a1cad3"/>
        </g>
        <path id="Path-9" data-name="Path" d="M15.255,1.2V48c0,1.119-3.372,2.043-7.62,2.043-4.264,0-7.62-.924-7.62-2.043H0V42.977a3.348,3.348,0,0,1,1.718.243,7.1,7.1,0,0,0,6.1-1.346A10.943,10.943,0,0,0,11.4,36.606c1.1-3.161,1.1-6.6.973-9.938-.243-5.885-.892-11.737-1.346-17.622a14.683,14.683,0,0,1,.389-6.015,2.047,2.047,0,0,1,.1-.292,6.457,6.457,0,0,1,.908-1.54A6.288,6.288,0,0,1,13.586,0C14.607.324,15.223.745,15.255,1.2Z" transform="translate(0 0.778)" opacity="0.1"/>
      </g>
      <g id="Group-7" data-name="Group" transform="translate(141.244 112.984)">
        <path id="Path-10" data-name="Path" d="M45.685,3.664V31.014A4.218,4.218,0,0,1,44.4,33.235c-2.026,2.27-5.9,4.993-7.36,4.993l-.162-.016h-.016L12.888,35.164,11.526,35l-2.513-.324a3.706,3.706,0,0,1-3.1-1.7A3.724,3.724,0,0,1,5.366,31.4a3.138,3.138,0,0,1-.016-.389L0,6.128V6.1C.065,4.475,4.426,1.589,7.23.47A5.478,5.478,0,0,1,9.014,0H42.021A3.66,3.66,0,0,1,45.685,3.664Z" transform="translate(2.335 2.343)" fill="#a1cad3"/>
        <path id="Path-11" data-name="Path" d="M36.677,34.668H3.664A3.664,3.664,0,0,1,0,31V3.664A3.664,3.664,0,0,1,3.664,0H36.677a3.664,3.664,0,0,1,3.664,3.664V31A3.664,3.664,0,0,1,36.677,34.668Z" transform="translate(2.155 5.91)" fill="#e6e9f8"/>
        <path id="Path-12" data-name="Path" d="M.811,22.291a.811.811,0,1,1,0-1.621,2.738,2.738,0,0,0,2.736-2.736V4.357A2.738,2.738,0,0,0,.811,1.621.811.811,0,1,1,.811,0,4.363,4.363,0,0,1,5.168,4.357V17.934A4.363,4.363,0,0,1,.811,22.291Z" transform="translate(30.492 13.075)" fill="#adadea"/>
        <path id="Path-13" data-name="Path" d="M.81,22.291a.811.811,0,0,1,0-1.621,2.738,2.738,0,0,0,2.736-2.736V4.357A2.738,2.738,0,0,0,.81,1.621.811.811,0,0,1,.81,0,4.363,4.363,0,0,1,5.167,4.357V17.934A4.363,4.363,0,0,1,.81,22.291Z" transform="translate(22.599 13.075)" fill="#adadea"/>
        <path id="Path-14" data-name="Path" d="M.811,22.291a.811.811,0,1,1,0-1.621,2.738,2.738,0,0,0,2.736-2.736V4.357A2.738,2.738,0,0,0,.811,1.621.811.811,0,1,1,.811,0,4.363,4.363,0,0,1,5.168,4.357V17.934A4.363,4.363,0,0,1,.811,22.291Z" transform="translate(14.705 13.075)" fill="#adadea"/>
        <path id="Path-15" data-name="Path" d="M.811,22.291a.811.811,0,1,1,0-1.621,2.738,2.738,0,0,0,2.736-2.736V4.357A2.738,2.738,0,0,0,.811,1.621.811.811,0,1,1,.811,0,4.363,4.363,0,0,1,5.168,4.357V17.934A4.363,4.363,0,0,1,.811,22.291Z" transform="translate(6.809 13.075)" fill="#adadea"/>
        <path id="Path-16" data-name="Path" d="M15.385,1.735V3.956a1.74,1.74,0,0,1-1.735,1.751H1.735A1.74,1.74,0,0,1,0,3.956V1.735A1.737,1.737,0,0,1,1.735,0H13.651a2.208,2.208,0,0,1,.324.032A1.74,1.74,0,0,1,15.385,1.735Z" transform="translate(0 36.485)" fill="#a1cad3"/>
        <ellipse id="Oval" cx="1.064" cy="1.064" rx="1.064" ry="1.064" transform="translate(5.746 7.654)" fill="#8585c9"/>
        <ellipse id="Oval-2" data-name="Oval" cx="1.064" cy="1.064" rx="1.064" ry="1.064" transform="translate(8.937 7.654)" fill="#8585c9"/>
        <ellipse id="Oval-3" data-name="Oval" cx="1.064" cy="1.064" rx="1.064" ry="1.064" transform="translate(12.129 7.654)" fill="#8585c9"/>
        <path id="Path-17" data-name="Path" d="M10,1.281c0,.016,0,.016-.016.032a.573.573,0,0,1-.162.308L8.592,3.761c0,.519-1.605.94-3.6.94-1.978,0-3.6-.421-3.6-.94l-.259-.454L.178,1.621A.5.5,0,0,1,0,1.281C0,.567,2.237,0,4.993,0,7.766,0,10,.567,10,1.281Z" transform="translate(8.699 0)" fill="#cce9f1"/>
        <path id="Path-18" data-name="Path" d="M8.852.012A.573.573,0,0,1,8.69.32L7.458,2.46c0,.519-1.605.94-3.6.94-1.978,0-3.6-.421-3.6-.94L0,2.006H.065a6.306,6.306,0,0,1,.957.049c.308.032.632.1.94.13A13.047,13.047,0,0,0,5.139,2.3a4.264,4.264,0,0,0,1.119-.211A1.684,1.684,0,0,0,7.1,1.358c.114-.211.162-.454.276-.665A1.74,1.74,0,0,1,8.56.012.876.876,0,0,1,8.852.012Z" transform="translate(9.834 1.301)" opacity="0.1"/>
        <path id="Path-19" data-name="Path" d="M4.62,2.3A2.31,2.31,0,1,1,0,2.3a1.764,1.764,0,0,1,.049-.422A2.307,2.307,0,0,1,4.62,2.3Z" transform="translate(36.12 7.336)" fill="#a8cfef"/>
        <path id="Path-20" data-name="Path" d="M4.62,1.962a2.31,2.31,0,1,1-4.62,0A1.764,1.764,0,0,1,.049,1.54a.016.016,0,0,0,.016.016,3.656,3.656,0,0,0,2.48.584A1.655,1.655,0,0,0,3.7.567,1.083,1.083,0,0,0,3.5,0,2.31,2.31,0,0,1,4.62,1.962Z" transform="translate(36.12 7.676)" opacity="0.1"/>
        <path id="Path-21" data-name="Path" d="M15.385,1.7V3.923a1.74,1.74,0,0,1-1.735,1.751H1.735A1.74,1.74,0,0,1,0,3.923V3.567a31.9,31.9,0,0,0,10.084.6,4.868,4.868,0,0,0,3.437-1.378c.519-.665.227-2.172.454-2.788A1.74,1.74,0,0,1,15.385,1.7Z" transform="translate(0 36.518)" opacity="0.1"/>
      </g>
      <g id="Group-8" data-name="Group" transform="translate(178.604 118.994)">
        <path id="Shape-2" data-name="Shape" d="M10.66,20.962v3.4A4.22,4.22,0,0,1,9.38,26.587C9.655,24.9,10.158,22.859,10.66,20.962Zm-.487-8.8c.081-.162.114-.292.178-.438-.081-.016-.146-.016-.227-.032-.632-.065-1.232-.113-1.8-.162a4.269,4.269,0,0,1-.454-.032c-.308-.032-.616-.1-.891-.146-.114-.032-.227-.032-.34-.065a4.7,4.7,0,0,1-1.07-.405c-.13-.1-.276-.211-.422-.34.016,0,.032.016.049.016-.016-.016-.049-.032-.065-.049-.13-.113-.243-.194-.373-.324a.253.253,0,0,1-.308-.065l-.259-.357a.2.2,0,0,1-.016-.227c0-.016.016-.032.032-.049l.032-.032A49.568,49.568,0,0,1,1.014,4.539L.787,3.972a1.63,1.63,0,0,1-.454-.405A4.447,4.447,0,0,1,.09,2.74a.282.282,0,0,1-.016-.162c.081-.162-.227-.648.032-.875a1.056,1.056,0,0,1,.859-.324.875.875,0,0,1,.583.194c.227.357,0,.308.13.794a1,1,0,0,1,.292-.405.259.259,0,0,1,.243.211c-.016.178-.032.357-.049.519a5.922,5.922,0,0,1-.211.989l.065.211,3.113,3.1.648.649.065-.081V7.539A.248.248,0,0,1,6.1,7.49l.454.162a.228.228,0,0,1,.1.373l-.146.162.276.259,3.437-.859a.41.41,0,0,1,.114-.065.223.223,0,0,1-.032-.049c-.049-.13.113-.308.356-.5V17.946A45.065,45.065,0,0,1,10.173,12.159Zm.357-12A1.128,1.128,0,0,1,10.66,0V1.67C9.542,1.2,8.6-.13,10.53.162Z" transform="translate(0 2.979)" opacity="0.1"/>
        <g id="Group-9" data-name="Group" transform="translate(0.722 0)">
          <g id="Group-10" data-name="Group" transform="translate(0)">
            <g id="Group-11" data-name="Group" transform="translate(7.879 41.038)">
              <g id="Group-12" data-name="Group" transform="translate(0.001 0)">
                <path id="Path-22" data-name="Path" d="M2.638,0l.1.623c.175.088.186.168.277.363a1.334,1.334,0,0,1,.147.643L0,1.057,1.019.52,1.3.13Z" transform="translate(1.048)" fill="#edb6a4"/>
                <path id="Path-23" data-name="Path" d="M2.013,0C1.364.3.729.016.291.393a.644.644,0,0,0-.168.9,7.615,7.615,0,0,0,4.032.517C4.59,1.715,4.3.442,4.029.2L3.735.01c.158.184.3.347.012.538A2.137,2.137,0,0,1,2.035.4C2.021.245,2.155.136,2.013,0Z" transform="translate(0 0.53)" fill="#e6e9f8"/>
              </g>
              <path id="Path-24" data-name="Path" d="M.124.507a7.679,7.679,0,0,0,4.029.51c.241-.054.264-.477.181-.888A.918.918,0,0,1,4.211.2c-.054.031-.1.053-.148.076a3.464,3.464,0,0,1-.551.215A1.882,1.882,0,0,1,2.287.46,3.737,3.737,0,0,0,1.905.3,2.227,2.227,0,0,0,1.322.255,3.408,3.408,0,0,1,.505.115,2.328,2.328,0,0,0,.071,0C.055,0,.038,0,.021,0A.551.551,0,0,0,.124.507Z" transform="translate(0 1.323)" opacity="0.1"/>
            </g>
            <g id="Group-13" data-name="Group" transform="translate(16.916 41.189)">
              <g id="Group-14" data-name="Group" transform="translate(0.002 0)">
                <path id="Path-25" data-name="Path" d="M2.475,0l.182.6c.186.065.206.142.322.323a1.335,1.335,0,0,1,.231.618L0,1.4.939.729,1.17.306Z" transform="translate(0.986)" fill="#edb6a4"/>
                <path id="Path-26" data-name="Path" d="M1.873.219C1.271.605.6.4.218.836a.644.644,0,0,0-.047.918,7.615,7.615,0,0,0,4.065-.021C4.655,1.578,4.2.354,3.9.146L3.582,0c.181.162.34.3.083.531A2.137,2.137,0,0,1,1.948.61C1.914.46,2.032.335,1.873.219Z" transform="translate(0 0.528)" fill="#e6e9f8"/>
              </g>
              <path id="Path-27" data-name="Path" d="M.174.931A7.679,7.679,0,0,0,4.235.9C4.467.819,4.434.4,4.3,0a.92.92,0,0,1-.112.088c-.049.038-.093.066-.136.094a3.467,3.467,0,0,1-.518.286A1.883,1.883,0,0,1,2.312.6a3.732,3.732,0,0,0-.4-.108,2.226,2.226,0,0,0-.584.033A3.415,3.415,0,0,1,.5.492,2.345,2.345,0,0,0,.055.438c-.016,0-.034,0-.05,0A.55.55,0,0,0,.174.931Z" transform="translate(0 1.355)" opacity="0.1"/>
            </g>
            <path id="Path-28" data-name="Path" d="M6.847,21.812a4.9,4.9,0,0,1-2.625.619C2.976,19.6.01,12.421.078,10.922-.26,9.6.6,5.3.9,2.773L1.087,0,4.168.008c.992,3.2-.088,7.95-.506,10.081Z" transform="translate(14.084 19.3)" fill="#393768"/>
            <path id="Path-29" data-name="Path" d="M6.521.069C6.533,2.9,5.354,8.977,3.777,10.958l-.686,11.1c-.933-.051-1.908.039-2.454-.437C.6,17.8-.11,13.416.015,10.4.041,7.938,1.355,3.289,2.234,0Z" transform="translate(9.124 19.34)" fill="#393768"/>
            <path id="Path-30" data-name="Path" d="M8.312,13.638c-1.615,1.468-3.875.892-6.452.305v-.006c-.193-.04-.667-.272-.868-.327C.371,11.973.329,9.556.16,6.474l0-.017C.08,5.154.031,3.765,0,2.329A13.743,13.743,0,0,1,5.766,0C8.266,1.3,8.451,8.877,8.312,13.638Z" transform="translate(10.223 6.213)" fill="#cce9f1"/>
            <path id="Path-31" data-name="Path" d="M.344,2.769A2.842,2.842,0,0,0,2.46,2.033,9.855,9.855,0,0,1,1.413,0L0,.448A7.774,7.774,0,0,1,.344,2.769Z" transform="translate(12.009 4.521)" fill="#edb6a4"/>
            <path id="Path-32" data-name="Path" d="M0,.36C.033.524.066.688.09.843A.074.074,0,0,0,.131.852C.295.86.409.968.557.911S.814.744.97.8c.09.041.242-.007.308.067a1.653,1.653,0,0,0,.606.483,2.244,2.244,0,0,0,.369-.295A4.755,4.755,0,0,1,1.646,0a2.286,2.286,0,0,0-.237.025A9.177,9.177,0,0,0,.025.352C.017.352.008.36,0,.36Z" transform="translate(12.214 5.493)" opacity="0.1"/>
            <path id="Path-33" data-name="Path" d="M.3,4.661c.268.659,1.609.762,2.893.273.366-.141.811-1.066,1.319-1.945L3.267,0,.889.13A4.827,4.827,0,0,0,.3,4.661Z" transform="translate(10.849 1.015)" fill="#edb6a4"/>
            <path id="Path-34" data-name="Path" d="M0,1.483A2.487,2.487,0,0,0,.737,1.9c.581.221,1.228.213,1.818.4a2.366,2.366,0,0,0,.655.18,1.7,1.7,0,0,0,.86-.319A.519.519,0,0,0,4.258,2,.339.339,0,0,0,4.3,1.843L3.677.369a2.5,2.5,0,0,0-.3-.139A4.994,4.994,0,0,0,1.941,0,3.6,3.6,0,0,0,.352.271,4.254,4.254,0,0,0,0,1.483Z" transform="translate(10.887 1.726)" opacity="0.1"/>
            <path id="Path-35" data-name="Path" d="M.062,1.178C-.28,2.1.878,2.761,1.377,2.85a.692.692,0,0,1,.528.983l.159.111s.114-.693.355-.514.439.232.227.726-.28,1.275.519,1.4.888-.675,1.185-.908a.976.976,0,0,0,.261-1.2,1.471,1.471,0,0,1-.162-1.256C4.572,1.8,4.313.809,3.947.709A3.112,3.112,0,0,1,2.989.416C2.534.176,2.443-.172,1.737.1.933.4.083.361.062,1.178Z" transform="translate(10.879 0.398)" fill="#e6e9f8"/>
            <path id="Path-36" data-name="Path" d="M2.066,2.64l-1.061.534L.781,2.6a2.067,2.067,0,0,1-.452-.414c-.06-.3-.307-.684-.254-.983C.151,1.038-.15.554.1.329A1.042,1.042,0,0,1,.962,0a.989.989,0,0,1,.594.2c.226.359-.006.314.119.793a1.013,1.013,0,0,1,.294-.4A.259.259,0,0,1,2.212.8a6.019,6.019,0,0,1-.26,1.513Z" transform="translate(0 2.332)" fill="#edb6a4"/>
            <g id="Group-15" data-name="Group" transform="translate(1.005 4.838)">
              <path id="Path-37" data-name="Path" d="M0,.668A49.73,49.73,0,0,0,3.3,5.657c.008-.016.31-.123.106-.091L4.686,3.991l.16-.164L1,0A2.732,2.732,0,0,1,0,.668Z" transform="translate(0 0)" fill="#edb6a4"/>
              <path id="Path-38" data-name="Path" d="M0,1.982c.2.238.393.45.581.647a5.975,5.975,0,0,0,.819.7c1.327.762,3.177.622,5.11.876L6.052.041,2.6.9,2.342.647,1.679,0,1.67.008.033,1.933A.174.174,0,0,0,0,1.982Z" transform="translate(3.167 3.667)" fill="#cce9f1"/>
              <path id="Path-39" data-name="Path" d="M.048,2.291.3,2.635A.225.225,0,0,0,.6,2.7a.358.358,0,0,0,.057-.049L2.365.719,2.513.547a.23.23,0,0,0-.1-.369L1.947.014A.229.229,0,0,0,1.7.072L1.694.08.056,2a.172.172,0,0,0-.033.049A.229.229,0,0,0,.048,2.291Z" transform="translate(3.144 3.595)" fill="#6a6ae5"/>
            </g>
            <path id="Path-40" data-name="Path" d="M1.262,2.627c1.793.794,3.931,1.621,4.922,1.368S6.879.318,4.063.023a3.1,3.1,0,0,0-2.948,1.1C-.835.825.14,2.177,1.262,2.627Z" transform="translate(9.421 0)" fill="#6a6ae5"/>
            <path id="Path-41" data-name="Path" d="M0,0A3.656,3.656,0,0,0,.418.328c1.253.721,2.981.63,4.807.844V1.18c.172,3.087.213,5.5.835,7.141.2.057.671.287.868.328v.008a13.482,13.482,0,0,0,4.561.565,16.086,16.086,0,0,0-1.531-.532,9.486,9.486,0,0,1-2.293-.835A2.353,2.353,0,0,1,6.429,5.88,9.561,9.561,0,0,1,6.8,4.4a5.657,5.657,0,0,0-.024-1.662A4.017,4.017,0,0,1,6.83,1.081,1.508,1.508,0,0,1,7.976,0L5.438.418H5.421A2.212,2.212,0,0,1,5.192.45,12.156,12.156,0,0,1,3.309.663,7.231,7.231,0,0,1,.647.2,1.937,1.937,0,0,0,0,0Z" transform="translate(5.155 11.504)" opacity="0.1"/>
          </g>
          <g id="Group-16" data-name="Group" transform="translate(10.174 6.205)">
            <path id="Path-42" data-name="Path" d="M.128,2.228S1.468,3.984,0,6.914c0,0,.116,6.491,1.111,7.6,0,0,5.721,2.23,7.843-.183C9.2,13.506,8.871.015,5.68,0c-.7.012-1.3-.039-1.264.147S4.739.7,4.309.89,2.1,1.814,1.7,1.217C1.55,1.007-.018,1.865.128,2.228Z" transform="translate(0 0)" fill="#6a6ae5"/>
            <path id="Path-43" data-name="Path" d="M2.422,0,0,.529s.121.638.278.627S2.7.667,2.7.667Z" transform="translate(3.304 2.043)" fill="#e6e9f8"/>
          </g>
        </g>
      </g>
      <g id="Group-17" data-name="Group" transform="translate(81.777 61.745)">
        <path id="Path-44" data-name="Path" d="M18.9,8.447V12.6a1.019,1.019,0,1,1-2.037,0V8.447a6.423,6.423,0,1,0-12.846,0V33.107A2.846,2.846,0,0,1,5.7,35.715v4.4A2.846,2.846,0,0,1,4.02,42.722a2.813,2.813,0,0,1-1.168.245,2.87,2.87,0,0,1-.842-.136A2.836,2.836,0,0,1,0,40.114v-4.4A2.836,2.836,0,0,1,2.01,33V8.447a8.447,8.447,0,0,1,16.893,0Z" transform="translate(6.491 0)" fill="#393768"/>
        <path id="Path-45" data-name="Path" d="M10.511,0V9.125a8.456,8.456,0,0,1-8.447,8.447H1a1.019,1.019,0,0,1,0-2.037H2.064A6.427,6.427,0,0,0,8.5,9.125V.108a2.87,2.87,0,0,0,.842.136A2.813,2.813,0,0,0,10.511,0Z" transform="translate(0 42.722)" fill="#393768"/>
      </g>
      <path id="Path-46" data-name="Path" d="M25.974,13.344V6.822A6.83,6.83,0,0,0,19.152,0H6.822A6.83,6.83,0,0,0,0,6.822v3.216a1.018,1.018,0,1,0,2.037,0V6.822A4.79,4.79,0,0,1,6.822,2.037h12.33a4.79,4.79,0,0,1,4.785,4.785v6.522a2.841,2.841,0,0,0-1.837,2.65v4.391a2.841,2.841,0,0,0,1.837,2.65V48.121a1.018,1.018,0,1,0,2.037,0V23.034a2.841,2.841,0,0,0,1.837-2.65V15.994A2.84,2.84,0,0,0,25.974,13.344Z" transform="translate(129.99 65.014)" fill="#393768"/>
      <g id="Group-18" data-name="Group" transform="translate(0 0)">
        <path id="Path-47" data-name="Path" d="M95.518,107.605c0,6.885-21.38,12.474-47.759,12.474S0,114.49,0,107.605a3.983,3.983,0,0,1,.875-2.374l1.414-3.821L21.531,49.19a63.4,63.4,0,0,0,3.922-21.952V0H70.064V27.238a62.425,62.425,0,0,0,1.768,14.8,62.463,62.463,0,0,0,2.155,7.155l20.656,56.042A3.979,3.979,0,0,1,95.518,107.605Z" transform="translate(0 41.089)" fill="#cce9f1"/>
        <ellipse id="Oval-4" data-name="Oval" cx="22.305" cy="5.822" rx="22.305" ry="5.822" transform="translate(25.454 35.272)" fill="#a1cad3"/>
        <path id="Path-48" data-name="Path" d="M23.147,7.505C11.644,7.505,0,5.216,0,.842a.842.842,0,0,1,1.683,0c0,2.08,8.166,4.981,21.464,4.981S44.611,2.921,44.611.842a.842.842,0,1,1,1.683,0C46.294,5.216,34.65,7.505,23.147,7.505Z" transform="translate(24.612 52.394)" fill="#a1cad3"/>
        <path id="Path-49" data-name="Path" d="M23.147,7.505C11.644,7.505,0,5.216,0,.842a.842.842,0,0,1,1.683,0c0,2.08,8.166,4.981,21.464,4.981S44.611,2.921,44.611.842a.842.842,0,1,1,1.683,0C46.294,5.216,34.65,7.505,23.147,7.505Z" transform="translate(24.612 69.226)" fill="#a1cad3"/>
        <path id="Path-50" data-name="Path" d="M26.715,7.505C13.439,7.505,0,5.216,0,.842a.842.842,0,0,1,1.683,0c0,2.03,9.751,4.981,25.031,4.981S51.746,2.872,51.746.842a.842.842,0,1,1,1.683,0C53.429,5.216,39.99,7.505,26.715,7.505Z" transform="translate(21.045 86.058)" fill="#a1cad3"/>
        <path id="Path-51" data-name="Path" d="M95.518,65.57c0,6.885-21.38,12.474-47.759,12.474S0,72.455,0,65.57A3.983,3.983,0,0,1,.875,63.2l1.414-3.821c7.778,2.1,15.05,5.909,22.895,7.811,11.329,2.761,23.3,1.431,34.645-1.347A43.026,43.026,0,0,0,72.085,61.26,18.491,18.491,0,0,0,80.4,51.446c1.886-5.926-.269-12.289-2.138-18.215A198.487,198.487,0,0,1,72.354,9.512c-.387-2.1-2.407-7.66-.522-9.512a62.463,62.463,0,0,0,2.155,7.155L94.642,63.2A3.98,3.98,0,0,1,95.518,65.57Z" transform="translate(0 83.124)" opacity="0.1"/>
        <path id="Path-52" data-name="Path" d="M93.8,6.431c-.729.875-2.043.859-3.177.859a23.019,23.019,0,0,0-16.844,7.587c-2.967,3.307-5.026,7.539-8.738,9.987-5.09,3.34-11.737,2.4-17.8,1.9-6.063-.519-13.164.032-16.682,4.993C26.128,38,24.815,43.492,15.769,43.832c-2.918.114-6.112-1.329-7.1-4.085-.713-1.994-.162-4.247-.713-6.306C6.868,29.355,1.924,27.377.448,23.422-.881,19.887.967,15.98,3.091,12.868c.681-.989,1.394-1.962,2.156-2.9,3.194-3.956,7.15-7.312,11.932-8.9C23.42-.993,30.278.222,36.536,2.249,42.794,4.259,48.825,7.08,55.277,8.3A39.172,39.172,0,0,0,78.995,5.248C83.08,3.319,87.587.611,91.8,2.265a4.042,4.042,0,0,1,1.735,1.345A2.191,2.191,0,0,1,93.8,6.431Z" transform="translate(32.128 0)" fill="#f0f3fc"/>
        <path id="Path-53" data-name="Path" d="M93.8,2.821c-.729.875-2.043.859-3.177.859a23.019,23.019,0,0,0-16.844,7.587c-2.967,3.307-5.026,7.539-8.738,9.987-5.09,3.34-11.737,2.4-17.8,1.9-6.063-.519-13.164.032-16.682,4.993-4.426,6.241-5.739,11.737-14.785,12.078-2.918.114-6.112-1.329-7.1-4.085-.713-1.994-.162-4.247-.713-6.306C6.868,25.744,1.924,23.766.448,19.811-.881,16.277.967,12.37,3.091,9.257c.681-.989,1.394-1.962,2.156-2.9,1.573,2.286.811,5.658.892,8.56A11.311,11.311,0,0,0,12.526,24.9c3.81,1.686,8.819.47,11.073-3.032,1.7-2.626,1.881-6.225,4.248-8.268,1.946-1.686,4.847-1.767,7.328-1.1s4.734,1.962,7.182,2.788c6,2.026,12.645,1.07,18.579-1.167S72.251,8.463,77.779,5.382C82.108,2.983,86.744.73,91.722.114A14.355,14.355,0,0,1,93.537,0,2.19,2.19,0,0,1,93.8,2.821Z" transform="translate(32.128 3.611)" opacity="0.05"/>
        <g id="Group-19" data-name="Group" transform="translate(31.44 109.147)">
          <path id="Path-54" data-name="Path" d="M0,16.319a16.322,16.322,0,0,0,32.56,1.656c.048-.541.08-1.1.08-1.656A16.32,16.32,0,0,0,0,16.319Z" transform="translate(0 0)" fill="#6f6fc9"/>
          <path id="Path-55" data-name="Path" d="M5.509,9.343l5.509-7.669A9.9,9.9,0,0,0,0,1.674Z" transform="translate(10.811 3.633)" fill="#adadea"/>
          <path id="Path-56" data-name="Path" d="M0,.936,3.887,9.542A9.9,9.9,0,0,0,9.4,0Z" transform="translate(18.986 16.657)" fill="#adadea"/>
          <path id="Path-57" data-name="Path" d="M9.4.936,0,0A9.9,9.9,0,0,0,5.512,9.542Z" transform="translate(4.254 16.657)" fill="#adadea"/>
          <path id="Path-58" data-name="Path" d="M0,10.731a16.322,16.322,0,0,0,32.56,1.656c-1.178-.828-2.882-.525-4.283-.032a25.64,25.64,0,0,0-4.012,1.735,13.628,13.628,0,0,1-3.407,1.529,11.5,11.5,0,0,1-2.34.159c-1.194-.016-2.388-.08-3.582-.159-2.675-.191-5.557-.669-7.388-2.627A10.9,10.9,0,0,1,5.636,9.68,22.753,22.753,0,0,1,3.758,3.359C3.71,2.8,4.013,1.258,4.029,0A16.286,16.286,0,0,0,0,10.731Z" transform="translate(0 5.589)" opacity="0.1"/>
        </g>
      </g>
      <g id="Group-20" data-name="Group" transform="translate(86.139 111.692)">
        <path id="Path-59" data-name="Path" d="M4.481,6.888a1.331,1.331,0,0,0-.326.027H4.019c-.489.027-.869.054-.815.217V7.16c-.109.027-.217.109-.326.136l.082-.081a3.126,3.126,0,0,1-.489-.625c.842,0,.869-.842,1.168-1.113a1.065,1.065,0,0,0,.136-1.358,3.138,3.138,0,0,0-.136-.3h.054c.326-.081.489-.543.489-1.114A2.791,2.791,0,0,0,1.548.017,3.474,3.474,0,0,0,0,.207V7.051a1.593,1.593,0,0,0,.516.054,5.067,5.067,0,0,1,.19,1.086,13.765,13.765,0,0,0,6.084,1.2C6.165,7.866,5.4,6.834,4.481,6.888Z" transform="translate(12.368 2.752)" opacity="0.1"/>
        <g id="Group-21" data-name="Group" transform="translate(0 0)">
          <g id="Group-22" data-name="Group" transform="translate(0.29)">
            <path id="Path-60" data-name="Path" d="M.573,4.333h3.76V.573a.573.573,0,0,1,1.147,0v3.76H9.24a.573.573,0,1,1,0,1.147H5.48V9.24a.573.573,0,0,1-1.147,0V5.48H.573a.573.573,0,1,1,0-1.147Z" transform="translate(0 0)" fill="#8c8cd3"/>
            <ellipse id="Oval-5" data-name="Oval" cx="1.975" cy="1.975" rx="1.975" ry="1.975" transform="translate(2.932 2.932)" fill="#b1b1f2"/>
            <path id="Shape-3" data-name="Shape" d="M0,4.906A4.907,4.907,0,1,1,4.907,9.813,4.912,4.912,0,0,1,0,4.906Z" transform="translate(0)" fill="#adadea"/>
          </g>
          <g id="Group-23" data-name="Group" transform="translate(0 1.042)">
            <g id="Group-24" data-name="Group" transform="translate(8.016 21.095)">
              <path id="Path-61" data-name="Path" d="M2.71,0l.22.666c.208.066.233.152.368.349a1.482,1.482,0,0,1,.274.679L0,1.624,1.024.855,1.269.378Z" transform="translate(7.661 20.486)" fill="#edb6a4"/>
              <path id="Path-62" data-name="Path" d="M2.049.293C1.39.74.642.537.228,1.028A.716.716,0,0,0,.2,2.049a8.463,8.463,0,0,0,4.517-.142C5.179,1.722,4.633.376,4.3.153L3.941,0c.206.175.386.329.107.588A2.375,2.375,0,0,1,2.143.726C2.1.56,2.229.417,2.049.293Z" transform="translate(6.579 21.069)" fill="#393768"/>
              <path id="Path-63" data-name="Path" d="M5.549,20.364a4.843,4.843,0,0,1-2.8.585C1.905,17.458-.008,11.363,0,9.937l.88-6.89L1.387,0,4.795.338c.756,3.646-.259,6.981-.948,9.294Z" transform="translate(5.466 0)" fill="#393768"/>
              <path id="Path-64" data-name="Path" d="M.68,7.719a7.42,7.42,0,0,0-.228,3.336c.02.159.047.312.074.471-.224-.9-.4-1.665-.48-2.2-.011-.073-.016-.14-.022-.2A1.851,1.851,0,0,1,0,8.8L.882,1.913,1.2,0c.083.014.122.1.09.3C1.076,1.836,2.093,3.6,1.526,5.2,1.158,6.232,1.041,6.684.68,7.719Z" transform="translate(5.465 1.134)" opacity="0.1"/>
              <path id="Path-65" data-name="Path" d="M3.019,0l.054.7c.186.114.19.2.274.427a1.481,1.481,0,0,1,.1.725L0,.93l1.178-.5L1.529.023Z" transform="translate(1.202 20.467)" fill="#edb6a4"/>
              <path id="Path-66" data-name="Path" d="M6.813,0C6.947,3.141,4.95,7.279,3.767,10.415L3.552,20.524a4.2,4.2,0,0,1-2.577-.69L0,10.035A44.375,44.375,0,0,1,1.655.121Z" transform="translate(1.127 0.34)" fill="#393768"/>
              <path id="Path-67" data-name="Path" d="M2.319,0C1.573.277.9-.1.376.279a.716.716,0,0,0-.269.986,8.464,8.464,0,0,0,4.42.94c.491-.07.282-1.508.008-1.8L4.227.168c.159.219.3.411-.036.6A2.375,2.375,0,0,1,2.308.443C2.306.272,2.464.164,2.319,0Z" transform="translate(0 20.902)" fill="#393768"/>
            </g>
            <path id="Path-68" data-name="Path" d="M10.456,14.573c-1.623,1.8-4.186,1.419-7.1,1.058v-.006c-.218-.022-.768-.226-1-.265-.869-1.742-1.186-4.41-1.717-7.8l0-.018C.4,6.109.2,4.577,0,2.993A14.74,14.74,0,0,1,5.006.123,2.046,2.046,0,0,1,7.254.679C9.313,3.254,10.132,10.046,10.456,14.573Z" transform="translate(8.215 6.899)" fill="#b1dbe5"/>
            <path id="Path-69" data-name="Path" d="M.639,3.182A3.159,3.159,0,0,0,2.9,2.131,10.958,10.958,0,0,1,1.513,0L0,.653A8.63,8.63,0,0,1,.639,3.182Z" transform="translate(9.791 5.088)" fill="#ed9b80"/>
            <path id="Path-70" data-name="Path" d="M.567,5.487c.37.7,1.864.663,3.23-.021.389-.2.778-1.269,1.241-2.3L3.326,0,.709.409A5.365,5.365,0,0,0,.567,5.487Z" transform="translate(8.354 1.132)" fill="#edb6a4"/>
            <path id="Path-71" data-name="Path" d="M.036,1.542C-.239,2.6,1.116,3.2,1.677,3.245a.769.769,0,0,1,.694,1.028l.188.105s.049-.78.335-.608.512.208.332.778-.167,1.441.73,1.485S4.863,5.187,5.165,4.9a1.086,1.086,0,0,0,.155-1.358A1.636,1.636,0,0,1,5,2.167C5.093,1.725,4.7.66,4.281.59A3.463,3.463,0,0,1,3.188.373c-.53-.215-.67-.589-1.42-.212C.914.59-.031.637.036,1.542Z" transform="translate(8.195 0.565)" fill="#393768"/>
            <path id="Path-72" data-name="Path" d="M2.245,2.476.917,2.867l-.1-.354C.605,2.369.339,2.349.234,2.2c-.227-.166-.269-.254-.209-.591C.171.695.9-.1,1.509.011c.294.164.034.132.2.656A1.128,1.128,0,0,1,2.013.2a.288.288,0,0,1,.282.222,6.689,6.689,0,0,1-.2,1.7Z" transform="translate(0 0.95)" fill="#edb6a4"/>
            <path id="Path-73" data-name="Path" d="M8.947,6.312,5,6.135,1.549,0A4.356,4.356,0,0,1,0,.472C.8,3.463,1.737,6.863,2.949,8.34,4.115,9.572,6.133,10.008,8.115,10.9Z" transform="translate(0.724 3.314)" fill="#b1dbe5"/>
            <path id="Path-74" data-name="Path" d="M0,.024C1.2,1.1,3.038,1.493,4.9,2.349l.035,0a.445.445,0,0,0,.014.214l0,.035c.514,3.375.849,6.061,1.705,7.773.242.059.788.255,1,.276.49.049,1.012.136,1.468.181a.212.212,0,0,0-.021-.143,1.82,1.82,0,0,0-.568-.693A7.278,7.278,0,0,1,7.369,8.111,9.519,9.519,0,0,1,6.033,2.674a2.56,2.56,0,0,1,.346-.991,1.256,1.256,0,0,1,.8-.592,4.114,4.114,0,0,1-1.621.3,2.01,2.01,0,0,1-.452-.08,1.438,1.438,0,0,1-.382-.073,1.441,1.441,0,0,1-.382-.073c-.623-.133-1.278-.3-1.9-.436C1.959.607,1.51.492,1.031.339.788.279.189-.1,0,.024Z" transform="translate(3.917 11.867)" opacity="0.1"/>
            <path id="Path-75" data-name="Path" d="M1.25,2.6c1.755.727,3.843,1.478,4.8,1.21S6.635.233,3.9.013A3.007,3.007,0,0,0,1.072,1.144C-.822.9.153,2.189,1.25,2.6Z" transform="translate(7.377 0)" fill="#6a6ae5"/>
            <path id="Path-76" data-name="Path" d="M.315,2.241A7.124,7.124,0,0,1,0,7.579s.6,6.71,1.712,7.783c0,0,6.086,1.885,8.1-.769C10.013,13.722,8.672-.218,5.368,0c-.722.064-1.352.055-1.3.246s.375.549-.056.777S1.8,2.145,1.337,1.557C1.168,1.35.137,1.876.315,2.241Z" transform="translate(8.854 6.879)" fill="#6a6ae5"/>
            <path id="Path-77" data-name="Path" d="M2.468,0,0,.727s.172.651.334.628S2.808.67,2.808.67Z" transform="translate(11.953 8.993)" fill="#e6e9f8"/>
          </g>
        </g>
      </g>
    </g>
  </g>
</svg>
