<svg xmlns="http://www.w3.org/2000/svg" xmlns:xlink="http://www.w3.org/1999/xlink" width="278.145" height="212.705" viewBox="0 0 278.145 212.705">
  <defs>
    <clipPath id="clip-path">
      <rect id="Rectángulo_47342" data-name="Rectángulo 47342" width="278.145" height="212.705" fill="none"/>
    </clipPath>
  </defs>
  <g id="Grupo_877761" data-name="Grupo 877761" transform="translate(0 0)">
    <g id="Grupo_877760" data-name="Grupo 877760" transform="translate(0 0)" clip-path="url(#clip-path)">
      <path id="Trazado_270200" data-name="Trazado 270200" d="M176.056,90.583,104.175,18.7a6.031,6.031,0,0,0-8.536,0L23.758,90.583Z" transform="translate(88.601 63.148)" fill="#66a646"/>
      <path id="Trazado_270201" data-name="Trazado 270201" d="M199.393,106.356l-91.4-91.4a7.673,7.673,0,0,0-10.854,0l-91.408,91.4Z" transform="translate(21.361 47.376)" fill="#3f8a49"/>
      <path id="Trazado_270202" data-name="Trazado 270202" d="M123.149,79.044,65.357,21.252a4.855,4.855,0,0,0-6.867,0L.7,79.044Z" transform="translate(2.603 73.95)" fill="#266b32"/>
      <path id="Trazado_270203" data-name="Trazado 270203" d="M126.545,65.014l-40.54-40.54a3.405,3.405,0,0,0-4.814,0l-40.54,40.54Z" transform="translate(151.6 87.555)" fill="#277c33"/>
      <rect id="Rectángulo_47324" data-name="Rectángulo 47324" width="3.391" height="26.81" transform="translate(72.231 126.225)" fill="#bc7637"/>
      <path id="Trazado_270204" data-name="Trazado 270204" d="M39.936,43.309A7.372,7.372,0,0,0,36.9,37.36a6.613,6.613,0,0,0-5.325-10.386,4.614,4.614,0,0,0-8.839-1.546l-.076-.009a5.248,5.248,0,0,0-5.245,5.245,5.146,5.146,0,0,0,.35,1.835A9.666,9.666,0,0,0,14.293,43.64a6.145,6.145,0,0,0,7.993,9.17,7.365,7.365,0,0,0,13.535-2.9,7.383,7.383,0,0,0,4.115-6.6" transform="translate(47.713 84.459)" fill="#66a646"/>
      <path id="Trazado_270205" data-name="Trazado 270205" d="M35.744,33.837a6.6,6.6,0,0,0-4.133-10.244,17.655,17.655,0,0,1-8.168,8.957A12.029,12.029,0,0,1,13.1,48.053a6.092,6.092,0,0,0,8.021,1.234,7.365,7.365,0,0,0,13.535-2.9,7.35,7.35,0,0,0,1.083-12.547" transform="translate(48.873 87.987)" fill="#277c33"/>
      <rect id="Rectángulo_47325" data-name="Rectángulo 47325" width="2.79" height="22.034" transform="translate(28.825 131.002)" fill="#bc7637"/>
      <path id="Trazado_270206" data-name="Trazado 270206" d="M26.367,41.36a6.075,6.075,0,0,0-2.5-4.89,5.438,5.438,0,0,0-4.37-8.536,3.792,3.792,0,0,0-7.264-1.272l-.071,0a4.308,4.308,0,0,0-4.3,4.308,4.116,4.116,0,0,0,.288,1.509A7.948,7.948,0,0,0,5.289,41.63a5.046,5.046,0,0,0,3.84,8.347,4.97,4.97,0,0,0,2.724-.809,6.059,6.059,0,0,0,11.133-2.384,6.067,6.067,0,0,0,3.381-5.425" transform="translate(15.137 90.91)" fill="#66a646"/>
      <path id="Trazado_270207" data-name="Trazado 270207" d="M22.923,33.576a5.432,5.432,0,0,0-3.4-8.423,14.477,14.477,0,0,1-6.716,7.364,9.891,9.891,0,0,1-8.5,12.745,5.009,5.009,0,0,0,6.593,1.012,6.056,6.056,0,0,0,11.128-2.384,6.043,6.043,0,0,0,.889-10.315" transform="translate(16.085 93.804)" fill="#277c33"/>
      <rect id="Rectángulo_47326" data-name="Rectángulo 47326" width="3.391" height="26.81" transform="translate(48.811 126.225)" fill="#bc7637"/>
      <path id="Trazado_270208" data-name="Trazado 270208" d="M34.984,43.309a7.376,7.376,0,0,0-3.036-5.949,6.613,6.613,0,0,0-5.325-10.386,4.614,4.614,0,0,0-8.839-1.546l-.076-.009a5.2,5.2,0,0,0-4.895,7.08,9.706,9.706,0,0,0-4.048,7.879,9.566,9.566,0,0,0,.577,3.263,6.086,6.086,0,0,0-1.5,3.987,6.164,6.164,0,0,0,6.162,6.167,6.1,6.1,0,0,0,3.325-.984,7.365,7.365,0,0,0,13.535-2.9,7.387,7.387,0,0,0,4.119-6.6" transform="translate(29.249 84.459)" fill="#66a646"/>
      <path id="Trazado_270209" data-name="Trazado 270209" d="M30.792,33.837a6.6,6.6,0,0,0-4.133-10.244,17.655,17.655,0,0,1-8.168,8.957,12.029,12.029,0,0,1-10.338,15.5,6.092,6.092,0,0,0,8.021,1.234,7.365,7.365,0,0,0,13.535-2.9,7.35,7.35,0,0,0,1.083-12.547" transform="translate(30.405 87.987)" fill="#277c33"/>
      <rect id="Rectángulo_47327" data-name="Rectángulo 47327" width="3.812" height="30.112" transform="translate(242.859 122.924)" fill="#bc7637"/>
      <path id="Trazado_270210" data-name="Trazado 270210" d="M79.054,44.661a8.294,8.294,0,0,0-3.405-6.683,7.428,7.428,0,0,0-5.983-11.667,5.181,5.181,0,0,0-9.927-1.736l-.085-.009a5.894,5.894,0,0,0-5.893,5.893,5.829,5.829,0,0,0,.393,2.057A10.85,10.85,0,0,0,50.248,45.03a6.9,6.9,0,0,0,8.976,10.305,8.277,8.277,0,0,0,15.209-3.258,8.293,8.293,0,0,0,4.621-7.416" transform="translate(181.129 79.995)" fill="#66a646"/>
      <path id="Trazado_270211" data-name="Trazado 270211" d="M74.351,34.018a7.413,7.413,0,0,0-4.639-11.506,19.827,19.827,0,0,1-9.18,10.059A13.512,13.512,0,0,1,48.917,49.989a6.859,6.859,0,0,0,9.014,1.386,8.276,8.276,0,0,0,15.2-3.263,8.256,8.256,0,0,0,1.215-14.093" transform="translate(182.427 83.955)" fill="#3f8a49"/>
      <rect id="Rectángulo_47328" data-name="Rectángulo 47328" width="2.79" height="22.034" transform="translate(264.359 131.002)" fill="#bc7637"/>
      <path id="Trazado_270212" data-name="Trazado 270212" d="M76.169,41.36a6.071,6.071,0,0,0-2.492-4.89A5.438,5.438,0,0,0,69.3,27.933a3.792,3.792,0,0,0-7.264-1.272l-.066,0a4.284,4.284,0,0,0-4.025,5.817,7.953,7.953,0,0,0-2.856,9.156,5.051,5.051,0,0,0,6.569,7.539,6.056,6.056,0,0,0,11.128-2.384,6.067,6.067,0,0,0,3.381-5.425" transform="translate(200.864 90.91)" fill="#66a646"/>
      <path id="Trazado_270213" data-name="Trazado 270213" d="M72.726,33.576a5.432,5.432,0,0,0-3.4-8.423,14.477,14.477,0,0,1-6.716,7.364,9.891,9.891,0,0,1-8.5,12.745,5.009,5.009,0,0,0,6.593,1.012,6.056,6.056,0,0,0,11.128-2.384,6.043,6.043,0,0,0,.889-10.315" transform="translate(201.815 93.804)" fill="#3f8a49"/>
      <path id="Trazado_270214" data-name="Trazado 270214" d="M.468,32.26c0,16.7.052,51,.052,56.9C118.554,65.814,134.813,112.218,276.4,81.478V32.26Z" transform="translate(1.745 120.308)" fill="#7f4c2f"/>
      <path id="Trazado_270215" data-name="Trazado 270215" d="M276.4,54.284V32.26H.469c0,8.428.052,16.406.052,21.731,0,0,16.311-4.271,20.629-4.271,5.335,0,16,2.743,21.339,2.743,5.912,0,17.744-2.743,23.661-2.743,6.593,0,19.783,2.743,26.375,2.743,6.791,0,20.364-2.743,27.156-2.743,7.174,0,21.528,2.743,28.7,2.743,7.373,0,22.114-2.743,29.482-2.743,6.98,0,20.946,2.743,27.927,2.743,7.08,0,21.239-2.743,28.319-2.743,5.041,0,15.124,2.743,20.166,2.743,4.682,0,22.119,1.821,22.119,1.821" transform="translate(1.749 120.308)" fill="#66a646"/>
      <path id="Trazado_270216" data-name="Trazado 270216" d="M34.179,76.18H50.344c-1.655-14.94-3.864-34.07-4.029-45.86-.142-10.154.213-16.855.213-16.855H38.033s.359,6.1.213,16.855c-.156,11.085-2.407,30.6-4.067,45.86" transform="translate(127.464 50.216)" fill="#cacccb"/>
      <path id="Trazado_270217" data-name="Trazado 270217" d="M35.146,76.18h9C43.139,61.24,41.8,42.11,41.639,30.32c-.137-10.154.024-16.855.024-16.855H36.934s.236,6.1.213,16.855c-.024,11.085-1.168,30.6-2,45.86" transform="translate(131.07 50.216)" fill="#bfbfbf"/>
      <path id="Trazado_270218" data-name="Trazado 270218" d="M35.855,76.18H39.52C39,61.24,38.314,42.11,38.163,30.32c-.128-10.154-.113-16.855-.113-16.855H36.125s.142,6.1.213,16.855c.071,11.085-.251,30.6-.482,45.86" transform="translate(133.714 50.216)" fill="#a0a0a0"/>
      <rect id="Rectángulo_47329" data-name="Rectángulo 47329" width="9.463" height="1.405" transform="translate(164.991 63.529)" fill="#828282"/>
      <rect id="Rectángulo_47330" data-name="Rectángulo 47330" width="8.395" height="1.405" transform="translate(165.526 77.116)" fill="#828282"/>
      <rect id="Rectángulo_47331" data-name="Rectángulo 47331" width="10.532" height="1.405" transform="translate(164.457 95.158)" fill="#828282"/>
      <path id="Trazado_270219" data-name="Trazado 270219" d="M30.079,76.18H46.244c-1.655-14.94-3.864-34.07-4.029-45.86-.142-10.154.213-16.855.213-16.855H33.933s.359,6.1.213,16.855c-.156,11.085-2.407,30.6-4.067,45.86" transform="translate(112.174 50.216)" fill="#cacccb"/>
      <path id="Trazado_270220" data-name="Trazado 270220" d="M31.046,76.18h9C39.043,61.24,37.7,42.11,37.544,30.32c-.137-10.154.024-16.855.024-16.855H32.838s.236,6.1.213,16.855c-.024,11.085-1.168,30.6-2.005,45.86" transform="translate(115.78 50.216)" fill="#bfbfbf"/>
      <path id="Trazado_270221" data-name="Trazado 270221" d="M31.756,76.18h3.665c-.52-14.94-1.206-34.07-1.357-45.86-.128-10.154-.113-16.855-.113-16.855H32.026s.142,6.1.213,16.855c.071,11.085-.251,30.6-.482,45.86" transform="translate(118.428 50.216)" fill="#a0a0a0"/>
      <rect id="Rectángulo_47332" data-name="Rectángulo 47332" width="9.463" height="1.405" transform="translate(145.606 63.529)" fill="#828282"/>
      <rect id="Rectángulo_47333" data-name="Rectángulo 47333" width="8.395" height="1.405" transform="translate(146.14 77.116)" fill="#828282"/>
      <rect id="Rectángulo_47334" data-name="Rectángulo 47334" width="10.532" height="1.405" transform="translate(145.072 95.158)" fill="#828282"/>
      <path id="Trazado_270222" data-name="Trazado 270222" d="M25.911,76.18H42.076c-1.655-14.94-3.864-34.07-4.029-45.86-.142-10.154.213-16.855.213-16.855H29.765s.359,6.1.213,16.855c-.156,11.085-2.407,30.6-4.067,45.86" transform="translate(96.63 50.216)" fill="#cacccb"/>
      <path id="Trazado_270223" data-name="Trazado 270223" d="M26.878,76.18h9c-1.007-14.94-2.346-34.07-2.507-45.86-.132-10.154.024-16.855.024-16.855H28.67s.236,6.1.213,16.855c-.024,11.085-1.168,30.6-2.005,45.86" transform="translate(100.236 50.216)" fill="#bfbfbf"/>
      <path id="Trazado_270224" data-name="Trazado 270224" d="M27.588,76.18h3.665c-.52-14.94-1.206-34.07-1.357-45.86-.128-10.154-.114-16.855-.114-16.855H27.858s.142,6.1.213,16.855c.071,11.085-.251,30.6-.482,45.86" transform="translate(102.884 50.216)" fill="#a0a0a0"/>
      <rect id="Rectángulo_47335" data-name="Rectángulo 47335" width="9.463" height="1.405" transform="translate(125.894 63.529)" fill="#828282"/>
      <rect id="Rectángulo_47336" data-name="Rectángulo 47336" width="8.395" height="1.405" transform="translate(126.424 77.116)" fill="#828282"/>
      <rect id="Rectángulo_47337" data-name="Rectángulo 47337" width="10.532" height="1.405" transform="translate(125.36 95.158)" fill="#828282"/>
      <path id="Trazado_270225" data-name="Trazado 270225" d="M21.812,76.18H37.977c-1.655-14.94-3.864-34.07-4.029-45.86-.142-10.154.213-16.855.213-16.855H25.666s.359,6.1.213,16.855c-.156,11.085-2.407,30.6-4.067,45.86" transform="translate(81.344 50.216)" fill="#cacccb"/>
      <path id="Trazado_270226" data-name="Trazado 270226" d="M22.778,76.18h9c-1.007-14.94-2.346-34.07-2.507-45.86-.132-10.154.024-16.855.024-16.855H24.57s.236,6.1.213,16.855c-.024,11.085-1.168,30.6-2.005,45.86" transform="translate(84.946 50.216)" fill="#bfbfbf"/>
      <path id="Trazado_270227" data-name="Trazado 270227" d="M23.488,76.18h3.665c-.52-14.94-1.206-34.07-1.357-45.86-.128-10.154-.114-16.855-.114-16.855H23.758s.142,6.1.213,16.855c.071,11.085-.251,30.6-.482,45.86" transform="translate(87.594 50.216)" fill="#a0a0a0"/>
      <rect id="Rectángulo_47338" data-name="Rectángulo 47338" width="9.463" height="1.405" transform="translate(106.504 63.529)" fill="#828282"/>
      <rect id="Rectángulo_47339" data-name="Rectángulo 47339" width="8.395" height="1.405" transform="translate(107.038 77.116)" fill="#828282"/>
      <rect id="Rectángulo_47340" data-name="Rectángulo 47340" width="10.532" height="1.405" transform="translate(105.97 95.158)" fill="#828282"/>
      <rect id="Rectángulo_47341" data-name="Rectángulo 47341" width="80.644" height="30.991" transform="translate(100.65 121.575)" fill="#a0a0a0"/>
      <path id="Trazado_270228" data-name="Trazado 270228" d="M45.2,23.189a4.126,4.126,0,0,1-3.831,5.689H37.9c0,.052.028.09.028.142A2.482,2.482,0,0,1,35.441,31.5H34.381a3.286,3.286,0,0,1,.095.487,3.1,3.1,0,0,1-3.1,3.1H26a3.1,3.1,0,0,1,0-6.21h2.029v-.009a4.106,4.106,0,0,1-3.618-5.9,3.3,3.3,0,0,1,.832-6.5h.686a3.451,3.451,0,0,1,3.448-3.448H30.1a3.755,3.755,0,0,1-.586-2A3.8,3.8,0,0,1,33.3,7.232h7.312a3.8,3.8,0,0,1,3.793,3.788,3.755,3.755,0,0,1-.586,2h4.446a3.448,3.448,0,1,1,0,6.9h-.842a2.563,2.563,0,0,1,.151.761A2.529,2.529,0,0,1,45.2,23.189m16.9-.657a1.1,1.1,0,0,0,.024-.132h4.966a2.956,2.956,0,0,0,.085-5.912,4.124,4.124,0,0,0-3.05-6.914h-7.17a4.132,4.132,0,0,0-.917,8.163,2.9,2.9,0,0,0-.6,1.7,2.669,2.669,0,0,0,.128.62H52.75a2,2,0,0,0-2,2,1.962,1.962,0,0,0,.875,1.608,3.055,3.055,0,0,0-.449,3.287H48.058a2,2,0,0,0-.79,3.835,2,2,0,0,0-.1.511,2.055,2.055,0,0,0,.114.558,1.968,1.968,0,0,0-1.632,1.925,2,2,0,0,0,2,2h3.585a2,2,0,0,0,2-2c0-.076-.038-.137-.043-.208h5.486a2.28,2.28,0,0,0,2.28-2.275A2.252,2.252,0,0,0,59,29.081c0-.047.024-.085.024-.132l-.014-.071h2.426a3.239,3.239,0,0,0,3.244-3.24A3.2,3.2,0,0,0,62.1,22.531m22.005-2.478h1.324a3.37,3.37,0,0,0,.411-6.716,3.652,3.652,0,0,0-3.031-5.694H73.294a3.646,3.646,0,0,0-1.012,7.151,3.36,3.36,0,0,0,.7,4.512,2.754,2.754,0,0,0-1.693,2.54,2.708,2.708,0,0,0,.539,1.551,1.91,1.91,0,0,0-1.778,1.9,1.758,1.758,0,0,0,.085.416h-.019a2.276,2.276,0,0,0-2.275,2.275,2.238,2.238,0,0,0,.374,1.173h-.785a2.054,2.054,0,0,0-1.513,3.457,1.694,1.694,0,0,0-.832,1.438,1.723,1.723,0,0,0,1.726,1.721h3.448A1.7,1.7,0,0,0,71.79,33.29h5.16a2.067,2.067,0,1,0,0-4.133H75.2a2.017,2.017,0,0,0,.218-1.93h4.564a1.93,1.93,0,0,0,1.93-1.934,1.847,1.847,0,0,0-.137-.686h.279a2.758,2.758,0,0,0,2.757-2.762,2.715,2.715,0,0,0-.7-1.792M110.8,8.334H98.941a3.509,3.509,0,0,0-3.495,3.311H92.462a2.138,2.138,0,1,0,0,4.275h.019a2.732,2.732,0,0,0-.364,1.31,2.813,2.813,0,0,0,.828,2h-1.93a2.069,2.069,0,1,0,0,4.138h.478a1.736,1.736,0,0,0-.227,1.655H88.943A2.482,2.482,0,0,0,86.465,27.5a2.455,2.455,0,0,0,1.655,2.313,2.075,2.075,0,0,0-.492,2.79H86.465a1.792,1.792,0,1,0,0,3.585h5.24A1.794,1.794,0,0,0,93.5,34.4a1.767,1.767,0,0,0-.142-.69h3.59a2.194,2.194,0,0,0,.137-4.384A2.446,2.446,0,0,0,97.91,27.5a2.414,2.414,0,0,0-.17-.828h2.1a2.206,2.206,0,0,0,0-4.412h-.27a1.892,1.892,0,0,0-.189-2.209h6.456a2.8,2.8,0,0,0,2.1-4.687H110.8a3.516,3.516,0,0,0,0-7.032" transform="translate(81.78 26.971)" fill="#adc8e3"/>
      <path id="Trazado_270229" data-name="Trazado 270229" d="M50.4,28.43H38.334v4.843H50.4a9.7,9.7,0,0,1,9.69,9.69V106.3c1.646-.114,3.258-.123,4.843-.26V42.963A14.534,14.534,0,0,0,50.4,28.43" transform="translate(142.959 106.025)" fill="#428fce"/>
      <path id="Trazado_270230" data-name="Trazado 270230" d="M20.5,96.844V42.963a9.7,9.7,0,0,1,9.69-9.69H42.252V28.43H30.188A14.535,14.535,0,0,0,15.65,42.963V96.721Z" transform="translate(58.364 106.025)" fill="#ff9429"/>
      <path id="Trazado_270231" data-name="Trazado 270231" d="M107.31,23.059h-4.341a5.174,5.174,0,0,0,.095-.946,5.033,5.033,0,0,0-5.032-5.032H89.5a3.136,3.136,0,0,0-3.112-2.833H82.2a3.926,3.926,0,0,0-3.514-2.2H62.325a3.93,3.93,0,0,0-3.93,3.93,3.89,3.89,0,0,0,.586,2.048h-12.7a4.247,4.247,0,0,0,0,8.494h.156a4.03,4.03,0,0,0-.317,1.57,4.089,4.089,0,0,0,4.091,4.091H61.54a4.1,4.1,0,0,0,3.774-2.516H71.49A5.193,5.193,0,0,0,76.48,33.44h30.83a5.19,5.19,0,1,0,0-10.381" transform="translate(156.765 44.935)" fill="#fff"/>
      <path id="Trazado_270232" data-name="Trazado 270232" d="M72.42,16.721H64.593a3.473,3.473,0,0,0,.038-.388,4.283,4.283,0,0,0-4.28-4.285H44.777a4.284,4.284,0,0,0-4.285,4.285c0,.132.028.26.038.388H27.255a3.893,3.893,0,0,0-3.566,2.336H22.97a5.828,5.828,0,0,0-5.8,5.453H7.4A7.4,7.4,0,0,0,7.4,39.3H8.6c-.009.132-.038.255-.038.393a5.06,5.06,0,0,0,5.06,5.06H25.307a5.06,5.06,0,0,0,5.06-5.06c0-.137-.028-.26-.038-.393h.43a7.378,7.378,0,0,0,7.278-6.229H54.51a5.444,5.444,0,0,0,4.464-8.565H72.42a3.895,3.895,0,0,0,0-7.789" transform="translate(0 44.932)" fill="#fff"/>
      <path id="Trazado_270233" data-name="Trazado 270233" d="M103.641,5.5H74.272A5.192,5.192,0,0,0,69.164,9.79H54.91A6.553,6.553,0,0,0,55,8.872a6.423,6.423,0,0,0-6.422-6.427H38.163A5.5,5.5,0,0,0,33.585,0h-20.8a5.5,5.5,0,0,0,0,11.01h8.347a6.4,6.4,0,0,0,6.03,4.285H32.1a7.441,7.441,0,0,0-.345,2.142,7.435,7.435,0,0,0,.345,2.138H14.621a5.507,5.507,0,0,0,0,11.015H56.835a5.508,5.508,0,0,0,5.51-5.5H79.166a7.648,7.648,0,0,0,7.647-7.647,7.8,7.8,0,0,0-.151-1.532h16.978a5.2,5.2,0,1,0,0-10.4" transform="translate(27.153 0.001)" fill="#fff"/>
      <path id="Trazado_270234" data-name="Trazado 270234" d="M37.756,4.676h7.827a3.473,3.473,0,0,1-.038-.388A4.28,4.28,0,0,1,49.825,0H65.4a4.281,4.281,0,0,1,4.285,4.285c0,.132-.028.26-.038.388H82.921a3.893,3.893,0,0,1,3.566,2.336h.719a5.828,5.828,0,0,1,5.8,5.453h9.771a7.4,7.4,0,0,1,0,14.793h-1.206c.009.132.038.255.038.388a5.061,5.061,0,0,1-5.06,5.065H84.87a5.061,5.061,0,0,1-5.06-5.065c0-.132.028-.255.038-.388h-.43a7.378,7.378,0,0,1-7.278-6.228H55.666a5.455,5.455,0,0,1-5.453-5.453,5.39,5.39,0,0,1,.988-3.112H37.756a3.895,3.895,0,0,1,0-7.789" transform="translate(126.289 0.012)" fill="#fff"/>
    </g>
  </g>
</svg>
