<svg xmlns="http://www.w3.org/2000/svg" width="222.708" height="177.072" viewBox="0 0 222.708 177.072">
  <g id="Hero_Image" data-name="Hero Image" transform="translate(0 0)">
    <g id="Group" transform="translate(0 12.176)">
      <path id="Path" d="M74.207,0C2.461,0-21.909,20.77,21.757,24.47S35.483,43.087,87.684,43.1s41-13.368,78.753-15.072C214.293,25.869,278.084,0,134.291,4.342c-43.985.276-62.959-.875-62.959-.875Z" transform="translate(0 121.795)" fill="#f0f3fc"/>
      <path id="Shape" d="M6.991,56.7C26.1,34.4,17.953,33.394,4.324,16.185-9.323-1.023,12.267-6.113,28.413,8.8s70.68,49.084,79.723,25.909,38.464-30.261,48.29-2.09c10.534,30.241-34.884,19.454-32.368,45.91,2.7,28.6-46.927,44.616-62.234,44.616C13.926,123.147-12.1,79.016,6.991,56.7Z" transform="translate(28.486 0)" fill="#f0f3fc"/>
    </g>
    <g id="Group-2" data-name="Group" transform="translate(12.116 0)">
      <g id="Group-3" data-name="Group" transform="translate(28.34 113.492)">
        <g id="Group-4" data-name="Group" transform="translate(0 3.562)">
          <path id="Path-2" data-name="Path" d="M30.45,16.523c-.152,1.287.35,2.56.426,3.86A3.353,3.353,0,0,1,28.9,23.815c-1.37.595-3.165.443-4.642.913a13.145,13.145,0,0,0-2.587,1.37C15.688,29.627-3.258,28.2.486,20.633c.761-1.522,2.054-2.906,2.42-4.5.228-1.01.076-2.1.791-3,1.172-1.481,4.018-1.688,6.437-1.785.335-.014.685-.042,1.02-.069,2.146-.152,4.383-.637,5.159-1.979,1.339-2.38-3.226-4.732-2.5-7.237C14.167.874,15.856-.053,17.591,0c3.774.138,5.676,4.026,9.435,3.957A11.24,11.24,0,0,0,29.552,3.5a8.678,8.678,0,0,1,1.8-.3c2.526-.069,4.474,1.785,4.535,3.556.046,1.757-1.233,3.4-2.526,4.912C32.048,13.189,30.663,14.752,30.45,16.523Z" transform="translate(0 0)" fill="#6a6ad8"/>
          <path id="Path-3" data-name="Path" d="M30.45,13.327c-.152,1.287.35,2.56.426,3.86A3.353,3.353,0,0,1,28.9,20.619c-1.37.595-3.165.443-4.642.913a13.146,13.146,0,0,0-2.587,1.37C15.688,26.43-3.258,25,.486,17.436c.761-1.522,2.054-2.906,2.42-4.5.228-1.01.076-2.1.791-3,1.172-1.481,4.018-1.688,6.437-1.785.335-.014.685-.042,1.02-.069q.434.1.867.249c2.009.678,3.835,2.1,4.307,4.013a3.194,3.194,0,0,0,.274.913,2.458,2.458,0,0,0,.807.789,9.823,9.823,0,0,0,7.731,1.287c.685-.18,1.431-.526,1.567-1.162a1.676,1.676,0,0,0-.122-.816,23.723,23.723,0,0,1-1.05-3.127,2.942,2.942,0,0,1,1.02-2.975,10.575,10.575,0,0,1,1.522-.692A4.409,4.409,0,0,0,30.5,3.6c.3-1.439-.685-2.145-.944-3.293a8.678,8.678,0,0,1,1.8-.3c2.526-.069,4.474,1.785,4.535,3.556.046,1.757-1.233,3.4-2.526,4.912C32.048,9.992,30.663,11.556,30.45,13.327Z" transform="translate(0 3.197)" opacity="0.1"/>
        </g>
        <g id="Group-5" data-name="Group" transform="translate(15.039 0)">
          <path id="Path-4" data-name="Path" d="M12.511,6.889a11.567,11.567,0,0,0,.455,1.774,1.616,1.616,0,0,1-.6,1.729c-.539.366-1.311.411-1.9.726a5.492,5.492,0,0,0-1,.806C7.182,13.957-.957,14.518.093,10.744A11.17,11.17,0,0,0,.8,8.49,3.328,3.328,0,0,1,.921,7.038c.392-.767,1.584-1.047,2.6-1.249.141-.028.288-.064.428-.1.9-.21,1.814-.58,2.048-1.257.4-1.2-1.705-2-1.573-3.215A1.613,1.613,0,0,1,5.881.013c1.611-.18,2.694,1.511,4.284,1.236A4.429,4.429,0,0,0,11.2.873a3.412,3.412,0,0,1,.74-.258,1.879,1.879,0,0,1,2.177,1.366A3.927,3.927,0,0,1,13.4,4.436,4.916,4.916,0,0,0,12.511,6.889Z" transform="translate(0 0)" fill="#6a6ad8"/>
          <path id="Path-5" data-name="Path" d="M12.511,6.306a11.567,11.567,0,0,0,.455,1.774,1.616,1.616,0,0,1-.6,1.729c-.539.366-1.311.411-1.9.726a5.492,5.492,0,0,0-1,.806C7.182,13.374-.957,13.935.093,10.161A11.17,11.17,0,0,0,.8,7.907,3.328,3.328,0,0,1,.921,6.455c.392-.767,1.584-1.047,2.6-1.249.141-.028.288-.064.428-.1q.191.02.386.06A2.822,2.822,0,0,1,6.451,6.761a1.617,1.617,0,0,0,.181.408,1.109,1.109,0,0,0,.4.316,3.9,3.9,0,0,0,3.371.1c.278-.128.569-.338.582-.644a.864.864,0,0,0-.11-.373,12,12,0,0,1-.668-1.391,1.469,1.469,0,0,1,.221-1.454,4.33,4.33,0,0,1,.6-.421,2.05,2.05,0,0,0,.816-1.538C11.866,1.074,11.4.809,11.2.29a3.412,3.412,0,0,1,.74-.258A1.879,1.879,0,0,1,14.121,1.4,3.927,3.927,0,0,1,13.4,3.852,4.916,4.916,0,0,0,12.511,6.306Z" transform="translate(0 0.583)" opacity="0.1"/>
        </g>
        <g id="Group-6" data-name="Group" transform="translate(7.294 10.809)">
          <path id="Path-6" data-name="Path" d="M6.984,5.292a6.23,6.23,0,0,0-.408.9.873.873,0,0,1-.835.527c-.351-.028-.691-.27-1.047-.338a2.958,2.958,0,0,0-.694,0C2.35,6.466-1.266,3.951.452,2.717a6.032,6.032,0,0,0,1.06-.71c.175-.2.284-.455.542-.57.424-.19,1.021.095,1.519.354.069.036.143.07.213.1a1.455,1.455,0,0,0,1.287.163C5.645,1.688,5.03.639,5.5.171A.871.871,0,0,1,6.517.155C7.255.624,7.14,1.7,7.9,2.124a2.39,2.39,0,0,0,.565.193,1.843,1.843,0,0,1,.4.142,1.015,1.015,0,0,1,.455,1.311,2.121,2.121,0,0,1-1.134.789A2.657,2.657,0,0,0,6.984,5.292Z" transform="translate(0 0)" fill="#6a6ad8"/>
          <path id="Path-7" data-name="Path" d="M6.984,3.918a6.23,6.23,0,0,0-.408.9.873.873,0,0,1-.835.527c-.351-.028-.691-.27-1.047-.338a2.958,2.958,0,0,0-.694,0C2.35,5.092-1.266,2.576.452,1.343a6.032,6.032,0,0,0,1.06-.71c.175-.2.284-.455.542-.57.424-.19,1.021.095,1.519.354.069.036.143.07.213.1q.074.073.142.156A1.524,1.524,0,0,1,4.278,2.06a.877.877,0,0,0-.062.233.6.6,0,0,0,.061.268A2.1,2.1,0,0,0,5.662,3.743a.461.461,0,0,0,.463-.074.466.466,0,0,0,.08-.194,6.438,6.438,0,0,1,.189-.811.793.793,0,0,1,.585-.538,2.35,2.35,0,0,1,.393.024,1.107,1.107,0,0,0,.863-.372c.245-.282.137-.552.232-.836a1.843,1.843,0,0,1,.4.142A1.015,1.015,0,0,1,9.321,2.4a2.121,2.121,0,0,1-1.134.789A2.657,2.657,0,0,0,6.984,3.918Z" transform="translate(0 1.374)" opacity="0.1"/>
        </g>
        <g id="Group-7" data-name="Group" transform="translate(16.445 12.05)">
          <path id="Path-8" data-name="Path" d="M6.942,4.005A6.228,6.228,0,0,0,7.1,4.98a.873.873,0,0,1-.4.9c-.307.172-.724.161-1.058.3a2.959,2.959,0,0,0-.575.388C3.748,7.562-.656,7.488.083,5.506a6.042,6.042,0,0,0,.484-1.18A1.8,1.8,0,0,1,.7,3.551c.246-.394.9-.49,1.458-.552.077-.009.158-.021.235-.033.494-.071,1-.229,1.159-.582.27-.626-.825-1.154-.7-1.8A.871.871,0,0,1,3.692,0c.875-.022,1.38.937,2.248.863A2.4,2.4,0,0,0,6.516.708a1.848,1.848,0,0,1,.41-.1,1.015,1.015,0,0,1,1.108.835,2.122,2.122,0,0,1-.5,1.288A2.651,2.651,0,0,0,6.942,4.005Z" transform="translate(0 0)" fill="#6a6ad8"/>
          <path id="Path-9" data-name="Path" d="M6.942,3.407a6.228,6.228,0,0,0,.163.975.873.873,0,0,1-.4.9c-.307.172-.724.161-1.058.3a2.959,2.959,0,0,0-.575.388C3.748,6.964-.656,6.89.083,4.908a6.042,6.042,0,0,0,.484-1.18A1.8,1.8,0,0,1,.7,2.952c.246-.394.9-.49,1.458-.552.077-.009.158-.021.235-.033q.1.02.2.05a1.523,1.523,0,0,1,1.063.955.872.872,0,0,0,.079.228.6.6,0,0,0,.2.188A2.1,2.1,0,0,0,5.748,4c.155-.056.322-.155.343-.319a.467.467,0,0,0-.042-.206,6.467,6.467,0,0,1-.3-.779.793.793,0,0,1,.186-.772,2.365,2.365,0,0,1,.34-.2,1.107,1.107,0,0,0,.51-.79C6.836.562,6.595.4,6.516.11a1.848,1.848,0,0,1,.41-.1A1.015,1.015,0,0,1,8.034.84a2.122,2.122,0,0,1-.5,1.288A2.658,2.658,0,0,0,6.942,3.407Z" transform="translate(0 0.598)" opacity="0.1"/>
        </g>
      </g>
      <g id="Group-8" data-name="Group" transform="translate(49.033 0)">
        <g id="Group-9" data-name="Group" transform="translate(0 1.416)">
          <path id="Path-10" data-name="Path" d="M42.786,30.46c-1.073,1.507-1.318,3.446-2.115,5.128a4.789,4.789,0,0,1-4.832,2.941c-2.124-.194-4.269-1.617-6.44-2.04a18.768,18.768,0,0,0-4.18-.059c-9.912.317-32.667-14.465-22.785-21.378,2-1.384,4.567-2.23,6.116-3.973C9.528,9.971,10.088,8.5,11.6,7.861c2.483-1.051,6.19.642,9.288,2.18.429.212.886.418,1.325.613,2.792,1.281,5.927,2.209,7.819,1.06,3.31-2.062-.8-8.141,1.838-10.777,1.255-1.25,4.006-1.253,6.142.006,4.633,2.762,4.348,8.937,9.1,11.429a16.051,16.051,0,0,0,3.478,1.161,12.39,12.39,0,0,1,2.458.851c3.212,1.646,4.38,5.3,3.241,7.565-1.148,2.233-3.879,3.418-6.534,4.42C47.075,27.379,44.268,28.388,42.786,30.46Z" transform="translate(0 0)" fill="#6a6ad8"/>
          <path id="Path-11" data-name="Path" d="M42.786,22.925c-1.073,1.507-1.318,3.446-2.115,5.128a4.789,4.789,0,0,1-4.832,2.941c-2.124-.194-4.269-1.617-6.44-2.04a18.768,18.768,0,0,0-4.18-.059C15.307,29.212-7.448,14.43,2.434,7.517c2-1.384,4.567-2.23,6.116-3.973C9.528,2.436,10.088.962,11.6.326c2.483-1.051,6.19.642,9.288,2.18.429.212.886.418,1.325.613q.472.428.916.907c2.051,2.227,3.361,5.265,2.642,7.98a4.56,4.56,0,0,0-.283,1.332,3.511,3.511,0,0,0,.469,1.541,14.028,14.028,0,0,0,8.8,6.915c.981.244,2.153.323,2.761-.381a2.4,2.4,0,0,0,.408-1.106,33.943,33.943,0,0,1,.83-4.637,4.2,4.2,0,0,1,3.318-3.027,15.111,15.111,0,0,1,2.381.177,6.3,6.3,0,0,0,5.062-2.049C50.885,9.178,50.13,7.616,50.593,6a12.39,12.39,0,0,1,2.458.851c3.212,1.646,4.38,5.3,3.241,7.565-1.148,2.233-3.879,3.418-6.534,4.42C47.075,19.844,44.268,20.853,42.786,22.925Z" transform="translate(0 7.535)" opacity="0.1"/>
        </g>
        <g id="Group-10" data-name="Group" transform="translate(29.157)">
          <path id="Path-12" data-name="Path" d="M19.049,13.357A16.511,16.511,0,0,0,18.4,15.89a2.308,2.308,0,0,1-1.931,1.757c-.926.089-1.925-.384-2.883-.4a7.83,7.83,0,0,0-1.806.324c-4.258.978-14.836-3.9-10.933-7.909A15.957,15.957,0,0,0,3.281,7.327c.365-.592.53-1.316,1.149-1.735,1.017-.691,2.7-.225,4.118.221.2.062.4.117.6.17,1.27.354,2.67.517,3.427-.17,1.321-1.226-.765-3.674.234-5.106A2.3,2.3,0,0,1,15.461.2c2.141.88,2.338,3.741,4.518,4.487a6.327,6.327,0,0,0,1.56.241,4.879,4.879,0,0,1,1.1.184,2.684,2.684,0,0,1,1.79,3.2,5.611,5.611,0,0,1-2.589,2.58A7.028,7.028,0,0,0,19.049,13.357Z" transform="translate(0 0)" fill="#6a6ad8"/>
          <path id="Path-13" data-name="Path" d="M19.049,8.433a16.511,16.511,0,0,0-.646,2.534,2.308,2.308,0,0,1-1.931,1.757c-.926.089-1.925-.384-2.883-.4a7.83,7.83,0,0,0-1.806.324C7.524,13.63-3.054,8.749.849,4.743A15.957,15.957,0,0,0,3.281,2.4c.365-.592.53-1.316,1.149-1.735C5.446-.023,7.132.443,8.548.89c.2.062.4.117.6.17q.226.157.442.34a4.031,4.031,0,0,1,1.553,3.445,2.311,2.311,0,0,0-.053.636,1.586,1.586,0,0,0,.282.669,5.564,5.564,0,0,0,4.154,2.438A1.219,1.219,0,0,0,16.7,8.181a1.234,1.234,0,0,0,.118-.542,17.123,17.123,0,0,1,.118-2.2,2.1,2.1,0,0,1,1.274-1.67,6.2,6.2,0,0,1,1.036-.118,2.928,2.928,0,0,0,2.077-1.367c.508-.847.1-1.5.217-2.283a4.879,4.879,0,0,1,1.1.184,2.684,2.684,0,0,1,1.79,3.2,5.611,5.611,0,0,1-2.589,2.58A7.025,7.025,0,0,0,19.049,8.433Z" transform="translate(0 4.924)" opacity="0.1"/>
        </g>
        <g id="Group-11" data-name="Group" transform="translate(17.538 7.577)">
          <path id="Path-14" data-name="Path" d="M7.724,8.214A8.925,8.925,0,0,0,6.6,9.063a1.246,1.246,0,0,1-1.407.087c-.42-.276-.68-.812-1.08-1.141a4.224,4.224,0,0,0-.87-.474C1.115,6.507-1.689.875,1.309.508A8.613,8.613,0,0,0,3.123.345,2.565,2.565,0,0,1,4.193,0c.662.053,1.214.819,1.659,1.485.062.092.13.186.2.276.415.579.949,1.12,1.5,1.087.97-.07.92-1.805,1.825-2.071a1.244,1.244,0,0,1,1.289.68c.6,1.094-.28,2.366.385,3.417a3.415,3.415,0,0,0,.575.629,2.629,2.629,0,0,1,.4.451A1.45,1.45,0,0,1,11.7,7.91a3.03,3.03,0,0,1-1.962.211A3.793,3.793,0,0,0,7.724,8.214Z" transform="translate(0 0)" fill="#6a6ad8"/>
          <path id="Path-15" data-name="Path" d="M7.724,8.214A8.925,8.925,0,0,0,6.6,9.063a1.246,1.246,0,0,1-1.407.087c-.42-.276-.68-.812-1.08-1.141a4.224,4.224,0,0,0-.87-.474C1.115,6.507-1.689.875,1.309.508A8.613,8.613,0,0,0,3.123.345,2.565,2.565,0,0,1,4.193,0c.662.053,1.214.819,1.659,1.485.062.092.13.186.2.276q.042.142.071.292a2.177,2.177,0,0,1-.511,1.975,1.247,1.247,0,0,0-.237.25.858.858,0,0,0-.107.377,3.005,3.005,0,0,0,.924,2.431.658.658,0,0,0,.63.225.664.664,0,0,0,.233-.188,9.266,9.266,0,0,1,.793-.887,1.133,1.133,0,0,1,1.1-.272,3.366,3.366,0,0,1,.476.3,1.581,1.581,0,0,0,1.337.127c.5-.185.55-.6.863-.888a2.629,2.629,0,0,1,.4.451A1.45,1.45,0,0,1,11.7,7.91a3.03,3.03,0,0,1-1.962.211A3.793,3.793,0,0,0,7.724,8.214Z" transform="translate(0 0)" opacity="0.1"/>
        </g>
        <g id="Group-12" data-name="Group" transform="translate(26.535 14.578)">
          <path id="Path-16" data-name="Path" d="M10.168,7.4A8.927,8.927,0,0,0,9.7,8.737a1.247,1.247,0,0,1-1.12.856c-.5.005-1.018-.3-1.533-.346a4.234,4.234,0,0,0-.986.091c-2.336.33-7.8-2.784-5.517-4.759A8.627,8.627,0,0,0,1.963,3.432c.223-.3.346-.683.7-.88.579-.325,1.465,0,2.205.309.1.042.212.082.317.119a2.08,2.08,0,0,0,1.852.067c.767-.6-.242-2.012.362-2.736A1.244,1.244,0,0,1,8.845.157C9.956.73,9.93,2.278,11.068,2.78a3.415,3.415,0,0,0,.828.2,2.629,2.629,0,0,1,.585.15A1.449,1.449,0,0,1,13.3,4.938a3.028,3.028,0,0,1-1.512,1.268A3.8,3.8,0,0,0,10.168,7.4Z" transform="translate(0 0)" fill="#6a6ad8"/>
          <path id="Path-17" data-name="Path" d="M10.168,4.986A8.927,8.927,0,0,0,9.7,6.319a1.247,1.247,0,0,1-1.12.856c-.5.005-1.018-.3-1.533-.346a4.234,4.234,0,0,0-.986.091c-2.336.33-7.8-2.784-5.517-4.759A8.627,8.627,0,0,0,1.963,1.015c.223-.3.346-.683.7-.88.579-.325,1.465,0,2.205.309.1.042.212.082.317.119q.114.095.222.2a2.176,2.176,0,0,1,.676,1.925,1.248,1.248,0,0,0-.058.34.855.855,0,0,0,.121.373,3,3,0,0,0,2.122,1.5.658.658,0,0,0,.649-.165A.666.666,0,0,0,9,4.455a9.25,9.25,0,0,1,.165-1.178,1.133,1.133,0,0,1,.762-.839,3.356,3.356,0,0,1,.563-.016,1.581,1.581,0,0,0,1.18-.64c.312-.432.124-.8.222-1.218a2.629,2.629,0,0,1,.585.15A1.449,1.449,0,0,1,13.3,2.52a3.028,3.028,0,0,1-1.512,1.268A3.8,3.8,0,0,0,10.168,4.986Z" transform="translate(0 2.418)" opacity="0.1"/>
        </g>
      </g>
      <g id="Group-13" data-name="Group" transform="translate(0 83.869)">
        <ellipse id="Oval" cx="2.429" cy="0.683" rx="2.429" ry="0.683" transform="translate(0 59.215)" opacity="0.1"/>
        <g id="Group-14" data-name="Group" transform="translate(14.925 14.306)">
          <path id="Path-18" data-name="Path" d="M10.267.1a35.4,35.4,0,0,1-.826,7.128A5.131,5.131,0,0,1,8.31,9.668C5.687,11.9,3.9,11.584.182,11L0,8.19c1.2-.819,3.8-.467,6.025-.29l.6-1.774L8.7,0Z" transform="translate(0 2.62)" fill="#edb6a4"/>
          <path id="Path-19" data-name="Path" d="M1.825,2.723a2.111,2.111,0,0,0,.867-.83A3.512,3.512,0,0,0,2.551.422C2.4.009,1.26-.226,1.073.317l-.415.951L.249.779,0,1.026.256,2.619Z" transform="translate(8.441 0)" fill="#edb6a4"/>
          <path id="Path-20" data-name="Path" d="M9.685,1.058A5.343,5.343,0,0,1,8.333,3.73C5.557,5.615,3.935,5.745.216,5.158L0,2.05c1.2-.819,3.593-.619,5.821-.443L6.488,0A6.449,6.449,0,0,1,9.685,1.058Z" transform="translate(0 8.761)" fill="#cce9f1"/>
          <path id="Path-21" data-name="Path" d="M.3,0A9.006,9.006,0,0,1,3.708,1.081a1.591,1.591,0,0,1-.162,1.043A20.707,20.707,0,0,1,.031.833C-.079.6.125.264.3,0Z" transform="translate(6.151 8.468)" fill="#6a6ae5"/>
        </g>
        <path id="Path-22" data-name="Path" d="M.606,6.92,10.881,0l.8.957L6.408,6.395,21.093,23.947A.9.9,0,0,1,19.714,25.1L5.15,7.693,3.057,9.85A1.738,1.738,0,0,1,.515,9.487,1.738,1.738,0,0,1,.606,6.92Z" transform="translate(12.28 0)" fill="#393768"/>
        <g id="Group-15" data-name="Group" transform="translate(0.771 33.185)">
          <g id="Group-16" data-name="Group" transform="translate(0 21.259)">
            <path id="Path-23" data-name="Path" d="M2.634,0,1.471.59a.766.766,0,0,0-.75.056L0,1.3,3.2,4.462l.664-.487L3.14,2.107,3.794,1.5Z" transform="translate(0.226 0)" fill="#edb6a4"/>
            <path id="Path-24" data-name="Path" d="M1.01.105C.612.175.345.452,0,.932L3.7,4.753c.586.554,1.053.4.775-.269L3.45,1.756a.978.978,0,0,1-.891-.272A4.318,4.318,0,0,1,1.691.54C1.841.4,1.97.248,1.811,0Z" transform="translate(0 0.365)" fill="#393768"/>
          </g>
          <path id="Path-25" data-name="Path" d="M3.057,1.751,7.09,0c1.589,2.47,3.066,7.841,2.323,11.12-1.259,3.19-2.208,5.745-7.5,10.673L0,19.7l5.055-8.242C3.857,7.761,2.682,4.48,3.057,1.751Z" transform="translate(2.437 1.382)" fill="#393768"/>
          <path id="Path-26" data-name="Path" d="M2.984,6.083A22.946,22.946,0,0,1,0,11.845c.361-1.312,1.1-2.521,1.382-3.864a11.709,11.709,0,0,0,.162-2.36,5.885,5.885,0,0,0-.155-1.566C1.129,3.066.28,2.161.17,1.134.07.186,1.368-.111,2.094.035A2.224,2.224,0,0,1,2.7.26,14.061,14.061,0,0,1,2.984,6.083Z" transform="translate(8.87 6.421)" opacity="0.1"/>
          <g id="Group-17" data-name="Group" transform="translate(12.776 23.437)">
            <path id="Path-27" data-name="Path" d="M1.2,0,.68,1.2a.766.766,0,0,0-.542.521L0,2.681l4.48.395.2-.8L2.934,1.3,3.049.414Z" transform="translate(0.191 0)" fill="#edb6a4"/>
            <path id="Path-28" data-name="Path" d="M.265.592a1.66,1.66,0,0,0-.25,1.281L5.3,2.452c.8.053,1.064-.366.425-.7L3.2.306a.978.978,0,0,1-.859.359A4.322,4.322,0,0,1,1.067.492C1.091.287,1.1.089.815,0Z" transform="translate(0 0.95)" fill="#393768"/>
          </g>
          <path id="Path-29" data-name="Path" d="M0,2.826,4.776,0c2.066,2.231,3.981,7.431,5.2,9.672,1.264,2.467.154,7.118-.778,14.291L6.394,23.57,6.162,12.74C3.47,9.3.295,6.274,0,2.826Z" transform="translate(7.332 0)" fill="#393768"/>
        </g>
        <path id="Path-30" data-name="Path" d="M11.686,7.547C10.332,9.441,7.98,11.27,7.35,12.69c-.1.042-.205.074-.321.112-2.518.752-6.5-.233-7.013-1.222C-.337,10.9,5.318,1.378,8.9.086,10.734-.435,13.3,1.5,12.958,3.641A10.7,10.7,0,0,1,11.686,7.547Z" transform="translate(7.697 23.824)" fill="#cce9f1"/>
        <path id="Path-31" data-name="Path" d="M0,1.242A2.96,2.96,0,0,0,1.1,0L2.784.964,2.014,3.09A6.083,6.083,0,0,1,0,1.242Z" transform="translate(18.46 22.926)" fill="#d8a598"/>
        <path id="Path-32" data-name="Path" d="M2.369,2.053c-.107-.064-.235-.15-.363-.236A1.663,1.663,0,0,0,1.259,1.5a2.265,2.265,0,0,0-.748.1.3.3,0,0,1-.192.021A1.268,1.268,0,0,1,0,1.258,3.059,3.059,0,0,0,1.092,0L2.777.965Z" transform="translate(18.46 22.922)" opacity="0.1"/>
        <path id="Path-33" data-name="Path" d="M.116,3.41c1.067.99,2.09,1.7,2.979,1.616A5.6,5.6,0,0,0,3.667,0H0Z" transform="translate(18.895 19.941)" fill="#edb6a4"/>
        <path id="Path-34" data-name="Path" d="M3.2,2.486a1.423,1.423,0,0,1-.424.051,3.02,3.02,0,0,1-.482-.071c-.468-.137-.937-.274-1.386-.435a1.856,1.856,0,0,1-.489-.307A1.142,1.142,0,0,1,0,.785,1.278,1.278,0,0,1,.121.34.791.791,0,0,1,.449.021L2.232,0c.024.019.024.019.066.014.227.1.436.227.687.348A4.781,4.781,0,0,1,3.2,2.486Z" transform="translate(19.701 19.892)" opacity="0.1"/>
        <path id="Path-35" data-name="Path" d="M5.291,3.583a2.082,2.082,0,0,1-1.855-.536,1.811,1.811,0,0,0-.051,1.131.321.321,0,0,1-.3.167C2.97,4,2.884,3.6,2.658,3.591a.658.658,0,0,0-.542.562c-.075.393.259.906.568,1.45-.566.124-.962.182-1.279-.033A2.153,2.153,0,0,1,.074,4.324C-.232,3.648.523,3.1.3,2.558.106,2.056.683.351,1.311.659,1.887.928,2,.914,2.7.314S4.01.056,4.142.762s.342.4,1.028.333,1.2,1.152.618,1.231C5.714,2.953,5.692,3.328,5.291,3.583Z" transform="translate(17.938 18.303)" fill="#393768"/>
        <g id="Group-18" data-name="Group" transform="translate(16.394 19.712)">
          <path id="Path-36" data-name="Path" d="M13.3.648A35.386,35.386,0,0,1,10,7.016,5.128,5.128,0,0,1,8.069,8.9C4.825,10.046,3.268,9.119,0,7.248L.828,4.559c1.416-.338,3.715.915,5.734,1.872L7.751,4.985,11.874,0Z" transform="translate(0.076 1.983)" fill="#edb6a4"/>
          <path id="Path-37" data-name="Path" d="M1.429,2.637a2.111,2.111,0,0,0,1.106-.468A2.306,2.306,0,0,0,3.02,1C3.026.562,1.951-.321,1.583.12L.746.975.633.612.2.916,0,1.981Z" transform="translate(11.946 0)" fill="#edb6a4"/>
          <path id="Path-38" data-name="Path" d="M10.308,2.583A5.343,5.343,0,0,1,8.094,4.6C4.83,5.374,3.267,4.918,0,3.047L.9.065c1.416-.338,3.578.7,5.6,1.657L7.7.458A6.448,6.448,0,0,1,10.308,2.583Z" transform="translate(0 6.477)" fill="#cce9f1"/>
          <path id="Path-39" data-name="Path" d="M.545,0a9,9,0,0,1,2.8,2.224,1.591,1.591,0,0,1-.522.917A20.681,20.681,0,0,1,0,.684C-.019.426.291.186.545,0Z" transform="translate(7.218 6.647)" fill="#6a6ae5"/>
        </g>
        <path id="Path-40" data-name="Path" d="M14.175,2.144c.507-.334,1.57,1.45.363,1.157-1.188-.242-2.645.989-1.3,4.261.047.512-3.318,5.244-3.889,6.609s-9.78-.477-9.33-1.94S8.414-1.419,12.129.137c.389.163.15.28-.027.376A3.71,3.71,0,0,0,14.175,2.144Z" transform="translate(6.148 23.809)" fill="#6a6ae5"/>
        <path id="Path-41" data-name="Path" d="M.644,0,2.176,1.616l-.923.77L0,.626Z" transform="translate(15.684 24.873)" fill="#e6e9f8"/>
        <path id="Path-42" data-name="Path" d="M5.114,3.886C3.166,3.706.9,3.387.161,2.684S1.343-.858,3.94.255A3.1,3.1,0,0,1,5.975,2.644C7.817,3.335,6.311,4.039,5.114,3.886Z" transform="translate(18.039 17.555)" fill="#6a6ae5"/>
        <path id="Path-43" data-name="Path" d="M.165,0C-.191-.053.085.82.468,1.1s.812.442.725.03A1.455,1.455,0,0,0,.165,0Z" transform="translate(24.898 13.921)" fill="#edb6a4"/>
      </g>
      <g id="Group-19" data-name="Group" transform="translate(20.058 132.836)">
        <rect id="Rectangle" width="1.359" height="10.362" transform="translate(3.511 7.751)" fill="#8c8cba"/>
        <rect id="Rectangle-2" data-name="Rectangle" width="1.359" height="10.362" transform="translate(21.254 18.113) rotate(180)" fill="#8c8cba"/>
        <rect id="Rectangle-3" data-name="Rectangle" width="1.359" height="20.462" transform="translate(2.152 15.987) rotate(-90)" fill="#8c8cba"/>
        <path id="Path-44" data-name="Path" d="M24.76.962V8.4a.839.839,0,0,1-.017.206A1.008,1.008,0,0,1,24,9.341a.839.839,0,0,1-.206.017H.962A.96.96,0,0,1,0,8.4V.962A.96.96,0,0,1,.962,0H23.8a.646.646,0,0,1,.189.017A.959.959,0,0,1,24.76.962Z" transform="translate(0 0)" fill="#adadea"/>
        <path id="Path-45" data-name="Path" d="M7.366,0,0,7.383V4.533L4.533,0Z" transform="translate(0 0)" fill="#cce9f1"/>
        <path id="Path-46" data-name="Path" d="M12.208,0,2.85,9.358H0L9.358,0Z" transform="translate(1.666 0)" fill="#cce9f1"/>
        <path id="Path-47" data-name="Path" d="M12.208,0,2.85,9.358H0L9.358,0Z" transform="translate(8.156 0)" fill="#cce9f1"/>
        <path id="Path-48" data-name="Path" d="M10.113.944V2.078L2.85,9.341H0L9.341,0A.958.958,0,0,1,10.113.944Z" transform="translate(14.646 0.017)" fill="#cce9f1"/>
        <path id="Path-49" data-name="Path" d="M3.606,0V2.644a.839.839,0,0,1-.017.206l-.738.738a.839.839,0,0,1-.206.017H0Z" transform="translate(21.154 5.752)" fill="#cce9f1"/>
      </g>
      <g id="Group-20" data-name="Group" transform="translate(43.989 16.989)">
        <path id="Path-50" data-name="Path" d="M71.788,51.53V57.3L17.313,41.111a14.186,14.186,0,0,1-1.481-.068H0V26.829H2.315c-.017-.255-.034-.494-.034-.749a15.049,15.049,0,0,1,6.69-12.512V0H23.935V12.614a12.486,12.486,0,0,1,1.549.868,15.172,15.172,0,0,1,5.448,6.265L66.579,42.116A11.113,11.113,0,0,1,71.788,51.53Z" transform="translate(16.938 36.617)" fill="#a8cfef"/>
        <path id="Path-51" data-name="Path" d="M71.788,29.944v.528L17.313,14.283a14.187,14.187,0,0,1-1.481-.068H0V0H1.532A12.046,12.046,0,0,1,2.877,1.158C4.171,2.485,4.035,3.864,4.562,5.515,5.414,8.188,8.7,9.073,11.474,9.533l9.652,1.583a46.048,46.048,0,0,1,9.448,2.264c2.094.817,4.069,1.958,6.094,2.979,10.333,5.226,21.892,7.49,32.6,11.9A6.572,6.572,0,0,1,71.788,29.944Z" transform="translate(16.938 63.446)" opacity="0.1"/>
        <path id="Shape-2" data-name="Shape" d="M0,103.526V0H41.424V103.526Z" transform="translate(13.54 15.502)" fill="#393768"/>
        <path id="Path-52" data-name="Path" d="M55.054,1.821v9.244a1.823,1.823,0,0,1-1.821,1.821H1.822A1.831,1.831,0,0,1,.187,11.865a1.785,1.785,0,0,1-.187-.8V1.821A1.823,1.823,0,0,1,1.821,0h51.41A1.823,1.823,0,0,1,55.054,1.821Z" transform="translate(6.724 115.384)" fill="#cce9f1"/>
        <path id="Path-53" data-name="Path" d="M68.5,0,58.339,23.714V33.3a3.335,3.335,0,0,1-3.32,3.319H13.482a3.335,3.335,0,0,1-3.32-3.319V23.714L0,0A366.006,366.006,0,0,0,68.5,0Z" transform="translate(0 0)" fill="#cce9f1"/>
        <g id="Group-21" data-name="Group" transform="translate(47.87 63.656)">
          <path id="Path-54" data-name="Path" d="M1.224,13.568H3.689V0H1.224A1.224,1.224,0,0,0,0,1.224v11.12A1.224,1.224,0,0,0,1.224,13.568Z" transform="translate(0 0)" fill="#393768"/>
          <ellipse id="Oval-2" data-name="Oval" cx="0.692" cy="0.692" rx="0.692" ry="0.692" transform="translate(1.153 1.704)" fill="#e6e9f8"/>
          <ellipse id="Oval-3" data-name="Oval" cx="0.692" cy="0.692" rx="0.692" ry="0.692" transform="translate(1.153 10.057)" fill="#e6e9f8"/>
        </g>
        <g id="Group-22" data-name="Group" transform="translate(16.949 63.656)">
          <path id="Path-55" data-name="Path" d="M2.465,13.568H0V0H2.465A1.224,1.224,0,0,1,3.689,1.224v11.12A1.224,1.224,0,0,1,2.465,13.568Z" transform="translate(0 0)" fill="#393768"/>
          <ellipse id="Oval-4" data-name="Oval" cx="0.692" cy="0.692" rx="0.692" ry="0.692" transform="translate(1.153 1.704)" fill="#e6e9f8"/>
          <ellipse id="Oval-5" data-name="Oval" cx="0.692" cy="0.692" rx="0.692" ry="0.692" transform="translate(1.153 10.057)" fill="#e6e9f8"/>
        </g>
        <path id="Path-56" data-name="Path" d="M58.339,0,48.176,23.714V33.3a3.335,3.335,0,0,1-3.32,3.319H3.32A3.335,3.335,0,0,1,0,33.3V28.94c3.9.2,7.678,1.549,11.559,2.128C20.36,32.361,29.2,29.6,37.673,26.9a8.144,8.144,0,0,0,4.154-2.332,7.952,7.952,0,0,0,1.226-3.8,50.024,50.024,0,0,1,2.162-10.044,16.42,16.42,0,0,1,5.992-8.154A15.454,15.454,0,0,1,56.858,0Z" transform="translate(10.163 0)" opacity="0.1"/>
        <path id="Path-57" data-name="Path" d="M54.866,1.821v9.244a1.823,1.823,0,0,1-1.821,1.821H1.634A1.831,1.831,0,0,1,0,11.865a25.4,25.4,0,0,1,7.711-.885c13.142-.068,26.54.851,39.222-2.571,1.89-.511,3.9-1.209,4.988-2.843A5.754,5.754,0,0,0,52.772,2.4c.017-.664-.306-1.617-.323-2.4h.6A1.823,1.823,0,0,1,54.866,1.821Z" transform="translate(6.911 115.385)" opacity="0.1"/>
      </g>
      <g id="Group-23" data-name="Group" transform="translate(116.419 100.344)">
        <path id="Path-58" data-name="Path" d="M35.774,13.06c-.333.143-.761.206-.872.555-.1.238.063.491.111.761.143.84-.808,1.411-1.617,1.712-6.387,2.314-13.314,2.679-20.129,2.726-4.137.016-8.432-.1-12.188-1.87C-1.932,15.516,2.3,15.12,2.442,13.852a2.267,2.267,0,0,0-.777-1.569,5.767,5.767,0,0,1-.38-.491,3.731,3.731,0,0,1-.7-1.395,1.916,1.916,0,0,1,.618-1.965A3.265,3.265,0,0,1,2.807,8,10.98,10.98,0,0,0,9.067,5.071,6.032,6.032,0,0,1,11.35,3.328a2.442,2.442,0,0,1,2.568.824c.3.364.475.824.777,1.189a2.942,2.942,0,0,0,3.63.269,13.208,13.208,0,0,0,2.837-2.726,16.782,16.782,0,0,1,2.3-2.076A4.1,4.1,0,0,1,24.854.062a3.767,3.767,0,0,1,2.615.571,4.94,4.94,0,0,1,2.409,2.694,10.3,10.3,0,0,1,.158,2.964,3.372,3.372,0,0,0,1.046,2.694c.888.666,2.14.475,3.249.666a3.158,3.158,0,0,1,1.585.713,2.365,2.365,0,0,1,.428.555A1.6,1.6,0,0,1,35.774,13.06Z" transform="translate(18.062 0)" fill="#6a6ad8"/>
        <path id="Path-59" data-name="Path" d="M35.774,3.962c-.333.143-.761.206-.872.555-.1.238.063.491.111.761.143.84-.808,1.411-1.617,1.712C27.009,9.3,20.083,9.668,13.268,9.716c-4.137.016-8.432-.1-12.188-1.87C-1.932,6.419,2.3,6.023,2.442,4.755a2.267,2.267,0,0,0-.777-1.569,5.767,5.767,0,0,1-.38-.491l.539.1a2.475,2.475,0,0,1,1.014.333,3.422,3.422,0,0,1,.65.618A5.492,5.492,0,0,0,6.959,5.468a1.144,1.144,0,0,0,1.078-.3A1.09,1.09,0,0,0,7.784,3.9,3.591,3.591,0,0,1,6.9,2.821C6.547,1.886,7.641.919,8.639,1a3.888,3.888,0,0,1,2.425,1.633A6.92,6.92,0,0,0,13.2,4.676a4.7,4.7,0,0,0,1.807.349A10.275,10.275,0,0,0,18.4,4.549a1.344,1.344,0,0,0,.935-.7,5.155,5.155,0,0,0,.048-.7,1.346,1.346,0,0,1,1.426-.983,6.287,6.287,0,0,1,1.823.523,2.257,2.257,0,0,0,1.839.048C25.487,2.187,25.5.586,26.518,0c.983,0,1.553,1.078,2.3,1.743a5.1,5.1,0,0,0,3.82.951,5.16,5.16,0,0,0,2.3-.6,4.534,4.534,0,0,0,.983-.824,2.365,2.365,0,0,1,.428.555A1.6,1.6,0,0,1,35.774,3.962Z" transform="translate(18.062 9.097)" opacity="0.1"/>
        <ellipse id="Oval-6" data-name="Oval" cx="2.713" cy="2.713" rx="2.713" ry="2.713" transform="translate(21.291 38.18)" fill="#393768"/>
        <ellipse id="Oval-7" data-name="Oval" cx="2.713" cy="2.713" rx="2.713" ry="2.713" transform="translate(46.516 38.18)" fill="#393768"/>
        <path id="Path-60" data-name="Path" d="M43.761,2.277,40.423,20.539a1.93,1.93,0,0,1-1.892,1.585H8.606a1.925,1.925,0,0,1-1.815-1.277l-.785-2.154L.114,2.585A1.931,1.931,0,0,1,1.929,0h39.94a.851.851,0,0,1,.277.031A1.91,1.91,0,0,1,43.761,2.277Z" transform="translate(13.001 14.866)" fill="#cce9f1"/>
        <path id="Path-61" data-name="Path" d="M34.584,3.91H1.41A1.41,1.41,0,0,1,0,2.5V1.41A1.41,1.41,0,0,1,1.41,0H34.584a1.41,1.41,0,0,1,1.41,1.41V2.5A1.41,1.41,0,0,1,34.584,3.91Z" transform="translate(18.619 36.982)" fill="#a8cfef"/>
        <path id="Path-62" data-name="Path" d="M37.755,2.246,34.416,20.508a1.93,1.93,0,0,1-1.892,1.585H2.6A1.925,1.925,0,0,1,.785,20.816L0,18.662c.277-.015.538-.031.815-.031C9,18.4,17.324,18.97,25.278,17a12.713,12.713,0,0,0,5.4-2.446c1.877-1.646,2.8-4.092,3.493-6.493.508-1.708.923-3.431,1.261-5.185.215-1.123.077-2.293.708-2.877A1.91,1.91,0,0,1,37.755,2.246Z" transform="translate(19.007 14.897)" opacity="0.1"/>
        <rect id="Rectangle-4" data-name="Rectangle" width="68.021" height="1.177" transform="translate(0 43.606)" fill="#393768"/>
      </g>
      <g id="Group-24" data-name="Group" transform="translate(169.61 101.822)">
        <ellipse id="Oval-8" data-name="Oval" cx="2.525" cy="0.542" rx="2.525" ry="0.542" transform="translate(31.468 40.817)" opacity="0.1"/>
        <g id="Group-25" data-name="Group" transform="translate(1.285 6.175)">
          <path id="Path-63" data-name="Path" d="M0,7.663a35.028,35.028,0,0,0,7.018,1.09,5.077,5.077,0,0,0,2.628-.435c2.817-1.915,2.989-3.7,3.41-7.4L10.426,0C9.327.932,8.98,3.5,8.561,5.671l-1.849.1L.32,6.143Z" transform="translate(2.726 0)" fill="#e5ac9c"/>
          <path id="Path-64" data-name="Path" d="M2.732,1.859c-.334.31-.716-.3-1.232-.734C1.036,1.082.532.819.136,1.109-.217.857.167.509.712.278L1.843,0a2.179,2.179,0,0,1,1.2.334Z" transform="translate(0 5.805)" fill="#edb6a4"/>
          <path id="Path-65" data-name="Path" d="M.313,8.978a5.285,5.285,0,0,0,2.9-.586C5.748,6.241,6.3,4.728,6.72,1.025L3.811,0c-1.1.932-1.537,3.265-1.956,5.436L.147,5.649A6.383,6.383,0,0,0,.313,8.978Z" transform="translate(9.34 0)" fill="#cce9f1"/>
          <path id="Path-66" data-name="Path" d="M.12.121A8.912,8.912,0,0,0,.253,3.66a1.574,1.574,0,0,0,1.037.12A20.473,20.473,0,0,0,.985.087C.791-.079.418.027.12.121Z" transform="translate(9.098 5.413)" fill="#6a6ae5"/>
        </g>
        <g id="Group-26" data-name="Group" transform="translate(16.37 16.213)">
          <g id="Group-27" data-name="Group" transform="translate(14.708 19.867)">
            <path id="Path-67" data-name="Path" d="M.973,0l1.21.449A.758.758,0,0,1,2.927.42l.782.562L.919,4.451l-.707-.4.5-1.918L0,1.6Z" transform="translate(0.12 0)" fill="#edb6a4"/>
            <path id="Path-68" data-name="Path" d="M2.965.014c.4.024.692.267,1.086.7L.838,4.886c-.514.611-.99.509-.792-.178l.7-2.8A.968.968,0,0,0,1.6,1.542,4.275,4.275,0,0,0,2.343.518C2.18.394,2.036.262,2.165,0Z" transform="translate(0 0.241)" fill="#393768"/>
          </g>
          <path id="Path-69" data-name="Path" d="M5.705,1.27,1.543,0C.257,2.607-.593,8.054.505,11.2c1.6,3,2.815,5.4,8.575,9.653l1.644-2.273-5.9-7.537C5.592,7.268,6.38,3.91,5.705,1.27Z" transform="translate(5.473 1.07)" fill="#393768"/>
          <path id="Path-70" data-name="Path" d="M.5,6.14a22.706,22.706,0,0,0,3.581,5.331c-.5-1.25-1.364-2.356-1.792-3.644a11.6,11.6,0,0,1-.424-2.3,5.822,5.822,0,0,1-.024-1.557c.145-1,.877-1.987.87-3.009C2.7.014,1.395-.132.7.093a2.2,2.2,0,0,0-.57.289A13.911,13.911,0,0,0,.5,6.14Z" transform="translate(5.474 6.127)" opacity="0.1"/>
          <g id="Group-28" data-name="Group" transform="translate(0.655 23.276)">
            <path id="Path-71" data-name="Path" d="M3.168,0l.645,1.118A.758.758,0,0,1,4.4,1.57l.244.932L.287,3.393,0,2.63,1.608,1.472,1.4.614Z" transform="translate(1.106 0)" fill="#edb6a4"/>
            <path id="Path-72" data-name="Path" d="M5.553.521a1.643,1.643,0,0,1,.389,1.232L.807,2.915c-.785.142-1.087-.24-.5-.642L2.638.568a.969.969,0,0,0,.885.256A4.267,4.267,0,0,0,4.753.512C4.706.313,4.68.119,4.946,0Z" transform="translate(0 0.87)" fill="#393768"/>
          </g>
          <path id="Path-73" data-name="Path" d="M9.336,2.243,4.322,0C2.541,2.425,1.242,7.754.29,10.095c-.966,2.567.647,7.017,2.368,13.965l2.716-.7L4.388,12.683C6.65,9,9.433,5.666,9.336,2.243Z" transform="translate(0 0)" fill="#393768"/>
        </g>
        <path id="Path-74" data-name="Path" d="M1.266,7.457c1.329,1.882,3.646,3.706,4.261,5.115.1.042.2.074.317.112,2.488.758,6.9-.314,7.412-1.29C13.609,10.723,7.6,1.388,4.067.089,2.253-.438-.3,1.466.029,3.584A10.59,10.59,0,0,0,1.266,7.457Z" transform="translate(13.949 6.224)" fill="#cce9f1"/>
        <path id="Path-75" data-name="Path" d="M2.754,1.236A2.93,2.93,0,0,1,1.674,0L0,.945.75,3.052A6.025,6.025,0,0,0,2.754,1.236Z" transform="translate(13.415 5.323)" fill="#d8a598"/>
        <path id="Path-76" data-name="Path" d="M.4,2.025c.106-.063.233-.147.36-.231A1.647,1.647,0,0,1,1.5,1.479a2.244,2.244,0,0,1,.74.108.3.3,0,0,0,.19.022,1.254,1.254,0,0,0,.318-.358A3.031,3.031,0,0,1,1.673,0L0,.946Z" transform="translate(13.422 5.319)" opacity="0.1"/>
        <path id="Path-77" data-name="Path" d="M3.872,3.394C2.81,4.367,1.794,5.07.914,4.977A5.542,5.542,0,0,1,.377,0L4.006.02Z" transform="translate(11.757 2.352)" fill="#edb6a4"/>
        <path id="Path-78" data-name="Path" d="M.034,2.455a1.4,1.4,0,0,0,.419.053,2.974,2.974,0,0,0,.477-.068c.464-.133.928-.266,1.374-.423a1.837,1.837,0,0,0,.485-.3A1.13,1.13,0,0,0,3.206.789a1.266,1.266,0,0,0-.115-.44A.784.784,0,0,0,2.769.031L1,0C.981.018.981.018.939.013.714.112.506.235.257.353A4.737,4.737,0,0,0,.034,2.455Z" transform="translate(11.752 2.306)" opacity="0.1"/>
        <path id="Path-79" data-name="Path" d="M.734,3.535a2.06,2.06,0,0,0,1.839-.52,1.793,1.793,0,0,1,.044,1.12.317.317,0,0,0,.294.167c.117-.338.2-.736.428-.744a.651.651,0,0,1,.533.559c.071.39-.262.9-.571,1.432.56.126.952.185,1.266-.026A2.131,2.131,0,0,0,5.893,4.3c.307-.667-.437-1.211-.211-1.749.192-.5-.368-2.187-.992-1.885-.572.262-.681.248-1.376-.35S2.022.052,1.887.75s-.341.391-1.019.324S-.325,2.206.25,2.288C.32,2.91.339,3.281.734,3.535Z" transform="translate(10.728 0.737)" fill="#393768"/>
        <g id="Group-29" data-name="Group" transform="translate(0 8.662)">
          <path id="Path-80" data-name="Path" d="M0,6.4A35.032,35.032,0,0,0,6.844,8.3,5.078,5.078,0,0,0,9.5,8.171c3.019-1.576,3.4-3.33,4.245-6.959L11.243,0C10.044.8,9.4,3.309,8.734,5.417L6.885,5.3.494,4.93Z" transform="translate(2.596 0)" fill="#edb6a4"/>
          <path id="Path-81" data-name="Path" d="M2.6,1.949c-.368.269-.676-.385-1.138-.872C1.008.981.538.661.111.9-.21.612.212.311.78.145L1.935,0A2.179,2.179,0,0,1,3.091.471Z" transform="translate(0 4.455)" fill="#edb6a4"/>
          <path id="Path-82" data-name="Path" d="M.159,8.512a5.287,5.287,0,0,0,2.953-.245C5.875,6.424,6.6,4.984,7.445,1.355L4.674,0c-1.2.8-1.9,3.065-2.573,5.173L.38,5.186A6.386,6.386,0,0,0,.159,8.512Z" transform="translate(9.166 0)" fill="#cce9f1"/>
          <path id="Path-83" data-name="Path" d="M.337.059A8.913,8.913,0,0,0,.059,3.59a1.575,1.575,0,0,0,1.017.239A20.484,20.484,0,0,0,1.2.126C1.026-.062.643,0,.337.059Z" transform="translate(8.955 4.982)" fill="#6a6ae5"/>
        </g>
        <path id="Path-84" data-name="Path" d="M.914,2.058C.414,1.724-.649,3.484.548,3.2c1.177-.233,2.612.994,1.265,4.225-.049.507,2.912,5.361,3.469,6.715s8.976-.682,9.173-2.184C14.625,10.663,7.941-1.1,2.95.083c-.386.159-.15.277.024.372A3.669,3.669,0,0,1,.914,2.058Z" transform="translate(13.402 6.256)" fill="#6a6ae5"/>
        <path id="Path-85" data-name="Path" d="M1.526,0,0,1.591l.91.768L2.159.623Z" transform="translate(16.75 7.268)" fill="#e6e9f8"/>
        <path id="Path-86" data-name="Path" d="M1.7,3.832c1.93-.167,4.172-.469,4.909-1.161S5.461-.841,2.884.246A3.065,3.065,0,0,0,.856,2.6C-.97,3.272.516,3.977,1.7,3.832Z" transform="translate(9.839 0)" fill="#6a6ae5"/>
      </g>
    </g>
  </g>
</svg>
