<svg id="Grupo_888968" data-name="Grupo 888968" xmlns="http://www.w3.org/2000/svg" xmlns:xlink="http://www.w3.org/1999/xlink" width="295" height="282.587" viewBox="0 0 295 282.587">
  <defs>
    <clipPath id="clip-path">
      <rect id="Rectángulo_326263" data-name="Rectángulo 326263" width="295" height="282.587" fill="none"/>
    </clipPath>
    <clipPath id="clip-path-3">
      <rect id="Rectángulo_326239" data-name="Rectángulo 326239" width="55.47" height="16.439" fill="none"/>
    </clipPath>
    <clipPath id="clip-path-4">
      <rect id="Rectángulo_326240" data-name="Rectángulo 326240" width="55.469" height="16.439" fill="none"/>
    </clipPath>
    <clipPath id="clip-path-5">
      <rect id="Rectángulo_326241" data-name="Rectángulo 326241" width="73.897" height="64.364" fill="none"/>
    </clipPath>
    <clipPath id="clip-path-6">
      <rect id="Rectángulo_326242" data-name="Rectángulo 326242" width="53.102" height="38.892" fill="none"/>
    </clipPath>
    <clipPath id="clip-path-7">
      <rect id="Rectángulo_326243" data-name="Rectángulo 326243" width="38.876" height="21.128" fill="none"/>
    </clipPath>
    <clipPath id="clip-path-8">
      <rect id="Rectángulo_326244" data-name="Rectángulo 326244" width="126.317" height="73.174" fill="none"/>
    </clipPath>
    <clipPath id="clip-path-9">
      <rect id="Rectángulo_326245" data-name="Rectángulo 326245" width="116.533" height="65.286" fill="none"/>
    </clipPath>
    <clipPath id="clip-path-10">
      <rect id="Rectángulo_326246" data-name="Rectángulo 326246" width="117.143" height="67.632" fill="none"/>
    </clipPath>
    <clipPath id="clip-path-11">
      <rect id="Rectángulo_326247" data-name="Rectángulo 326247" width="35.178" height="19.84" fill="none"/>
    </clipPath>
    <clipPath id="clip-path-12">
      <rect id="Rectángulo_326248" data-name="Rectángulo 326248" width="16.862" height="14.053" fill="none"/>
    </clipPath>
    <clipPath id="clip-path-13">
      <rect id="Rectángulo_326249" data-name="Rectángulo 326249" width="7.705" height="7.359" fill="none"/>
    </clipPath>
    <clipPath id="clip-path-14">
      <path id="Trazado_623949" data-name="Trazado 623949" d="M111.054,258.6c-1.567,2.908-1.465,6,.229,6.917s4.336-.7,5.9-3.613,1.465-6-.229-6.917a2.188,2.188,0,0,0-1.048-.254c-1.605,0-3.583,1.51-4.854,3.867" transform="translate(-109.942 -254.737)" fill="none"/>
    </clipPath>
    <linearGradient id="linear-gradient" x1="-9.626" y1="4.64" x2="-9.538" y2="4.64" gradientUnits="objectBoundingBox">
      <stop offset="0" stop-color="#d6dae6"/>
      <stop offset="0.045" stop-color="#cfd3e5"/>
      <stop offset="0.278" stop-color="#b4b8e3"/>
      <stop offset="0.395" stop-color="#999fc7"/>
      <stop offset="0.53" stop-color="#8289af"/>
      <stop offset="0.654" stop-color="#747ca1"/>
      <stop offset="0.758" stop-color="#70789c"/>
      <stop offset="0.853" stop-color="#767da2"/>
      <stop offset="0.986" stop-color="#888db2"/>
      <stop offset="1" stop-color="#8b90b5"/>
    </linearGradient>
    <clipPath id="clip-path-16">
      <rect id="Rectángulo_326252" data-name="Rectángulo 326252" width="42.49" height="31.707" fill="none"/>
    </clipPath>
    <clipPath id="clip-path-17">
      <rect id="Rectángulo_326253" data-name="Rectángulo 326253" width="6.298" height="9.191" fill="none"/>
    </clipPath>
    <clipPath id="clip-path-18">
      <rect id="Rectángulo_326255" data-name="Rectángulo 326255" width="51.262" height="34.368" fill="none"/>
    </clipPath>
    <clipPath id="clip-path-19">
      <path id="Trazado_623961" data-name="Trazado 623961" d="M85.873,303.478l39.4-23.5s.332-.183.471-.238a65.711,65.711,0,0,1,9.095-3.861l.014-.009c.628-.213.944-.034.784.717a3.412,3.412,0,0,1-1.366,2l-.015.009s-5.831,4.825-9.6,7.324a4.971,4.971,0,0,1-.639.465l-.036.021h0L84.418,310.152Z" transform="translate(-84.418 -275.784)" fill="none"/>
    </clipPath>
    <radialGradient id="radial-gradient" cx="0.984" cy="0.536" r="0.35" gradientTransform="translate(-2.267 1.173) rotate(180) scale(0.983 0.382)" gradientUnits="objectBoundingBox">
      <stop offset="0" stop-color="#daebf2"/>
      <stop offset="1" stop-color="#fff"/>
    </radialGradient>
    <clipPath id="clip-path-20">
      <rect id="Rectángulo_326257" data-name="Rectángulo 326257" width="22.77" height="15.384" fill="none"/>
    </clipPath>
    <clipPath id="clip-path-21">
      <path id="Trazado_623962" data-name="Trazado 623962" d="M116.653,288.637,134.327,278.1s.149-.082.211-.107a29.449,29.449,0,0,1,4.079-1.731l.007,0c.281-.1.143.86-.262,1.22l0,0s-2.618,2.166-4.307,3.286a2.109,2.109,0,0,1-.286.208l-.016.01L116,291.631Z" transform="translate(-116.001 -276.246)" fill="none"/>
    </clipPath>
    <radialGradient id="radial-gradient-2" cx="0.982" cy="0.538" r="0.882" gradientTransform="translate(-7.301 2.236) rotate(180) scale(0.984 0.382)" xlink:href="#radial-gradient"/>
    <clipPath id="clip-path-22">
      <rect id="Rectángulo_326258" data-name="Rectángulo 326258" width="38.489" height="22.992" fill="none"/>
    </clipPath>
    <clipPath id="clip-path-23">
      <rect id="Rectángulo_326259" data-name="Rectángulo 326259" width="17.618" height="9.204" fill="none"/>
    </clipPath>
    <clipPath id="clip-path-25">
      <rect id="Rectángulo_326261" data-name="Rectángulo 326261" width="12.55" height="10.505" fill="none"/>
    </clipPath>
  </defs>
  <g id="Grupo_888967" data-name="Grupo 888967" clip-path="url(#clip-path)">
    <g id="Grupo_888934" data-name="Grupo 888934">
      <g id="Grupo_888933" data-name="Grupo 888933" clip-path="url(#clip-path)">
        <path id="Trazado_623772" data-name="Trazado 623772" d="M137.734,89.9a.666.666,0,0,1-.665-.644l-.075-2.359a.667.667,0,0,1,.014-.157L152.5,12.594a4.433,4.433,0,0,1,8.589-.307l15.221,54.866a.665.665,0,0,1-1.282.355L159.807,12.651a3.1,3.1,0,0,0-6.01.22l-15.47,74.067.073,2.279a.665.665,0,0,1-.643.685h-.022" transform="translate(-15.548 -1.032)" fill="#084c94"/>
        <path id="Trazado_623773" data-name="Trazado 623773" d="M139.316,2.553,143.71,0l7.322,3.036-4.394,2.553Z" transform="translate(-15.811 0)" fill="#72b5e8"/>
        <path id="Trazado_623774" data-name="Trazado 623774" d="M147.575,5.978l4.394-2.554a22.423,22.423,0,0,0,6.861,6.521,9.754,9.754,0,0,0,6.309,1.518c2.772-.454,5.98.314,9.271,2.214l-4.394,2.553c-3.291-1.9-6.5-2.668-9.272-2.214a9.753,9.753,0,0,1-6.308-1.518,22.434,22.434,0,0,1-6.861-6.521" transform="translate(-16.748 -0.389)" fill="#3f92d1"/>
        <path id="Trazado_623775" data-name="Trazado 623775" d="M172.888,17.543l4.394-2.554,35.411,20.445L208.3,37.988Z" transform="translate(-19.621 -1.701)" fill="#72b5e8"/>
        <path id="Trazado_623776" data-name="Trazado 623776" d="M204.489,36.613l-.026,9.18L169.062,22.1a9.933,9.933,0,0,0-6.469-1.543c-2.759.453-5.941-.368-9.105-2.195a32.337,32.337,0,0,1-9.909-9.424L139.316,2.88l7.322,3.036a22.434,22.434,0,0,0,6.861,6.521,9.759,9.759,0,0,0,6.309,1.518c2.772-.454,5.98.314,9.271,2.214Z" transform="translate(-15.811 -0.327)" fill="#2672ab"/>
        <path id="Trazado_623777" data-name="Trazado 623777" d="M130.086,94.229c0,10.819,11.479,19.589,25.64,19.589s25.64-8.77,25.64-19.589Z" transform="translate(-14.764 -10.694)" fill="#72b5e8"/>
        <path id="Trazado_623778" data-name="Trazado 623778" d="M127.781,90.334H183.25V92.7c0,8.92-12.417,16.151-27.734,16.151s-27.734-7.231-27.734-16.151c0-.074.008-.148.01-.223h-.01Z" transform="translate(-14.502 -10.252)" fill="#a8cff0"/>
        <path id="Trazado_623779" data-name="Trazado 623779" d="M183.251,88.392c0,8.92-12.418,16.15-27.735,16.15s-27.734-7.23-27.734-16.15,12.416-16.15,27.734-16.15,27.735,7.23,27.735,16.15" transform="translate(-14.502 -8.199)" fill="#f0f8ff"/>
        <path id="Trazado_623780" data-name="Trazado 623780" d="M181.205,88.648c0,8.166-11.367,14.785-25.39,14.785s-25.39-6.62-25.39-14.785,11.368-14.785,25.39-14.785,25.39,6.62,25.39,14.785" transform="translate(-14.802 -8.383)" fill="#3f92d1"/>
        <path id="Trazado_623781" data-name="Trazado 623781" d="M175.261,90.2a.441.441,0,0,1-.418-.3,3.392,3.392,0,0,0-.995-1.149.443.443,0,0,1,.571-.678,4.216,4.216,0,0,1,1.262,1.54.443.443,0,0,1-.275.563.457.457,0,0,1-.145.024m-3.342-2.811a.444.444,0,0,1-.209-.052c-.49-.263-1.016-.514-1.564-.746a.444.444,0,0,1,.347-.816c.572.243,1.122.505,1.636.782a.443.443,0,0,1-.209.833m-4.1-1.655a.442.442,0,0,1-.126-.019c-.549-.161-1.116-.309-1.688-.436a.443.443,0,1,1,.194-.865c.59.132,1.177.284,1.746.451a.443.443,0,0,1-.126.869m-4.333-.908a.434.434,0,0,1-.059,0q-.84-.11-1.738-.181a.443.443,0,0,1-.408-.476.457.457,0,0,1,.475-.408q.924.07,1.787.186a.443.443,0,0,1-.058.883m-4.42-.285h-.052a.443.443,0,0,1,0-.887.466.466,0,0,1,.47.443.422.422,0,0,1-.418.443" transform="translate(-17.996 -9.494)" fill="#084c94"/>
        <path id="Trazado_623782" data-name="Trazado 623782" d="M155.816,77c-13.113,0-23.9,5.79-25.247,13.219a8.792,8.792,0,0,1-.143-1.566c0-8.165,11.368-14.784,25.39-14.784s25.39,6.62,25.39,14.784a8.792,8.792,0,0,1-.143,1.566C179.719,82.785,168.929,77,155.816,77" transform="translate(-14.802 -8.383)" fill="#72b5e8"/>
        <g id="Grupo_888902" data-name="Grupo 888902" transform="translate(113.279 80.418)" style="mix-blend-mode: color-dodge;isolation: isolate">
          <g id="Grupo_888901" data-name="Grupo 888901">
            <g id="Grupo_888900" data-name="Grupo 888900" clip-path="url(#clip-path-3)">
              <path id="Trazado_623783" data-name="Trazado 623783" d="M155.515,106.575c15.151,0,27.456-7.076,27.722-15.861,0,.1.012.191.012.288,0,8.92-12.417,16.151-27.734,16.151S127.781,99.922,127.781,91c0-.1.01-.192.012-.288.266,8.785,12.571,15.861,27.722,15.861" transform="translate(-127.781 -90.713)" fill="#fff"/>
            </g>
          </g>
        </g>
        <path id="Trazado_623784" data-name="Trazado 623784" d="M137.863,99.83A.665.665,0,0,1,137.8,98.5l.595-.054a1.463,1.463,0,0,0,1.283-1.094l.122-.483a.665.665,0,1,1,1.288.328l-.122.483a2.8,2.8,0,0,1-2.451,2.091l-.6.053-.06,0" transform="translate(-15.571 -10.937)" fill="#084c94"/>
        <path id="Trazado_623785" data-name="Trazado 623785" d="M135.483,95.828a2.609,2.609,0,0,0-.121.819v3.613l3.944,2.277.167,1.3,1-.626V99.6a5.627,5.627,0,0,0-2.553-4.4,1.877,1.877,0,0,0-1.691-.237h0l-.012.007a1.214,1.214,0,0,0-.27.163l-.843.512Zm1.351.676.66.33,1.345,2.064.177,1.382a1.087,1.087,0,0,1-1.1-.107,3.41,3.41,0,0,1-1.548-2.669,1.064,1.064,0,0,1,.466-1" transform="translate(-15.332 -10.764)" fill="#a8cff0"/>
        <path id="Trazado_623786" data-name="Trazado 623786" d="M134.273,97.354v3.613l5.106,2.949V100.3a5.624,5.624,0,0,0-2.553-4.4c-1.41-.815-2.553-.163-2.553,1.456m1.005.855c0-.98.693-1.376,1.548-.882A3.41,3.41,0,0,1,138.374,100c0,.981-.693,1.376-1.548.883a3.412,3.412,0,0,1-1.548-2.67" transform="translate(-15.239 -10.844)" fill="#72b5e8"/>
        <path id="Trazado_623787" data-name="Trazado 623787" d="M137.734,89.9a.666.666,0,0,1-.665-.644l-.075-2.359a.667.667,0,0,1,.014-.157L152.5,12.594a4.337,4.337,0,0,1,2.621-3.167,4.581,4.581,0,0,1,4.208.41.665.665,0,1,1-.739,1.105,3.228,3.228,0,0,0-2.971-.283,2.982,2.982,0,0,0-1.818,2.211l-15.47,74.067.073,2.279a.665.665,0,0,1-.643.685h-.022" transform="translate(-15.548 -1.032)" fill="#084c94"/>
        <path id="Trazado_623788" data-name="Trazado 623788" d="M178.408,72.245a2.608,2.608,0,0,0-.121.819v3.613l3.944,2.277.167,1.3,1-.626V76.013a5.627,5.627,0,0,0-2.553-4.4,1.877,1.877,0,0,0-1.691-.237h0l-.012.007a1.215,1.215,0,0,0-.27.163l-.843.512Zm1.351.676.66.33,1.345,2.064.177,1.382a1.087,1.087,0,0,1-1.1-.107,3.41,3.41,0,0,1-1.548-2.669,1.064,1.064,0,0,1,.466-1" transform="translate(-20.204 -8.087)" fill="#a8cff0"/>
        <path id="Trazado_623789" data-name="Trazado 623789" d="M177.2,73.77v3.613l5.106,2.949V76.718a5.627,5.627,0,0,0-2.553-4.4c-1.41-.814-2.553-.162-2.553,1.456m1.005.855c0-.981.693-1.376,1.548-.882a3.41,3.41,0,0,1,1.548,2.669c0,.98-.693,1.376-1.548.883a3.413,3.413,0,0,1-1.548-2.67" transform="translate(-20.11 -8.167)" fill="#72b5e8"/>
        <path id="Trazado_623790" data-name="Trazado 623790" d="M178.77,75.492a3.24,3.24,0,0,1-2.292-.944l-.914-.914a.664.664,0,0,1,.94-.94l.915.914a1.909,1.909,0,0,0,1.97.449.665.665,0,0,1,.44,1.255,3.2,3.2,0,0,1-1.059.179" transform="translate(-19.903 -8.228)" fill="#084c94"/>
        <path id="Trazado_623791" data-name="Trazado 623791" d="M223.114,32.308l2.04-1.216,11.819,20.471-2.04,1.216Z" transform="translate(-25.321 -3.529)" fill="#084c94"/>
        <path id="Trazado_623792" data-name="Trazado 623792" d="M221.59,32.464l11.819,20.471-11.9,6.78L209.687,39.241Z" transform="translate(-23.798 -3.684)" fill="#03336e"/>
        <path id="Trazado_623793" data-name="Trazado 623793" d="M213.8,40.691l7.279-4.144,9.16,15.867-7.275,4.145Z" transform="translate(-24.264 -4.148)" fill="#2672ab"/>
        <path id="Trazado_623794" data-name="Trazado 623794" d="M213.8,41.172l.659-.386,9.16,15.867-.654.387Z" transform="translate(-24.264 -4.629)" fill="#084c94"/>
        <path id="Trazado_623795" data-name="Trazado 623795" d="M262.934,162.27a.666.666,0,0,1-.665-.644l-.076-2.358a.679.679,0,0,1,.014-.158L277.7,84.961a4.433,4.433,0,0,1,8.589-.307l15.22,54.866a.665.665,0,0,1-1.282.355L285.005,85.018a3.1,3.1,0,0,0-6.009.22L263.525,159.3l.074,2.278a.666.666,0,0,1-.644.687Z" transform="translate(-29.757 -9.245)" fill="#084c94"/>
        <path id="Trazado_623796" data-name="Trazado 623796" d="M220.093,22.452h0a5.192,5.192,0,0,0-5.191,5.191v15.9c0,1.669,2.324,3.023,5.191,3.023s5.191-1.354,5.191-3.023c0-.014,0-.028,0-.042h0V27.643a5.192,5.192,0,0,0-5.191-5.191" transform="translate(-24.389 -2.548)" fill="#2672ab"/>
        <path id="Trazado_623797" data-name="Trazado 623797" d="M238.234,189.793H198.151v2.867c0,6.446,8.973,11.671,20.041,11.671s20.041-5.225,20.041-11.671c0-.054-.005-.107-.007-.16h.007Z" transform="translate(-22.488 -21.54)" fill="#2672ab"/>
        <path id="Trazado_623798" data-name="Trazado 623798" d="M198.152,188.39c0,6.446,8.971,11.671,20.04,11.671s20.041-5.225,20.041-11.671-8.973-11.671-20.041-11.671-20.04,5.225-20.04,11.671" transform="translate(-22.488 -20.056)" fill="#3f92d1"/>
        <path id="Trazado_623799" data-name="Trazado 623799" d="M218.192,201.529c-10.948,0-19.84-5.113-20.032-11.462,0,.07-.01.138-.01.208,0,6.446,8.973,11.671,20.041,11.671s20.041-5.225,20.041-11.671c0-.07-.007-.138-.009-.208-.192,6.348-9.084,11.462-20.032,11.462" transform="translate(-22.488 -21.571)" fill="#72b5e8"/>
        <path id="Trazado_623800" data-name="Trazado 623800" d="M225.669,176.463h-13.2s-6.6,10.3-6.6,10.334c0,4.246,5.911,7.689,13.2,7.689s13.2-3.442,13.2-7.689c0-.036-6.6-10.334-6.6-10.334" transform="translate(-23.364 -20.027)" fill="#2672ab"/>
        <path id="Trazado_623801" data-name="Trazado 623801" d="M213.311,176c0,2.123,2.956,3.845,6.6,3.845s6.6-1.722,6.6-3.845-2.956-3.845-6.6-3.845-6.6,1.722-6.6,3.845" transform="translate(-24.209 -19.538)" fill="#3f92d1"/>
        <path id="Trazado_623802" data-name="Trazado 623802" d="M219.913,180.33c-3.606,0-6.535-1.684-6.6-3.776,0,.023,0,.045,0,.068,0,2.124,2.956,3.845,6.6,3.845s6.6-1.721,6.6-3.845c0-.023,0-.045,0-.068-.064,2.091-2.993,3.776-6.6,3.776" transform="translate(-24.209 -20.037)" fill="#72b5e8"/>
        <path id="Trazado_623803" data-name="Trazado 623803" d="M225.282,55.283H214.907V162.34c0,1.668,2.323,3.02,5.188,3.02s5.187-1.352,5.187-3.02c0-.014,0-.027,0-.042h0Z" transform="translate(-24.39 -6.274)" fill="#2672ab"/>
        <path id="Trazado_623804" data-name="Trazado 623804" d="M286.35,80.663c-2.027.532-4.448-.007-6.869-1.406a21.794,21.794,0,0,1-6.3-5.76,32.13,32.13,0,0,0-9.254-8.481L226.114,43.182l-4.4,2.554L259.537,67.57a32.115,32.115,0,0,1,9.253,8.481,21.807,21.807,0,0,0,6.3,5.76c2.422,1.4,4.841,1.938,6.869,1.406l7.322,5.418,4.394-2.554Z" transform="translate(-25.163 -4.901)" fill="#3f92d1"/>
        <path id="Trazado_623805" data-name="Trazado 623805" d="M289.667,88.015l7.322,5.418,4.394-2.554-7.322-5.418Z" transform="translate(-32.875 -9.699)" fill="#72b5e8"/>
        <path id="Trazado_623806" data-name="Trazado 623806" d="M273.185,73.5a32.13,32.13,0,0,0-9.254-8.481L226.114,43.182l-4.394,2.554L259.537,67.57a32.128,32.128,0,0,1,9.254,8.481Z" transform="translate(-25.163 -4.901)" fill="#72b5e8"/>
        <path id="Trazado_623807" data-name="Trazado 623807" d="M259.533,67.9a32.127,32.127,0,0,1,9.253,8.481,21.807,21.807,0,0,0,6.3,5.76c2.421,1.4,4.841,1.938,6.869,1.406l7.322,5.418-4.29,1.121c-2.926.777-6.427-.007-9.924-2.026a31.513,31.513,0,0,1-9.089-8.309,22.4,22.4,0,0,0-6.456-5.919L221.69,55.243l.026-9.18Z" transform="translate(-25.16 -5.228)" fill="#2672ab"/>
        <path id="Trazado_623808" data-name="Trazado 623808" d="M221.272,26.569a2.5,2.5,0,1,1-2.5-2.5,2.5,2.5,0,0,1,2.5,2.5" transform="translate(-24.545 -2.731)" fill="#3f92d1"/>
        <path id="Trazado_623809" data-name="Trazado 623809" d="M255.286,166.6c0,10.819,11.479,19.589,25.64,19.589s25.64-8.77,25.64-19.589Z" transform="translate(-28.973 -18.907)" fill="#72b5e8"/>
        <path id="Trazado_623810" data-name="Trazado 623810" d="M252.981,162.7H308.45v2.364c0,8.92-12.417,16.151-27.734,16.151s-27.734-7.231-27.734-16.151c0-.074.008-.148.01-.223h-.01Z" transform="translate(-28.711 -18.465)" fill="#a8cff0"/>
        <path id="Trazado_623811" data-name="Trazado 623811" d="M308.451,160.758c0,8.92-12.418,16.15-27.734,16.15s-27.734-7.23-27.734-16.15,12.416-16.15,27.734-16.15,27.734,7.23,27.734,16.15" transform="translate(-28.711 -16.412)" fill="#f0f8ff"/>
        <path id="Trazado_623812" data-name="Trazado 623812" d="M306.405,161.014c0,8.166-11.368,14.785-25.39,14.785s-25.39-6.62-25.39-14.785,11.368-14.785,25.39-14.785,25.39,6.62,25.39,14.785" transform="translate(-29.011 -16.596)" fill="#3f92d1"/>
        <path id="Trazado_623813" data-name="Trazado 623813" d="M300.461,162.57a.441.441,0,0,1-.418-.3,3.4,3.4,0,0,0-.995-1.15.443.443,0,1,1,.571-.677,4.241,4.241,0,0,1,1.262,1.54.442.442,0,0,1-.275.562.435.435,0,0,1-.145.025m-3.342-2.812a.444.444,0,0,1-.209-.053c-.491-.263-1.018-.514-1.564-.746a.443.443,0,1,1,.347-.815c.571.241,1.121.5,1.636.78a.444.444,0,0,1-.209.834m-4.1-1.655a.442.442,0,0,1-.126-.019q-.8-.237-1.689-.438a.443.443,0,1,1,.2-.864q.916.207,1.745.452a.443.443,0,0,1-.126.869m-4.333-.908a.433.433,0,0,1-.059,0q-.84-.112-1.738-.182a.443.443,0,0,1,.067-.883q.923.07,1.787.185a.443.443,0,0,1-.058.883m-4.419-.285h-.053a.443.443,0,1,1,0-.887.467.467,0,0,1,.471.443.422.422,0,0,1-.418.443" transform="translate(-32.205 -17.707)" fill="#084c94"/>
        <path id="Trazado_623814" data-name="Trazado 623814" d="M281.016,149.362c-13.113,0-23.9,5.79-25.247,13.219a8.793,8.793,0,0,1-.143-1.566c0-8.165,11.368-14.784,25.39-14.784s25.39,6.62,25.39,14.784a8.793,8.793,0,0,1-.143,1.566c-1.344-7.429-12.134-13.219-25.247-13.219" transform="translate(-29.011 -16.596)" fill="#72b5e8"/>
        <g id="Grupo_888905" data-name="Grupo 888905" transform="translate(224.27 144.572)" style="mix-blend-mode: color-dodge;isolation: isolate">
          <g id="Grupo_888904" data-name="Grupo 888904">
            <g id="Grupo_888903" data-name="Grupo 888903" clip-path="url(#clip-path-4)">
              <path id="Trazado_623815" data-name="Trazado 623815" d="M280.715,178.941c15.151,0,27.456-7.076,27.722-15.862,0,.1.012.192.012.289,0,8.92-12.417,16.151-27.734,16.151s-27.734-7.231-27.734-16.151c0-.1.01-.192.012-.289.266,8.786,12.571,15.862,27.722,15.862" transform="translate(-252.981 -163.08)" fill="#fff"/>
            </g>
          </g>
        </g>
        <path id="Trazado_623816" data-name="Trazado 623816" d="M263.063,172.2A.665.665,0,0,1,263,170.87l.593-.054a1.464,1.464,0,0,0,1.285-1.095l.122-.482a.665.665,0,1,1,1.288.329l-.122.482a2.8,2.8,0,0,1-2.453,2.09l-.594.054-.06,0" transform="translate(-29.78 -19.15)" fill="#084c94"/>
        <path id="Trazado_623817" data-name="Trazado 623817" d="M260.683,168.194a2.609,2.609,0,0,0-.121.819v3.613l3.944,2.277.167,1.3,1-.626v-3.613a5.629,5.629,0,0,0-2.553-4.4,1.877,1.877,0,0,0-1.691-.237h0l-.012.007a1.2,1.2,0,0,0-.27.163L260.3,168Zm1.351.676.66.33,1.345,2.064.177,1.382a1.087,1.087,0,0,1-1.1-.107,3.41,3.41,0,0,1-1.548-2.669,1.064,1.064,0,0,1,.466-1" transform="translate(-29.542 -18.977)" fill="#a8cff0"/>
        <path id="Trazado_623818" data-name="Trazado 623818" d="M259.473,169.72v3.613l5.106,2.949v-3.613a5.627,5.627,0,0,0-2.553-4.4c-1.41-.814-2.553-.162-2.553,1.456m1.005.855c0-.981.693-1.376,1.548-.882a3.41,3.41,0,0,1,1.548,2.669c0,.981-.693,1.376-1.548.883a3.412,3.412,0,0,1-1.548-2.67" transform="translate(-29.448 -19.057)" fill="#72b5e8"/>
        <path id="Trazado_623819" data-name="Trazado 623819" d="M262.934,162.27a.666.666,0,0,1-.665-.644l-.076-2.358a.679.679,0,0,1,.014-.158L277.7,84.961a4.337,4.337,0,0,1,2.621-3.167,4.579,4.579,0,0,1,4.208.41.665.665,0,1,1-.739,1.105,3.228,3.228,0,0,0-2.971-.283A2.98,2.98,0,0,0,279,85.238L263.525,159.3l.074,2.278a.666.666,0,0,1-.644.687Z" transform="translate(-29.757 -9.245)" fill="#084c94"/>
        <path id="Trazado_623820" data-name="Trazado 623820" d="M303.608,144.611a2.608,2.608,0,0,0-.121.819v3.613l3.944,2.277.167,1.3,1-.626v-3.613a5.627,5.627,0,0,0-2.553-4.4,1.878,1.878,0,0,0-1.692-.237h0l-.012.007a1.214,1.214,0,0,0-.27.163l-.843.512Zm1.351.676.66.33,1.345,2.064.177,1.382a1.087,1.087,0,0,1-1.1-.107,3.41,3.41,0,0,1-1.548-2.669,1.064,1.064,0,0,1,.466-1" transform="translate(-34.413 -16.3)" fill="#a8cff0"/>
        <path id="Trazado_623821" data-name="Trazado 623821" d="M302.4,146.138v3.613L307.5,152.7v-3.613a5.624,5.624,0,0,0-2.553-4.4c-1.41-.815-2.553-.163-2.553,1.456m1.005.855c0-.98.693-1.376,1.548-.882a3.41,3.41,0,0,1,1.548,2.669c0,.981-.693,1.376-1.548.883a3.412,3.412,0,0,1-1.548-2.67" transform="translate(-34.319 -16.38)" fill="#72b5e8"/>
        <path id="Trazado_623822" data-name="Trazado 623822" d="M303.97,147.858a3.248,3.248,0,0,1-2.293-.943l-.913-.914a.665.665,0,0,1,.94-.941l.914.914a1.905,1.905,0,0,0,1.971.449.665.665,0,1,1,.438,1.255,3.192,3.192,0,0,1-1.057.179" transform="translate(-34.112 -16.441)" fill="#084c94"/>
        <path id="Trazado_623823" data-name="Trazado 623823" d="M218.238,35.183l2.04-1.216L232.1,54.438l-2.04,1.216Z" transform="translate(-24.768 -3.855)" fill="#084c94"/>
        <path id="Trazado_623824" data-name="Trazado 623824" d="M216.715,35.339,228.534,55.81l-11.9,6.78L204.812,42.116Z" transform="translate(-23.244 -4.011)" fill="#03336e"/>
        <path id="Trazado_623825" data-name="Trazado 623825" d="M208.92,43.566l7.279-4.144,9.16,15.867-7.275,4.145Z" transform="translate(-23.711 -4.474)" fill="#2672ab"/>
        <path id="Trazado_623826" data-name="Trazado 623826" d="M208.92,44.047l.659-.386,9.16,15.867-.654.387Z" transform="translate(-23.711 -4.955)" fill="#084c94"/>
        <path id="Trazado_623827" data-name="Trazado 623827" d="M118.438,204.188V217.71a2.925,2.925,0,0,0,4.577,2.413L162.17,190.3V166.213A1.96,1.96,0,0,0,159.1,164.6l-33.422,25.857a16.647,16.647,0,0,0-7.243,13.736" transform="translate(-13.442 -18.641)" fill="#72b5e8"/>
        <path id="Trazado_623828" data-name="Trazado 623828" d="M109.526,212.562V199.04a16.646,16.646,0,0,1,7.243-13.736l33.422-25.857a1.929,1.929,0,0,1,1.91-.166L82.5,119.067a1.932,1.932,0,0,0-1.919.162L47.156,145.087a16.644,16.644,0,0,0-7.243,13.735v13.522a2.905,2.905,0,0,0,1.91,2.744l69.331,40.137.033-.029a2.893,2.893,0,0,1-1.66-2.632" transform="translate(-4.53 -13.492)" fill="#a8cff0"/>
        <path id="Trazado_623829" data-name="Trazado 623829" d="M118.255,217.674V204.152a16.646,16.646,0,0,1,7.243-13.736L158.92,164.56a1.921,1.921,0,0,1,1.235-.339,1.957,1.957,0,0,0-2.667-.433l-33.422,25.857a16.646,16.646,0,0,0-7.243,13.736V216.9a2.915,2.915,0,0,0,2.312,2.86,2.873,2.873,0,0,1-.879-2.089" transform="translate(-13.258 -18.549)" fill="#d1ebff"/>
        <path id="Trazado_623830" data-name="Trazado 623830" d="M129.477,223.13l1.57-1.046-.358,1.708Z" transform="translate(-14.695 -25.205)" fill="#03336e"/>
        <path id="Trazado_623831" data-name="Trazado 623831" d="M131.549,213.916V201.782a16.217,16.217,0,0,1,6.414-12.233l27.678-25.176a1.709,1.709,0,0,1,1.692-.147l-1.076-.683a1.71,1.71,0,0,0-1.7.144l-27.678,25.177a16.214,16.214,0,0,0-6.414,12.233v15.836l-1.088-.491-.909.66,3.081,1.727,1.471-2.582a2.56,2.56,0,0,1-1.471-2.331" transform="translate(-14.58 -18.542)" fill="#2672ab"/>
        <path id="Trazado_623832" data-name="Trazado 623832" d="M131.943,201.871v17.047l31.585-17.288a12.013,12.013,0,0,0,5.222-9.909V165.893a1.736,1.736,0,0,0-2.716-1.433l-27.678,25.177a16.215,16.215,0,0,0-6.414,12.233" transform="translate(-14.974 -18.63)" fill="#03336e"/>
        <g id="Grupo_888908" data-name="Grupo 888908" transform="translate(37.274 133.154)" opacity="0.5">
          <g id="Grupo_888907" data-name="Grupo 888907">
            <g id="Grupo_888906" data-name="Grupo 888906" clip-path="url(#clip-path-5)">
              <path id="Trazado_623833" data-name="Trazado 623833" d="M115.943,187.3a18.525,18.525,0,0,0-8.065,15.295v11.971l-65-37.64-.147-.054a1.023,1.023,0,0,1-.681-.973V162.374a14.751,14.751,0,0,1,6.42-12.175Z" transform="translate(-42.045 -150.2)" fill="#d1ebff"/>
            </g>
          </g>
        </g>
        <path id="Trazado_623834" data-name="Trazado 623834" d="M107.878,201.457v14.666l-65-37.64-.147-.055a1.023,1.023,0,0,1-.681-.973V163.934Z" transform="translate(-4.772 -18.605)" fill="#a8cff0"/>
        <path id="Trazado_623835" data-name="Trazado 623835" d="M44.719,173.4l-.147-.055a1.022,1.022,0,0,1-.681-.973V158.852a14.746,14.746,0,0,1,6.42-12.175l33.421-25.858.921-.521-.85-.489-1.916,1.086L48.465,146.751a14.747,14.747,0,0,0-6.42,12.175v13.522a1.022,1.022,0,0,0,.681.973l.147.055,65,37.64v-1.14Z" transform="translate(-4.772 -13.597)" fill="#3f92d1"/>
        <path id="Trazado_623836" data-name="Trazado 623836" d="M136.98,166.959l9.637-7.464-60.29-35.146-9.9,7.644a2.123,2.123,0,0,0,.129,3.589l54.2,31.6a5.829,5.829,0,0,0,6.221-.224" transform="translate(-8.569 -14.113)" fill="#001a46"/>
        <path id="Trazado_623837" data-name="Trazado 623837" d="M49.429,173.426v8.29l53.1,30.835v-8.392Z" transform="translate(-5.61 -19.682)" fill="#001a46"/>
        <g id="Grupo_888911" data-name="Grupo 888911" transform="translate(43.819 153.976)" style="mix-blend-mode: multiply;isolation: isolate">
          <g id="Grupo_888910" data-name="Grupo 888910">
            <g id="Grupo_888909" data-name="Grupo 888909" clip-path="url(#clip-path-6)">
              <path id="Trazado_623838" data-name="Trazado 623838" d="M50.751,181.194v-6.745l-1.322-.761v8.057l53.1,30.835v-1.316Z" transform="translate(-49.429 -173.688)" fill="#9d9eb3"/>
            </g>
          </g>
        </g>
        <path id="Trazado_623839" data-name="Trazado 623839" d="M122.541,170.22a2.786,2.786,0,0,1-2.722.129l-4.429-2.541a.936.936,0,0,1-.047-1.717,2.786,2.786,0,0,1,2.722-.129l4.429,2.541a.936.936,0,0,1,.047,1.717" transform="translate(-13.029 -18.802)" fill="#2672ab"/>
        <path id="Trazado_623840" data-name="Trazado 623840" d="M132.366,175.857a2.786,2.786,0,0,1-2.722.129l-4.429-2.541a.936.936,0,0,1-.047-1.717,2.786,2.786,0,0,1,2.722-.129l4.43,2.541a.936.936,0,0,1,.046,1.717" transform="translate(-14.144 -19.442)" fill="#2672ab"/>
        <path id="Trazado_623841" data-name="Trazado 623841" d="M122.494,167.88l-4.429-2.541a2.786,2.786,0,0,0-2.722.129.935.935,0,0,0,.046,1.716l4.429,2.542a2.79,2.79,0,0,0,2.722-.129.936.936,0,0,0-.047-1.717" transform="translate(-13.029 -18.731)" fill="#eb4680"/>
        <path id="Trazado_623842" data-name="Trazado 623842" d="M132.319,173.517l-4.429-2.541a2.786,2.786,0,0,0-2.722.129.935.935,0,0,0,.046,1.716l4.429,2.542a2.791,2.791,0,0,0,2.722-.129.936.936,0,0,0-.046-1.717" transform="translate(-14.144 -19.371)" fill="#0fbab8"/>
        <path id="Trazado_623843" data-name="Trazado 623843" d="M132.367,175a2.786,2.786,0,0,1-2.722.129l-4.429-2.541a1.084,1.084,0,0,1-.56-.682.946.946,0,0,0,.56,1.05l4.429,2.542a2.791,2.791,0,0,0,2.722-.129,1,1,0,0,0,.513-1.035,1.2,1.2,0,0,1-.513.667" transform="translate(-14.144 -19.51)" fill="#3ecfcd"/>
        <path id="Trazado_623844" data-name="Trazado 623844" d="M122.542,169.368a2.786,2.786,0,0,1-2.722.129l-4.429-2.541a1.084,1.084,0,0,1-.56-.682.948.948,0,0,0,.56,1.051l4.429,2.541a2.788,2.788,0,0,0,2.722-.129,1,1,0,0,0,.513-1.035,1.2,1.2,0,0,1-.513.667" transform="translate(-13.029 -18.871)" fill="#f76195"/>
        <path id="Trazado_623845" data-name="Trazado 623845" d="M29.787,191.432v3.421l-1.441-.879v-3.421Z" transform="translate(-3.217 -21.626)" fill="#a8cff0"/>
        <path id="Trazado_623846" data-name="Trazado 623846" d="M29.96,190.169v3.421L48.4,182.84v-3.41Z" transform="translate(-3.4 -20.364)" fill="#72b5e8"/>
        <path id="Trazado_623847" data-name="Trazado 623847" d="M48.218,179.316,29.776,190.055l-1.431-.879,18.462-10.751Z" transform="translate(-3.217 -20.25)" fill="#d1ebff"/>
        <path id="Trazado_623848" data-name="Trazado 623848" d="M75.511,225.806v1.708l-51.5-29.16v-1.708Z" transform="translate(-2.726 -22.318)" fill="#a8cff0"/>
        <path id="Trazado_623849" data-name="Trazado 623849" d="M82.089,227.762v1.708l23.828-13.892v-1.693Z" transform="translate(-9.316 -24.274)" fill="#72b5e8"/>
        <path id="Trazado_623850" data-name="Trazado 623850" d="M99.327,210.151,75.5,224.027l-51.483-29.16,23.854-13.891Z" transform="translate(-2.726 -20.539)" fill="#d1ebff"/>
        <path id="Trazado_623851" data-name="Trazado 623851" d="M88.591,225.446v3.421l-1.441-.879v-3.421Z" transform="translate(-9.891 -25.486)" fill="#a8cff0"/>
        <path id="Trazado_623852" data-name="Trazado 623852" d="M88.764,224.184V227.6l18.442-10.751v-3.41Z" transform="translate(-10.074 -24.224)" fill="#72b5e8"/>
        <path id="Trazado_623853" data-name="Trazado 623853" d="M107.023,213.33,88.581,224.069l-1.431-.879,18.462-10.751Z" transform="translate(-9.891 -24.11)" fill="#d1ebff"/>
        <path id="Trazado_623854" data-name="Trazado 623854" d="M144.372,131.056V158.2L84.7,124.414V97.267Z" transform="translate(-9.613 -11.039)" fill="#a8cff0"/>
        <path id="Trazado_623855" data-name="Trazado 623855" d="M151.994,135.274v27.146l1.616-.864V134.426Z" transform="translate(-17.25 -15.256)" fill="#72b5e8"/>
        <path id="Trazado_623856" data-name="Trazado 623856" d="M145.973,130.1l-1.616.848L84.7,97.156l1.645-.864Z" transform="translate(-9.613 -10.928)" fill="#d1ebff"/>
        <path id="Trazado_623857" data-name="Trazado 623857" d="M140.4,135.638v23.783l-51.566-29.2V106.439Z" transform="translate(-10.082 -12.08)" fill="#fff"/>
        <path id="Trazado_623858" data-name="Trazado 623858" d="M48.715,236.789,0,208.664l46.851-27.922,48.715,28.125Z" transform="translate(0 -20.513)" fill="#92b4d1"/>
        <path id="Trazado_623859" data-name="Trazado 623859" d="M48.835,235.57.12,207.445,46.853,180.65l48.715,28.125Z" transform="translate(-0.014 -20.502)" fill="#fff"/>
        <path id="Trazado_623860" data-name="Trazado 623860" d="M75.643,198.535l-.877.507,1.766,1.02.877-.507Zm-9.189-2.11,11.729,6.761.878-.506-11.729-6.761Zm3.412,3.128-.878.507,4.981,2.864.877-.506Zm-5.41.058,8.923,5.14.877-.506L65.334,199.1Zm23,5.73-9.288-5.349-.878.507,9.288,5.349Zm-4.755,1.61-7.095-4.1-.878.506,7.095,4.1ZM57.428,191.193l8.27,4.8.877-.506-8.269-4.8Zm6.272,7.98.877-.507L60.69,196.4l-.878.507Zm.63-6.146,9.679,5.578.878-.507-9.679-5.577Zm4.779,6.089L61,194.412l-.878.507,8.112,4.7Zm-8.869-5.141-8.814-5.112-.877.507,8.813,5.112Zm-2.692-3.725-4.241-2.472-.878.506,4.242,2.472Zm29.785,16.035,3.143,1.814.878-.506-3.144-1.815ZM48.8,190.529l10.253,5.943.877-.507L49.68,190.023ZM78.94,203.623l9.656,5.562.878-.507-9.656-5.561Zm3.638,4.271,4.137,2.376.878-.506-4.137-2.376Zm-7.871-2.373,10.128,5.835.878-.507-10.128-5.834Z" transform="translate(-5.539 -21.311)" fill="#72b5e8"/>
        <path id="Trazado_623861" data-name="Trazado 623861" d="M64.256,204.484l-.878.506,1.766,1.019.878-.506Zm-9.19-2.111L66.8,209.134l.877-.507-11.729-6.76Zm3.412,3.128-.878.506,4.981,2.865.878-.507Zm-5.41.057,8.923,5.141.878-.507-8.923-5.14Zm23,5.731-9.288-5.349-.877.506,9.287,5.349Zm-4.755,1.61-7.095-4.1-.878.506,7.1,4.1Zm-25.27-15.758,8.269,4.8.878-.507-8.27-4.8Zm-3.528,4.476,12.022,6.962.878-.507L43.39,201.112Zm12.779,7.4,8.922,5.14.878-.506-8.922-5.141Zm-2.98-3.9.878-.506L49.3,202.351l-.877.506Zm.63-6.145,9.679,5.577.878-.506L53.82,198.47Zm4.78,6.089-8.112-4.7-.878.506,8.112,4.7Zm-8.87-5.141-8.813-5.112-.878.506,8.814,5.112ZM46.161,196.2l-4.242-2.472-.877.507,4.241,2.472Zm29.784,16.034,3.143,1.815.878-.507-3.143-1.814Zm-34.19-11.052.878-.506-6.354-3.691-.878.506Zm-4.34-4.7,10.253,5.943.878-.506-10.253-5.943ZM64.97,214.594l6.6,3.8.877-.507-6.6-3.8Zm2.582-5.022,9.656,5.561.878-.506-9.656-5.562Zm3.638,4.271,4.137,2.376.878-.507-4.137-2.376Zm-7.871-2.373L73.448,217.3l.877-.506L64.2,210.962ZM52.8,208.751l-.878.506,4.981,2.865.877-.506Zm-5.41.058,8.923,5.14.878-.506L48.268,208.3Zm18.243,7.34-7.095-4.1-.878.507,7.095,4.1Zm-19-7.777.877-.507L43.624,205.6l-.877.506Zm5.409-.058-8.112-4.7-.878.506,8.112,4.7Zm-8.869-5.141-8.814-5.112-.877.507,8.814,5.112Zm-11.438-3.446,10.253,5.943.878-.507-10.253-5.943Zm33.775,17.365,4.137,2.376.878-.506-4.137-2.376Zm-7.871-2.373,10.128,5.835.878-.507-10.128-5.835Z" transform="translate(-3.602 -21.986)" fill="#72b5e8"/>
        <path id="Trazado_623862" data-name="Trazado 623862" d="M26.383,206.643l-.877.506,3.153,1.821.877-.506Zm-4.839.391,7.095,4.1.878-.506-7.095-4.1ZM37.388,213l-7.095-4.1-.878.507,7.095,4.1Zm-8.5,1.623-7.463-4.308-.878.506,7.464,4.308Zm8.382-.68,1.944,1.123.878-.507-1.944-1.122ZM29.4,211.567l7.936,4.581.877-.506-7.935-4.581Z" transform="translate(-2.332 -23.439)" fill="#72b5e8"/>
        <path id="Trazado_623863" data-name="Trazado 623863" d="M48.583,135.471a.443.443,0,0,1-.27-.8l.97-.743a.443.443,0,1,1,.539.7l-.969.743a.44.44,0,0,1-.269.091m3.081-2.36a.444.444,0,0,1-.27-.8l1.408-1.079a.443.443,0,0,1,.539.7l-1.407,1.079a.445.445,0,0,1-.269.091m3.519-2.7a.443.443,0,0,1-.27-.8l1.407-1.078a.443.443,0,1,1,.539.7l-1.407,1.078a.445.445,0,0,1-.27.091m3.519-2.7a.444.444,0,0,1-.27-.8l1.408-1.078a.444.444,0,0,1,.54.7l-1.408,1.078a.445.445,0,0,1-.27.091m3.519-2.7a.443.443,0,0,1-.27-.794l1.407-1.079a.443.443,0,1,1,.539.7l-1.407,1.078a.44.44,0,0,1-.269.091m3.519-2.7a.443.443,0,0,1-.27-.794l1.408-1.079a.444.444,0,0,1,.54.7l-1.408,1.078a.44.44,0,0,1-.269.091m3.519-2.695a.443.443,0,0,1-.27-.8l1.407-1.079a.443.443,0,0,1,.539.7l-1.407,1.078a.441.441,0,0,1-.269.092m3.519-2.7a.444.444,0,0,1-.27-.8l.088-.066v-1.226a.443.443,0,1,1,.887,0v1.663l-.434.333a.445.445,0,0,1-.269.091m.261-4.3a.443.443,0,0,1-.443-.443v-1.773a.443.443,0,1,1,.887,0v1.773a.443.443,0,0,1-.443.443" transform="translate(-5.463 -12.481)" fill="#0fbab8"/>
        <path id="Trazado_623864" data-name="Trazado 623864" d="M145.422,316.2h-.029c-.6-.039-1.21-.1-1.8-.2a.442.442,0,0,1-.371-.505.448.448,0,0,1,.505-.371c.566.088,1.145.151,1.724.188a.443.443,0,0,1-.028.886m2.657-.007a.443.443,0,0,1-.031-.886,17.273,17.273,0,0,0,1.715-.208.443.443,0,1,1,.152.872c-.586.1-1.193.176-1.8.221h-.034m-7.012-.765a.447.447,0,0,1-.126-.019c-.582-.173-1.158-.376-1.714-.6a.443.443,0,0,1,.334-.821c.529.215,1.079.409,1.632.573a.444.444,0,0,1-.127.869m11.341-.122a.444.444,0,0,1-.15-.861,12.947,12.947,0,0,0,1.573-.682.443.443,0,0,1,.407.788,13.951,13.951,0,0,1-1.68.729.464.464,0,0,1-.15.026m-15.387-1.66a.436.436,0,0,1-.222-.059l-1.535-.887a.443.443,0,0,1,.443-.767l1.535.887a.443.443,0,0,1-.222.826m19.328-.355a.443.443,0,0,1-.22-.829l1.54-.879a.444.444,0,0,1,.44.77l-1.54.879a.449.449,0,0,1-.22.059m-23.164-1.864a.433.433,0,0,1-.222-.059l-1.535-.888a.443.443,0,0,1,.443-.767l1.535.888a.443.443,0,0,1-.222.826m27.014-.332a.443.443,0,0,1-.22-.828l1.541-.879a.444.444,0,0,1,.44.771l-1.541.879a.448.448,0,0,1-.22.058m3.85-2.2a.444.444,0,0,1-.22-.829l1.54-.879a.444.444,0,1,1,.44.77l-1.54.879a.449.449,0,0,1-.22.059m3.85-2.2a.443.443,0,0,1-.22-.828l1.54-.879a.444.444,0,1,1,.44.77l-1.54.879a.448.448,0,0,1-.22.058m3.85-2.2a.443.443,0,0,1-.22-.829l1.54-.879a.444.444,0,1,1,.44.77l-1.54.879a.449.449,0,0,1-.22.059m3.849-2.2a.444.444,0,0,1-.22-.829l1.541-.879a.444.444,0,0,1,.44.771l-1.541.879a.448.448,0,0,1-.22.058m3.85-2.2a.444.444,0,0,1-.22-.829l1.54-.879a.444.444,0,1,1,.441.77l-1.541.879a.449.449,0,0,1-.22.059m3.85-2.2a.443.443,0,0,1-.22-.828l1.54-.879a.444.444,0,1,1,.44.77l-1.54.879a.448.448,0,0,1-.22.058" transform="translate(-14.891 -33.61)" fill="#ffd70f"/>
        <path id="Trazado_623865" data-name="Trazado 623865" d="M74.367,105.185a4.075,4.075,0,0,0,1.848,3.187,1.633,1.633,0,0,0,.8.246c.576,0,.934-.472.934-1.232A4.075,4.075,0,0,0,76.1,104.2a1.633,1.633,0,0,0-.8-.246c-.576,0-.934.473-.934,1.232" transform="translate(-8.44 -11.798)" fill="#0fbab8"/>
        <path id="Trazado_623866" data-name="Trazado 623866" d="M126.691,310.127c0,.808,1.124,1.462,2.51,1.462s2.511-.654,2.511-1.462-1.124-1.462-2.511-1.462-2.51.654-2.51,1.462" transform="translate(-14.378 -35.031)" fill="#ffd70f"/>
        <path id="Trazado_623867" data-name="Trazado 623867" d="M26.531,241.957c0,.808,1.124,1.462,2.51,1.462s2.511-.654,2.511-1.462-1.124-1.462-2.511-1.462-2.51.654-2.51,1.462" transform="translate(-3.011 -27.294)" fill="#eb4680"/>
        <path id="Trazado_623868" data-name="Trazado 623868" d="M199.472,209.932c0,.808,1.124,1.462,2.51,1.462s2.511-.654,2.511-1.462-1.124-1.462-2.511-1.462-2.51.654-2.51,1.462" transform="translate(-22.638 -23.659)" fill="#0fbab8"/>
        <path id="Trazado_623869" data-name="Trazado 623869" d="M190.8,294.335l3.16,2.106,2.106-3.581Z" transform="translate(-21.655 -33.237)" fill="#ffd70f"/>
        <path id="Trazado_623870" data-name="Trazado 623870" d="M242.517,206.511l3.16,2.106,2.106-3.581Z" transform="translate(-27.524 -23.27)" fill="#0fbab8"/>
        <path id="Trazado_623871" data-name="Trazado 623871" d="M49.48,139.253l-3.16-2.107-2.106,3.582Z" transform="translate(-5.018 -15.565)" fill="#0fbab8"/>
        <path id="Trazado_623872" data-name="Trazado 623872" d="M72.039,268.548l3.16-2.106,2.106,3.581Z" transform="translate(-8.176 -30.239)" fill="#eb4680"/>
        <path id="Trazado_623873" data-name="Trazado 623873" d="M68.8,265.346a.438.438,0,0,1-.222-.059L67.04,264.4a.443.443,0,1,1,.444-.767l1.534.887a.443.443,0,0,1-.223.826m-3.836-2.219a.433.433,0,0,1-.222-.059l-1.535-.887a.443.443,0,0,1,.444-.767l1.535.887a.443.443,0,0,1-.222.826m-3.839-2.219a.443.443,0,0,1-.222-.059l-1.534-.887a.443.443,0,1,1,.444-.767l1.534.887a.443.443,0,0,1-.223.826m-3.836-2.218a.437.437,0,0,1-.222-.06l-1.536-.887a.443.443,0,0,1,.445-.767l1.535.887a.444.444,0,0,1-.222.827m-3.837-2.219a.434.434,0,0,1-.222-.06l-1.536-.887a.443.443,0,0,1,.444-.767l1.536.887a.444.444,0,0,1-.223.827m-3.839-2.219a.441.441,0,0,1-.222-.06l-1.534-.887a.443.443,0,1,1,.443-.767l1.535.887a.443.443,0,0,1,.163.605.447.447,0,0,1-.386.222m-3.837-2.219a.442.442,0,0,1-.222-.06l-1.535-.887a.443.443,0,1,1,.445-.767l1.534.887a.443.443,0,0,1-.222.827m-3.838-2.219a.439.439,0,0,1-.222-.06l-1.535-.887a.443.443,0,1,1,.444-.768l1.535.887a.444.444,0,0,1-.223.827M38.1,247.6a.442.442,0,0,1-.222-.06l-1.535-.887a.443.443,0,0,1,.444-.768l1.535.887a.443.443,0,0,1-.223.827m-3.838-2.219a.44.44,0,0,1-.222-.059L32.5,244.43a.444.444,0,0,1,.445-.768l1.534.887a.444.444,0,0,1-.223.827m-3.836-2.219a.433.433,0,0,1-.222-.059l-.3-.176a.443.443,0,1,1,.443-.767l.3.176a.444.444,0,0,1-.223.827" transform="translate(-3.368 -27.476)" fill="#eb4680"/>
        <path id="Trazado_623874" data-name="Trazado 623874" d="M289.784,68.093c0-.808-1.124-1.462-2.51-1.462s-2.511.654-2.511,1.462,1.124,1.462,2.511,1.462,2.51-.654,2.51-1.462" transform="translate(-32.318 -7.562)" fill="#ffd70f"/>
        <path id="Trazado_623875" data-name="Trazado 623875" d="M249.97,44.865l-3.16,2.106L244.7,43.39Z" transform="translate(-27.772 -4.924)" fill="#ffd70f"/>
        <path id="Trazado_623876" data-name="Trazado 623876" d="M281.105,64.986a.441.441,0,0,1-.221-.059l-1.538-.883a.443.443,0,0,1,.441-.769l1.538.883a.444.444,0,0,1-.221.828m-3.843-2.209a.44.44,0,0,1-.221-.059l-1.538-.884a.443.443,0,0,1,.441-.769l1.538.884a.443.443,0,0,1-.221.827m-3.844-2.208a.44.44,0,0,1-.221-.059l-1.537-.883a.443.443,0,0,1,.441-.769l1.537.883a.443.443,0,0,1-.221.827m-3.843-2.207a.441.441,0,0,1-.221-.059l-1.538-.883a.444.444,0,0,1,.441-.769l1.538.884a.444.444,0,0,1-.221.828m-3.843-2.209a.44.44,0,0,1-.221-.059l-1.538-.884a.443.443,0,0,1,.441-.769l1.538.884a.443.443,0,0,1-.221.827m-3.843-2.208a.44.44,0,0,1-.221-.059L260.13,53a.443.443,0,0,1,.442-.769l1.537.884a.443.443,0,0,1-.221.827m-3.844-2.208a.44.44,0,0,1-.221-.059l-1.537-.884a.443.443,0,0,1,.442-.769l1.536.883a.443.443,0,0,1-.221.828M254.2,49.527a.441.441,0,0,1-.221-.059l-1.537-.883a.443.443,0,1,1,.441-.769l1.537.883a.443.443,0,0,1-.221.828m-3.843-2.208a.44.44,0,0,1-.221-.059l-1.537-.884a.443.443,0,1,1,.441-.769l1.537.883a.443.443,0,0,1-.221.828" transform="translate(-28.189 -5.169)" fill="#ffd70f"/>
        <path id="Trazado_623877" data-name="Trazado 623877" d="M326.719,277.911c0-.808-1.124-1.462-2.51-1.462s-2.511.654-2.511,1.462,1.124,1.462,2.511,1.462,2.51-.654,2.51-1.462" transform="translate(-36.51 -31.375)" fill="#0fbab8"/>
        <path id="Trazado_623878" data-name="Trazado 623878" d="M299.373,261.95l-3.16,2.106-2.106-3.581Z" transform="translate(-33.378 -29.562)" fill="#0fbab8"/>
        <path id="Trazado_623879" data-name="Trazado 623879" d="M319.014,275.382a.449.449,0,0,1-.22-.059l-1.541-.879a.444.444,0,1,1,.441-.77l1.54.879a.444.444,0,0,1-.22.829m-3.85-2.2a.445.445,0,0,1-.22-.058l-1.54-.879a.444.444,0,0,1,.44-.771l1.54.879a.443.443,0,0,1-.22.828m-3.85-2.2a.449.449,0,0,1-.22-.059l-1.54-.879a.444.444,0,1,1,.44-.77l1.54.879a.443.443,0,0,1-.22.829m-3.85-2.2a.447.447,0,0,1-.219-.058l-1.541-.879a.444.444,0,0,1,.44-.77l1.541.879a.443.443,0,0,1-.221.828m-3.849-2.2a.446.446,0,0,1-.22-.059l-1.541-.879a.444.444,0,0,1,.44-.77l1.541.879a.444.444,0,0,1-.22.829m-3.85-2.2a.448.448,0,0,1-.22-.058l-1.54-.879a.443.443,0,0,1-.166-.6.448.448,0,0,1,.605-.166l1.54.879a.443.443,0,0,1-.22.828" transform="translate(-33.795 -29.807)" fill="#0fbab8"/>
        <path id="Trazado_623880" data-name="Trazado 623880" d="M218.435,213.32h-.005q-.895-.011-1.788-.053a.443.443,0,0,1-.422-.463.437.437,0,0,1,.464-.422q.876.041,1.756.051a.443.443,0,0,1,0,.887m2.659-.035a.443.443,0,0,1-.017-.887q.878-.033,1.754-.1a.444.444,0,0,1,.066.885q-.891.065-1.787.1Zm-7.083-.211-.044,0q-.892-.089-1.777-.21a.443.443,0,0,1-.379-.5.438.438,0,0,1,.5-.379q.871.118,1.746.206a.444.444,0,0,1-.043.885m11.5-.16a.443.443,0,0,1-.055-.883q.874-.112,1.736-.256a.443.443,0,1,1,.146.874q-.879.146-1.77.262a.407.407,0,0,1-.057,0m-15.884-.481a.478.478,0,0,1-.086-.008c-.589-.115-1.173-.239-1.751-.377a.442.442,0,0,1-.329-.533.436.436,0,0,1,.533-.329q.85.2,1.717.368a.443.443,0,0,1-.084.879m20.246-.292a.443.443,0,0,1-.1-.875q.86-.2,1.7-.426a.443.443,0,1,1,.232.855q-.856.234-1.737.434a.42.42,0,0,1-.1.012m-24.55-.771a.441.441,0,0,1-.129-.02q-.863-.262-1.7-.559a.443.443,0,1,1,.294-.836q.822.291,1.668.547a.444.444,0,0,1-.129.868m28.81-.441a.443.443,0,0,1-.145-.863q.834-.289,1.64-.613a.443.443,0,1,1,.331.822q-.826.332-1.682.629a.439.439,0,0,1-.145.025m4.086-1.71a.443.443,0,0,1-.2-.84q.79-.394,1.54-.827a.444.444,0,0,1,.443.769q-.773.445-1.586.851a.447.447,0,0,1-.2.047" transform="translate(-23.06 -23.549)" fill="#0fbab8"/>
        <path id="Trazado_623881" data-name="Trazado 623881" d="M290.036,246.578H245.949v2.284c0,7.089,9.87,12.837,22.044,12.837s22.043-5.747,22.043-12.837c0-.059-.006-.118-.008-.177h.008Z" transform="translate(-27.913 -27.984)" fill="#a8cff0"/>
        <path id="Trazado_623882" data-name="Trazado 623882" d="M245.949,245.035c0,7.089,9.87,12.837,22.043,12.837s22.044-5.747,22.044-12.837S280.166,232.2,267.992,232.2s-22.043,5.747-22.043,12.837" transform="translate(-27.913 -26.352)" fill="#d1ebff"/>
        <path id="Trazado_623883" data-name="Trazado 623883" d="M267.993,259.486c-12.041,0-21.822-5.624-22.033-12.607,0,.077-.01.152-.01.23,0,7.089,9.869,12.837,22.043,12.837s22.043-5.747,22.043-12.837c0-.077-.007-.152-.01-.23-.211,6.983-9.991,12.607-22.033,12.607" transform="translate(-27.913 -28.019)" fill="#fff"/>
        <path id="Trazado_623884" data-name="Trazado 623884" d="M288.963,239.7h-41.52v5.59c0,6.677,9.294,12.089,20.759,12.089s20.76-5.412,20.76-12.089c0-.056-.006-.111-.007-.167h.007Z" transform="translate(-28.083 -27.204)" fill="#a8cff0"/>
        <path id="Trazado_623885" data-name="Trazado 623885" d="M247.443,238.249c0,6.676,9.294,12.089,20.76,12.089s20.759-5.413,20.759-12.089S279.668,226.16,268.2,226.16s-20.76,5.413-20.76,12.089" transform="translate(-28.083 -25.667)" fill="#d1ebff"/>
        <path id="Trazado_623886" data-name="Trazado 623886" d="M258.891,237.672c-.694,3.66,3.839,7.593,10.124,8.784s11.942-.81,12.636-4.47-3.839-7.593-10.124-8.784-11.942.809-12.636,4.47" transform="translate(-29.374 -26.427)" fill="#a8cff0"/>
        <path id="Trazado_623887" data-name="Trazado 623887" d="M268.2,251.859c-11.342,0-20.553-5.3-20.751-11.873,0,.073-.009.144-.009.216,0,6.676,9.294,12.089,20.76,12.089s20.758-5.413,20.758-12.089c0-.073-.006-.144-.009-.216-.2,6.577-9.409,11.873-20.75,11.873" transform="translate(-28.083 -27.236)" fill="#fff"/>
        <g id="Grupo_888914" data-name="Grupo 888914" transform="translate(254.607 217.303)" opacity="0.2" style="mix-blend-mode: multiply;isolation: isolate">
          <g id="Grupo_888913" data-name="Grupo 888913">
            <g id="Grupo_888912" data-name="Grupo 888912" clip-path="url(#clip-path-7)">
              <path id="Trazado_623888" data-name="Trazado 623888" d="M287.2,247.617l4.292-2.495,34.585,19.968a8.57,8.57,0,0,1-8.591.012Z" transform="translate(-287.202 -245.122)" fill="#d1ebff"/>
            </g>
          </g>
        </g>
        <path id="Trazado_623889" data-name="Trazado 623889" d="M329.774,258.487a4.78,4.78,0,1,1-6.723.7,4.78,4.78,0,0,1,6.723-.7" transform="translate(-36.542 -29.215)" fill="#001a46"/>
        <path id="Trazado_623890" data-name="Trazado 623890" d="M301.023,233.9l-7.4,9.13,25.211,20.34v0c.012.011.023.021.035.031,1.469,1.191,4.316.113,6.361-2.41s2.511-5.53,1.043-6.721l-.038-.028h0Z" transform="translate(-33.323 -26.546)" fill="#084c94"/>
        <path id="Trazado_623891" data-name="Trazado 623891" d="M300.934,233.856c1.468,1.191,1,4.2-1.043,6.721s-4.893,3.6-6.361,2.41-1-4.2,1.043-6.721,4.893-3.6,6.361-2.41" transform="translate(-33.216 -26.486)" fill="#2672ab"/>
        <path id="Trazado_623892" data-name="Trazado 623892" d="M291.071,228.979l-4.4,5.431,7.167,5.812h0l.014.012c.88.714,2.574.073,3.79-1.427s1.495-3.29.621-4l-.016-.012-.006-.006Z" transform="translate(-32.534 -25.987)" fill="#001a46"/>
        <path id="Trazado_623893" data-name="Trazado 623893" d="M282.884,241.017l-17.71-14.17-2.129,2.66-.057.072c-2.278,2.847-.161,8.328,4.729,12.241s10.7,4.777,12.98,1.929c.02-.024.035-.05.054-.074l0,0Z" transform="translate(-29.743 -25.745)" fill="#72b5e8"/>
        <path id="Trazado_623894" data-name="Trazado 623894" d="M265.421,226.672c-2.278,2.847-.161,8.329,4.729,12.242s10.7,4.777,12.98,1.928.161-8.329-4.729-12.242-10.7-4.776-12.981-1.928" transform="translate(-30.019 -25.535)" fill="#a8cff0"/>
        <path id="Trazado_623895" data-name="Trazado 623895" d="M270.149,239.118c-4.838-3.87-6.958-9.273-4.8-12.146-.026.03-.053.059-.078.089-2.278,2.848-.161,8.329,4.729,12.242s10.7,4.777,12.981,1.928c.025-.03.046-.064.07-.095-2.33,2.738-8.065,1.853-12.9-2.018" transform="translate(-30.002 -25.759)" fill="#fff"/>
        <path id="Trazado_623896" data-name="Trazado 623896" d="M283.409,236.966l-13.788-11.032L267.963,228l-.044.056c-1.774,2.217-.126,6.484,3.682,9.531s8.332,3.718,10.106,1.5c.015-.019.027-.038.043-.057l0,0Z" transform="translate(-30.325 -25.642)" fill="#3f92d1"/>
        <path id="Trazado_623897" data-name="Trazado 623897" d="M269.814,225.8c-1.774,2.217-.126,6.484,3.682,9.531s8.332,3.718,10.106,1.5.126-6.484-3.682-9.53-8.332-3.719-10.106-1.5" transform="translate(-30.54 -25.478)" fill="#ffde17"/>
        <path id="Trazado_623898" data-name="Trazado 623898" d="M273.495,235.486c-3.766-3.013-5.417-7.22-3.737-9.456-.02.023-.041.045-.06.069-1.774,2.217-.125,6.485,3.682,9.531s8.332,3.719,10.106,1.5c.02-.024.036-.05.055-.074-1.814,2.131-6.28,1.442-10.046-1.571" transform="translate(-30.527 -25.652)" fill="#fff"/>
        <path id="Trazado_623899" data-name="Trazado 623899" d="M293.564,224.547l-15.443-12.356-1.856,2.32-7.288,9.11c-1.988,2.483-.141,7.262,4.123,10.674s9.332,4.165,11.319,1.682c.017-.021.031-.043.047-.065l0,0Z" transform="translate(-30.436 -24.082)" fill="#72b5e8"/>
        <path id="Trazado_623900" data-name="Trazado 623900" d="M279.264,212.039c-1.987,2.483-.141,7.262,4.124,10.674s9.331,4.165,11.319,1.682.14-7.262-4.124-10.674-9.332-4.165-11.319-1.682" transform="translate(-31.603 -23.898)" fill="#a8cff0"/>
        <path id="Trazado_623901" data-name="Trazado 623901" d="M283.387,222.891c-4.218-3.375-6.067-8.086-4.184-10.591-.022.026-.046.051-.068.077-1.987,2.484-.14,7.263,4.124,10.674s9.332,4.165,11.319,1.682c.021-.027.04-.056.06-.083-2.031,2.387-7.033,1.616-11.251-1.759" transform="translate(-31.589 -24.094)" fill="#fff"/>
        <path id="Trazado_623902" data-name="Trazado 623902" d="M296.155,221.036,282.367,210l-1.658,2.072-.044.056c-1.774,2.217-.126,6.484,3.682,9.53s8.332,3.719,10.106,1.5c.015-.019.028-.038.043-.057l0,0Z" transform="translate(-31.772 -23.833)" fill="#3f92d1"/>
        <path id="Trazado_623903" data-name="Trazado 623903" d="M282.559,209.868c-1.774,2.217-.126,6.484,3.682,9.531s8.332,3.718,10.106,1.5.126-6.485-3.682-9.531-8.332-3.719-10.106-1.5" transform="translate(-31.987 -23.67)" fill="#ffde17"/>
        <path id="Trazado_623904" data-name="Trazado 623904" d="M286.241,219.556c-3.766-3.013-5.417-7.22-3.737-9.456-.02.023-.041.045-.06.069-1.774,2.217-.125,6.485,3.682,9.531s8.332,3.719,10.106,1.5c.02-.025.036-.05.055-.074-1.814,2.131-6.28,1.442-10.046-1.571" transform="translate(-31.974 -23.844)" fill="#fff"/>
        <path id="Trazado_623905" data-name="Trazado 623905" d="M300.762,218.673l-17.71-14.17-2.129,2.66-.057.072c-2.278,2.847-.161,8.328,4.729,12.241s10.7,4.777,12.98,1.929c.02-.024.035-.05.054-.074l0,0Z" transform="translate(-31.772 -23.209)" fill="#72b5e8"/>
        <path id="Trazado_623906" data-name="Trazado 623906" d="M283.3,204.328c-2.278,2.847-.161,8.329,4.73,12.242s10.7,4.777,12.98,1.928.161-8.329-4.729-12.242-10.7-4.776-12.981-1.928" transform="translate(-32.048 -22.999)" fill="#a8cff0"/>
        <path id="Trazado_623907" data-name="Trazado 623907" d="M288.028,216.773c-4.838-3.871-6.959-9.273-4.8-12.146-.026.03-.053.058-.078.089-2.278,2.848-.161,8.329,4.729,12.242s10.7,4.776,12.981,1.928c.025-.03.046-.064.07-.095-2.33,2.738-8.065,1.853-12.9-2.018" transform="translate(-32.031 -23.223)" fill="#fff"/>
        <g id="Grupo_888917" data-name="Grupo 888917" transform="translate(79.687 202.6)" opacity="0.2">
          <g id="Grupo_888916" data-name="Grupo 888916">
            <g id="Grupo_888915" data-name="Grupo 888915" clip-path="url(#clip-path-8)">
              <path id="Trazado_623908" data-name="Trazado 623908" d="M135.885,300.6,91.81,274.9c-2.846-1.643-2.489-4.512.8-6.409l66.5-38.381c3.285-1.9,8.256-2.1,11.1-.46l44.076,25.7c2.845,1.643,2.488,4.512-.8,6.409l-66.5,38.381c-3.285,1.9-8.255,2.1-11.1.46" transform="translate(-89.889 -228.536)" fill="#92b4d1"/>
            </g>
          </g>
        </g>
        <path id="Trazado_623909" data-name="Trazado 623909" d="M217.5,248.215a3.256,3.256,0,0,0-1.842-2.393l-5.417-3.316,1.151-.425c2.557-.942,2.87-2.9.514-4.39a11.709,11.709,0,0,0-9.087-1.011l-1.3.481-5.417-3.316a11.522,11.522,0,0,0-4.419-1.442,11.366,11.366,0,0,0-5.183.418l-4.751,1.774,28.865,17.675,4.751-1.774c1.394-.514,2.171-1.343,2.14-2.282m-12.26-8.146c-1.1-.676-1.045-1.574.128-2.005a5.367,5.367,0,0,1,4.12.439c1.1.676,1.045,1.574-.128,2.005a5.367,5.367,0,0,1-4.12-.439" transform="translate(-20.626 -26.363)" fill="#a8cff0"/>
        <path id="Trazado_623910" data-name="Trazado 623910" d="M136.232,299.6l-44.1-25.723c-2.83-1.634-2.475-4.488.793-6.374l66.34-38.289c3.268-1.886,8.21-2.091,11.041-.457l44.1,25.723c2.83,1.634,2.474,4.488-.793,6.375l-66.34,38.288c-3.268,1.887-8.211,2.091-11.041.457" transform="translate(-10.24 -25.836)" fill="#084c94"/>
        <path id="Trazado_623911" data-name="Trazado 623911" d="M136.232,298.574l-44.1-25.723c-2.83-1.634-2.475-4.488.793-6.374l66.34-38.289c3.268-1.887,8.21-2.091,11.041-.457l44.1,25.723c2.83,1.634,2.474,4.488-.793,6.375l-66.34,38.288c-3.268,1.887-8.211,2.091-11.041.457" transform="translate(-10.24 -25.72)" fill="#2672ab"/>
        <path id="Trazado_623912" data-name="Trazado 623912" d="M213.613,263.094l-66.34,38.288c-3.268,1.886-8.21,2.091-11.04.457l-44.1-25.723a3.372,3.372,0,0,1-1.893-2.54,3.179,3.179,0,0,0,1.893,3.034l44.1,25.724c2.83,1.634,7.772,1.428,11.04-.458l66.34-38.288c1.9-1.095,2.8-2.515,2.685-3.835-.119,1.173-1.024,2.382-2.685,3.341" transform="translate(-10.24 -29.48)" fill="#3f92d1"/>
        <g id="Grupo_888920" data-name="Grupo 888920" transform="translate(85.043 203.793)" style="mix-blend-mode: multiply;isolation: isolate">
          <g id="Grupo_888919" data-name="Grupo 888919">
            <g id="Grupo_888918" data-name="Grupo 888918" clip-path="url(#clip-path-9)">
              <path id="Trazado_623913" data-name="Trazado 623913" d="M141.313,295.168,95.93,264.474l71.15-34.592,45.383,30.694Z" transform="translate(-95.931 -229.883)" fill="#d1ebff"/>
            </g>
          </g>
        </g>
        <path id="Trazado_623914" data-name="Trazado 623914" d="M142.28,294.105,96.9,263.411l71.15-34.592,45.383,30.694Z" transform="translate(-10.997 -25.969)" fill="#f0f8ff"/>
        <g id="Grupo_888923" data-name="Grupo 888923" transform="translate(82.849 202.463)" style="mix-blend-mode: multiply;isolation: isolate">
          <g id="Grupo_888922" data-name="Grupo 888922">
            <g id="Grupo_888921" data-name="Grupo 888921" clip-path="url(#clip-path-10)">
              <path id="Trazado_623915" data-name="Trazado 623915" d="M141.386,296.014,93.456,268.341l69.212-39.958L210.6,256.055Z" transform="translate(-93.456 -228.382)" fill="#d1ebff"/>
            </g>
          </g>
        </g>
        <path id="Trazado_623916" data-name="Trazado 623916" d="M142.3,294.845,94.857,267.451l68.514-39.557,47.449,27.394Z" transform="translate(-10.765 -25.864)" fill="#fff"/>
        <g id="Grupo_888926" data-name="Grupo 888926" transform="translate(161.442 206.395)" style="mix-blend-mode: multiply;isolation: isolate">
          <g id="Grupo_888925" data-name="Grupo 888925">
            <g id="Grupo_888924" data-name="Grupo 888924" clip-path="url(#clip-path-11)">
              <path id="Trazado_623917" data-name="Trazado 623917" d="M217.28,247.718a3.418,3.418,0,0,0-1.926-2.5l-5.412-3.125,1.074-.621c2.386-1.377,2.554-3.643.2-5.054a9.583,9.583,0,0,0-8.773-.063l-1.218.7-5.412-3.124a9.386,9.386,0,0,0-4.331-1.113,9.584,9.584,0,0,0-4.938,1.1l-4.432,2.088,28.842,16.652,4.433-2.089a3.149,3.149,0,0,0,1.9-2.851m-12.292-7.8a1.212,1.212,0,0,1-.012-2.3,4.394,4.394,0,0,1,3.977.007,1.212,1.212,0,0,1,.012,2.3,4.4,4.4,0,0,1-3.977-.007" transform="translate(-182.11 -232.818)" fill="#d1ebff"/>
            </g>
          </g>
        </g>
        <path id="Trazado_623918" data-name="Trazado 623918" d="M216.922,246.644a3.418,3.418,0,0,0-1.925-2.5l-5.412-3.125,1.074-.621c2.386-1.377,2.554-3.643.2-5.054a9.584,9.584,0,0,0-8.773-.063l-1.218.7-5.412-3.124a9.386,9.386,0,0,0-4.331-1.113,9.584,9.584,0,0,0-4.938,1.1l-4.432,2.585,28.842,16.651,4.433-2.585a3.149,3.149,0,0,0,1.9-2.851m-12.292-7.8a1.212,1.212,0,0,1-.012-2.3,4.394,4.394,0,0,1,3.977.007,1.212,1.212,0,0,1,.012,2.3,4.4,4.4,0,0,1-3.977-.007" transform="translate(-20.627 -26.301)" fill="#a8cff0"/>
        <path id="Trazado_623919" data-name="Trazado 623919" d="M211.418,236.611a4.394,4.394,0,0,0-3.977-.007,1.276,1.276,0,0,0-.788,1.364,1.527,1.527,0,0,1,.788-.92,4.4,4.4,0,0,1,3.977.007,1.553,1.553,0,0,1,.8.933c.116-.488-.149-1-.8-1.377" transform="translate(-23.45 -26.799)" fill="#d1ebff"/>
        <path id="Trazado_623920" data-name="Trazado 623920" d="M214.222,240.7l-1.074.621.385.223.69-.4a3.066,3.066,0,0,0,1.864-2.865,3.319,3.319,0,0,1-1.864,2.421" transform="translate(-24.19 -27.042)" fill="#d1ebff"/>
        <path id="Trazado_623921" data-name="Trazado 623921" d="M215.025,249.495l-4.433,2.585-28.459-16.431-.383.223,28.842,16.651,4.433-2.585a3.151,3.151,0,0,0,1.9-2.851c0-.009,0-.019-.005-.028a3.389,3.389,0,0,1-1.892,2.435" transform="translate(-20.627 -26.744)" fill="#72b5e8"/>
        <path id="Trazado_623922" data-name="Trazado 623922" d="M212.269,249.1l-25.285-14.6,1.084-.617,25.285,14.6Z" transform="translate(-21.221 -26.544)" fill="#d1ebff"/>
        <path id="Trazado_623923" data-name="Trazado 623923" d="M211.983,249.458,186.7,234.86l1.084-.617,25.285,14.6Z" transform="translate(-21.189 -26.584)" fill="#72b5e8"/>
        <path id="Trazado_623924" data-name="Trazado 623924" d="M183.912,248.464l1.168-.674-2.349-1.356-1.168.674Zm9.8,1.418-13.174-7.606-1.168.674,13.174,7.607Zm-22.592-8.807,9.44,5.45,1.168-.674-9.44-5.45ZM202.9,255.189l-8.182-4.724-1.168.674,8.182,4.724Zm-6.362-.785-10.448-6.032-1.168.674,10.448,6.032Zm6.2,2.04,2.448,1.413,1.168-.675-2.448-1.413Zm-31.46-16.623-4.182-2.415-1.168.675,4.182,2.414Zm8.25,1.874-9.93-5.733-1.168.674,9.93,5.733Z" transform="translate(-18.831 -26.78)" fill="#0fbab8"/>
        <path id="Trazado_623925" data-name="Trazado 623925" d="M181.159,252.387l-.878.507,1.766,1.019.877-.507Zm-9.19-2.11,11.729,6.761.878-.506-11.729-6.76Zm3.412,3.128-.878.507,4.981,2.864.877-.506Zm-5.41.058,8.923,5.14.878-.506-8.923-5.141Zm23,5.73-9.288-5.349-.878.507,9.288,5.349Zm-4.755,1.61-7.095-4.1-.878.506,7.095,4.1Zm-25.271-15.758,8.27,4.8.877-.506-8.269-4.8Zm-3.527,4.477,12.022,6.961.878-.506-12.022-6.962Zm12.779,7.4,8.922,5.141.878-.507-8.923-5.14Zm-2.98-3.894.877-.507-3.886-2.264-.878.507Zm.63-6.145,9.679,5.577.878-.506-9.679-5.578Zm4.779,6.088-8.112-4.7-.878.507,8.112,4.7Zm-8.869-5.141-8.814-5.112-.877.507,8.813,5.112Zm-2.692-3.725-4.241-2.472-.878.506,4.242,2.472Zm29.785,16.035,3.143,1.814.878-.506-3.144-1.815Zm-34.19-11.052.878-.507-6.354-3.691-.878.507Zm-4.34-4.7,10.253,5.943.877-.507L155.2,243.875ZM181.874,262.5l6.6,3.8.878-.506-6.6-3.8Zm2.582-5.023,9.656,5.562.878-.506-9.656-5.562Zm3.638,4.271,4.137,2.376.878-.506-4.137-2.376Zm-7.871-2.373,10.128,5.835.878-.507L181.1,258.866Z" transform="translate(-17.285 -27.423)" fill="#72b5e8"/>
        <path id="Trazado_623926" data-name="Trazado 623926" d="M169.225,259.4l-.878.507,1.766,1.02.877-.507Zm-9.19-2.11,11.729,6.761.877-.506-11.729-6.761Zm3.412,3.128-.878.506,4.981,2.865.877-.506Zm-5.41.058,8.923,5.14.878-.506-8.923-5.141Zm23,5.73-9.288-5.349-.878.507,9.288,5.349Zm-4.755,1.61-7.095-4.1-.878.507,7.095,4.1Zm-25.271-15.758,8.27,4.8.877-.506-8.269-4.8Zm6.272,7.98.877-.507-3.886-2.264-.877.506Zm.63-6.146,9.679,5.578.878-.507-9.679-5.577Zm4.779,6.089-8.112-4.7-.878.506,8.112,4.7Zm-8.869-5.141-8.814-5.112-.877.507,8.813,5.112Zm-2.691-3.725-4.242-2.472-.877.506,4.241,2.472Zm29.784,16.035,3.143,1.814.878-.506-3.143-1.815Zm-38.53-15.756,10.253,5.943.878-.507-10.253-5.943Zm30.137,13.094,9.656,5.562.878-.507-9.656-5.561Zm3.638,4.271,4.137,2.376.878-.506-4.137-2.376Zm-7.871-2.373,10.128,5.835.878-.507-10.128-5.834Z" transform="translate(-16.159 -28.218)" fill="#72b5e8"/>
        <path id="Trazado_623927" data-name="Trazado 623927" d="M157.837,265.345l-.878.506,1.766,1.019.878-.506Zm-9.189-2.11L160.377,270l.877-.506-11.729-6.761Zm3.411,3.128-.878.506,4.981,2.865.877-.507Zm-5.41.057,8.923,5.141.878-.507-8.923-5.14Zm23,5.731-9.288-5.349-.878.506,9.288,5.349Zm-4.755,1.61-7.095-4.1-.878.507,7.1,4.1ZM139.622,258l8.269,4.8.877-.507L140.5,257.5Zm-3.528,4.476,12.022,6.962.878-.506-12.022-6.962Zm12.779,7.4,8.922,5.14.878-.506-8.922-5.141Zm-2.98-3.9.878-.506-3.887-2.264-.877.506Zm.63-6.145,9.679,5.578.878-.507-9.679-5.577Zm4.779,6.089-8.112-4.7-.878.506,8.112,4.7Zm-8.869-5.141-8.813-5.112-.878.507,8.814,5.111Zm-2.691-3.725-4.242-2.472-.877.506,4.241,2.472Zm29.784,16.034,3.143,1.815.878-.506-3.143-1.815Zm-34.19-11.051.878-.507-6.354-3.691-.878.506Zm-4.34-4.7,10.253,5.942.878-.506-10.253-5.943Zm27.555,18.116,6.6,3.8.877-.506-6.6-3.8Zm2.582-5.022,9.656,5.562.878-.507-9.656-5.562Zm3.638,4.271,4.137,2.376.878-.506-4.137-2.376Zm-7.871-2.373,10.129,5.834.877-.506-10.128-5.835Zm-10.518-2.718-.878.507,4.981,2.864.877-.506Zm-5.41.058,8.923,5.14.878-.506-8.923-5.141Zm18.243,7.34-7.095-4.1-.878.506,7.095,4.1Zm-19-7.777.877-.507-3.886-2.264-.878.507Zm5.409-.058-8.112-4.7-.878.507,8.112,4.7Zm-8.869-5.141-8.814-5.112-.877.507,8.813,5.112Zm-11.438-3.446,10.253,5.943.878-.507-10.254-5.942Zm33.775,17.365,4.137,2.376.878-.506-4.137-2.376Zm-7.871-2.373,10.128,5.835.878-.507L152.1,275.074Z" transform="translate(-14.222 -28.893)" fill="#72b5e8"/>
        <path id="Trazado_623928" data-name="Trazado 623928" d="M119.964,267.5l-.878.507,3.153,1.82.878-.506Zm-4.839.391,7.095,4.1.878-.506-7.095-4.1Zm15.844,5.963-7.095-4.1-.878.506,7.095,4.1Zm-8.5,1.623L115,271.173l-.878.506,7.463,4.309Z" transform="translate(-12.952 -30.346)" fill="#72b5e8"/>
        <path id="Trazado_623929" data-name="Trazado 623929" d="M156.9,283.6a.178.178,0,0,0-.207-.145l-1.4.246.148-.249a11.973,11.973,0,0,0-7.83-1.171c-2.686.473-4.726,1.768-5.324,3.378l.335.125c.554-1.492,2.489-2.7,5.051-3.151a11.652,11.652,0,0,1,7.516,1.087l-13.933,2.453a.179.179,0,0,0,.031.355.129.129,0,0,0,.031,0l15.438-2.718a.179.179,0,0,0,.145-.207m1.785,3.208-5.539.978a.179.179,0,0,0,.03.355l.032,0,4.024-.71c-.492,1.551-2.439,2.8-5.092,3.269a11.716,11.716,0,0,1-7.458-1.054l6.886-1.18a.179.179,0,1,0-.06-.353l-8.259,1.417a.179.179,0,0,0,.03.355l.03,0,1.3-.223-.156.272a11.291,11.291,0,0,0,5.5,1.316,13.02,13.02,0,0,0,2.25-.194c2.8-.494,4.867-1.854,5.382-3.549l-.281-.085,1.444-.255a.179.179,0,0,0-.062-.352m1.294-1.973c-1.4-2.6-5.472-4.345-10.135-4.345a17.649,17.649,0,0,0-3.056.264c-3.435.6-6.07,2.171-7.049,4.19a3.766,3.766,0,0,0,.093,3.553c1.4,2.6,5.472,4.345,10.135,4.345a17.729,17.729,0,0,0,3.056-.264c3.435-.605,6.071-2.171,7.049-4.19a3.766,3.766,0,0,0-.093-3.553m-.228,3.4c-.929,1.916-3.467,3.409-6.79,3.994a17.364,17.364,0,0,1-2.994.258c-4.464,0-8.5-1.709-9.82-4.157a3.422,3.422,0,0,1-.086-3.228c.928-1.915,3.466-3.408,6.789-3.993a17.282,17.282,0,0,1,2.994-.259c4.464,0,8.5,1.709,9.82,4.157a3.422,3.422,0,0,1,.087,3.228m-9.9-7.155a16.088,16.088,0,0,0-2.79.241c-3.127.551-5.523,1.972-6.409,3.8a3.382,3.382,0,0,0,.084,3.191c1.269,2.36,4.979,3.946,9.228,3.946a16.173,16.173,0,0,0,2.79-.241c3.127-.55,5.523-1.972,6.409-3.8a3.382,3.382,0,0,0-.084-3.191c-1.269-2.36-4.978-3.945-9.228-3.945M159,288.13c-.862,1.778-3.209,3.162-6.28,3.7a15.985,15.985,0,0,1-2.759.238c-4.12,0-7.85-1.583-9.07-3.851a3.21,3.21,0,0,1-.082-3.028c.863-1.777,3.21-3.162,6.28-3.7a16,16,0,0,1,2.759-.238c4.12,0,7.85,1.584,9.071,3.852A3.208,3.208,0,0,1,159,288.13" transform="translate(-15.814 -31.833)" fill="#fc0"/>
        <path id="Trazado_623930" data-name="Trazado 623930" d="M145.726,288.976a.218.218,0,0,1-.041-.432l10.8-2.039a.212.212,0,0,1,.254.173.22.22,0,0,1-.173.255l-10.8,2.039a.224.224,0,0,1-.041,0" transform="translate(-16.514 -32.515)" fill="#fc0"/>
        <path id="Trazado_623931" data-name="Trazado 623931" d="M146.812,287.44a.218.218,0,0,1-.041-.432l7.858-1.484a.214.214,0,0,1,.255.173.22.22,0,0,1-.174.255l-7.858,1.484a.224.224,0,0,1-.041,0" transform="translate(-16.637 -32.404)" fill="#fc0"/>
        <path id="Trazado_623932" data-name="Trazado 623932" d="M133.823,288.55a1.17,1.17,0,0,1-.165-.012.433.433,0,0,1-.363-.328c-.454-1.863.193-3.909,1.978-6.247a3.048,3.048,0,0,0-.845-1c-.088-.068-.418-.308-.488-.36a3.512,3.512,0,0,1-.638,1.378.432.432,0,0,1-.348.172l-.088-.008a.437.437,0,0,1-.332-.326,6.45,6.45,0,0,1-.178-3.185,3.335,3.335,0,0,1,.7-1.293l-1.293.193a5.9,5.9,0,0,1-.369,4.835.435.435,0,0,1-.185.179,2.928,2.928,0,0,1-1.325.293,3.7,3.7,0,0,1-.683-.064,8.3,8.3,0,0,1-.931,3.52.431.431,0,0,1-.385.234,2.026,2.026,0,0,1-1.627-1.038,3.092,3.092,0,0,1-.272-1.47c-.009-1.177,0-2.362.036-3.527a4.475,4.475,0,0,1-.764-1.7.789.789,0,0,1-.1-.182,5.1,5.1,0,0,1-.538-2.238,4.214,4.214,0,0,0-.455-1.915l-.113-.236.781-.373.113.237a5.1,5.1,0,0,1,.54,2.245c.008.192.016.38.042.581a.433.433,0,0,1,.239-.11l.8-.091a.45.45,0,0,1,.335.117.422.422,0,0,1,.133.341q-.062,1.037-.1,2.082a3.211,3.211,0,0,0,.4.065,2.444,2.444,0,0,1,.967.258,1.518,1.518,0,0,1,.665,1.011,7.782,7.782,0,0,1,.213,1.3,2.961,2.961,0,0,0,.7.086,2.206,2.206,0,0,0,.815-.142,5.126,5.126,0,0,0,.068-4.472.439.439,0,0,1,.019-.381.431.431,0,0,1,.316-.219l4.069-.605a.448.448,0,0,1,.479.356.434.434,0,0,1-.348.5,2.667,2.667,0,0,0-2.1,1.845.426.426,0,0,1,.261-.1h0a.42.42,0,0,1,.432.314,2.971,2.971,0,0,1,.089.416,3.315,3.315,0,0,0,.677.577c.1.075.207.15.3.224a3.931,3.931,0,0,1,.894.962q.142-.17.282-.332c.332-.385.676-.769,1.02-1.152.694-.773,1.411-1.573,2.028-2.4a3.386,3.386,0,0,1,.755-1.1.971.971,0,0,1,.388.134,28.979,28.979,0,0,1-2.527,3.942c-.34.38-.681.759-1.01,1.139-.168.2-.342.4-.517.619a4.3,4.3,0,0,1,.2,1.9,10.62,10.62,0,0,1-1.324,3.587,1.556,1.556,0,0,1-1.328.974m1.777-5.569a6.618,6.618,0,0,0-1.54,4.614,1.258,1.258,0,0,0,.319-.414,10.009,10.009,0,0,0,1.235-3.288,3.6,3.6,0,0,0-.014-.912m-8.736-1.5q-.024,1.271-.014,2.532a2.348,2.348,0,0,0,.173,1.078,1.135,1.135,0,0,0,.618.518,7.362,7.362,0,0,0,.7-3.1,4.935,4.935,0,0,1-1.472-1.03m.031-1.262a6.017,6.017,0,0,0,.422.488,4.859,4.859,0,0,0,.946.788,6.756,6.756,0,0,0-.138-.7c-.068-.273-.14-.4-.266-.476a1.754,1.754,0,0,0-.627-.143c-.11-.012-.222-.027-.334-.045Zm6.19-.6a4.587,4.587,0,0,0,.033.663,2.273,2.273,0,0,0,.021-.526,1.051,1.051,0,0,1-.054-.137m-6.952-1.984a2.053,2.053,0,0,0-.041.932c.014-.311.03-.621.048-.933Z" transform="translate(-14.079 -31.08)" fill="#084c94"/>
        <path id="Trazado_623933" data-name="Trazado 623933" d="M222.39,279.006H197.179V282.9c0,4.054,5.644,7.341,12.605,7.341s12.606-3.287,12.606-7.341c0-.034,0-.067,0-.1h0Z" transform="translate(-22.378 -31.665)" fill="#fc0"/>
        <path id="Trazado_623934" data-name="Trazado 623934" d="M197.178,278.123c0,4.054,5.644,7.341,12.606,7.341s12.605-3.287,12.605-7.341-5.644-7.341-12.605-7.341-12.606,3.287-12.606,7.341" transform="translate(-22.378 -30.731)" fill="#ffde17"/>
        <path id="Trazado_623935" data-name="Trazado 623935" d="M209.784,286.388c-6.886,0-12.479-3.216-12.6-7.209,0,.043-.006.087-.006.131,0,4.054,5.644,7.34,12.606,7.34s12.606-3.286,12.606-7.34c0-.044,0-.088-.006-.131-.121,3.993-5.714,7.209-12.6,7.209" transform="translate(-22.378 -31.684)" fill="#fff"/>
        <path id="Trazado_623936" data-name="Trazado 623936" d="M217.226,265.91H203.86v11.368c0,2.149,2.992,3.892,6.683,3.892s6.683-1.743,6.683-3.892c0-.019,0-.036,0-.054h0Z" transform="translate(-23.136 -30.178)" fill="#fc0"/>
        <path id="Trazado_623937" data-name="Trazado 623937" d="M219.83,261.012a9.67,9.67,0,1,1-9.67-9.67,9.67,9.67,0,0,1,9.67,9.67" transform="translate(-22.754 -28.525)" fill="#ffd70f"/>
        <path id="Trazado_623938" data-name="Trazado 623938" d="M212.388,251.5a9.652,9.652,0,0,1-5.982,18.125,9.663,9.663,0,1,0,5.982-18.125" transform="translate(-23.425 -28.543)" fill="#fc0"/>
        <path id="Trazado_623939" data-name="Trazado 623939" d="M211.348,258.124a3.922,3.922,0,1,1-3.923-3.923,3.923,3.923,0,0,1,3.923,3.923" transform="translate(-23.096 -28.85)" fill="#ffde17"/>
        <path id="Trazado_623940" data-name="Trazado 623940" d="M95.27,258.9l-1.725-1.9L68,243.307l.489-.541L66.1,241.039l-.859,2.516-.244,1.508Z" transform="translate(-7.376 -27.356)" fill="#3f92d1"/>
        <path id="Trazado_623941" data-name="Trazado 623941" d="M95.27,259.224h0a2.068,2.068,0,0,1-2.8.84L65,245.392s1.709-1.462,1.727-1.452Z" transform="translate(-7.376 -27.685)" fill="#a8cff0"/>
        <path id="Trazado_623942" data-name="Trazado 623942" d="M94.9,259.592,66.354,244.308c-.012-.007-.814.674-1.321,1.1l-.038-.02s1.708-1.462,1.727-1.452l28.547,15.285a2.045,2.045,0,0,1-.563.656,2.067,2.067,0,0,0,.2-.289" transform="translate(-7.376 -27.685)" fill="#d1ebff"/>
        <path id="Trazado_623943" data-name="Trazado 623943" d="M138.545,275.93c.783.422,3.229,1.029,3.65.246s-1.34-2.66-2.121-3.082a1.611,1.611,0,1,0-1.528,2.836" transform="translate(-15.627 -30.972)" fill="#03336e"/>
        <path id="Trazado_623944" data-name="Trazado 623944" d="M122.832,271.6c-4.146-2.18,1.4-12.86,5.926-10.24s9.525,9.421,9.525,9.421a.043.043,0,0,1,.017.01,2.258,2.258,0,0,1,.092,2.766A2.162,2.162,0,0,1,136.031,275c-.007,0-.012-.006-.017-.01s-9.036-1.212-13.182-3.392" transform="translate(-13.775 -29.616)" fill="#a8cff0"/>
        <g id="Grupo_888929" data-name="Grupo 888929" transform="translate(107.597 231.34)" opacity="0.5">
          <g id="Grupo_888928" data-name="Grupo 888928">
            <g id="Grupo_888927" data-name="Grupo 888927" clip-path="url(#clip-path-12)">
              <path id="Trazado_623945" data-name="Trazado 623945" d="M125.587,270.515c-2.888-1.519-1.074-7.157,1.824-9.556-4.174-.206-8.32,8.676-4.579,10.643,4.146,2.18,13.182,3.392,13.182,3.392s.01.01.016.01a2.067,2.067,0,0,0,2.2-1.175c-1.995-.3-9.1-1.452-12.647-3.315" transform="translate(-121.372 -260.956)" fill="#72b5e8"/>
            </g>
          </g>
        </g>
        <path id="Trazado_623946" data-name="Trazado 623946" d="M111.43,265.54l5.674-10.529,10.606,5.667v0l.043.02c1.693.912,1.8,4.01.229,6.917s-4.209,4.525-5.9,3.613l-.041-.025v0Z" transform="translate(-12.646 -28.941)" fill="#eb4680"/>
        <g id="Grupo_888932" data-name="Grupo 888932" transform="translate(116.782 235.178)" opacity="0.5">
          <g id="Grupo_888931" data-name="Grupo 888931">
            <g id="Grupo_888930" data-name="Grupo 888930" clip-path="url(#clip-path-13)">
              <path id="Trazado_623947" data-name="Trazado 623947" d="M138.645,271.187l-.015-.012s-3.014-3-6.238-5.89a8.512,8.512,0,0,1-.659,2.655c3.138,2.178,6.178,4.156,6.178,4.156a.035.035,0,0,0,.01.008c.932.571,1.255.659,1.456.405s-.1-.723-.731-1.322" transform="translate(-131.733 -265.285)" fill="#d1ebff"/>
            </g>
          </g>
        </g>
        <path id="Trazado_623948" data-name="Trazado 623948" d="M124.834,271.351l-.042-.025v0l-10.606-5.666-2.755,1.088,10.606,5.666v0l.042.025c1.021.551,2.388.175,3.656-.844a2.15,2.15,0,0,1-.9-.244" transform="translate(-12.646 -30.15)" fill="#d62d69"/>
      </g>
    </g>
    <g id="Grupo_888936" data-name="Grupo 888936" transform="translate(97.465 225.827)">
      <g id="Grupo_888935" data-name="Grupo 888935" clip-path="url(#clip-path-14)">
        <rect id="Rectángulo_326251" data-name="Rectángulo 326251" width="10.037" height="12.298" transform="translate(-1.248 0.054) rotate(-3.892)" fill="url(#linear-gradient)"/>
      </g>
    </g>
    <g id="Grupo_888966" data-name="Grupo 888966">
      <g id="Grupo_888965" data-name="Grupo 888965" clip-path="url(#clip-path)">
        <path id="Trazado_623950" data-name="Trazado 623950" d="M67.758,242.08l5.674-10.529,38.791,20.9v0l.043.02c1.693.912,1.8,4.009.229,6.917s-4.209,4.525-5.9,3.613l-.042-.025v0Z" transform="translate(-7.69 -26.279)" fill="#a8cff0"/>
        <g id="Grupo_888939" data-name="Grupo 888939" transform="translate(60.068 205.272)" opacity="0.5">
          <g id="Grupo_888938" data-name="Grupo 888938">
            <g id="Grupo_888937" data-name="Grupo 888937" clip-path="url(#clip-path-16)">
              <path id="Trazado_623951" data-name="Trazado 623951" d="M109.348,261.917l-.042-.025,0,0-38.79-20.9,4.6-8.535-1.681-.906L67.758,242.08l38.791,20.9v0c.015.008.028.017.042.025,1.021.551,2.388.175,3.657-.844a2.155,2.155,0,0,1-.9-.244" transform="translate(-67.758 -231.551)" fill="#72b5e8"/>
            </g>
          </g>
        </g>
        <path id="Trazado_623952" data-name="Trazado 623952" d="M67.61,242.06c1.693.912,4.336-.7,5.9-3.613s1.464-6-.229-6.917-4.336.706-5.9,3.613-1.465,6,.229,6.917" transform="translate(-7.521 -26.248)" fill="#d1ebff"/>
        <path id="Trazado_623953" data-name="Trazado 623953" d="M67.759,243.426v0l.021.012c-.007,0-.013-.01-.02-.013" transform="translate(-7.69 -27.627)" fill="#a8cff0"/>
        <path id="Trazado_623954" data-name="Trazado 623954" d="M67.759,243.426v0l.021.012c-.007,0-.013-.01-.02-.013" transform="translate(-7.69 -27.627)" fill="#a8cff0"/>
        <path id="Trazado_623955" data-name="Trazado 623955" d="M73.48,238.418c1.566-2.908,1.465-6-.229-6.917-.038-.02-.078-.033-.117-.051a2.081,2.081,0,0,1,.558.2c1.693.912,1.8,4.009.229,6.917-1.532,2.842-4.089,4.445-5.785,3.663,1.675.358,3.941-1.2,5.345-3.81" transform="translate(-7.733 -26.268)" fill="#f0f8ff"/>
        <path id="Trazado_623956" data-name="Trazado 623956" d="M60.772,237.147l4.814-8.934,6.023,3.335v0l.036.018c1.437.774,1.524,3.4.194,5.869s-3.572,3.839-5.008,3.066c-.012-.006-.023-.014-.035-.021v0Z" transform="translate(-6.897 -25.9)" fill="#eb4680"/>
        <path id="Trazado_623957" data-name="Trazado 623957" d="M60.646,237.131c1.436.774,3.679-.6,5.008-3.066s1.243-5.094-.194-5.869-3.679.6-5.008,3.066-1.243,5.095.194,5.869" transform="translate(-6.754 -25.874)" fill="#f76195"/>
        <path id="Trazado_623958" data-name="Trazado 623958" d="M66.218,228.223l-.016-.009v0l.017.007" transform="translate(-7.513 -25.9)" fill="#eb4680"/>
        <path id="Trazado_623959" data-name="Trazado 623959" d="M66.218,228.223l-.016-.009v0l.017.007" transform="translate(-7.513 -25.9)" fill="#eb4680"/>
        <g id="Grupo_888942" data-name="Grupo 888942" transform="translate(53.791 202.478)" opacity="0.5">
          <g id="Grupo_888941" data-name="Grupo 888941">
            <g id="Grupo_888940" data-name="Grupo 888940" clip-path="url(#clip-path-17)">
              <path id="Trazado_623960" data-name="Trazado 623960" d="M65.592,234.015c1.211-2.248,1.243-4.625.152-5.615.031.014.064.024.094.041,1.437.774,1.524,3.4.194,5.868s-3.572,3.84-5.008,3.066a1.772,1.772,0,0,1-.347-.253c1.439.669,3.613-.691,4.914-3.106" transform="translate(-60.678 -228.4)" fill="#fff"/>
            </g>
          </g>
        </g>
        <g id="Grupo_888947" data-name="Grupo 888947" transform="translate(74.837 244.485)" opacity="0.2" style="mix-blend-mode: multiply;isolation: isolate">
          <g id="Grupo_888946" data-name="Grupo 888946">
            <g id="Grupo_888945" data-name="Grupo 888945" clip-path="url(#clip-path-18)">
              <g id="Grupo_888944" data-name="Grupo 888944" transform="translate(0 0)">
                <g id="Grupo_888943" data-name="Grupo 888943" clip-path="url(#clip-path-19)">
                  <rect id="Rectángulo_326254" data-name="Rectángulo 326254" width="61.181" height="60.16" transform="matrix(0.737, -0.676, 0.676, 0.737, -17.185, 15.645)" fill="url(#radial-gradient)"/>
                </g>
              </g>
            </g>
          </g>
        </g>
        <g id="Grupo_888952" data-name="Grupo 888952" transform="translate(102.836 244.895)" style="mix-blend-mode: multiply;isolation: isolate">
          <g id="Grupo_888951" data-name="Grupo 888951">
            <g id="Grupo_888950" data-name="Grupo 888950" clip-path="url(#clip-path-20)">
              <g id="Grupo_888949" data-name="Grupo 888949" transform="translate(0 0)">
                <g id="Grupo_888948" data-name="Grupo 888948" clip-path="url(#clip-path-21)">
                  <rect id="Rectángulo_326256" data-name="Rectángulo 326256" width="27.336" height="26.887" transform="matrix(0.737, -0.676, 0.676, 0.737, -7.708, 6.986)" fill="url(#radial-gradient-2)"/>
                </g>
              </g>
            </g>
          </g>
        </g>
        <g id="Grupo_888955" data-name="Grupo 888955" transform="translate(66.963 208.433)" opacity="0.5">
          <g id="Grupo_888954" data-name="Grupo 888954">
            <g id="Grupo_888953" data-name="Grupo 888953" clip-path="url(#clip-path-22)">
              <path id="Trazado_623963" data-name="Trazado 623963" d="M75.535,237.785l38.085,20.324a6.9,6.9,0,0,0,.383-2.764l-37.9-20.227a8.555,8.555,0,0,1-.572,2.667" transform="translate(-75.535 -235.116)" fill="#d1ebff"/>
            </g>
          </g>
        </g>
        <path id="Trazado_623964" data-name="Trazado 623964" d="M67.3,233.845l5.312,2.834a6.271,6.271,0,0,0,.474-2.452c0-.081-.02-.147-.027-.223l-5.152-2.75a7.486,7.486,0,0,1-.607,2.591" transform="translate(-7.638 -26.245)" fill="#f76195"/>
        <path id="Trazado_623965" data-name="Trazado 623965" d="M119.39,261.183l9.726,5.19a7.251,7.251,0,0,0,.441-2.553c0-.068-.018-.124-.022-.19l-9.636-5.144a8.247,8.247,0,0,1-.509,2.7" transform="translate(-13.55 -29.336)" fill="#f76195"/>
        <g id="Grupo_888958" data-name="Grupo 888958" transform="translate(203.011 254.204)" opacity="0.2">
          <g id="Grupo_888957" data-name="Grupo 888957">
            <g id="Grupo_888956" data-name="Grupo 888956" clip-path="url(#clip-path-23)">
              <path id="Trazado_623966" data-name="Trazado 623966" d="M229.882,295.442a1.29,1.29,0,0,1-.013-2.443l9.616-5.552a6.536,6.536,0,0,1,5.9.011c1.632.943,1.641,2.472.019,3.409l-8.59,4.959a.721.721,0,0,1-.654,0,.2.2,0,0,1,0-.378l8.591-4.959c1.262-.73,1.256-1.92-.015-2.653a5.083,5.083,0,0,0-4.595-.008l-9.616,5.551a.892.892,0,0,0,.009,1.689,3.237,3.237,0,0,0,2.925,0l9.209-5.316a.4.4,0,0,0,0-.763,1.465,1.465,0,0,0-1.322,0l-7.674,4.43a.046.046,0,0,0,0,.087.165.165,0,0,0,.15,0l5.644-3.258a.722.722,0,0,1,.653,0c.181.1.183.274,0,.378l-5.644,3.259a1.614,1.614,0,0,1-1.457,0,.445.445,0,0,1-.005-.842l7.674-4.43a2.911,2.911,0,0,1,2.629,0,.8.8,0,0,1,.008,1.519l-9.209,5.317a4.686,4.686,0,0,1-4.232-.008" transform="translate(-229 -286.748)" fill="#92b4d1"/>
            </g>
          </g>
        </g>
        <path id="Trazado_623967" data-name="Trazado 623967" d="M229.882,295.164a1.29,1.29,0,0,1-.013-2.443l9.616-5.552a6.536,6.536,0,0,1,5.9.011c1.632.943,1.641,2.472.019,3.409l-8.59,4.959a.721.721,0,0,1-.654,0,.2.2,0,0,1,0-.378l8.591-4.959c1.262-.73,1.256-1.92-.015-2.653a5.083,5.083,0,0,0-4.595-.008l-9.616,5.551a.891.891,0,0,0,.009,1.688,3.235,3.235,0,0,0,2.925.005l9.209-5.316a.4.4,0,0,0,0-.763,1.465,1.465,0,0,0-1.322,0l-7.674,4.43a.046.046,0,0,0,0,.087.165.165,0,0,0,.15,0l5.644-3.258a.722.722,0,0,1,.653,0c.181.1.183.274,0,.378l-5.644,3.259a1.614,1.614,0,0,1-1.457,0,.445.445,0,0,1-.005-.842l7.674-4.43a2.911,2.911,0,0,1,2.629,0,.8.8,0,0,1,.008,1.519l-9.209,5.317a4.686,4.686,0,0,1-4.232-.008" transform="translate(-25.99 -32.512)" fill="#2672ab"/>
        <path id="Trazado_623968" data-name="Trazado 623968" d="M243.257,288.7a1.462,1.462,0,0,0-1.322,0l-7.673,4.43a.045.045,0,0,0,0,.086.167.167,0,0,0,.151,0l5.644-3.259a.647.647,0,0,1,.215-.051l1.663-.96a1.462,1.462,0,0,1,1.322,0,.525.525,0,0,1,.234.261c.073-.177.005-.37-.234-.508" transform="translate(-26.583 -32.747)" fill="#084c94"/>
        <path id="Trazado_623969" data-name="Trazado 623969" d="M233.494,294.059a1.616,1.616,0,0,0,1.458,0L240.6,290.8c.146-.084.167-.21.074-.311a.3.3,0,0,1-.074.065l-5.644,3.258a1.613,1.613,0,0,1-1.458,0,.565.565,0,0,1-.262-.3.444.444,0,0,0,.262.547" transform="translate(-26.467 -32.968)" fill="#084c94"/>
        <path id="Trazado_623970" data-name="Trazado 623970" d="M244.855,287.345a5.09,5.09,0,0,0-4.6-.009l-9.615,5.552a.947.947,0,0,0-.58.963,1.081,1.081,0,0,1,.58-.715l9.615-5.552a5.087,5.087,0,0,1,4.6.009,1.683,1.683,0,0,1,.937,1.208,1.542,1.542,0,0,0-.937-1.456" transform="translate(-26.109 -32.548)" fill="#084c94"/>
        <path id="Trazado_623971" data-name="Trazado 623971" d="M246.306,290.633l-8.59,4.959a.721.721,0,0,1-.654,0,.293.293,0,0,1-.075-.066c-.093.1-.073.228.075.313a.721.721,0,0,0,.654,0l8.59-4.959a1.973,1.973,0,0,0,1.191-1.822,2.108,2.108,0,0,1-1.191,1.574" transform="translate(-26.889 -32.806)" fill="#084c94"/>
        <path id="Trazado_623972" data-name="Trazado 623972" d="M243.845,289.3a.978.978,0,0,1-.519.63l-9.209,5.318a4.686,4.686,0,0,1-4.232-.008,1.554,1.554,0,0,1-.861-1.1,1.415,1.415,0,0,0,.861,1.351,4.683,4.683,0,0,0,4.232.007l9.209-5.317a.847.847,0,0,0,.519-.878" transform="translate(-25.991 -32.833)" fill="#084c94"/>
        <g id="Grupo_888961" data-name="Grupo 888961" transform="translate(225.577 246.503)" opacity="0.2">
          <g id="Grupo_888960" data-name="Grupo 888960">
            <g id="Grupo_888959" data-name="Grupo 888959" clip-path="url(#clip-path-23)">
              <path id="Trazado_623973" data-name="Trazado 623973" d="M271.192,286.755a1.29,1.29,0,0,0,.013-2.443l-9.616-5.552a6.536,6.536,0,0,0-5.9.011c-1.632.943-1.641,2.472-.019,3.409l8.59,4.959a.724.724,0,0,0,.654,0,.2.2,0,0,0,0-.378l-8.59-4.959c-1.262-.73-1.256-1.92.015-2.653a5.083,5.083,0,0,1,4.595-.008l9.616,5.551a.891.891,0,0,1-.009,1.688,3.235,3.235,0,0,1-2.925.005l-9.209-5.316a.4.4,0,0,1,0-.763,1.465,1.465,0,0,1,1.322,0l7.673,4.43a.046.046,0,0,1,0,.087.165.165,0,0,1-.15,0l-5.644-3.258a.722.722,0,0,0-.653,0c-.182.1-.183.274,0,.378L266.6,285.2a1.614,1.614,0,0,0,1.457,0,.445.445,0,0,0,.005-.842l-7.674-4.43a2.911,2.911,0,0,0-2.629,0,.8.8,0,0,0-.008,1.519l9.209,5.317a4.686,4.686,0,0,0,4.232-.008" transform="translate(-254.456 -278.06)" fill="#92b4d1"/>
            </g>
          </g>
        </g>
        <path id="Trazado_623974" data-name="Trazado 623974" d="M271.192,286.414a1.29,1.29,0,0,0,.013-2.443l-9.616-5.552a6.536,6.536,0,0,0-5.9.011c-1.632.943-1.641,2.472-.019,3.409l8.59,4.959a.724.724,0,0,0,.654,0,.2.2,0,0,0,0-.378l-8.59-4.96c-1.262-.729-1.256-1.919.015-2.652a5.085,5.085,0,0,1,4.595-.009l9.616,5.552a.891.891,0,0,1-.009,1.688,3.235,3.235,0,0,1-2.925.005l-9.209-5.316a.4.4,0,0,1,0-.763,1.465,1.465,0,0,1,1.322,0l7.673,4.43a.046.046,0,0,1,0,.087.165.165,0,0,1-.15,0l-5.644-3.258a.722.722,0,0,0-.653,0c-.182.1-.183.274,0,.378l5.644,3.259a1.614,1.614,0,0,0,1.457,0,.445.445,0,0,0,.005-.842l-7.674-4.43a2.908,2.908,0,0,0-2.629,0,.8.8,0,0,0-.008,1.519l9.209,5.317a4.686,4.686,0,0,0,4.232-.008" transform="translate(-28.878 -31.519)" fill="#72b5e8"/>
        <path id="Trazado_623975" data-name="Trazado 623975" d="M270.669,284.17l-9.616-5.552a5.088,5.088,0,0,0-4.595.009,1.552,1.552,0,0,0-.94,1.441,1.675,1.675,0,0,1,.94-1.222,5.085,5.085,0,0,1,4.595-.009l9.616,5.552a1.074,1.074,0,0,1,.582.73.952.952,0,0,0-.582-.949" transform="translate(-28.998 -31.559)" fill="#3f92d1"/>
        <path id="Trazado_623976" data-name="Trazado 623976" d="M258.883,280.2a1.462,1.462,0,0,1,1.322,0l1.744,1.007a.611.611,0,0,1,.135.031l5.644,3.259a.165.165,0,0,0,.15,0,.046.046,0,0,0,0-.087l-7.673-4.43a1.462,1.462,0,0,0-1.322,0,.4.4,0,0,0-.238.494.514.514,0,0,1,.238-.274" transform="translate(-29.351 -31.757)" fill="#3f92d1"/>
        <path id="Trazado_623977" data-name="Trazado 623977" d="M268.872,285.092a1.613,1.613,0,0,1-1.458,0l-5.644-3.258a.314.314,0,0,1-.09-.078c-.078.1-.05.217.09.3l5.644,3.258a1.613,1.613,0,0,0,1.458,0,.447.447,0,0,0,.267-.533.554.554,0,0,1-.267.313" transform="translate(-29.694 -31.977)" fill="#3f92d1"/>
        <path id="Trazado_623978" data-name="Trazado 623978" d="M265.005,286.792a.315.315,0,0,1-.091.08.721.721,0,0,1-.654,0l-8.59-4.959a2.1,2.1,0,0,1-1.193-1.589,1.981,1.981,0,0,0,1.193,1.808l8.59,4.959a.721.721,0,0,0,.654,0c.14-.082.169-.2.091-.3" transform="translate(-28.88 -31.814)" fill="#3f92d1"/>
        <path id="Trazado_623979" data-name="Trazado 623979" d="M271.545,286.517a4.686,4.686,0,0,1-4.232.008l-9.209-5.317a.974.974,0,0,1-.522-.645.853.853,0,0,0,.522.864l9.209,5.317a4.686,4.686,0,0,0,4.232-.008,1.424,1.424,0,0,0,.863-1.337,1.548,1.548,0,0,1-.863,1.117" transform="translate(-29.232 -31.841)" fill="#3f92d1"/>
        <g id="Grupo_888964" data-name="Grupo 888964" transform="translate(238.148 247.166)" opacity="0.2">
          <g id="Grupo_888963" data-name="Grupo 888963">
            <g id="Grupo_888962" data-name="Grupo 888962" clip-path="url(#clip-path-25)">
              <path id="Trazado_623980" data-name="Trazado 623980" d="M277.858,289.252c-1.523.236-3.259-.23-3.871-1.039l-5.052-6.68c-.852-1.128.183-2.311,2.307-2.64s4.546.322,5.4,1.449l4.513,5.968c.095.125-.02.256-.255.293a.693.693,0,0,1-.6-.16l-4.513-5.968c-.664-.877-2.549-1.383-4.2-1.128s-2.459,1.177-1.8,2.055l5.052,6.681a3.1,3.1,0,0,0,2.675.717c1.052-.162,1.565-.749,1.143-1.308l-4.839-6.4a1.4,1.4,0,0,0-1.209-.324c-.476.074-.707.339-.516.591l4.031,5.331a.158.158,0,0,0,.137.036c.054-.008.081-.038.059-.066l-2.965-3.921c-.094-.125.02-.256.256-.293a.691.691,0,0,1,.6.16l2.965,3.921c.21.278-.045.571-.57.652a1.544,1.544,0,0,1-1.333-.357l-4.031-5.331c-.38-.5.081-1.03,1.027-1.176a2.789,2.789,0,0,1,2.405.645l4.839,6.4c.611.808-.131,1.657-1.654,1.893" transform="translate(-268.636 -278.808)" fill="#92b4d1"/>
            </g>
          </g>
        </g>
        <path id="Trazado_623981" data-name="Trazado 623981" d="M277.858,288.911c-1.523.236-3.259-.23-3.871-1.039l-5.052-6.68c-.852-1.128.183-2.311,2.307-2.64s4.546.322,5.4,1.449l4.513,5.968c.095.125-.02.256-.255.293a.694.694,0,0,1-.6-.16l-4.513-5.968c-.664-.878-2.549-1.383-4.2-1.128s-2.459,1.177-1.8,2.055l5.052,6.681a3.1,3.1,0,0,0,2.675.717c1.052-.162,1.565-.749,1.143-1.308l-4.839-6.4a1.4,1.4,0,0,0-1.209-.324c-.476.074-.707.339-.516.591l4.031,5.331a.158.158,0,0,0,.137.036c.054-.008.081-.038.059-.066l-2.965-3.921c-.094-.125.02-.256.256-.293a.691.691,0,0,1,.6.16l2.965,3.921c.21.278-.045.571-.57.652a1.544,1.544,0,0,1-1.333-.357l-4.031-5.331c-.38-.5.081-1.03,1.027-1.176a2.79,2.79,0,0,1,2.405.645l4.839,6.4c.611.809-.131,1.657-1.654,1.893" transform="translate(-30.488 -31.604)" fill="#2672ab"/>
        <path id="Trazado_623982" data-name="Trazado 623982" d="M274,282.664c-.079.058-.106.134-.049.211l2.789,3.687a.165.165,0,0,0,.118.026c.054-.008.081-.038.059-.067Z" transform="translate(-31.088 -32.08)" fill="#084c94"/>
        <path id="Trazado_623983" data-name="Trazado 623983" d="M279.093,287.089l-4.839-6.4a1.4,1.4,0,0,0-1.209-.324c-.451.07-.671.313-.529.553a.727.727,0,0,1,.529-.278,1.4,1.4,0,0,1,1.209.324l4.839,6.4a.721.721,0,0,1,.122.253.6.6,0,0,0-.122-.527" transform="translate(-30.923 -31.817)" fill="#084c94"/>
        <path id="Trazado_623984" data-name="Trazado 623984" d="M281.225,285.93a.454.454,0,0,1-.207.082.689.689,0,0,1-.6-.16l-4.513-5.968c-.664-.877-2.549-1.383-4.2-1.128-1.344.208-2.112.857-2,1.564.1-.594.835-1.108,2-1.289,1.654-.255,3.539.251,4.2,1.128l4.513,5.968a.692.692,0,0,0,.6.16c.236-.036.35-.167.256-.293Z" transform="translate(-30.608 -31.629)" fill="#084c94"/>
        <path id="Trazado_623985" data-name="Trazado 623985" d="M271.557,281.433l4.031,5.331a1.545,1.545,0,0,0,1.333.357c.489-.075.728-.335.59-.595a.776.776,0,0,1-.59.32,1.545,1.545,0,0,1-1.333-.357l-4.031-5.331a.66.66,0,0,1-.107-.211.539.539,0,0,0,.107.486" transform="translate(-30.805 -31.885)" fill="#084c94"/>
        <path id="Trazado_623986" data-name="Trazado 623986" d="M277.859,288.863c-1.523.235-3.259-.23-3.87-1.038l-5.052-6.681a1.35,1.35,0,0,1-.272-.678,1.249,1.249,0,0,0,.272.953l5.052,6.681c.612.808,2.347,1.273,3.87,1.038,1.246-.193,1.956-.8,1.842-1.453-.1.543-.773,1.013-1.842,1.178" transform="translate(-30.49 -31.83)" fill="#084c94"/>
      </g>
    </g>
  </g>
</svg>
