<svg xmlns="http://www.w3.org/2000/svg" xmlns:xlink="http://www.w3.org/1999/xlink" width="278.145" height="248.184" viewBox="0 0 278.145 248.184">
  <defs>
    <clipPath id="clip-path">
      <rect id="Rectángulo_47349" data-name="Rectángulo 47349" width="278.145" height="248.184" transform="translate(0 63.303)" fill="none"/>
    </clipPath>
  </defs>
  <g id="Grupo_877763" data-name="Grupo 877763" transform="translate(0 -63.303)">
    <g id="Grupo_877762" data-name="Grupo 877762" transform="translate(0 0)" clip-path="url(#clip-path)">
      <path id="Trazado_270235" data-name="Trazado 270235" d="M116.03,27.927h-7.561a8.7,8.7,0,0,0-8.6-10.4H85.03a5.456,5.456,0,0,0-5.421-4.93h-7.3a6.813,6.813,0,0,0-6.115-3.836H37.713A6.846,6.846,0,0,0,30.865,15.6a6.758,6.758,0,0,0,1.026,3.561H9.782a7.392,7.392,0,1,0,0,14.785h.275a7.118,7.118,0,0,0,6.568,9.86H36.344a7.117,7.117,0,0,0,6.568-4.38H53.668A9.041,9.041,0,0,0,62.357,46H116.03a9.038,9.038,0,0,0,0-18.076" transform="translate(9.108 33.443)" fill="#fff"/>
      <path id="Trazado_270236" data-name="Trazado 270236" d="M249.394,130.187,135.151,15.944a9.6,9.6,0,0,0-13.565,0L7.343,130.187Z" transform="translate(28.043 50.167)" fill="#3f8a49"/>
      <path id="Trazado_270237" data-name="Trazado 270237" d="M165.68,100.92l-78.2-78.2a6.567,6.567,0,0,0-9.286,0L0,100.92Z" transform="translate(0 79.435)" fill="#266b32"/>
      <path id="Trazado_270238" data-name="Trazado 270238" d="M193.168,106.23,111.573,24.636a6.85,6.85,0,0,0-9.686,0L20.293,106.23Z" transform="translate(77.498 86.422)" fill="#277c33"/>
      <path id="Trazado_270239" data-name="Trazado 270239" d="M277.436,43.978,273.3,39.844c-4.829-4.829-12.264-5.219-16.606-.877a11.125,11.125,0,0,1-15.729,0,11.125,11.125,0,0,0-15.729,0,11.125,11.125,0,0,1-15.729,0,11.131,11.131,0,0,0-15.734,0,11.125,11.125,0,0,1-15.729,0,11.125,11.125,0,0,0-15.729,0,11.125,11.125,0,0,1-15.729,0,11.125,11.125,0,0,0-15.729,0,11.125,11.125,0,0,1-15.729,0,11.125,11.125,0,0,0-15.729,0,11.125,11.125,0,0,1-15.729,0,11.125,11.125,0,0,0-15.729,0,11.125,11.125,0,0,1-15.729,0,11.125,11.125,0,0,0-15.729,0,11.125,11.125,0,0,1-15.729,0c-4.347-4.342-11.782-3.952-16.611.877L0,43.978a138.959,138.959,0,0,0,277.436,0Z" transform="translate(0 136.376)" fill="#5fceec"/>
      <path id="Trazado_270240" data-name="Trazado 270240" d="M15.462,61.43A140.37,140.37,0,0,0,79.67,76.889,140.385,140.385,0,0,0,143.877,61.43Z" transform="translate(59.049 234.598)" fill="#d68e58"/>
      <path id="Trazado_270242" data-name="Trazado 270242" d="M131.78,17.455H102.336a5.207,5.207,0,0,0-5.123,4.294H82.921a6.28,6.28,0,0,0-6.351-7.359H66.132a5.518,5.518,0,0,0-4.588-2.458H40.688a5.523,5.523,0,0,0,0,11.045h8.366A6.423,6.423,0,0,0,55.1,27.271h4.944a6.906,6.906,0,0,0,0,4.294H42.528a5.52,5.52,0,1,0,0,11.04H84.853a5.521,5.521,0,0,0,5.523-5.518h16.866a7.673,7.673,0,0,0,7.513-9.2H131.78a5.214,5.214,0,1,0,0-10.428" transform="translate(134.293 45.568)" fill="#fff"/>
      <path id="Trazado_270243" data-name="Trazado 270243" d="M107.993,38.834H97.372a5.137,5.137,0,0,0-5.118-4.843H80.987a4.751,4.751,0,0,0,.675-2.419,4.843,4.843,0,0,0-4.843-4.843H73.046a3.291,3.291,0,0,0-3.185-4.241H61.384a3.291,3.291,0,0,0-3.19,4.241H48.368a4.843,4.843,0,0,0,0,9.686H61.273a5.059,5.059,0,0,0,0,5.445H57.751a5.144,5.144,0,0,0,0,10.288H76.515a5.127,5.127,0,0,0,4.352-7.869h6.544A3.942,3.942,0,0,0,91.045,46.7h16.948a3.935,3.935,0,1,0,0-7.869" transform="translate(166.22 85.881)" fill="#fff"/>
      <path id="Trazado_270244" data-name="Trazado 270244" d="M73.85,26.273H66c.01-.13.039-.255.039-.39a4.294,4.294,0,0,0-4.294-4.294H46.131a4.294,4.294,0,0,0-4.294,4.294c0,.135.029.26.039.39H28.566a3.9,3.9,0,0,0-3.576,2.342h-.718a5.836,5.836,0,0,0-5.816,5.465h-9.8a7.419,7.419,0,0,0,0,14.838h1.21c-.01.13-.039.255-.039.39A5.078,5.078,0,0,0,14.9,54.382H26.615a5.078,5.078,0,0,0,5.074-5.074c0-.135-.029-.26-.039-.39h.429a7.4,7.4,0,0,0,7.3-6.25H55.89a5.451,5.451,0,0,0,4.477-8.587H73.85a3.9,3.9,0,0,0,0-7.807" transform="translate(4.728 82.448)" fill="#fff"/>
      <path id="Trazado_270245" data-name="Trazado 270245" d="M29.6,52.02a.687.687,0,1,1-1.373,0L28.636,23.4c0-.058.12-.106.27-.106s.275.048.275.106Z" transform="translate(107.778 88.94)" fill="#ffef24"/>
      <path id="Trazado_270246" data-name="Trazado 270246" d="M29.82,49.967a.687.687,0,1,1-1.373,0l.414-28.625c0-.058.12-.106.27-.106s.275.048.275.106Z" transform="translate(108.638 81.1)" fill="#ffd527"/>
      <path id="Trazado_270247" data-name="Trazado 270247" d="M66.179,53.262H29.367a7.383,7.383,0,0,0-13.782,3.7v2.843H30.394v-.622H66.179Z" transform="translate(59.518 189.271)" fill="#ffd527"/>
      <path id="Trazado_270248" data-name="Trazado 270248" d="M30.974,53.262H67.791a7.38,7.38,0,0,1,13.777,3.7v2.843H66.759v-.622H30.974Z" transform="translate(118.288 189.271)" fill="#ffd527"/>
      <path id="Trazado_270249" data-name="Trazado 270249" d="M51.984,192.38V39.61L40.6,26.329a2.169,2.169,0,0,0-3.4,0L25.827,39.61V192.38Z" transform="translate(98.632 97.417)" fill="#ffef24"/>
      <path id="Trazado_270250" data-name="Trazado 270250" d="M34.528,25.513a2.208,2.208,0,0,0-1.788.81L27,39.6l17.608,0Z" transform="translate(103.096 97.424)" fill="#fffba9"/>
      <rect id="Rectángulo_47343" data-name="Rectángulo 47343" width="5.638" height="152.77" transform="translate(124.456 137.028)" fill="#ffd527"/>
      <rect id="Rectángulo_47344" data-name="Rectángulo 47344" width="2.911" height="152.77" transform="translate(147.706 137.028)" fill="#ffd527"/>
      <rect id="Rectángulo_47345" data-name="Rectángulo 47345" width="11.508" height="14.929" transform="translate(116.652 149.826)" fill="#ff9429"/>
      <path id="Trazado_270251" data-name="Trazado 270251" d="M78.918,33.571v-.53H22.652v8.6h.834v-7.6h2.978v7.6H27.3v-7.6h5.537v7.6h.834v-7.6H43.45v7.6h.829v-7.6H56.611v7.6h.834v-7.6H68.181v7.6h.829v-7.6h5.643v7.6h.834v-7.6h2.67v7.6h.834V33.571Z" transform="translate(86.505 126.181)" fill="#edc314"/>
      <rect id="Rectángulo_47346" data-name="Rectángulo 47346" width="56.266" height="3.947" transform="translate(109.157 164.758)" fill="#fffba9"/>
      <rect id="Rectángulo_47347" data-name="Rectángulo 47347" width="28.133" height="28.88" transform="translate(123.47 229.824)" fill="#ffd527"/>
      <rect id="Rectángulo_47348" data-name="Rectángulo 47348" width="31.092" height="40.229" transform="translate(121.99 256.084)" fill="#ff9429"/>
      <path id="Trazado_270252" data-name="Trazado 270252" d="M87.452,67.57A40.92,40.92,0,0,0,8.677,82.851h1.879a39.995,39.995,0,0,1,79.821-3.166A40.93,40.93,0,0,0,87.452,67.57" transform="translate(33.137 161.051)" fill="#f4f4f4"/>
      <path id="Trazado_270253" data-name="Trazado 270253" d="M11.6,65.944A40.92,40.92,0,0,0,90.377,50.663H88.5A39.995,39.995,0,0,1,8.677,53.829,40.929,40.929,0,0,0,11.6,65.944" transform="translate(33.137 193.48)" fill="#f4f4f4"/>
      <path id="Trazado_270254" data-name="Trazado 270254" d="M30.161,46.923A16.75,16.75,0,0,0,13.56,61.5h1.166a16.279,16.279,0,0,1,31.921-.747,16.752,16.752,0,0,0-16.486-13.83" transform="translate(51.785 179.197)" fill="#f4f4f4"/>
      <path id="Trazado_270255" data-name="Trazado 270255" d="M30.085,65.821a16.75,16.75,0,0,0,16.6-14.577H45.52a16.278,16.278,0,0,1-31.921.747,16.752,16.752,0,0,0,16.486,13.83" transform="translate(51.934 195.699)" fill="#f4f4f4"/>
      <path id="Trazado_270256" data-name="Trazado 270256" d="M32.6,49.826,10.676,52.375c-2.756.193-2.848,2.564,0,2.756l28.253,2.843c.781.087,10.626-2.882,10.626-2.882a1.142,1.142,0,0,0,.352-1.369c-2.154-.342-10.076-1.8-11.98-2.679A13.067,13.067,0,0,0,32.6,49.826" transform="translate(32.743 190.245)" fill="#cacccb"/>
      <path id="Trazado_270257" data-name="Trazado 270257" d="M49.47,51.629a1.182,1.182,0,0,0,.448-.906H8.6a2.276,2.276,0,0,0,2,.945l28.253,2.848c.781.082,10.626-2.887,10.626-2.887" transform="translate(32.828 193.709)" fill="#e5e5e5"/>
      <path id="Trazado_270258" data-name="Trazado 270258" d="M34.492,57.971l21.926-2.549c2.756-.193,2.848-2.564,0-2.756L28.164,49.817c-.781-.082-10.626,2.887-10.626,2.887a1.142,1.142,0,0,0-.352,1.369c2.154.342,10.076,1.8,11.98,2.675a12.994,12.994,0,0,0,5.325,1.224" transform="translate(65.256 190.244)" fill="#cacccb"/>
      <path id="Trazado_270259" data-name="Trazado 270259" d="M17.536,52.7a1.182,1.182,0,0,0-.448.906H58.41a2.276,2.276,0,0,0-2-.945L28.162,49.817c-.781-.082-10.626,2.887-10.626,2.887" transform="translate(65.258 190.244)" fill="#e5e5e5"/>
      <path id="Trazado_270260" data-name="Trazado 270260" d="M16.381,53.673a3.8,3.8,0,1,1,3.8,3.8,3.8,3.8,0,0,1-3.8-3.8" transform="translate(62.558 190.474)" fill="#cacccb"/>
      <path id="Trazado_270261" data-name="Trazado 270261" d="M16.382,50.686a3.794,3.794,0,0,0,7.585,0Z" transform="translate(62.562 193.568)" fill="#b5b5b5"/>
      <path id="Trazado_270262" data-name="Trazado 270262" d="M20.085,53.13a15.79,15.79,0,0,1,1.051-2.824,3.373,3.373,0,0,0-1.291-.255,3.329,3.329,0,0,0-3.32,3.079Z" transform="translate(63.104 191.143)" fill="#e5e5e5"/>
      <path id="Trazado_270263" data-name="Trazado 270263" d="M110.269,67.57A40.92,40.92,0,0,0,31.494,82.851h1.879a39.995,39.995,0,0,1,79.821-3.166,40.929,40.929,0,0,0-2.925-12.115" transform="translate(120.274 161.051)" fill="#f4f4f4"/>
      <path id="Trazado_270264" data-name="Trazado 270264" d="M34.419,65.944a40.92,40.92,0,0,0,78.775-15.281h-1.879a39.995,39.995,0,0,1-79.821,3.166,40.929,40.929,0,0,0,2.925,12.115" transform="translate(120.274 193.48)" fill="#f4f4f4"/>
      <path id="Trazado_270265" data-name="Trazado 270265" d="M52.978,46.923A16.753,16.753,0,0,0,36.377,61.5h1.166a16.278,16.278,0,0,1,31.921-.747,16.752,16.752,0,0,0-16.486-13.83" transform="translate(138.922 179.197)" fill="#f4f4f4"/>
      <path id="Trazado_270266" data-name="Trazado 270266" d="M52.9,65.821A16.753,16.753,0,0,0,69.5,51.244H68.337a16.278,16.278,0,0,1-31.921.747A16.752,16.752,0,0,0,52.9,65.821" transform="translate(139.071 195.699)" fill="#f4f4f4"/>
      <path id="Trazado_270267" data-name="Trazado 270267" d="M55.418,49.826,33.492,52.375c-2.756.193-2.848,2.564,0,2.756l28.253,2.848c.781.082,10.626-2.887,10.626-2.887a1.142,1.142,0,0,0,.352-1.369c-2.154-.342-10.076-1.8-11.98-2.679a13.084,13.084,0,0,0-5.325-1.219" transform="translate(119.876 190.245)" fill="#cacccb"/>
      <path id="Trazado_270268" data-name="Trazado 270268" d="M72.286,51.629a1.182,1.182,0,0,0,.448-.906H31.412a2.276,2.276,0,0,0,2,.945l28.253,2.848c.781.082,10.626-2.887,10.626-2.887" transform="translate(119.961 193.709)" fill="#e5e5e5"/>
      <path id="Trazado_270269" data-name="Trazado 270269" d="M57.308,57.967l21.926-2.549c2.756-.193,2.848-2.564,0-2.756L50.98,49.818C50.2,49.732,40.355,52.7,40.355,52.7A1.142,1.142,0,0,0,40,54.069c2.154.342,10.076,1.8,11.98,2.675a12.994,12.994,0,0,0,5.325,1.224" transform="translate(152.389 190.247)" fill="#cacccb"/>
      <path id="Trazado_270270" data-name="Trazado 270270" d="M40.352,52.7a1.182,1.182,0,0,0-.448.906H81.226a2.276,2.276,0,0,0-2-.945L50.978,49.817C50.2,49.735,40.352,52.7,40.352,52.7" transform="translate(152.391 190.244)" fill="#e5e5e5"/>
      <path id="Trazado_270271" data-name="Trazado 270271" d="M39.2,53.673a3.8,3.8,0,1,1,3.8,3.8,3.8,3.8,0,0,1-3.8-3.8" transform="translate(149.691 190.474)" fill="#cacccb"/>
      <path id="Trazado_270272" data-name="Trazado 270272" d="M39.2,50.687a3.794,3.794,0,0,0,7.585,0Z" transform="translate(149.695 193.571)" fill="#b5b5b5"/>
      <path id="Trazado_270273" data-name="Trazado 270273" d="M42.9,53.13a15.79,15.79,0,0,1,1.051-2.824,3.373,3.373,0,0,0-1.291-.255,3.329,3.329,0,0,0-3.32,3.079Z" transform="translate(150.241 191.143)" fill="#e5e5e5"/>
      <path id="Trazado_270274" data-name="Trazado 270274" d="M4.144,44.531c4.829-4.829,12.264-5.224,16.606-.877a11.125,11.125,0,0,0,15.729,0,11.122,11.122,0,0,1,15.734,0,11.125,11.125,0,0,0,15.729,0,11.116,11.116,0,0,1,15.729,0,11.125,11.125,0,0,0,15.729,0,11.116,11.116,0,0,1,15.729,0,11.125,11.125,0,0,0,15.729,0,11.116,11.116,0,0,1,15.729,0,11.125,11.125,0,0,0,15.729,0,11.116,11.116,0,0,1,15.729,0,11.125,11.125,0,0,0,15.729,0,11.116,11.116,0,0,1,15.729,0,11.125,11.125,0,0,0,15.729,0,11.122,11.122,0,0,1,15.734,0,11.125,11.125,0,0,0,15.729,0c4.342-4.347,11.777-3.952,16.606.877l3.778,3.778c.125-1.441.27-2.877.357-4.327L273.3,39.847c-4.829-4.829-12.264-5.224-16.606-.877a11.125,11.125,0,0,1-15.729,0,11.122,11.122,0,0,0-15.734,0,11.125,11.125,0,0,1-15.729,0,11.116,11.116,0,0,0-15.729,0,11.125,11.125,0,0,1-15.729,0,11.116,11.116,0,0,0-15.729,0,11.125,11.125,0,0,1-15.729,0,11.116,11.116,0,0,0-15.729,0,11.125,11.125,0,0,1-15.729,0,11.116,11.116,0,0,0-15.729,0,11.125,11.125,0,0,1-15.729,0,11.116,11.116,0,0,0-15.729,0,11.125,11.125,0,0,1-15.729,0,11.122,11.122,0,0,0-15.734,0,11.125,11.125,0,0,1-15.729,0c-4.342-4.347-11.778-3.952-16.606.877L0,43.981c.087,1.451.231,2.887.357,4.327Z" transform="translate(0 136.373)" fill="#aef0ff"/>
    </g>
  </g>
</svg>
