<svg id="Grupo_873853" data-name="Grupo 873853" xmlns="http://www.w3.org/2000/svg" xmlns:xlink="http://www.w3.org/1999/xlink" width="183.748" height="136.092" viewBox="0 0 183.748 136.092">
  <defs>
    <clipPath id="clip-path">
      <rect id="Rectángulo_44664" data-name="Rectángulo 44664" width="183.748" height="136.092" fill="none"/>
    </clipPath>
    <clipPath id="clip-path-2">
      <rect id="Rectángulo_44606" data-name="Rectángulo 44606" width="183.748" height="144.586" fill="none"/>
    </clipPath>
    <clipPath id="clip-path-3">
      <path id="Trazado_256334" data-name="Trazado 256334" d="M33.863,51.487c-34.239,19.768-34.239,51.82,0,71.588s89.753,19.768,123.992,0,34.241-51.82,0-71.588C140.736,41.6,118.3,36.66,95.86,36.66s-44.876,4.942-62,14.827" transform="translate(-8.184 -36.66)" fill="none"/>
    </clipPath>
    <clipPath id="clip-path-4">
      <rect id="Rectángulo_44608" data-name="Rectángulo 44608" width="111.617" height="66.09" fill="none"/>
    </clipPath>
    <clipPath id="clip-path-5">
      <rect id="Rectángulo_44610" data-name="Rectángulo 44610" width="57.953" height="56.01" fill="none"/>
    </clipPath>
    <clipPath id="clip-path-7">
      <rect id="Rectángulo_44612" data-name="Rectángulo 44612" width="40.109" height="23.105" fill="none"/>
    </clipPath>
    <clipPath id="clip-path-8">
      <rect id="Rectángulo_44613" data-name="Rectángulo 44613" width="16.203" height="6.005" fill="none"/>
    </clipPath>
    <clipPath id="clip-path-9">
      <rect id="Rectángulo_44614" data-name="Rectángulo 44614" width="11.564" height="6.251" fill="none"/>
    </clipPath>
    <clipPath id="clip-path-10">
      <rect id="Rectángulo_44616" data-name="Rectángulo 44616" width="28.018" height="21.522" fill="none"/>
    </clipPath>
    <clipPath id="clip-path-11">
      <rect id="Rectángulo_44617" data-name="Rectángulo 44617" width="26.067" height="15.29" fill="none"/>
    </clipPath>
    <clipPath id="clip-path-12">
      <rect id="Rectángulo_44618" data-name="Rectángulo 44618" width="19.281" height="11.152" fill="none"/>
    </clipPath>
    <clipPath id="clip-path-13">
      <rect id="Rectángulo_44619" data-name="Rectángulo 44619" width="15.823" height="14.705" fill="none"/>
    </clipPath>
    <clipPath id="clip-path-14">
      <rect id="Rectángulo_44620" data-name="Rectángulo 44620" width="15.823" height="14.359" fill="none"/>
    </clipPath>
    <clipPath id="clip-path-15">
      <rect id="Rectángulo_44621" data-name="Rectángulo 44621" width="8.986" height="11.622" fill="none"/>
    </clipPath>
    <clipPath id="clip-path-16">
      <rect id="Rectángulo_44622" data-name="Rectángulo 44622" width="15.823" height="23.2" fill="none"/>
    </clipPath>
    <clipPath id="clip-path-17">
      <rect id="Rectángulo_44623" data-name="Rectángulo 44623" width="15.823" height="17.632" fill="none"/>
    </clipPath>
    <clipPath id="clip-path-18">
      <rect id="Rectángulo_44624" data-name="Rectángulo 44624" width="7.11" height="4.142" fill="none"/>
    </clipPath>
    <clipPath id="clip-path-19">
      <rect id="Rectángulo_44625" data-name="Rectángulo 44625" width="4.507" height="23.214" fill="none"/>
    </clipPath>
    <clipPath id="clip-path-20">
      <rect id="Rectángulo_44626" data-name="Rectángulo 44626" width="1.69" height="23.227" fill="none"/>
    </clipPath>
    <clipPath id="clip-path-21">
      <rect id="Rectángulo_44627" data-name="Rectángulo 44627" width="5.783" height="11.518" fill="none"/>
    </clipPath>
    <clipPath id="clip-path-22">
      <rect id="Rectángulo_44628" data-name="Rectángulo 44628" width="2.697" height="9.663" fill="none"/>
    </clipPath>
    <clipPath id="clip-path-23">
      <rect id="Rectángulo_44629" data-name="Rectángulo 44629" width="107.589" height="67.298" fill="none"/>
    </clipPath>
    <clipPath id="clip-path-24">
      <rect id="Rectángulo_44630" data-name="Rectángulo 44630" width="34.207" height="25.806" fill="none"/>
    </clipPath>
    <clipPath id="clip-path-25">
      <rect id="Rectángulo_44631" data-name="Rectángulo 44631" width="30.522" height="13.712" fill="none"/>
    </clipPath>
    <clipPath id="clip-path-26">
      <path id="Trazado_256393" data-name="Trazado 256393" d="M105.993,115.519l-2.776,1.613.009,0a3.6,3.6,0,0,0-1.513,3.3,11.141,11.141,0,0,0,5.22,8.738c1.611.93,2.6.93,3.554.514l2.795-1.622a3.6,3.6,0,0,0,1.5-3.3,11.342,11.342,0,0,0-5.132-8.887,4.672,4.672,0,0,0-2.3-.7,2.667,2.667,0,0,0-1.357.348" transform="translate(-101.713 -115.171)" fill="none"/>
    </clipPath>
    <linearGradient id="linear-gradient" x1="-5.683" y1="2.039" x2="-5.626" y2="2.039" gradientUnits="objectBoundingBox">
      <stop offset="0" stop-color="#4a4239"/>
      <stop offset="1" stop-color="#211d18"/>
    </linearGradient>
    <clipPath id="clip-path-28">
      <path id="Trazado_256399" data-name="Trazado 256399" d="M52.534,84.777l-2.776,1.614.009,0a3.593,3.593,0,0,0-1.513,3.3,11.061,11.061,0,0,0,5.117,8.754c1.611.93,2.707.914,3.656.5l2.8-1.623a3.6,3.6,0,0,0,1.5-3.3,11.339,11.339,0,0,0-5.132-8.887,4.671,4.671,0,0,0-2.3-.7,2.666,2.666,0,0,0-1.356.348" transform="translate(-48.253 -84.429)" fill="none"/>
    </clipPath>
    <linearGradient id="linear-gradient-2" x1="-2.638" y1="3.663" x2="-2.581" y2="3.663" xlink:href="#linear-gradient"/>
    <clipPath id="clip-path-30">
      <path id="Trazado_256404" data-name="Trazado 256404" d="M76.883,91.583c-1.929-1.174-16.329-10.15-19.6-12.322,0,0,3.4-1.132,9.841.722,2.639.759,12.895,6.62,16.831,9.777,2.611,2.093,9.319,11.325,9.319,11.325-4.191-2.43-13.885-7.979-16.388-9.5M43.1,77.28l-.693.64a1.738,1.738,0,0,0-.466.747c-.4,1.2-1.28,4.424-.047,6.092a19.12,19.12,0,0,0,4.3,4l.614.355c-.02-.241-.031-.48-.031-.714,0-4.381,3.443-5.791,7.786-3.194,3.382,2.024,5.845,6.951,5.026,11.75a.168.168,0,0,0,.078.182c1.317.746,15.321,8.737,16.01,9.133.73.422,14.312,8.581,20.376,12.213a.2.2,0,0,0,.292-.11c.241-.753.674-3.393,2.448-4.4a6.16,6.16,0,0,1,6.368.2c4.377,2.535,7.632,8.4,6.687,12.839,0,0,.3.164.763.4a11.34,11.34,0,0,1,4.538-2.223c.449-.135.9-.3,1.354-.469,0-.018,0-.032-.009-.051-.256-1.255-1.031-.954-1.087-1.219-1.4-4.018-3.214-7.126-5.1-8.9A157.179,157.179,0,0,0,99.425,104.4,36.457,36.457,0,0,1,93.7,99.242c-2.229-2.48-5.24-5.843-6.894-7.611a25.126,25.126,0,0,0-4.065-3.505c-4.381-3.026-13.285-8.714-16.232-9.713a77.727,77.727,0,0,0-10.152-2.283A32.1,32.1,0,0,1,45.5,72.575a.677.677,0,0,0-.329-.094c-.982,0-1.561,2.626-2.069,4.8" transform="translate(-41.264 -72.481)" fill="none"/>
    </clipPath>
    <linearGradient id="linear-gradient-3" x1="-0.434" y1="1.014" x2="-0.422" y2="1.014" gradientUnits="objectBoundingBox">
      <stop offset="0" stop-color="#ffba84"/>
      <stop offset="1" stop-color="#dd8843"/>
    </linearGradient>
    <clipPath id="clip-path-32">
      <rect id="Rectángulo_44638" data-name="Rectángulo 44638" width="73.704" height="49.705" fill="none"/>
    </clipPath>
    <clipPath id="clip-path-33">
      <rect id="Rectángulo_44639" data-name="Rectángulo 44639" width="38.63" height="34.669" fill="none"/>
    </clipPath>
    <clipPath id="clip-path-34">
      <rect id="Rectángulo_44640" data-name="Rectángulo 44640" width="0.381" height="6.052" fill="none"/>
    </clipPath>
    <clipPath id="clip-path-35">
      <rect id="Rectángulo_44642" data-name="Rectángulo 44642" height="0.001" fill="none"/>
    </clipPath>
    <clipPath id="clip-path-36">
      <path id="Trazado_256411" data-name="Trazado 256411" d="M43.535,75.252h0Z" transform="translate(-43.535 -75.252)" fill="none"/>
    </clipPath>
    <linearGradient id="linear-gradient-4" x1="0.184" y1="0.5" x2="0.816" y2="0.5" gradientUnits="objectBoundingBox">
      <stop offset="0" stop-color="#7a7d8c"/>
      <stop offset="1" stop-color="#34363d"/>
    </linearGradient>
    <clipPath id="clip-path-37">
      <rect id="Rectángulo_44643" data-name="Rectángulo 44643" width="13.082" height="8.301" fill="none"/>
    </clipPath>
    <clipPath id="clip-path-38">
      <rect id="Rectángulo_44644" data-name="Rectángulo 44644" width="2.738" height="2.695" fill="none"/>
    </clipPath>
    <clipPath id="clip-path-39">
      <rect id="Rectángulo_44645" data-name="Rectángulo 44645" width="4.193" height="2.782" fill="none"/>
    </clipPath>
    <clipPath id="clip-path-40">
      <rect id="Rectángulo_44646" data-name="Rectángulo 44646" width="4.111" height="2.65" fill="none"/>
    </clipPath>
    <clipPath id="clip-path-44">
      <rect id="Rectángulo_44650" data-name="Rectángulo 44650" width="42.103" height="28.015" fill="none"/>
    </clipPath>
    <clipPath id="clip-path-45">
      <rect id="Rectángulo_44651" data-name="Rectángulo 44651" width="11.306" height="5.628" fill="none"/>
    </clipPath>
    <clipPath id="clip-path-46">
      <rect id="Rectángulo_44652" data-name="Rectángulo 44652" width="32.783" height="17.81" fill="none"/>
    </clipPath>
    <clipPath id="clip-path-47">
      <rect id="Rectángulo_44653" data-name="Rectángulo 44653" width="44.463" height="25.141" fill="none"/>
    </clipPath>
    <clipPath id="clip-path-48">
      <rect id="Rectángulo_44654" data-name="Rectángulo 44654" width="33.298" height="17.075" fill="none"/>
    </clipPath>
    <clipPath id="clip-path-49">
      <rect id="Rectángulo_44655" data-name="Rectángulo 44655" width="4.496" height="7.176" fill="none"/>
    </clipPath>
    <clipPath id="clip-path-50">
      <rect id="Rectángulo_44656" data-name="Rectángulo 44656" width="26.579" height="15.269" fill="none"/>
    </clipPath>
    <clipPath id="clip-path-51">
      <rect id="Rectángulo_44657" data-name="Rectángulo 44657" width="7.799" height="7.429" fill="none"/>
    </clipPath>
    <clipPath id="clip-path-52">
      <path id="Trazado_256440" data-name="Trazado 256440" d="M89.862,101.611c.077,1.086,1.344,1.7,2.258,1.885.877.18,3.228.311,3.468-.848.236-1.139-1.216-2.992-2.313-3.13a1.5,1.5,0,0,0-.177-.01c-1.224,0-3.288,1.368-3.236,2.1" transform="translate(-89.861 -99.508)" fill="none"/>
    </clipPath>
    <linearGradient id="linear-gradient-5" x1="-12.129" y1="8.67" x2="-11.993" y2="8.67" xlink:href="#linear-gradient-3"/>
    <clipPath id="clip-path-54">
      <rect id="Rectángulo_44660" data-name="Rectángulo 44660" width="5.752" height="4.106" fill="none"/>
    </clipPath>
    <clipPath id="clip-path-55">
      <rect id="Rectángulo_44661" data-name="Rectángulo 44661" width="1.06" height="9.949" fill="none"/>
    </clipPath>
    <clipPath id="clip-path-56">
      <rect id="Rectángulo_44662" data-name="Rectángulo 44662" width="4.272" height="16.161" fill="none"/>
    </clipPath>
  </defs>
  <g id="Grupo_872611" data-name="Grupo 872611">
    <g id="Grupo_872610" data-name="Grupo 872610" clip-path="url(#clip-path)">
      <g id="Grupo_872458" data-name="Grupo 872458">
        <g id="Grupo_872457" data-name="Grupo 872457" clip-path="url(#clip-path-2)">
          <path id="Trazado_256328" data-name="Trazado 256328" d="M157.856,51.487c-34.239-19.768-89.753-19.768-123.992,0s-34.24,51.82,0,71.588,89.753,19.769,123.992,0,34.239-51.819,0-71.588" transform="translate(-0.404 -1.809)" fill="#96ce46"/>
          <path id="Trazado_256329" data-name="Trazado 256329" d="M127.722,77.908l37.452-21.624a75.217,75.217,0,0,0-7.3-4.8c-34.24-19.769-89.753-19.769-123.992,0C18.8,60.194,10.373,71.283,8.577,82.657l51.3,29.618,44.011,25.41c19.7-1.037,38.908-5.9,53.988-14.611,8.524-4.922,14.923-10.6,19.2-16.67Z" transform="translate(-0.423 -1.809)" fill="#767585"/>
        </g>
      </g>
      <g id="Grupo_872466" data-name="Grupo 872466" transform="translate(7.78 34.851)">
        <g id="Grupo_872465" data-name="Grupo 872465" clip-path="url(#clip-path-3)">
          <g id="Grupo_872461" data-name="Grupo 872461" transform="translate(-1.744 41.465)" opacity="0.3" style="mix-blend-mode: multiply;isolation: isolate">
            <g id="Grupo_872460" data-name="Grupo 872460">
              <g id="Grupo_872459" data-name="Grupo 872459" clip-path="url(#clip-path-4)">
                <rect id="Rectángulo_44607" data-name="Rectángulo 44607" width="2.852" height="127.239" transform="translate(0 2.47) rotate(-60)" fill="#767585"/>
              </g>
            </g>
          </g>
          <path id="Trazado_256330" data-name="Trazado 256330" d="M138.939,80.843l36.309-21.131-2.128-2.049L133.878,77.548c1.711,1.058,3.385,2.181,5.061,3.295" transform="translate(-14.386 -37.696)" fill="#767585"/>
          <path id="Trazado_256331" data-name="Trazado 256331" d="M136.6,83.2l.579-.337c-1.7-1.133-3.4-2.27-5.153-3.32-.016-.01-.02-.023-.036-.032l-1.083.549v3.151l53.356,30.763,1.425-2.471Z" transform="translate(-14.239 -38.774)" fill="#858593"/>
          <rect id="Rectángulo_44609" data-name="Rectángulo 44609" width="2.852" height="127.239" transform="translate(-7.78 46.115) rotate(-60)" fill="#858593"/>
          <g id="Grupo_872464" data-name="Grupo 872464" transform="translate(118.014 18.456)" opacity="0.3" style="mix-blend-mode: multiply;isolation: isolate">
            <g id="Grupo_872463" data-name="Grupo 872463">
              <g id="Grupo_872462" data-name="Grupo 872462" clip-path="url(#clip-path-5)">
                <path id="Trazado_256332" data-name="Trazado 256332" d="M141.188,81.871l37.8-21.99L174,56.074s-34.115,19.254-41.676,23.174c.124.091,56.807,32.836,56.807,32.836l1.148-1.909Z" transform="translate(-132.323 -56.074)" fill="#767585"/>
              </g>
            </g>
          </g>
          <path id="Trazado_256333" data-name="Trazado 256333" d="M136.6,78.774l37.8-21.99-1.434-2.465L130.911,78.786l53.356,30.763,1.424-2.471Z" transform="translate(-14.239 -37.531)" fill="#9b9baa"/>
          <rect id="Rectángulo_44611" data-name="Rectángulo 44611" width="2.852" height="127.239" transform="translate(-7.78 42.936) rotate(-60)" fill="#9b9baa"/>
        </g>
      </g>
      <g id="Grupo_872525" data-name="Grupo 872525">
        <g id="Grupo_872524" data-name="Grupo 872524" clip-path="url(#clip-path-2)">
          <g id="Grupo_872469" data-name="Grupo 872469" transform="translate(84.931 40.044)" opacity="0.6" style="mix-blend-mode: multiply;isolation: isolate">
            <g id="Grupo_872468" data-name="Grupo 872468">
              <g id="Grupo_872467" data-name="Grupo 872467" clip-path="url(#clip-path-7)">
                <path id="Trazado_256335" data-name="Trazado 256335" d="M100.265,42.122l29.183,16.746-11.013,6.359-7.117-.1L89.58,50.646l-.241-2.216Z" transform="translate(-89.339 -42.122)" fill="#90909e"/>
              </g>
            </g>
          </g>
          <g id="Grupo_872472" data-name="Grupo 872472" transform="translate(117.746 62.112)" opacity="0.6" style="mix-blend-mode: multiply;isolation: isolate">
            <g id="Grupo_872471" data-name="Grupo 872471">
              <g id="Grupo_872470" data-name="Grupo 872470" clip-path="url(#clip-path-8)">
                <path id="Trazado_256336" data-name="Trazado 256336" d="M127.749,66.785a5,5,0,0,1-1.774.939,3.4,3.4,0,0,0-1.674.5c-1.551,1.315,1.384,2.7,2.418,2.891a20.072,20.072,0,0,0,7.029-.233A13.7,13.7,0,0,0,137.6,69.8c.94-.44,2.246-1.031,2.444-2.154.555-3.138-10.086-2.231-10.749-2.064-.516.13-1.129.915-1.541,1.2" transform="translate(-123.857 -65.336)" fill="#90909e"/>
              </g>
            </g>
          </g>
          <path id="Trazado_256337" data-name="Trazado 256337" d="M111.138,65.432l-25.466-14.7V48.384l25.466,12.955Z" transform="translate(-4.227 -2.387)" fill="#838c8e"/>
          <path id="Trazado_256338" data-name="Trazado 256338" d="M95.959,41.727l25.466,14.7-10.278,5.934L99.532,55.658,86,47.477Z" transform="translate(-4.243 -2.059)" fill="#b5bbbc"/>
          <g id="Grupo_872475" data-name="Grupo 872475" transform="translate(105.618 51.714)" opacity="0.5" style="mix-blend-mode: multiply;isolation: isolate">
            <g id="Grupo_872474" data-name="Grupo 872474">
              <g id="Grupo_872473" data-name="Grupo 872473" clip-path="url(#clip-path-9)">
                <path id="Trazado_256339" data-name="Trazado 256339" d="M122.664,57.055l-3.581-2.068-1.9-.589L111.1,60.649h5.341Z" transform="translate(-111.1 -54.397)" fill="#606768"/>
              </g>
            </g>
          </g>
          <path id="Trazado_256340" data-name="Trazado 256340" d="M112.451,65.862v-2.74l10.278-5.934v2.74Z" transform="translate(-5.548 -2.821)" fill="#606768"/>
          <rect id="Rectángulo_44615" data-name="Rectángulo 44615" width="0.658" height="29.406" transform="matrix(0.5, -0.866, 0.866, 0.5, 81.424, 45.997)" fill="#ddd"/>
          <path id="Trazado_256341" data-name="Trazado 256341" d="M118.461,14.631c0-2.675-2.168-6.1-4.845-7.64L102.8.746c-1.5-.869-2.762-.951-3.738-.4-.6.341-6.59,3.788-8.373,4.815-.31.178-.269.462-.2.812l7.463,35.343,12.053,6.959v9.757l8.449-4.878h0Z" transform="translate(-4.462 0)" fill="#bc0c00"/>
          <g id="Grupo_872478" data-name="Grupo 872478" transform="translate(85.981)" style="mix-blend-mode: screen;isolation: isolate">
            <g id="Grupo_872477" data-name="Grupo 872477">
              <g id="Grupo_872476" data-name="Grupo 872476" clip-path="url(#clip-path-10)">
                <path id="Trazado_256342" data-name="Trazado 256342" d="M118.461,14.631c0-2.675-2.168-6.1-4.845-7.64L102.8.746c-1.5-.869-2.762-.951-3.738-.4-.6.341-6.59,3.788-8.373,4.815-.31.178-.269.462-.2.812l1.5,7.1,14.62,8.442,11.845-6.869Z" transform="translate(-90.443 0)" fill="#ff4b40"/>
              </g>
            </g>
          </g>
          <g id="Grupo_872481" data-name="Grupo 872481" transform="translate(85.996 0.002)" opacity="0.6" style="mix-blend-mode: screen;isolation: isolate">
            <g id="Grupo_872480" data-name="Grupo 872480">
              <g id="Grupo_872479" data-name="Grupo 872479" clip-path="url(#clip-path-11)">
                <path id="Trazado_256343" data-name="Trazado 256343" d="M90.476,5.874l16.313,9.418,9.737-5.646a10.02,10.02,0,0,0-2.908-2.656L102.8.746A4.819,4.819,0,0,0,100.415,0L90.46,5.775c0,.032.01.065.016.1" transform="translate(-90.46 -0.002)" fill="#ff4b40"/>
              </g>
            </g>
          </g>
          <g id="Grupo_872484" data-name="Grupo 872484" transform="translate(89.806 0.707)" style="mix-blend-mode: screen;isolation: isolate">
            <g id="Grupo_872483" data-name="Grupo 872483">
              <g id="Grupo_872482" data-name="Grupo 872482" clip-path="url(#clip-path-12)">
                <path id="Trazado_256344" data-name="Trazado 256344" d="M105.281,11.9l8.466-4.909L103,.783l-.069-.039L94.466,5.652Z" transform="translate(-94.466 -0.744)" fill="#ff4b40"/>
              </g>
            </g>
          </g>
          <path id="Trazado_256345" data-name="Trazado 256345" d="M109.963,58.276,89.46,46.438V7.911c0-2.675,2.168-3.592,4.845-2.047l10.815,6.244c2.675,1.544,4.844,4.965,4.844,7.64Z" transform="translate(-4.414 -0.252)" fill="#e83125"/>
          <path id="Trazado_256346" data-name="Trazado 256346" d="M105.118,12.108,94.3,5.864a4.947,4.947,0,0,0-2.418-.75c-1.45,0-2.425,1-2.425,2.8V46.439l.451.26V7.912c0-1.492.72-2.347,1.975-2.347a4.544,4.544,0,0,1,2.193.689L104.893,12.5c2.547,1.47,4.618,4.723,4.618,7.25V58.017l.451.26V19.749c0-2.675-2.168-6.1-4.844-7.64" transform="translate(-4.414 -0.252)" fill="#c1d6db"/>
          <path id="Trazado_256347" data-name="Trazado 256347" d="M91.257,24.586V9.8l16.542,9.55V34.136Z" transform="translate(-4.502 -0.484)" fill="#bc2a0d"/>
          <path id="Trazado_256348" data-name="Trazado 256348" d="M107.458,33.6,91.635,24.464V10.4l15.823,9.135Z" transform="translate(-4.521 -0.513)" fill="#dce0e2"/>
          <path id="Trazado_256349" data-name="Trazado 256349" d="M103.832,23.557,95.489,18.74a.673.673,0,0,1-.324-.511V14.381c0-.179.145-.24.324-.137l8.343,4.817a.672.672,0,0,1,.323.511V23.42c0,.179-.145.24-.323.137" transform="translate(-4.695 -0.7)" fill="#979fa5"/>
          <path id="Trazado_256350" data-name="Trazado 256350" d="M97.57,19.571l-1.52-.877a.7.7,0,0,1-.339-.536V15.086c0-.187.152-.252.339-.144l1.52.877a.7.7,0,0,1,.339.535v3.073c0,.187-.152.252-.339.144" transform="translate(-4.722 -0.735)" fill="#343f41"/>
          <path id="Trazado_256351" data-name="Trazado 256351" d="M100.6,21.319l-1.52-.877a.7.7,0,0,1-.339-.536V16.834c0-.187.152-.252.339-.144l1.52.877a.7.7,0,0,1,.339.535v3.073c0,.187-.152.252-.339.144" transform="translate(-4.872 -0.821)" fill="#343f41"/>
          <path id="Trazado_256352" data-name="Trazado 256352" d="M103.624,23.067l-1.52-.877a.7.7,0,0,1-.339-.536V18.582c0-.188.152-.252.339-.144l1.52.877a.7.7,0,0,1,.339.535v3.073c0,.187-.152.252-.339.144" transform="translate(-5.021 -0.907)" fill="#343f41"/>
          <path id="Trazado_256353" data-name="Trazado 256353" d="M103.832,30.176l-8.343-4.817a.673.673,0,0,1-.324-.511V21c0-.179.145-.24.324-.137l8.343,4.817a.672.672,0,0,1,.323.511v3.848c0,.179-.145.24-.323.137" transform="translate(-4.695 -1.027)" fill="#979fa5"/>
          <path id="Trazado_256354" data-name="Trazado 256354" d="M97.57,26.191l-1.52-.877a.7.7,0,0,1-.339-.535V21.706c0-.187.152-.252.339-.144l1.52.877a.7.7,0,0,1,.339.535v3.073c0,.187-.152.252-.339.144" transform="translate(-4.722 -1.061)" fill="#343f41"/>
          <path id="Trazado_256355" data-name="Trazado 256355" d="M100.6,27.939l-1.52-.877a.7.7,0,0,1-.339-.535V23.454c0-.187.152-.252.339-.144l1.52.877a.7.7,0,0,1,.339.535V27.8c0,.187-.152.252-.339.144" transform="translate(-4.872 -1.147)" fill="#343f41"/>
          <path id="Trazado_256356" data-name="Trazado 256356" d="M103.624,29.687l-1.52-.877a.7.7,0,0,1-.339-.536V25.2c0-.187.152-.252.339-.144l1.52.877a.7.7,0,0,1,.339.535v3.073c0,.187-.152.252-.339.144" transform="translate(-5.021 -1.234)" fill="#343f41"/>
          <g id="Grupo_872487" data-name="Grupo 872487" transform="translate(87.114 9.885)" opacity="0.6" style="mix-blend-mode: multiply;isolation: isolate">
            <g id="Grupo_872486" data-name="Grupo 872486">
              <g id="Grupo_872485" data-name="Grupo 872485" clip-path="url(#clip-path-13)">
                <path id="Trazado_256357" data-name="Trazado 256357" d="M92.744,12.147l14.714,8.5V19.534L91.635,10.4V24.463l1.108.64Z" transform="translate(-91.635 -10.398)" fill="#979fa5"/>
              </g>
            </g>
          </g>
          <g id="Grupo_872490" data-name="Grupo 872490" transform="translate(87.114 9.885)" opacity="0.6" style="mix-blend-mode: multiply;isolation: isolate">
            <g id="Grupo_872489" data-name="Grupo 872489">
              <g id="Grupo_872488" data-name="Grupo 872488" clip-path="url(#clip-path-14)">
                <path id="Trazado_256358" data-name="Trazado 256358" d="M92.145,11.2l15.313,8.841v-.51L91.635,10.4V24.463l.51.294Z" transform="translate(-91.635 -10.398)" fill="#979fa5"/>
              </g>
            </g>
          </g>
          <g id="Grupo_872493" data-name="Grupo 872493" transform="translate(90.47 13.494)" opacity="0.6" style="mix-blend-mode: multiply;isolation: isolate">
            <g id="Grupo_872492" data-name="Grupo 872492">
              <g id="Grupo_872491" data-name="Grupo 872491" clip-path="url(#clip-path-15)">
                <path id="Trazado_256359" data-name="Trazado 256359" d="M95.166,18.23V14.38c0-.178.144-.24.323-.136l8.344,4.817a.691.691,0,0,1,.318.461.661.661,0,0,0-.1-.075L95.709,14.63c-.179-.1-.323-.042-.323.137v3.848a.437.437,0,0,0,0,.049.647.647,0,0,1-.224-.435m.22,6.679V21.061c0-.179.144-.24.323-.137l8.344,4.817a.654.654,0,0,1,.1.074.689.689,0,0,0-.318-.46l-8.344-4.817c-.179-.1-.323-.043-.323.136v3.848a.647.647,0,0,0,.224.436.459.459,0,0,1,0-.049" transform="translate(-95.166 -14.194)" fill="#979fa5"/>
              </g>
            </g>
          </g>
          <path id="Trazado_256360" data-name="Trazado 256360" d="M97.152,18.685a.271.271,0,0,1-.026.129.132.132,0,0,1-.068.063.163.163,0,0,1-.1.006.339.339,0,0,1-.11-.043.56.56,0,0,1-.11-.085.647.647,0,0,1-.1-.117.616.616,0,0,1-.068-.143.486.486,0,0,1-.026-.158V15.932a.271.271,0,0,1,.026-.129.128.128,0,0,1,.068-.063.165.165,0,0,1,.1-.006.356.356,0,0,1,.11.043.621.621,0,0,1,.11.085.685.685,0,0,1,.1.117.629.629,0,0,1,.068.142.5.5,0,0,1,.026.159Zm-.219-2.54a.216.216,0,0,0-.026-.107.164.164,0,0,0-.056-.064.052.052,0,0,0-.057,0c-.017.011-.026.037-.026.078v2.422a.216.216,0,0,0,.026.107.158.158,0,0,0,.057.064.05.05,0,0,0,.056,0c.017-.011.026-.037.026-.078Z" transform="translate(-4.764 -0.776)" fill="#dce0e2"/>
          <path id="Trazado_256361" data-name="Trazado 256361" d="M99.568,17.674a.221.221,0,0,1,.045-.157.143.143,0,0,1,.11-.045.307.307,0,0,1,.145.048.588.588,0,0,1,.145.12.68.68,0,0,1,.111.174.5.5,0,0,1,.045.207c0,.034,0,.061,0,.08s0,.039-.006.06-.009.048-.016.08l-.029.14c-.012.061-.029.14-.048.237s-.041.223-.067.376-.057.337-.093.554-.077.472-.124.769l.383.222V20.7l-.6-.347q.073-.472.13-.82t.1-.6l.068-.418c.018-.11.033-.2.045-.271s.02-.124.026-.161.009-.067.012-.088a.413.413,0,0,0,0-.05V17.9a.335.335,0,0,0-.026-.139.158.158,0,0,0-.057-.073.043.043,0,0,0-.056.009.16.16,0,0,0-.026.108v.492l-.219-.126Z" transform="translate(-4.913 -0.862)" fill="#dce0e2"/>
          <path id="Trazado_256362" data-name="Trazado 256362" d="M102.629,19.441a.267.267,0,0,1,.026-.128.134.134,0,0,1,.068-.064.182.182,0,0,1,.1-.006.367.367,0,0,1,.109.043.559.559,0,0,1,.11.085.647.647,0,0,1,.1.117.617.617,0,0,1,.068.143.49.49,0,0,1,.026.158v.93a.466.466,0,0,1,0,.048.1.1,0,0,1-.018.049.09.09,0,0,1-.048.031.2.2,0,0,1-.1,0,.646.646,0,0,1,.1.1.5.5,0,0,1,.048.088.256.256,0,0,1,.018.07c0,.02,0,.037,0,.05v1.04a.27.27,0,0,1-.026.128.128.128,0,0,1-.068.063.173.173,0,0,1-.1.007.386.386,0,0,1-.11-.044.577.577,0,0,1-.109-.084.689.689,0,0,1-.1-.118.629.629,0,0,1-.068-.142.5.5,0,0,1-.026-.159v-.765l.219.126v.765a.327.327,0,0,0,.026.138.168.168,0,0,0,.056.074.044.044,0,0,0,.057-.009.163.163,0,0,0,.026-.108V21.029A.24.24,0,0,0,103,20.96a.167.167,0,0,0-.025-.047.157.157,0,0,0-.035-.031l-.04-.026-.109-.063v-.219l.109.063.04.022a.074.074,0,0,0,.035.008.03.03,0,0,0,.025-.019.136.136,0,0,0,.009-.058v-.929a.333.333,0,0,0-.026-.138.158.158,0,0,0-.057-.073.043.043,0,0,0-.056.009.16.16,0,0,0-.026.108v.711l-.219-.126Z" transform="translate(-5.064 -0.949)" fill="#dce0e2"/>
          <path id="Trazado_256363" data-name="Trazado 256363" d="M96.54,22.511a.226.226,0,0,1,.045-.157.144.144,0,0,1,.111-.045.307.307,0,0,1,.145.048.555.555,0,0,1,.145.12.68.68,0,0,1,.111.174.5.5,0,0,1,.045.207c0,.034,0,.061,0,.08s0,.039-.006.06-.009.048-.016.08l-.029.14c-.012.061-.029.14-.048.237s-.041.223-.067.376-.057.337-.092.554-.078.472-.125.769l.383.222v.164l-.6-.347q.073-.472.13-.82t.1-.6l.068-.418c.018-.11.033-.2.045-.271s.02-.124.026-.161.01-.067.012-.088a.412.412,0,0,0,0-.05v-.05a.334.334,0,0,0-.026-.138.158.158,0,0,0-.057-.073.043.043,0,0,0-.056.009.16.16,0,0,0-.026.108v.492L96.54,23Z" transform="translate(-4.763 -1.101)" fill="#dce0e2"/>
          <path id="Trazado_256364" data-name="Trazado 256364" d="M99.968,25.685a.216.216,0,0,0-.026-.107.171.171,0,0,0-.056-.064.052.052,0,0,0-.057,0q-.026.016-.026.08l-.219-.126V23.99l.6.348V24.5l-.383-.221v1.092a.117.117,0,0,1,.082-.029.209.209,0,0,1,.1.03.286.286,0,0,1,.074.061.431.431,0,0,1,.067.1.581.581,0,0,1,.046.126.674.674,0,0,1,.017.158v1.2a.27.27,0,0,1-.026.128.134.134,0,0,1-.068.064.179.179,0,0,1-.1.006.365.365,0,0,1-.11-.044.582.582,0,0,1-.11-.084.654.654,0,0,1-.1-.118.61.61,0,0,1-.068-.142.492.492,0,0,1-.026-.159v-.984l.219.126V26.8a.327.327,0,0,0,.026.138.157.157,0,0,0,.057.074A.043.043,0,0,0,99.942,27a.165.165,0,0,0,.026-.109Z" transform="translate(-4.913 -1.184)" fill="#dce0e2"/>
          <path id="Trazado_256365" data-name="Trazado 256365" d="M103.177,27.1v1.919l-.219-.126v-.607l-.383-.221.109-2.283.219.126L102.794,28l.164.1V26.976Z" transform="translate(-5.061 -1.272)" fill="#dce0e2"/>
          <g id="Grupo_872496" data-name="Grupo 872496" transform="translate(87.114 9.885)" opacity="0.4">
            <g id="Grupo_872495" data-name="Grupo 872495">
              <g id="Grupo_872494" data-name="Grupo 872494" clip-path="url(#clip-path-16)">
                <path id="Trazado_256366" data-name="Trazado 256366" d="M107.458,33.6,91.635,24.464V10.4l15.823,9.135Z" transform="translate(-91.635 -10.398)" fill="#76d5ff"/>
              </g>
            </g>
          </g>
          <g id="Grupo_872499" data-name="Grupo 872499" transform="translate(87.114 12.94)" opacity="0.6" style="mix-blend-mode: screen;isolation: isolate">
            <g id="Grupo_872498" data-name="Grupo 872498">
              <g id="Grupo_872497" data-name="Grupo 872497" clip-path="url(#clip-path-17)">
                <path id="Trazado_256367" data-name="Trazado 256367" d="M102.006,16.545,91.635,20.928v-5.08l5.291-2.236ZM94.854,26.48l12.6-5.328v-1.46l-1.629-.941L91.764,24.7Zm8.252,4.764q2.179-.921,4.352-1.852V26.014l-7.742,3.273Z" transform="translate(-91.635 -13.612)" fill="#76d5ff"/>
              </g>
            </g>
          </g>
          <path id="Trazado_256368" data-name="Trazado 256368" d="M95.713,32.458a2.112,2.112,0,0,1-1.017-1.6v-.486c0-.56.456-.755,1.017-.43l6.306,3.64a2.114,2.114,0,0,1,1.017,1.606v.485c0,.56-.456.754-1.017.429Z" transform="translate(-4.672 -1.469)" fill="#bc2a0d"/>
          <path id="Trazado_256369" data-name="Trazado 256369" d="M95.735,32.06a1.233,1.233,0,0,1-.593-.935v-.485c0-.327.266-.439.593-.25l6.306,3.64a1.231,1.231,0,0,1,.592.935v.485c0,.327-.265.439-.592.25Z" transform="translate(-4.694 -1.495)" fill="#dceff4"/>
          <path id="Trazado_256370" data-name="Trazado 256370" d="M102.048,35.548l-6.306-3.64a.9.9,0,0,1-.431-.681v-.485c0-.238.193-.319.431-.183l6.306,3.641a.893.893,0,0,1,.432.68v.485c0,.239-.193.32-.432.183" transform="translate(-4.703 -1.504)" fill="#99afb5"/>
          <g id="Grupo_872502" data-name="Grupo 872502" transform="translate(90.61 28.989)" style="mix-blend-mode: multiply;isolation: isolate">
            <g id="Grupo_872501" data-name="Grupo 872501">
              <g id="Grupo_872500" data-name="Grupo 872500" clip-path="url(#clip-path-18)">
                <path id="Trazado_256371" data-name="Trazado 256371" d="M95.4,31.475V31c0-.233.188-.312.42-.178l6.6,3.81a.947.947,0,0,0-.374-.434l-6.306-3.64c-.238-.138-.431-.056-.431.182v.486a.7.7,0,0,0,.1.324.431.431,0,0,1-.008-.077" transform="translate(-95.312 -30.493)" fill="#99afb5"/>
              </g>
            </g>
          </g>
          <g id="Grupo_872505" data-name="Grupo 872505" transform="translate(109.491 29.901)" opacity="0.5" style="mix-blend-mode: multiply;isolation: isolate">
            <g id="Grupo_872504" data-name="Grupo 872504">
              <g id="Grupo_872503" data-name="Grupo 872503" clip-path="url(#clip-path-19)">
                <path id="Trazado_256372" data-name="Trazado 256372" d="M119.681,53.76l-.2-.408c-1.873.909-2.764.048-2.993-.238a2.019,2.019,0,0,1-.415-1.263v-20.4h-.9v20.4a2.926,2.926,0,0,0,.613,1.827,2.716,2.716,0,0,0,2.146.989,4.324,4.324,0,0,0,1.748-.414Z" transform="translate(-115.174 -31.453)" fill="#9b0400"/>
              </g>
            </g>
          </g>
          <g id="Grupo_872508" data-name="Grupo 872508" transform="translate(112.308 28.561)" opacity="0.5" style="mix-blend-mode: multiply;isolation: isolate">
            <g id="Grupo_872507" data-name="Grupo 872507">
              <g id="Grupo_872506" data-name="Grupo 872506" clip-path="url(#clip-path-20)">
                <path id="Trazado_256373" data-name="Trazado 256373" d="M119.454,51.919a2.02,2.02,0,0,1-.415-1.264V30.465l-.9-.422V50.654a2.922,2.922,0,0,0,.613,1.827,2.669,2.669,0,0,0,1.077.788V52.253a1.651,1.651,0,0,1-.374-.335" transform="translate(-118.137 -30.043)" fill="#9b0400"/>
              </g>
            </g>
          </g>
          <path id="Trazado_256374" data-name="Trazado 256374" d="M118.25,29.569l-5.539,3.2a.121.121,0,0,1-.183-.106V21.531a.123.123,0,0,1,.061-.106l5.54-3.2a.121.121,0,0,1,.183.106v11.13a.121.121,0,0,1-.061.106" transform="translate(-5.552 -0.898)" fill="#768a8e"/>
          <g id="Grupo_872511" data-name="Grupo 872511" transform="translate(106.976 17.313)" style="mix-blend-mode: multiply;isolation: isolate">
            <g id="Grupo_872510" data-name="Grupo 872510">
              <g id="Grupo_872509" data-name="Grupo 872509" clip-path="url(#clip-path-21)">
                <path id="Trazado_256375" data-name="Trazado 256375" d="M118.128,18.227l-5.54,3.2a.123.123,0,0,0-.061.106V21.9l5.263-3.038a.122.122,0,0,1,.183.106V29.729l.277-.161a.121.121,0,0,0,.061-.106V18.333a.122.122,0,0,0-.183-.106" transform="translate(-112.528 -18.211)" fill="#99afb5"/>
              </g>
            </g>
          </g>
          <path id="Trazado_256376" data-name="Trazado 256376" d="M121.639,53.115c-.82,0-1.571-.685-2.009-1.831a17.148,17.148,0,0,1-.664-5.647,33.507,33.507,0,0,1,1.178-8.5c.588-2.225.939-4.194,1.185-5.291l.648-.269c-.3,2.808-2.162,7.968-2.283,11.432-.025.692.016,1.37.012,2.028v.13l.124.037c2.225.665,3.861,3.478,3.838,5.549a2.156,2.156,0,0,1-1.759,2.343,1.457,1.457,0,0,1-.271.024m-1.933-7.129a18.049,18.049,0,0,0,.442,5.1c.353.922.912,1.473,1.5,1.473a.811.811,0,0,0,.165-.015,1.621,1.621,0,0,0,1.3-1.8,5.745,5.745,0,0,0-3.17-4.919l-.238-.094Z" transform="translate(-5.87 -1.558)" fill="#222930"/>
          <path id="Trazado_256377" data-name="Trazado 256377" d="M118.863,54.34a1.981,1.981,0,0,1-1.331-.474c-1.671-1.438-1.347-5.744-1-10.3.043-.573.093-1.142.142-1.7a22.837,22.837,0,0,0,.1-5.365c-.115-.607-.249-1.239-.357-1.748-.05-.235-.094-.443-.129-.61l.47-.087c.057.415.36,1.513.487,2.252a31.53,31.53,0,0,1-.13,6.887l-.03.411c-.3,4.025-.648,8.586.811,9.841a1.446,1.446,0,0,0,.973.341,2.544,2.544,0,0,0,.561-.069,2.952,2.952,0,0,0,1.634-1.276,1.408,1.408,0,0,0,.153-1.161,1.761,1.761,0,0,0-1.458-1.154l.075-.55a2.326,2.326,0,0,1,1.912,1.535,1.963,1.963,0,0,1-.2,1.6,3.483,3.483,0,0,1-1.992,1.543,3.123,3.123,0,0,1-.691.083" transform="translate(-5.736 -1.68)" fill="#222930"/>
          <path id="Trazado_256378" data-name="Trazado 256378" d="M115,31.473a.3.3,0,0,1-.047-.183l.446-3.133L115.185,28l-.447,3.133a.713.713,0,0,0,.056.431.9.9,0,0,0,.356.279l1.143.66.011-.3s-1.264-.664-1.3-.729" transform="translate(-5.661 -1.382)" fill="#adc5c9"/>
          <path id="Trazado_256379" data-name="Trazado 256379" d="M116.142,30.1a1.087,1.087,0,0,0-.227-.5c-.049-.062-.184-.222-.242-.218a2.988,2.988,0,0,1-.406,1.782c-.025.033.034.114.075.1a1.441,1.441,0,0,0,.83-.7c.053-.152,0-.26-.029-.466" transform="translate(-5.687 -1.45)" fill="#e83125"/>
          <path id="Trazado_256380" data-name="Trazado 256380" d="M114.006,24.585l1.858,5.681a.826.826,0,0,1,.041.259v3.591a.162.162,0,0,0,.257.13l.662-.487a.3.3,0,0,0,.123-.244V30.857a1.5,1.5,0,0,0-.116-.58l-2.481-5.912c-.083-.2-.433,0-.342.221" transform="translate(-5.624 -1.198)" fill="#c1d6db"/>
          <g id="Grupo_872514" data-name="Grupo 872514" transform="translate(108.47 23.091)" style="mix-blend-mode: screen;isolation: isolate">
            <g id="Grupo_872513" data-name="Grupo 872513">
              <g id="Grupo_872512" data-name="Grupo 872512" clip-path="url(#clip-path-22)">
                <path id="Trazado_256381" data-name="Trazado 256381" d="M114.2,24.289a.255.255,0,0,0-.1.045l2.432,6.208a.5.5,0,0,1,.035.182v3.229l.229-.169v-3.06a.709.709,0,0,0-.051-.266Z" transform="translate(-114.099 -24.289)" fill="#c1d6db"/>
              </g>
            </g>
          </g>
          <g id="Grupo_872517" data-name="Grupo 872517" transform="translate(41.74 59.346)" opacity="0.6" style="mix-blend-mode: multiply;isolation: isolate">
            <g id="Grupo_872516" data-name="Grupo 872516">
              <g id="Grupo_872515" data-name="Grupo 872515" clip-path="url(#clip-path-23)">
                <path id="Trazado_256382" data-name="Trazado 256382" d="M76.17,62.426c-4.618,2.667-15.04,13.653-19.659,16.32-3.405,1.967-8.652,3.732-11.419,6.5a3.037,3.037,0,0,0-.492,4.343,12.075,12.075,0,0,0,4.173,4.007l58.642,33.514c7.881,4.1,17.452,2.665,21.817.551,6.76-3.273,15.951-9.008,19.966-11.435a4.594,4.594,0,0,0,2.01-5.525c-.045-.113-.091-.219-.14-.315-.744-1.467-13.882-10.874-23.788-17.643.106.216-1.985-4.624-3.326-7.727a9.291,9.291,0,0,0-3.379-4.051c-5.323-3.551-18.652-12.37-26.243-16.754-4.017-2.32-14.139.529-18.16-1.783" transform="translate(-43.907 -62.426)" fill="#90909e"/>
              </g>
            </g>
          </g>
          <path id="Trazado_256383" data-name="Trazado 256383" d="M121.069,83.211c.717-.533,2.794-1.647,3.5-.7.693.933.162,3.226-.775,3.813a2.818,2.818,0,0,1-3.616-1.243c-.435-1,.141-1.316.89-1.873" transform="translate(-5.922 -4.053)" fill="#b15623"/>
          <path id="Trazado_256384" data-name="Trazado 256384" d="M43.2,76.513a55.45,55.45,0,0,1,13.865,7.013c15.755,11.089,38.994,29.267,40.311,28.9,1.295-1.874,5.368-1.446,8.49.357,4.1,2.368,6.679,8.218,6.217,12.6a11.189,11.189,0,0,0,1.339.743,12.736,12.736,0,0,1,3.825-1.694c2.977-.893,6.041-2.721,8.908-3.977,4.433-1.943,15.318-7.07,18.171-10.954v0a9.635,9.635,0,0,0-1.242-2.471c-1.687-3.726-3.178-6.265-5.061-8.037-3.973-3.736-12.387-9.838-15.816-12.249-.207-.122-6.891-7.68-9.693-10.673a25.18,25.18,0,0,0-4.065-3.506c-4.381-3.025-13.285-8.713-16.232-9.712a77.749,77.749,0,0,0-10.151-2.283A32.094,32.094,0,0,1,71.21,57a.619.619,0,0,0-.47-.076L45.382,71.6c-.138.08-.3.124-.432.207-.8.488-1.3,2.774-1.753,4.7m14.179,1.98,9.841.721c2.639.76,12.894,6.621,16.831,9.778,2.611,2.093,9.318,11.325,9.318,11.325-4.19-2.429-13.885-7.979-16.388-9.5-1.928-1.173-16.328-10.15-19.6-12.322" transform="translate(-2.131 -2.808)" fill="#dd8843"/>
          <path id="Trazado_256385" data-name="Trazado 256385" d="M76.9,93.513c1.477.9,5.993,3.693,8.7,5.254,1.634.943,2.8,2.274,4.409,3.2,1.444.832,3.553-1.012,4.733-.33l.081.047c-2.264-3.034-6.985-9.22-9.088-10.906A89.941,89.941,0,0,0,75.757,84.3h0a58.763,58.763,0,0,0-8.832-4.454,23.968,23.968,0,0,0-9.86-1.034c3.657,2.354,1.859,2.96,6.553,6.553,2.169,1.66,12.718,7.807,13.286,8.153" transform="translate(-2.815 -3.881)" fill="#6e8891"/>
          <path id="Trazado_256386" data-name="Trazado 256386" d="M114.68,119.823s3.113,6.518-.1,9.04c-9.359-7.452-17.426-9.557-17.426-9.557l-.549-1.966,3.173-7.084Z" transform="translate(-4.766 -5.44)" fill="#191919"/>
          <path id="Trazado_256387" data-name="Trazado 256387" d="M62.167,89.468s1.039,5.479-2.174,8c-9.359-7.452-12.986-8-12.986-8l-1.739-3.452,2-6.118Z" transform="translate(-2.233 -3.942)" fill="#191919"/>
          <path id="Trazado_256388" data-name="Trazado 256388" d="M100.554,102.284s20.4-6.511,23.275-13.939a131.583,131.583,0,0,0-10.645-11.867S103.452,86.7,89.622,89.9Z" transform="translate(-4.422 -3.773)" fill="#755e52"/>
          <g id="Grupo_872520" data-name="Grupo 872520" transform="translate(85.201 72.704)" opacity="0.4">
            <g id="Grupo_872519" data-name="Grupo 872519">
              <g id="Grupo_872518" data-name="Grupo 872518" clip-path="url(#clip-path-24)">
                <path id="Trazado_256389" data-name="Trazado 256389" d="M89.623,89.9l10.932,12.381s20.4-6.511,23.275-13.939a131.774,131.774,0,0,0-10.645-11.867S103.453,86.7,89.623,89.9m.648.206c11.7-2.845,21.917-11.571,22.967-13.073a134.571,134.571,0,0,1,9.59,10.628c.217.273.409.514.6.744-2.757,6.578-21.011,13.072-22.748,13.487Z" transform="translate(-89.623 -76.477)" fill="#383738"/>
              </g>
            </g>
          </g>
          <path id="Trazado_256390" data-name="Trazado 256390" d="M79.243,61.087s-14.579,7.506-22.369,12.9a72.95,72.95,0,0,1,9.34.816S85.494,63.563,87.395,62.657Z" transform="translate(-2.806 -3.014)" fill="#755e52"/>
          <g id="Grupo_872523" data-name="Grupo 872523" transform="translate(54.067 58.073)" opacity="0.3">
            <g id="Grupo_872522" data-name="Grupo 872522">
              <g id="Grupo_872521" data-name="Grupo 872521" clip-path="url(#clip-path-25)">
                <path id="Trazado_256391" data-name="Trazado 256391" d="M56.873,73.984l.288,0a75.257,75.257,0,0,1,9.052.818s19.28-11.236,21.182-12.142l-8.153-1.57s-14.578,7.506-22.369,12.9m1.118-.339c6.992-4.708,20.329-11.724,21.3-12.192l7.056,1.359c-3.379,1.835-18.981,10.907-20.2,11.623a81.023,81.023,0,0,0-8.152-.79" transform="translate(-56.873 -61.087)" fill="#383738"/>
              </g>
            </g>
          </g>
          <path id="Trazado_256392" data-name="Trazado 256392" d="M110.941,130.436l.019-.009c-.05.027-.039.02-.019.009" transform="translate(-5.473 -6.435)" fill="#3a594c"/>
        </g>
      </g>
      <g id="Grupo_872527" data-name="Grupo 872527" transform="translate(96.695 109.489)">
        <g id="Grupo_872526" data-name="Grupo 872526" clip-path="url(#clip-path-26)">
          <rect id="Rectángulo_44633" data-name="Rectángulo 44633" width="16.697" height="17.956" transform="matrix(0.961, -0.276, 0.276, 0.961, -3.962, 1.133)" fill="url(#linear-gradient)"/>
        </g>
      </g>
      <g id="Grupo_872529" data-name="Grupo 872529">
        <g id="Grupo_872528" data-name="Grupo 872528" clip-path="url(#clip-path-2)">
          <path id="Trazado_256394" data-name="Trazado 256394" d="M112,126.417c-.01,3.266-2.331,4.579-5.165,2.943a11.312,11.312,0,0,1-5.131-8.888c.01-3.256,2.322-4.584,5.165-2.943A11.341,11.341,0,0,1,112,126.417" transform="translate(-5.018 -5.764)" fill="#6d6156"/>
          <path id="Trazado_256395" data-name="Trazado 256395" d="M106.916,118.726c-2.305-1.331-4.181-.262-4.189,2.378a9.172,9.172,0,0,0,4.161,7.208c2.3,1.327,4.173.258,4.181-2.392a9.17,9.17,0,0,0-4.153-7.194" transform="translate(-5.068 -5.829)" fill="#333130"/>
          <path id="Trazado_256396" data-name="Trazado 256396" d="M106.085,127.1a.084.084,0,0,0,0,.022.167.167,0,0,0,.009.048Z" transform="translate(-5.234 -6.271)" fill="#131212"/>
          <path id="Trazado_256397" data-name="Trazado 256397" d="M106.946,119.481a7.778,7.778,0,0,1,3.535,6.123c-.006,2.254-1.6,3.17-3.557,2.037a7.814,7.814,0,0,1-3.543-6.137c.006-2.255,1.6-3.155,3.566-2.023" transform="translate(-5.101 -5.871)" fill="#d1d4d5"/>
          <path id="Trazado_256398" data-name="Trazado 256398" d="M57.481,99.694l.019-.009c-.05.027-.039.02-.019.009" transform="translate(-2.835 -4.918)" fill="#3a594c"/>
        </g>
      </g>
      <g id="Grupo_872531" data-name="Grupo 872531" transform="translate(45.872 80.264)">
        <g id="Grupo_872530" data-name="Grupo 872530" clip-path="url(#clip-path-28)">
          <rect id="Rectángulo_44635" data-name="Rectángulo 44635" width="16.701" height="17.972" transform="translate(-3.967 1.134) rotate(-15.994)" fill="url(#linear-gradient-2)"/>
        </g>
      </g>
      <g id="Grupo_872533" data-name="Grupo 872533">
        <g id="Grupo_872532" data-name="Grupo 872532" clip-path="url(#clip-path-2)">
          <path id="Trazado_256400" data-name="Trazado 256400" d="M58.542,95.676c-.01,3.266-2.331,4.579-5.165,2.943a11.31,11.31,0,0,1-5.131-8.888c.01-3.256,2.322-4.584,5.165-2.943a11.341,11.341,0,0,1,5.131,8.888" transform="translate(-2.38 -4.247)" fill="#6d6156"/>
          <path id="Trazado_256401" data-name="Trazado 256401" d="M53.457,87.984c-2.306-1.33-4.182-.261-4.19,2.378a9.172,9.172,0,0,0,4.161,7.208c2.3,1.327,4.174.258,4.181-2.392a9.17,9.17,0,0,0-4.152-7.194" transform="translate(-2.431 -4.313)" fill="#333130"/>
          <path id="Trazado_256402" data-name="Trazado 256402" d="M52.625,96.362l0,.022a.208.208,0,0,0,.01.048Z" transform="translate(-2.596 -4.754)" fill="#131212"/>
          <path id="Trazado_256403" data-name="Trazado 256403" d="M53.486,88.739a7.777,7.777,0,0,1,3.535,6.123c-.006,2.254-1.6,3.17-3.557,2.037a7.814,7.814,0,0,1-3.543-6.137c.006-2.255,1.6-3.155,3.566-2.023" transform="translate(-2.463 -4.354)" fill="#d1d4d5"/>
        </g>
      </g>
      <g id="Grupo_872535" data-name="Grupo 872535" transform="translate(39.229 68.905)">
        <g id="Grupo_872534" data-name="Grupo 872534" clip-path="url(#clip-path-30)">
          <rect id="Rectángulo_44637" data-name="Rectángulo 44637" width="83.063" height="93.897" transform="matrix(0.43, -0.903, 0.903, 0.43, -21.924, 44.778)" fill="url(#linear-gradient-3)"/>
        </g>
      </g>
      <g id="Grupo_872596" data-name="Grupo 872596">
        <g id="Grupo_872595" data-name="Grupo 872595" clip-path="url(#clip-path-2)">
          <g id="Grupo_872538" data-name="Grupo 872538" transform="translate(41.202 68.906)" opacity="0.5" style="mix-blend-mode: screen;isolation: isolate">
            <g id="Grupo_872537" data-name="Grupo 872537">
              <g id="Grupo_872536" data-name="Grupo 872536" clip-path="url(#clip-path-32)">
                <path id="Trazado_256405" data-name="Trazado 256405" d="M43.34,76.7a29.46,29.46,0,0,0,2.716,2.655c.2.176,3.655,2.532,5.262,3.42a7.507,7.507,0,0,1,1.5.387c2.711,1.116,5.471,3.263,8.738,8.28.041-.036-.3-.866-.254-.914.778-.828,32.643,15.532,34,16.857s1.859,5.061,3.171,4.647c1.559-.493,3.949-.52,7.755,2.137a20.892,20.892,0,0,1,5.281,5.405c2.8,2.16,3.5,2.639,5.535,2.611-1.506-3.194-2.756-6.292-4.363-8.009-4.83-5.16-14.281-11-14.822-11.6-2.078-2.29-8.447-9.2-10.692-11.6a35.792,35.792,0,0,0-4.748-4.046c-4.971-3.519-12.865-8-15.812-9a77.242,77.242,0,0,0-10.115-2.353c-3.934-.721-7.112-.893-10.891-3-1.092-.609-1.729,1.851-2.262,4.123m14.043,2.562s3.4-1.132,9.841.721c2.639.76,12.894,6.621,16.831,9.778,2.611,2.093,9.318,11.325,9.318,11.325-4.19-2.429-13.885-7.979-16.388-9.5-1.928-1.173-16.328-10.15-19.6-12.322" transform="translate(-43.34 -72.482)" fill="#ffba84"/>
              </g>
            </g>
          </g>
          <g id="Grupo_872541" data-name="Grupo 872541" transform="translate(54.147 75.692)" opacity="0.7">
            <g id="Grupo_872540" data-name="Grupo 872540">
              <g id="Grupo_872539" data-name="Grupo 872539" clip-path="url(#clip-path-33)">
                <path id="Trazado_256406" data-name="Trazado 256406" d="M56.976,81.158a8.582,8.582,0,0,0,2.184,5.675,39.988,39.988,0,0,1,4.7,8.314,8.831,8.831,0,0,0,1.32,2.468s6.1,3.632,13.054,7.719q2.016,1.185,4.032,2.366c2.252,1.317,4.5,2.625,6.755,3.9,1,.565,4.668,2.728,4.879,2.689.164-.03.131-.388.144-.554.015-.188.036-.373.058-.555.054-.45.123-.891.195-1.328.175-1.059.376-2.1.573-3.14.53-2.781.845-4.506.677-4.94a20.869,20.869,0,0,0-1.512-2.343l-.241-.141a23.776,23.776,0,0,1,1.592,2.472c.205.384-.3,2.742-.693,4.818a50.362,50.362,0,0,0-.846,5.311c-.007.13-.109.178-.242.112-2.117-1.056-16.475-9.476-16.475-9.476.018-.5.053-1.338.094-2.336.2-4.741.367-9.026.279-9.381s-.269-.888-.379-1.2l-.2-.124c.1.286.313.9.407,1.278.087.352-.155,6.186-.285,9.32-.042,1-.076,1.837-.094,2.341L65.187,97.443a12.616,12.616,0,0,1-1.178-2.3,40.268,40.268,0,0,0-4.75-8.4,8.257,8.257,0,0,1-2.1-5.463,1.51,1.51,0,0,1,1.167-1.488l-.258-.17a1.687,1.687,0,0,0-1.09,1.538" transform="translate(-56.958 -79.62)" fill="#7c2b0d"/>
              </g>
            </g>
          </g>
          <path id="Trazado_256407" data-name="Trazado 256407" d="M65.213,79.762l.29.087.289.087a15.506,15.506,0,0,1,.244,4.282l-.6-.384a15.177,15.177,0,0,0-.223-4.071" transform="translate(-3.218 -3.935)" fill="#383738"/>
          <path id="Trazado_256408" data-name="Trazado 256408" d="M79.146,85.99s.426,4.679.4,6.593a29.965,29.965,0,0,1-2.956-1.756l.6-5.84Z" transform="translate(-3.779 -4.193)" fill="#383738"/>
          <g id="Grupo_872544" data-name="Grupo 872544" transform="translate(74.117 81.627)" style="mix-blend-mode: multiply;isolation: isolate">
            <g id="Grupo_872543" data-name="Grupo 872543">
              <g id="Grupo_872542" data-name="Grupo 872542" clip-path="url(#clip-path-34)">
                <path id="Trazado_256409" data-name="Trazado 256409" d="M78.164,91.914l-.2-.124.181-5.927.2.119Z" transform="translate(-77.963 -85.863)" fill="#181619"/>
              </g>
            </g>
          </g>
          <path id="Trazado_256410" data-name="Trazado 256410" d="M58.112,79.592c3.274,2.171,17.674,11.147,19.6,12.322,1.183.719,3.971,2.338,7.024,4.1,2.735,1.578,5.683,3.274,7.884,4.544l1.48.857s-6.708-9.232-9.318-11.325a81.52,81.52,0,0,0-8.907-5.79,52.347,52.347,0,0,0-7.924-3.987c-6.444-1.853-9.837-.722-9.841-.721m1.279.349a21.127,21.127,0,0,1,8.7.913,51.77,51.77,0,0,1,7.79,3.928,79.451,79.451,0,0,1,8.8,5.718c1.855,1.487,6.02,6.943,8.016,9.619l-.072-.042L89.1,98.047c-1.419-.818-2.92-1.682-4.362-2.514-2.384-1.378-5.706-3.3-7.009-4.093-1.588-.966-13.622-8.464-18.338-11.5" transform="translate(-2.867 -3.91)" fill="#383738"/>
          <g id="Grupo_872549" data-name="Grupo 872549" transform="translate(41.387 71.54)" opacity="0.3" style="mix-blend-mode: multiply;isolation: isolate">
            <g id="Grupo_872548" data-name="Grupo 872548">
              <g id="Grupo_872547" data-name="Grupo 872547" clip-path="url(#clip-path-35)">
                <g id="Grupo_872546" data-name="Grupo 872546" transform="translate(0 0)">
                  <g id="Grupo_872545" data-name="Grupo 872545" clip-path="url(#clip-path-36)">
                    <rect id="Rectángulo_44641" data-name="Rectángulo 44641" width="0.002" height="0.001" transform="translate(0 0.001) rotate(-59.88)" fill="url(#linear-gradient-4)"/>
                  </g>
                </g>
              </g>
            </g>
          </g>
          <g id="Grupo_872552" data-name="Grupo 872552" transform="translate(96.312 107.713)" opacity="0.7" style="mix-blend-mode: screen;isolation: isolate">
            <g id="Grupo_872551" data-name="Grupo 872551">
              <g id="Grupo_872550" data-name="Grupo 872550" clip-path="url(#clip-path-37)">
                <path id="Trazado_256412" data-name="Trazado 256412" d="M101.41,113.932a1.986,1.986,0,0,1,.294-.19,2.857,2.857,0,0,1,.508-.227,3.46,3.46,0,0,1,.739-.171,4.186,4.186,0,0,1,.975-.02,5.74,5.74,0,0,1,1.185.208,9.244,9.244,0,0,1,1.338.475c.232.112.466.218.7.34s.469.245.71.391.492.3.71.453l.33.226.164.113.082.056.1.076c.459.328.9.7,1.326,1.072a15.655,15.655,0,0,1,1.184,1.151c.183.189.355.387.52.573s.317.38.46.565a15.615,15.615,0,0,1,1.256,1.836c.135.225.228.409.293.526s.1.185.1.185l-.044.032-.126-.172-.351-.488a20.894,20.894,0,0,0-1.339-1.656c-.293-.325-.619-.667-.974-1.009-.178-.17-.36-.345-.552-.512s-.386-.34-.588-.507c-.4-.336-.825-.653-1.257-.959s-.879-.591-1.318-.85c-.221-.137-.442-.251-.662-.377s-.439-.222-.656-.333-.43-.192-.641-.279-.417-.164-.617-.224-.4-.129-.588-.17L104.4,114l-.269-.049a6.424,6.424,0,0,0-.97-.1,5.5,5.5,0,0,0-1.334.121c-.154.03-.269.064-.348.087l-.121.033L101.31,114l.1-.072" transform="translate(-101.31 -113.303)" fill="#ffba84"/>
              </g>
            </g>
          </g>
          <path id="Trazado_256413" data-name="Trazado 256413" d="M80.783,98.069l1.488.858c.327.189.6.087.607-.227l.016-.545a1.222,1.222,0,0,0-.585-.945L80.795,96.3c-.352-.212-.639-.108-.639.231v.576a1.282,1.282,0,0,0,.627.964" transform="translate(-3.955 -4.746)" fill="#9b3d13"/>
          <g id="Grupo_872555" data-name="Grupo 872555" transform="translate(76.201 91.443)" opacity="0.7">
            <g id="Grupo_872554" data-name="Grupo 872554">
              <g id="Grupo_872553" data-name="Grupo 872553" clip-path="url(#clip-path-38)">
                <path id="Trazado_256414" data-name="Trazado 256414" d="M82.841,98.526a1.223,1.223,0,0,0-.585-.945l-1.514-.913c-.261-.158-.488-.141-.587.019V96.53c0-.339.288-.443.64-.231l1.514.913a1.223,1.223,0,0,1,.584.945l-.015.545a.4.4,0,0,1-.048.182Z" transform="translate(-80.155 -96.188)" fill="#7c2b0d"/>
              </g>
            </g>
          </g>
          <g id="Grupo_872558" data-name="Grupo 872558" transform="translate(75.492 91.467)" opacity="0.7">
            <g id="Grupo_872557" data-name="Grupo 872557">
              <g id="Grupo_872556" data-name="Grupo 872556" clip-path="url(#clip-path-39)">
                <path id="Trazado_256415" data-name="Trazado 256415" d="M79.41,96.309c-.007.153.269.464.708.831.056.462.654.771,1.386,1.209.507.3,1.23.774,1.32.47.47.195.772.238.779.081.011-.279-.917-1.087-2.075-1.8s-2.106-1.069-2.117-.789" transform="translate(-79.41 -96.214)" fill="#7c2b0d"/>
              </g>
            </g>
          </g>
          <path id="Trazado_256416" data-name="Trazado 256416" d="M79.414,96.221c-.01.232.921,1,2.079,1.716s2.1,1.107,2.113.875-.921-1-2.079-1.716-2.1-1.107-2.113-.875" transform="translate(-3.918 -4.744)" fill="#dd8843"/>
          <g id="Grupo_872561" data-name="Grupo 872561" transform="translate(75.536 91.452)" opacity="0.7" style="mix-blend-mode: screen;isolation: isolate">
            <g id="Grupo_872560" data-name="Grupo 872560">
              <g id="Grupo_872559" data-name="Grupo 872559" clip-path="url(#clip-path-40)">
                <path id="Trazado_256417" data-name="Trazado 256417" d="M83.518,98.848a8.447,8.447,0,0,0-1.989-1.54,5.379,5.379,0,0,0-2.023-.929.235.235,0,0,1-.049-.121c.009-.217.937.175,2.072.875s2.048,1.444,2.038,1.661c0,.029-.018.046-.049.054" transform="translate(-79.456 -96.198)" fill="#ffba84"/>
              </g>
            </g>
          </g>
          <path id="Trazado_256418" data-name="Trazado 256418" d="M60.97,86.631l1.487.858c.328.189.6.087.607-.227l.016-.545a1.222,1.222,0,0,0-.585-.945l-1.514-.913c-.352-.212-.639-.109-.639.231v.576a1.282,1.282,0,0,0,.627.964" transform="translate(-2.977 -4.181)" fill="#9b3d13"/>
          <g id="Grupo_872564" data-name="Grupo 872564" transform="translate(57.366 80.568)" opacity="0.7">
            <g id="Grupo_872563" data-name="Grupo 872563">
              <g id="Grupo_872562" data-name="Grupo 872562" clip-path="url(#clip-path-38)">
                <path id="Trazado_256419" data-name="Trazado 256419" d="M63.029,87.087a1.225,1.225,0,0,0-.585-.945l-1.514-.913c-.261-.158-.488-.141-.587.019v-.157c0-.339.288-.443.64-.231l1.514.913a1.223,1.223,0,0,1,.584.945l-.015.545a.393.393,0,0,1-.048.182Z" transform="translate(-60.343 -84.75)" fill="#7c2b0d"/>
              </g>
            </g>
          </g>
          <g id="Grupo_872567" data-name="Grupo 872567" transform="translate(56.658 80.592)" opacity="0.7">
            <g id="Grupo_872566" data-name="Grupo 872566">
              <g id="Grupo_872565" data-name="Grupo 872565" clip-path="url(#clip-path-39)">
                <path id="Trazado_256420" data-name="Trazado 256420" d="M59.6,84.871c-.007.153.269.464.708.831.056.462.654.771,1.386,1.209.507.3,1.23.774,1.32.47.47.195.772.238.779.081.011-.279-.917-1.087-2.075-1.8s-2.106-1.069-2.117-.789" transform="translate(-59.598 -84.775)" fill="#7c2b0d"/>
              </g>
            </g>
          </g>
          <path id="Trazado_256421" data-name="Trazado 256421" d="M59.6,84.782c-.01.233.921,1,2.079,1.716s2.1,1.108,2.113.876-.921-1-2.079-1.716-2.1-1.107-2.113-.876" transform="translate(-2.941 -4.18)" fill="#dd8843"/>
          <g id="Grupo_872570" data-name="Grupo 872570" transform="translate(56.701 80.578)" opacity="0.7" style="mix-blend-mode: screen;isolation: isolate">
            <g id="Grupo_872569" data-name="Grupo 872569">
              <g id="Grupo_872568" data-name="Grupo 872568" clip-path="url(#clip-path-40)">
                <path id="Trazado_256422" data-name="Trazado 256422" d="M63.705,87.41a8.4,8.4,0,0,0-1.989-1.54,5.379,5.379,0,0,0-2.023-.929.235.235,0,0,1-.049-.121c.01-.217.937.174,2.072.875s2.048,1.444,2.038,1.661c0,.029-.018.046-.049.054" transform="translate(-59.644 -84.76)" fill="#ffba84"/>
              </g>
            </g>
          </g>
          <path id="Trazado_256423" data-name="Trazado 256423" d="M141.942,112.921c.257-1.089.1-4.929-.256-4.726a50.357,50.357,0,0,1-7.961,5.443,54.156,54.156,0,0,1-9.138,4.177s2.676,2.5,3.2,2.782c1.4.766,13.965-6.868,14.155-7.677" transform="translate(-6.147 -5.338)" fill="#383738"/>
          <g id="Grupo_872573" data-name="Grupo 872573" transform="translate(95.117 84.475)" opacity="0.5" style="mix-blend-mode: screen;isolation: isolate">
            <g id="Grupo_872572" data-name="Grupo 872572">
              <g id="Grupo_872571" data-name="Grupo 872571" clip-path="url(#clip-path-44)">
                <path id="Trazado_256424" data-name="Trazado 256424" d="M114.622,115.143a178.293,178.293,0,0,0-14.569-11.636c9.641-1.41,23.149-8.859,25.264-14.648,3.291,2.319,15.744,11.511,16.837,13.746.181.368-10.487,11.793-25.827,14.269a20.139,20.139,0,0,0-1.705-1.731" transform="translate(-100.053 -88.859)" fill="#ffba84"/>
              </g>
            </g>
          </g>
          <path id="Trazado_256425" data-name="Trazado 256425" d="M114.483,123.695a.314.314,0,0,1,.465-.125,10.085,10.085,0,0,0,4.516,1.585c4.228.423,18.957-8.306,21.361-9.83,3.613-2.29,5.723-2.788,5.627-5.887a.733.733,0,0,0-.064-.271,15.729,15.729,0,0,1,1.545,1.793c.483.741.3,3.865-.741,5.043s-17.145,11.764-25.57,13.8a8.7,8.7,0,0,1-6.356-1.057c-1.117-.8-1.226-4.012-.783-5.053" transform="translate(-5.636 -5.386)" fill="#383738"/>
          <g id="Grupo_872576" data-name="Grupo 872576" transform="translate(109.176 112.448)" opacity="0.5">
            <g id="Grupo_872575" data-name="Grupo 872575">
              <g id="Grupo_872574" data-name="Grupo 872574" clip-path="url(#clip-path-45)">
                <path id="Trazado_256426" data-name="Trazado 256426" d="M120.9,118.284a3.983,3.983,0,0,1,2.562.653,13.393,13.393,0,0,0,1.922,1.923c.2.163.855.738.752,1.341a.767.767,0,0,1-.551.6,19.209,19.209,0,0,1-5.165,1.114,3.718,3.718,0,0,1-.6-.044c-1.852-.308-4.614-1.86-4.975-3.972a.466.466,0,0,1,.093-.323c.421-.5,3.75-1.289,5.963-1.289" transform="translate(-114.842 -118.284)" fill="#7c4b31"/>
              </g>
            </g>
          </g>
          <path id="Trazado_256427" data-name="Trazado 256427" d="M123.22,119.171a13.812,13.812,0,0,0,1.972,1.971c.544.436.955,1.122.3,1.355-1.489.529-4.283,1.275-5.6,1.056-1.693-.282-4.366-1.758-4.7-3.7-.066-.387,6.335-2.059,8.025-.686" transform="translate(-5.684 -5.853)" fill="#d4e0e8"/>
          <path id="Trazado_256428" data-name="Trazado 256428" d="M44.512,73.093a1.439,1.439,0,0,1,.255.269c.305.35.672.642,1,.969.487.488.508.763.069,1.331-.322.417-1.065,1.051-1.534.77a3.783,3.783,0,0,1-.7-.612c-.318-.407.366-2.587.575-2.7a.308.308,0,0,1,.337-.026" transform="translate(-2.147 -3.604)" fill="#bf0c0c"/>
          <g id="Grupo_872579" data-name="Grupo 872579" transform="translate(43.17 54.272)" opacity="0.5" style="mix-blend-mode: screen;isolation: isolate">
            <g id="Grupo_872578" data-name="Grupo 872578">
              <g id="Grupo_872577" data-name="Grupo 872577" clip-path="url(#clip-path-46)">
                <path id="Trazado_256429" data-name="Trazado 256429" d="M45.411,71.647c.027-.013.055-.024.081-.039l25.094-14.52a36.462,36.462,0,0,0,7.608,3.2S57.316,70.761,53.995,74.9c-4.129-.784-7.142-1.9-8.584-3.25" transform="translate(-45.411 -57.088)" fill="#ffba84"/>
              </g>
            </g>
          </g>
          <g id="Grupo_872582" data-name="Grupo 872582" transform="translate(63.217 59.599)" opacity="0.5" style="mix-blend-mode: screen;isolation: isolate">
            <g id="Grupo_872581" data-name="Grupo 872581">
              <g id="Grupo_872580" data-name="Grupo 872580" clip-path="url(#clip-path-47)">
                <path id="Trazado_256430" data-name="Trazado 256430" d="M110.961,74.63s-9.586,10.847-23.446,13.2c0,0-11.5-7.972-21.017-11.506L90.081,62.692a17.5,17.5,0,0,1,5.089,1.665c2.377,1.221,12.842,7.61,15.791,10.274" transform="translate(-66.498 -62.692)" fill="#ffba84"/>
              </g>
            </g>
          </g>
          <g id="Grupo_872585" data-name="Grupo 872585" transform="translate(108.815 103.78)" opacity="0.7" style="mix-blend-mode: screen;isolation: isolate">
            <g id="Grupo_872584" data-name="Grupo 872584">
              <g id="Grupo_872583" data-name="Grupo 872583" clip-path="url(#clip-path-48)">
                <path id="Trazado_256431" data-name="Trazado 256431" d="M114.494,123.695a.314.314,0,0,1,.465-.125,10.085,10.085,0,0,0,4.516,1.585c4.228.423,18.957-8.306,21.361-9.83,3.613-2.29,5.723-2.788,5.627-5.887a.733.733,0,0,0-.064-.271c.051.113.583.558,1.112,1.206a1.1,1.1,0,0,1,.046,1.332c-.779,1.11-8.73,6.383-15.6,9.992-2.662,1.4-6.048,3.479-10.373,4.394-3.428.724-7.538-1.355-7.095-2.4" transform="translate(-114.462 -109.166)" fill="#565656"/>
              </g>
            </g>
          </g>
          <g id="Grupo_872588" data-name="Grupo 872588" transform="translate(136.319 99.193)" opacity="0.5">
            <g id="Grupo_872587" data-name="Grupo 872587">
              <g id="Grupo_872586" data-name="Grupo 872586" clip-path="url(#clip-path-49)">
                <path id="Trazado_256432" data-name="Trazado 256432" d="M144.882,111.389a.674.674,0,0,1-.8,0c-.512-.373-.524-1.3-.515-1.57a13.447,13.447,0,0,0-.176-2.573,3.137,3.137,0,0,1,.967-1.925,10.4,10.4,0,0,1,1.035-.978,39.147,39.147,0,0,1,2.494,4.722,19.025,19.025,0,0,1-3.008,2.327" transform="translate(-143.394 -104.34)" fill="#7c4b31"/>
              </g>
            </g>
          </g>
          <path id="Trazado_256433" data-name="Trazado 256433" d="M147.688,108.514a.343.343,0,0,1-.082.3,17.455,17.455,0,0,1-2.884,2.249c-.583.357-.837-.485-.82-1.214a13.84,13.84,0,0,0-.2-2.639c.021-.837.923-1.852,1.9-2.676,0,0,1.26-.477,2.089,3.979" transform="translate(-7.09 -5.157)" fill="#d4e0e8"/>
          <g id="Grupo_872591" data-name="Grupo 872591" transform="translate(112.882 100.974)" opacity="0.2">
            <g id="Grupo_872590" data-name="Grupo 872590">
              <g id="Grupo_872589" data-name="Grupo 872589" clip-path="url(#clip-path-50)">
                <path id="Trazado_256434" data-name="Trazado 256434" d="M121.243,121.5c0,.614.5.825,1.112.471a2.307,2.307,0,0,0,1.112-1.755c0-.615-.5-.825-1.112-.471a2.308,2.308,0,0,0-1.112,1.755" transform="translate(-118.864 -106.873)" fill="#383738"/>
                <path id="Trazado_256435" data-name="Trazado 256435" d="M144.359,108.141c0,.614.5.825,1.112.471a2.31,2.31,0,0,0,1.112-1.755c0-.615-.5-.825-1.112-.471a2.306,2.306,0,0,0-1.112,1.755" transform="translate(-120.005 -106.214)" fill="#383738"/>
                <path id="Trazado_256436" data-name="Trazado 256436" d="M118.741,121.307c0,.568.46.761,1.028.434a2.132,2.132,0,0,0,1.028-1.621c0-.568-.46-.762-1.028-.434a2.132,2.132,0,0,0-1.028,1.621" transform="translate(-118.741 -106.871)" fill="#383738"/>
              </g>
            </g>
          </g>
          <path id="Trazado_256437" data-name="Trazado 256437" d="M142.07,110.3q.01.251.014.5a67.031,67.031,0,0,1-15.554,8.783c-.108-.1-.218-.193-.326-.29a66.476,66.476,0,0,0,15.866-9m-8.017,7.311a62.813,62.813,0,0,0,7.981-5.143c.016-.164.029-.347.037-.542a61.487,61.487,0,0,1-8.214,5.34,64.054,64.054,0,0,1-6.428,3.084,3.621,3.621,0,0,0,.369.268,64.573,64.573,0,0,0,6.255-3.007m-8.756.868a60.37,60.37,0,0,0,8.756-4.051A63.891,63.891,0,0,0,142,109.243c-.018-.174-.038-.333-.061-.472a62.813,62.813,0,0,1-8.082,5.313,59.582,59.582,0,0,1-8.882,4.1l.323.3" transform="translate(-6.166 -5.366)" fill="#7f7f7f"/>
          <path id="Trazado_256438" data-name="Trazado 256438" d="M41.206,78.979a1.411,1.411,0,0,1,.38-.689l1.485-.746c-.426.645-.78,1.824-.124,2.417a57.11,57.11,0,0,0,6.047,4.495l-.785.517a10.1,10.1,0,0,0-1.339,4.409.07.07,0,0,1-.1.055,15.916,15.916,0,0,1-4.943-4.274c-1.233-1.667-1.014-4.979-.618-6.183" transform="translate(-2.018 -3.826)" fill="#383738"/>
          <g id="Grupo_872594" data-name="Grupo 872594" transform="translate(39.178 73.717)" opacity="0.7" style="mix-blend-mode: screen;isolation: isolate">
            <g id="Grupo_872593" data-name="Grupo 872593">
              <g id="Grupo_872592" data-name="Grupo 872592" clip-path="url(#clip-path-51)">
                <path id="Trazado_256439" data-name="Trazado 256439" d="M41.211,79.017c0-.011.007-.029.01-.04a1.42,1.42,0,0,1,.381-.689l1.485-.746c-.426.645-.78,1.824-.124,2.417a57.143,57.143,0,0,0,6.046,4.495l-.784.517c-1.534-.945-2.8-1.82-3.764-2.533-2.489-1.838-3.171-2.85-3.25-3.42" transform="translate(-41.211 -77.542)" fill="#565656"/>
              </g>
            </g>
          </g>
        </g>
      </g>
      <g id="Grupo_872598" data-name="Grupo 872598" transform="translate(85.427 94.599)">
        <g id="Grupo_872597" data-name="Grupo 872597" clip-path="url(#clip-path-52)">
          <rect id="Rectángulo_44659" data-name="Rectángulo 44659" width="6.999" height="5.851" transform="matrix(0.957, -0.289, 0.289, 0.957, -1.239, 0.358)" fill="url(#linear-gradient-5)"/>
        </g>
      </g>
      <g id="Grupo_872609" data-name="Grupo 872609">
        <g id="Grupo_872608" data-name="Grupo 872608" clip-path="url(#clip-path-2)">
          <g id="Grupo_872601" data-name="Grupo 872601" transform="translate(85.427 94.599)" opacity="0.9" style="mix-blend-mode: screen;isolation: isolate">
            <g id="Grupo_872600" data-name="Grupo 872600">
              <g id="Grupo_872599" data-name="Grupo 872599" clip-path="url(#clip-path-54)">
                <path id="Trazado_256441" data-name="Trazado 256441" d="M93.275,99.518c1.1.138,2.548,1.991,2.313,3.131-.239,1.158-2.591,1.027-3.467.846-.915-.188-2.181-.8-2.259-1.885-.055-.769,2.223-2.241,3.413-2.091" transform="translate(-89.861 -99.508)" fill="#ffba84"/>
              </g>
            </g>
          </g>
          <path id="Trazado_256442" data-name="Trazado 256442" d="M126.891,68.561a8.268,8.268,0,0,0-1.309-.414c-.8-.181-2.06.725-1.282,1.393a14.9,14.9,0,0,0,2.674,1.169,1.928,1.928,0,0,0,1.173-.078.74.74,0,0,0,.5-.893.889.889,0,0,0-.526-.611c-.132-.081-.291-.113-.429-.187a8.885,8.885,0,0,0-.8-.378" transform="translate(-6.121 -3.361)" fill="#bc914b"/>
          <path id="Trazado_256443" data-name="Trazado 256443" d="M126.9,68.314c-.129.166-1.024-.221-1.33-.29-.784-.177-2.018.711-1.256,1.365a14.627,14.627,0,0,0,2.619,1.145c.589.156,1.467-.043,1.63-.486a3.071,3.071,0,0,0-.157-1.683.814.814,0,0,0-.508-.219c-.4-.064-.709-.191-1,.167" transform="translate(-6.122 -3.355)" fill="#140e0e"/>
          <path id="Trazado_256444" data-name="Trazado 256444" d="M131.776,66.061a8.27,8.27,0,0,0-1.309-.414c-.8-.181-2.06.725-1.282,1.393a14.9,14.9,0,0,0,2.674,1.169,1.935,1.935,0,0,0,1.173-.078.74.74,0,0,0,.5-.893.889.889,0,0,0-.526-.611c-.132-.081-.291-.113-.43-.187a8.508,8.508,0,0,0-.8-.378" transform="translate(-6.362 -3.238)" fill="#bc914b"/>
          <path id="Trazado_256445" data-name="Trazado 256445" d="M131.784,65.814c-.129.167-1.024-.22-1.33-.289-.784-.177-2.018.71-1.256,1.365a14.7,14.7,0,0,0,2.619,1.145c.589.155,1.467-.044,1.63-.486a3.092,3.092,0,0,0-.156-1.684.822.822,0,0,0-.509-.218c-.4-.064-.709-.192-1,.166" transform="translate(-6.363 -3.232)" fill="#140e0e"/>
          <path id="Trazado_256446" data-name="Trazado 256446" d="M123.7,30.937a1.5,1.5,0,0,0-.192-.773,8.384,8.384,0,0,0-.754-1.223.638.638,0,0,0-.936.147,2.188,2.188,0,0,0-.313.7.91.91,0,0,0,.209.64,2.511,2.511,0,0,0,.76.63c.283.2.171.4.39.646a.95.95,0,0,0,.537.257.438.438,0,0,0,.4-.114c.184-.19-.056-.591-.087-.8,0-.035-.01-.07-.013-.106" transform="translate(-5.994 -1.421)" fill="#e2b596"/>
          <path id="Trazado_256447" data-name="Trazado 256447" d="M121.015,28.429a.3.3,0,0,1,0-.189l1.223-2.919-.171-.2-1.223,2.919a.7.7,0,0,0-.055.43.9.9,0,0,0,.275.36l.939.926.087-.289s-1.056-.962-1.076-1.034" transform="translate(-5.959 -1.239)" fill="#adc5c9"/>
          <path id="Trazado_256448" data-name="Trazado 256448" d="M122.482,27.39a1.091,1.091,0,0,0-.094-.54c-.032-.072-.123-.26-.18-.272a2.99,2.99,0,0,1-.842,1.624c-.032.026,0,.119.046.119a1.445,1.445,0,0,0,.982-.472c.089-.134.068-.251.088-.458" transform="translate(-5.987 -1.311)" fill="#e83125"/>
          <path id="Trazado_256449" data-name="Trazado 256449" d="M121.8,21.509l.364,5.966a.831.831,0,0,1-.025.26l-.906,3.475a.161.161,0,0,0,.216.19l.762-.3a.305.305,0,0,0,.181-.205l.67-2.572a1.49,1.49,0,0,0,.033-.59l-.91-6.347c-.029-.212-.419-.106-.386.126" transform="translate(-5.981 -1.049)" fill="#c1d6db"/>
          <g id="Grupo_872604" data-name="Grupo 872604" transform="translate(115.927 20.22)" style="mix-blend-mode: screen;isolation: isolate">
            <g id="Grupo_872603" data-name="Grupo 872603">
              <g id="Grupo_872602" data-name="Grupo 872602" clip-path="url(#clip-path-55)">
                <path id="Trazado_256450" data-name="Trazado 256450" d="M122.092,21.27a.252.252,0,0,0-.11.018l.787,6.62a.482.482,0,0,1-.011.184l-.815,3.125.265-.106.772-2.961A.722.722,0,0,0,123,27.88Z" transform="translate(-121.943 -21.269)" fill="#c1d6db"/>
              </g>
            </g>
          </g>
          <path id="Trazado_256451" data-name="Trazado 256451" d="M133.106,35.716c.494-1.223.338-2.784-.572-2.836-1.474-.085-3.381.688-5.418.606a37.728,37.728,0,0,1-3.558-3.416c-.481-.153-1.05.706-1.066,1.146a34.169,34.169,0,0,0,3.312,3.825c.208.118,7.112,1.145,7.3.675" transform="translate(-6.044 -1.483)" fill="#ead160"/>
          <path id="Trazado_256452" data-name="Trazado 256452" d="M133.947,59.369a16.782,16.782,0,0,0-.455-2.583,13.1,13.1,0,0,1-.231-1.455,6.894,6.894,0,0,1,.09-2.151,7.863,7.863,0,0,0,.137-.931,8.838,8.838,0,0,0-.294-3.048c-1.013-.309-3.7-1.4-4.748-1.289-.814.087-2.848,1.173-2.9,1.909-.066.875-.27,2.919-.331,3.8-.081,1.185-.026,2.38-.089,3.565a22.211,22.211,0,0,0,.246,2.907c.069.8.8,3.711,1.422,7.319a1.332,1.332,0,0,0,1.666-.034,17.8,17.8,0,0,0,.572-7.8,26.919,26.919,0,0,1,.649-3.455,13.913,13.913,0,0,0,.7,2.211c.288.683.885,6.612.885,6.612.521.693,1.847.277,1.874.173a42.141,42.141,0,0,0,.806-5.75" transform="translate(-6.173 -2.363)" fill="#cc2521"/>
          <g id="Grupo_872607" data-name="Grupo 872607" transform="translate(123.506 46.814)" opacity="0.5" style="mix-blend-mode: multiply;isolation: isolate">
            <g id="Grupo_872606" data-name="Grupo 872606">
              <g id="Grupo_872605" data-name="Grupo 872605" clip-path="url(#clip-path-56)">
                <path id="Trazado_256453" data-name="Trazado 256453" d="M134.184,59.435a16.781,16.781,0,0,0-.455-2.583A13.1,13.1,0,0,1,133.5,55.4a6.894,6.894,0,0,1,.09-2.151,7.863,7.863,0,0,0,.137-.931,8.838,8.838,0,0,0-.294-3.048c-.757-.231-.925,1.208-2.169.932a11.1,11.1,0,0,1-1.345,5.989,13.913,13.913,0,0,0,.7,2.211c.288.683.885,6.612.885,6.612.521.693,1.847.277,1.874.173a42.141,42.141,0,0,0,.806-5.75" transform="translate(-129.916 -49.243)" fill="#bc2b2b"/>
              </g>
            </g>
          </g>
          <path id="Trazado_256454" data-name="Trazado 256454" d="M123.194,47.857a2.156,2.156,0,0,0-1.071.692c-.092.128-.4.758-.051.76a1.186,1.186,0,0,0-.076.551c.052.225.112.156.314.216.027.4.225.274.5.339.552.127.545-.217.794-.643a6.051,6.051,0,0,0,.618-1.68.894.894,0,0,0,.032-.308.438.438,0,0,0-.24-.34c-.132-.061-.7.376-.824.413" transform="translate(-6.015 -2.34)" fill="#e5bda1"/>
          <path id="Trazado_256455" data-name="Trazado 256455" d="M132.27,40.7a18.507,18.507,0,0,1,.57-2.191,21.293,21.293,0,0,0,.427-2.782c.062-.712.25-2.034-.413-2.543-.629-.483-1.778-.14-2.455.026a15.2,15.2,0,0,0-2.388.769,3.384,3.384,0,0,0-2.034,1.606,6.475,6.475,0,0,0-.419,2.778c.047,1.172.278,2.331.36,3.5a18.839,18.839,0,0,1-.327,4.7,13.828,13.828,0,0,0-.165,2.383c.162,1.539,7.648.8,7.97-.7a25.65,25.65,0,0,0-.684-2.954,15.909,15.909,0,0,1-.453-4.447c0-.05,0-.1.01-.15" transform="translate(-6.188 -1.625)" fill="#e83125"/>
          <path id="Trazado_256456" data-name="Trazado 256456" d="M130.564,31.71c-.195,0-1.6.156-2.1.247,0,.157.164,1.258.138,1.511-.042.407-.931.54-.877.646.338.677,3.59-.106,3.461-.83-.035-.195-.329-.1-.447-.257a3.631,3.631,0,0,1-.178-1.318" transform="translate(-6.302 -1.564)" fill="#f1caac"/>
          <path id="Trazado_256457" data-name="Trazado 256457" d="M132.044,31.079a4.052,4.052,0,0,0,.393,1.594,2.084,2.084,0,0,1,.242.609,1.022,1.022,0,0,1-.476.94,2.032,2.032,0,0,1-1.056.295,3.856,3.856,0,0,0-.491.031,8.053,8.053,0,0,0-1.06.4,1.99,1.99,0,0,1-1.778-.3,1.316,1.316,0,0,0-1.051-.351,4.335,4.335,0,0,0,.208-2.331c-.545-2.122-.406-5.619,1.613-6.179a3.21,3.21,0,0,1,1.612,0c.964-.274,1.557,1.081,1.73,1.808.066.276,0,.237.027.494.09,1.093.029,1.911.087,2.985" transform="translate(-6.251 -1.267)" fill="#281504"/>
          <path id="Trazado_256458" data-name="Trazado 256458" d="M127.024,35.386a.965.965,0,0,0-1.3.357,3.922,3.922,0,0,0-.381,1.879c.106,1.473.155,3.387.434,5.407a37.248,37.248,0,0,1-2.545,4.067c-.066.5.494,1.247.929,1.185a39.162,39.162,0,0,0,3.38-4.235c.08-.226.661-7.822-.515-8.661" transform="translate(-6.08 -1.739)" fill="#ffe985"/>
          <path id="Trazado_256459" data-name="Trazado 256459" d="M128.4,27.843a1.785,1.785,0,0,0-.936-.208c-1.34-.013-2.172.7-2.069,1.158a6.761,6.761,0,0,0,1.782.351l1.142-.653c.312-.335.367-.426.081-.647" transform="translate(-6.186 -1.363)" fill="#ead160"/>
          <path id="Trazado_256460" data-name="Trazado 256460" d="M130.039,25.563c-.482-.038-2.679-.078-3.249,1.891A3.77,3.77,0,0,0,126.644,29a.147.147,0,0,0,.077.115,7.48,7.48,0,0,0,3.2.157,9.887,9.887,0,0,0,1.984-1.023.245.245,0,0,0,.117-.2,2.239,2.239,0,0,0-1.984-2.483m-.01,3.346a1.79,1.79,0,0,1,.924-1.414c.527-.3.845-.1.845.428a6.183,6.183,0,0,1-1.769.986" transform="translate(-6.247 -1.261)" fill="#e83125"/>
          <path id="Trazado_256461" data-name="Trazado 256461" d="M129.758,25.765c0,.086-.207.165-.472.178s-.483-.048-.487-.133.207-.165.472-.178.482.048.486.133" transform="translate(-6.355 -1.265)" fill="#ead160"/>
        </g>
      </g>
    </g>
  </g>
</svg>
