<svg xmlns="http://www.w3.org/2000/svg" width="222.708" height="177.898" viewBox="0 0 222.708 177.898">
  <g id="Hero_Image" data-name="Hero Image" transform="translate(0 -30.248)">
    <g id="Group" transform="translate(0 32)">
      <path id="Path" d="M29.686,8.247c-35.54,3.585-42.9,24.149-1.432,30.832S49.759,65.205,96.515,61.595s19.954-21.367,71.006-19.621c49.379,1.689,79.4-27.173,29.451-36.833C128.9-8.022,29.686,8.247,29.686,8.247Z" transform="translate(0 114.109)" fill="#f0f3fc"/>
      <path id="Shape" d="M0,83.357C0,43.788,63.673-22.834,113.546,7.827c53.006,32.614,130.434,50.934,90.526,80.55-36.382,26.984-46.654,64.809-96.375,64.809S0,122.944,0,83.357Z" transform="translate(7.621 0)" fill="#f0f3fc"/>
    </g>
    <g id="Group-2" data-name="Group" transform="translate(24.147 30.248)">
      <g id="Group-3" data-name="Group" transform="translate(12.126 30.102)">
        <path id="Path-2" data-name="Path" d="M7.9,18.005h3.547a.25.25,0,0,0,0-.5H7.9a1.734,1.734,0,0,1-1.732-1.732V2.232A2.234,2.234,0,0,0,3.937,0H.25a.25.25,0,1,0,0,.5H3.937A1.734,1.734,0,0,1,5.668,2.232V15.773A2.235,2.235,0,0,0,7.9,18.005Z" transform="translate(15.31 5.873)" fill="#393768"/>
        <g id="Group-4" data-name="Group" transform="translate(0 0)">
          <path id="Path-3" data-name="Path" d="M.783,11.427H14.777a.783.783,0,0,0,.783-.783V.783A.783.783,0,0,0,14.777,0H.783A.783.783,0,0,0,0,.783v9.861A.783.783,0,0,0,.783,11.427Z" fill="#a8cfef"/>
          <path id="Path-4" data-name="Path" d="M.383,9.795H10.4a.383.383,0,0,0,.383-.383V.383A.383.383,0,0,0,10.4,0H.383A.383.383,0,0,0,0,.383V9.412A.383.383,0,0,0,.383,9.795Z" transform="translate(3.661 0.816)" fill="#e6e9f8"/>
          <g id="Group-5" data-name="Group" transform="translate(5.543 1.806)">
            <path id="Path-5" data-name="Path" d="M3.487,3.907,0,0H1.833Z" transform="translate(0 4.316)" fill="#393768"/>
            <path id="Path-6" data-name="Path" d="M3.845,4.316H1.833L0,0Z" transform="translate(0 0)" fill="#393768"/>
          </g>
          <path id="Path-7" data-name="Path" d="M.185,1.667c.283,0,.366-.369.462-.8A3.169,3.169,0,0,1,.783.378,3.1,3.1,0,0,1,.92.871c.1.427.179.8.462.8s.365-.369.461-.8A3.2,3.2,0,0,1,1.978.38a3.286,3.286,0,0,1,.135.49c.1.428.178.8.46.8s.364-.369.459-.8A3.243,3.243,0,0,1,3.166.381,3.241,3.241,0,0,1,3.3.869c.095.428.178.8.46.8s.365-.369.46-.8A1.858,1.858,0,0,1,4.39.322.147.147,0,0,0,4.538.161.179.179,0,0,0,4.353,0c-.282,0-.365.369-.46.8a3.306,3.306,0,0,1-.134.489A3.291,3.291,0,0,1,3.625.8C3.53.369,3.448,0,3.166,0S2.8.369,2.707.8a3.155,3.155,0,0,1-.134.489A3.291,3.291,0,0,1,2.438.8c-.1-.428-.178-.8-.46-.8s-.365.369-.461.8a3.21,3.21,0,0,1-.136.491A3.185,3.185,0,0,1,1.245.8C1.149.37,1.066,0,.783,0S.417.369.321.8a1.822,1.822,0,0,1-.172.547A.148.148,0,0,0,0,1.506.179.179,0,0,0,.185,1.667Z" transform="translate(9.026 1.779)" fill="#393768"/>
          <path id="Shape-2" data-name="Shape" d="M3.361.167a.167.167,0,0,1,.333,0,.167.167,0,1,1-.333,0ZM2.194.333A.17.17,0,0,1,2.027.167.174.174,0,0,1,2.194,0h.667a.17.17,0,0,1,.167.167.165.165,0,0,1-.167.167ZM.86.333A.169.169,0,0,1,.693.167.174.174,0,0,1,.86,0h.667a.17.17,0,0,1,.167.167.165.165,0,0,1-.167.167Zm-.694,0A.165.165,0,0,1,0,.167.169.169,0,0,1,.167,0H.193A.17.17,0,0,1,.36.167.165.165,0,0,1,.193.333Z" transform="translate(9.85 4.166)" fill="#393768"/>
          <ellipse id="Oval" cx="0.681" cy="0.681" rx="0.681" ry="0.681" transform="translate(1.834 1.723)" fill="#84b6d8"/>
          <ellipse id="Oval-2" data-name="Oval" cx="0.681" cy="0.681" rx="0.681" ry="0.681" transform="translate(1.834 3.654)" fill="#84b6d8"/>
          <ellipse id="Oval-3" data-name="Oval" cx="0.681" cy="0.681" rx="0.681" ry="0.681" transform="translate(1.834 5.586)" fill="#84b6d8"/>
          <path id="Path-8" data-name="Path" d="M.542,1.084H1.48A.542.542,0,0,0,2.022.542h0A.542.542,0,0,0,1.48,0H.542A.542.542,0,0,0,0,.542H0A.542.542,0,0,0,.542,1.084Z" transform="translate(0.823 7.988)" fill="#84b6d8"/>
        </g>
      </g>
      <g id="Group-6" data-name="Group" transform="translate(0 0)">
        <path id="Path-9" data-name="Path" d="M176.694,0V61.942c0,9.594-39.557,17.369-88.358,17.369C39.557,79.312,0,71.536,0,61.942V0Z" transform="translate(0 77.547)" fill="#cce9f1"/>
        <path id="Path-10" data-name="Path" d="M176.694,0V25.89c0,9.594-39.557,17.369-88.358,17.369C39.557,43.259,0,35.483,0,25.89V6.264a44.438,44.438,0,0,0,5.651.066,63.836,63.836,0,0,1,32.724,7.776c7.119,3.921,13.777,9.309,21.837,10.382,11.105,1.468,21.75-5.695,32.964-5.432,3.067.087,6.089.7,9.134,1.03a44.364,44.364,0,0,0,25.517-5.147c3.811-2.081,7.338-4.753,11.434-6.2,5.169-1.818,10.8-1.555,16.3-1.467,5.476.11,11.193,0,16.077-2.475A12.636,12.636,0,0,0,176.694,0Z" transform="translate(0 113.6)" fill="#b7dce5"/>
        <path id="Path-11" data-name="Path" d="M1.645,29.592c.909,2.232,2.319,4.221,3.428,6.361,4.535,8.761,4.31,20.42,12,26.6a7.355,7.355,0,0,0,4.976,1.912c1.815-.134,3.6-1.618,3.556-3.437a12.223,12.223,0,0,0-.828-2.856c-1.137-4.079,2.6-7.8,6.151-10.114S38.649,43.1,39,38.878c.23-2.758-1.33-5.367-1.491-8.13-.3-5.149,4.09-9.172,6.688-13.628A21.268,21.268,0,0,0,46.92,4l2.319-1.166C34.927,1.308,19.95-.464,5.54.111-1.934.41.178,4.274.583,10.146,1.033,16.676-.927,23.276,1.645,29.592Z" transform="translate(61.684 81.322)" fill="#e6e9f8"/>
        <g id="Group-7" data-name="Group" transform="translate(0 61.01)">
          <ellipse id="Oval-4" data-name="Oval" cx="88.343" cy="17.369" rx="88.343" ry="17.369" transform="translate(0 0)" fill="#a8cfef"/>
          <path id="Path-12" data-name="Path" d="M50.184,11.455c-1.336,2.344-5.454,4.534-10.229,3.526-9.046-1.906-8.1,6.177-16.909,5.958-8.805-.241-11.412-5.958-19.034-5.958a5.739,5.739,0,0,1-3.242-.745c-2.65-1.818,1.577-6.352,12.047-6.155C25.916,8.323,19.717,0,36.144,0c9.747,0-.482,6.418,9.506,6.9C50.382,7.119,51.389,9.352,50.184,11.455Z" transform="translate(57.777 6.907)" fill="#8dc2ce"/>
          <path id="Path-13" data-name="Path" d="M49.414,8.542c-1.336,2.344-5.454,4.534-10.229,3.526-9.046-1.906-8.1,6.177-16.909,5.958-8.805-.241-11.412-5.958-19.034-5.958A5.739,5.739,0,0,1,0,11.324C1.6,9.616,5.651,7.973,12.047,8.082,25.145,8.323,18.946,0,35.374,0c9.747,0-.482,6.418,9.506,6.9C47.289,7.009,48.735,7.666,49.414,8.542Z" transform="translate(58.547 9.82)" fill="#e6e9f8"/>
        </g>
        <g id="Group-8" data-name="Group" transform="translate(6.297 124.228)">
          <path id="Path-14" data-name="Path" d="M15.971,5.658c0,2.431-3.575,1.843-7.986,4.4C4.171,12.274,0,8.09,0,5.658s2.252-8.19,7.986-4.4C11.665,3.687,15.971,3.227,15.971,5.658Z" transform="translate(0 0)" fill="#92cdd6"/>
          <path id="Path-15" data-name="Path" d="M8.676,3.074c0,1.321-1.942,1-4.338,2.391C2.266,6.667,0,4.394,0,3.074S1.223-1.376,4.338.682C6.337,2,8.676,1.753,8.676,3.074Z" transform="translate(121.016 22.218)" fill="#92cdd6"/>
          <path id="Path-16" data-name="Path" d="M14.237,5.044c0,2.167-3.187,1.643-7.119,3.924C3.718,10.942,0,7.211,0,5.044s2.008-7.3,7.119-3.924C10.4,3.287,14.237,2.877,14.237,5.044Z" transform="translate(86.244 13.459)" fill="#92cdd6"/>
          <path id="Path-17" data-name="Path" d="M8.214,4.708c1.848,1.917-1.839,4.107-4.107,4.107A4.107,4.107,0,0,1,0,4.708C0,2.44,3.279-1.51,4.107.6,5.476,4.092,6.639,3.076,8.214,4.708Z" transform="translate(19.576 13.751)" fill="#92cdd6"/>
          <path id="Path-18" data-name="Path" d="M4.107,2.354c.924.958-.919,2.054-2.054,2.054A2.053,2.053,0,0,1,0,2.354C0,1.22,1.639-.755,2.054.3,2.738,2.046,3.32,1.538,4.107,2.354Z" transform="translate(18.298 2.186)" fill="#92cdd6"/>
          <path id="Path-19" data-name="Path" d="M3.218.253c1.3-1.043,2.456,1.383,2.326,2.8a2.573,2.573,0,0,1-2.8,2.326c-1.415-.13-3.691-2.4-2.326-2.8C2.676,1.926,2.109,1.142,3.218.253Z" transform="translate(44.129 15.845)" fill="#92cdd6"/>
          <path id="Path-20" data-name="Path" d="M8.214,4.708c1.848,1.917-1.839,4.107-4.107,4.107A4.107,4.107,0,0,1,0,4.708C0,2.44,3.279-1.51,4.107.6,5.476,4.092,6.639,3.076,8.214,4.708Z" transform="translate(160.305 3.899)" fill="#92cdd6"/>
          <path id="Path-21" data-name="Path" d="M8.214,4.708c1.848,1.917-1.839,4.107-4.107,4.107A4.107,4.107,0,0,1,0,4.708C0,2.44,3.279-1.51,4.107.6,5.476,4.092,6.639,3.076,8.214,4.708Z" transform="translate(97.306 21.576)" fill="#92cdd6"/>
          <path id="Path-22" data-name="Path" d="M5.288.077c2.068-.637,2.3,2.84,1.472,4.485A3.338,3.338,0,0,1,2.275,6.034C.63,5.2-1.032,1.375.8,1.549,3.837,1.837,3.527.62,5.288.077Z" transform="translate(68.794 24.419)" fill="#92cdd6"/>
          <path id="Path-23" data-name="Path" d="M6.642,3.807c1.494,1.55-1.487,3.321-3.321,3.321A3.321,3.321,0,0,1,0,3.807C0,1.973,2.651-1.221,3.321.486,4.428,3.309,5.369,2.487,6.642,3.807Z" transform="translate(45.202 23.263)" fill="#92cdd6"/>
          <path id="Path-24" data-name="Path" d="M6.091,3.437c0,1.682-2.724,4.7-3.046,3.046C2.415,3.241,0,5.119,0,3.437S2.742,2.046,3.046.391C3.306-1.03,6.091,1.755,6.091,3.437Z" transform="translate(34.759 18.159)" fill="#92cdd6"/>
          <path id="Path-25" data-name="Path" d="M4.625,6.344C2.9,6.977-1.223,5.314.352,4.363,3.442,2.5.606.723,2.333.09s2.46,2.292,4.273,1.981C8.163,1.8,6.352,5.711,4.625,6.344Z" transform="translate(143.708 15.734)" fill="#92cdd6"/>
          <path id="Path-26" data-name="Path" d="M.089,2.929c-.4-1.093.652-3.7,1.254-2.706C2.525,2.179,3.648.383,4.049,1.477S2.6,3.035,2.795,4.183C2.964,5.169.49,4.022.089,2.929Z" transform="translate(134.18 6.623)" fill="#92cdd6"/>
          <path id="Path-27" data-name="Path" d="M9.671,5.456c0,2.67-4.325,7.457-4.835,4.835C3.834,5.146,0,8.127,0,5.456S4.354,3.248,4.835.621C5.249-1.636,9.671,2.786,9.671,5.456Z" transform="translate(143.406 0.927)" fill="#92cdd6"/>
          <path id="Path-28" data-name="Path" d="M10.684,6.028c0,2.95-4.778,8.238-5.342,5.342C4.236,5.685,0,8.978,0,6.028S4.81,3.588,5.342.686C5.8-1.807,10.684,3.078,10.684,6.028Z" transform="translate(55.387 16.087)" fill="#92cdd6"/>
          <path id="Path-29" data-name="Path" d="M3.834,5.309C2.387,5.814-1.025,4.375.3,3.6,2.9,2.088.558.574,2.005.069S4.025,2.01,5.54,1.775C6.841,1.572,5.281,4.8,3.834,5.309Z" transform="translate(82.05 24.889)" fill="#92cdd6"/>
          <path id="Path-30" data-name="Path" d="M8.815,4.974c0,2.434-3.943,6.8-4.408,4.408C3.495,4.691,0,7.408,0,4.974S3.969,2.96,4.408.566C4.785-1.491,8.815,2.539,8.815,4.974Z" transform="translate(107.299 11.98)" fill="#92cdd6"/>
          <path id="Path-31" data-name="Path" d="M7.529,2.789c3.559,7.127-1.686,3.765-3.765,3.765A3.765,3.765,0,0,1,0,2.789C0,.71,1.938,2.619,3.765,1.625,10.015-1.776,6.6.929,7.529,2.789Z" transform="translate(4.86 13.344)" fill="#92cdd6"/>
          <path id="Path-32" data-name="Path" d="M6.36,2.356c3.007,6.02-1.424,3.18-3.18,3.18A3.18,3.18,0,0,1,0,2.356C0,.6,1.637,2.212,3.18,1.373,8.459-1.5,5.575.785,6.36,2.356Z" transform="translate(25.28 6.994)" fill="#92cdd6"/>
          <path id="Path-33" data-name="Path" d="M8.5,3.149C12.518,11.2,6.6,7.4,4.25,7.4A4.25,4.25,0,0,1,0,3.149C0,.8,2.188,2.957,4.25,1.835,11.306-2,7.451,1.049,8.5,3.149Z" transform="translate(123.683 11.002)" fill="#92cdd6"/>
        </g>
        <path id="Path-34" data-name="Path" d="M4.381,78.675A8.488,8.488,0,0,1,0,80.527V0H4.381Z" transform="translate(82.597 7.242)" fill="#393768"/>
        <path id="Path-35" data-name="Path" d="M13.317,12.288V23.94L7.272,36.359a.687.687,0,0,1-1.227,0L0,23.94V12.288A3.127,3.127,0,0,1,3.11,9.156H4.468V0C5.914.022,7.381.044,8.849.044V9.156h1.336A3.131,3.131,0,0,1,13.317,12.288Z" transform="translate(78.129 96.317)" fill="#393768"/>
        <path id="Path-36" data-name="Path" d="M7.211,2.162A19.871,19.871,0,0,1,.353,1.06.547.547,0,1,1,.742.037a18.791,18.791,0,0,0,6.469,1.03A18.746,18.746,0,0,0,13.678.037a.547.547,0,1,1,.389,1.022A19.821,19.821,0,0,1,7.211,2.162Z" transform="translate(77.574 108.719)" fill="#adadea"/>
        <path id="Path-37" data-name="Path" d="M7.211,2.164a19.871,19.871,0,0,1-6.859-1.1A.547.547,0,1,1,.742.039a18.791,18.791,0,0,0,6.469,1.03A18.763,18.763,0,0,0,13.678.039a.542.542,0,0,1,.706.315.547.547,0,0,1-.317.707A19.843,19.843,0,0,1,7.211,2.164Z" transform="translate(77.574 112.77)" fill="#adadea"/>
        <path id="Path-38" data-name="Path" d="M7.211,2.162a19.852,19.852,0,0,1-6.86-1.1A.547.547,0,1,1,.743.037a18.758,18.758,0,0,0,6.468,1.03A18.772,18.772,0,0,0,13.678.038a.547.547,0,1,1,.389,1.022A19.856,19.856,0,0,1,7.211,2.162Z" transform="translate(77.574 116.823)" fill="#adadea"/>
        <g id="Group-9" data-name="Group" transform="translate(29.192)">
          <path id="Path-39" data-name="Path" d="M8.792,0H5.433C4.119,0,0,2.992,0,4.306l3.053,8.553a2.38,2.38,0,0,0,2.38,2.38H14.1a2.38,2.38,0,0,0,2.124-3.455L10.915,1.305A2.38,2.38,0,0,0,8.792,0Z" transform="translate(0.033 61.776)" fill="#489dcc"/>
          <path id="Path-40" data-name="Path" d="M3.04,1.85,0,4.116.311,0Z" transform="translate(12.581 74.644)" fill="#489dcc"/>
          <g id="Group-10" data-name="Group" transform="translate(2.536)">
            <path id="Shape-3" data-name="Shape" d="M3.158,69.8A7.757,7.757,0,0,1,2.132,58.188L45.367,5.348a5.647,5.647,0,1,1,6.717,5.859L14.565,67.4a7.868,7.868,0,0,1-.5.778A7.8,7.8,0,0,1,3.158,69.8Z" transform="translate(0)" fill="#adadea"/>
            <ellipse id="Oval-5" data-name="Oval" cx="2.746" cy="2.746" rx="2.746" ry="2.746" transform="translate(48.247 2.912)" fill="#e6e9f8"/>
            <ellipse id="Oval-6" data-name="Oval" cx="3.422" cy="3.422" rx="3.422" ry="3.422" transform="translate(3.852 60.279)" fill="#e6e9f8"/>
          </g>
          <path id="Path-41" data-name="Path" d="M5.739,0H2.38A2.38,2.38,0,0,0,0,2.38V12.859a2.38,2.38,0,0,0,2.38,2.38h8.664a2.38,2.38,0,0,0,2.124-3.455L7.862,1.305A2.38,2.38,0,0,0,5.739,0Z" transform="translate(0 64.083)" fill="#70add6"/>
          <ellipse id="Oval-7" data-name="Oval" cx="0.555" cy="0.555" rx="0.555" ry="0.555" transform="translate(5.996 65.685)" fill="#393768"/>
          <ellipse id="Oval-8" data-name="Oval" cx="0.555" cy="0.555" rx="0.555" ry="0.555" transform="translate(1.187 65.685)" fill="#393768"/>
          <ellipse id="Oval-9" data-name="Oval" cx="0.555" cy="0.555" rx="0.555" ry="0.555" transform="translate(1.187 76.461)" fill="#393768"/>
          <ellipse id="Oval-10" data-name="Oval" cx="0.555" cy="0.555" rx="0.555" ry="0.555" transform="translate(11.173 76.461)" fill="#393768"/>
        </g>
      </g>
      <g id="Group-11" data-name="Group" transform="translate(8.754 50.98)">
        <path id="Path-42" data-name="Path" d="M17.3,8.648l-2.3,1.7L0,8.648a8.648,8.648,0,1,1,17.3,0Z" transform="translate(28.097 22.966)" fill="#489dcc"/>
        <path id="Path-43" data-name="Path" d="M6.62,16.017,4.034,4.831a2.626,2.626,0,1,0-1.7.394L4.913,16.409a.876.876,0,0,0,1.707-.392Z" transform="translate(30.452 7.26)" fill="#393768"/>
        <path id="Path-44" data-name="Path" d="M17.3,8.648H0a8.648,8.648,0,0,1,17.3,0Z" transform="translate(25.799 24.662)" fill="#70add6"/>
        <g id="Group-12" data-name="Group" transform="translate(0 0)">
          <g id="Group-13" data-name="Group" transform="translate(16.645 7.81)">
            <path id="Path-45" data-name="Path" d="M15.693,3.359A37.545,37.545,0,0,1,9.176,7.294a5.442,5.442,0,0,1-2.783.637C2.82,7.177,1.923,5.477,0,1.975L2.237,0C3.7.477,5.094,2.883,6.393,4.866l1.875-.651,6.49-2.232Z" transform="translate(0.231 0)" fill="#e5afa1"/>
            <path id="Path-46" data-name="Path" d="M.931,2.273a2.239,2.239,0,0,0,1.26.188A5.077,5.077,0,0,0,3.553,1.218C3.8.825,3.04-.116,2.462.08L1.232.391,1.33,0,.774.038,0,.889Z" transform="translate(14.987 1.09)" fill="#e5afa1"/>
            <path id="Path-47" data-name="Path" d="M9.588,7.481a6.478,6.478,0,0,1-3.119.6C2.9,7.328,1.923,5.7,0,2.2L2.468,0C3.936.477,5.32,2.613,6.619,4.6L8.4,4.112A6.839,6.839,0,0,1,9.588,7.481Z" transform="translate(0 0)" fill="#cce9f1"/>
            <path id="Path-48" data-name="Path" d="M.871,0A9.553,9.553,0,0,1,2.179,3.564,1.686,1.686,0,0,1,1.2,4.1,21.958,21.958,0,0,1,0,.318C.124.074.538.027.871,0Z" transform="translate(7.748 3.889)" fill="#6a6ae5"/>
          </g>
          <g id="Group-14" data-name="Group" transform="translate(0 17.486)">
            <g id="Group-15" data-name="Group" transform="translate(20.599 12.211)">
              <path id="Path-49" data-name="Path" d="M.8,0,.455,1.175a.719.719,0,0,0-.442.55L0,2.639l4.217-.168L4.308,1.7,2.565,1l0-.838Z" transform="translate(0.226 0)" fill="#edb6a4"/>
              <path id="Path-50" data-name="Path" d="M.159.617A1.558,1.558,0,0,0,.08,1.839l4.992-.093c.755-.047.946-.468.312-.7L2.853,0A.918.918,0,0,1,2.1.437,4.047,4.047,0,0,1,.894.428C.892.234.873.05.6,0Z" transform="translate(0 0.953)" fill="#393768"/>
            </g>
            <path id="Path-51" data-name="Path" d="M5.749,12.434l2.65.213C9.445,8.806,10.877,3.5,9.546.663,8.8-.614,3.239.183.174,1.133c0,0-.14,4.991-.172,5.191-.119.749,5.95-1,6.155-1.545Z" transform="translate(15.372 0)" fill="#393768"/>
            <path id="Path-52" data-name="Path" d="M6.814,2.561a6.455,6.455,0,0,0-.207,1.482.765.765,0,0,1-.174.316L6.608,1.1C6.4,1.635.333,3.389.453,2.637c.022-.076-.474.419-.452-.6.185-.381,1.157-.8,1.157-.8A5.143,5.143,0,0,0,5.181.938,15.991,15.991,0,0,1,7.163,0C7.392.022,7.032,1.874,6.814,2.561Z" transform="translate(14.923 3.683)" opacity="0.1"/>
            <g id="Group-16" data-name="Group" transform="translate(0 9.317)">
              <path id="Path-53" data-name="Path" d="M3.009,1.226,1.907.694A.719.719,0,0,0,1.439.166L.541,0,0,4.185.741,4.4l.984-1.6.826.142Z" transform="translate(0.341 0.173)" fill="#edb6a4"/>
              <path id="Path-54" data-name="Path" d="M1.947.286A1.558,1.558,0,0,0,.755,0L.011,4.939c-.08.753.3,1.011.641.425L2.1,3.045a.918.918,0,0,1-.3-.82,4.049,4.049,0,0,1,.21-1.184c.191.03.376.042.471-.218Z" transform="translate(0 0)" fill="#393768"/>
            </g>
            <path id="Path-55" data-name="Path" d="M8.21,1.488,12.473,0c2.389,2.242,2.748,9.74,1.131,11.111-2.342,2.184-8.278.548-13.6-.883L.367,7.542l8.92-.02C8.47,5.348,7.651,3.305,8.21,1.488Z" transform="translate(2.597 2.42)" fill="#393768"/>
            <path id="Path-56" data-name="Path" d="M7.387,7.755c-.613.4-1.41-.031-2.054-.368a7.072,7.072,0,0,0-3.709-.644,2.326,2.326,0,0,1-.92.031,1.622,1.622,0,0,1-.7-.4H6.9C6.069,4.2,5.241,2.146,5.824.337L6.835,0c-.03.552-.184,1.2-.184,1.686a6.114,6.114,0,0,0,.184,2.238c.245.736.705,1.379.95,2.115A1.52,1.52,0,0,1,7.387,7.755Z" transform="translate(4.993 3.58)" opacity="0.1"/>
          </g>
          <path id="Path-57" data-name="Path" d="M9.989,6.5c-.525,2.3-1.619,4.9-1.653,6.472-.082.081-.163.15-.256.23C6.018,14.888.956,15.139.089,14.414-.508,13.915,2,3.176,4.846.563,6.36-.645,9.525.162,10.039,2.3A10.109,10.109,0,0,1,9.989,6.5Z" transform="translate(10.399 7.256)" fill="#cce9f1"/>
          <path id="Path-58" data-name="Path" d="M0,1.593A3.005,3.005,0,0,0,.541,0L2.5.242l.112,2.291A6.18,6.18,0,0,1,0,1.593Z" transform="translate(17.092 5.738)" fill="#d8a598"/>
          <path id="Path-59" data-name="Path" d="M2.529,1.422C2.4,1.4,2.251,1.373,2.1,1.343a1.689,1.689,0,0,0-.825-.009,2.3,2.3,0,0,0-.659.391.307.307,0,0,1-.172.095A1.288,1.288,0,0,1,0,1.605,3.106,3.106,0,0,0,.529,0L2.485.243Z" transform="translate(17.095 5.736)" opacity="0.1"/>
          <path id="Path-60" data-name="Path" d="M1.445,4.583c1.387.508,2.624.777,3.422.345A5.682,5.682,0,0,0,3.433,0L0,1.437Z" transform="translate(15.841 1.767)" fill="#edb6a4"/>
          <path id="Path-61" data-name="Path" d="M3.724,1.962a1.442,1.442,0,0,1-.377.214,3.059,3.059,0,0,1-.479.122c-.492.055-.984.11-1.468.136a1.882,1.882,0,0,1-.578-.1,1.159,1.159,0,0,1-.756-.717A1.3,1.3,0,0,1,0,1.159.8.8,0,0,1,.184.732L1.845.013c.029.008.029.008.067-.013.253.006.5.042.78.056A4.86,4.86,0,0,1,3.724,1.962Z" transform="translate(16.822 1.954)" opacity="0.1"/>
          <path id="Path-62" data-name="Path" d="M5.381,2.666a2.112,2.112,0,0,1-1.947.225,1.838,1.838,0,0,0,.4,1.079.326.326,0,0,1-.214.274c-.243-.275-.481-.618-.7-.538a.668.668,0,0,0-.287.738c.084.4.6.747,1.1,1.135-.481.338-.83.547-1.21.47A2.185,2.185,0,0,1,.788,5.4C.236,4.892.729,4.086.305,3.664c-.376-.395-.5-2.217.2-2.174.644.025.743-.031,1.168-.87S2.8-.133,3.2.476,3.675.714,4.292.385s1.732.45,1.219.752A1.753,1.753,0,0,1,5.381,2.666Z" transform="translate(15.28 0.659)" fill="#c8c8e8"/>
          <path id="Path-63" data-name="Path" d="M.281.021c.525.739.77,1.762,1.651,1.246.283-.177.433.884-.1.984S.3.7.067.295.281.021.281.021Z" transform="translate(18.829 4.608)" fill="#c8c8e8"/>
          <g id="Group-17" data-name="Group" transform="translate(16.418 8.224)">
            <path id="Path-64" data-name="Path" d="M15.713,3.146A37.552,37.552,0,0,1,9.259,7.184a5.441,5.441,0,0,1-2.773.681C2.9,7.167,1.978,5.481,0,2.011L2.205,0c1.476.454,2.9,2.838,4.232,4.8L8.3,4.119l6.454-2.335Z" transform="translate(0.228 0)" fill="#edb6a4"/>
            <path id="Path-65" data-name="Path" d="M.953,2.279a2.239,2.239,0,0,0,1.262.168A5.077,5.077,0,0,0,3.558,1.183C3.8.786,3.024-.143,2.449.062L1.224.392,1.316,0,.76.047,0,.91Z" transform="translate(14.981 0.87)" fill="#edb6a4"/>
            <path id="Path-66" data-name="Path" d="M9.671,7.367a6.476,6.476,0,0,1-3.109.65C2.978,7.32,1.978,5.708,0,2.238L2.433,0C3.908.454,5.326,2.568,6.656,4.53l1.773-.512A6.84,6.84,0,0,1,9.671,7.367Z" transform="translate(0 0)" fill="#cce9f1"/>
            <path id="Path-67" data-name="Path" d="M.866,0A9.555,9.555,0,0,1,2.23,3.542a1.686,1.686,0,0,1-.971.556A21.954,21.954,0,0,1,0,.332C.12.086.533.033.866,0Z" transform="translate(7.779 3.791)" fill="#6a6ae5"/>
          </g>
          <path id="Path-68" data-name="Path" d="M9.264,1.077c.343-.511,2.038.742.793.941-1.2.335-2.712,4.684-.3,5.927.244.461-1.288,3.584-1.288,5.085S.158,16.178.006,14.632,2.476,0,6.563,0c.428,0,.25.2.122.362A3.761,3.761,0,0,0,9.264,1.077Z" transform="translate(10.27 7.193)" fill="#6a6ae5"/>
          <path id="Path-69" data-name="Path" d="M.357,0,2.425.912,1.862,1.995,0,.838Z" transform="translate(15.014 8.826)" fill="#e6e9f8"/>
          <path id="Path-70" data-name="Path" d="M5.52,2.938c-1.894.6-4.139,1.185-5.107.817S.131-.023,3,0A3.143,3.143,0,0,1,5.839,1.439C7.833,1.364,6.7,2.612,5.52,2.938Z" transform="translate(14.896 0)" fill="#6a6ae5"/>
        </g>
      </g>
      <path id="Shape-4" data-name="Shape" d="M12.992,51.961h-.663a.548.548,0,1,1,0-1.1h.665a2.886,2.886,0,0,0,2.548-1.531.548.548,0,1,1,.967.516,3.981,3.981,0,0,1-3.514,2.111Zm2.89-13.254v-2.19a.548.548,0,1,1,1.1,0v2.19a.548.548,0,0,1-1.1,0Zm0-6.571V21.184a.548.548,0,0,1,1.1,0V32.136a.548.548,0,0,1-1.1,0Zm0-13.142V14.613a.548.548,0,1,1,1.1,0v4.381a.548.548,0,0,1-1.1,0ZM15.869,3.712a2.86,2.86,0,0,0-.725-1.657.547.547,0,1,1,.813-.731,3.944,3.944,0,0,1,1,2.286.548.548,0,0,1-.494.6l-.052,0A.549.549,0,0,1,15.869,3.712ZM.548,1.095A.547.547,0,1,1,.548,0H11.5a.547.547,0,1,1,0,1.095Z" transform="translate(165.368 40.956)" fill="#393768"/>
      <g id="Group-18" data-name="Group" transform="translate(102.261 2.364)">
        <path id="Path-71" data-name="Path" d="M.547,0A.548.548,0,0,0,0,.547V6.023a.547.547,0,0,0,1.095,0V.547A.548.548,0,0,0,.547,0Z" transform="translate(18.735 4.167)" fill="#393768"/>
        <path id="Path-72" data-name="Path" d="M4,0H2.171A4.011,4.011,0,0,0,.291.469.547.547,0,0,0,.547,1.5.538.538,0,0,0,.8,1.436,2.878,2.878,0,0,1,2.171,1.1H4A.548.548,0,1,0,4,0Z" transform="translate(3.883 0)" fill="#393768"/>
        <path id="Path-73" data-name="Path" d="M2.451.988A4,4,0,0,0,.68.015.548.548,0,0,0,.415,1.078,2.891,2.891,0,0,1,1.7,1.784a.548.548,0,0,0,.753-.8Z" transform="translate(16.128 0.105)" fill="#393768"/>
        <path id="Path-74" data-name="Path" d="M.547,9.794A.548.548,0,0,0,1.1,9.246V2.407A2.889,2.889,0,0,1,1.551.844.547.547,0,1,0,.631.252,3.974,3.974,0,0,0,0,2.407v6.84A.548.548,0,0,0,.547,9.794Z" transform="translate(2.054 1.593)" fill="#393768"/>
        <path id="Path-75" data-name="Path" d="M.547,9.9A.548.548,0,0,0,1.1,9.349V.547a.548.548,0,0,0-1.1,0v8.8A.548.548,0,0,0,.547,9.9Z" transform="translate(2.054 29.657)" fill="#393768"/>
        <path id="Path-76" data-name="Path" d="M.547,2.855A.548.548,0,0,0,1.1,2.308V.547a.548.548,0,0,0-1.1,0v1.76A.548.548,0,0,0,.547,2.855Z" transform="translate(2.054 13.813)" fill="#393768"/>
        <path id="Path-77" data-name="Path" d="M.547,4.616A.548.548,0,0,0,1.1,4.068V.547a.548.548,0,0,0-1.1,0V4.068A.548.548,0,0,0,.547,4.616Z" transform="translate(2.054 24.375)" fill="#393768"/>
        <path id="Path-78" data-name="Path" d="M.547,2.855A.548.548,0,0,0,1.1,2.308V.547a.548.548,0,0,0-1.1,0v1.76A.548.548,0,0,0,.547,2.855Z" transform="translate(2.054 41.98)" fill="#393768"/>
        <path id="Path-79" data-name="Path" d="M.547,4.616A.548.548,0,0,0,1.1,4.068V.547a.548.548,0,0,0-1.1,0V4.068A.548.548,0,0,0,.547,4.616Z" transform="translate(2.054 52.544)" fill="#393768"/>
        <path id="Path-80" data-name="Path" d="M3.149,5.178V.547a.548.548,0,0,0-1.1,0V5.178C.889,5.273,0,5.636,0,6.091c0,.526,1.164.953,2.6.953s2.6-.427,2.6-.953C5.2,5.636,4.313,5.273,3.149,5.178Z" transform="translate(0 57.831)" fill="#393768"/>
      </g>
      <g id="Group-19" data-name="Group" transform="translate(112.254 12.554)">
        <path id="Path-81" data-name="Path" d="M51.015,34.744H2.645A2.645,2.645,0,0,1,0,32.1V2.645A2.645,2.645,0,0,1,2.645,0h48.37A2.645,2.645,0,0,1,53.66,2.645V32.1A2.645,2.645,0,0,1,51.015,34.744Z" transform="translate(0 0)" fill="#e6e9f8"/>
        <path id="Path-82" data-name="Path" d="M11.47,7.469c.486-.42.842-1.158.484-1.691a2.316,2.316,0,0,0-.879-.61A3.207,3.207,0,0,1,9.462,2.561C9.425,1.742,9.618.715,8.925.277a1.678,1.678,0,0,0-.591-.2A2.575,2.575,0,0,0,7.192.055a1.042,1.042,0,0,0-.784.76c-.11.613.492,1.09.8,1.631A1.916,1.916,0,0,1,7.124,4.44a1.916,1.916,0,0,1-1.834.786,3.439,3.439,0,0,1-1.7-.994A5.353,5.353,0,0,0,2,3.055a1.542,1.542,0,0,0-1.806.4A1.619,1.619,0,0,0,.9,5.583a8.963,8.963,0,0,0,2.382.754A2.44,2.44,0,0,1,5.126,7.861c.076.31.084.7.364.85a.839.839,0,0,0,.6,0A13.889,13.889,0,0,1,9.2,8.12,3.041,3.041,0,0,0,11.47,7.469Z" transform="translate(2.863 3.526)" fill="#85bbe0"/>
        <rect id="Rectangle" width="10.222" height="2.187" transform="translate(19.257 8.761)" fill="#a8cfef"/>
        <rect id="Rectangle-2" data-name="Rectangle" width="10.222" height="2.187" transform="translate(19.257 5.257)" fill="#a8cfef"/>
        <rect id="Rectangle-3" data-name="Rectangle" width="24.935" height="2.187" transform="translate(14.511 14.452)" fill="#a8cfef"/>
        <rect id="Rectangle-4" data-name="Rectangle" width="11.267" height="2.187" transform="translate(14.511 25.549)" fill="#a8cfef"/>
        <rect id="Rectangle-5" data-name="Rectangle" width="30.596" height="2.187" transform="translate(14.511 29.336)" fill="#a8cfef"/>
        <rect id="Rectangle-6" data-name="Rectangle" width="31.212" height="2.187" transform="translate(14.511 18.797)" fill="#a8cfef"/>
        <path id="Path-83" data-name="Path" d="M4,.837C4-2.606-1.571,5.577.437,7.27S8.1,9.419,6.642,6.407,4,4.393,4,.837Z" transform="translate(3.853 22.067)" fill="#85bbe0"/>
      </g>
      <g id="Group-20" data-name="Group" transform="translate(138.371 24.645)">
        <path id="Path-84" data-name="Path" d="M26.32,16.5c0-.044-.044-.066-.066-.11a1.867,1.867,0,0,0-.329-.482,1.311,1.311,0,0,1-.175-.175,3.839,3.839,0,0,0-.372-.263,1.192,1.192,0,0,0-.241-.11,1.4,1.4,0,0,0-.394-.131,1.293,1.293,0,0,0-.306-.044c-.022,0-.044-.022-.066-.022v.022a2.677,2.677,0,0,0-.591.022c-.044.022-.066.044-.11.044l-.438-.35-.088.044a.021.021,0,0,0-.022-.022c-.066-.153-.175-.35-.285-.547a.166.166,0,0,1,.088-.022c.942.131,1.029-.789,1.38-1.073a1.131,1.131,0,0,0,.306-1.4,1.764,1.764,0,0,1-.2-1.468c.153-.438-.153-1.6-.57-1.708a3.8,3.8,0,0,1-1.117-.351c-.547-.285-.635-.679-1.467-.372-.942.351-1.927.307-1.95,1.27a1.05,1.05,0,0,0,.153,1.051c-.022.066-.022.131-.044.175a3.333,3.333,0,0,0-.131.438.021.021,0,0,1,.022.022,6.311,6.311,0,0,0,.088,2.387h-.044s0,1.117.547,1.249a1.4,1.4,0,0,0,.526.022,1.857,1.857,0,0,0,.372.087c.022.11.044.219.066.307.044.241.066.482.087.679l-.46.131-.088.679a13.161,13.161,0,0,0-1.424.81c-.175.11-.351.219-.526.351l-.613.153-3.417.854-.876-.854L11.294,15.6l-.657-.635.2-.11-.92-.591-.088.066-.7-.81c-.022,0-.044.022-.066.022l-.131-.153a.278.278,0,0,0-.022-.131l-.066-.088a6.156,6.156,0,0,0-.285-1.621.294.294,0,0,0-.351-.131,1.2,1.2,0,0,0-.153.5l-3-4.665L3.628,5.069,2.248,2.922.846.732.452.119A.247.247,0,0,0,.123.031.249.249,0,0,0,.036.381l.219.35,1.336,2.19L2.905,5.069l1.336,2.19,2.322,3.789c-.263,0-.372,1.73.022,2.015.066.351.263.46.46.767a1.856,1.856,0,0,0,.657.263l.131.219a.369.369,0,0,0-.131.131c.153.263.372.526.547.789l-.175.11.131.263.329.679.219-.153c.329.526.723,1.1,1.161,1.665.92,1.27,1.95,2.519,2.519,3.22H24.9a2.542,2.542,0,0,0,1.993-.92A10.142,10.142,0,0,0,26.32,16.5Z" transform="translate(0 2.121)" opacity="0.1"/>
        <g id="Group-21" data-name="Group" transform="translate(0.002 0)">
          <path id="Path-85" data-name="Path" d="M8.188,13.711.036.374A.246.246,0,0,1,.453.113L8.906,13.261a.424.424,0,0,1-.713.458Z" transform="translate(0 0)" fill="#8484ce"/>
          <g id="Group-22" data-name="Group" transform="translate(18.983 53.031)">
            <path id="Path-86" data-name="Path" d="M3.038,0l.14.723c.208.1.223.189.336.413a1.557,1.557,0,0,1,.195.744L0,1.329,1.169.665,1.487.2Z" transform="translate(1.21 0)" fill="#e6e9f8"/>
            <path id="Path-87" data-name="Path" d="M4.876,2.086A8.938,8.938,0,0,1,.155,1.63a.645.645,0,0,1-.1-.68A.826.826,0,0,1,.323.568C.816.112,1.571.428,2.316.047l.019.019c.14.149,0,.279.019.447a2.529,2.529,0,0,0,2,.112c.27-.2.2-.354.074-.512C4.411.093,4.4.074,4.383.065S4.345.019,4.327,0l.056.028L4.671.2a1.344,1.344,0,0,1,.289.5C5.146,1.239,5.239,1.993,4.876,2.086Z" transform="translate(0 0.631)" fill="#393768"/>
          </g>
          <g id="Group-23" data-name="Group" transform="translate(18.983 53.031)">
            <path id="Path-88" data-name="Path" d="M3.038,0l.14.723c.208.1.223.189.336.413a1.557,1.557,0,0,1,.195.744L0,1.329,1.169.665,1.487.2Z" transform="translate(1.21 0)" fill="#e6e9f8"/>
            <path id="Path-89" data-name="Path" d="M4.876,2.086A8.938,8.938,0,0,1,.155,1.63a.645.645,0,0,1-.1-.68A.826.826,0,0,1,.323.568C.816.112,1.571.428,2.316.047l.019.019c.14.149,0,.279.019.447a2.529,2.529,0,0,0,2,.112c.27-.2.2-.354.074-.512C4.411.093,4.4.074,4.383.065S4.345.019,4.327,0l.056.028L4.671.2a1.344,1.344,0,0,1,.289.5C5.146,1.239,5.239,1.993,4.876,2.086Z" transform="translate(0 0.631)" fill="#393768"/>
          </g>
          <g id="Group-24" data-name="Group" transform="translate(25.907 51.819)">
            <path id="Path-90" data-name="Path" d="M2.667,0l.3.674c.224.048.259.135.419.328a1.558,1.558,0,0,1,.355.682L0,1.971l.992-.907L1.2.54Z" transform="translate(1.078 0)" fill="#e6e9f8"/>
            <path id="Path-91" data-name="Path" d="M2.012.5c-.643.534-1.445.4-1.828.951a.752.752,0,0,0,.077,1.07,8.885,8.885,0,0,0,4.7-.6c.462-.24-.245-1.591-.619-1.79L3.96,0c.233.161.437.3.172.6A2.492,2.492,0,0,1,2.155.94C2.094.771,2.213.609,2.012.5Z" transform="translate(0 0.594)" fill="#393768"/>
          </g>
          <path id="Path-92" data-name="Path" d="M6.851,21.553a5.084,5.084,0,0,1-2.864.894C2.75,18.885.136,12.71,0,11.22L.224,3.235.445,0,4.04.009c1.158,3.733.074,8.245-.413,10.732Z" transform="translate(23.463 30.074)" fill="#adadea"/>
          <path id="Path-93" data-name="Path" d="M2.319,15.849A47.125,47.125,0,0,1,0,9.107L.223,1.117.3,0A.835.835,0,0,1,.382.149a3.381,3.381,0,0,1,.279.95A13.376,13.376,0,0,1,.754,5.364a11.015,11.015,0,0,0-.149,1.36A13.742,13.742,0,0,0,.819,8.957C1.369,11.258,2.328,13.5,2.319,15.849Z" transform="translate(23.459 32.189)" opacity="0.1"/>
          <path id="Path-94" data-name="Path" d="M5.774,0c.513,3.26-.752,8.5-1.686,12.133L5.065,22.7A4.4,4.4,0,0,1,2.3,22.286L.063,12.02A59.242,59.242,0,0,1,.662.951Z" transform="translate(18.69 30.69)" fill="#adadea"/>
          <path id="Path-95" data-name="Path" d="M9.435,15.947c-.019.383-3.937,1.615-6.27,1.434L.54,16.962A23.775,23.775,0,0,1,0,13.284L.54,7.343.434,7.106C.343,5.586.039,4.161,0,2.486A15.39,15.39,0,0,1,5.338.064,2.243,2.243,0,0,1,7.883,1.339c1.135,2.343.245,9.828.245,9.828Z" transform="translate(18.447 15.156)" fill="#4e4e9b"/>
          <path id="Path-96" data-name="Path" d="M.4,3.231A3.316,3.316,0,0,0,2.87,2.372,11.49,11.49,0,0,1,1.648,0L0,.522A9.069,9.069,0,0,1,.4,3.231Z" transform="translate(20.533 12.95)" fill="#edb6a4"/>
          <path id="Path-97" data-name="Path" d="M2.607,2c-.028,0-.429.357-.457.348-.223-.074-.2-.466-.427-.438s-.484-.186-.707-.037a1.111,1.111,0,0,1-.689.177C.242,1.583.121,1.052,0,.522L1.648,0C1.909.606,2.355,1.524,2.607,2Z" transform="translate(20.535 12.95)" opacity="0.1"/>
          <path id="Path-98" data-name="Path" d="M.353,5.439c.313.768,1.877.889,3.375.319.427-.164.946-1.244,1.539-2.269L3.812,0,1.037.151A5.631,5.631,0,0,0,.353,5.439Z" transform="translate(19.196 8.589)" fill="#edb6a4"/>
          <path id="Path-99" data-name="Path" d="M3.408,1.547a.712.712,0,0,1-.428.717.756.756,0,0,1-.382.028,2.415,2.415,0,0,1-1.22-.456A2.874,2.874,0,0,0,1.1,1.65a4.941,4.941,0,0,0-.661-.2A4.3,4.3,0,0,1,0,1.268,4.809,4.809,0,0,1,.382.058,1.46,1.46,0,0,1,.577.02,3.333,3.333,0,0,1,2.514.393,1.523,1.523,0,0,1,3.408,1.547Z" transform="translate(19.286 9.651)" opacity="0.1"/>
          <path id="Path-100" data-name="Path" d="M.073,1.375c-.4,1.08.952,1.848,1.534,1.951a.807.807,0,0,1,.616,1.147l.185.13s.133-.809.414-.6.513.271.265.847-.327,1.488.606,1.628,1.036-.788,1.382-1.06a1.139,1.139,0,0,0,.3-1.4A1.716,1.716,0,0,1,5.19,2.55C5.335,2.1,5.033.944,4.606.827A3.633,3.633,0,0,1,3.488.485C2.957.205,2.85-.2,2.027.114,1.089.472.1.422.073,1.375Z" transform="translate(19.232 7.869)" fill="#f2f2f2"/>
          <path id="Path-101" data-name="Path" d="M2.09,0S1.7,1.352,1.26,1.517.534.625,0,.993c0,0-.013,1.1.529,1.237s1.39-.067,1.411-.589A8.718,8.718,0,0,1,2.285.078Z" transform="translate(19.364 12.341)" fill="#f2f2f2"/>
          <path id="Path-102" data-name="Path" d="M2.794,2.609,1.575,3.4l-.207-.326A2.408,2.408,0,0,1,.708,2.8c-.185-.308-.391-.414-.45-.763-.4-.289-.287-2.157,0-2.031.263.38,1.069.5,1.455.945A1.183,1.183,0,0,1,1.877.392a.3.3,0,0,1,.351.139A7.011,7.011,0,0,1,2.54,2.3Z" transform="translate(6.326 11.025)" fill="#edb6a4"/>
          <path id="Path-103" data-name="Path" d="M2.207.913l-1.517,1C.494,1.583.2,1.257,0,.941.077.674.968.41,1.415,0Z" transform="translate(7.7 13.513)" fill="#e6e9f8"/>
          <path id="Path-104" data-name="Path" d="M10.691,8.223c-1.7-.224-4.275-.617-5.452-.8A1.67,1.67,0,0,1,4.2,6.835,56.163,56.163,0,0,1,.447,1.844L0,1.145,1.611,0l.726.7,3.8,3.669L10.15,3.362Z" transform="translate(8.296 14.277)" fill="#4e4e9b"/>
          <path id="Path-105" data-name="Path" d="M2.751.578,2.555.7.665,1.844l-.218.163L0,1.067,1.829,0Z" transform="translate(8.078 14.277)" fill="#adadea"/>
          <path id="Path-106" data-name="Path" d="M2.826,0l.466.361L2.355.883A6.26,6.26,0,0,1,0,1.562L.106.879,2.049.345Z" transform="translate(20.396 14.913)" fill="#adadea"/>
          <rect id="Rectangle-7" data-name="Rectangle" width="0.466" height="2.8" transform="translate(19.314 28.922) rotate(-45)" fill="#adadea"/>
          <ellipse id="Oval-11" data-name="Oval" cx="0.146" cy="0.146" rx="0.146" ry="0.146" transform="translate(8.078 14.467)" fill="#adadea"/>
          <path id="Path-107" data-name="Path" d="M4.965,2.076a8.75,8.75,0,0,1-4.7.605.7.7,0,0,1-.177-.9A3.161,3.161,0,0,1,.663,1.9a5.469,5.469,0,0,0,3.511-.233.47.47,0,0,0,.205-.149.37.37,0,0,0,.047-.2V1.285A1.422,1.422,0,0,0,4.239.615C4.23.6,4.22.587,4.211.568c-.084-.13-.438-.3-.363-.456A.273.273,0,0,1,3.941,0l.074.186.335.1C4.723.493,5.431,1.844,4.965,2.076Z" transform="translate(25.906 52.247)" opacity="0.1"/>
          <path id="Path-108" data-name="Path" d="M4.876,1.378A8.938,8.938,0,0,1,.155.922a.645.645,0,0,1-.1-.68C.49.317.909.512,1.356.6a4.129,4.129,0,0,0,.838.056A10.611,10.611,0,0,0,4.075.568,1.76,1.76,0,0,0,4.457.475a1.072,1.072,0,0,0,.252-.13.579.579,0,0,0,.158-.2C4.895.1,4.932.047,4.96,0,5.146.531,5.239,1.285,4.876,1.378Z" transform="translate(18.983 54.37)" opacity="0.1"/>
          <path id="Path-109" data-name="Path" d="M9.247,15.933c-.019.391-3.939,1.62-6.267,1.434L.354,16.948s-.2-.913-.354-1.862a11.379,11.379,0,0,0,5.829.438,2,2,0,0,0,1.6-.978c.354-.894-.531-1.769-.7-2.71a4.088,4.088,0,0,1,.13-1.537,16.99,16.99,0,0,0-.2-7.468A16.305,16.305,0,0,0,6.128,1.09C5.988.708,5.634.261,5.736,0A2.262,2.262,0,0,1,7.692,1.332c1.136,2.337.251,9.824.251,9.824Z" transform="translate(18.635 15.166)" opacity="0.1"/>
          <path id="Path-110" data-name="Path" d="M6.137,0a6.067,6.067,0,0,0-.605,2.412A3.683,3.683,0,0,1,4.637,4.7a1.155,1.155,0,0,1-.2.168l.279-3.036C3.306,1.648,1.313,1.35,0,1.155H.1c.708-.009,1.406-.1,2.1-.14.661-.037,1.322-.009,1.983.019a2.514,2.514,0,0,0,.372-.009c.019.009.037,0,.056,0A1.072,1.072,0,0,0,5.1.894a1.818,1.818,0,0,0,.261-.2Z" transform="translate(14.277 20.661)" opacity="0.1"/>
        </g>
      </g>
      <g id="Group-25" data-name="Group" transform="translate(107.83 17.939)">
        <g id="Group-26" data-name="Group" transform="translate(4.424 9.138)" opacity="0.1">
          <path id="Path-111" data-name="Path" d="M18.443,6.921a1.038,1.038,0,0,1-.153.591c-.2.219-.547.219-.854.285a1.86,1.86,0,0,0-1.511,1.6,2.989,2.989,0,0,1-.2,1.183,1.3,1.3,0,0,1-.876.438c-.131.022-.241.022-.351.044-.635.044-1.358.131-2.1.175a2.341,2.341,0,0,1-.57.569c.044.46.066.942.066,1.4.044.547.066,1.073.066,1.6,0,.767-.022,1.511-.044,2.19-.044.526-.087,1.029-.131,1.489.11.044.219.066.329.11a1.48,1.48,0,0,1-.066,1.051c-.066-.022-.153-.044-.219-.066a5.436,5.436,0,0,1-.175.635H0A4.3,4.3,0,0,1,.416,19.6a3.965,3.965,0,0,1,.416-.547,1.194,1.194,0,0,0,.175-.11l-.088-.5A3.3,3.3,0,0,1,1.752,18a7.977,7.977,0,0,1,.854-.241,2.342,2.342,0,0,1-1.073-.482c-.46-.372-.285-.986-.438-1.4a.406.406,0,0,0-.153-.263,1.067,1.067,0,0,1-.263-.526H.635c-.613-.175-.657-1.577.087-2.628a2.722,2.722,0,0,1,2.19-1.2,3.108,3.108,0,0,1,2.738,1.03c.044.066.087.11.131.175,1.161-.11,1.249.306.876.745a2.381,2.381,0,0,1-.723.57.77.77,0,0,1-.11.526,2.06,2.06,0,0,1-.263.2c.044.11.11.2.153.307.022.022.022.066.044.087H5.738A7.42,7.42,0,0,1,6.089,17v.438h.526L6.746,17l.2-.635c-.022,0-.044-.022-.066-.022-.131-.219.044-.57.175-.854a1.1,1.1,0,0,1,.263.044l.175-.723.351-1.6.5-2.19.088-.394a3.1,3.1,0,0,1-1.446-2.65,5.052,5.052,0,0,1,.131-1.511,8.4,8.4,0,0,0,.2-2.19,2.609,2.609,0,0,0-.2-.789,13.9,13.9,0,0,0-.9-1.314c0-.022-.022-.022-.022-.044a1.49,1.49,0,0,1-.285-.7A1.15,1.15,0,0,1,5.98.656,1.328,1.328,0,0,1,7.644.087a2.47,2.47,0,0,1,1.27,1.424,5.094,5.094,0,0,1,.241.613c.153.394.263.81.438,1.2a4.363,4.363,0,0,0,.5.942,4.246,4.246,0,0,0,.46.635,2.121,2.121,0,0,0,2.212.854,3.045,3.045,0,0,0,.9-.591,4.628,4.628,0,0,1,1.643-.9,3.137,3.137,0,0,1,.482-.11,2.743,2.743,0,0,1,1.117.11,2.022,2.022,0,0,1,1.007.679,1.787,1.787,0,0,1,.372.767,3.068,3.068,0,0,1,.11.745A1.625,1.625,0,0,1,18.443,6.921Z" transform="translate(8.871 0)"/>
          <path id="Path-112" data-name="Path" d="M.274.548h2.19a.274.274,0,1,0,0-.548H.274a.274.274,0,1,0,0,.548Z" transform="translate(3.89 1.968)"/>
          <path id="Path-113" data-name="Path" d="M.274.548h2.19a.274.274,0,1,0,0-.548H.274a.274.274,0,1,0,0,.548Z" transform="translate(10.46 1.968)"/>
          <path id="Path-114" data-name="Path" d="M2.256.263a.29.29,0,0,1-.285.285H0V0H1.971A.287.287,0,0,1,2.256.263Z" transform="translate(0 1.971)"/>
        </g>
        <g id="Group-27" data-name="Group" transform="translate(0 0)">
          <g id="Group-28" data-name="Group" transform="translate(12.569 14.535)">
            <path id="Path-115" data-name="Path" d="M9.328,0a35.111,35.111,0,0,1-.106,7.118,5.087,5.087,0,0,1-.873,2.523c-2.367,2.46-4.16,2.33-7.89,2.122L0,9.01c1.106-.928,3.7-.839,5.918-.887l.412-1.81L7.772.06Z" transform="translate(0 2.819)" fill="#dda294"/>
            <path id="Path-116" data-name="Path" d="M1.851,2.825a2.093,2.093,0,0,0,.773-.906,4.749,4.749,0,0,0-.311-1.7C2.123-.168,1-.031.87.525L.507,1.655.245,1.383,0,1.843.292,2.878Z" transform="translate(7.476 0)" fill="#edb6a4"/>
            <path id="Path-117" data-name="Path" d="M9.46.725A5.3,5.3,0,0,1,8.392,3.5C5.84,5.634,4.252,5.924.523,5.716L0,2.669C1.106,1.741,3.485,1.7,5.7,1.652L6.2,0A6.4,6.4,0,0,1,9.46.725Z" transform="translate(0 9.16)" fill="#cce9f1"/>
            <path id="Path-118" data-name="Path" d="M.227,0A8.934,8.934,0,0,1,3.7.728a1.578,1.578,0,0,1-.056,1.045A20.537,20.537,0,0,1,.048.849C-.084.629.084.278.227,0Z" transform="translate(5.904 8.875)" fill="#6a6ae5"/>
          </g>
          <path id="Path-119" data-name="Path" d="M12.568,6.917a.911.911,0,0,1-.15.579c-.2.227-.553.227-.857.3a1.858,1.858,0,0,0-1.5,1.6,3.093,3.093,0,0,1-.2,1.175,1.646,1.646,0,0,1-1.223.486c-2.758.235-7.226,1.107-7.511-3.094-.1-1.51.737-3.108.122-4.489a11.509,11.509,0,0,0-.9-1.314,1.806,1.806,0,0,1-.311-.737A1.2,1.2,0,0,1,.1.651,1.34,1.34,0,0,1,1.77.087,2.5,2.5,0,0,1,3.05,1.494c.277.6.415,1.228.669,1.828a5.125,5.125,0,0,0,.96,1.571A2.154,2.154,0,0,0,6.9,5.761,3.173,3.173,0,0,0,7.8,5.154a4.352,4.352,0,0,1,2.113-1,2.328,2.328,0,0,1,2.139.78,1.966,1.966,0,0,1,.361.781A4.138,4.138,0,0,1,12.568,6.917Z" transform="translate(17.515 7.928)" fill="#8a8add"/>
          <path id="Path-120" data-name="Path" d="M12.534,5.5a.911.911,0,0,1-.15.579c-.2.227-.553.227-.857.3a1.858,1.858,0,0,0-1.5,1.6,3.093,3.093,0,0,1-.2,1.175,1.646,1.646,0,0,1-1.223.486C5.837,9.868,1.369,10.74,1.084,6.54c-.1-1.51.737-3.108.122-4.489A11.509,11.509,0,0,0,.311.737,1.806,1.806,0,0,1,0,0,2.7,2.7,0,0,1,1.078.519,4.393,4.393,0,0,1,2.276,2.1a7.516,7.516,0,0,1,.45,2.79A2.793,2.793,0,0,0,2.87,5.968,2.183,2.183,0,0,0,4,6.887a5.361,5.361,0,0,0,3.125.286,2.226,2.226,0,0,0,1.1-.5,8.446,8.446,0,0,0,.592-.7,2.629,2.629,0,0,1,1.627-.822c.964-.113,1.562-.035,1.934-.843A4.153,4.153,0,0,1,12.534,5.5Z" transform="translate(17.549 9.342)" opacity="0.1"/>
          <g id="Group-29" data-name="Group" transform="translate(2.528 38.029)">
            <g id="Group-30" data-name="Group" transform="translate(0 20.646)">
              <path id="Path-121" data-name="Path" d="M2.669,0,1.49.531A.759.759,0,0,0,.744.553L0,1.168l3.025,3.28L3.7,4,3.075,2.111l.676-.573Z" transform="translate(0.224 0)" fill="#edb6a4"/>
              <path id="Path-122" data-name="Path" d="M1.038.068C.641.118.364.381,0,.841L3.5,4.8c.556.576,1.025.441.78-.231l-.894-2.75a.971.971,0,0,1-.87-.31A4.289,4.289,0,0,1,1.694.53C1.849.4,1.984.253,1.837,0Z" transform="translate(0 0.314)" fill="#393768"/>
            </g>
            <path id="Path-123" data-name="Path" d="M3.845,1.552,7.921,0c1.463,2.52,2.682,7.909,1.8,11.125-1.393,3.1-2.449,5.593-7.92,10.235L0,19.2l5.384-7.937C4.365,7.543,3.349,4.239,3.845,1.552Z" transform="translate(2.482 1.253)" fill="#393768"/>
            <path id="Path-124" data-name="Path" d="M3.219,6.088A22.761,22.761,0,0,1,0,11.663C.418,10.379,1.2,9.214,1.545,7.9a11.613,11.613,0,0,0,.267-2.332A5.836,5.836,0,0,0,1.73,4.006C1.518,3.014.718,2.079.656,1.056.6.112,1.9-.123,2.612.055a2.2,2.2,0,0,1,.59.25A13.942,13.942,0,0,1,3.219,6.088Z" transform="translate(8.985 6.291)" opacity="0.1"/>
            <g id="Group-31" data-name="Group" transform="translate(12.505 23.318)">
              <path id="Path-125" data-name="Path" d="M1.31,0,.741,1.162a.759.759,0,0,0-.561.492L0,2.6,4.422,3.2l.235-.782L2.97,1.366,3.124.494Z" transform="translate(0.182 0)" fill="#edb6a4"/>
              <path id="Path-126" data-name="Path" d="M.308.562A1.647,1.647,0,0,0,0,1.82l5.215.814c.8.089,1.071-.314.453-.676L3.226.411a.971.971,0,0,1-.868.316A4.275,4.275,0,0,1,1.108.5C1.141.3,1.154.1.88,0Z" transform="translate(0 0.915)" fill="#393768"/>
            </g>
            <path id="Path-127" data-name="Path" d="M0,2.583,4.861,0C6.807,2.3,8.468,7.545,9.578,9.821c1.14,2.5-.171,7.061-1.421,14.126L5.394,23.43l.262-10.742C3.144,9.16.135,6.013,0,2.583Z" transform="translate(8.163 0)" fill="#393768"/>
          </g>
          <path id="Path-128" data-name="Path" d="M9.634,6.056C9.275,8.338,8,11,8.073,12.544c-.074.084-.149.157-.235.241C5.938,14.571,1.018,15.15.124,14.5-.491,14.054,1.246,3.413,3.848.676c1.4-1.278,4.537-.7,5.18,1.351A10.6,10.6,0,0,1,9.634,6.056Z" transform="translate(8.637 26.293)" fill="#cce9f1"/>
          <path id="Path-129" data-name="Path" d="M0,1.59A2.936,2.936,0,0,0,.423,0L2.346.107l.261,2.227A6.039,6.039,0,0,1,0,1.59Z" transform="translate(14.254 24.781)" fill="#d8a598"/>
          <path id="Path-130" data-name="Path" d="M2.455,1.254c-.123-.01-.275-.029-.426-.048a1.649,1.649,0,0,0-.805.046,2.245,2.245,0,0,0-.617.425.3.3,0,0,1-.161.1A1.259,1.259,0,0,1,0,1.6,3.036,3.036,0,0,0,.41,0L2.334.108Z" transform="translate(14.259 24.78)" opacity="0.1"/>
          <path id="Path-131" data-name="Path" d="M1.617,4.6c1.386.4,2.611.584,3.36.11A5.555,5.555,0,0,0,3.253,0L0,1.628Z" transform="translate(12.762 20.8)" fill="#edb6a4"/>
          <path id="Path-132" data-name="Path" d="M3.682,1.8a1.408,1.408,0,0,1-.353.234,2.961,2.961,0,0,1-.459.151c-.476.086-.953.173-1.423.23a1.842,1.842,0,0,1-.57-.055,1.132,1.132,0,0,1-.785-.65A1.272,1.272,0,0,1,0,1.26.785.785,0,0,1,.149.832L1.721.021C1.75.027,1.75.027,1.785,0c.247-.011.488.008.764,0A4.747,4.747,0,0,1,3.682,1.8Z" transform="translate(13.714 21.014)" opacity="0.1"/>
          <path id="Path-133" data-name="Path" d="M5.267,2.409a2.065,2.065,0,0,1-1.884.349,1.8,1.8,0,0,0,.457,1.026.318.318,0,0,1-.19.281c-.255-.252-.51-.57-.715-.479a.653.653,0,0,0-.231.739c.109.382.632.689,1.148,1.034-.447.362-.773.589-1.149.538A2.136,2.136,0,0,1,.969,5.383C.4,4.92.825,4.1.383,3.717c-.393-.36-.639-2.129.055-2.134.63-.018.722-.079,1.082-.925S2.564-.151,3,.417s.48.2,1.06-.161S5.63.744,5.15,1.073C5.363,1.663,5.51,2.005,5.267,2.409Z" transform="translate(12.203 19.819)" fill="#393768"/>
          <g id="Group-32" data-name="Group" transform="translate(14.15 16.909)">
            <path id="Path-134" data-name="Path" d="M9.328,0a35.111,35.111,0,0,1-.106,7.118,5.087,5.087,0,0,1-.873,2.523c-2.367,2.46-4.16,2.33-7.89,2.122L0,9.01c1.106-.928,3.7-.839,5.918-.887l.412-1.81L7.772.06Z" transform="translate(0 2.819)" fill="#edb6a4"/>
            <path id="Path-135" data-name="Path" d="M1.851,2.825a2.093,2.093,0,0,0,.773-.906,4.749,4.749,0,0,0-.311-1.7C2.123-.168,1-.031.87.525L.507,1.655.245,1.383,0,1.843.292,2.878Z" transform="translate(7.476 0)" fill="#edb6a4"/>
            <path id="Path-136" data-name="Path" d="M9.46.725A5.3,5.3,0,0,1,8.392,3.5C5.84,5.634,4.252,5.924.523,5.716L0,2.669C1.106,1.741,3.485,1.7,5.7,1.652L6.2,0A6.391,6.391,0,0,1,9.46.725Z" transform="translate(0 9.16)" fill="#cce9f1"/>
            <path id="Path-137" data-name="Path" d="M.227,0A8.934,8.934,0,0,1,3.7.728a1.578,1.578,0,0,1-.056,1.045A20.537,20.537,0,0,1,.048.849C-.084.629.084.278.227,0Z" transform="translate(5.904 8.875)" fill="#6a6ae5"/>
          </g>
          <path id="Path-138" data-name="Path" d="M8.157.875c.3-.521,2.037.588.836.865C7.832,2.052,7.086,3.792,9.73,6.1c.269.433-.621,6.951-.522,8.415S.275,16.205.024,14.708,1.465.273,5.451,0c.417-.028.258.182.143.345A3.677,3.677,0,0,0,8.157.875Z" transform="translate(8.542 26.252)" fill="#6a6ae5"/>
          <path id="Path-139" data-name="Path" d="M.293,0,2.37.753,1.893,1.846,0,.841Z" transform="translate(12.382 27.943)" fill="#e6e9f8"/>
          <path id="Path-140" data-name="Path" d="M5.393,2.706C3.584,3.412,1.434,4.135.466,3.84S-.06.174,2.739.007A3.072,3.072,0,0,1,5.605,1.223C7.545,1.017,6.522,2.31,5.393,2.706Z" transform="translate(11.813 19.161)" fill="#6a6ae5"/>
          <path id="Shape-5" data-name="Shape" d="M13.465,10.435a.274.274,0,1,1,0-.548h2.19a.274.274,0,0,1,0,.548Zm-6.571,0a.274.274,0,1,1,0-.548h2.19a.274.274,0,1,1,0,.548Zm-5.114,0A1.78,1.78,0,0,1,.317,9.667a.274.274,0,0,1,.449-.312,1.233,1.233,0,0,0,1.014.533H4.7a.274.274,0,1,1,0,.548ZM0,7.375V5.185a.274.274,0,0,1,.548,0v2.19a.274.274,0,0,1-.548,0ZM.411,1.089A.274.274,0,0,1,.359.7,1.772,1.772,0,0,1,1.78,0h.8a.274.274,0,0,1,0,.548h-.8A1.227,1.227,0,0,0,.8,1.036a.273.273,0,0,1-.218.108A.282.282,0,0,1,.411,1.089Z" transform="translate(0.043)" fill="#8a8add"/>
          <ellipse id="Oval-12" data-name="Oval" cx="3.435" cy="0.381" rx="3.435" ry="0.381" transform="translate(0 63.766)" opacity="0.1"/>
        </g>
      </g>
    </g>
  </g>
</svg>
