<svg xmlns="http://www.w3.org/2000/svg" xmlns:xlink="http://www.w3.org/1999/xlink" width="165" height="165" viewBox="0 0 165 165">
  <defs>
    <clipPath id="clip-path">
      <rect id="Rectángulo_339726" data-name="Rectángulo 339726" width="146.203" height="149.811" fill="none"/>
    </clipPath>
  </defs>
  <g id="Grupo_973573" data-name="Grupo 973573" transform="translate(7510 11246)">
    <circle id="Elipse_5558" data-name="Elipse 5558" cx="82.5" cy="82.5" r="82.5" transform="translate(-7510 -11246)" fill="#ece3ff"/>
    <g id="Grupo_973572" data-name="Grupo 973572" transform="translate(-7493.291 -11237.361)" clip-path="url(#clip-path)">
      <path id="Trazado_660650" data-name="Trazado 660650" d="M81.162.38A22.861,22.861,0,0,1,89.056,2.3a34.959,34.959,0,0,1,3.5,2,16.66,16.66,0,0,1,3.231,2.584A14.937,14.937,0,0,1,98.1,9.717c.219.381.716.76,1.018,1.2a20.074,20.074,0,0,1,2.845,5.781,46.3,46.3,0,0,1,.978,4.611,16.373,16.373,0,0,1,.193,2.994q.027,35.832.01,71.664a3,3,0,0,1-.119.984c-.322.981.389,1.639.917,2.3a40.486,40.486,0,0,1,2.847,4.164,28.264,28.264,0,0,1,2.892,6.865,29.251,29.251,0,0,1,1.158,6.49,25.681,25.681,0,0,1-.051,4.937,33.794,33.794,0,0,1-.745,3.944,34.638,34.638,0,0,1-2.485,7.2,31.044,31.044,0,0,1-8.381,10.178,25.417,25.417,0,0,1-6,3.786,27.924,27.924,0,0,1-7.024,2.276c-1.72.239-3.44.736-5.164.805a24.21,24.21,0,0,1-3.857-.1c-1.477-.179-2.947-.456-4.4-.767a34.589,34.589,0,0,1-7.163-2.584,22.371,22.371,0,0,1-4.4-2.652,31.042,31.042,0,0,1-5.1-4.819,35.778,35.778,0,0,1-4.3-6.428,29.529,29.529,0,0,1-2.216-5.972c-.075-.291-.128-.587-.186-.88-.157-.784-.963-.943-1.494-1.37-.088-.071-.3-.021-.356-.1-.765-1.01-1.6-.823-2.625-.353-.694.32-1.115.62-1.235,1.417-.234,1.554-.665,3.075-.836,4.643a1.99,1.99,0,0,1-2.013,1.812c-1.614-.035-3.23,0-4.844,0q-4.214,0-8.428,0a1.9,1.9,0,0,1-1.9-1.756c-.193-1.824-.833-3.561-1.078-5.377-.028-.2-.192-.261-.354-.354a7.155,7.155,0,0,0-2.156-.765.73.73,0,0,0-.568.193c-1.331.9-2.631,1.849-3.988,2.717a2.041,2.041,0,0,1-2.987-.244q-3.853-3.8-7.694-7.611A13.2,13.2,0,0,1,5,116.6a1.4,1.4,0,0,1-.036-1.7C5.949,113.384,6.9,111.841,8,110.4a1.33,1.33,0,0,0,.191-1.375c-.208-.543-.471-1.066-.678-1.609a.363.363,0,0,0-.314-.279c-1.8-.284-3.6-.574-5.394-.924a1.93,1.93,0,0,1-1.789-1.976C0,101.3,0,98.363,0,95.43c0-1.429-.008-2.857,0-4.284.009-1.229.343-1.647,1.568-1.939,1.785-.426,3.57-.853,5.367-1.222a.723.723,0,0,0,.558-.409,9.963,9.963,0,0,0,.748-1.529A1.407,1.407,0,0,0,8.041,84.8c-1.053-1.617-2.27-3.127-3.179-4.842a.887.887,0,0,1,.015-1.042,7.621,7.621,0,0,1,.957-1.2c2.626-2.6,5.237-5.2,7.872-7.79a9.208,9.208,0,0,1,1.042-1.093,1.932,1.932,0,0,1,2.441-.169c1.414.9,2.832,1.787,4.2,2.748a1.762,1.762,0,0,0,1.547.172c1.848-.344,1.9-1.816,2.084-3.18a28.179,28.179,0,0,1,.8-3.856,1.245,1.245,0,0,1,1.035-.885,8.191,8.191,0,0,1,1.55-.136q5.819-.046,11.638-.089c.26,0,.521,0,.78.023,1.2.086,1.579.41,1.836,1.57.363,1.633.72,3.268,1.088,4.9.223.992.831,1.345,1.757,1.7,1.369.528,1.924-.663,2.807-1.1A23.923,23.923,0,0,0,50.9,68.777a2.046,2.046,0,0,1,2.872.262A25.367,25.367,0,0,0,55.938,71c.373.293.416.093.481-.179a2.31,2.31,0,0,0,.043-.535q-.011-23.992-.014-47.982a19.2,19.2,0,0,1,2.658-9.484,23.848,23.848,0,0,1,9.012-9.4A23.586,23.586,0,0,1,79.434.3.274.274,0,0,0,79.821.3l1.058.066.283.018m18.4,50.7-.049-.03c-.017-.1-.054-.086-.1-.019l-6.748-.018c-.056-.233-.181-.358-.437-.279a.829.829,0,0,1-.945-.339,1.509,1.509,0,0,1-.384-1.622A1.7,1.7,0,0,1,92.527,47.6c2.159-.005,4.32-.02,6.48.009.558.008.73-.177.7-.711q-.111-1.85-.153-3.7c-.007-.376-.179-.412-.479-.408-.885.011-1.771.028-2.654,0a5.119,5.119,0,0,1-1.862-.308,1.629,1.629,0,0,1-.776-1.867,1.534,1.534,0,0,1,1.406-1.24c.931-.076,1.871-.042,2.808-.055l.3.007a5.2,5.2,0,0,1,.625,0c.565.068.771-.127.768-.73-.023-4.83-.006-9.659-.016-14.488a36.666,36.666,0,0,0-.428-4.03,15.61,15.61,0,0,0-1.058-3.655,17.679,17.679,0,0,0-3.945-6.264,21.1,21.1,0,0,0-4.321-3.519,21.563,21.563,0,0,0-8.98-2.682c-.019-.063-.039-.126-.059-.189l-.07.176a19,19,0,0,0-2.695.036l-.049-.043-.047.048A16.452,16.452,0,0,0,71.778,5.5a25.189,25.189,0,0,0-2.421,1.139,24.569,24.569,0,0,0-4.672,4.086c-2.885,3.464-4.767,7.367-4.786,11.9-.071,17.186-.038,34.372-.054,51.557a1.483,1.483,0,0,0,.5,1.161q1.341,1.284,2.641,2.611C64,79,64.056,79.527,63.263,80.768a37.186,37.186,0,0,1-2.242,3.363,2.407,2.407,0,0,0-.306,3.071,1.675,1.675,0,0,0,1.01.919c1.484.447,3.037.505,4.54.868,1.428.345,2.147.424,2.191,2.428.035,1.583.018,3.167.031,4.75.022,2.57.04,5.14.079,7.709a1.906,1.906,0,0,1-1.3,2.124,37.639,37.639,0,0,1-5,1.112,2.27,2.27,0,0,0-1.555,3.546c.8,1.179,1.627,2.344,2.405,3.54.963,1.48.917,1.885-.344,3.15q-4.516,4.53-9.059,9.03a1.06,1.06,0,0,0-.289,1.289,27.691,27.691,0,0,0,13.029,15.388,27.792,27.792,0,0,0,10.126,3.179,27.374,27.374,0,0,0,18.6-4.6,29.99,29.99,0,0,0,4.141-3.343,18.1,18.1,0,0,0,3.38-4.021,26.87,26.87,0,0,0,2.031-3.745c.307-.842.912-1.675,1.2-2.56a28.329,28.329,0,0,0,1.465-11.485,30.045,30.045,0,0,0-1.52-7.224,28,28,0,0,0-4.615-8.163,1.722,1.722,0,0,0-1.577-.7c-2.37.029-4.74.022-7.109.023A1.784,1.784,0,0,1,90.8,98.687a1.711,1.711,0,0,1,1.793-1.7c2.109-.029,4.218-.022,6.328-.042.308,0,.729.131.753-.414v-.16q-.014-2.029-.029-4.058c-.005-.149-.09-.182-.219-.148-1.323,0-2.646-.04-3.968,0a1.582,1.582,0,0,1-1.527-.981c-.619-1.175.233-2.384,1.72-2.441a26.756,26.756,0,0,1,3.111.007c.833.067,1-.237.95-.993-.075-1.133-.039-2.274-.051-3.412.054-.086.09-.171-.024-.241-.191-.264-.471-.165-.72-.166-2.131-.011-4.263-.006-6.395-.028a1.847,1.847,0,0,1-1.733-1.568,1.714,1.714,0,0,1,1.385-1.794,4.214,4.214,0,0,1,.928-.074c1.976,0,3.952-.015,5.928.021.45.008.649-.188.639-.547a34.5,34.5,0,0,0-.105-4.186c-.009-.11-.071-.122-.159-.086-1.352,0-2.7,0-4.055-.014a1.208,1.208,0,0,1-.734-.134,1.9,1.9,0,0,1-1-1.939,1.742,1.742,0,0,1,1.722-1.318c1.22-.054,2.444-.057,3.664-.018.531.017.68-.154.671-.654-.021-1.3,0-2.591,0-3.887.024-.1.034-.179-.11-.151l-.643-.029c-.031-.085-.073-.14-.166-.065-.156,0-.311.009-.467.01-2,.013-4,.089-5.994-.058a1.819,1.819,0,0,1-1.662-1.559,1.852,1.852,0,0,1,1.4-1.723A8.722,8.722,0,0,1,93.587,64c1.791-.021,3.582-.019,5.374-.026l.042.043.041-.043c.383.038.638-.021.628-.517-.025-1.24-.017-2.481.006-3.721.008-.453-.228-.515-.584-.481a.227.227,0,0,0-.338.006,35.929,35.929,0,0,1-3.743-.083,1.668,1.668,0,0,1-1.127-2.634c.518-.766,1.309-.745,2.087-.79.044.086.086.081.128,0h2.225a.152.152,0,0,0,.266,0l.516-.008c.044.09.084.063.121-.005.543.061.4-.394.506-.665.208-.111.2-.21-.018-.3l-.071-3.606c.038-.089,0-.115-.084-.1M59.712,79.76c.018-.216-.149-.321-.273-.446q-3.43-3.452-6.862-6.9a.555.555,0,0,0-.859-.089c-1.517,1.073-3.075,2.091-4.606,3.145a.844.844,0,0,1-.924.051c-1.259-.526-2.53-1.03-3.816-1.487A2.292,2.292,0,0,1,40.8,72.158c-.311-1.564-.645-3.123-.95-4.688-.065-.333-.107-.585-.55-.581-2.942.024-5.884.008-8.827.048-1.458.019-1.779.3-2.016,1.55-.221,1.163-.445,2.325-.634,3.493a2.219,2.219,0,0,1-1.567,1.935,26.85,26.85,0,0,0-3.3,1.342,1.7,1.7,0,0,1-1.711.044c-1.359-.949-2.866-1.691-4.146-2.724-.7-.561-1.032-.423-1.5.081-1.753,1.864-3.562,3.672-5.366,5.487a11.749,11.749,0,0,0-1.2,1.175A.768.768,0,0,0,8.994,80.4c.856,1.192,1.626,2.446,2.482,3.639a2.255,2.255,0,0,1,.2,2.595,17.43,17.43,0,0,0-1.19,2.84,2.48,2.48,0,0,1-2.139,1.749c-1.421.254-2.835.547-4.252.826a.724.724,0,0,0-.695.833c.04,3.14.042,6.282.039,9.423,0,.491.129.748.668.843,1.449.253,2.877.625,4.33.843a2.284,2.284,0,0,1,2.042,1.7,15.829,15.829,0,0,0,1.228,3,2.2,2.2,0,0,1-.261,2.462c-.818,1.222-1.6,2.47-2.448,3.669a.847.847,0,0,0,.116,1.282q3.213,3.128,6.411,6.27c.849.83.845.817,1.855.132,1.161-.789,2.344-1.546,3.5-2.338A1.976,1.976,0,0,1,23.01,120c1.012.47,2.053.879,3.1,1.27A2.263,2.263,0,0,1,27.7,123.1c.276,1.5.626,2.992.922,4.492.121.609.337.959,1.072.893a18.878,18.878,0,0,1,1.925-.192c2.421.027,4.843-.024,7.265.011a.823.823,0,0,0,.981-.807c.242-1.377.539-2.745.785-4.121a2.441,2.441,0,0,1,1.807-2.108,14.525,14.525,0,0,0,2.606-1.031,2.587,2.587,0,0,1,2.917.208c1.195.83,2.446,1.578,3.666,2.372.358.233.67.364,1.035,0q3.425-3.467,6.867-6.919a.51.51,0,0,0,.073-.787c-.935-1.311-1.757-2.705-2.738-3.979a1.9,1.9,0,0,1-.244-2.1c.393-.965.846-1.912,1.146-2.9a2.876,2.876,0,0,1,2.435-2.111c1.38-.289,2.754-.615,4.151-.81.733-.1.918-.518.758-1.13a7.328,7.328,0,0,1-.1-1.852c-.01-2.466-.022-4.933.007-7.4.007-.57-.2-.746-.738-.829a27.363,27.363,0,0,1-4.8-.922,1.792,1.792,0,0,1-1.321-1.087c-.44-1.439-1.138-2.772-1.659-4.177a.969.969,0,0,1,.087-.946c.9-1.373,1.666-2.828,2.643-4.154a1.967,1.967,0,0,0,.478-.953" transform="translate(0 -0.111)" fill="#000001"/>
      <path id="Trazado_660651" data-name="Trazado 660651" d="M55.389,40.721a20.933,20.933,0,0,1-4.5,13.658,18.2,18.2,0,0,1-5.764,5.089,6.121,6.121,0,0,1-1.836.993c-1.515.266-2.639-.738-2.248-2.206a9.134,9.134,0,0,0-.058-3.579,10.279,10.279,0,0,0-.843-2.935,13.124,13.124,0,0,0-3.069-4.358,5.734,5.734,0,0,0-7.111-.369,11.537,11.537,0,0,0-4.426,7.547,26.675,26.675,0,0,0-.143,4.243,1.648,1.648,0,0,1-2.58,1.519A21.917,21.917,0,0,1,17.55,56.5a20.106,20.106,0,0,1-3.676-4.762A22.3,22.3,0,0,1,11.3,44.321a22.657,22.657,0,0,1-.294-3.826,21.526,21.526,0,0,1,4.2-12.5A24.892,24.892,0,0,1,19.154,23.8a1.811,1.811,0,0,1,2-.389,1.737,1.737,0,0,1,.942,1.724c.059.957.139,1.052,1.032.652a6.914,6.914,0,0,0,3.514-4.229,16.837,16.837,0,0,0,1.03-7.1,34.908,34.908,0,0,0-.54-4.485c-.325-1.669.4-2.9,2.523-2.327a19.881,19.881,0,0,1,9.805,5.8A20.244,20.244,0,0,1,44,22.012a36.8,36.8,0,0,1,1.233,6.481c.029.355.228.687.156,1.058a.4.4,0,0,0,.294.475c.251.106.4-.051.518-.225a3.006,3.006,0,0,0,.426-1.526,9.07,9.07,0,0,0,0-1.323,1.64,1.64,0,0,1,2.868-1.186,22.435,22.435,0,0,1,4.219,6.423,20.149,20.149,0,0,1,1.677,8.532M48.122,52.3A19.579,19.579,0,0,0,51.987,42.09,19.56,19.56,0,0,0,49.44,31.274c-.277.3-.5.545-.724.786a3.727,3.727,0,0,1-3.664,1.4,3.787,3.787,0,0,1-3.005-3.369c-.212-1.419-.358-2.849-.628-4.256a20.955,20.955,0,0,0-3.666-9.026A15.591,15.591,0,0,0,31.453,12c-.164-.072-.351-.208-.49-.049a.409.409,0,0,0,.022.5.692.692,0,0,1,.073.291,21.918,21.918,0,0,1-.5,8.061,12.105,12.105,0,0,1-4.57,7.361c-1.983,1.4-3.985,1.868-5.721.553-.687-.52-1.09-.484-1.465.258-.023.045-.071.076-.1.116a18.518,18.518,0,0,0-3.775,15.439,19.251,19.251,0,0,0,4.558,9.064,9.379,9.379,0,0,0,2.481,2.1,23.359,23.359,0,0,1,.714-3.853,15.837,15.837,0,0,1,3.889-6.5,9.333,9.333,0,0,1,11.82-1.32A13.564,13.564,0,0,1,43.571,51a28.287,28.287,0,0,1,.959,3.9,1.969,1.969,0,0,0-.012.589c.086.3.243.219.373.006a22.492,22.492,0,0,0,3.171-3.153c.064.056.073.025.061-.039" transform="translate(-4.124 -2.814)" fill="#000001"/>
      <path id="Trazado_660652" data-name="Trazado 660652" d="M191.569,47.528c0-2.622-.023-5.245.017-7.866.009-.634-.237-.8-.791-.8-1.354,0-2.708-.011-4.063-.016a1.692,1.692,0,0,1-1.9-1.287c-.345-.779.164-1.3.522-1.784,1.795-2.433,3.74-4.76,5.454-7.247a39.633,39.633,0,0,0,2.57-3.525,17.274,17.274,0,0,1,1.388-1.75c.985-1.335,2-2.65,3-3.976.287-.381.583-.758.839-1.16a1.766,1.766,0,0,1,2.859-.069c1.184,1.545,2.3,3.146,3.486,4.686q1.892,2.458,3.761,4.935c2.141,2.824,4.283,5.649,6.341,8.533a1.531,1.531,0,0,1-1.029,2.558,36.9,36.9,0,0,1-4.681.09c-.615,0-.715.192-.711.75.025,3.4.008,6.8.009,10.2,0,1.724.016,3.448.012,5.172a2.07,2.07,0,0,1-1.626,2.209,4.032,4.032,0,0,1-.965-.059q-6.368-.015-12.735-.019a1.6,1.6,0,0,1-1.71-1.63c-.021-2.648-.008-5.3-.008-7.944h-.036m3.456-2.309h.011c0,2.57.026,5.139-.018,7.708-.011.657.2.77.8.763,2.811-.029,5.623-.014,8.435-.014,1.033,0,1.039,0,1.04-1q.007-7.514.009-15.027c0-1.609.595-2.186,2.224-2.2.755-.007,1.51-.023,2.265-.019.4,0,.473-.134.243-.451-.106-.148-.2-.3-.313-.446q-4.59-6.1-9.17-12.21c-.359-.482-.526-.394-.833.016q-2.983,4-5.994,7.968-1.687,2.239-3.375,4.478c-.118.158-.341.318-.229.535s.374.121.569.126c.65.013,1.3,0,1.952,0,1.8.006,2.379.578,2.383,2.371.006,2.466,0,4.931,0,7.4" transform="translate(-69.232 -6.505)" fill="#000001"/>
      <path id="Trazado_660653" data-name="Trazado 660653" d="M203.983,103.121c-2.264,0-4.528.019-6.792-.009a1.784,1.784,0,0,1-1.715-1.651,1.563,1.563,0,0,1,1.587-1.675,17.225,17.225,0,0,1,1.868-.056q5.544-.012,11.087-.011a8.414,8.414,0,0,1,1.013.035c1.2.145,1.654.66,1.635,1.809a1.645,1.645,0,0,1-1.735,1.556c-.935.05-1.873.019-2.81.02q-2.069,0-4.138,0Z" transform="translate(-73.264 -37.374)" fill="#000001"/>
      <path id="Trazado_660654" data-name="Trazado 660654" d="M204.073,111.855q3.2,0,6.407,0a3.188,3.188,0,0,1,1.552.336,1.582,1.582,0,0,1,.706,1.822c-.1.636-.619.917-1.148,1.128a2.339,2.339,0,0,1-.844.123c-4.349.012-8.7.034-13.047.007-1.38-.009-1.911-.579-2-1.719-.082-.988.7-1.657,1.817-1.675,2.187-.036,4.375-.011,6.563-.011Z" transform="translate(-73.344 -41.923)" fill="#000001"/>
      <path id="Trazado_660655" data-name="Trazado 660655" d="M204.122,87.572c2.239,0,4.479-.029,6.718.012a1.685,1.685,0,0,1,1.836,1.814,1.5,1.5,0,0,1-1.279,1.513,4.88,4.88,0,0,1-.855.069q-6.328.007-12.656,0c-.835,0-1.664.006-2.134-.928a1.524,1.524,0,0,1,1.263-2.421c1.244-.093,2.5-.056,3.748-.065,1.12-.008,2.239,0,3.359,0v.009" transform="translate(-73.273 -32.818)" fill="#000001"/>
      <path id="Trazado_660656" data-name="Trazado 660656" d="M127.432.185a.274.274,0,0,1-.388.005c-.059-.185.076-.19.191-.19s.251,0,.2.185" transform="translate(-47.611 0)" fill="#2b83c0"/>
      <path id="Trazado_660657" data-name="Trazado 660657" d="M129.629.308,129.347.29c-.072-.131-.009-.188.117-.185s.167.089.166.2" transform="translate(-48.468 -0.039)" fill="#2b83c0"/>
      <path id="Trazado_660658" data-name="Trazado 660658" d="M131.613,94.476q.015,2.028.029,4.057c-.017.015-.05.034-.048.044a.682.682,0,0,0,.047.116c-.024.545-.445.411-.753.415-2.109.019-4.218.012-6.327.042a1.71,1.71,0,0,0-1.793,1.7,1.783,1.783,0,0,0,1.769,1.726c2.37,0,4.74.006,7.109-.023a1.722,1.722,0,0,1,1.578.7,27.976,27.976,0,0,1,4.615,8.163,30.026,30.026,0,0,1,1.521,7.224,28.342,28.342,0,0,1-1.465,11.486c-.288.885-.894,1.717-1.2,2.56a26.993,26.993,0,0,1-2.031,3.744,18.117,18.117,0,0,1-3.38,4.021,30.037,30.037,0,0,1-4.141,3.342,27.366,27.366,0,0,1-18.6,4.6,27.81,27.81,0,0,1-10.126-3.179A27.7,27.7,0,0,1,85.388,129.83a1.061,1.061,0,0,1,.289-1.289q4.55-4.495,9.059-9.03c1.262-1.265,1.307-1.671.344-3.151-.778-1.2-1.6-2.361-2.405-3.541a2.269,2.269,0,0,1,1.555-3.545,37.862,37.862,0,0,0,5-1.112,1.9,1.9,0,0,0,1.3-2.124c-.038-2.57-.057-5.14-.078-7.709-.014-1.584,0-3.168-.032-4.751-.044-2-.763-2.083-2.191-2.428-1.5-.363-3.055-.422-4.54-.868a1.674,1.674,0,0,1-1.01-.92,2.407,2.407,0,0,1,.305-3.07A37.2,37.2,0,0,0,95.23,82.93c.793-1.24.741-1.769-.276-2.812q-1.3-1.329-2.641-2.611a1.482,1.482,0,0,1-.5-1.161c.016-17.186-.018-34.372.054-51.557.019-4.536,1.9-8.44,4.786-11.9A24.569,24.569,0,0,1,101.324,8.8a25.1,25.1,0,0,1,2.42-1.139,16.458,16.458,0,0,1,6.241-1.519l.049.031.046-.036a19,19,0,0,1,2.695-.036l.06.048.069-.034a21.55,21.55,0,0,1,8.98,2.681,21.054,21.054,0,0,1,4.321,3.519,17.673,17.673,0,0,1,3.946,6.263,15.615,15.615,0,0,1,1.058,3.655,36.53,36.53,0,0,1,.429,4.03c.009,4.83-.008,9.659.016,14.488,0,.6-.2.8-.768.731a5.075,5.075,0,0,0-.625,0c0-.106-.031-.207-.149-.209s-.161.089-.15.2c-.936.014-1.876-.021-2.807.056a1.533,1.533,0,0,0-1.406,1.24,1.63,1.63,0,0,0,.776,1.867,5.123,5.123,0,0,0,1.862.308c.883.033,1.769.016,2.655,0,.3,0,.471.033.479.408q.039,1.854.152,3.706c.033.535-.139.719-.7.711-2.159-.03-4.32-.015-6.48-.01a1.7,1.7,0,0,0-1.629,1.167,1.507,1.507,0,0,0,.384,1.622.828.828,0,0,0,.945.339c-.049.4.188.347.438.279l6.747.017.044.042.057-.022.049.029c-.016.071-.014.126.084.1l.071,3.606c-.188.11-.167.208.018.3-.1.272.036.726-.505.666l-.063-.037-.059.042-.516.007a.2.2,0,0,0-.266,0l-2.224,0L128,57.873l-.064.043c-.778.045-1.569.024-2.087.791a1.667,1.667,0,0,0,1.127,2.633,35.776,35.776,0,0,0,3.744.083.3.3,0,0,0,.338-.005c.356-.035.592.027.583.481-.023,1.24-.031,2.481-.006,3.721.01.5-.246.555-.628.517l-.041-.033-.043.033c-1.791.007-3.582,0-5.374.026a8.772,8.772,0,0,0-1.548.134,1.851,1.851,0,0,0-1.4,1.723,1.818,1.818,0,0,0,1.662,1.559c2,.148,4,.071,5.994.058.156,0,.311-.006.466-.009.027.1.092.091.166.065l.643.028.111.151c0,1.3-.022,2.592,0,3.887.008.5-.141.671-.672.653-1.22-.039-2.445-.036-3.664.018a1.742,1.742,0,0,0-1.722,1.318,1.9,1.9,0,0,0,1,1.939,1.214,1.214,0,0,0,.734.135c1.352.011,2.7.01,4.055.014l.159.086a34.375,34.375,0,0,1,.105,4.186c.011.359-.189.555-.639.547-1.975-.036-3.951-.023-5.927-.021a4.174,4.174,0,0,0-.928.074,1.715,1.715,0,0,0-1.386,1.794,1.847,1.847,0,0,0,1.733,1.567c2.132.022,4.264.017,6.4.028.248,0,.529-.1.718.166-.072.089-.09.173.026.243.011,1.138-.024,2.278.051,3.412.049.757-.118,1.06-.951.994a26.618,26.618,0,0,0-3.111-.007c-1.487.056-2.338,1.265-1.72,2.441a1.584,1.584,0,0,0,1.527.981c1.322-.039,2.645,0,3.967,0,.061.066.088.185.219.148m-25.5,18.364c-.071.076-.077.148.015.213a.63.63,0,0,1-.259.541,6.089,6.089,0,0,0-2.154,2.462c-.269.454-.845.829-.889,1.242a15.613,15.613,0,0,1-.411,2.15,9.642,9.642,0,0,0,1.4,6.328,10.276,10.276,0,0,0,5.01,3.993,8.715,8.715,0,0,0,4.317.336,9.376,9.376,0,0,0,5.614-3.16,9.9,9.9,0,0,0,2.285-5.256,9.691,9.691,0,0,0-.551-4.224,5.844,5.844,0,0,0-1.9-2.84,3.153,3.153,0,0,1-1.237-3.3,4.423,4.423,0,0,0,.01-.7q0-29.868,0-59.735c0-5.633.1-11.27-.085-16.9a5.015,5.015,0,0,0-4.756-5.235c-2.674-.353-4.458.338-5.868,3.115-.718,1.414-.549,2.924-.55,4.408q-.006,38.279.015,76.558" transform="translate(-31.966 -2.273)" fill="#0f58b9"/>
      <path id="Trazado_660659" data-name="Trazado 660659" d="M61.753,119.681a1.965,1.965,0,0,1-.478.952c-.977,1.326-1.744,2.782-2.643,4.154a.97.97,0,0,0-.087.947c.521,1.4,1.22,2.738,1.659,4.177A1.791,1.791,0,0,0,61.526,131a27.422,27.422,0,0,0,4.8.922c.543.083.745.259.738.829-.029,2.466-.017,4.932-.007,7.4a7.331,7.331,0,0,0,.1,1.853c.159.613-.025,1.028-.758,1.13-1.4.194-2.77.521-4.151.81a2.876,2.876,0,0,0-2.435,2.111c-.3.993-.753,1.941-1.146,2.9a1.9,1.9,0,0,0,.244,2.1c.982,1.273,1.8,2.668,2.738,3.978a.51.51,0,0,1-.073.787q-3.436,3.458-6.867,6.919c-.365.369-.677.238-1.035,0-1.22-.795-2.471-1.543-3.666-2.372a2.585,2.585,0,0,0-2.917-.208,14.572,14.572,0,0,1-2.606,1.031,2.442,2.442,0,0,0-1.807,2.108c-.245,1.377-.542,2.744-.784,4.121a.824.824,0,0,1-.982.807c-2.421-.035-4.843.016-7.264-.011a18.7,18.7,0,0,0-1.925.192c-.735.066-.952-.284-1.072-.893-.3-1.5-.646-2.989-.923-4.492a2.263,2.263,0,0,0-1.589-1.832c-1.045-.39-2.087-.8-3.1-1.27a1.978,1.978,0,0,0-2.124.165c-1.158.793-2.341,1.55-3.5,2.338-1.01.686-1.006.7-1.855-.131q-3.206-3.134-6.411-6.27a.847.847,0,0,1-.116-1.282c.849-1.2,1.631-2.446,2.448-3.669a2.2,2.2,0,0,0,.262-2.462,15.845,15.845,0,0,1-1.228-3,2.284,2.284,0,0,0-2.042-1.7c-1.453-.219-2.882-.591-4.33-.844-.538-.094-.668-.351-.668-.843,0-3.141,0-6.282-.039-9.423a.724.724,0,0,1,.695-.833c1.417-.278,2.83-.571,4.251-.825a2.481,2.481,0,0,0,2.14-1.749,17.392,17.392,0,0,1,1.19-2.84,2.256,2.256,0,0,0-.2-2.6c-.856-1.192-1.626-2.446-2.482-3.638a.768.768,0,0,1,.031-1.078,11.82,11.82,0,0,1,1.2-1.176c1.8-1.814,3.613-3.622,5.366-5.486.473-.5.809-.642,1.5-.081,1.28,1.033,2.787,1.775,4.146,2.724a1.7,1.7,0,0,0,1.711-.044,26.808,26.808,0,0,1,3.3-1.343,2.218,2.218,0,0,0,1.567-1.934c.189-1.168.413-2.331.634-3.493.237-1.247.558-1.531,2.016-1.551,2.942-.04,5.884-.023,8.827-.047.443,0,.485.248.55.581.305,1.565.639,3.124.95,4.688a2.292,2.292,0,0,0,1.574,1.872c1.286.458,2.557.96,3.816,1.487a.844.844,0,0,0,.924-.051c1.531-1.055,3.089-2.072,4.606-3.145a.556.556,0,0,1,.859.089q3.428,3.455,6.862,6.9c.124.126.291.231.273.447M36.807,153.143a15.619,15.619,0,1,0-16.182-15.326,15.647,15.647,0,0,0,16.182,15.326" transform="translate(-2.041 -40.033)" fill="#ad84ff"/>
      <path id="Trazado_660660" data-name="Trazado 660660" d="M147.948,81.228c-.249.068-.486.117-.437-.279.256-.079.381.047.437.279" transform="translate(-55.285 -30.331)" fill="#2b83c0"/>
      <path id="Trazado_660661" data-name="Trazado 660661" d="M159.436,87.737c-.185-.088-.205-.186-.017-.3.221.086.226.185.017.3" transform="translate(-59.701 -32.773)" fill="#2b83c0"/>
      <path id="Trazado_660662" data-name="Trazado 660662" d="M156.74,62.578c-.011-.113.033-.2.149-.2s.15.1.15.209l-.3-.007" transform="translate(-58.745 -23.379)" fill="#2b83c0"/>
      <path id="Trazado_660663" data-name="Trazado 660663" d="M159.252,147.381c-.132.038-.158-.081-.219-.148.13-.034.214,0,.219.148" transform="translate(-59.605 -55.178)" fill="#2b83c0"/>
      <path id="Trazado_660664" data-name="Trazado 660664" d="M129.381,6.03l-.069.034-.06-.048.071-.175c.02.063.039.126.059.189" transform="translate(-48.444 -2.189)" fill="#2b83c0"/>
      <path id="Trazado_660665" data-name="Trazado 660665" d="M159.361,134.583c-.116-.07-.1-.154-.026-.243.116.071.079.156.026.243" transform="translate(-59.697 -50.351)" fill="#2b83c0"/>
      <path id="Trazado_660666" data-name="Trazado 660666" d="M158.3,94.557a.3.3,0,0,1-.338.005.227.227,0,0,1,.338-.005" transform="translate(-59.203 -35.413)" fill="#2b83c0"/>
      <path id="Trazado_660667" data-name="Trazado 660667" d="M157.271,88.969a.2.2,0,0,1,.266,0,.152.152,0,0,1-.266,0" transform="translate(-58.945 -33.326)" fill="#2b83c0"/>
      <path id="Trazado_660668" data-name="Trazado 660668" d="M159.108,81.425l-.057.023-.044-.042c.048-.068.085-.079.1.019" transform="translate(-59.596 -30.491)" fill="#2b83c0"/>
      <path id="Trazado_660669" data-name="Trazado 660669" d="M159.328,81.611c-.1.028-.1-.028-.084-.1.086-.016.122.009.084.1" transform="translate(-59.681 -30.549)" fill="#2b83c0"/>
      <path id="Trazado_660670" data-name="Trazado 660670" d="M153.508,88.976l.064-.043.064.041c-.042.083-.084.088-.128,0" transform="translate(-57.535 -33.332)" fill="#2b83c0"/>
      <path id="Trazado_660671" data-name="Trazado 660671" d="M158.521,88.962l.059-.042.063.037c-.038.068-.078.1-.122,0" transform="translate(-59.414 -33.327)" fill="#2b83c0"/>
      <path id="Trazado_660672" data-name="Trazado 660672" d="M158.287,102.128l.042-.033.042.033-.042.043Z" transform="translate(-59.326 -38.265)" fill="#2b83c0"/>
      <path id="Trazado_660673" data-name="Trazado 660673" d="M158.128,107.775c-.074.026-.14.03-.166-.065.094-.075.136-.02.166.065" transform="translate(-59.204 -40.356)" fill="#2b83c0"/>
      <path id="Trazado_660674" data-name="Trazado 660674" d="M159.16,120.936l-.159-.086c.088-.035.15-.024.159.086" transform="translate(-59.593 -45.288)" fill="#2b83c0"/>
      <path id="Trazado_660675" data-name="Trazado 660675" d="M124.886,6.154l-.046.036-.049-.031.048-.048Z" transform="translate(-46.771 -2.29)" fill="#2b83c0"/>
      <path id="Trazado_660676" data-name="Trazado 660676" d="M159.4,154.127a.682.682,0,0,1-.048-.116c0-.011.031-.029.048-.044,0,.053,0,.107,0,.16" transform="translate(-59.726 -57.707)" fill="#2b83c0"/>
      <path id="Trazado_660677" data-name="Trazado 660677" d="M159.366,108.028l-.111-.151c.144-.028.135.056.111.151" transform="translate(-59.689 -40.43)" fill="#2b83c0"/>
      <path id="Trazado_660678" data-name="Trazado 660678" d="M50.2,54.96a22.446,22.446,0,0,1-3.17,3.152l-.361-.594a28.315,28.315,0,0,0-.96-3.9,13.563,13.563,0,0,0-5.184-6.978,9.334,9.334,0,0,0-11.82,1.32,15.838,15.838,0,0,0-3.889,6.5,23.271,23.271,0,0,0-.714,3.853,9.362,9.362,0,0,1-2.481-2.1,19.256,19.256,0,0,1-4.558-9.064,18.522,18.522,0,0,1,3.775-15.44c.033-.041.081-.071.1-.116.374-.741.777-.778,1.464-.258,1.737,1.315,3.739.845,5.721-.554a12.1,12.1,0,0,0,4.57-7.36,21.933,21.933,0,0,0,.5-8.061.683.683,0,0,0-.074-.292.409.409,0,0,1-.021-.5c.139-.159.325-.023.49.049a15.6,15.6,0,0,1,6.3,4.815,20.937,20.937,0,0,1,3.666,9.025c.27,1.407.416,2.838.628,4.257a3.787,3.787,0,0,0,3.005,3.369,3.726,3.726,0,0,0,3.664-1.4c.225-.241.447-.485.725-.786a19.565,19.565,0,0,1,2.547,10.816,19.577,19.577,0,0,1-3.864,10.213L50.2,54.9Z" transform="translate(-6.26 -5.432)" fill="#ffce00"/>
      <path id="Trazado_660679" data-name="Trazado 660679" d="M64.609,83.312l.361.594c-.13.214-.288.293-.374-.005a1.97,1.97,0,0,1,.013-.589" transform="translate(-24.203 -31.225)" fill="#2b83c0"/>
      <path id="Trazado_660680" data-name="Trazado 660680" d="M70.278,79.184l.006-.06.055.021c.012.064,0,.1-.061.039" transform="translate(-26.34 -29.656)" fill="#2b83c0"/>
      <path id="Trazado_660681" data-name="Trazado 660681" d="M198.246,48c0-2.466,0-4.931,0-7.4,0-1.794-.585-2.366-2.383-2.371-.651,0-1.3.009-1.952,0-.2,0-.458.094-.569-.126s.111-.378.229-.535q1.682-2.243,3.375-4.478,3-3.981,5.994-7.968c.306-.411.473-.5.833-.016,3.042,4.081,6.11,8.142,9.17,12.21.109.145.207.3.313.446.23.318.154.453-.243.451-.755,0-1.51.011-2.265.019-1.63.016-2.223.593-2.224,2.2q-.011,7.514-.009,15.027c0,1-.007,1-1.04,1-2.812,0-5.624-.016-8.435.014-.6.006-.811-.106-.8-.763.044-2.569.018-5.139.018-7.708Z" transform="translate(-72.452 -9.287)" fill="#ad84ff"/>
      <path id="Trazado_660682" data-name="Trazado 660682" d="M116.31,126.394q-.012-38.278-.015-76.558c0-1.484-.168-2.993.549-4.408,1.41-2.777,3.193-3.469,5.868-3.115a5.015,5.015,0,0,1,4.757,5.235c.183,5.628.084,11.265.085,16.9q.007,29.867,0,59.735a4.424,4.424,0,0,1-.009.7,3.152,3.152,0,0,0,1.237,3.3,5.843,5.843,0,0,1,1.9,2.84,9.69,9.69,0,0,1,.551,4.224,9.9,9.9,0,0,1-2.284,5.256,9.383,9.383,0,0,1-5.614,3.16,8.722,8.722,0,0,1-4.317-.337,10.278,10.278,0,0,1-5.01-3.993,9.644,9.644,0,0,1-1.4-6.329,15.622,15.622,0,0,0,.411-2.149c.044-.413.621-.789.89-1.243a6.092,6.092,0,0,1,2.154-2.462.63.63,0,0,0,.259-.541.135.135,0,0,0-.015-.213m3.508-49.1v46.739c0,.214,0,.428,0,.642l-.048.041.048.043,0,.539-.049.041.048.042q0,.369,0,.738a1.974,1.974,0,0,0,.011,1.234,3.411,3.411,0,0,1-1.434,2.424,5.209,5.209,0,0,0-2.233,5.686,5.489,5.489,0,0,0,4.9,4.723,5.73,5.73,0,0,0,6.665-5.678,5.379,5.379,0,0,0-2.5-4.868,2.591,2.591,0,0,1-1.247-2.391c.037-9.395.021-18.789.021-28.184q0-25.5,0-51a2.4,2.4,0,0,0-1.658-2.3,2.034,2.034,0,0,0-2.522,2.359v.03q0,.623,0,1.245a.271.271,0,0,0,0,.425q0,.318,0,.635v18.1c0,.2,0,.4,0,.593v.03q0,.321,0,.641l-.048.042.048.043c0,.241,0,.481,0,.721a.909.909,0,0,0,0,.805q0,.729,0,1.457v4.392Z" transform="translate(-42.162 -15.827)" fill="#000001"/>
      <path id="Trazado_660683" data-name="Trazado 660683" d="M118.567,176.85a.135.135,0,0,1,.015.213c-.092-.065-.086-.136-.015-.213" transform="translate(-44.419 -66.283)" fill="#2b83c0"/>
      <path id="Trazado_660684" data-name="Trazado 660684" d="M45.906,162.2a15.621,15.621,0,1,1,15.115-17.016A15.661,15.661,0,0,1,45.906,162.2m-.748-3.45a12.128,12.128,0,0,0,12.5-11.625c.126-8.025-5.821-12.6-12.349-12.778-6.77-.183-12.45,5.851-12.25,12.6a12.2,12.2,0,0,0,12.1,11.8" transform="translate(-11.14 -49.092)" fill="#000001"/>
      <path id="Trazado_660685" data-name="Trazado 660685" d="M121.934,102.4V101.8l.033-.015-.033-.014v-.594l.033-.014-.033-.016v-.593l.033-.015-.033-.015v-.593l.033-.015-.033-.015v-.593l.033-.015-.033-.014v-.594l.033-.014-.033-.016v-.593l.033-.015-.033-.015v-.593l.033-.015-.033-.015v-.593l.033-.015-.033-.014V96.2l.033-.015-.033-.014v-.594l.033-.014-.033-.016V94.95l.033-.015-.033-.015v-.593l.033-.015-.033-.015V93.7l.033-.015-.033-.014V93.08l.033-.014-.033-.016v-.593l.033-.015-.033-.015v-.594l.033-.014-.033-.015V91.21l.033-.015-.033-.014v-.594l.033-.015-.033-.015v-.593l.033-.014-.033-.016v-.593l.033-.015-.033-.015v-.593l.033-.015-.033-.015v-.593l.033-.015-.033-.015v-.593l.033-.014-.033-.015v-.593l.033-.014-.033-.016v-.593l.033-.015-.033-.015V85.6l.033-.015-.033-.015v-.594l.033-.014-.033-.015v-.593l.033-.014-.033-.016v-.593l.033-.015-.033-.015V83.11l.033-.015-.033-.015v-.594l.033-.014-.033-.015v-.593l.033-.016-.033-.015V81.24l.033-.015-.033-.015v-.594l.033-.014-.033-.015v-.594l.033-.015-.033-.014V79.37l.033-.015-.033-.016v-.593l.033-.014-.033-.015v-.594l.033-.014-.033-.015V77.5l.033-.015-.033-.014v-.593l.033-.015-.033-.016v-.593l.033-.014-.033-.015V75.63l.033-.014-.033-.016v-.593l.033-.015-.033-.015,0-1.454a1.574,1.574,0,0,0,0-.808c0-.24,0-.481,0-.721l.039-.014-.039-.071c0-.213,0-.427,0-.641l.033-.014-.033-.015c0-.2,0-.4,0-.593l.033-.016-.033-.015v-.593l.033-.015-.033-.015V69.4l.033-.014-.033-.015v-.594l.033-.014-.033-.015v-.593l.033-.016-.033-.015V67.53l.033-.015-.033-.015v-.594l.033-.014-.033-.015v-.594l.033-.015-.033-.014V65.66l.033-.016-.033-.015v-.593l.033-.015-.033-.015v-.594l.033-.014-.033-.016V63.79l.033-.015-.033-.014v-.593l.033-.016-.033-.015v-.593l.033-.015-.033-.015V61.92l.033-.015-.033-.015V61.3l.033-.015-.033-.015v-.594l.033-.014-.033-.016v-.593l.033-.015-.033-.014v-.594l.033-.015-.033-.015V58.8l.033-.015-.033-.015v-.594l.033-.014-.033-.016v-.593l.033-.015-.033-.014v-.594l.033-.015-.033-.015v-.593l.033-.015-.033-.015v-.594l.033-.014-.033-.016v-.593l.033-.015-.033-.014v-.593l.033-.016-.033-.015V53.82l.033-.015-.033-.015V52.573l.033-.015-.033-.014,0-.633a.433.433,0,0,0,0-.427q0-.623,0-1.245l.034-.013-.032-.016a2.035,2.035,0,0,1,2.522-2.36,2.4,2.4,0,0,1,1.658,2.3q0,25.5,0,51c0,9.395.016,18.79-.021,28.183a2.591,2.591,0,0,0,1.247,2.391,5.379,5.379,0,0,1,2.5,4.868,5.73,5.73,0,0,1-6.665,5.677,5.488,5.488,0,0,1-4.9-4.723,5.209,5.209,0,0,1,2.233-5.686,3.8,3.8,0,0,0,1.424-3.659c0-.246,0-.491,0-.737l.039-.014c-.012-.024-.026-.047-.039-.07q0-.27,0-.538l.039-.015-.039-.07c0-.214,0-.428,0-.642l.033-.014-.033-.015v-.594l.033-.014-.033-.015c0-.2,0-.4,0-.593l.033-.015-.033-.015v-.593l.033-.015-.033-.015v-.593l.033-.014-.033-.015v-.594l.033-.014-.033-.015v-.593l.033-.014-.033-.016v-.593l.033-.016-.033-.015v-.593l.033-.014-.033-.016V120.5l.033-.014-.033-.014v-.594l.033-.014-.033-.016v-.593l.033-.016-.033-.015v-.593l.033-.015-.033-.015v-.593l.033-.014-.033-.015v-.594l.033-.014-.033-.016v-.593l.033-.016-.033-.015v-.593l.033-.015-.033-.015v-.593l.033-.014-.033-.016v-.593l.033-.014-.033-.015v-.593l.033-.015-.033-.015v-.593l.033-.016-.033-.015v-.593l.033-.015-.033-.015V112.4l.033-.014-.033-.015v-.594l.033-.014-.033-.016v-.593l.033-.016-.033-.015v-.593l.033-.015-.033-.015v-.593l.033-.015-.033-.014v-.594l.033-.014-.033-.016v-.593l.033-.015-.033-.015v-.593l.033-.015-.033-.015v-.593l.033-.015-.033-.014v-.594l.033-.014-.033-.016v-.593l.033-.014-.033-.015v-.593l.033-.016-.033-.015v-.593l.033-.015-.033-.014V104.3l.033-.015-.033-.014v-.594l.033-.014-.033-.016v-.593l.033-.015-.033-.015v-.593l.033-.015Z" transform="translate(-44.277 -17.907)" fill="#ff2138"/>
      <path id="Trazado_660686" data-name="Trazado 660686" d="M124.154,176.4a3.443,3.443,0,0,1,.01,1.237,1.988,1.988,0,0,1-.01-1.237" transform="translate(-46.498 -66.116)" fill="#2b83c0"/>
      <path id="Trazado_660687" data-name="Trazado 660687" d="M124.152,87.665a1.572,1.572,0,0,1,0,.808.912.912,0,0,1,0-.808" transform="translate(-46.496 -32.857)" fill="#2b83c0"/>
      <path id="Trazado_660688" data-name="Trazado 660688" d="M124.149,53.705a.432.432,0,0,1,0,.426.272.272,0,0,1,0-.426" transform="translate(-46.493 -20.129)" fill="#2b83c0"/>
      <path id="Trazado_660689" data-name="Trazado 660689" d="M124.186,175.09l.039.07-.039.014-.048-.043Z" transform="translate(-46.527 -65.624)" fill="#2b83c0"/>
      <path id="Trazado_660690" data-name="Trazado 660690" d="M124.184,174.093l.039.071-.039.014-.048-.043Z" transform="translate(-46.526 -65.25)" fill="#2b83c0"/>
      <path id="Trazado_660691" data-name="Trazado 660691" d="M124.184,86.376l.039.071-.039.014-.048-.043Z" transform="translate(-46.526 -32.374)" fill="#2b83c0"/>
      <path id="Trazado_660692" data-name="Trazado 660692" d="M124.21,117.2l.033.015-.033.015v-.03" transform="translate(-46.554 -43.926)" fill="#2b83c0"/>
      <path id="Trazado_660693" data-name="Trazado 660693" d="M124.21,150.093l.033.015-.033.015v-.03" transform="translate(-46.554 -56.255)" fill="#2b83c0"/>
      <path id="Trazado_660694" data-name="Trazado 660694" d="M124.21,78.325l.033.015-.033.015v-.03" transform="translate(-46.554 -29.356)" fill="#2b83c0"/>
      <path id="Trazado_660695" data-name="Trazado 660695" d="M124.21,76.332l.033.015-.033.015v-.03" transform="translate(-46.554 -28.609)" fill="#2b83c0"/>
      <path id="Trazado_660696" data-name="Trazado 660696" d="M124.21,79.322l.033.015-.033.015v-.03" transform="translate(-46.554 -29.73)" fill="#2b83c0"/>
      <path id="Trazado_660697" data-name="Trazado 660697" d="M124.21,80.319l.033.015-.033.015v-.03" transform="translate(-46.554 -30.103)" fill="#2b83c0"/>
      <path id="Trazado_660698" data-name="Trazado 660698" d="M124.21,75.335l.033.015-.033.015v-.03" transform="translate(-46.554 -28.235)" fill="#2b83c0"/>
      <path id="Trazado_660699" data-name="Trazado 660699" d="M124.21,81.315l.033.015-.033.015v-.03" transform="translate(-46.554 -30.477)" fill="#2b83c0"/>
      <path id="Trazado_660700" data-name="Trazado 660700" d="M124.21,82.312l.033.015-.033.015v-.03" transform="translate(-46.554 -30.851)" fill="#2b83c0"/>
      <path id="Trazado_660701" data-name="Trazado 660701" d="M124.21,62.377l.033.015-.033.015v-.03" transform="translate(-46.554 -23.379)" fill="#2b83c0"/>
      <path id="Trazado_660702" data-name="Trazado 660702" d="M124.21,83.309l.033.015-.033.015v-.03" transform="translate(-46.554 -31.224)" fill="#2b83c0"/>
      <path id="Trazado_660703" data-name="Trazado 660703" d="M124.21,84.306l.033.015-.033.015v-.03" transform="translate(-46.554 -31.598)" fill="#2b83c0"/>
      <path id="Trazado_660704" data-name="Trazado 660704" d="M124.211,85.3l.032.015-.032.014V85.3" transform="translate(-46.554 -31.971)" fill="#2b83c0"/>
      <path id="Trazado_660705" data-name="Trazado 660705" d="M124.21,74.338l.033.015-.033.015v-.03" transform="translate(-46.554 -27.862)" fill="#2b83c0"/>
      <path id="Trazado_660706" data-name="Trazado 660706" d="M124.21,61.38l.033.015-.033.015v-.03" transform="translate(-46.554 -23.005)" fill="#2b83c0"/>
      <path id="Trazado_660707" data-name="Trazado 660707" d="M124.21,73.341l.033.015-.033.015v-.03" transform="translate(-46.554 -27.488)" fill="#2b83c0"/>
      <path id="Trazado_660708" data-name="Trazado 660708" d="M124.21,60.383l.033.015-.033.015v-.03" transform="translate(-46.554 -22.632)" fill="#2b83c0"/>
      <path id="Trazado_660709" data-name="Trazado 660709" d="M124.21,72.344l.033.015-.033.015v-.03" transform="translate(-46.554 -27.115)" fill="#2b83c0"/>
      <path id="Trazado_660710" data-name="Trazado 660710" d="M124.21,91.283l.033.015-.033.015v-.03" transform="translate(-46.554 -34.213)" fill="#2b83c0"/>
      <path id="Trazado_660711" data-name="Trazado 660711" d="M124.21,92.28l.033.015-.033.015v-.03" transform="translate(-46.554 -34.586)" fill="#2b83c0"/>
      <path id="Trazado_660712" data-name="Trazado 660712" d="M124.21,93.277l.033.015-.033.015v-.03" transform="translate(-46.554 -34.96)" fill="#2b83c0"/>
      <path id="Trazado_660713" data-name="Trazado 660713" d="M124.21,94.274l.033.015-.033.015v-.03" transform="translate(-46.554 -35.334)" fill="#2b83c0"/>
      <path id="Trazado_660714" data-name="Trazado 660714" d="M124.21,71.348l.033.015-.033.015v-.03" transform="translate(-46.554 -26.741)" fill="#2b83c0"/>
      <path id="Trazado_660715" data-name="Trazado 660715" d="M124.21,95.27l.033.015-.033.015v-.03" transform="translate(-46.554 -35.707)" fill="#2b83c0"/>
      <path id="Trazado_660716" data-name="Trazado 660716" d="M124.21,96.267l.033.015-.033.015v-.03" transform="translate(-46.554 -36.081)" fill="#2b83c0"/>
      <path id="Trazado_660717" data-name="Trazado 660717" d="M124.21,97.264l.033.015-.033.015v-.03" transform="translate(-46.554 -36.454)" fill="#2b83c0"/>
      <path id="Trazado_660718" data-name="Trazado 660718" d="M124.21,98.261l.033.015-.033.015v-.03" transform="translate(-46.554 -36.828)" fill="#2b83c0"/>
      <path id="Trazado_660719" data-name="Trazado 660719" d="M124.21,99.258l.033.015-.033.015v-.03" transform="translate(-46.554 -37.202)" fill="#2b83c0"/>
      <path id="Trazado_660720" data-name="Trazado 660720" d="M124.21,77.328l.033.015-.033.015v-.03" transform="translate(-46.554 -28.983)" fill="#2b83c0"/>
      <path id="Trazado_660721" data-name="Trazado 660721" d="M124.21,100.254l.033.015-.033.015v-.03" transform="translate(-46.554 -37.575)" fill="#2b83c0"/>
      <path id="Trazado_660722" data-name="Trazado 660722" d="M124.21,101.251l.033.015-.033.015v-.03" transform="translate(-46.554 -37.949)" fill="#2b83c0"/>
      <path id="Trazado_660723" data-name="Trazado 660723" d="M124.21,102.248l.033.015-.033.015v-.03" transform="translate(-46.554 -38.322)" fill="#2b83c0"/>
      <path id="Trazado_660724" data-name="Trazado 660724" d="M124.21,103.245l.033.015-.033.015v-.03" transform="translate(-46.554 -38.696)" fill="#2b83c0"/>
      <path id="Trazado_660725" data-name="Trazado 660725" d="M124.21,104.241l.033.015-.033.015v-.03" transform="translate(-46.554 -39.07)" fill="#2b83c0"/>
      <path id="Trazado_660726" data-name="Trazado 660726" d="M124.21,105.238l.033.015-.033.015v-.03" transform="translate(-46.554 -39.443)" fill="#2b83c0"/>
      <path id="Trazado_660727" data-name="Trazado 660727" d="M124.21,106.235l.033.015-.033.015v-.03" transform="translate(-46.554 -39.817)" fill="#2b83c0"/>
      <path id="Trazado_660728" data-name="Trazado 660728" d="M124.21,107.232l.033.015-.033.015v-.03" transform="translate(-46.554 -40.19)" fill="#2b83c0"/>
      <path id="Trazado_660729" data-name="Trazado 660729" d="M124.21,58.39l.033.015-.033.015v-.03" transform="translate(-46.554 -21.884)" fill="#2b83c0"/>
      <path id="Trazado_660730" data-name="Trazado 660730" d="M124.21,57.393l.033.015-.033.015v-.03" transform="translate(-46.554 -21.511)" fill="#2b83c0"/>
      <path id="Trazado_660731" data-name="Trazado 660731" d="M124.211,55.4l.033.015-.033.015V55.4" transform="translate(-46.554 -20.764)" fill="#2b83c0"/>
      <path id="Trazado_660732" data-name="Trazado 660732" d="M124.21,109.225l.033.015-.033.015v-.03" transform="translate(-46.554 -40.938)" fill="#2b83c0"/>
      <path id="Trazado_660733" data-name="Trazado 660733" d="M124.21,110.222l.033.015-.033.015v-.03" transform="translate(-46.554 -41.311)" fill="#2b83c0"/>
      <path id="Trazado_660734" data-name="Trazado 660734" d="M124.21,111.219l.033.015-.033.015v-.03" transform="translate(-46.554 -41.685)" fill="#2b83c0"/>
      <path id="Trazado_660735" data-name="Trazado 660735" d="M124.21,70.351l.033.015-.033.015v-.03" transform="translate(-46.554 -26.367)" fill="#2b83c0"/>
      <path id="Trazado_660736" data-name="Trazado 660736" d="M124.21,112.216l.033.015-.033.015v-.03" transform="translate(-46.554 -42.058)" fill="#2b83c0"/>
      <path id="Trazado_660737" data-name="Trazado 660737" d="M124.21,113.212l.033.015-.033.015v-.03" transform="translate(-46.554 -42.432)" fill="#2b83c0"/>
      <path id="Trazado_660738" data-name="Trazado 660738" d="M124.21,114.209l.033.015-.033.015v-.03" transform="translate(-46.554 -42.806)" fill="#2b83c0"/>
      <path id="Trazado_660739" data-name="Trazado 660739" d="M124.21,51.665l.032.016-.034.013,0-.029" transform="translate(-46.553 -19.364)" fill="#2b83c0"/>
      <path id="Trazado_660740" data-name="Trazado 660740" d="M124.21,115.206l.033.015-.033.015v-.03" transform="translate(-46.554 -43.179)" fill="#2b83c0"/>
      <path id="Trazado_660741" data-name="Trazado 660741" d="M124.21,116.2l.033.015-.033.015v-.03" transform="translate(-46.554 -43.553)" fill="#2b83c0"/>
      <path id="Trazado_660742" data-name="Trazado 660742" d="M124.21,63.373l.033.015-.033.015v-.03" transform="translate(-46.554 -23.752)" fill="#2b83c0"/>
      <path id="Trazado_660743" data-name="Trazado 660743" d="M124.21,118.2l.033.015-.033.015v-.03" transform="translate(-46.554 -44.3)" fill="#2b83c0"/>
      <path id="Trazado_660744" data-name="Trazado 660744" d="M124.21,119.193l.033.015-.033.015v-.03" transform="translate(-46.554 -44.673)" fill="#2b83c0"/>
      <path id="Trazado_660745" data-name="Trazado 660745" d="M124.21,120.19l.033.015-.033.015v-.03" transform="translate(-46.554 -45.047)" fill="#2b83c0"/>
      <path id="Trazado_660746" data-name="Trazado 660746" d="M124.21,121.187l.033.015-.033.015v-.03" transform="translate(-46.554 -45.421)" fill="#2b83c0"/>
      <path id="Trazado_660747" data-name="Trazado 660747" d="M124.21,122.183l.033.015-.033.015v-.03" transform="translate(-46.554 -45.794)" fill="#2b83c0"/>
      <path id="Trazado_660748" data-name="Trazado 660748" d="M124.21,123.18l.033.015-.033.015v-.03" transform="translate(-46.554 -46.168)" fill="#2b83c0"/>
      <path id="Trazado_660749" data-name="Trazado 660749" d="M124.21,124.177l.033.015-.033.015v-.03" transform="translate(-46.554 -46.541)" fill="#2b83c0"/>
      <path id="Trazado_660750" data-name="Trazado 660750" d="M124.21,125.174l.033.015-.033.015v-.03" transform="translate(-46.554 -46.915)" fill="#2b83c0"/>
      <path id="Trazado_660751" data-name="Trazado 660751" d="M124.21,126.171l.033.015-.033.015v-.03" transform="translate(-46.554 -47.289)" fill="#2b83c0"/>
      <path id="Trazado_660752" data-name="Trazado 660752" d="M124.21,127.167l.033.015-.033.015v-.03" transform="translate(-46.554 -47.662)" fill="#2b83c0"/>
      <path id="Trazado_660753" data-name="Trazado 660753" d="M124.21,128.164l.033.015-.033.015v-.03" transform="translate(-46.554 -48.036)" fill="#2b83c0"/>
      <path id="Trazado_660754" data-name="Trazado 660754" d="M124.21,129.161l.033.015-.033.015v-.03" transform="translate(-46.554 -48.409)" fill="#2b83c0"/>
      <path id="Trazado_660755" data-name="Trazado 660755" d="M124.21,130.158l.033.015-.033.015v-.03" transform="translate(-46.554 -48.783)" fill="#2b83c0"/>
      <path id="Trazado_660756" data-name="Trazado 660756" d="M124.21,131.154l.033.015-.033.015v-.03" transform="translate(-46.554 -49.157)" fill="#2b83c0"/>
      <path id="Trazado_660757" data-name="Trazado 660757" d="M124.21,132.151l.033.015-.033.015v-.03" transform="translate(-46.554 -49.53)" fill="#2b83c0"/>
      <path id="Trazado_660758" data-name="Trazado 660758" d="M124.21,133.148l.033.015-.033.015v-.03" transform="translate(-46.554 -49.904)" fill="#2b83c0"/>
      <path id="Trazado_660759" data-name="Trazado 660759" d="M124.21,134.145l.033.015-.033.015v-.03" transform="translate(-46.554 -50.277)" fill="#2b83c0"/>
      <path id="Trazado_660760" data-name="Trazado 660760" d="M124.21,69.354l.033.015-.033.015v-.03" transform="translate(-46.554 -25.994)" fill="#2b83c0"/>
      <path id="Trazado_660761" data-name="Trazado 660761" d="M124.21,135.141l.033.015-.033.015v-.03" transform="translate(-46.554 -50.651)" fill="#2b83c0"/>
      <path id="Trazado_660762" data-name="Trazado 660762" d="M124.21,136.138l.033.015-.033.015v-.03" transform="translate(-46.554 -51.025)" fill="#2b83c0"/>
      <path id="Trazado_660763" data-name="Trazado 660763" d="M124.21,68.357l.033.015-.033.015v-.03" transform="translate(-46.554 -25.62)" fill="#2b83c0"/>
      <path id="Trazado_660764" data-name="Trazado 660764" d="M124.21,137.135l.033.015-.033.015v-.03" transform="translate(-46.554 -51.398)" fill="#2b83c0"/>
      <path id="Trazado_660765" data-name="Trazado 660765" d="M124.21,138.132l.033.015-.033.015v-.03" transform="translate(-46.554 -51.772)" fill="#2b83c0"/>
      <path id="Trazado_660766" data-name="Trazado 660766" d="M124.21,139.129l.033.015-.033.015v-.03" transform="translate(-46.554 -52.145)" fill="#2b83c0"/>
      <path id="Trazado_660767" data-name="Trazado 660767" d="M124.21,140.125l.033.015-.033.015v-.03" transform="translate(-46.554 -52.519)" fill="#2b83c0"/>
      <path id="Trazado_660768" data-name="Trazado 660768" d="M124.21,141.122l.033.015-.033.015v-.03" transform="translate(-46.554 -52.893)" fill="#2b83c0"/>
      <path id="Trazado_660769" data-name="Trazado 660769" d="M124.21,142.119l.033.015-.033.015v-.03" transform="translate(-46.554 -53.266)" fill="#2b83c0"/>
      <path id="Trazado_660770" data-name="Trazado 660770" d="M124.21,143.116l.033.015-.033.015v-.03" transform="translate(-46.554 -53.64)" fill="#2b83c0"/>
      <path id="Trazado_660771" data-name="Trazado 660771" d="M124.21,144.113l.033.015-.033.015v-.03" transform="translate(-46.554 -54.013)" fill="#2b83c0"/>
      <path id="Trazado_660772" data-name="Trazado 660772" d="M124.21,145.109l.033.015-.033.015v-.03" transform="translate(-46.554 -54.387)" fill="#2b83c0"/>
      <path id="Trazado_660773" data-name="Trazado 660773" d="M124.21,146.106l.033.015-.033.015v-.03" transform="translate(-46.554 -54.76)" fill="#2b83c0"/>
      <path id="Trazado_660774" data-name="Trazado 660774" d="M124.21,147.1l.033.015-.033.015v-.03" transform="translate(-46.554 -55.134)" fill="#2b83c0"/>
      <path id="Trazado_660775" data-name="Trazado 660775" d="M124.21,67.36l.033.015-.033.015v-.03" transform="translate(-46.554 -25.247)" fill="#2b83c0"/>
      <path id="Trazado_660776" data-name="Trazado 660776" d="M124.21,148.1l.033.015-.033.015v-.03" transform="translate(-46.554 -55.508)" fill="#2b83c0"/>
      <path id="Trazado_660777" data-name="Trazado 660777" d="M124.21,149.1l.033.015-.033.015v-.03" transform="translate(-46.554 -55.881)" fill="#2b83c0"/>
      <path id="Trazado_660778" data-name="Trazado 660778" d="M124.21,108.229l.033.015-.033.015v-.03" transform="translate(-46.554 -40.564)" fill="#2b83c0"/>
      <path id="Trazado_660779" data-name="Trazado 660779" d="M124.21,151.09l.033.015-.033.015v-.03" transform="translate(-46.554 -56.628)" fill="#2b83c0"/>
      <path id="Trazado_660780" data-name="Trazado 660780" d="M124.21,152.087l.033.015-.033.015v-.03" transform="translate(-46.554 -57.002)" fill="#2b83c0"/>
      <path id="Trazado_660781" data-name="Trazado 660781" d="M124.21,153.084l.033.015-.033.015v-.03" transform="translate(-46.554 -57.376)" fill="#2b83c0"/>
      <path id="Trazado_660782" data-name="Trazado 660782" d="M124.21,154.08l.033.015-.033.015v-.03" transform="translate(-46.554 -57.749)" fill="#2b83c0"/>
      <path id="Trazado_660783" data-name="Trazado 660783" d="M124.21,155.077l.033.015-.033.015v-.03" transform="translate(-46.554 -58.123)" fill="#2b83c0"/>
      <path id="Trazado_660784" data-name="Trazado 660784" d="M124.21,156.074l.033.015-.033.015v-.03" transform="translate(-46.554 -58.496)" fill="#2b83c0"/>
      <path id="Trazado_660785" data-name="Trazado 660785" d="M124.21,157.071l.033.015-.033.015v-.03" transform="translate(-46.554 -58.87)" fill="#2b83c0"/>
      <path id="Trazado_660786" data-name="Trazado 660786" d="M124.21,158.068l.033.015-.033.015v-.03" transform="translate(-46.554 -59.244)" fill="#2b83c0"/>
      <path id="Trazado_660787" data-name="Trazado 660787" d="M124.21,159.064l.033.015-.033.015v-.03" transform="translate(-46.554 -59.617)" fill="#2b83c0"/>
      <path id="Trazado_660788" data-name="Trazado 660788" d="M124.21,160.061l.033.015-.033.015v-.03" transform="translate(-46.554 -59.991)" fill="#2b83c0"/>
      <path id="Trazado_660789" data-name="Trazado 660789" d="M124.21,161.058l.033.015-.033.015v-.03" transform="translate(-46.554 -60.364)" fill="#2b83c0"/>
      <path id="Trazado_660790" data-name="Trazado 660790" d="M124.21,162.055l.033.015-.033.015v-.03" transform="translate(-46.554 -60.738)" fill="#2b83c0"/>
      <path id="Trazado_660791" data-name="Trazado 660791" d="M124.21,163.051l.033.015-.033.015v-.03" transform="translate(-46.554 -61.112)" fill="#2b83c0"/>
      <path id="Trazado_660792" data-name="Trazado 660792" d="M124.21,164.048l.033.015-.033.015v-.03" transform="translate(-46.554 -61.485)" fill="#2b83c0"/>
      <path id="Trazado_660793" data-name="Trazado 660793" d="M124.21,165.045l.033.015-.033.015v-.03" transform="translate(-46.554 -61.859)" fill="#2b83c0"/>
      <path id="Trazado_660794" data-name="Trazado 660794" d="M124.21,166.042l.033.015-.033.015v-.03" transform="translate(-46.554 -62.232)" fill="#2b83c0"/>
      <path id="Trazado_660795" data-name="Trazado 660795" d="M124.21,167.038l.033.015-.033.015v-.03" transform="translate(-46.554 -62.606)" fill="#2b83c0"/>
      <path id="Trazado_660796" data-name="Trazado 660796" d="M124.21,168.035l.033.015-.033.015v-.03" transform="translate(-46.554 -62.98)" fill="#2b83c0"/>
      <path id="Trazado_660797" data-name="Trazado 660797" d="M124.21,169.032l.033.015-.033.015v-.03" transform="translate(-46.554 -63.353)" fill="#2b83c0"/>
      <path id="Trazado_660798" data-name="Trazado 660798" d="M124.21,170.029l.033.015-.033.015v-.03" transform="translate(-46.554 -63.727)" fill="#2b83c0"/>
      <path id="Trazado_660799" data-name="Trazado 660799" d="M124.21,171.026l.033.015-.033.015v-.03" transform="translate(-46.554 -64.1)" fill="#2b83c0"/>
      <path id="Trazado_660800" data-name="Trazado 660800" d="M124.211,172.022l.033.015-.033.014v-.029" transform="translate(-46.554 -64.474)" fill="#2b83c0"/>
      <path id="Trazado_660801" data-name="Trazado 660801" d="M124.211,173.019l.032.015-.032.014v-.029" transform="translate(-46.554 -64.848)" fill="#2b83c0"/>
      <path id="Trazado_660802" data-name="Trazado 660802" d="M124.21,66.364l.033.015-.033.015v-.03" transform="translate(-46.554 -24.873)" fill="#2b83c0"/>
      <path id="Trazado_660803" data-name="Trazado 660803" d="M124.21,65.367l.033.015-.033.015v-.03" transform="translate(-46.554 -24.499)" fill="#2b83c0"/>
      <path id="Trazado_660804" data-name="Trazado 660804" d="M124.21,64.37l.033.015-.033.015v-.03" transform="translate(-46.554 -24.126)" fill="#2b83c0"/>
      <path id="Trazado_660805" data-name="Trazado 660805" d="M124.21,59.386l.033.015-.033.015v-.03" transform="translate(-46.554 -22.258)" fill="#2b83c0"/>
      <path id="Trazado_660806" data-name="Trazado 660806" d="M47.155,160.769a12.2,12.2,0,0,1-12.1-11.8c-.2-6.753,5.48-12.787,12.25-12.6,6.528.177,12.475,4.753,12.349,12.778a12.128,12.128,0,0,1-12.5,11.625" transform="translate(-13.136 -51.109)" fill="#f8f9fb"/>
    </g>
  </g>
</svg>
