<svg xmlns="http://www.w3.org/2000/svg" width="94" height="94" viewBox="0 0 94 94">
  <g id="Grupo_974099" data-name="Grupo 974099" transform="translate(-326 -4478)">
    <circle id="Elipse_5550" data-name="Elipse 5550" cx="47" cy="47" r="47" transform="translate(326 4478)" fill="#fff"/>
    <g id="energia-renovable" transform="translate(339 4491)">
      <path id="Trazado_660642" data-name="Trazado 660642" d="M179.17,112.742a1.919,1.919,0,0,1-.566,1.86L165.06,128.145l-6.671,6.671a1.976,1.976,0,0,1-2.587.243,2.033,2.033,0,0,1-.647-2.547l7.035-14.11-9.905-3.315a2.024,2.024,0,0,1-1.334-1.455,1.919,1.919,0,0,1,.566-1.86L171.73,91.556a1.976,1.976,0,0,1,2.587-.243,2.033,2.033,0,0,1,.647,2.547l-7.035,14.11,9.905,3.315A2.024,2.024,0,0,1,179.17,112.742Z" transform="translate(-130.56 -78.686)" fill="#fdbf00"/>
      <g id="Grupo_970036" data-name="Grupo 970036">
        <path id="Trazado_660643" data-name="Trazado 660643" d="M94.957,34.5a2.021,2.021,0,0,1-4.043,0A30.423,30.423,0,0,0,35.9,16.549l4.083-.243a2.057,2.057,0,0,1,2.143,1.9,2.028,2.028,0,0,1-1.9,2.143l-8.086.485A2.108,2.108,0,0,1,30,18.813V10.242a2.021,2.021,0,0,1,4.043,0v2.224A34.41,34.41,0,0,1,94.957,34.5Z" transform="translate(-25.957)" fill="#54e360"/>
        <path id="Trazado_660644" data-name="Trazado 660644" d="M64.957,258.708v8.571a2.021,2.021,0,0,1-4.043,0v-2.224A34.793,34.793,0,0,1,34.5,277.521,34.619,34.619,0,0,1,0,243.021,2,2,0,0,1,2.021,241a2,2,0,0,1,2.021,2.021,30.423,30.423,0,0,0,55.011,17.951l-4.083.243a2.025,2.025,0,0,1-.243-4.043l8.086-.485A2.079,2.079,0,0,1,64.957,258.708Z" transform="translate(0 -208.521)" fill="#54e360"/>
      </g>
      <path id="Trazado_660645" data-name="Trazado 660645" d="M269.544,114.6,256,128.146V98.228l6.671-6.671a1.976,1.976,0,0,1,2.587-.243,2.033,2.033,0,0,1,.647,2.547l-7.035,14.11,9.905,3.315a2.024,2.024,0,0,1,1.334,1.456A1.919,1.919,0,0,1,269.544,114.6Z" transform="translate(-221.5 -78.687)" fill="#ff9f00"/>
      <g id="Grupo_970037" data-name="Grupo 970037" transform="translate(34.5)">
        <path id="Trazado_660646" data-name="Trazado 660646" d="M286.457,359.391v8.571a2.021,2.021,0,0,1-4.043,0v-2.224A34.793,34.793,0,0,1,256,378.2v-4.043a30.787,30.787,0,0,0,24.554-12.506l-4.083.243a2.025,2.025,0,0,1-.243-4.043l8.086-.485A2.079,2.079,0,0,1,286.457,359.391Z" transform="translate(-256 -309.204)" fill="#00cc71"/>
        <path id="Trazado_660647" data-name="Trazado 660647" d="M290.5,34.5a2.021,2.021,0,0,1-4.043,0A30.564,30.564,0,0,0,256,4.043V0A34.619,34.619,0,0,1,290.5,34.5Z" transform="translate(-256)" fill="#00cc71"/>
      </g>
    </g>
  </g>
</svg>
